<svg width="276" height="39" viewBox="0 0 276 39" xmlns="http://www.w3.org/2000/svg"><title>header-logo-horizontal</title><path d="M135.057 37.565c-2.04 0-3.716-.672-4.989-1.991-1.279-1.322-1.927-3.002-1.927-4.987 0-2.04.648-3.758 1.922-5.101 1.268-1.343 2.892-2.023 4.803-2.023 2.048 0 3.725.68 4.996 2.023 1.281 1.343 1.927 3.147 1.927 5.351 0 0-.007.447-.015.571h-10.61l.017.093c.15.98.58 1.776 1.25 2.356.673.586 1.551.875 2.6.875 1.228 0 2.296-.448 3.185-1.327.086.042 2.474 1.199 2.645 1.277-.67.965-1.47 1.693-2.4 2.161-.95.477-2.095.722-3.404.722zm-3.83-9.022l-.054.101h7.583l-.03-.093c-.23-.659-.683-1.213-1.354-1.632-.67-.415-1.463-.626-2.347-.626-.953 0-1.809.239-2.536.699-.45.301-.877.821-1.262 1.551zm-97.864 9.023V18.763h3.033v18.803h-3.033zm74.132-29.732c-1.046 0-1.896-1.756-1.896-3.912 0-2.163.888-3.922 1.936-3.922 1.043 0 1.856 1.76 1.856 3.922 0 2.156-.852 3.912-1.896 3.912zm8.723 9.402c-1.253 0-2.278-1.408-2.278-3.133 0-1.732 1.025-3.135 2.278-3.135 1.253 0 2.27 1.403 2.27 3.135 0 1.725-1.017 3.133-2.27 3.133zm5.567 20.33V26.538h-1.227v-2.8h1.227v-.088c.005-1.819.038-2.909.083-3.238.089-.746.401-1.347.921-1.78.526-.435 1.287-.654 2.256-.654.685 0 1.478.165 2.338.48v2.503c-.453-.126-.843-.204-1.142-.204-.419 0-.732.097-.942.287-.15.144-.224.425-.224.857l-.008 1.836h2.17v2.801h-2.17v11.026h-3.282zm-7.292-.001V23.463h3.033v14.102h-3.033zm-45.494 0V23.463h3.033v14.102h-3.033zm75.83 0c-1.27 0-2.282-1.044-2.282-2.358s1.012-2.343 2.293-2.343c1.257 0 2.256 1.03 2.256 2.343 0 1.314-.999 2.358-2.268 2.358zm-.015-4.229c-.958 0-1.7.842-1.7 1.871 0 1.044.742 1.872 1.726 1.872.96.014 1.688-.828 1.688-1.858 0-1.043-.729-1.885-1.714-1.885zm-.336 2.156v.93h-.514V34.08c.202-.028.485-.072.85-.072.418 0 .609.072.757.186.135.1.229.272.229.5 0 .287-.202.471-.458.558v.028c.215.071.322.257.391.571.067.358.121.486.16.572h-.539c-.066-.086-.107-.286-.176-.572-.038-.244-.174-.358-.458-.358h-.242zm.012-1.056v.67h.244c.282 0 .513-.099.513-.342 0-.215-.149-.356-.473-.356-.135 0-.23.012-.284.027zm-33.03-.206v3.335h-8.34V17.98h3.3v16.25h5.04zm-53.754-2.165v5.5h-3.113V23.82h3.113v1.517l.123-.113c.733-.66 1.4-1.125 1.989-1.374a4.517 4.517 0 0 1 1.819-.386c1.26 0 2.34.47 3.222 1.419.736.79 1.108 1.999 1.108 3.57v9.113h-3.065v-6.009c0-1.686-.07-2.77-.211-3.33-.143-.558-.401-.991-.753-1.292-.361-.293-.807-.439-1.33-.439-.677 0-1.267.244-1.754.726-.48.48-.817 1.154-1.003 1.998-.098.45-.145 1.376-.145 2.845zm41.448-17.963c-1.02 0-1.896-2.513-1.896-5.483 0-2.976.875-5.485 1.896-5.485 1.031 0 1.896 2.51 1.896 5.485 0 2.97-.865 5.483-1.896 5.483zM24.955 37.565c-1.856 0-3.46-.7-4.777-2.055-1.315-1.362-1.98-3.04-1.98-4.985 0-2.087.753-3.848 2.238-5.249 1.3-1.2 2.816-1.813 4.51-1.813 1.222 0 2.386.315 3.464.945a6.738 6.738 0 0 1 2.531 2.578 7.12 7.12 0 0 1 .904 3.515 7.295 7.295 0 0 1-.909 3.55 6.728 6.728 0 0 1-2.496 2.577 6.742 6.742 0 0 1-3.485.937zm-2.645-9.867c-.714.728-1.08 1.67-1.08 2.8 0 1.164.363 2.114 1.067 2.844.711.722 1.621 1.09 2.707 1.09 1.087 0 2.003-.368 2.72-1.103.726-.735 1.09-1.687 1.09-2.83 0-1.15-.358-2.097-1.067-2.815-.708-.722-1.63-1.087-2.729-1.087-1.078 0-1.988.37-2.708 1.101zm23.119 9.867c-1.86 0-3.464-.7-4.78-2.055-1.312-1.362-1.979-3.04-1.979-4.985 0-2.087.751-3.848 2.238-5.249 1.301-1.2 2.819-1.813 4.509-1.813a6.78 6.78 0 0 1 3.464.945 6.78 6.78 0 0 1 2.528 2.578 7.135 7.135 0 0 1 .909 3.515 7.268 7.268 0 0 1-.915 3.55 6.742 6.742 0 0 1-5.974 3.514zm-2.646-9.867c-.718.728-1.08 1.67-1.08 2.8 0 1.164.357 2.114 1.069 2.844.707.722 1.617 1.09 2.703 1.09 1.085 0 2.003-.368 2.723-1.103.723-.735 1.087-1.687 1.087-2.83 0-1.15-.361-2.097-1.067-2.815-.71-.722-1.626-1.087-2.731-1.087-1.076 0-1.985.37-2.704 1.101zm38.558 9.867c-1.694 0-3.175-.682-4.42-2.02-1.23-1.336-1.856-3.021-1.856-5.003 0-2.072.605-3.784 1.803-5.106 1.194-1.306 2.662-1.973 4.373-1.973.787 0 1.53.149 2.219.451a6.314 6.314 0 0 1 1.926 1.362l.132.148v-1.613h3.195v13.407h-3.195v-1.547l-.13.133c-.65.62-1.3 1.076-1.943 1.345a5.237 5.237 0 0 1-2.104.416zm-2.173-9.877c-.714.726-1.07 1.669-1.07 2.8 0 1.139.364 2.094 1.086 2.83.722.736 1.628 1.114 2.689 1.114 1.092 0 2.008-.368 2.727-1.095.72-.726 1.08-1.687 1.08-2.862 0-1.149-.36-2.091-1.08-2.805-.72-.723-1.642-1.073-2.741-1.073-1.076 0-1.982.361-2.691 1.091zm-8.07-9.669c-1.463 0-2.653-1.229-2.653-2.741 0-1.518 1.19-2.743 2.653-2.743 1.466 0 2.654 1.225 2.654 2.743 0 1.512-1.188 2.741-2.654 2.741zm20.648 19.546V18.762h3.033v18.803h-3.033zm-.935-27.38c-1.047 0-1.894-1.936-1.894-4.313 0-2.374.847-4.305 1.894-4.305s1.897 1.93 1.897 4.305c0 2.377-.85 4.313-1.897 4.313zm-9.474 4.7c-1.256 0-2.276-1.584-2.276-3.523 0-1.945 1.02-3.528 2.276-3.528 1.252 0 2.273 1.583 2.273 3.528 0 1.94-1.021 3.523-2.273 3.523zM9.573 37.565c-2.794 0-5.115-.935-6.892-2.76C.898 32.971 0 30.6 0 27.735c0-1.852.408-3.517 1.217-4.955.812-1.43 1.99-2.609 3.498-3.489a9.71 9.71 0 0 1 4.907-1.313c1.482 0 2.93.326 4.304.973a10.382 10.382 0 0 1 3.513 2.723l-2.31 2.272c-1.642-1.769-3.511-2.673-5.561-2.673-1.749 0-3.248.633-4.451 1.866-1.201 1.241-1.811 2.792-1.811 4.606 0 1.261.267 2.404.801 3.382a5.847 5.847 0 0 0 2.27 2.324c.967.554 2.065.841 3.255.841 1.012 0 1.95-.2 2.79-.586.82-.388 1.732-1.095 2.705-2.083.098.104 2.134 2.303 2.245 2.41-1.31 1.31-2.566 2.232-3.733 2.742-1.185.52-2.555.79-4.066.79zm159.7.435V0h1.085v38h-1.085zm23.29-31.266h3.39c1.573 0 2.71.23 3.41.688.7.458 1.051 1.182 1.051 2.172 0 .666-.172 1.221-.516 1.664-.343.443-.838.721-1.484.836v.078c.802.15 1.392.45 1.77.894.377.446.566 1.049.566 1.809 0 1.026-.358 1.83-1.074 2.41-.716.58-1.712.871-2.988.871h-4.125V6.734zm1.867 4.72h1.797c.78 0 1.351-.125 1.71-.372.36-.247.54-.668.54-1.262 0-.536-.194-.924-.582-1.164-.388-.24-1.004-.36-1.848-.36h-1.617v3.157zm0 1.515v3.617h1.984c.781 0 1.371-.15 1.77-.45.398-.299.597-.771.597-1.417 0-.594-.203-1.034-.61-1.32-.405-.287-1.023-.43-1.85-.43h-1.891zm13.282-3.61c.37 0 .675.026.915.079l-.18 1.71a3.47 3.47 0 0 0-.813-.093c-.734 0-1.329.24-1.785.718-.456.48-.683 1.102-.683 1.868v4.515h-1.836v-8.64h1.437l.242 1.523h.094c.287-.516.66-.924 1.121-1.226a2.658 2.658 0 0 1 1.488-.454zm8.002 8.797l-.367-1.203h-.063c-.416.526-.836.884-1.257 1.074-.422.19-.964.285-1.625.285-.85 0-1.512-.229-1.989-.687-.476-.458-.715-1.107-.715-1.945 0-.89.331-1.563.993-2.016.661-.453 1.669-.7 3.023-.742l1.492-.047v-.46c0-.553-.129-.966-.386-1.24-.258-.273-.658-.41-1.2-.41-.442 0-.867.066-1.273.196a9.61 9.61 0 0 0-1.172.46l-.594-1.312a6.39 6.39 0 0 1 1.54-.558 7.083 7.083 0 0 1 1.577-.192c1.1 0 1.929.24 2.489.72.56.478.84 1.23.84 2.257v5.82h-1.313zm-2.734-1.25c.666 0 1.202-.186 1.605-.558.404-.373.606-.895.606-1.567v-.75l-1.11.047c-.864.031-1.493.176-1.886.434-.394.258-.59.652-.59 1.183 0 .386.114.684.343.895.23.21.573.316 1.032.316zm14.61 1.25h-1.843v-5.312c0-.667-.134-1.164-.402-1.492-.269-.329-.694-.493-1.278-.493-.776 0-1.344.23-1.703.688-.36.458-.539 1.226-.539 2.305v4.304h-1.836v-8.64h1.438l.257 1.132h.094c.26-.411.63-.729 1.11-.953a3.718 3.718 0 0 1 1.593-.336c2.073 0 3.11 1.055 3.11 3.164v5.633zm5.87.157c-1.079 0-1.92-.391-2.524-1.172-.604-.782-.906-1.878-.906-3.29 0-1.416.306-2.519.918-3.308.612-.79 1.46-1.184 2.543-1.184 1.135 0 2 .42 2.593 1.258h.094c-.088-.62-.133-1.11-.133-1.469V6h1.844v12.156h-1.437l-.32-1.133h-.087c-.588.86-1.45 1.29-2.586 1.29zm.492-1.485c.755 0 1.304-.212 1.648-.637.344-.424.52-1.113.531-2.066v-.258c0-1.088-.177-1.862-.531-2.32-.354-.458-.909-.688-1.664-.688-.646 0-1.143.262-1.492.786-.35.523-.524 1.27-.524 2.238 0 .958.17 1.689.508 2.191.339.503.846.754 1.524.754zm-36.718 15.133h4.203v5.734c-.687.224-1.347.383-1.98.477a14.02 14.02 0 0 1-2.05.14c-1.73 0-3.063-.511-4-1.535-.938-1.023-1.407-2.467-1.407-4.332 0-1.838.529-3.277 1.586-4.316 1.057-1.04 2.513-1.559 4.367-1.559 1.193 0 2.323.23 3.39.688l-.655 1.555c-.928-.428-1.855-.641-2.782-.641-1.219 0-2.182.383-2.89 1.148-.709.766-1.063 1.813-1.063 3.14 0 1.397.32 2.458.957 3.185.638.726 1.556 1.09 2.754 1.09.604 0 1.25-.076 1.938-.227v-2.946h-2.368v-1.601zm13.244 6.195l-.258-1.133h-.093a2.605 2.605 0 0 1-1.09.946c-.472.229-1.01.343-1.614.343-1.046 0-1.828-.26-2.343-.78-.516-.522-.774-1.31-.774-2.368v-5.648h1.852v5.328c0 .661.135 1.157.406 1.488.27.33.695.496 1.273.496.771 0 1.338-.23 1.7-.691.362-.461.543-1.233.543-2.317v-4.304h1.843v8.64h-1.445zm6.299 0h-1.836v-8.64h1.836v8.64zm-1.946-10.93c0-.328.09-.58.27-.757.18-.177.436-.266.77-.266.322 0 .574.089.753.266.18.177.27.43.27.758 0 .312-.09.558-.27.738-.18.18-.43.27-.754.27-.333 0-.59-.09-.77-.27-.179-.18-.269-.426-.269-.738zm7.885 11.087c-1.079 0-1.92-.391-2.524-1.172-.604-.782-.906-1.878-.906-3.29 0-1.416.306-2.519.918-3.308.612-.79 1.46-1.184 2.543-1.184 1.135 0 2 .42 2.594 1.258h.093c-.088-.62-.132-1.11-.132-1.469V26h1.843v12.156h-1.437l-.32-1.133h-.086c-.589.86-1.451 1.29-2.586 1.29zm.492-1.485c.755 0 1.304-.212 1.648-.637.344-.424.521-1.113.531-2.066v-.258c0-1.088-.177-1.862-.53-2.32-.355-.458-.91-.688-1.665-.688-.646 0-1.143.262-1.492.786-.349.523-.523 1.27-.523 2.238 0 .958.169 1.689.507 2.191.339.503.847.754 1.524.754zm10.736 1.484c-1.344 0-2.395-.391-3.153-1.175-.757-.784-1.136-1.864-1.136-3.239 0-1.411.351-2.52 1.054-3.328.704-.807 1.67-1.21 2.899-1.21 1.14 0 2.041.346 2.703 1.038.661.693.992 1.646.992 2.86v.992h-5.758c.026.839.253 1.483.68 1.934.427.45 1.029.675 1.805.675.51 0 .985-.048 1.425-.144.44-.097.913-.257 1.418-.48v1.492a5.637 5.637 0 0 1-1.359.453 8.336 8.336 0 0 1-1.57.133zm-.336-7.562c-.584 0-1.051.185-1.403.555-.351.37-.56.909-.628 1.617h3.921c-.01-.714-.182-1.254-.515-1.621-.334-.367-.792-.551-1.375-.551zm8.017 7.406h-1.836V26h1.836v12.156zm4.86 0h-1.835v-8.64h1.836v8.64zm-1.944-10.93c0-.328.09-.58.27-.757.179-.177.435-.266.769-.266.323 0 .574.089.754.266.18.177.27.43.27.758 0 .312-.09.558-.27.738-.18.18-.431.27-.754.27-.334 0-.59-.09-.77-.27-.18-.18-.27-.426-.27-.738zm12.572 10.93h-1.844v-5.312c0-.667-.134-1.164-.403-1.492-.268-.329-.694-.493-1.277-.493-.776 0-1.344.23-1.703.688-.36.458-.54 1.226-.54 2.305v4.304h-1.835v-8.64h1.437l.258 1.132h.094c.26-.411.63-.729 1.11-.953a3.718 3.718 0 0 1 1.593-.336c2.073 0 3.11 1.055 3.11 3.164v5.633zm6.728.157c-1.344 0-2.395-.392-3.153-1.176-.758-.784-1.136-1.864-1.136-3.239 0-1.411.351-2.52 1.054-3.328.703-.807 1.67-1.21 2.899-1.21 1.14 0 2.041.346 2.703 1.038.661.693.992 1.646.992 2.86v.992h-5.758c.026.839.253 1.483.68 1.934.427.45 1.029.675 1.805.675.51 0 .985-.048 1.425-.144.44-.097.913-.257 1.418-.48v1.492a5.637 5.637 0 0 1-1.36.453 8.336 8.336 0 0 1-1.57.133zm-.336-7.563c-.584 0-1.051.185-1.403.555-.351.37-.56.909-.629 1.617h3.922c-.01-.714-.182-1.254-.515-1.621-.334-.367-.792-.551-1.375-.551zm11.986 4.945c0 .844-.308 1.491-.922 1.942-.615.45-1.495.675-2.64.675-1.152 0-2.076-.174-2.774-.523v-1.586c1.015.469 1.96.703 2.836.703 1.13 0 1.695-.34 1.695-1.023a.81.81 0 0 0-.188-.547c-.125-.146-.33-.297-.617-.453a10.621 10.621 0 0 0-1.195-.531c-.995-.386-1.668-.771-2.02-1.157-.351-.385-.527-.885-.527-1.5 0-.74.298-1.313.895-1.722.596-.41 1.407-.614 2.433-.614 1.016 0 1.977.206 2.883.618l-.594 1.382c-.932-.385-1.716-.578-2.351-.578-.97 0-1.453.276-1.453.828 0 .271.126.5.378.688.253.187.804.445 1.653.773.713.276 1.232.529 1.555.758.322.23.562.494.718.793.157.3.235.658.235 1.074z" fill="#FEFEFE" fill-rule="evenodd"/></svg>