<svg id="Layer_1" xmlns="http://www.w3.org/2000/svg" viewBox="0 0 189 57"><style>.st0{fill:#fff}</style><title>08-logo-my-employers</title><path class="st0" d="M78.6 35.1c.1.1.2.2.3.2-.2-.1-.3-.2-.3-.2zm-21.7 0l.3.3c0-.1-.3-.3-.3-.3zm129.4-.1c-1 0-1.8.9-1.8 1.9 0 1.1.8 1.9 1.8 1.9s1.8-.9 1.8-1.9c0-1-.8-1.9-1.8-1.9zm.6 3.2c-.1-.1-.1-.3-.2-.6 0-.2-.2-.4-.5-.4h-.3v1h-.5v-2.4c.2 0 .5-.1.9-.1s.6.1.8.2c.1.1.2.3.2.5 0 .3-.2.5-.5.6.2.1.3.3.4.6.1.4.1.5.2.6h-.5z"/><path class="st0" d="M186.3 36.2h-.3v.7h.3c.3 0 .5-.1.5-.4 0-.2-.2-.3-.5-.3zM68.6 20h3.2v19.4h-3.2zm-5.2 5.9c-1.1-.6-2.4-1-3.7-1-1.8 0-3.4.6-4.8 1.9-1.6 1.4-2.4 3.3-2.4 5.4 0 2 .7 3.7 2.1 5.1 1.4 1.4 3.1 2.1 5 2.1 1.3 0 2.6-.3 3.7-1 1.1-.6 2-1.5 2.6-2.7.6-1.1 1-2.4 1-3.7 0-1.3-.3-2.5-1-3.6-.5-1-1.4-1.9-2.5-2.5zm-.7 9.1c-.8.8-1.7 1.1-2.9 1.1-1.1 0-2.1-.4-2.9-1.1l.3.3-.3-.3c-.7-.8-1.1-1.7-1.1-2.9s.4-2.1 1.1-2.9c.8-.8 1.7-1.1 2.9-1.1s2.1.4 2.9 1.1c.7.7 1.1 1.7 1.1 2.9s-.4 2.2-1.1 2.9zM85 25.9c-1.1-.6-2.4-1-3.7-1-1.8 0-3.4.6-4.8 1.9-1.6 1.4-2.4 3.3-2.4 5.4 0 2 .7 3.7 2.1 5.1 1.4 1.4 3.1 2.1 5 2.1 1.3 0 2.6-.3 3.7-1 1.1-.6 2-1.5 2.6-2.7.6-1.1 1-2.4 1-3.7 0-1.3-.3-2.5-1-3.6-.5-1-1.4-1.9-2.5-2.5zm-.7 9.1c-.8.8-1.7 1.1-2.9 1.1-1.1 0-2.1-.4-2.9-1.1 0 0 .2.2.3.2.1.1.1.1 0 0s-.1-.1-.3-.2c-.8-.8-1.1-1.7-1.1-2.9s.4-2.1 1.1-2.9c.8-.8 1.7-1.1 2.9-1.1s2.1.4 2.9 1.1c.7.7 1.1 1.7 1.1 2.9s-.3 2.2-1.1 2.9z"/><path class="st0" d="M78.8 35.3c.1.1.1.1 0 0zm-21.6.1c.1 0 .1 0 0 0zm42.4-5.6c.1.6.2 1.7.2 3.4v6.2h3.2V30c0-1.6-.4-2.9-1.2-3.7-.9-1-2.1-1.5-3.4-1.5-.7 0-1.3.1-1.9.4-.6.3-1.3.7-2.1 1.4l-.1.1v-1.6H91v14.1h3.3v-5.7c0-1.5 0-2.5.2-2.9.2-.9.6-1.6 1.1-2.1.5-.5 1.1-.7 1.9-.7.6 0 1 .2 1.4.5.3.5.5.9.7 1.5zm62.4 9.6h3.5V28.1h2.3v-2.9h-2.3v-1.9c0-.4.1-.7.2-.9.2-.2.6-.3 1-.3.3 0 .7.1 1.2.2v-2.6c-.9-.3-1.7-.5-2.5-.5-1 0-1.8.2-2.4.7-.5.4-.9 1.1-1 1.8 0 .3-.1 1.5-.1 3.3v.1h-1.3V28h1.3v11.4zm14 0c1.4 0 2.6-.3 3.6-.7 1-.5 1.8-1.2 2.5-2.2-.2-.1-2.7-1.3-2.8-1.3-.9.9-2.1 1.4-3.4 1.4-1.1 0-2-.3-2.7-.9-.7-.6-1.2-1.4-1.3-2.4v-.1h11.2v-.6c0-2.3-.7-4.1-2-5.5-1.3-1.4-3.1-2.1-5.3-2.1-2 0-3.7.7-5.1 2.1-1.3 1.4-2 3.2-2 5.3 0 2 .7 3.8 2 5.1 1.4 1.2 3.1 1.9 5.3 1.9zm-4-9.8c.4-.8.9-1.3 1.3-1.6.8-.5 1.7-.7 2.7-.7h-.4.4c.9 0 1.8.2 2.5.6.7.4 1.2 1 1.4 1.7v.1h-8l.1-.1zM151.1 36h-5.3V19.2h-3.5v20.2h8.8zm35.2-1.4c-1.4 0-2.4 1.1-2.4 2.4 0 1.4 1.1 2.4 2.4 2.4 1.3 0 2.4-1.1 2.4-2.4 0-1.4-1-2.4-2.4-2.4zm0 4.3c-1 0-1.8-.9-1.8-1.9v-.5.5c0-1.1.8-1.9 1.8-1.9s1.8.9 1.8 1.9c0 1-.8 1.9-1.8 1.9zM43.5 22.6c2.2 0 4.1.9 5.9 2.8l2.4-2.3c-1-1.2-2.3-2.1-3.7-2.8-1.4-.7-3-1-4.5-1-1.8 0-3.6.5-5.2 1.4-1.6.9-2.8 2.1-3.7 3.6-.9 1.5-1.3 3.2-1.3 5.1 0 2.9.9 5.4 2.8 7.3 1.9 1.9 4.3 2.8 7.3 2.8 1.6 0 3-.3 4.3-.8 1.2-.5 2.6-1.5 3.9-2.8-.1-.1-2.3-2.4-2.4-2.5-1 1-2 1.7-2.9 2.1-.9.4-1.9.6-2.9.6-1.3 0-2.4-.3-3.4-.9-1-.6-1.8-1.4-2.4-2.4-.6-1-.8-2.2-.8-3.5 0-1.9.6-3.5 1.9-4.7 1.3-1.3 2.9-2 4.7-2zm86.8-2.6h3.2v19.4h-3.2z"/><path class="st0" d="M186.9 37c.3-.1.5-.3.5-.6 0-.2-.1-.4-.2-.5-.2-.1-.4-.2-.8-.2s-.7 0-.9.1v2.4h.5v-1h.3c.3 0 .4.1.5.4.1.3.1.5.2.6h.6c0-.1-.1-.2-.2-.6-.2-.3-.3-.5-.5-.6zm-.7-.1h-.2v-.7h.3c.3 0 .5.1.5.4 0 .2-.3.3-.6.3zm-31.9-12h3.2v14.5h-3.2zm-48 0h3.2v14.5h-3.2zM121.5 39c.7-.3 1.4-.7 2.1-1.4l.1-.1V39h3.4V25.2h-3.4v1.7l-.1-.2c-.6-.6-1.3-1.1-2-1.4-.7-.3-1.5-.5-2.3-.5-1.8 0-3.4.7-4.6 2-1.3 1.4-1.9 3.1-1.9 5.3 0 2 .7 3.8 2 5.1 1.3 1.4 2.9 2.1 4.7 2.1.6.1 1.3 0 2-.3zm-5.6-6.9c0-1.2.4-2.1 1.1-2.9.7-.8 1.7-1.1 2.8-1.1 1.2 0 2.1.4 2.9 1.1.8.7 1.1 1.7 1.1 2.9s-.4 2.2-1.1 2.9c-.8.7-1.7 1.1-2.9 1.1-1.1 0-2.1-.4-2.8-1.1-.8-.7-1.1-1.7-1.1-2.9zm22-28.2c-1.1 0-2 2.6-2 5.6 0 3.1.9 5.6 2 5.6s2-2.6 2-5.6c0-3-.9-5.6-2-5.6z"/><ellipse class="st0" cx="119.1" cy="12.4" rx="2.4" ry="3.6"/><ellipse class="st0" cx="108.3" cy="16.4" rx="2.8" ry="2.8"/><ellipse class="st0" cx="129.1" cy="6.7" rx="2" ry="4.4"/><ellipse class="st0" cx="155.9" cy="15.2" rx="2.4" ry="3.2"/><path class="st0" d="M146.7 8.8c1.1 0 2-1.8 2-4s-.9-4-2-4-2 1.8-2 4 .9 4 2 4zM0 26.7h2.1v1.1c.4-.4.8-.8 1.3-1 .5-.2 1-.3 1.6-.3.6 0 1.1.1 1.6.4.5.3.8.7 1.1 1.3.4-.5.8-1 1.4-1.3.5-.3 1.1-.4 1.8-.4s1.2.2 1.7.5.9.7 1.1 1.2c.2.5.3 1.3.3 2.4V36h-2.4v-4.7c0-1.1-.1-1.8-.4-2.1-.3-.4-.7-.6-1.2-.6-.4 0-.8.1-1.1.3-.3.2-.6.5-.7.9-.2.4-.2 1-.2 1.9V36H5.7v-4.5c0-.8-.1-1.4-.2-1.8-.1-.4-.3-.7-.6-.8-.2-.2-.5-.3-.9-.3s-.7.1-1.1.3c-.3.2-.6.6-.7 1-.2.4-.2 1.1-.2 2V36H0v3.4h29.2V19.3H0v7.4zm17.6 0l2.4 5.9 2.7-5.9h2.4l-5.9 12.8h-2.4l1.9-4.1-3.5-8.6h2.4zm138.8 20.6c-.5-.3-1-.4-1.6-.4-.7 0-1.4.2-2 .5-.6.4-1.1.9-1.5 1.5-.4.6-.5 1.3-.5 2.1 0 1 .3 1.7.9 2.4.6.6 1.4.9 2.3.9.8 0 1.4-.2 2-.5.6-.3 1.1-.8 1.4-1.5.4-.6.5-1.3.5-2 0-.6-.1-1.2-.4-1.7-.2-.6-.6-1-1.1-1.3zm.3 4.6c-.3.5-.6.9-1.1 1.2-.5.3-1 .4-1.5.4-.7 0-1.3-.2-1.8-.7-.5-.5-.7-1.1-.7-1.8 0-.6.1-1.1.4-1.6.3-.5.6-.9 1.1-1.2.5-.3 1-.4 1.6-.4.4 0 .8.1 1.2.3.4.2.7.5.9.9.2.4.3.8.3 1.3s-.1 1-.4 1.6zm-56.9-7.5c-.2.1-.4.3-.5.6-.1.2-.2.7-.3 1.5l-.1.6H98l-.1.8h.9l-.9 6.2h.9l.9-6.2h1.4l.1-.8h-1.4l.1-.7c.1-.5.2-.9.3-1.1.1-.2.3-.3.5-.3.3 0 .6.2.9.5l.1-.9c-.4-.3-.7-.4-1.1-.4-.4 0-.6 0-.8.2zm48 9.7h.9l1.3-9.7h-.8zm38-6.4c.5 0 1 .3 1.4.8l.5-.7c-.3-.4-.6-.6-.9-.8-.3-.1-.6-.2-1-.2-.6 0-1.1.2-1.5.5-.4.4-.6.8-.6 1.3 0 .3.1.6.3.9.2.3.6.6 1.2 1 .5.4.9.6 1 .8.2.2.3.5.3.8 0 .3-.1.6-.4.9-.3.2-.6.4-.9.4-.6 0-1.2-.3-1.7-.9l-.5.6c.6.8 1.3 1.2 2.2 1.2.7 0 1.2-.2 1.6-.6.4-.4.6-.9.6-1.5 0-.4-.1-.8-.3-1.1-.2-.3-.7-.7-1.3-1.1-.5-.3-.8-.5-.9-.7-.1-.2-.2-.4-.2-.5 0-.2.1-.5.3-.7.3-.3.5-.4.8-.4zm-73.2-.5c-.3.2-.6.4-.9.8l.1-.9h-.8l-1 7h.9l.4-3c.1-1 .3-1.6.5-2.1.2-.4.4-.7.7-1 .3-.2.6-.3.9-.3.2 0 .3 0 .6.1l.4-.8c-.3-.1-.5-.2-.8-.2-.3.1-.6.2-1 .4zm-5.1.1c-.5-.3-1-.4-1.6-.4-.7 0-1.4.2-2 .5-.6.4-1.1.9-1.5 1.5-.4.6-.5 1.3-.5 2.1 0 1 .3 1.7.9 2.4.6.6 1.4.9 2.3.9.8 0 1.4-.2 2-.5.6-.3 1.1-.8 1.4-1.5.4-.6.5-1.3.5-2 0-.6-.1-1.2-.4-1.7-.2-.6-.6-1-1.1-1.3zm.3 4.6c-.3.5-.6.9-1.1 1.2-.5.3-1 .4-1.5.4-.7 0-1.3-.2-1.8-.7-.5-.5-.7-1.1-.7-1.8 0-.6.1-1.1.4-1.6.3-.5.6-.9 1.1-1.2.5-.3 1-.4 1.6-.4.4 0 .8.1 1.2.3.4.2.7.5.9.9.2.4.3.8.3 1.3s-.1 1-.4 1.6zm27.5-5c-.5 0-1 .1-1.4.4-.5.3-.9.7-1.2 1.2-.2-.5-.4-.9-.7-1.1-.4-.3-.9-.5-1.4-.5-.4 0-.8.1-1.3.3-.4.2-.8.5-1 .9l.1-1h-.9l-1 7h.9l.5-3.3c0-.3.1-.7.2-1.1.1-.4.3-.7.5-1 .2-.3.5-.5.8-.7.3-.2.7-.3 1-.3.4 0 .8.1 1 .4.3.3.4.6.4 1.1 0 .3 0 .6-.1 1l-.5 3.9h.9l.5-3.4c.1-.6.2-1.1.4-1.5.2-.4.5-.7.9-1 .4-.3.8-.4 1.3-.4.4 0 .8.1 1.1.4.3.3.4.6.4 1 0 .3 0 .8-.1 1.5l-.5 3.4h.9l.5-3.9c.1-.4.1-.8.1-1.1 0-.7-.2-1.2-.6-1.6-.5-.4-1-.6-1.7-.6zm-13.1 0c-.7 0-1.4.2-2 .5-.6.4-1.1.9-1.5 1.5-.4.6-.6 1.3-.6 2 0 .9.3 1.6.8 2.3s1.4 1 2.5 1c.6 0 1.2-.1 1.8-.4.5-.3 1-.6 1.3-1l-.7-.5c-.3.4-.6.6-1 .9-.4.2-.9.3-1.4.3-.7 0-1.3-.2-1.8-.7-.4-.5-.7-1.1-.7-2h6.3v-.6c0-.9-.3-1.7-.9-2.3-.5-.7-1.2-1-2.1-1zm-3.1 3.1c.2-.7.6-1.2 1.1-1.6.5-.4 1.2-.6 1.9-.6.6 0 1.2.2 1.6.6s.7.9.7 1.6h-5.3zm51.4-3.1c-.7 0-1.4.2-2 .5-.6.4-1.1.9-1.5 1.5-.4.6-.6 1.3-.6 2 0 .9.3 1.6.8 2.3.6.7 1.4 1 2.5 1 .6 0 1.2-.1 1.8-.4.5-.3 1-.6 1.3-1l-.7-.5c-.3.4-.6.6-1 .9-.4.2-.9.3-1.4.3-.7 0-1.3-.2-1.8-.7-.4-.5-.7-1.1-.7-2h6.3v-.6c0-.9-.3-1.7-.9-2.3-.4-.7-1.2-1-2.1-1zm-3 3.1c.2-.7.6-1.2 1.1-1.6.5-.4 1.2-.6 1.9-.6.6 0 1.2.2 1.6.6.4.4.7.9.7 1.6h-5.3zm11.6-3.1c-.7 0-1.4.2-2 .5-.6.4-1.1.9-1.5 1.5-.4.6-.6 1.3-.6 2 0 .9.3 1.6.8 2.3s1.4 1 2.5 1c.6 0 1.2-.1 1.8-.4.5-.3 1-.6 1.3-1l-.7-.5c-.3.4-.6.6-1 .9-.4.2-.9.3-1.4.3-.7 0-1.3-.2-1.8-.7-.4-.5-.7-1.1-.7-2h6.3v-.6c0-.9-.3-1.7-.9-2.3-.4-.7-1.2-1-2.1-1zm-3 3.1c.2-.7.6-1.2 1.1-1.6.5-.4 1.2-.6 1.9-.6.6 0 1.2.2 1.6.6.4.4.7.9.7 1.6h-5.3zm-14 2.2l-1.9-5.1h-.9l2.2 6.1-2 3.4h1l5.6-9.5h-1zm-18.5-5.3c-1 0-2 .4-2.8 1.2l.1-1.1h-.9l-1.3 9.6h.9l.5-3.9c.3.5.7.9 1.1 1.2.4.2 1 .4 1.5.4 1.1 0 2-.4 2.8-1.2.8-.8 1.2-1.8 1.2-2.9 0-1-.3-1.8-.9-2.4-.5-.6-1.3-.9-2.2-.9zm1.4 5.6c-.6.6-1.4.9-2.2.9-.7 0-1.3-.2-1.8-.7-.5-.5-.7-1-.7-1.8 0-.6.1-1.2.4-1.7.3-.5.7-.9 1.1-1.2.5-.3 1-.4 1.6-.4.7 0 1.3.2 1.8.7.5.5.7 1.1.7 1.8.1 1-.2 1.8-.9 2.4z"/></svg>