<?xml version="1.0" encoding="utf-8"?>
<!-- Generator: Adobe Illustrator 21.1.0, SVG Export Plug-In . SVG Version: 6.00 Build 0)  -->
<svg version="1.1" id="Layer_1" xmlns="http://www.w3.org/2000/svg" xmlns:xlink="http://www.w3.org/1999/xlink" x="0px" y="0px"
	 viewBox="0 0 214 40" style="enable-background:new 0 0 214 40;" xml:space="preserve">
<style type="text/css">
	.st0{fill:#456981;}
	.st1{fill:#00597F;}
	.st2{fill:#939CAA;}
</style>
<path class="st0" d="M98.8,17.4c0,1.4,0.8,2.5,1.8,2.5s1.8-1.1,1.8-2.5s-0.8-2.5-1.8-2.5C99.6,14.9,98.8,15.9,98.8,17.4"/>
<path class="st0" d="M85.5,13.1c0,2.3,0.6,4.2,1.4,4.2c0.8,0,1.4-1.9,1.4-4.2s-0.6-4.2-1.4-4.2S85.5,10.9,85.5,13.1"/>
<path class="st1" d="M22.7,25.9c-1.2,1.1-1.8,2.5-1.8,4.2c0,1.5,0.5,2.9,1.6,4s2.4,1.6,3.9,1.6c1,0,2-0.3,2.8-0.7
	c0.9-0.5,1.5-1.2,2-2c0.5-0.9,0.7-1.8,0.7-2.8s-0.2-1.9-0.7-2.8c-0.5-0.9-1.2-1.5-2.1-2c-0.9-0.5-1.8-0.8-2.8-0.8
	C25,24.6,23.8,25.1,22.7,25.9 M24.3,32.4L24.3,32.4c-0.6-0.6-0.8-1.4-0.8-2.3c0-0.9,0.3-1.7,0.9-2.3c0.6-0.6,1.3-0.9,2.1-0.9
	c0.9,0,1.6,0.3,2.2,0.9c0.6,0.6,0.8,1.4,0.8,2.3c0,0.9-0.3,1.7-0.9,2.3c-0.6,0.6-1.3,0.9-2.1,0.9C25.6,33.4,24.9,33.1,24.3,32.4"/>
<rect x="33.6" y="20.9" class="st1" width="2.6" height="14.5"/>
<path class="st1" d="M39.7,25.9c-1.2,1.1-1.8,2.5-1.8,4.2c0,1.5,0.5,2.9,1.6,4s2.4,1.6,3.9,1.6c1,0,2-0.3,2.8-0.7
	c0.9-0.5,1.5-1.2,2-2c0.5-0.9,0.7-1.8,0.7-2.8s-0.2-1.9-0.7-2.8c-0.5-0.9-1.2-1.5-2.1-2c-0.9-0.5-1.8-0.8-2.8-0.8
	C42,24.6,40.7,25.1,39.7,25.9 M41.2,32.4L41.2,32.4c-0.6-0.6-0.8-1.4-0.8-2.3c0-0.9,0.3-1.7,0.9-2.3c0.6-0.6,1.3-0.9,2.1-0.9
	c0.9,0,1.6,0.3,2.2,0.9c0.6,0.6,0.8,1.4,0.8,2.3c0,0.9-0.3,1.7-0.9,2.3c-0.6,0.6-1.3,0.9-2.2,0.9C42.5,33.4,41.8,33.1,41.2,32.4"/>
<path class="st1" d="M55.1,24.9L55.1,24.9c-0.5,0.2-1,0.6-1.6,1.1l-0.1,0.1v-1.2h-2.6v10.6h2.6v-4.2c0-1.1,0-1.8,0.1-2.2
	c0.1-0.7,0.4-1.2,0.8-1.5c0.4-0.4,0.9-0.6,1.5-0.6c0.4,0,0.8,0.1,1.1,0.3s0.5,0.6,0.6,1s0.2,1.3,0.2,2.6v4.6h2.5v-7
	c0-1.2-0.3-2.1-0.9-2.8c-0.7-0.7-1.6-1.1-2.7-1.1C56.1,24.6,55.6,24.6,55.1,24.9"/>
<rect x="62.6" y="24.9" class="st1" width="2.6" height="10.6"/>
<path class="st1" d="M68.7,26.1L68.7,26.1c-1,1-1.5,2.4-1.5,4s0.5,2.9,1.5,4s2.2,1.6,3.6,1.6c0.6,0,1.2-0.1,1.7-0.3s1-0.6,1.6-1.1
	l0.1-0.1v1.2h2.6V24.8h-2.6v1.3L75.6,26c-0.5-0.5-1-0.8-1.6-1.1c-0.6-0.2-1.2-0.4-1.8-0.4C70.8,24.6,69.7,25.1,68.7,26.1 M69.8,30.1
	c0-0.9,0.3-1.7,0.8-2.3c0.6-0.6,1.3-0.9,2.1-0.9c0.9,0,1.6,0.3,2.2,0.9c0.6,0.6,0.9,1.4,0.9,2.3c0,1-0.3,1.8-0.9,2.4
	c-0.6,0.6-1.3,0.9-2.1,0.9s-1.5-0.3-2.1-0.9C70.1,31.9,69.8,31.1,69.8,30.1"/>
<rect x="80.8" y="20.6" class="st1" width="2.6" height="14.8"/>
<path class="st0" d="M61.8,18.4c0,1.2,1,2.2,2.2,2.2s2.2-1,2.2-2.2s-1-2.2-2.2-2.2C62.8,16.1,61.8,17.1,61.8,18.4"/>
<path class="st0" d="M72.4,18.2c1.1,0,2-1.3,2-2.9c0-1.6-0.9-2.9-2-2.9s-2,1.3-2,2.9S71.3,18.2,72.4,18.2"/>
<path class="st0" d="M93.6,9.8c0,1.7,0.7,3.2,1.7,3.2c0.9,0,1.7-1.4,1.7-3.2c0-1.7-0.7-3.2-1.6-3.2C94.4,6.6,93.6,7.9,93.6,9.8"/>
<path class="st0" d="M78.4,11.4c0,1.9,0.7,3.4,1.5,3.4s1.5-1.5,1.5-3.4S80.7,8,79.9,8C79,7.9,78.4,9.4,78.4,11.4"/>
<path class="st1" d="M18.6,25.2c-1.3-1.4-2.8-2.1-4.4-2.1c-1.4,0-2.6,0.5-3.6,1.4c-1,1-1.4,2.2-1.4,3.6c0,1,0.2,1.9,0.6,2.6
	c0.4,0.8,1,1.4,1.8,1.8c0.8,0.4,1.6,0.7,2.6,0.7c0.8,0,1.6-0.2,2.2-0.5c0.7-0.3,1.4-0.8,2.2-1.6c0.1,0.1,1.7,1.8,1.8,1.9
	c-1,1-2,1.7-3,2.1c-0.9,0.4-2,0.6-3.2,0.6c-2.2,0-4.1-0.7-5.5-2.1c-1.4-1.4-2.1-3.2-2.1-5.5c0-1.4,0.3-2.7,1-3.8
	c0.6-1.1,1.6-2,2.8-2.7s2.5-1,3.9-1c1.2,0,2.3,0.3,3.4,0.8c1.1,0.5,2,1.2,2.8,2.1L18.6,25.2z"/>
<path class="st1" d="M96.3,24.8c0,0-3,6.9-3.3,7.6c-0.3-0.8-3.3-7.6-3.3-7.6h-1.6l4.6,10.7h0.5l4.6-10.7H96.3z"/>
<path class="st1" d="M98.1,28.6c-0.7,0.8-1.1,1.8-1.1,2.9c0,1.1,0.4,2.1,1.2,2.9c0.8,0.8,1.8,1.3,3,1.3s2.2-0.4,3-1.3
	c0.8-0.8,1.2-1.8,1.2-2.9c0-1.1-0.4-2.1-1.1-2.9c-0.8-0.9-1.8-1.3-3.1-1.3S98.9,27.6,98.1,28.6 M99.8,33.9L99.8,33.9
	c-0.4-0.2-0.8-0.6-1-1s-0.4-0.9-0.4-1.4c0-0.8,0.3-1.5,0.8-2c0.5-0.6,1.2-0.8,1.9-0.8c0.8,0,1.4,0.3,1.9,0.8c0.6,0.6,0.8,1.2,0.8,2
	c0,0.5-0.1,1-0.4,1.4c-0.2,0.4-0.6,0.8-1,1s-0.9,0.4-1.4,0.4C100.7,34.2,100.2,34.1,99.8,33.9"/>
<rect x="106.7" y="24.6" class="st1" width="1.4" height="10.9"/>
<path class="st1" d="M115.5,27.4v3.7c0,1.1-0.1,1.6-0.1,1.8c-0.1,0.4-0.4,0.7-0.7,0.9c-0.3,0.2-0.8,0.4-1.3,0.4s-0.9-0.1-1.3-0.4
	c-0.4-0.2-0.6-0.6-0.7-1c-0.1-0.3-0.1-0.9-0.1-1.7v-3.7h-1.4v3.9c0,1.1,0.1,1.9,0.4,2.5s0.7,1,1.2,1.3s1.2,0.5,2,0.5
	s1.4-0.2,1.9-0.5s0.9-0.8,1.2-1.3c0.3-0.6,0.4-1.4,0.4-2.4v-3.9h-1.5V27.4z"/>
<path class="st1" d="M120.7,27.6L120.7,27.6c-0.4,0.2-0.7,0.5-1,0.8v-1h-1.4v8h1.4v-3c0-1,0-1.7,0.1-2c0.1-0.5,0.4-1,0.9-1.3
	c0.4-0.4,0.9-0.5,1.5-0.5c0.5,0,0.8,0.1,1.1,0.3c0.3,0.2,0.5,0.6,0.6,1c0.1,0.3,0.1,0.9,0.1,1.7v3.8h1.4v-4.1c0-1.1-0.1-1.8-0.3-2.4
	c-0.2-0.5-0.6-0.9-1-1.3c-0.5-0.3-1-0.5-1.6-0.5C121.7,27.2,121.2,27.4,120.7,27.6"/>
<polygon class="st1" points="127.7,24.6 127.7,27.4 126.4,27.4 126.4,28.6 127.7,28.6 127.7,35.4 129.1,35.4 129.1,28.6 130.6,28.6 
	130.6,27.4 129.1,27.4 129.1,24.6 "/>
<path class="st1" d="M132,28.4c-0.8,0.8-1.2,1.8-1.2,2.9c0,1.2,0.4,2.2,1.2,3c0.8,0.8,1.8,1.2,2.9,1.2c0.6,0,1.2-0.1,1.8-0.4
	c0.4-0.2,0.7-0.5,1.1-0.8v1h1.4v-8h-1.4v1.1c-0.3-0.3-0.7-0.6-1-0.8c-0.5-0.3-1.1-0.4-1.8-0.4C133.8,27.2,132.8,27.6,132,28.4
	 M133.6,33.9L133.6,33.9c-0.4-0.3-0.8-0.6-1-1.1c-0.3-0.5-0.4-0.9-0.4-1.4s0.1-1,0.4-1.4c0.2-0.4,0.6-0.8,1-1s0.9-0.4,1.4-0.4
	c0.8,0,1.4,0.3,2,0.8c0.5,0.5,0.8,1.2,0.8,2.1c0,0.5-0.1,1-0.4,1.5c-0.2,0.4-0.6,0.8-1,1c-0.4,0.3-0.9,0.4-1.4,0.4
	C134.5,34.4,134,34.1,133.6,33.9"/>
<path class="st1" d="M143.1,27.6c-0.2,0.1-0.4,0.3-0.6,0.6v-0.7h-1.4v8h1.4v-2.8c0-1.3,0.1-2.2,0.2-2.6c0.1-0.5,0.4-0.9,0.6-1.1
	c0.3-0.2,0.5-0.3,0.8-0.3l0.6,0.2l0.1-0.1l0.6-1l-0.2-0.1c-0.3-0.2-0.7-0.3-1-0.3C143.8,27.2,143.4,27.4,143.1,27.6"/>
<path class="st1" d="M152.1,27.4c0,0-2.1,4.8-2.4,5.5c-0.3-0.7-2.5-5.5-2.5-5.5h-1.5c0,0,3.1,7,3.2,7.2c-0.1,0.2-1.6,3.6-1.6,3.6
	h1.5l4.7-10.8H152.1z"/>
<path class="st1" d="M157,24.8v10.7h3c1.1,0,1.9-0.3,2.6-0.9c0.6-0.6,1-1.4,1-2.2c0-0.4-0.1-0.8-0.3-1.2c-0.2-0.4-0.4-0.7-0.7-1
	c-0.2-0.2-0.6-0.4-0.9-0.5c0.3-0.2,0.6-0.5,0.7-0.8c0.2-0.4,0.4-0.9,0.4-1.3c0-0.5-0.1-1-0.4-1.4s-0.7-0.8-1.1-1
	c-0.5-0.2-1.1-0.3-2-0.3H157V24.8z M159.4,26.1c0.7,0,1.2,0.1,1.4,0.4c0.3,0.2,0.4,0.5,0.4,1c0,0.3-0.1,0.6-0.3,0.8
	c-0.2,0.3-0.4,0.4-0.7,0.6c-0.3,0.1-0.8,0.2-1.5,0.2h-0.4v-2.9h1.1V26.1z M158.8,30.4c0.9,0,1.4,0,1.8,0.1c0.5,0.1,0.9,0.3,1.1,0.6
	c0.3,0.3,0.4,0.7,0.4,1.1c0,0.3-0.1,0.6-0.3,0.9c-0.2,0.3-0.4,0.5-0.8,0.6c-0.3,0.1-0.9,0.2-1.6,0.2h-1.1v-3.5L158.8,30.4
	L158.8,30.4z"/>
<path class="st1" d="M165.7,28.8c-0.6,0.8-0.9,1.7-0.9,2.7c0,1.1,0.4,2,1.1,2.9s1.8,1.3,3.1,1.3c0.6,0,1.1-0.1,1.6-0.3
	s0.9-0.4,1.3-0.8c0.4-0.3,0.7-0.8,1-1.3L173,33l-1.2-0.6l-0.1,0.2c-0.3,0.5-0.6,0.8-0.8,1c-0.2,0.2-0.5,0.4-0.9,0.5
	c-0.3,0.1-0.7,0.2-1.1,0.2c-0.8,0-1.4-0.3-1.9-0.8s-0.7-1.1-0.8-1.8h6.8v-0.2c0-1.1-0.3-2-0.9-2.7c-0.8-1-1.9-1.5-3.3-1.5
	C167.6,27.2,166.5,27.8,165.7,28.8 M167.1,29.2L167.1,29.2c0.5-0.4,1.1-0.7,1.8-0.7c0.4,0,0.8,0.1,1.2,0.3c0.4,0.2,0.7,0.4,0.9,0.7
	c0.2,0.2,0.3,0.6,0.4,0.9h-5.1C166.6,29.9,166.8,29.6,167.1,29.2"/>
<path class="st1" d="M176.8,27.6L176.8,27.6c-0.4,0.2-0.7,0.5-1,0.8v-1h-1.4v8h1.4v-3c0-1,0-1.7,0.1-2c0.1-0.5,0.4-1,0.9-1.3
	c0.4-0.4,0.9-0.5,1.5-0.5c0.5,0,0.8,0.1,1.1,0.3c0.3,0.2,0.5,0.6,0.6,1c0.1,0.3,0.1,0.9,0.1,1.7v3.8h1.4v-4.1c0-1.1-0.1-1.8-0.3-2.4
	c-0.2-0.5-0.6-0.9-1-1.3c-0.5-0.3-1-0.5-1.6-0.5C177.9,27.2,177.3,27.4,176.8,27.6"/>
<path class="st1" d="M189.3,33.1c-0.2,0.2-0.3,0.4-0.5,0.5c-0.2,0.2-0.5,0.4-0.9,0.5c-0.3,0.1-0.7,0.2-1.1,0.2
	c-0.8,0-1.4-0.3-1.9-0.8s-0.7-1.1-0.8-1.8h6.8v-0.2c0-1.1-0.3-2-0.9-2.7c-0.8-1-1.9-1.5-3.3-1.5c-1.3,0-2.4,0.5-3.2,1.5
	c-0.6,0.8-0.9,1.7-0.9,2.7c0,1.1,0.4,2,1.1,2.9s1.8,1.3,3.1,1.3c0.6,0,1.1-0.1,1.6-0.3s0.9-0.4,1.3-0.8c0.2-0.2,0.4-0.5,0.6-0.8
	L189.3,33.1z M185.1,29.2L185.1,29.2c0.5-0.4,1.1-0.7,1.8-0.7c0.4,0,0.8,0.1,1.2,0.3c0.4,0.2,0.7,0.4,0.9,0.7
	c0.2,0.2,0.3,0.6,0.4,0.9h-5.1C184.6,29.9,184.8,29.6,185.1,29.2"/>
<path class="st1" d="M193.3,24.6c-0.3,0.2-0.5,0.4-0.6,0.7s-0.2,0.7-0.2,1.2v1h-1v1.2h1v6.7h1.4c0,0,0-6.4,0-6.7h1.6v-1.2h-1.6
	c0-0.3,0-0.8,0-0.8c0-0.6,0-0.7,0-0.7l0.2-0.2c0.1-0.1,0.2-0.1,0.4-0.1c0.2,0,0.5,0.1,0.8,0.2l0.3,0.1v-1.4h-0.1
	c-0.5-0.1-0.9-0.2-1.2-0.2C193.9,24.4,193.5,24.4,193.3,24.6"/>
<path class="st1" d="M196.9,24.6L196.9,24.6c-0.2,0.2-0.3,0.4-0.3,0.7s0.1,0.5,0.3,0.7c0.2,0.2,0.4,0.3,0.7,0.3
	c0.3,0,0.5-0.1,0.7-0.3s0.3-0.4,0.3-0.7s-0.1-0.5-0.3-0.7c-0.2-0.2-0.4-0.3-0.7-0.3C197.4,24.4,197.1,24.4,196.9,24.6 M197,35.4h1.4
	v-8H197V35.4z"/>
<polygon class="st1" points="200.8,24.6 200.8,27.4 199.5,27.4 199.5,28.6 200.8,28.6 200.8,35.4 202.2,35.4 202.2,28.6 203.7,28.6 
	203.7,27.4 202.2,27.4 202.2,24.6 "/>
<path class="st1" d="M205.1,27.9L205.1,27.9c-0.4,0.4-0.7,1-0.7,1.6c0,0.5,0.1,0.9,0.4,1.3c0.3,0.4,0.7,0.7,1.5,1.1
	c0.8,0.4,1.1,0.6,1.2,0.8c0.2,0.2,0.2,0.4,0.2,0.6c0,0.3-0.1,0.5-0.3,0.7c-0.2,0.2-0.5,0.3-0.9,0.3c-0.5,0-1-0.3-1.4-0.8l-0.2-0.2
	l-0.9,1l0.1,0.1c0.3,0.4,0.6,0.6,1.1,0.8c0.4,0.2,0.9,0.3,1.3,0.3c0.7,0,1.3-0.2,1.8-0.7s0.7-1,0.7-1.7c0-0.5-0.1-0.9-0.4-1.3
	c-0.3-0.4-0.8-0.8-1.5-1.1c-0.6-0.3-0.9-0.5-1.1-0.7s-0.2-0.4-0.2-0.6c0-0.2,0.1-0.4,0.3-0.6c0.2-0.2,0.4-0.3,0.7-0.3
	c0.4,0,0.9,0.2,1.4,0.7l0.1,0.1l0.9-0.9l-0.1-0.1c-0.7-0.7-1.5-1.1-2.2-1.1C206.1,27.2,205.5,27.4,205.1,27.9"/>
<g>
	<path class="st2" d="M209.4,35.1c0.1,0.1,0.2,0.1,0.3,0.1c0.1,0,0.2-0.1,0.2-0.2c0-0.1-0.1-0.1-0.2-0.2l-0.1-0.1
		c-0.1,0-0.2-0.1-0.2-0.2c0-0.1,0.1-0.3,0.3-0.3c0.1,0,0.2,0,0.3,0.1l-0.1,0.1c-0.1-0.1-0.1-0.1-0.2-0.1s-0.2,0.1-0.2,0.1
		c0,0.1,0.1,0.1,0.2,0.2l0.1,0.1c0.1,0,0.2,0.1,0.2,0.3s-0.1,0.3-0.3,0.3C209.5,35.4,209.4,35.4,209.4,35.1L209.4,35.1z"/>
	<path class="st2" d="M210.1,34.4h0.1l0.2,0.5l0.1,0.2l0,0l0.1-0.2l0.2-0.5h0.1v0.9h-0.1v-0.5c0-0.1,0-0.2,0-0.3l0,0l-0.1,0.2
		l-0.2,0.5h-0.1l-0.2-0.5L210.1,34.4L210.1,34.4c0,0.2,0,0.3,0,0.4v0.5H210v-0.9H210.1z"/>
</g>
</svg>
