<?xml version="1.0" encoding="utf-8"?>
<!-- Generator: Adobe Illustrator 21.1.0, SVG Export Plug-In . SVG Version: 6.00 Build 0)  -->
<svg version="1.1" id="Layer_1" xmlns="http://www.w3.org/2000/svg" xmlns:xlink="http://www.w3.org/1999/xlink" x="0px" y="0px"
	 viewBox="0 0 209.8 38.5" style="enable-background:new 0 0 209.8 38.5;" xml:space="preserve">
<style type="text/css">
	.st0{fill:#FFFFFF;}
</style>
<g>
	<path class="st0" d="M96,16.4c0,1.4,0.8,2.5,1.8,2.5s1.8-1.1,1.8-2.5s-0.8-2.5-1.8-2.5S96,14.9,96,16.4"/>
	<path class="st0" d="M82.6,12.1c0,2.3,0.6,4.2,1.4,4.2c0.8,0,1.4-1.9,1.4-4.2S84.8,7.9,84,7.9S82.6,9.9,82.6,12.1"/>
	<path class="st0" d="M19.9,24.9c-1.2,1.1-1.8,2.5-1.8,4.2c0,1.5,0.5,2.9,1.6,4s2.4,1.6,3.9,1.6c1,0,2-0.3,2.8-0.7
		c0.9-0.5,1.5-1.2,2-2c0.5-0.9,0.7-1.8,0.7-2.8s-0.2-1.9-0.7-2.8c-0.5-0.9-1.2-1.5-2.1-2c-0.9-0.5-1.8-0.8-2.8-0.8
		C22.1,23.6,20.9,24.1,19.9,24.9 M21.4,31.4L21.4,31.4c-0.6-0.6-0.8-1.4-0.8-2.3c0-0.9,0.3-1.7,0.9-2.3c0.6-0.6,1.3-0.9,2.1-0.9
		c0.9,0,1.6,0.3,2.2,0.9c0.6,0.6,0.8,1.4,0.8,2.3c0,0.9-0.3,1.7-0.9,2.3c-0.6,0.6-1.3,0.9-2.1,0.9C22.8,32.4,22.1,32.1,21.4,31.4"/>
	<rect x="30.9" y="19.9" class="st0" width="2.6" height="14.5"/>
	<path class="st0" d="M36.9,24.9c-1.2,1.1-1.8,2.5-1.8,4.2c0,1.5,0.5,2.9,1.6,4s2.4,1.6,3.9,1.6c1,0,2-0.3,2.8-0.7
		c0.9-0.5,1.5-1.2,2-2c0.5-0.9,0.7-1.8,0.7-2.8s-0.2-1.9-0.7-2.8c-0.5-0.9-1.2-1.5-2.1-2c-0.9-0.5-1.8-0.8-2.8-0.8
		C39.1,23.6,37.9,24.1,36.9,24.9 M38.4,31.4L38.4,31.4c-0.6-0.6-0.8-1.4-0.8-2.3c0-0.9,0.3-1.7,0.9-2.3c0.6-0.6,1.3-0.9,2.1-0.9
		c0.9,0,1.6,0.3,2.2,0.9c0.6,0.6,0.8,1.4,0.8,2.3c0,0.9-0.3,1.7-0.9,2.3c-0.6,0.6-1.3,0.9-2.2,0.9C39.6,32.4,38.9,32.1,38.4,31.4"/>
	<path class="st0" d="M52.2,23.9L52.2,23.9c-0.5,0.2-1,0.6-1.6,1.1l-0.1,0.1v-1.2h-2.6v10.6h2.6v-4.2c0-1.1,0-1.8,0.1-2.2
		c0.1-0.7,0.4-1.2,0.8-1.5c0.4-0.4,0.9-0.6,1.5-0.6c0.4,0,0.8,0.1,1.1,0.3s0.5,0.6,0.6,1s0.2,1.3,0.2,2.6v4.6h2.5v-7
		c0-1.2-0.3-2.1-0.9-2.8c-0.7-0.7-1.6-1.1-2.7-1.1C53.2,23.6,52.8,23.6,52.2,23.9"/>
	<rect x="59.8" y="23.9" class="st0" width="2.6" height="10.6"/>
	<path class="st0" d="M65.9,25.1L65.9,25.1c-1,1-1.5,2.4-1.5,4s0.5,2.9,1.5,4s2.2,1.6,3.6,1.6c0.6,0,1.2-0.1,1.7-0.3s1-0.6,1.6-1.1
		l0.1-0.1v1.2h2.6V23.8h-2.6v1.3L72.8,25c-0.5-0.5-1-0.8-1.6-1.1c-0.6-0.2-1.2-0.4-1.8-0.4C67.9,23.6,66.9,24.1,65.9,25.1
		 M66.9,29.1c0-0.9,0.3-1.7,0.8-2.3c0.6-0.6,1.3-0.9,2.1-0.9c0.9,0,1.6,0.3,2.2,0.9c0.6,0.6,0.9,1.4,0.9,2.3c0,1-0.3,1.8-0.9,2.4
		c-0.6,0.6-1.3,0.9-2.1,0.9s-1.5-0.3-2.1-0.9C67.2,30.9,66.9,30.1,66.9,29.1"/>
	<rect x="77.9" y="19.6" class="st0" width="2.6" height="14.8"/>
	<path class="st0" d="M58.9,17.4c0,1.2,1,2.2,2.2,2.2s2.2-1,2.2-2.2s-1-2.2-2.2-2.2C59.9,15.1,58.9,16.1,58.9,17.4"/>
	<path class="st0" d="M69.6,17.2c1.1,0,2-1.3,2-2.9c0-1.6-0.9-2.9-2-2.9s-2,1.3-2,2.9S68.4,17.2,69.6,17.2"/>
	<path class="st0" d="M90.8,8.8c0,1.7,0.7,3.2,1.7,3.2c0.9,0,1.7-1.4,1.7-3.2c0-1.7-0.7-3.2-1.6-3.2C91.5,5.6,90.8,6.9,90.8,8.8"/>
	<path class="st0" d="M75.6,10.4c0,1.9,0.7,3.4,1.5,3.4s1.5-1.5,1.5-3.4S77.9,7,77.1,7C76.1,6.9,75.6,8.4,75.6,10.4"/>
	<path class="st0" d="M15.8,24.2c-1.3-1.4-2.8-2.1-4.4-2.1c-1.4,0-2.6,0.5-3.6,1.4c-1,1-1.4,2.2-1.4,3.6c0,1,0.2,1.9,0.6,2.6
		c0.4,0.8,1,1.4,1.8,1.8c0.8,0.4,1.6,0.7,2.6,0.7c0.8,0,1.6-0.2,2.2-0.5c0.7-0.3,1.4-0.8,2.2-1.6c0.1,0.1,1.7,1.8,1.8,1.9
		c-1,1-2,1.7-3,2.1c-0.9,0.4-2,0.6-3.2,0.6c-2.2,0-4.1-0.7-5.5-2.1c-1.4-1.4-2.1-3.2-2.1-5.5c0-1.4,0.3-2.7,1-3.8
		c0.6-1.1,1.6-2,2.8-2.7s2.5-1,3.9-1c1.2,0,2.3,0.3,3.4,0.8c1.1,0.5,2,1.2,2.8,2.1L15.8,24.2z"/>
	<path class="st0" d="M93.5,23.8c0,0-3,6.9-3.3,7.6c-0.3-0.8-3.3-7.6-3.3-7.6h-1.6l4.6,10.7h0.5L95,23.8H93.5z"/>
	<path class="st0" d="M95.2,27.6c-0.7,0.8-1.1,1.8-1.1,2.9c0,1.1,0.4,2.1,1.2,2.9c0.8,0.8,1.8,1.3,3,1.3s2.2-0.4,3-1.3
		c0.8-0.8,1.2-1.8,1.2-2.9c0-1.1-0.4-2.1-1.1-2.9c-0.8-0.9-1.8-1.3-3.1-1.3S96,26.6,95.2,27.6 M97,32.9L97,32.9
		c-0.4-0.2-0.8-0.6-1-1s-0.4-0.9-0.4-1.4c0-0.8,0.3-1.5,0.8-2c0.5-0.6,1.2-0.8,1.9-0.8c0.8,0,1.4,0.3,1.9,0.8c0.6,0.6,0.8,1.2,0.8,2
		c0,0.5-0.1,1-0.4,1.4c-0.2,0.4-0.6,0.8-1,1s-0.9,0.4-1.4,0.4C97.9,33.2,97.4,33.1,97,32.9"/>
	<rect x="103.9" y="23.6" class="st0" width="1.4" height="10.9"/>
	<path class="st0" d="M112.6,26.4v3.7c0,1.1-0.1,1.6-0.1,1.8c-0.1,0.4-0.4,0.7-0.7,0.9c-0.3,0.2-0.8,0.4-1.3,0.4s-0.9-0.1-1.3-0.4
		c-0.4-0.2-0.6-0.6-0.7-1c-0.1-0.3-0.1-0.9-0.1-1.7v-3.7H107v3.9c0,1.1,0.1,1.9,0.4,2.5s0.7,1,1.2,1.3s1.2,0.5,2,0.5
		s1.4-0.2,1.9-0.5s0.9-0.8,1.2-1.3c0.3-0.6,0.4-1.4,0.4-2.4v-3.9h-1.5V26.4z"/>
	<path class="st0" d="M117.9,26.6L117.9,26.6c-0.4,0.2-0.7,0.5-1,0.8v-1h-1.4v8h1.4v-3c0-1,0-1.7,0.1-2c0.1-0.5,0.4-1,0.9-1.3
		c0.4-0.4,0.9-0.5,1.5-0.5c0.5,0,0.8,0.1,1.1,0.3c0.3,0.2,0.5,0.6,0.6,1c0.1,0.3,0.1,0.9,0.1,1.7v3.8h1.4v-4.1
		c0-1.1-0.1-1.8-0.3-2.4c-0.2-0.5-0.6-0.9-1-1.3c-0.5-0.3-1-0.5-1.6-0.5C118.9,26.2,118.4,26.4,117.9,26.6"/>
	<polygon class="st0" points="124.9,23.6 124.9,26.4 123.5,26.4 123.5,27.6 124.9,27.6 124.9,34.4 126.2,34.4 126.2,27.6 
		127.8,27.6 127.8,26.4 126.2,26.4 126.2,23.6 	"/>
	<path class="st0" d="M129.1,27.4c-0.8,0.8-1.2,1.8-1.2,2.9c0,1.2,0.4,2.2,1.2,3c0.8,0.8,1.8,1.2,2.9,1.2c0.6,0,1.2-0.1,1.8-0.4
		c0.4-0.2,0.7-0.5,1.1-0.8v1h1.4v-8h-1.4v1.1c-0.3-0.3-0.7-0.6-1-0.8c-0.5-0.3-1.1-0.4-1.8-0.4C131,26.2,130,26.6,129.1,27.4
		 M130.8,32.9L130.8,32.9c-0.4-0.3-0.8-0.6-1-1.1c-0.3-0.5-0.4-0.9-0.4-1.4s0.1-1,0.4-1.4c0.2-0.4,0.6-0.8,1-1s0.9-0.4,1.4-0.4
		c0.8,0,1.4,0.3,2,0.8c0.5,0.5,0.8,1.2,0.8,2.1c0,0.5-0.1,1-0.4,1.5c-0.2,0.4-0.6,0.8-1,1c-0.4,0.3-0.9,0.4-1.4,0.4
		C131.6,33.4,131.1,33.1,130.8,32.9"/>
	<path class="st0" d="M140.2,26.6c-0.2,0.1-0.4,0.3-0.6,0.6v-0.7h-1.4v8h1.4v-2.8c0-1.3,0.1-2.2,0.2-2.6c0.1-0.5,0.4-0.9,0.6-1.1
		c0.3-0.2,0.5-0.3,0.8-0.3l0.6,0.2l0.1-0.1l0.6-1l-0.2-0.1c-0.3-0.2-0.7-0.3-1-0.3C141,26.2,140.6,26.4,140.2,26.6"/>
	<path class="st0" d="M149.2,26.4c0,0-2.1,4.8-2.4,5.5c-0.3-0.7-2.5-5.5-2.5-5.5h-1.5c0,0,3.1,7,3.2,7.2c-0.1,0.2-1.6,3.6-1.6,3.6
		h1.5l4.7-10.8H149.2z"/>
	<path class="st0" d="M154.1,23.8v10.7h3c1.1,0,1.9-0.3,2.6-0.9c0.6-0.6,1-1.4,1-2.2c0-0.4-0.1-0.8-0.3-1.2c-0.2-0.4-0.4-0.7-0.7-1
		c-0.2-0.2-0.6-0.4-0.9-0.5c0.3-0.2,0.6-0.5,0.7-0.8c0.2-0.4,0.4-0.9,0.4-1.3c0-0.5-0.1-1-0.4-1.4s-0.7-0.8-1.1-1
		c-0.5-0.2-1.1-0.3-2-0.3h-2.3V23.8z M156.5,25.1c0.7,0,1.2,0.1,1.4,0.4c0.3,0.2,0.4,0.5,0.4,1c0,0.3-0.1,0.6-0.3,0.8
		c-0.2,0.3-0.4,0.4-0.7,0.6c-0.3,0.1-0.8,0.2-1.5,0.2h-0.4v-2.9h1.1V25.1z M156,29.4c0.9,0,1.4,0,1.8,0.1c0.5,0.1,0.9,0.3,1.1,0.6
		c0.3,0.3,0.4,0.7,0.4,1.1c0,0.3-0.1,0.6-0.3,0.9c-0.2,0.3-0.4,0.5-0.8,0.6c-0.3,0.1-0.9,0.2-1.6,0.2h-1.1v-3.5L156,29.4L156,29.4z"
		/>
	<path class="st0" d="M162.9,27.8c-0.6,0.8-0.9,1.7-0.9,2.7c0,1.1,0.4,2,1.1,2.9s1.8,1.3,3.1,1.3c0.6,0,1.1-0.1,1.6-0.3
		s0.9-0.4,1.3-0.8c0.4-0.3,0.7-0.8,1-1.3l0.1-0.2l-1.2-0.6l-0.1,0.2c-0.3,0.5-0.6,0.8-0.8,1c-0.2,0.2-0.5,0.4-0.9,0.5
		c-0.3,0.1-0.7,0.2-1.1,0.2c-0.8,0-1.4-0.3-1.9-0.8s-0.7-1.1-0.8-1.8h6.8v-0.2c0-1.1-0.3-2-0.9-2.7c-0.8-1-1.9-1.5-3.3-1.5
		C164.8,26.2,163.6,26.8,162.9,27.8 M164.2,28.2L164.2,28.2c0.5-0.4,1.1-0.7,1.8-0.7c0.4,0,0.8,0.1,1.2,0.3c0.4,0.2,0.7,0.4,0.9,0.7
		c0.2,0.2,0.3,0.6,0.4,0.9h-5.1C163.8,28.9,164,28.6,164.2,28.2"/>
	<path class="st0" d="M174,26.6L174,26.6c-0.4,0.2-0.7,0.5-1,0.8v-1h-1.4v8h1.4v-3c0-1,0-1.7,0.1-2c0.1-0.5,0.4-1,0.9-1.3
		c0.4-0.4,0.9-0.5,1.5-0.5c0.5,0,0.8,0.1,1.1,0.3c0.3,0.2,0.5,0.6,0.6,1c0.1,0.3,0.1,0.9,0.1,1.7v3.8h1.4v-4.1
		c0-1.1-0.1-1.8-0.3-2.4c-0.2-0.5-0.6-0.9-1-1.3c-0.5-0.3-1-0.5-1.6-0.5C175,26.2,174.5,26.4,174,26.6"/>
	<path class="st0" d="M186.5,32.1c-0.2,0.2-0.3,0.4-0.5,0.5c-0.2,0.2-0.5,0.4-0.9,0.5c-0.3,0.1-0.7,0.2-1.1,0.2
		c-0.8,0-1.4-0.3-1.9-0.8s-0.7-1.1-0.8-1.8h6.8v-0.2c0-1.1-0.3-2-0.9-2.7c-0.8-1-1.9-1.5-3.3-1.5c-1.3,0-2.4,0.5-3.2,1.5
		c-0.6,0.8-0.9,1.7-0.9,2.7c0,1.1,0.4,2,1.1,2.9s1.8,1.3,3.1,1.3c0.6,0,1.1-0.1,1.6-0.3s0.9-0.4,1.3-0.8c0.2-0.2,0.4-0.5,0.6-0.8
		L186.5,32.1z M182.2,28.2L182.2,28.2c0.5-0.4,1.1-0.7,1.8-0.7c0.4,0,0.8,0.1,1.2,0.3c0.4,0.2,0.7,0.4,0.9,0.7
		c0.2,0.2,0.3,0.6,0.4,0.9h-5.1C181.8,28.9,182,28.6,182.2,28.2"/>
	<path class="st0" d="M190.5,23.6c-0.3,0.2-0.5,0.4-0.6,0.7s-0.2,0.7-0.2,1.2v1h-1v1.2h1v6.7h1.4c0,0,0-6.4,0-6.7h1.6v-1.2H191
		c0-0.3,0-0.8,0-0.8c0-0.6,0-0.7,0-0.7l0.2-0.2c0.1-0.1,0.2-0.1,0.4-0.1c0.2,0,0.5,0.1,0.8,0.2l0.3,0.1v-1.4h-0.1
		c-0.5-0.1-0.9-0.2-1.2-0.2C191,23.4,190.8,23.4,190.5,23.6"/>
	<path class="st0" d="M194.1,23.6L194.1,23.6c-0.2,0.2-0.3,0.4-0.3,0.7s0.1,0.5,0.3,0.7c0.2,0.2,0.4,0.3,0.7,0.3
		c0.3,0,0.5-0.1,0.7-0.3s0.3-0.4,0.3-0.7s-0.1-0.5-0.3-0.7c-0.2-0.2-0.4-0.3-0.7-0.3C194.5,23.4,194.2,23.4,194.1,23.6 M194.1,34.4
		h1.4v-8h-1.4V34.4z"/>
	<polygon class="st0" points="198,23.6 198,26.4 196.6,26.4 196.6,27.6 198,27.6 198,34.4 199.4,34.4 199.4,27.6 201,27.6 201,26.4 
		199.4,26.4 199.4,23.6 	"/>
	<path class="st0" d="M202.2,26.9L202.2,26.9c-0.4,0.4-0.7,1-0.7,1.6c0,0.5,0.1,0.9,0.4,1.3c0.3,0.4,0.7,0.7,1.5,1.1
		c0.8,0.4,1.1,0.6,1.2,0.8c0.2,0.2,0.2,0.4,0.2,0.6c0,0.3-0.1,0.5-0.3,0.7c-0.2,0.2-0.5,0.3-0.9,0.3c-0.5,0-1-0.3-1.4-0.8l-0.2-0.2
		l-0.9,1l0.1,0.1c0.3,0.4,0.6,0.6,1.1,0.8c0.4,0.2,0.9,0.3,1.3,0.3c0.7,0,1.3-0.2,1.8-0.7s0.7-1,0.7-1.7c0-0.5-0.1-0.9-0.4-1.3
		c-0.3-0.4-0.8-0.8-1.5-1.1c-0.6-0.3-0.9-0.5-1.1-0.7s-0.2-0.4-0.2-0.6c0-0.2,0.1-0.4,0.3-0.6c0.2-0.2,0.4-0.3,0.7-0.3
		c0.4,0,0.9,0.2,1.4,0.7l0.1,0.1l0.9-0.9l-0.1-0.1c-0.7-0.7-1.5-1.1-2.2-1.1C203.2,26.2,202.6,26.4,202.2,26.9"/>
</g>
<g>
	<path class="st0" d="M206.5,34.1c0.1,0.1,0.2,0.1,0.3,0.1c0.1,0,0.2-0.1,0.2-0.2c0-0.1-0.1-0.1-0.2-0.2l-0.1-0.1
		c-0.1,0-0.2-0.1-0.2-0.2c0-0.1,0.1-0.3,0.3-0.3c0.1,0,0.2,0,0.3,0.1l-0.1,0.1c-0.1-0.1-0.1-0.1-0.2-0.1s-0.2,0.1-0.2,0.1
		c0,0.1,0.1,0.1,0.2,0.2l0.1,0.1c0.1,0,0.2,0.1,0.2,0.3s-0.1,0.3-0.3,0.3C206.6,34.4,206.5,34.4,206.5,34.1L206.5,34.1z"/>
	<path class="st0" d="M207.1,33.4h0.1l0.2,0.5l0.1,0.2l0,0l0.1-0.2l0.2-0.5h0.1v0.9h-0.1v-0.5c0-0.1,0-0.2,0-0.3l0,0l-0.1,0.2
		l-0.2,0.5h-0.1l-0.2-0.5L207.1,33.4L207.1,33.4c0,0.2,0,0.3,0,0.4v0.5H207v-0.9H207.1z"/>
</g>
</svg>
