<?xml version="1.0" encoding="UTF-8"?>
<svg width="271px" height="177px" viewBox="0 0 271 177" version="1.1" xmlns="http://www.w3.org/2000/svg" xmlns:xlink="http://www.w3.org/1999/xlink">
    <!-- Generator: Sketch 43.2 (39069) - http://www.bohemiancoding.com/sketch -->
    <title>clear-space-tag-logo</title>
    <desc>Created with Sketch.</desc>
    <defs>
        <polygon id="path-1" points="34.4567565 0.969871338 34.4567565 2.09723544 0.997153549 2.09723544 0.997153549 0.969871338 34.4567565 0.969871338"></polygon>
        <polygon id="path-3" points="0.35455601 0.204052903 1.48192011 0.204052903 1.48192011 176.995713 0.35455601 176.995713 0.35455601 0.204052903"></polygon>
        <polygon id="path-5" points="0.765705699 0.204052903 1.8930698 0.204052903 1.8930698 33.6637685 0.765705699 33.6637685 0.765705699 0.204052903"></polygon>
        <polygon id="path-7" points="1.8930698 33.8209231 0.765705699 33.8209231 0.765705699 0.36210935 1.8930698 0.36210935"></polygon>
        <polygon id="path-9" points="2.12485586 33.8209231 0.997491759 33.8209231 0.997491759 0.36210935 2.12485586 0.36210935"></polygon>
        <polygon id="path-11" points="270.075854 0.126490252 270.075854 1.25385436 0.000563682052 1.25385436 0.000563682052 0.126490252"></polygon>
        <polygon id="path-13" points="0.281841026 0.204052903 1.40920513 0.204052903 1.40920513 176.995713 0.281841026 176.995713 0.281841026 0.204052903"></polygon>
        <polygon id="path-15" points="270.075854 0.0758716041 270.075854 1.20323571 0.000563682052 1.20323571 0.000563682052 0.0758716041 270.075854 0.0758716041"></polygon>
    </defs>
    <g id="Pages" stroke="none" stroke-width="1" fill="none" fill-rule="evenodd">
        <g id="Print" transform="translate(-677.000000, -1639.000000)">
            <g id="Logo" transform="translate(378.000000, 566.000000)">
                <g id="Clear-Space" transform="translate(0.000000, 995.000000)">
                    <g id="clear-space-tag-logo" transform="translate(299.000000, 77.000000)">
                        <g id="Group-17" transform="translate(7.891549, 8.814860)" fill="#E4E3E3">
                            <path d="M12.8111402,135.645802 C23.2223477,135.645802 25.567265,128.88049 25.567265,124.23575 L25.567265,110.558568 L17.8932976,110.558568 L17.8932976,123.71378 C17.8932976,127.320218 15.8662969,128.8974 12.8111402,128.8974 C9.75260138,128.8974 7.72447336,127.320218 7.72447336,123.71378 L7.72447336,110.558568 L0.0493785477,110.558568 L0.0493785477,124.23575 C0.0493785477,128.88049 2.39880534,135.645802 12.8111402,135.645802" id="Fill-1"></path>
                            <path d="M12.8111402,50.8578749 C23.2223477,50.8578749 25.567265,44.0936903 25.567265,39.4500775 L25.567265,25.7717689 L17.8932976,25.7717689 L17.8932976,38.9269806 C17.8932976,42.5345457 15.8662969,44.1106007 12.8111402,44.1106007 C9.75260138,44.1106007 7.72447336,42.5345457 7.72447336,38.9269806 L7.72447336,25.7717689 L0.0493785477,25.7717689 L0.0493785477,39.4500775 C0.0493785477,44.0936903 2.39880534,50.8578749 12.8111402,50.8578749" id="Fill-3"></path>
                            <path d="M38.3293649,160.733035 C48.7405724,160.733035 51.0854897,153.967723 51.0854897,149.32411 L51.0854897,135.644674 L43.4115223,135.644674 L43.4115223,148.801013 C43.4115223,152.408579 41.3845216,153.984634 38.3293649,153.984634 C35.2708261,153.984634 33.242698,152.408579 33.242698,148.801013 L33.242698,135.644674 L25.5676032,135.644674 L25.5676032,149.32411 C25.5676032,153.967723 27.91703,160.733035 38.3293649,160.733035" id="Fill-5"></path>
                            <path d="M216.088416,160.733035 C226.499624,160.733035 228.844541,153.967723 228.844541,149.32411 L228.844541,135.644674 L221.170574,135.644674 L221.170574,148.801013 C221.170574,152.408579 219.142446,153.984634 216.088416,153.984634 C213.02875,153.984634 211.00175,152.408579 211.00175,148.801013 L211.00175,135.644674 L203.327782,135.644674 L203.327782,149.32411 C203.327782,153.967723 205.676082,160.733035 216.088416,160.733035" id="Fill-7"></path>
                            <path d="M241.48714,50.8578749 C251.897221,50.8578749 254.242138,44.0936903 254.242138,39.4500775 L254.242138,25.7717689 L246.569298,25.7717689 L246.569298,38.9269806 C246.569298,42.5345457 244.542297,44.1106007 241.48714,44.1106007 C238.428602,44.1106007 236.399346,42.5345457 236.399346,38.9269806 L236.399346,25.7717689 L228.725379,25.7717689 L228.725379,39.4500775 C228.725379,44.0936903 231.073678,50.8578749 241.48714,50.8578749" id="Fill-9"></path>
                            <path d="M241.48714,135.645802 C251.897221,135.645802 254.242138,128.88049 254.242138,124.23575 L254.242138,110.558568 L246.569298,110.558568 L246.569298,123.71378 C246.569298,127.320218 244.542297,128.8974 241.48714,128.8974 C238.428602,128.8974 236.399346,127.320218 236.399346,123.71378 L236.399346,110.558568 L228.725379,110.558568 L228.725379,124.23575 C228.725379,128.88049 231.073678,135.645802 241.48714,135.645802" id="Fill-11"></path>
                            <path d="M215.968465,25.7718816 C226.379672,25.7718816 228.72459,19.0065696 228.72459,14.3618295 L228.72459,0.68464822 L221.05175,0.68464822 L221.05175,13.8398599 C221.05175,17.4485524 219.022494,19.0223527 215.968465,19.0223527 C212.908799,19.0223527 210.881798,17.4485524 210.881798,13.8398599 L210.881798,0.68464822 L203.207831,0.68464822 L203.207831,14.3618295 C203.207831,19.0065696 205.55613,25.7718816 215.968465,25.7718816" id="Fill-13"></path>
                            <path d="M38.2093006,25.7718816 C48.6205081,25.7718816 50.9654254,19.0065696 50.9654254,14.3618295 L50.9654254,0.68464822 L43.291458,0.68464822 L43.291458,13.8398599 C43.291458,17.4485524 41.2644573,19.0223527 38.2093006,19.0223527 C35.1507618,19.0223527 33.1226338,17.4485524 33.1226338,13.8398599 L33.1226338,0.68464822 L25.447539,0.68464822 L25.447539,14.3618295 C25.447539,19.0065696 27.7969657,25.7718816 38.2093006,25.7718816" id="Fill-15"></path>
                        </g>
                        <polygon id="Stroke-18" stroke="#555659" stroke-width="0.5" points="33.7656823 144.154921 236.311299 144.154921 236.311299 34.8930464 33.7656823 34.8930464"></polygon>
                        <g id="Group-85" transform="translate(0.000000, 0.923311)">
                            <g id="Group-21" transform="translate(235.619098, 32.693559)">
                                <mask id="mask-2" fill="white">
                                    <use xlink:href="#path-1"></use>
                                </mask>
                                <g id="Clip-20"></g>
                                <path d="M34.4573201,0.969871338 L0.997153549,0.969871338" id="Stroke-19" stroke="#555659" stroke-width="0.35" stroke-dasharray="3.298,3.298" mask="url(#mask-2)"></path>
                            </g>
                            <path d="M236.616589,33.6634303 L236.616589,0.204391112" id="Stroke-22" stroke="#555659" stroke-width="0.35" stroke-dasharray="3.298,3.298"></path>
                            <path d="M0,33.6634303 L33.4590392,33.6634303" id="Stroke-24" stroke="#555659" stroke-width="0.35" stroke-dasharray="3.298,3.298"></path>
                            <path d="M0,143.53735 L33.4590392,143.53735" id="Stroke-26" stroke="#555659" stroke-width="0.35" stroke-dasharray="3.298,3.298"></path>
                            <path d="M236.616589,143.53735 L270.075629,143.53735" id="Stroke-28" stroke="#555659" stroke-width="0.35" stroke-dasharray="3.298,3.298"></path>
                            <g id="Group-32" transform="translate(58.622933, 0.000000)">
                                <mask id="mask-4" fill="white">
                                    <use xlink:href="#path-3"></use>
                                </mask>
                                <g id="Clip-31"></g>
                                <path d="M0.35455601,0.203601957 L0.35455601,176.995713" id="Stroke-30" stroke="#555659" stroke-width="0.35" stroke-dasharray="2.959,2.959" mask="url(#mask-4)"></path>
                            </g>
                            <g id="Group-35" transform="translate(32.693559, 0.000000)">
                                <mask id="mask-6" fill="white">
                                    <use xlink:href="#path-5"></use>
                                </mask>
                                <g id="Clip-34"></g>
                                <path d="M0.765705699,0.203601957 L0.765705699,33.6637685" id="Stroke-33" stroke="#555659" stroke-width="0.35" stroke-dasharray="3.298,3.298" mask="url(#mask-6)"></path>
                            </g>
                            <g id="Group-38" transform="translate(32.693559, 143.175241)">
                                <mask id="mask-8" fill="white">
                                    <use xlink:href="#path-7"></use>
                                </mask>
                                <g id="Clip-37"></g>
                                <path d="M0.765705699,0.36210935 L0.765705699,33.8211486" id="Stroke-36" stroke="#555659" stroke-width="0.35" stroke-dasharray="3.298,3.298" mask="url(#mask-8)"></path>
                            </g>
                            <g id="Group-41" transform="translate(235.619098, 143.175241)">
                                <mask id="mask-10" fill="white">
                                    <use xlink:href="#path-9"></use>
                                </mask>
                                <g id="Clip-40"></g>
                                <path d="M0.997491759,0.36210935 L0.997491759,33.8211486" id="Stroke-39" stroke="#555659" stroke-width="0.35" stroke-dasharray="3.298,3.298" mask="url(#mask-10)"></path>
                            </g>
                            <g id="Group-44" transform="translate(0.000000, 58.622933)">
                                <mask id="mask-12" fill="white">
                                    <use xlink:href="#path-11"></use>
                                </mask>
                                <g id="Clip-43"></g>
                                <path d="M270.076418,0.126490252 L0.000563682052,0.126490252" id="Stroke-42" stroke="#555659" stroke-width="0.35" stroke-dasharray="3.032,3.032" mask="url(#mask-12)"></path>
                            </g>
                            <g id="Group-47" transform="translate(210.817087, 0.000000)">
                                <mask id="mask-14" fill="white">
                                    <use xlink:href="#path-13"></use>
                                </mask>
                                <g id="Clip-46"></g>
                                <path d="M0.281841026,0.203601957 L0.281841026,176.995713" id="Stroke-45" stroke="#555659" stroke-width="0.35" stroke-dasharray="2.959,2.959" mask="url(#mask-14)"></path>
                            </g>
                            <g id="Group-50" transform="translate(0.000000, 118.373231)">
                                <mask id="mask-16" fill="white">
                                    <use xlink:href="#path-15"></use>
                                </mask>
                                <g id="Clip-49"></g>
                                <path d="M270.076418,0.0758716041 L0.000563682052,0.0758716041" id="Stroke-48" stroke="#555659" stroke-width="0.35" stroke-dasharray="3.032,3.032" mask="url(#mask-16)"></path>
                            </g>
                        </g>
                        <path d="M100.266411,72.0081274 C103.748838,72.0081274 106.490588,69.3261282 106.490588,65.8369363 C106.490588,62.3545085 103.748838,59.671382 100.266411,59.671382 C96.7479071,59.671382 93.9565536,62.3545085 93.9565536,65.8369363 C93.9565536,69.3261282 96.7479071,72.0081274 100.266411,72.0081274 Z" id="Fill-59" fill="#5E88A1"></path>
                        <path d="M122.47864,65.8369363 C122.47864,69.3261282 125.273376,72.0081274 128.793006,72.0081274 C132.276561,72.0081274 135.013801,69.3261282 135.013801,65.8369363 C135.013801,62.3545085 132.276561,59.671382 128.793006,59.671382 C125.273376,59.671382 122.47864,62.3545085 122.47864,65.8369363" id="Fill-61" fill="#5E88A1"></path>
                        <path d="M158.248212,65.8369363 C158.248212,69.3261282 161.04182,72.0081274 164.562578,72.0081274 C168.045006,72.0081274 170.784501,69.3261282 170.784501,65.8369363 C170.784501,62.3545085 168.045006,59.671382 164.562578,59.671382 C161.04182,59.671382 158.248212,62.3545085 158.248212,65.8369363" id="Fill-63" fill="#5E88A1"></path>
                        <path d="M128.795825,101.096827 C139.207032,101.096827 141.553077,94.3303876 141.553077,89.6867748 L141.553077,76.0084661 L133.877982,76.0084661 L133.877982,89.1625505 C133.877982,92.771243 131.850981,94.3506801 128.795825,94.3506801 C125.733904,94.3506801 123.709158,92.771243 123.709158,89.1625505 L123.709158,76.0084661 L116.034063,76.0084661 L116.034063,89.6867748 C116.034063,94.3303876 118.37898,101.096827 128.795825,101.096827" id="Fill-51" fill="#015294"></path>
                        <path d="M71.7395892,101.096827 C82.1530515,101.096827 84.5002235,94.3303876 84.5002235,89.6867748 L84.5002235,76.0084661 L76.8251287,76.0084661 L76.8251287,89.1625505 C76.8251287,92.771243 74.7970007,94.3506801 71.7395892,94.3506801 C68.6810504,94.3506801 66.651795,92.771243 66.651795,89.1625505 L66.651795,76.0084661 L58.9767002,76.0084661 L58.9767002,89.6867748 C58.9767002,94.3303876 61.3272544,101.096827 71.7395892,101.096827" id="Fill-53" fill="#015294"></path>
                        <path d="M87.505438,86.4651064 L87.505438,100.143415 L95.1827876,100.143415 L95.1827876,86.9825665 C95.1827876,83.386275 97.2086608,81.8034558 100.2672,81.8034558 C103.324611,81.8034558 105.349357,83.386275 105.349357,86.9825665 L105.349357,100.143415 L113.026707,100.143415 L113.026707,86.4651064 C113.026707,81.8214937 110.678407,75.0573091 100.2672,75.0573091 C89.8537374,75.0573091 87.505438,81.8214937 87.505438,86.4651064 Z" id="Fill-55" fill="#015294"></path>
                        <path d="M164.562127,78.9326232 C164.229555,78.4906964 162.273578,75.0567454 155.991905,75.0567454 C149.596369,75.0567454 144.558179,78.2494405 144.558179,85.960611 L144.558179,100.142851 L152.060787,100.142851 L152.060787,85.94821 C152.060787,83.4634995 153.333581,81.5559994 156.434959,81.5559994 C159.538593,81.5559994 160.808005,83.4634995 160.808005,85.94821 L160.808005,100.142851 L168.31174,100.142851 L168.31174,85.94821 C168.31174,83.4634995 169.584534,81.5559994 172.683658,81.5559994 C175.786164,81.5559994 177.057831,83.4634995 177.057831,85.94821 L177.057831,100.142851 L184.557057,100.142851 L184.557057,85.960611 C184.557057,78.2494405 179.519994,75.0567454 173.125585,75.0567454 C166.851804,75.0567454 164.889063,78.4906964 164.562127,78.9326232" id="Fill-57" fill="#015294"></path>
                        <path d="M89.9051452,115.250545 L88.4936854,115.250545 L88.4936854,118.452259 L89.823975,118.452259 C91.0854955,118.452259 91.7754423,117.734128 91.7754423,116.784888 C91.7754423,115.928091 91.0426556,115.250545 89.9051452,115.250545 M89.6593799,111.363394 L88.4936854,111.363394 L88.4936854,114.344144 L89.6481062,114.344144 C90.433879,114.344144 91.2591095,113.815411 91.2591095,112.744415 C91.2591095,111.891 90.7450315,111.363394 89.6593799,111.363394 M89.7428048,119.372188 L87.5049871,119.372188 L87.5049871,110.440082 L89.8499044,110.440082 C91.5443326,110.440082 92.3312328,111.498677 92.3312328,112.666626 C92.3312328,113.504258 91.9637121,114.265229 91.1249532,114.629367 L91.1249532,114.657551 C91.9637121,114.778179 92.8588392,115.566207 92.8588392,116.756703 C92.8588392,117.962983 92.1407083,119.372188 89.7428048,119.372188" id="Fill-65" fill="#015294"></path>
                        <path d="M119.119659,113.951371 C118.983248,113.89613 118.779195,113.843144 118.535684,113.843144 C118.105031,113.843144 117.641684,114.10131 117.098295,114.614261 L117.098295,119.372865 L116.109596,119.372865 L116.109596,112.961545 L117.008106,112.961545 L117.059964,113.693204 C117.940436,112.89503 118.427457,112.798077 118.835563,112.798077 C119.176027,112.798077 119.417283,112.908559 119.540165,112.988602 L119.119659,113.951371 Z" id="Fill-67" fill="#015294"></path>
                        <path d="M125.728605,113.721276 C125.051059,113.721276 124.699322,113.9118 124.414099,114.045956 L124.414099,118.477625 C124.699322,118.601635 125.011602,118.654621 125.430981,118.654621 C126.691374,118.654621 127.694728,117.476525 127.694728,115.983895 C127.694728,114.656988 127.004781,113.721276 125.728605,113.721276 M125.215655,119.509163 C124.320527,119.509163 123.709496,119.290454 123.4254,119.101057 L123.4254,109.777756 L124.414099,109.777756 L124.414099,113.096716 C124.86279,112.920847 125.322754,112.797964 125.865016,112.797964 C127.344118,112.797964 128.684554,113.814847 128.684554,115.94331 C128.684554,118.193529 127.084824,119.509163 125.215655,119.509163" id="Fill-69" fill="#015294"></path>
                        <path d="M141.2718,119.372414 L141.2718,115.428894 C141.2718,114.629593 141.136516,113.735593 140.160219,113.735593 C139.373318,113.735593 138.655187,114.291384 138.167039,114.708508 L138.167039,119.372414 L137.177213,119.372414 L137.177213,112.961094 L138.074595,112.961094 L138.126454,113.735593 C138.833311,113.191076 139.523258,112.798754 140.417258,112.798754 C141.339441,112.798754 142.261625,113.463898 142.261625,115.063628 L142.261625,119.372414 L141.2718,119.372414 Z" id="Fill-71" fill="#015294"></path>
                        <path d="M146.585968,113.637625 C145.636728,113.637625 145.04148,114.479766 145.04148,115.495521 L148.06507,115.495521 C148.06507,114.601521 147.562266,113.637625 146.585968,113.637625 L146.585968,113.637625 Z M145.027951,116.337662 C145.027951,117.55747 145.731426,118.654395 147.11583,118.654395 C147.697549,118.654395 148.295052,118.423286 148.673847,118.179775 L149.008674,118.921581 C148.828296,119.029808 148.12933,119.508937 146.99182,119.508937 C144.947908,119.508937 143.970484,117.868623 143.970484,116.038911 C143.970484,114.183269 145.027951,112.797739 146.57244,112.797739 C148.226283,112.797739 149.134939,114.115628 149.134939,116.106553 L149.134939,116.337662 L145.027951,116.337662 Z" id="Fill-73" fill="#015294"></path>
                        <path d="M132.903489,113.637625 C131.954248,113.637625 131.359,114.479766 131.359,115.495521 L134.381463,115.495521 C134.381463,114.601521 133.879786,113.637625 132.903489,113.637625 L132.903489,113.637625 Z M131.344344,116.337662 C131.344344,117.55747 132.048947,118.654395 133.432222,118.654395 C134.013942,118.654395 134.611445,118.423286 134.992494,118.179775 L135.325067,118.921581 C135.144688,119.029808 134.44685,119.508937 133.30934,119.508937 C131.263174,119.508937 130.288004,117.868623 130.288004,116.038911 C130.288004,114.183269 131.344344,112.797739 132.888833,112.797739 C134.544931,112.797739 135.451331,114.115628 135.451331,116.106553 L135.451331,116.337662 L131.344344,116.337662 Z" id="Fill-75" fill="#015294"></path>
                        <path d="M111.857855,113.637625 C110.909742,113.637625 110.312239,114.479766 110.312239,115.495521 L113.334702,115.495521 C113.334702,114.601521 112.830771,113.637625 111.857855,113.637625 L111.857855,113.637625 Z M110.298711,116.337662 C110.298711,117.55747 111.004441,118.654395 112.386589,118.654395 C112.967182,118.654395 113.565812,118.423286 113.943479,118.179775 L114.278306,118.921581 C114.099055,119.029808 113.401217,119.508937 112.262579,119.508937 C110.218668,119.508937 109.241243,117.868623 109.241243,116.038911 C109.241243,114.183269 110.298711,112.797739 111.8432,112.797739 C113.497043,112.797739 114.405698,114.115628 114.405698,116.106553 L114.405698,116.337662 L110.298711,116.337662 Z" id="Fill-77" fill="#015294"></path>
                        <path d="M96.7067583,113.637625 C95.7563904,113.637625 95.1611422,114.479766 95.1611422,115.495521 L98.182478,115.495521 C98.182478,114.601521 97.6796736,113.637625 96.7067583,113.637625 L96.7067583,113.637625 Z M95.1476138,116.337662 C95.1476138,117.55747 95.8522164,118.654395 97.2332374,118.654395 C97.817212,118.654395 98.4124602,118.423286 98.7923819,118.179775 L99.1260817,118.921581 C98.9479582,119.029808 98.2489924,119.508937 97.1126094,119.508937 C95.0641888,119.508937 94.0901463,117.868623 94.0901463,116.038911 C94.0901463,114.183269 95.1476138,112.797739 96.6909752,112.797739 C98.3459458,112.797739 99.2523465,114.115628 99.2523465,116.106553 L99.2523465,116.337662 L95.1476138,116.337662 Z" id="Fill-79" fill="#015294"></path>
                        <path d="M163.61097,119.508937 C162.687659,119.508937 162.132996,119.266554 161.712489,119.018534 L162.092411,118.248544 C162.390035,118.437942 162.945825,118.710764 163.651555,118.710764 C164.438455,118.710764 165.006647,118.356771 165.006647,117.760396 C165.006647,116.187723 162.092411,116.742386 162.092411,114.521479 C162.092411,113.572238 162.756428,112.797739 164.220874,112.797739 C164.89842,112.797739 165.414753,112.948806 165.833005,113.13933 L165.833005,114.005146 C165.387696,113.814621 164.924349,113.626352 164.262587,113.626352 C163.61097,113.626352 163.068708,113.857461 163.068708,114.438054 C163.068708,115.87657 166.038185,115.50905 166.038185,117.612711 C166.038185,118.953147 164.97959,119.508937 163.61097,119.508937" id="Fill-81" fill="#015294"></path>
                        <path d="M174.144722,116.296401 L172.940697,116.336986 C171.747946,116.377571 171.25867,116.769894 171.25867,117.516209 C171.25867,118.124985 171.665649,118.654846 172.506662,118.654846 C173.346548,118.654846 173.845971,118.23434 174.144722,117.92206 L174.144722,116.296401 Z M174.455875,119.372977 L174.199963,118.749545 C173.80764,119.130594 173.183081,119.509388 172.23384,119.509388 C171.192156,119.509388 170.267717,118.761946 170.267717,117.543265 C170.267717,116.284 171.149316,115.509501 172.844871,115.455387 L174.144722,115.415929 L174.144722,115.010078 C174.144722,114.019125 173.604715,113.653859 172.791885,113.653859 C172.056844,113.653859 171.516836,113.937955 171.081674,114.249107 L170.675823,113.532104 C171.407482,113.018026 172.112085,112.79819 172.897857,112.79819 C174.144722,112.79819 175.136803,113.326924 175.136803,114.967238 L175.136803,116.922088 C175.136803,118.736017 175.190916,119.168924 175.269832,119.372977 L174.455875,119.372977 Z" id="Fill-83" fill="#015294"></path>
                        <polygon id="Fill-86" fill="#015294" points="191.121247 119.413224 190.201318 119.413224 188.626391 114.291609 188.586933 114.291609 186.986076 119.413224 186.079675 119.413224 183.96474 112.961319 184.994023 112.961319 186.540767 118.004019 186.581352 118.004019 188.139369 112.961319 189.115667 112.961319 190.660155 118.019802 190.699613 118.019802 192.220427 112.961319 193.207998 112.961319"></polygon>
                        <path d="M197.026719,113.637625 C195.818184,113.637625 195.12711,114.61505 195.12711,116.133609 C195.12711,117.652169 195.844114,118.654395 197.040247,118.654395 C198.230744,118.654395 198.950002,117.652169 198.950002,116.133609 C198.950002,114.61505 198.2578,113.637625 197.026719,113.637625 M199.043573,118.710764 C198.545278,119.222587 197.838421,119.508937 197.010936,119.508937 C196.211634,119.508937 195.52056,119.237243 195.018883,118.723165 C194.437163,118.124534 194.124883,117.219261 194.124883,116.160666 C194.124883,115.104326 194.449564,114.2216 195.018883,113.626352 C195.536343,113.09649 196.22629,112.797739 197.026719,112.797739 C197.850822,112.797739 198.545278,113.09649 199.059356,113.626352 C199.62642,114.2216 199.954483,115.104326 199.954483,116.160666 C199.954483,117.219261 199.62642,118.112133 199.043573,118.710764" id="Fill-87" fill="#015294"></path>
                        <path d="M204.548379,113.951371 C204.414223,113.89613 204.21017,113.843144 203.965532,113.843144 C203.533752,113.843144 203.07266,114.10131 202.530397,114.614261 L202.530397,119.372865 L201.539444,119.372865 L201.539444,112.961545 L202.435699,112.961545 L202.489812,113.693204 C203.370284,112.89503 203.85956,112.798077 204.264283,112.798077 C204.602493,112.798077 204.848258,112.908559 204.970013,112.988602 L204.548379,113.951371 Z" id="Fill-89" fill="#015294"></path>
                        <polygon id="Fill-92" fill="#015294" points="209.836168 119.372414 207.086527 116.039925 207.071871 116.039925 207.071871 119.372414 206.083173 119.372414 206.083173 109.777418 207.071871 109.777418 207.071871 115.225968 207.086527 115.225968 209.444972 112.961094 210.730168 112.961094 207.911757 115.578833 211.098816 119.372414"></polygon>
                        <path d="M212.751531,119.522128 C212.332152,119.522128 212.018745,119.183918 212.018745,118.762284 C212.018745,118.34065 212.332152,118.003568 212.751531,118.003568 C213.172038,118.003568 213.484318,118.34065 213.484318,118.762284 C213.484318,119.183918 213.172038,119.522128 212.751531,119.522128" id="Fill-93" fill="#015294"></path>
                        <path d="M102.822483,119.50781 C101.723303,119.50781 101.240791,118.923835 101.240791,117.956557 L101.240791,113.775164 L100.196852,113.775164 L100.196852,112.961207 L101.240791,112.961207 L101.240791,111.553129 L102.230617,111.213792 L102.230617,112.961207 L104.032145,112.961207 L103.681535,113.775164 L102.230617,113.775164 L102.230617,117.828038 C102.230617,118.383828 102.422269,118.654395 103.079522,118.654395 C103.55076,118.654395 103.938574,118.477399 104.032145,118.441324 L104.304967,119.163964 C104.19674,119.220332 103.622912,119.50781 102.822483,119.50781" id="Fill-95" fill="#015294"></path>
                        <path d="M107.393606,119.50781 C106.296681,119.50781 105.811915,118.923835 105.811915,117.956557 L105.811915,113.775164 L104.769103,113.775164 L104.769103,112.961207 L105.811915,112.961207 L105.811915,111.553129 L106.802868,111.213792 L106.802868,112.961207 L108.604395,112.961207 L108.253785,113.775164 L106.802868,113.775164 L106.802868,117.828038 C106.802868,118.383828 106.994519,118.654395 107.650645,118.654395 C108.123011,118.654395 108.510824,118.477399 108.604395,118.441324 L108.878345,119.163964 C108.768991,119.220332 108.19629,119.50781 107.393606,119.50781" id="Fill-97" fill="#015294"></path>
                        <path d="M159.533069,119.50781 C158.436143,119.50781 157.951377,118.923835 157.951377,117.956557 L157.951377,113.775164 L156.90631,113.775164 L156.90631,112.961207 L157.951377,112.961207 L157.951377,111.553129 L158.940075,111.213792 L158.940075,112.961207 L160.901689,112.961207 L160.551079,113.775164 L158.940075,113.775164 L158.940075,117.828038 C158.940075,118.383828 159.133982,118.654395 159.787853,118.654395 C160.262473,118.654395 160.646905,118.477399 160.74273,118.441324 L161.015553,119.163964 C160.905071,119.220332 160.333497,119.50781 159.533069,119.50781" id="Fill-99" fill="#015294"></path>
                        <path d="M179.019783,119.50781 C177.92173,119.50781 177.439218,118.923835 177.439218,117.956557 L177.439218,113.775164 L176.395279,113.775164 L176.395279,112.961207 L177.439218,112.961207 L177.439218,111.553129 L178.426789,111.213792 L178.426789,112.961207 L180.392912,112.961207 L180.03892,113.775164 L178.426789,113.775164 L178.426789,117.828038 C178.426789,118.383828 178.620696,118.654395 179.275694,118.654395 C179.750315,118.654395 180.139255,118.477399 180.231699,118.441324 L180.505649,119.163964 C180.395167,119.220332 179.821339,119.50781 179.019783,119.50781" id="Fill-101" fill="#015294"></path>
                        <path d="M152.092917,112.966054 L152.092917,111.978483 C152.092917,111.182564 152.414215,110.607609 153.531433,110.607609 C154.146974,110.607609 154.676835,110.852247 154.787317,110.893959 L155.038719,110.080002 C154.960931,110.049563 154.290149,109.778996 153.380366,109.778996 C152.017383,109.778996 151.101964,110.438504 151.101964,111.918733 L151.101964,112.966054 L150.301535,112.966054 L150.301535,113.780011 L151.101964,113.780011 L151.101964,119.371737 L152.092917,119.371737 L152.092917,113.780011 L154.525768,113.780011 L154.525768,119.371737 L155.513339,119.371737 L155.513339,112.966054 L152.092917,112.966054 Z" id="Fill-103" fill="#015294"></path>
                        <path d="M188.002159,76.4483583 C187.169394,76.4483583 186.453623,76.1449985 185.854826,75.5382698 C185.256028,74.9315411 184.956634,74.2078396 184.956634,73.3671436 C184.956634,72.5158728 185.258011,71.7895276 185.860774,71.1880863 C186.463537,70.586645 187.189222,70.2859289 188.037849,70.2859289 C188.886476,70.2859289 189.61216,70.586645 190.214923,71.1880863 C190.817686,71.7895276 191.119063,72.5132291 191.119063,73.3592125 C191.119063,74.2210581 190.817025,74.9513688 190.21294,75.5501664 C189.608855,76.148964 188.871936,76.4483583 188.002159,76.4483583 Z M188.002159,76.0081848 C188.864004,76.0081848 189.548712,75.6922676 190.056302,75.0604238 C190.471363,74.5449026 190.67889,73.9791597 190.67889,73.3631781 C190.67889,72.7524838 190.471363,72.1893846 190.056302,71.6738634 C189.548712,71.0420196 188.875901,70.7261024 188.037849,70.7261024 C187.199796,70.7261024 186.526985,71.0420196 186.019395,71.6738634 C185.604335,72.1893846 185.396807,72.7538056 185.396807,73.3671436 C185.396807,74.0862295 185.653242,74.7061674 186.16612,75.2269759 C186.681641,75.7477845 187.293648,76.0081848 188.002159,76.0081848 Z M187.022674,75.0445617 L187.022674,71.7135187 L188.073538,71.7135187 C188.409288,71.7135187 188.661097,71.7815929 188.828971,71.9177434 C188.996846,72.0538938 189.080782,72.2581164 189.080782,72.5304173 C189.080782,72.7313384 189.031875,72.912429 188.934058,73.0736946 C188.836241,73.2349602 188.69084,73.3750741 188.49785,73.4940405 L189.501128,75.0445617 L188.87854,75.0445617 L187.978366,73.6566271 L187.55802,73.6566271 L187.55802,75.0445617 L187.022674,75.0445617 Z M187.52233,73.2402467 L187.676986,73.2402467 C187.970436,73.2402467 188.190521,73.1853908 188.337246,73.0756773 C188.483971,72.9659639 188.557333,72.8013961 188.557333,72.5819692 C188.557333,72.4074851 188.495868,72.276624 188.372936,72.189382 C188.250004,72.1021399 188.065609,72.0585196 187.819745,72.0585196 L187.52233,72.0585196 L187.52233,73.2402467 Z" id="®" fill="#015294"></path>
                    </g>
                </g>
            </g>
        </g>
    </g>
</svg>