<svg width="18" height="16" viewBox="0 0 18 16" xmlns="http://www.w3.org/2000/svg" xmlns:xlink="http://www.w3.org/1999/xlink"><title>external-link</title><defs><path id="a" d="M0 15.374V0h17.936v15.374H0z"/></defs><g fill="none" fill-rule="evenodd"><mask id="b" fill="#fff"><use xlink:href="#a"/></mask><path d="M17.936.64v5.125a.616.616 0 0 1-.19.45.615.615 0 0 1-.45.19.615.615 0 0 1-.451-.19l-1.762-1.761-6.525 6.526a.316.316 0 0 1-.46 0L6.955 9.839a.316.316 0 0 1 0-.46l6.526-6.526L11.72 1.09a.616.616 0 0 1-.19-.45c0-.174.064-.324.19-.45a.615.615 0 0 1 .45-.19h5.125c.174 0 .324.063.45.19.128.127.19.277.19.45m-3.842 8.648v3.203c0 .794-.282 1.473-.846 2.037a2.777 2.777 0 0 1-2.037.846H2.883a2.777 2.777 0 0 1-2.037-.846A2.777 2.777 0 0 1 0 12.49V4.164C0 3.37.282 2.69.846 2.127a2.776 2.776 0 0 1 2.037-.846h7.046c.093 0 .17.03.23.09s.09.137.09.23v.641c0 .093-.03.17-.09.23a.312.312 0 0 1-.23.09H2.883c-.44 0-.818.157-1.131.47-.314.314-.47.691-.47 1.132v8.327c0 .44.156.817.47 1.131.313.314.69.47 1.13.47h8.328c.44 0 .817-.156 1.13-.47.315-.314.471-.69.471-1.13V9.287c0-.093.03-.17.09-.23s.137-.09.23-.09h.641c.094 0 .17.03.23.09s.09.137.09.23" fill="#fff" mask="url(#b)"/></g></svg>