<?xml version="1.0" encoding="UTF-8"?>
<svg width="120px" height="31px" viewBox="0 0 120 31" version="1.1" xmlns="http://www.w3.org/2000/svg" xmlns:xlink="http://www.w3.org/1999/xlink">
    <!-- Generator: Sketch 43.2 (39069) - http://www.bohemiancoding.com/sketch -->
    <title>footer-logo</title>
    <desc>Created with Sketch.</desc>
    <defs></defs>
    <g id="Pages" stroke="none" stroke-width="1" fill="none" fill-rule="evenodd">
        <g id="Overview" transform="translate(-81.000000, -1743.000000)" fill="#FFFFFF">
            <g id="Footer" transform="translate(0.000000, 1639.000000)">
                <path d="M88.8054958,121.263372 C87.3785384,121.263372 86.1557098,121.776632 85.1739476,122.77719 C84.1941294,123.784737 83.6974161,125.042923 83.6974161,126.514801 C83.6974161,127.538326 83.9151534,128.465989 84.3506282,129.258845 C84.7870749,130.062687 85.4101538,130.69178 86.2023678,131.145126 C86.9906938,131.594478 87.8869163,131.827143 88.8570141,131.827143 C89.6832496,131.827143 90.4482465,131.665376 91.133536,131.351828 C91.8023008,131.037282 92.5468848,130.463109 93.3400709,129.661265 C93.4207504,129.746143 95.0819699,131.53057 95.1713977,131.616447 C94.1031238,132.679914 93.0785917,133.427835 92.1269627,133.842238 C91.1597811,134.26363 90.041933,134.482315 88.809384,134.482315 C86.5299459,134.482315 84.6364085,133.723409 83.1870941,132.241546 C81.7329195,130.755688 81,128.831462 81,126.506813 C81,125.00398 81.3324383,123.652927 81.9924547,122.48561 C82.6553872,121.324284 83.6157645,120.368662 84.8463695,119.654691 C86.0828067,118.946712 87.4300567,118.589227 88.8492377,118.589227 C90.0584577,118.589227 91.2404606,118.853846 92.3602528,119.379089 C93.4635203,119.896343 94.4209815,120.641269 95.2268041,121.588903 L93.342015,123.432245 C92.0025414,121.996315 90.4774078,121.263372 88.8054958,121.263372 Z M98.3195876,128.74754 C98.3195876,127.83043 98.6184928,127.065857 99.2005713,126.47561 C99.7875659,125.881573 100.529913,125.582186 101.409913,125.582186 C102.305645,125.582186 103.058808,125.878731 103.63597,126.46424 C104.215099,127.046908 104.505155,127.815271 104.505155,128.74754 C104.505155,129.676018 104.209199,130.448171 103.616305,131.04505 C103.03226,131.640982 102.284997,131.939421 101.398114,131.939421 C100.512214,131.939421 99.7698676,131.640982 99.1897556,131.055472 C98.6155431,130.46333 98.3195876,129.692124 98.3195876,128.74754 Z M95.8453608,128.769571 C95.8453608,127.076401 96.4597434,125.647241 97.6713897,124.510343 C98.7308668,123.536137 99.9691426,123.039292 101.350077,123.039292 C102.347735,123.039292 103.297841,123.294534 104.176617,123.805992 C105.057296,124.315502 105.748714,125.019853 106.241361,125.897612 C106.73496,126.775372 106.979381,127.735939 106.979381,128.750087 C106.979381,129.770081 106.730205,130.736493 106.237557,131.630814 C105.742057,132.517342 105.057296,133.221693 104.201345,133.72146 C103.345394,134.226099 102.390533,134.482315 101.357685,134.482315 C99.8445542,134.482315 98.5349491,133.914353 97.4612061,132.814475 C96.3884142,131.709725 95.8453608,130.347785 95.8453608,128.769571 Z M108.216495,134.482315 L108.216495,119.224951 L110.690722,119.224951 L110.690722,134.482315 L108.216495,134.482315 Z M115.020619,128.74754 C115.020619,127.83043 115.316574,127.065857 115.901602,126.47561 C116.488597,125.881573 117.22996,125.582186 118.107994,125.582186 C119.008643,125.582186 119.755906,125.878731 120.335034,126.46424 C120.911213,127.046908 121.206186,127.815271 121.206186,128.74754 C121.206186,129.676018 120.909247,130.448171 120.319302,131.04505 C119.732308,131.640982 118.983078,131.939421 118.098162,131.939421 C117.212262,131.939421 116.469915,131.640982 115.892753,131.055472 C115.312641,130.46333 115.020619,129.692124 115.020619,128.74754 Z M112.546392,128.769571 C112.546392,127.076401 113.158768,125.647241 114.372109,124.510343 C115.433307,123.536137 116.672322,123.039292 118.050168,123.039292 C119.046705,123.039292 119.996648,123.294534 120.876225,123.805992 C121.75295,124.315502 122.445201,125.019853 122.938715,125.897612 C123.431278,126.775372 123.680412,127.735939 123.680412,128.750087 C123.680412,129.770081 123.428425,130.736493 122.93396,131.630814 C122.438544,132.517342 121.75295,133.221693 120.900949,133.72146 C120.044193,134.226099 119.090446,134.482315 118.059677,134.482315 C116.543,134.482315 115.23457,133.914353 114.16101,132.814475 C113.090303,131.709725 112.546392,130.347785 112.546392,128.769571 Z M128.175783,124.467547 C128.774265,123.9332 129.319278,123.554662 129.798627,123.352909 C130.280789,123.144164 130.777961,123.039292 131.282637,123.039292 C132.310751,123.039292 133.192527,123.420826 133.911081,124.190885 C134.51144,124.833101 134.814433,125.812904 134.814433,127.087347 L134.814433,134.482315 L132.314503,134.482315 L132.314503,129.60727 C132.314503,128.237942 132.25822,127.359016 132.142838,126.904571 C132.025581,126.452123 131.815455,126.100553 131.528409,125.85685 C131.233858,125.619141 130.869891,125.500286 130.444012,125.500286 C129.890557,125.500286 129.409332,125.698044 129.012532,126.089566 C128.621362,126.47909 128.345572,127.025423 128.193606,127.710586 C128.113871,128.075141 128.075411,128.826224 128.075411,130.018767 L128.075411,134.482315 L125.536082,134.482315 L125.536082,123.327939 L128.075411,123.327939 L128.075411,124.560434 L128.175783,124.467547 Z M137.28866,134.482315 L137.28866,123.039292 L139.762887,123.039292 L139.762887,134.482315 L137.28866,134.482315 Z M145.583866,126.467216 C146.162592,125.874386 146.902021,125.582186 147.779476,125.582186 C148.675664,125.582186 149.428895,125.865958 150.015508,126.453168 C150.604093,127.03195 150.896907,127.796167 150.896907,128.728961 C150.896907,129.682359 150.604093,130.462497 150.015508,131.051581 C149.428895,131.641601 148.681579,131.939421 147.791307,131.939421 C146.924697,131.939421 146.186254,131.633172 145.596683,131.03566 C145.008098,130.438147 144.71134,129.663628 144.71134,128.739263 C144.71134,127.821454 145.002182,127.0563 145.583866,126.467216 Z M142.237113,128.78321 C142.237113,127.101731 142.730545,125.712513 143.707772,124.639912 C144.681143,123.579976 145.880028,123.039292 147.275516,123.039292 C147.917362,123.039292 148.523551,123.160093 149.085408,123.404619 C149.648229,123.653042 150.176355,124.025188 150.656295,124.510343 L150.764233,124.63017 L150.764233,123.320837 L153.371134,123.320837 L153.371134,134.20077 L150.764233,134.20077 L150.764233,132.945018 L150.659186,133.053155 C150.129132,133.555845 149.598115,133.926044 149.073843,134.144266 C148.546681,134.37223 147.967477,134.482315 147.356469,134.482315 C145.975438,134.482315 144.766916,133.928966 143.75114,132.842726 C142.747893,131.758435 142.237113,130.391624 142.237113,128.78321 Z M155.845361,134.482315 L155.845361,119.224951 L158.319588,119.224951 L158.319588,134.482315 L155.845361,134.482315 Z M165.123711,134.482315 L165.123711,118.589227 L167.817192,118.589227 L167.817192,131.775846 L171.927835,131.775846 L171.927835,134.482315 L165.123711,134.482315 Z M180.418812,120.56431 C180.491021,119.958524 180.746225,119.471284 181.169587,119.119667 C181.598883,118.767045 182.220078,118.589227 183.010419,118.589227 C183.569296,118.589227 184.216209,118.722842 184.917526,118.978015 L184.917526,121.010361 C184.547579,120.90789 184.230057,120.844599 183.985734,120.844599 C183.644473,120.844599 183.38828,120.922959 183.217154,121.077671 C183.095487,121.194207 183.035148,121.422256 183.035148,121.772868 L183.028224,123.262719 L184.798826,123.262719 L184.798826,125.53517 L183.028224,125.53517 L183.028224,134.482315 L180.350559,134.482315 L180.350559,125.53517 L179.350515,125.53517 L179.350515,123.262719 L180.350559,123.262719 L180.350559,123.192396 C180.354516,121.715605 180.382213,120.831539 180.418812,120.56431 Z M193.06627,125.843698 C193.614519,126.183331 193.983588,126.632524 194.170558,127.167677 L194.195876,127.242683 L188.010309,127.242683 L188.05413,127.160935 C188.367693,126.568474 188.716313,126.14625 189.083435,125.902692 C189.676478,125.529348 190.374692,125.335513 191.151783,125.335513 C191.873367,125.335513 192.518996,125.506593 193.06627,125.843698 Z M185.536082,128.82023 C185.536082,127.16408 186.064512,125.769991 187.104294,124.680829 C188.139333,123.590692 189.462779,123.039292 191.022453,123.039292 C192.693125,123.039292 194.06116,123.590692 195.098096,124.680829 C196.143571,125.769991 196.670103,127.234223 196.670103,129.022865 C196.670103,129.022865 196.664411,129.38527 196.65777,129.485613 L188.001771,129.485613 L188.016002,129.561601 C188.139333,130.356553 188.488457,131.002451 189.035861,131.472993 C189.585162,131.948405 190.301436,132.183189 191.15622,132.183189 C192.159003,132.183189 193.029916,131.81981 193.755676,131.106691 C193.825881,131.140789 195.773575,132.078949 195.913035,132.142272 C195.365632,132.925534 194.71387,133.515903 193.955854,133.895843 C193.179812,134.283577 192.246284,134.482315 191.178041,134.482315 C189.514009,134.482315 188.146923,133.93676 187.108089,132.866107 C186.064512,131.793507 185.536082,130.430593 185.536082,128.82023 Z M174.402062,134.482315 L174.402062,123.039292 L176.876289,123.039292 L176.876289,134.482315 L174.402062,134.482315 Z M199.072575,132.487478 L198.873548,132.487478 L198.873548,131.942729 C198.917543,131.930599 198.995059,131.920675 199.105048,131.920675 C199.370069,131.920675 199.490533,132.035359 199.490533,132.20959 C199.490533,132.406978 199.303028,132.487478 199.072575,132.487478 Z M198.444067,133.55492 L198.444067,131.652711 C198.608527,131.630657 198.840027,131.595369 199.137521,131.595369 C199.47901,131.595369 199.634042,131.652711 199.755554,131.745341 C199.865543,131.826943 199.942011,131.965887 199.942011,132.151145 C199.942011,132.383821 199.777552,132.533792 199.568049,132.604367 L199.568049,132.626421 C199.744031,132.684866 199.830975,132.83594 199.887541,133.090671 C199.942011,133.380688 199.986007,133.484345 200.01848,133.55492 L199.578524,133.55492 C199.524054,133.484345 199.490533,133.322244 199.435015,133.090671 C199.403589,132.893282 199.292553,132.79955 199.061053,132.79955 L198.86412,132.79955 L198.86412,133.55492 L198.444067,133.55492 Z M199.159519,134.087538 C199.942011,134.099668 200.535952,133.415976 200.535952,132.580107 C200.535952,131.734313 199.942011,131.050621 199.137521,131.050621 C198.356076,131.050621 197.750613,131.734313 197.750613,132.56908 C197.750613,133.415976 198.356076,134.087538 199.159519,134.087538 Z M199.149044,134.482315 C198.1141,134.482315 197.28866,133.635419 197.28866,132.56908 C197.28866,131.50274 198.1141,130.667974 199.159519,130.667974 C200.185035,130.667974 201,131.50274 201,132.56908 C201,133.635419 200.185035,134.482315 199.149044,134.482315 Z M139.001131,118.621641 C137.807788,118.621641 136.837103,117.624017 136.837103,116.397554 C136.837103,115.165418 137.807788,114.171576 139.001131,114.171576 C140.197236,114.171576 141.167,115.165418 141.167,116.397554 C141.167,117.624017 140.197236,118.621641 139.001131,118.621641 Z M149.208237,113.219422 C149.208237,114.7931 148.374968,116.078747 147.353921,116.078747 C146.329263,116.078747 145.496897,114.7931 145.496897,113.219422 C145.496897,111.641929 146.329263,110.357235 147.353921,110.357235 C148.374968,110.357235 149.208237,111.641929 149.208237,113.219422 Z M168.693215,110.357235 C167.83985,110.357235 167.146381,108.932222 167.146381,107.18291 C167.146381,105.427874 167.870769,104 168.725901,104 C169.576615,104 170.239165,105.427874 170.239165,107.18291 C170.239165,108.932222 169.544812,110.357235 168.693215,110.357235 Z M155.082512,112.264406 C154.228775,112.264406 153.538134,110.693531 153.538134,108.764473 C153.538134,106.838375 154.228775,105.271447 155.082512,105.271447 C155.937256,105.271447 156.630917,106.838375 156.630917,108.764473 C156.630917,110.693531 155.937256,112.264406 155.082512,112.264406 Z M175.808653,117.985917 C174.786919,117.985917 173.950505,116.84324 173.950505,115.443508 C173.950505,114.037957 174.786919,112.900129 175.808653,112.900129 C176.831377,112.900129 177.661845,114.037957 177.661845,115.443508 C177.661845,116.84324 176.831377,117.985917 175.808653,117.985917 Z M161.889172,115.443023 C161.055656,115.443023 160.342258,113.403683 160.342258,110.993461 C160.342258,108.579219 161.055656,106.542894 161.889172,106.542894 C162.729999,106.542894 163.435041,108.579219 163.435041,110.993461 C163.435041,113.403683 162.729999,115.443023 161.889172,115.443023 Z" id="footer-logo"></path>
            </g>
        </g>
    </g>
</svg>