<?xml version="1.0" encoding="UTF-8"?>
<svg width="271px" height="38px" viewBox="0 0 271 38" version="1.1" xmlns="http://www.w3.org/2000/svg" xmlns:xlink="http://www.w3.org/1999/xlink">
    <!-- Generator: Sketch 43.2 (39069) - http://www.bohemiancoding.com/sketch -->
    <title>header-logo-horizontal</title>
    <desc>Created with Sketch.</desc>
    <defs></defs>
    <g id="Pages" stroke="none" stroke-width="1" fill="none" fill-rule="evenodd">
        <g id="Print" transform="translate(-80.000000, -80.000000)" fill="#FEFEFE">
            <g id="Header" transform="translate(0.000000, -1.000000)">
                <path d="M293.252,118.369 L293.252,107.911 L294.562,107.911 L294.562,118.369 L293.252,118.369 Z M328.9512,109.7007 L328.9512,118.3687 L327.6422,118.3687 L327.6422,107.9107 L328.9512,107.9107 L328.9512,108.8977 C329.2302,108.4907 329.5652,108.1847 329.9552,107.9807 C330.3462,107.7777 330.7502,107.6757 331.1692,107.6757 C331.6862,107.6757 332.1412,107.8917 332.5352,108.3257 C332.9282,108.7597 333.1242,109.3687 333.1242,110.1547 L333.1242,118.3687 L331.7972,118.3687 L331.7972,110.1287 C331.7972,109.6107 331.6952,109.2337 331.4912,108.9977 C331.2882,108.7627 331.0202,108.6447 330.6882,108.6447 C330.4152,108.6447 330.1232,108.7397 329.8112,108.9287 C329.5002,109.1177 329.2142,109.3747 328.9512,109.7007 Z M348.3984,117.6616 C348.8584,117.6616 349.2034,117.5216 349.4334,117.2426 C349.6634,116.9626 349.7784,116.5846 349.7784,116.1076 C349.7784,115.4386 349.1814,114.5796 347.9884,113.5326 L347.2294,112.8696 C346.6534,112.3626 346.2174,111.9106 345.9234,111.5116 C345.6294,111.1136 345.4834,110.6666 345.4834,110.1716 C345.4834,109.3866 345.7214,108.7766 346.1994,108.3436 C346.6764,107.9096 347.3134,107.6926 348.1104,107.6926 C348.4894,107.6926 348.8324,107.7656 349.1404,107.9116 C349.4494,108.0566 349.7084,108.2586 349.9184,108.5176 C350.1274,108.7766 350.3024,109.0566 350.4454,109.3556 C350.5884,109.6556 350.7034,109.9856 350.7914,110.3466 L349.6294,110.7046 C349.5774,110.3786 349.4944,110.0706 349.3804,109.7796 C349.2674,109.4886 349.0924,109.2246 348.8574,108.9896 C348.6214,108.7536 348.3524,108.6356 348.0494,108.6356 C347.6604,108.6356 347.3494,108.7676 347.1204,109.0326 C346.8904,109.2976 346.7754,109.6396 346.7754,110.0586 C346.7754,110.4076 346.8874,110.7396 347.1114,111.0536 C347.3354,111.3676 347.6604,111.7056 348.0854,112.0666 L348.9144,112.7816 C349.1814,113.0146 349.3864,113.1966 349.5294,113.3276 C349.6714,113.4586 349.8524,113.6446 350.0704,113.8866 C350.2894,114.1276 350.4534,114.3456 350.5634,114.5406 C350.6734,114.7356 350.7744,114.9706 350.8654,115.2436 C350.9554,115.5166 351.0024,115.7966 351.0084,116.0816 C351.0084,116.8616 350.7624,117.4766 350.2714,117.9276 C349.7794,118.3786 349.1374,118.6036 348.3464,118.6036 C347.5784,118.6036 346.9364,118.3346 346.4214,117.7966 C345.9074,117.2586 345.5474,116.5766 345.3434,115.7496 L346.3474,115.4096 C346.4284,115.6656 346.5294,115.9126 346.6484,116.1516 C346.7674,116.3906 346.9124,116.6286 347.0814,116.8676 C347.2504,117.1056 347.4494,117.2976 347.6784,117.4436 C347.9084,117.5886 348.1484,117.6616 348.3984,117.6616 Z M316.967,118.368 L316.967,103.346 L318.276,103.346 L318.276,118.368 L316.967,118.368 Z M322.458,105.519 L322.458,103.957 L323.767,103.957 L323.767,105.519 L322.458,105.519 Z M322.458,118.369 L322.458,107.911 L323.767,107.911 L323.767,118.369 L322.458,118.369 Z M310.5341,107.6757 C311.4721,107.6757 312.1451,108.0077 312.5561,108.6707 C312.9661,109.3337 313.1711,110.3817 313.1711,111.8127 C313.1711,112.2497 313.1651,112.6077 313.1531,112.8867 L308.9641,112.8867 L308.9641,114.4837 C308.9641,115.1707 308.9971,115.7337 309.0631,116.1737 C309.1311,116.6127 309.2371,116.9427 309.3831,117.1637 C309.5271,117.3857 309.6871,117.5327 309.8621,117.6087 C310.0371,117.6847 310.2581,117.7227 310.5261,117.7227 C310.9161,117.7227 311.2431,117.5267 311.5081,117.1337 C311.7721,116.7407 311.9081,116.0847 311.9141,115.1647 L313.1361,115.1647 C313.1001,115.5607 313.0551,115.9127 312.9961,116.2207 C312.9371,116.5297 312.8471,116.8377 312.7211,117.1467 C312.5961,117.4547 312.4411,117.7107 312.2591,117.9147 C312.0751,118.1177 311.8381,118.2837 311.5471,118.4117 C311.2561,118.5397 310.9221,118.6037 310.5431,118.6037 C309.8051,118.6037 309.2291,118.4567 308.8191,118.1637 C308.4091,117.8697 308.1071,117.3577 307.9161,116.6267 C307.7241,115.8967 307.6341,114.8707 307.6451,113.5507 L307.6451,112.0927 C307.6511,111.3647 307.7031,110.7347 307.8031,110.2027 C307.9011,109.6697 308.0311,109.2437 308.1901,108.9237 C308.3501,108.6037 308.5571,108.3487 308.8101,108.1597 C309.0631,107.9707 309.3241,107.8427 309.5921,107.7757 C309.8591,107.7087 310.1741,107.6757 310.5341,107.6757 Z M311.8701,112.2407 C311.8641,112.0077 311.8641,111.7727 311.8701,111.5337 C311.8761,111.2947 311.8731,111.0547 311.8611,110.8137 C311.8491,110.5727 311.8341,110.3407 311.8131,110.1197 C311.7931,109.8987 311.7541,109.6937 311.6951,109.5047 C311.6381,109.3147 311.5641,109.1507 311.4771,109.0117 C311.3901,108.8717 311.2701,108.7607 311.1191,108.6787 C310.9681,108.5977 310.7941,108.5567 310.5961,108.5567 C310.2751,108.5567 310.0131,108.6157 309.8061,108.7317 C309.5991,108.8477 309.4391,108.9847 309.3251,109.1417 C309.2121,109.2997 309.1291,109.5637 309.0771,109.9367 C309.0241,110.3087 308.9941,110.6367 308.9851,110.9187 C308.9761,111.2007 308.9721,111.6417 308.9721,112.2407 L311.8701,112.2407 Z M337.9727,118.1635 C337.5627,117.8695 337.2607,117.3575 337.0697,116.6265 C336.8767,115.8975 336.7867,114.8715 336.7987,113.5505 L336.7987,112.0925 C336.8047,111.3645 336.8567,110.7345 336.9557,110.2025 C337.0547,109.6695 337.1837,109.2435 337.3437,108.9235 C337.5037,108.6035 337.7107,108.3495 337.9637,108.1605 C338.2167,107.9705 338.4777,107.8425 338.7447,107.7755 C339.0127,107.7095 339.3267,107.6755 339.6877,107.6755 C340.6247,107.6755 341.2977,108.0075 341.7077,108.6705 C342.1187,109.3345 342.3247,110.3815 342.3247,111.8135 C342.3247,112.2495 342.3187,112.6075 342.3067,112.8865 L338.1167,112.8865 L338.1167,114.4835 C338.1167,115.1705 338.1507,115.7335 338.2167,116.1735 C338.2847,116.6125 338.3897,116.9425 338.5347,117.1645 C338.6807,117.3855 338.8407,117.5335 339.0157,117.6085 C339.1907,117.6845 339.4107,117.7225 339.6787,117.7225 C340.0697,117.7225 340.3967,117.5265 340.6607,117.1335 C340.9257,116.7405 341.0617,116.0845 341.0667,115.1655 L342.2887,115.1655 C342.2537,115.5605 342.2067,115.9125 342.1497,116.2215 C342.0907,116.5295 341.9987,116.8375 341.8737,117.1465 C341.7487,117.4555 341.5947,117.7105 341.4117,117.9145 C341.2287,118.1185 340.9917,118.2845 340.7007,118.4125 C340.4097,118.5405 340.0747,118.6045 339.6967,118.6045 C338.9567,118.6045 338.3827,118.4575 337.9727,118.1635 Z M338.1387,110.9185 C338.1297,111.2005 338.1247,111.6415 338.1247,112.2405 L341.0237,112.2405 C341.0177,112.0075 341.0177,111.7725 341.0237,111.5335 C341.0297,111.2945 341.0267,111.0555 341.0147,110.8135 C341.0027,110.5725 340.9877,110.3405 340.9667,110.1195 C340.9467,109.8985 340.9077,109.6935 340.8487,109.5045 C340.7897,109.3145 340.7177,109.1505 340.6307,109.0115 C340.5427,108.8715 340.4237,108.7605 340.2727,108.6795 C340.1207,108.5985 339.9467,108.5575 339.7487,108.5575 C339.4287,108.5575 339.1647,108.6155 338.9587,108.7315 C338.7517,108.8485 338.5927,108.9845 338.4787,109.1425 C338.3657,109.2995 338.2827,109.5645 338.2307,109.9365 C338.1777,110.3085 338.1477,110.6365 338.1387,110.9185 Z M284.2529,88.2187 L284.2529,96.0227 L282.9429,96.0227 L282.9429,85.5657 L284.2529,85.5657 L284.2529,87.0407 C284.4159,86.4987 284.7099,86.0937 285.1349,85.8227 C285.5599,85.5517 285.9989,85.4107 286.4519,85.3997 L286.4519,86.7177 L286.2519,86.6827 C284.9189,86.6827 284.2529,87.1947 284.2529,88.2187 Z M277.5572,95.7782 C277.1382,95.9412 276.6442,96.0222 276.0742,96.0222 L272.5832,96.0222 L272.5832,81.0002 L275.8122,81.0002 C276.3302,81.0002 276.7902,81.0732 277.1912,81.2182 C277.5932,81.3642 277.9192,81.5552 278.1692,81.7942 C278.4192,82.0332 278.6242,82.3212 278.7842,82.6592 C278.9442,82.9962 279.0552,83.3392 279.1162,83.6882 C279.1782,84.0372 279.2082,84.4132 279.2082,84.8142 C279.2082,85.4372 279.0632,86.0452 278.7752,86.6392 C278.4872,87.2322 278.0912,87.6452 277.5842,87.8782 C277.9392,88.0242 278.2482,88.2382 278.5102,88.5202 C278.7712,88.8022 278.9722,89.1182 279.1122,89.4672 C279.2522,89.8162 279.3532,90.1642 279.4172,90.5102 C279.4812,90.8562 279.5132,91.2012 279.5132,91.5442 C279.5132,92.0682 279.4882,92.5312 279.4392,92.9322 C279.3892,93.3342 279.2912,93.7372 279.1422,94.1412 C278.9942,94.5462 278.7982,94.8792 278.5532,95.1402 C278.3082,95.4032 277.9772,95.6152 277.5572,95.7782 Z M273.9092,88.4722 L273.9092,95.0102 L276.2832,95.0102 C276.5862,95.0102 276.8512,94.9472 277.0782,94.8222 C277.3052,94.6972 277.4882,94.5332 277.6282,94.3292 C277.7672,94.1252 277.8802,93.8692 277.9642,93.5612 C278.0492,93.2522 278.1062,92.9382 278.1382,92.6182 C278.1712,92.2982 278.1862,91.9402 278.1862,91.5442 C278.1862,91.1892 278.1722,90.8722 278.1422,90.5932 C278.1142,90.3142 278.0562,90.0372 277.9722,89.7642 C277.8882,89.4902 277.7772,89.2622 277.6402,89.0782 C277.5042,88.8952 277.3212,88.7482 277.0912,88.6382 C276.8612,88.5272 276.5922,88.4722 276.2832,88.4722 L273.9092,88.4722 Z M273.9092,82.0132 L273.9092,87.4512 L276.0392,87.4512 C276.3652,87.4512 276.6442,87.3792 276.8772,87.2372 C277.1102,87.0942 277.2902,86.8962 277.4192,86.6432 C277.5472,86.3902 277.6392,86.1152 277.6982,85.8182 C277.7562,85.5212 277.7852,85.1962 277.7852,84.8412 C277.7852,82.9552 277.0692,82.0132 275.6382,82.0132 L273.9092,82.0132 Z M272.3604,115.2871 C272.3344,115.0431 272.3184,114.8451 272.3124,114.6941 C272.3064,114.5421 272.3034,114.3681 272.3034,114.1701 L272.3034,107.7981 C272.3034,104.6901 273.6214,103.1371 276.2574,103.1371 C276.6764,103.1371 277.0564,103.1831 277.3964,103.2761 C277.7374,103.3691 278.0254,103.4961 278.2604,103.6561 C278.4964,103.8161 278.7034,104.0211 278.8814,104.2711 C279.0574,104.5211 279.1994,104.7801 279.3034,105.0481 C279.4084,105.3161 279.4934,105.6281 279.5564,105.9861 C279.6214,106.3441 279.6654,106.6901 279.6874,107.0251 C279.7114,107.3601 279.7224,107.7341 279.7224,108.1471 L279.7224,108.2511 L278.3964,108.2511 L278.3964,108.0251 C278.3964,107.6001 278.3914,107.2781 278.3824,107.0601 C278.3744,106.8421 278.3524,106.5541 278.3174,106.1961 C278.2824,105.8381 278.2184,105.5641 278.1254,105.3751 C278.0324,105.1861 277.9104,104.9881 277.7584,104.7821 C277.6074,104.5751 277.4044,104.4271 277.1474,104.3371 C276.8914,104.2461 276.5894,104.2021 276.2404,104.2021 C275.7514,104.2021 275.3324,104.2841 274.9834,104.4501 C274.6334,104.6161 274.3634,104.8471 274.1714,105.1441 C273.9794,105.4411 273.8404,105.7611 273.7564,106.1041 C273.6724,106.4481 273.6304,106.8261 273.6304,107.2391 L273.6304,114.7461 C273.6304,115.1301 273.6654,115.4741 273.7354,115.7801 C273.8044,116.0861 273.9254,116.3781 274.0964,116.6581 C274.2684,116.9371 274.5264,117.1541 274.8694,117.3081 C275.2134,117.4621 275.6344,117.5391 276.1354,117.5391 C276.5944,117.5391 276.9874,117.4581 277.3134,117.2951 C277.6394,117.1321 277.8834,116.9091 278.0474,116.6271 C278.2104,116.3451 278.3254,116.0521 278.3914,115.7501 C278.4594,115.4471 278.4924,115.1131 278.4924,114.7461 L278.4924,112.2061 L276.6504,112.2061 L276.6504,111.2021 L279.8194,111.2021 L279.8194,118.3691 L279.2344,118.3691 L278.8404,116.9021 C278.6434,117.4201 278.2934,117.8331 277.7894,118.1411 C277.2864,118.4501 276.7284,118.6041 276.1184,118.6041 C275.7154,118.6041 275.3484,118.5681 275.0134,118.4951 C274.6784,118.4221 274.3894,118.3281 274.1454,118.2111 C273.9004,118.0951 273.6804,117.9451 273.4864,117.7621 C273.2914,117.5791 273.1314,117.3961 273.0064,117.2161 C272.8814,117.0361 272.7714,116.8261 272.6784,116.5881 C272.5864,116.3491 272.5154,116.1341 272.4684,115.9421 C272.4224,115.7501 272.3864,115.5321 272.3604,115.2871 Z M285.1689,117.2817 C285.3729,117.5177 285.6409,117.6357 285.9729,117.6357 C286.2459,117.6357 286.5379,117.5407 286.8499,117.3517 C287.1609,117.1627 287.4469,116.9047 287.7099,116.5787 L287.7099,107.9107 L289.0189,107.9107 L289.0189,118.3687 L287.7099,118.3687 L287.7099,117.3827 C287.4309,117.7897 287.0959,118.0947 286.7059,118.2987 C286.3149,118.5027 285.9109,118.6037 285.4919,118.6037 C284.9749,118.6037 284.5199,118.3867 284.1259,117.9537 C283.7329,117.5207 283.5369,116.9107 283.5369,116.1247 L283.5369,107.9107 L284.8639,107.9107 L284.8639,116.1517 C284.8639,116.6697 284.9659,117.0457 285.1689,117.2817 Z M299.2314,87.3545 L299.2314,96.0225 L297.9214,96.0225 L297.9214,85.5655 L299.2314,85.5655 L299.2314,86.5515 C299.5104,86.1445 299.8444,85.8385 300.2344,85.6355 C300.6254,85.4315 301.0294,85.3295 301.4484,85.3295 C301.9654,85.3295 302.4204,85.5465 302.8144,85.9795 C303.2074,86.4135 303.4034,87.0225 303.4034,87.8085 L303.4034,96.0225 L302.0764,96.0225 L302.0764,87.7825 C302.0764,87.2645 301.9744,86.8875 301.7714,86.6515 C301.5674,86.4165 301.2994,86.2985 300.9674,86.2985 C300.6944,86.2985 300.4024,86.3935 300.0904,86.5825 C299.7794,86.7715 299.4934,87.0285 299.2314,87.3545 Z M293.252,105.52 L293.252,103.958 L294.562,103.958 L294.562,105.52 L293.252,105.52 Z M215.0575,118.565 C213.0175,118.565 211.3415,117.893 210.0685,116.574 C208.7895,115.252 208.1415,113.572 208.1415,111.587 C208.1415,109.547 208.7895,107.829 210.0635,106.486 C211.3315,105.143 212.9555,104.463 214.8665,104.463 C216.9145,104.463 218.5915,105.143 219.8625,106.486 C221.1435,107.829 221.7895,109.633 221.7895,111.837 C221.7895,111.837 221.7825,112.284 221.7745,112.408 L211.1645,112.408 L211.1815,112.501 C211.3315,113.481 211.7605,114.277 212.4315,114.857 C213.1045,115.443 213.9825,115.732 215.0305,115.732 C216.2595,115.732 217.3275,115.284 218.2165,114.405 C218.3025,114.447 220.6905,115.604 220.8615,115.682 C220.1905,116.647 219.3915,117.375 218.4615,117.843 C217.5105,118.32 216.3665,118.565 215.0575,118.565 Z M211.2275,109.543 L211.1735,109.644 L218.7565,109.644 L218.7255,109.551 C218.4965,108.892 218.0435,108.338 217.3725,107.919 C216.7015,107.504 215.9095,107.293 215.0255,107.293 C214.0725,107.293 213.2165,107.532 212.4895,107.992 C212.0395,108.293 211.6125,108.813 211.2275,109.543 Z M113.363,118.566 L113.363,99.763 L116.396,99.763 L116.396,118.566 L113.363,118.566 Z M187.4951,88.8345 C186.4491,88.8345 185.5991,87.0785 185.5991,84.9225 C185.5991,82.7595 186.4871,81.0005 187.5351,81.0005 C188.5781,81.0005 189.3911,82.7595 189.3911,84.9225 C189.3911,87.0785 188.5391,88.8345 187.4951,88.8345 Z M196.2178,98.2358 C194.9648,98.2358 193.9398,96.8278 193.9398,95.1028 C193.9398,93.3708 194.9648,91.9678 196.2178,91.9678 C197.4708,91.9678 198.4888,93.3708 198.4888,95.1028 C198.4888,96.8278 197.4708,98.2358 196.2178,98.2358 Z M201.7852,118.5654 L201.7852,107.5394 L200.5582,107.5394 L200.5582,104.7384 L201.7852,104.7384 L201.7852,104.6514 C201.7902,102.8324 201.8232,101.7424 201.8682,101.4134 C201.9572,100.6674 202.2692,100.0664 202.7892,99.6324 C203.3152,99.1984 204.0762,98.9794 205.0452,98.9794 C205.7302,98.9794 206.5232,99.1444 207.3832,99.4584 L207.3832,101.9624 C206.9302,101.8364 206.5402,101.7584 206.2412,101.7584 C205.8222,101.7584 205.5092,101.8554 205.2992,102.0454 C205.1492,102.1894 205.0752,102.4704 205.0752,102.9024 L205.0672,104.7384 L207.2372,104.7384 L207.2372,107.5394 L205.0672,107.5394 L205.0672,118.5654 L201.7852,118.5654 Z M194.493,118.565 L194.493,104.463 L197.526,104.463 L197.526,118.565 L194.493,118.565 Z M148.999,118.565 L148.999,104.463 L152.032,104.463 L152.032,118.565 L148.999,118.565 Z M224.8285,118.5654 C223.5595,118.5654 222.5475,117.5214 222.5475,116.2074 C222.5475,114.8934 223.5595,113.8644 224.8405,113.8644 C226.0975,113.8644 227.0965,114.8934 227.0965,116.2074 C227.0965,117.5214 226.0975,118.5654 224.8285,118.5654 Z M224.8145,114.3364 C223.8565,114.3364 223.1145,115.1784 223.1145,116.2074 C223.1145,117.2514 223.8565,118.0794 224.8405,118.0794 C225.7995,118.0934 226.5285,117.2514 226.5285,116.2214 C226.5285,115.1784 225.7995,114.3364 224.8145,114.3364 Z M224.4782,116.4915 L224.4782,117.4225 L223.9642,117.4225 L223.9642,115.0785 C224.1662,115.0515 224.4492,115.0075 224.8142,115.0075 C225.2322,115.0075 225.4232,115.0785 225.5712,115.1925 C225.7062,115.2925 225.8002,115.4645 225.8002,115.6925 C225.8002,115.9795 225.5982,116.1645 225.3422,116.2505 L225.3422,116.2785 C225.5572,116.3505 225.6642,116.5365 225.7332,116.8505 C225.8002,117.2075 225.8542,117.3355 225.8932,117.4225 L225.3542,117.4225 C225.2882,117.3355 225.2472,117.1355 225.1782,116.8505 C225.1402,116.6065 225.0042,116.4915 224.7202,116.4915 L224.4782,116.4915 Z M224.4902,115.4355 L224.4902,116.1065 L224.7342,116.1065 C225.0162,116.1065 225.2472,116.0075 225.2472,115.7645 C225.2472,115.5495 225.0982,115.4085 224.7742,115.4085 C224.6392,115.4085 224.5442,115.4205 224.4902,115.4355 Z M191.46,115.23 L191.46,118.565 L183.12,118.565 L183.12,98.98 L186.421,98.98 L186.421,115.23 L191.46,115.23 Z M137.7061,113.0645 L137.7061,118.5655 L134.5931,118.5655 L134.5931,104.8195 L137.7061,104.8195 L137.7061,106.3375 L137.8291,106.2235 C138.5621,105.5645 139.2301,105.0985 139.8181,104.8505 C140.4091,104.5925 141.0191,104.4635 141.6371,104.4635 C142.8971,104.4635 143.9781,104.9335 144.8591,105.8825 C145.5951,106.6735 145.9671,107.8815 145.9671,109.4525 L145.9671,118.5655 L142.9021,118.5655 L142.9021,112.5575 C142.9021,110.8705 142.8331,109.7875 142.6911,109.2275 C142.5481,108.6695 142.2901,108.2355 141.9381,107.9355 C141.5771,107.6425 141.1311,107.4965 140.6091,107.4965 C139.9311,107.4965 139.3411,107.7395 138.8541,108.2225 C138.3751,108.7025 138.0371,109.3765 137.8511,110.2205 C137.7531,110.6695 137.7061,111.5955 137.7061,113.0645 Z M179.1543,95.1021 C178.1333,95.1021 177.2583,92.5891 177.2583,89.6191 C177.2583,86.6431 178.1333,84.1341 179.1543,84.1341 C180.1853,84.1341 181.0503,86.6431 181.0503,89.6191 C181.0503,92.5891 180.1853,95.1021 179.1543,95.1021 Z M104.9555,118.5652 C103.0995,118.5652 101.4955,117.8652 100.1785,116.5102 C98.8635,115.1482 98.1985,113.4702 98.1985,111.5252 C98.1985,109.4382 98.9515,107.6772 100.4365,106.2762 C101.7355,105.0752 103.2525,104.4632 104.9455,104.4632 C106.1685,104.4632 107.3325,104.7782 108.4105,105.4082 C109.4905,106.0362 110.3375,106.9042 110.9415,107.9862 C111.5455,109.0672 111.8455,110.2512 111.8455,111.5012 C111.8455,112.7582 111.5405,113.9492 110.9365,115.0512 C110.3295,116.1442 109.4905,117.0112 108.4405,117.6282 C107.3915,118.2492 106.2205,118.5652 104.9555,118.5652 Z M102.3105,108.6982 C101.5965,109.4262 101.2305,110.3672 101.2305,111.4982 C101.2305,112.6622 101.5935,113.6122 102.2975,114.3422 C103.0085,115.0642 103.9185,115.4312 105.0045,115.4312 C106.0915,115.4312 107.0075,115.0642 107.7235,114.3292 C108.4505,113.5942 108.8135,112.6422 108.8135,111.4982 C108.8135,110.3492 108.4565,109.4022 107.7475,108.6842 C107.0395,107.9622 106.1175,107.5972 105.0185,107.5972 C103.9405,107.5972 103.0305,107.9662 102.3105,108.6982 Z M125.4292,118.5652 C123.5692,118.5652 121.9652,117.8652 120.6492,116.5102 C119.3372,115.1482 118.6702,113.4702 118.6702,111.5252 C118.6702,109.4382 119.4212,107.6772 120.9082,106.2762 C122.2092,105.0752 123.7272,104.4632 125.4172,104.4632 C126.6382,104.4632 127.8032,104.7782 128.8812,105.4082 C129.9552,106.0362 130.8042,106.9042 131.4092,107.9862 C132.0122,109.0672 132.3182,110.2512 132.3182,111.5012 C132.3182,112.7582 132.0102,113.9492 131.4032,115.0512 C130.7962,116.1442 129.9552,117.0112 128.9112,117.6282 C127.8612,118.2492 126.6912,118.5652 125.4292,118.5652 Z M122.7832,108.6982 C122.0652,109.4262 121.7032,110.3672 121.7032,111.4982 C121.7032,112.6622 122.0602,113.6122 122.7722,114.3422 C123.4792,115.0642 124.3892,115.4312 125.4752,115.4312 C126.5602,115.4312 127.4782,115.0642 128.1982,114.3292 C128.9212,113.5942 129.2852,112.6422 129.2852,111.4982 C129.2852,110.3492 128.9242,109.4022 128.2182,108.6842 C127.5082,107.9622 126.5922,107.5972 125.4872,107.5972 C124.4112,107.5972 123.5022,107.9662 122.7832,108.6982 Z M161.341,118.565 C159.647,118.565 158.166,117.883 156.921,116.545 C155.691,115.209 155.065,113.524 155.065,111.542 C155.065,109.47 155.67,107.758 156.868,106.436 C158.062,105.13 159.53,104.463 161.241,104.463 C162.028,104.463 162.772,104.612 163.46,104.914 C164.149,105.22 164.797,105.678 165.386,106.276 L165.518,106.424 L165.518,104.811 L168.713,104.811 L168.713,118.218 L165.518,118.218 L165.518,116.671 L165.389,116.804 C164.739,117.424 164.088,117.88 163.445,118.149 C162.8,118.43 162.09,118.565 161.341,118.565 Z M159.168,108.688 C158.454,109.414 158.098,110.357 158.098,111.488 C158.098,112.627 158.462,113.582 159.184,114.318 C159.906,115.054 160.812,115.432 161.873,115.432 C162.965,115.432 163.881,115.064 164.6,114.337 C165.321,113.611 165.681,112.65 165.681,111.475 C165.681,110.326 165.321,109.384 164.6,108.67 C163.881,107.947 162.958,107.597 161.859,107.597 C160.783,107.597 159.877,107.958 159.168,108.688 Z M151.0986,99.019 C149.6356,99.019 148.4456,97.79 148.4456,96.278 C148.4456,94.76 149.6356,93.535 151.0986,93.535 C152.5646,93.535 153.7526,94.76 153.7526,96.278 C153.7526,97.79 152.5646,99.019 151.0986,99.019 Z M171.746,118.565 L171.746,99.762 L174.779,99.762 L174.779,118.565 L171.746,118.565 Z M170.8115,91.1846 C169.7645,91.1846 168.9175,89.2486 168.9175,86.8716 C168.9175,84.4976 169.7645,82.5666 170.8115,82.5666 C171.8585,82.5666 172.7085,84.4976 172.7085,86.8716 C172.7085,89.2486 171.8585,91.1846 170.8115,91.1846 Z M161.3369,95.8853 C160.0809,95.8853 159.0609,94.3013 159.0609,92.3623 C159.0609,90.4173 160.0809,88.8343 161.3369,88.8343 C162.5889,88.8343 163.6099,90.4173 163.6099,92.3623 C163.6099,94.3013 162.5889,95.8853 161.3369,95.8853 Z M89.5732,118.5654 C86.7792,118.5654 84.4582,117.6304 82.6812,115.8044 C80.8982,113.9724 80.0002,111.6014 80.0002,108.7364 C80.0002,106.8844 80.4082,105.2194 81.2172,103.7814 C82.0292,102.3504 83.2072,101.1724 84.7152,100.2924 C86.2302,99.4194 87.8822,98.9794 89.6222,98.9794 C91.1042,98.9794 92.5522,99.3054 93.9262,99.9524 C95.2782,100.5904 96.4522,101.5084 97.4392,102.6754 L95.1292,104.9474 C93.4872,103.1784 91.6182,102.2744 89.5682,102.2744 C87.8192,102.2744 86.3202,102.9074 85.1172,104.1404 C83.9162,105.3814 83.3062,106.9324 83.3062,108.7464 C83.3062,110.0074 83.5732,111.1504 84.1072,112.1284 C84.6422,113.1184 85.4062,113.8944 86.3772,114.4524 C87.3442,115.0064 88.4422,115.2934 89.6322,115.2934 C90.6442,115.2934 91.5822,115.0934 92.4222,114.7074 C93.2422,114.3194 94.1542,113.6124 95.1272,112.6244 C95.2252,112.7284 97.2612,114.9274 97.3722,115.0334 C96.0622,116.3444 94.8062,117.2664 93.6392,117.7764 C92.4542,118.2954 91.0842,118.5654 89.5732,118.5654 Z M249.273,119 L249.273,81 L250.358,81 L250.358,119 L249.273,119 Z M302.5918,108.8971 L302.5918,103.3461 L303.9018,103.3461 L303.9018,118.3691 L302.5918,118.3691 L302.5918,117.3821 C302.0688,118.1971 301.3638,118.6041 300.4798,118.6041 C300.3218,118.6041 300.1798,118.5911 300.0518,118.5651 C299.9238,118.5381 299.7808,118.4831 299.6238,118.3991 C299.4668,118.3141 299.3268,118.2011 299.2048,118.0581 C299.0828,117.9161 298.9598,117.7181 298.8378,117.4651 C298.7158,117.2121 298.6148,116.9151 298.5368,116.5751 C298.4578,116.2341 298.3948,115.8111 298.3448,115.3051 C298.2958,114.7981 298.2708,114.2311 298.2708,113.6021 L298.2708,112.7731 C298.2708,111.8711 298.3188,111.0961 298.4148,110.4471 C298.5108,109.7981 298.6288,109.2991 298.7688,108.9501 C298.9078,108.6011 299.0888,108.3261 299.3098,108.1251 C299.5298,107.9241 299.7348,107.7991 299.9208,107.7501 C300.1068,107.7001 300.3248,107.6761 300.5748,107.6761 C300.9418,107.6761 301.3008,107.7791 301.6538,107.9851 C302.0048,108.1921 302.3188,108.4961 302.5918,108.8971 Z M302.5918,116.5791 L302.5918,109.6831 C301.9688,108.9911 301.3838,108.6441 300.8368,108.6441 C300.7088,108.6441 300.6028,108.6561 300.5188,108.6791 C300.4348,108.7031 300.3378,108.7551 300.2308,108.8361 C300.1228,108.9181 300.0348,109.0501 299.9688,109.2341 C299.9018,109.4171 299.8348,109.6561 299.7678,109.9491 C299.7008,110.2431 299.6538,110.6291 299.6238,111.1061 C299.5948,111.5831 299.5798,112.1421 299.5798,112.7821 L299.5798,113.6111 C299.5798,114.1581 299.5928,114.6441 299.6188,115.0691 C299.6458,115.4941 299.6788,115.8461 299.7198,116.1251 C299.7608,116.4041 299.8158,116.6411 299.8858,116.8361 C299.9548,117.0321 300.0228,117.1811 300.0858,117.2861 C300.1508,117.3911 300.2338,117.4691 300.3348,117.5221 C300.4368,117.5741 300.5248,117.6061 300.5968,117.6181 C300.6698,117.6291 300.7648,117.6351 300.8808,117.6351 C301.1428,117.6351 301.4278,117.5371 301.7368,117.3431 C302.0448,117.1481 302.3298,116.8931 302.5918,116.5791 Z M290.7898,96.2581 C290.2488,96.2581 289.7698,96.0441 289.3508,95.6171 C288.9318,95.1891 288.7218,94.6291 288.7218,93.9361 C288.7218,93.7501 288.7248,93.6001 288.7308,93.4871 C288.7368,93.3731 288.7518,93.2261 288.7788,93.0461 C288.8048,92.8661 288.8428,92.7141 288.8918,92.5921 C288.9418,92.4701 289.0138,92.3201 289.1108,92.1431 C289.2058,91.9651 289.3238,91.8081 289.4638,91.6711 C289.6038,91.5341 289.7788,91.3771 289.9878,91.2001 C290.1968,91.0221 290.4388,90.8531 290.7118,90.6931 C290.9858,90.5331 291.3068,90.3621 291.6768,90.1781 C292.0458,89.9951 292.4548,89.8101 292.9038,89.6241 L292.9038,89.5371 C292.9038,88.9431 292.8768,88.4351 292.8238,88.0141 C292.7718,87.5921 292.7078,87.2661 292.6318,87.0361 C292.5568,86.8061 292.4588,86.6271 292.3398,86.4991 C292.2208,86.3711 292.1088,86.2911 292.0038,86.2591 C291.8998,86.2271 291.7708,86.2111 291.6198,86.2111 C291.4628,86.2111 291.3228,86.2331 291.1998,86.2771 C291.0778,86.3201 290.9468,86.4051 290.8078,86.5301 C290.6678,86.6551 290.5518,86.8581 290.4588,87.1411 C290.3648,87.4231 290.3078,87.7761 290.2838,88.2011 L290.2838,88.2631 L288.9228,88.2631 C288.9918,87.3491 289.2618,86.6321 289.7298,86.1111 C290.1978,85.5901 290.8138,85.3301 291.5758,85.3301 C292.0008,85.3301 292.3758,85.3981 292.7018,85.5351 C293.0288,85.6711 293.2848,85.8461 293.4748,86.0591 C293.6638,86.2711 293.8168,86.5251 293.9328,86.8221 C294.0488,87.1191 294.1278,87.4071 294.1688,87.6861 C294.2088,87.9661 294.2298,88.2651 294.2298,88.5851 L294.2298,93.6131 C294.2298,93.9801 294.2428,94.3641 294.2688,94.7661 C294.2948,95.1671 294.3228,95.4761 294.3518,95.6911 L294.3868,96.0221 L293.1648,96.0221 L292.9988,94.7571 C292.7198,95.2461 292.3748,95.6181 291.9648,95.8741 C291.5548,96.1301 291.1628,96.2581 290.7898,96.2581 Z M290.1748,92.8931 C290.0848,93.1461 290.0398,93.4131 290.0398,93.6921 C290.0398,94.1921 290.1448,94.5631 290.3538,94.8051 C290.5638,95.0461 290.8108,95.1671 291.0958,95.1671 C291.4278,95.1671 291.7638,95.0481 292.1048,94.8091 C292.4448,94.5701 292.7108,94.2651 292.9038,93.8931 L292.9038,90.2091 C292.4788,90.5061 292.1438,90.7441 291.8998,90.9251 C291.6538,91.1051 291.3978,91.3161 291.1268,91.5581 C290.8558,91.7991 290.6528,92.0191 290.5158,92.2171 C290.3788,92.4141 290.2658,92.6401 290.1748,92.8931 Z M307.2832,94.228 C307.2042,93.888 307.1402,93.465 307.0912,92.958 C307.0422,92.452 307.0162,91.885 307.0162,91.256 L307.0162,90.427 C307.0162,89.525 307.0642,88.75 307.1612,88.101 C307.2572,87.452 307.3752,86.953 307.5142,86.604 C307.6542,86.255 307.8342,85.98 308.0552,85.779 C308.2762,85.578 308.4802,85.453 308.6672,85.404 C308.8522,85.354 309.0712,85.33 309.3212,85.33 C309.6872,85.33 310.0472,85.433 310.3992,85.64 C310.7512,85.846 311.0642,86.15 311.3382,86.552 L311.3382,81 L312.6472,81 L312.6472,96.022 L311.3382,96.022 L311.3382,95.036 C310.8132,95.851 310.1092,96.258 309.2252,96.258 C309.0682,96.258 308.9262,96.245 308.7982,96.219 C308.6702,96.193 308.5272,96.137 308.3702,96.053 C308.2132,95.969 308.0732,95.855 307.9512,95.712 C307.8282,95.57 307.7062,95.372 307.5842,95.119 C307.4622,94.866 307.3612,94.569 307.2832,94.228 Z M308.3262,90.436 L308.3262,91.265 C308.3262,91.812 308.3392,92.298 308.3652,92.723 C308.3912,93.148 308.4252,93.5 308.4662,93.779 C308.5072,94.059 308.5612,94.295 308.6322,94.491 C308.7012,94.686 308.7682,94.835 308.8322,94.94 C308.8962,95.045 308.9792,95.123 309.0812,95.176 C309.1822,95.228 309.2702,95.26 309.3432,95.272 C309.4162,95.283 309.5112,95.289 309.6272,95.289 C309.8882,95.289 310.1742,95.192 310.4822,94.997 C310.7912,94.802 311.0762,94.547 311.3382,94.233 L311.3382,87.337 C310.7152,86.644 310.1302,86.298 309.5832,86.298 C309.4552,86.298 309.3482,86.31 309.2642,86.333 C309.1802,86.356 309.0842,86.409 308.9762,86.491 C308.8692,86.572 308.7812,86.705 308.7152,86.888 C308.6472,87.071 308.5812,87.31 308.5132,87.603 C308.4472,87.897 308.3982,88.283 308.3702,88.76 C308.3412,89.237 308.3262,89.796 308.3262,90.436 Z" id="header-logo-horizontal"></path>
            </g>
        </g>
    </g>
</svg>