<?xml version="1.0" encoding="UTF-8"?>
<svg width="170px" height="81px" viewBox="0 0 170 81" version="1.1" xmlns="http://www.w3.org/2000/svg" xmlns:xlink="http://www.w3.org/1999/xlink">
    <!-- Generator: Sketch 43.2 (39069) - http://www.bohemiancoding.com/sketch -->
    <title>Improper-logo-02</title>
    <desc>Created with Sketch.</desc>
    <defs>
        <rect id="path-1" x="-1.84741111e-13" y="0" width="170" height="80.6569343" rx="4"></rect>
        <polygon id="path-2" points="22.7864479 23.4024843 0.000277936364 23.4024843 0.000277936364 0.733340248 22.7864479 0.733340248 22.7864479 23.4024843"></polygon>
        <polygon id="path-4" points="34.730928 0.763090176 34.730928 26.6328696 0.675352754 26.6328696 0.675352754 0.763090176 34.730928 0.763090176"></polygon>
        <polygon id="path-6" points="0.802623545 0.241513638 10.7778722 0.241513638 10.7778722 10.1803151 0.802623545 10.1803151 0.802623545 0.241513638"></polygon>
    </defs>
    <g id="Pages" stroke="none" stroke-width="1" fill="none" fill-rule="evenodd">
        <g id="Web" transform="translate(-578.000000, -1920.000000)">
            <g id="Logo" transform="translate(370.000000, 566.000000)">
                <g id="Improper-Logo-Usage" transform="translate(8.000000, 1307.000000)">
                    <g id="Improper-logo-02" transform="translate(200.000000, 47.000000)">
                        <g id="Rectangle-7">
                            <use fill="#FFFFFF" fill-rule="evenodd" xlink:href="#path-1"></use>
                            <rect stroke="#DEE5EB" stroke-width="1" x="0.5" y="0.5" width="169" height="79.6569343" rx="4"></rect>
                        </g>
                        <g id="Page-1" transform="translate(34.744526, 13.649635)">
                            <path d="M58.7954922,40.707779 C66.7917213,38.5425811 67.2012143,32.8033559 66.2469661,29.1975011 L63.4314707,18.580262 L57.535514,20.1772475 L60.2426142,30.3900917 C60.9847043,33.1899649 59.7525197,34.8346915 57.4058103,35.4693669 C55.0563216,36.1059145 53.1756189,35.3046134 52.4335288,32.502868 L49.7236493,22.291896 L43.828619,23.8879454 L46.6441143,34.5051845 C47.6002154,38.1110393 50.7927778,42.8729768 58.7954922,40.707779" id="Fill-1" fill="#015294"></path>
                            <g id="Group-5" transform="translate(0.000000, 29.714041)">
                                <mask id="mask-3" fill="white">
                                    <use xlink:href="#path-2"></use>
                                </mask>
                                <g id="Clip-4"></g>
                                <path d="M14.9680776,22.858985 C22.9661597,20.6928511 23.3747261,14.9545619 22.4195515,11.3496432 L19.6040561,0.733340248 L13.7090258,2.32845358 L16.4151996,12.5403616 C17.1591426,15.341171 15.9260316,16.9858976 13.5783958,17.621509 C11.228907,18.2571205 9.34635139,17.4567555 8.60333484,14.6559462 L5.89530821,4.44403816 L0.000277936364,6.04008759 L2.8157733,16.6573267 C3.77187439,20.2622454 6.96906903,25.0241829 14.9680776,22.858985" id="Fill-3" fill="#00538F" mask="url(#mask-3)"></path>
                            </g>
                            <path d="M31.5206703,26.4294552 C23.5216618,28.5946531 23.1093895,34.3348144 24.0645642,37.938797 L26.8800595,48.5541639 L32.7769427,46.9571784 L30.0689161,36.7433981 C29.3286789,33.9519498 30.559937,32.3034788 32.9103522,31.6669312 C35.257988,31.0313198 37.1396172,31.8373013 37.8798543,34.6287496 L40.5888074,44.8425299 L46.4847642,43.2464805 L43.6701953,32.6311136 C42.7140942,29.0261949 39.5196789,24.2642574 31.5206703,26.4294552" id="Fill-6" fill="#015294"></path>
                            <g id="Group-10" transform="translate(66.704727, 10.055954)">
                                <mask id="mask-5" fill="white">
                                    <use xlink:href="#path-4"></use>
                                </mask>
                                <g id="Clip-9"></g>
                                <path d="M15.0032828,6.01060046 C14.6577153,5.73725944 12.4453418,3.47845166 7.62221948,4.78431028 C2.70923103,6.11450749 -0.502786882,9.63798553 1.08422975,15.624341 L4.00348803,26.6328696 L9.76696175,25.072392 L6.84399766,14.0545024 C6.33352121,12.1242655 6.91718757,10.3812484 9.30002866,9.73627596 C11.6837962,9.0922396 13.0512431,10.3054244 13.5617196,12.2356613 L16.4846837,23.2526148 L22.2481574,21.6921371 L19.3279727,10.6751836 C18.8147168,8.74494673 19.3993097,7.0028658 21.7812243,6.35789333 C24.1649918,5.71198476 25.5315123,6.92610565 26.0447681,8.85634255 L28.9658793,19.8742322 L34.7312059,18.3128184 L31.8119477,7.30522589 C30.224931,1.31980651 25.6964212,-0.108681137 20.7815798,1.22151607 C15.9640162,2.5264386 15.1635595,5.59965284 15.0032828,6.01060046" id="Fill-8" fill="#00538F" mask="url(#mask-5)"></path>
                            </g>
                            <path d="M24.7749695,20.5857613 C25.4920453,23.2938968 28.1889545,24.7944641 30.8914224,24.0624344 C33.5679496,23.3378935 35.1206874,20.68686 34.4026851,17.9787245 C33.6856093,15.2752696 31.0294641,13.7644052 28.3520105,14.4889461 C25.6495426,15.2209758 24.0578937,17.8813702 24.7749695,20.5857613" id="Fill-11" fill="#5E88A1"></path>
                            <path d="M52.8056856,18.1299046 C55.4831392,17.4044276 57.0340241,14.7543303 56.3160219,12.0471309 C55.5980196,9.34273979 52.9437273,7.8309393 50.2662737,8.55548022 C47.5647322,9.28750992 45.9712304,11.9488404 46.6873798,14.6532315 C47.405382,17.361367 50.1041441,18.8609982 52.8056856,18.1299046 Z" id="Fill-13" fill="#5E88A1"></path>
                            <g id="Group-17" transform="translate(73.189909, 0.694960)">
                                <mask id="mask-7" fill="white">
                                    <use xlink:href="#path-6"></use>
                                </mask>
                                <g id="Clip-16"></g>
                                <path d="M0.974444891,6.51890242 C1.69152071,9.22610181 4.38935634,10.7276052 7.09275071,9.99557549 C9.76835143,9.27103458 11.3201628,6.62000115 10.603087,3.91186567 C9.88508471,1.20841068 7.22986598,-0.303389807 4.55148589,0.422087207 C1.84901798,1.15318082 0.257369073,3.81544743 0.974444891,6.51890242" id="Fill-15" fill="#5E88A1" mask="url(#mask-7)"></path>
                            </g>
                        </g>
                        <g id="Page-1" transform="translate(4.963504, 3.722628)">
                            <path d="M11.170365,22.3370073 C5.02058394,22.3370073 0,17.3524088 0,11.1678832 C0,5.01810219 5.02058394,0 11.170365,0 C17.3548905,0 22.3382482,5.01810219 22.3382482,11.1678832 C22.3382482,17.3524088 17.3548905,22.3370073 11.170365,22.3370073 L11.170365,22.3370073 Z" id="Path" fill="#FFFFFF"></path>
                            <path d="M6.79490636,17.3722628 L11.1678832,12.9992859 L15.5408601,17.3722628 L17.3722628,15.5408601 L12.9992859,11.1678832 L17.3722628,6.79490636 L15.5408601,4.96350365 L11.1678832,9.3364805 L6.79490636,4.96350365 L4.96350365,6.79490636 L9.3364805,11.1678832 L4.96350365,15.5408601 L6.79490636,17.3722628 Z M0,11.1678832 C0,5.01810219 5.02058394,0 11.170365,0 C17.3548905,0 22.3382482,5.01810219 22.3382482,11.1678832 C22.3382482,17.3524088 17.3548905,22.3370073 11.170365,22.3370073 C5.02058394,22.3370073 0,17.3524088 0,11.1678832 Z" id="Fill-1" fill="#E85656"></path>
                        </g>
                    </g>
                </g>
            </g>
        </g>
    </g>
</svg>