<?xml version="1.0" encoding="UTF-8"?>
<svg width="170px" height="82px" viewBox="0 0 170 82" version="1.1" xmlns="http://www.w3.org/2000/svg" xmlns:xlink="http://www.w3.org/1999/xlink">
    <!-- Generator: Sketch 43.2 (39069) - http://www.bohemiancoding.com/sketch -->
    <title>Improper-logo-05</title>
    <desc>Created with Sketch.</desc>
    <defs>
        <rect id="path-1" x="1.84741111e-13" y="0" width="170" height="80.6569343" rx="4"></rect>
    </defs>
    <g id="Pages" stroke="none" stroke-width="1" fill="none" fill-rule="evenodd">
        <g id="Web" transform="translate(-378.000000, -2030.000000)">
            <g id="Logo" transform="translate(370.000000, 566.000000)">
                <g id="Improper-Logo-Usage" transform="translate(8.000000, 1307.000000)">
                    <g id="Improper-logo-05" transform="translate(0.000000, 157.656934)">
                        <g id="Group-11">
                            <mask id="mask-2" fill="white">
                                <use xlink:href="#path-1"></use>
                            </mask>
                            <use id="Mask" fill="#FFFFFF" xlink:href="#path-1"></use>
                            <g mask="url(#mask-2)" id="Page-1">
                                <g transform="translate(-1.240876, -7.445255)">
                                    <g>
                                        <polygon id="Fill-1" fill="#E6EAEE" points="0.0284505982 100.83163 170.73204 100.83163 170.73204 1.20572489 0.0284505982 1.20572489"></polygon>
                                        <g id="Group-204" transform="translate(1.778162, 1.000000)">
                                            <path d="M17.7355695,94.3158379 C21.0785148,92.760293 20.8206812,90.2405233 20.1254197,88.7489049 L18.0734203,84.3628364 L15.6106654,85.5117377 L17.5790912,89.730887 C18.1214307,90.8851155 17.7017844,91.6948512 16.7255733,92.1512155 C15.7440276,92.6111311 14.8549464,92.4086972 14.3161632,91.2473657 L12.3441811,87.0282165 L9.87964805,88.1806693 L11.9245348,92.564962 C12.6215745,94.0565804 14.3890679,95.8749343 17.7355695,94.3158379" id="Fill-2" fill="#015294"></path>
                                            <path d="M25.9023137,81.859581 C25.7262756,81.7672428 24.5864735,80.9592828 22.5700374,81.8968715 C20.5144817,82.8575448 19.3746796,84.633281 20.528707,87.1051058 L22.653611,91.654542 L25.0647992,90.530501 L22.9345607,85.9792891 C22.5664811,85.1819835 22.685618,84.3793507 23.6849452,83.9176593 C24.6807162,83.4506407 25.3724213,83.8750417 25.7476136,84.6705715 L27.8689613,89.2235591 L30.2837058,88.1012939 L28.16058,83.5483062 C27.7836095,82.7510006 27.9080809,81.9501436 28.9020737,81.4866764 C29.8960664,81.0214336 30.5931061,81.4440588 30.9629639,82.2413643 L33.0860898,86.7925763 L35.4990561,85.6720867 L33.3759302,81.1208748 C32.2201247,78.64905 30.1272276,78.3809138 28.0716718,79.3362599 C26.0570138,80.2738486 25.9396551,81.671353 25.9023137,81.859581" id="Fill-4" fill="#015294"></path>
                                            <path d="M1.26854105,88.2168943 C1.78954263,89.3373838 3.08582301,89.7813179 4.21851245,89.2574757 C5.3369766,88.7354093 5.81530228,87.4622064 5.29074438,86.3434926 C4.77152096,85.2247788 3.49124404,84.7772932 2.36922357,85.2958082 C1.23653413,85.8232019 0.743983144,87.1017319 1.26854105,88.2168943" id="Fill-6" fill="#5E88A1"></path>
                                            <path d="M10.4267886,83.9526413 C10.9513465,85.0695794 12.2458487,85.5135135 13.3749819,84.9878955 C14.4952242,84.4693806 14.975328,83.1961777 14.4525483,82.0792396 C13.9315467,80.9605258 12.6512698,80.5130403 11.5310275,81.033331 C10.398338,81.5571732 9.90400888,82.8357032 10.4267886,83.9526413" id="Fill-8" fill="#5E88A1"></path>
                                            <path d="M21.9119395,78.6046566 C22.4382756,79.7233704 23.7309996,80.1673044 24.8619109,79.638135 C25.9839314,79.1178443 26.4658134,77.8499687 25.9376991,76.7277034 C25.4184757,75.6107653 24.1346425,75.1632798 23.0144002,75.6817947 C21.8852671,76.2074127 21.3909379,77.4877185 21.9119395,78.6046566" id="Fill-10" fill="#5E88A1"></path>
                                            <path d="M32.3220134,78.6653867 L32.700762,78.6955743 L32.8501276,78.3954748 C32.7203218,78.111357 32.1993202,78.5943573 32.0143913,78.2001438 C31.9219269,78.0012614 32.0606235,77.8165848 32.2313271,77.7384524 C32.3949181,77.6620958 32.5567308,77.6656472 32.6829804,77.7633127 L32.6011849,77.88939 L32.284672,77.8609782 L32.1406408,78.1273387 C32.2722248,78.4061292 32.7843356,77.9018202 32.9817116,78.3244454 C33.0812887,78.535758 32.9514829,78.723986 32.755885,78.8181001 C32.5780688,78.8997839 32.3895836,78.9086626 32.2384398,78.8003427 L32.3220134,78.6653867 Z" id="Fill-12" fill="#015294"></path>
                                            <path d="M33.0514156,77.7462657 L32.90205,77.4585964 L33.0389685,77.3964456 L33.1349892,77.5704678 L33.1403237,77.568692 C33.1421019,77.4284089 33.2274537,77.2721441 33.3963791,77.192236 L33.8124691,77.2739198 C33.8035783,77.091019 33.9138244,76.9560631 34.0560774,76.8868093 C34.3832592,76.7376475 34.5592973,76.9223241 34.6606526,77.1496183 L34.9487149,77.764023 L34.8117964,77.8279495 L34.5326249,77.2170963 C34.4490512,77.0484013 34.3281362,76.9063424 34.118313,77.0075594 C33.865814,77.1229823 33.8995991,77.3644824 33.9707256,77.5100928 L34.2427844,78.0925342 L34.1076441,78.1529093 L33.8178036,77.5349531 C33.7306736,77.3431735 33.5990896,77.2490595 33.4550585,77.3183132 C33.252348,77.4106515 33.1598835,77.6219641 33.2950239,77.9078577 L33.5332976,78.4228212 L33.3981573,78.4867477 L33.0514156,77.7462657 Z" id="Fill-14" fill="#015294"></path>
                                            <path d="M70.0889378,86.1082075 C69.9164561,86.0140935 68.7748758,85.2061335 66.7566615,86.145498 C64.7046621,87.1026198 63.56486,88.8801318 64.7171093,91.3537323 L66.8437915,95.9013928 L69.2532015,94.7773517 L67.1265193,90.2261398 C66.7548834,89.4270585 66.8757984,88.6279772 67.8733475,88.1627343 C68.8673403,87.6992672 69.5608236,88.1218924 69.9360159,88.919198 L72.0591418,93.4704099 L74.47033,92.3499203 L72.3489822,87.7933812 C71.97379,86.9978514 72.094705,86.1987701 73.090476,85.7353029 C74.0880251,85.2682843 74.7815084,85.6926853 75.1513662,86.4899908 L77.2762702,91.039427 L79.6856803,89.9189375 L77.5643325,85.371277 C76.4103051,82.8959007 74.3120735,82.6295403 72.2618523,83.5848864 C70.243638,84.5224751 70.1280574,85.9182038 70.0889378,86.1082075" id="Fill-18" fill="#015294"></path>
                                            <path d="M54.6151909,88.1994921 C55.1397488,89.3199816 56.4360292,89.7639157 57.5669405,89.236522 C58.6871828,88.7144556 59.1637303,87.4430284 58.6409506,86.3243146 C58.119949,85.2073765 56.8414502,84.7581153 55.7176516,85.278406 C54.5885185,85.8040239 54.0977457,87.0843297 54.6151909,88.1994921" id="Fill-22" fill="#5E88A1"></path>
                                            <path d="M66.100164,82.8497316 C66.6247219,83.9702211 67.9227804,84.4123794 69.0501354,83.8867615 C70.1721558,83.3664708 70.6522597,82.0950437 70.1277018,80.9763299 C69.604922,79.8593918 68.3246451,79.4101305 67.206181,79.9286455 C66.0752697,80.4542634 65.5827187,81.7345692 66.100164,82.8497316" id="Fill-24" fill="#5E88A1"></path>
                                            <path d="M76.5121938,82.9122375 L76.8891643,82.9442007 L77.0420862,82.6423256 C76.9087241,82.3582078 76.3877225,82.8429838 76.2027936,82.4469946 C76.108551,82.2481121 76.2490258,82.0634356 76.4179512,81.9870789 C76.5868767,81.9089465 76.7469113,81.912498 76.874939,82.0101635 L76.787809,82.1362408 L76.4748524,82.107829 L76.3325994,82.3741894 C76.4624053,82.65298 76.9745161,82.1504466 77.1718921,82.5730719 C77.2714692,82.780833 77.1416633,82.969061 76.9442873,83.0613993 C76.7682492,83.1448589 76.579764,83.1555133 76.4303984,83.0471934 L76.5121938,82.9122375 Z" id="Fill-26" fill="#015294"></path>
                                            <path d="M77.2415961,81.9913407 L77.0940086,81.7054471 L77.2291489,81.6432964 L77.3216134,81.8190943 L77.328726,81.8137671 C77.3269479,81.6752596 77.415856,81.5189948 77.5865596,81.4390867 L78.0026496,81.5207706 C77.9955369,81.3378697 78.1022267,81.2011381 78.248036,81.1336601 C78.5716615,80.9827225 78.7476996,81.1691748 78.8526112,81.396469 L79.1388953,82.0126495 L79.0001987,82.0748003 L78.719249,81.463947 C78.6374535,81.2934763 78.5165385,81.1531932 78.3067153,81.2561859 C78.0577726,81.369833 78.0915577,81.6131089 78.1591279,81.7587192 L78.4294085,82.339385 L78.2978245,82.39976 L78.0062059,81.7835795 C77.9172978,81.5882486 77.7857137,81.4959103 77.6399044,81.565164 C77.4389721,81.6575023 77.3482858,81.8688149 77.481648,82.1547084 L77.7216999,82.6714476 L77.5865596,82.7318227 L77.2415961,81.9913407 Z" id="Fill-28" fill="#015294"></path>
                                            <path d="M1.07223192,43.936248 L1.45098051,43.9664356 L1.60034615,43.6681119 C1.46876213,43.3804426 0.947760554,43.8652186 0.762831665,43.4710052 C0.668589059,43.270347 0.807285725,43.0874461 0.977989314,43.0110895 C1.14513658,42.9311813 1.30517119,42.9347328 1.43142072,43.0323983 L1.34606893,43.1602513 L1.03489051,43.1318395 L0.89263752,43.3982 C1.02422154,43.6769906 1.53455414,43.1726815 1.73015201,43.5953067 C1.83150726,43.8066193 1.70170141,43.9948473 1.50610354,44.0871856 C1.32650914,44.1688695 1.13624577,44.1777482 0.990436451,44.071204 L1.07223192,43.936248 Z" id="Fill-30" fill="#015294"></path>
                                            <path d="M1.80163413,43.0135755 L1.65404666,42.7294577 L1.78563067,42.6673069 L1.88165144,42.8413291 L1.88520777,42.8377776 C1.88698593,42.6992702 1.97589405,42.5412297 2.14659764,42.4630973 L2.56268764,42.5447811 C2.55557499,42.3618803 2.66404289,42.2251486 2.80629588,42.1576707 C3.12992144,42.0085088 3.30595952,42.1931854 3.4108711,42.4187039 L3.6989334,43.0348843 L3.5620149,43.0970351 L3.27573075,42.4897333 C3.2028261,42.3192626 3.07835473,42.175428 2.86675341,42.2784207 C2.61603251,42.3920678 2.64803943,42.6353437 2.71916593,42.7809541 L2.98766845,43.3651713 L2.85430627,43.4219948 L2.5644658,42.8075901 C2.47733584,42.6122591 2.34752999,42.5199208 2.20349883,42.5891746 C1.99901016,42.6797371 1.9118802,42.8928254 2.04346422,43.178719 L2.28351614,43.6936825 L2.14659764,43.7558332 L1.80163413,43.0135755 Z" id="Fill-32" fill="#015294"></path>
                                            <path d="M30.6690336,63.8333724 C34.0155353,62.2778275 33.7559235,59.7580578 33.0606621,58.2664393 L31.0139971,53.8821466 L28.5459077,55.0310479 L30.5161117,59.2466457 C31.0584512,60.40265 30.6388049,61.21061 29.6643719,61.6687499 C28.6792699,62.1286656 27.7919669,61.924456 27.2531837,60.7649002 L25.2829798,56.5475267 L22.8166685,57.696428 L24.8615553,62.0842722 C25.5603731,63.5723392 27.3260883,65.3906931 30.6690336,63.8333724" id="Fill-34" fill="#015294"></path>
                                            <path d="M12.3507603,72.3670279 C15.6919275,70.8079315 15.4340939,68.2899376 14.7370543,66.7983192 L12.6886112,62.4158022 L10.2311908,63.561152 L12.1978384,67.7785255 C12.7383997,68.9345298 12.3223097,69.7424898 11.3407641,70.2006298 C10.3592185,70.6587697 9.47191542,70.4563358 8.92779773,69.2985558 L6.96292829,65.0794065 L4.49306073,66.2283078 L6.54328196,70.6126006 C7.23854346,72.1059947 9.00781503,73.9207971 12.3507603,72.3670279" id="Fill-36" fill="#015294"></path>
                                            <path d="M17.6105647,59.7495342 C14.2693975,61.3050792 14.5272311,63.8266246 15.2207144,65.3164673 L17.2709357,69.70076 L19.7336906,68.5536344 L17.7634866,64.3327094 C17.2247034,63.1820323 17.6407934,62.3722966 18.6258954,61.9141567 C19.6021066,61.4560167 20.4911877,61.6602264 21.0317491,62.8144549 L23.001953,67.0353799 L25.4682643,65.8847029 L23.4198212,61.5004101 C22.7227815,60.0087917 20.9552881,58.1922136 17.6105647,59.7495342" id="Fill-38" fill="#015294"></path>
                                            <path d="M38.8391564,51.3772931 C38.6648965,51.2849548 37.521538,50.4769948 35.5068801,51.4163593 C33.4548807,52.3752569 32.3133004,54.1509931 33.4655496,56.6228179 L35.5904537,61.1687026 L38.00342,60.0482131 L35.8749597,55.4970011 C35.5033237,54.6979198 35.6277951,53.8988385 36.623566,53.4353714 C37.6175588,52.9683528 38.3128203,53.3892022 38.6862344,54.1882835 L40.8075821,58.7412712 L43.2187703,57.6190059 L41.0938663,53.0660182 C40.7204522,52.2687127 40.8449235,51.4643042 41.8406945,51.0043885 C42.8364654,50.5391456 43.5299488,50.9617708 43.9015847,51.7573007 L46.0282669,56.3102883 L48.437677,55.188023 L46.3145511,50.6403626 C45.1587455,48.166762 43.0605139,47.9004016 41.0085145,48.8557477 C38.9974128,49.7933364 38.8800541,51.1890651 38.8391564,51.3772931" id="Fill-40" fill="#015294"></path>
                                            <path d="M14.206984,57.7362045 C14.7262075,58.8549183 16.024266,59.2988524 17.1551773,58.7750102 C18.2754196,58.2529437 18.7537453,56.9779651 18.2274092,55.8610271 C17.709964,54.7423132 16.4261307,54.2948277 15.3094447,54.8133427 C14.1749771,55.3407363 13.680648,56.6192664 14.206984,57.7362045" id="Fill-42" fill="#5E88A1"></path>
                                            <path d="M23.3636313,53.4703534 C23.8917455,54.5908429 25.1844696,55.0312255 26.3136027,54.5073833 C27.4356231,53.9853169 27.9121707,52.7156655 27.3893909,51.5951759 C26.8666112,50.4764621 25.5881124,50.0289766 24.4696483,50.5492673 C23.338737,51.0748852 22.8444079,52.3534153 23.3636313,53.4703534" id="Fill-44" fill="#5E88A1"></path>
                                            <path d="M34.8521607,48.1205929 C35.3731622,49.2393067 36.6694426,49.681465 37.8021321,49.1558471 C38.918818,48.6355564 39.3989219,47.365905 38.874364,46.2471912 C38.3533624,45.1302531 37.0713073,44.6809918 35.9563995,45.2012825 C34.8237101,45.7269005 34.3293809,47.0036548 34.8521607,48.1205929" id="Fill-46" fill="#5E88A1"></path>
                                            <path d="M45.258856,48.1830988 L45.6376046,48.215062 L45.7887484,47.9131869 C45.6589426,47.6290691 45.137941,48.1120693 44.9547903,47.7178559 C44.8587695,47.5189734 44.9939099,47.3342969 45.1681698,47.2561645 C45.3370952,47.1780321 45.4953516,47.1815836 45.619823,47.2810248 L45.5344712,47.4071021 L45.2232928,47.3786903 L45.0792616,47.643275 C45.2108457,47.9238413 45.7247346,47.421308 45.9203325,47.8421574 C46.0181314,48.0516943 45.8883255,48.2399224 45.696284,48.3340364 C45.5166896,48.4157202 45.3264262,48.4263747 45.1770606,48.3180547 L45.258856,48.1830988 Z" id="Fill-48" fill="#015294"></path>
                                            <path d="M45.9900364,47.262202 L45.8406708,46.9780842 L45.9758111,46.9141577 L46.0682756,47.0881798 L46.0753882,47.0864041 C46.0789445,46.9461209 46.1642963,46.7898562 46.3314436,46.7117238 L46.7493118,46.7916319 C46.7439773,46.6087311 46.8524452,46.4702236 46.9946982,46.4045214 C47.3165456,46.2553596 47.49614,46.4400361 47.5974952,46.6655546 L47.8837794,47.2817351 L47.7504172,47.3456616 L47.4694675,46.7365841 C47.3894502,46.5643377 47.266757,46.4240545 47.0569339,46.5252715 C46.8044348,46.6406943 46.8382199,46.8839702 46.9093464,47.0278048 L47.1778489,47.6102463 L47.0427086,47.6723971 L46.7564244,47.0526651 C46.66396,46.8591099 46.5377104,46.7667716 46.3919011,46.8360253 C46.1891906,46.9283636 46.0967262,47.1379005 46.2318665,47.4255697 L46.4701403,47.9405332 L46.3332218,48.002684 L45.9900364,47.262202 Z" id="Fill-50" fill="#015294"></path>
                                            <path d="M74.8625926,68.0819989 C78.2037597,66.5229025 77.9459262,64.0031328 77.2506647,62.5132901 L75.2022216,58.1289974 L72.7376885,59.2743472 L74.7043361,63.4952722 C75.2466757,64.6512765 74.8323638,65.4574607 73.8508182,65.9156007 C72.8674944,66.3755164 71.9801914,66.1713067 71.4414082,65.0135267 L69.4712042,60.7943774 L67.0031148,61.941503 L69.0533361,66.3328987 C69.7503757,67.8209656 71.516091,69.6357681 74.8625926,68.0819989" id="Fill-52" fill="#015294"></path>
                                            <path d="M56.5409408,76.6138787 C59.8821079,75.0583338 59.6224962,72.5350126 58.930791,71.0451699 L56.8787916,66.6608772 L54.4178149,67.806227 L56.3844625,72.0253763 C56.926802,73.1831563 56.510712,73.9875648 55.5273882,74.4474805 C54.5458426,74.9073962 53.6603177,74.7049622 53.1179782,73.5436308 L51.1495524,69.3262572 L48.6832412,70.4769343 L50.7334624,74.8647785 C51.4251676,76.3528455 53.1944392,78.1694236 56.5409408,76.6138787" id="Fill-54" fill="#015294"></path>
                                            <path d="M61.8007451,63.996385 C58.459578,65.5501542 58.7156334,68.0752511 59.4108949,69.5650938 L61.4575598,73.9493865 L63.923871,72.8004851 L61.9518889,68.5813359 C61.4148839,67.4288831 61.8309739,66.6173716 62.8142977,66.1610074 C63.7940652,65.7010917 64.6778119,65.9088529 65.2183732,67.0630814 L67.1885772,71.2822307 L69.6584447,70.1315536 L67.6082235,65.7472609 C66.912962,64.2556425 65.1472467,62.4390643 61.8007451,63.996385" id="Fill-56" fill="#015294"></path>
                                            <path d="M83.0275587,55.6259196 C82.8550769,55.5318056 81.7117185,54.7238456 79.6952823,55.66321 C77.6397266,56.6221076 76.5017027,58.3978438 77.6557301,60.8678929 L79.7824123,65.4173291 L82.1900442,64.2950638 L80.0651401,59.7438519 C79.6935042,58.9447706 79.8144192,58.1456893 80.8101902,57.6786707 C81.8041829,57.218755 82.5012226,57.6378287 82.8746367,58.43691 L84.9942063,62.9881219 L87.4071726,61.8658567 L85.2858249,57.312869 C84.9106326,56.5173392 85.0333258,55.7147064 86.0255404,55.253015 C87.0248677,54.7877721 87.7165729,55.2103973 88.0917651,56.0059271 L90.2184474,60.5571391 L92.6278574,59.4366495 L90.5047315,54.8872133 C89.3507041,52.4153885 87.2489162,52.1472523 85.1969168,53.1008227 C83.1822588,54.0401871 83.0702346,55.4341401 83.0275587,55.6259196" id="Fill-58" fill="#015294"></path>
                                            <path d="M58.3971645,61.9814571 C58.9163879,63.1019466 60.2126683,63.5458807 61.3435796,63.018487 C62.4638219,62.4981963 62.9439257,61.2303207 62.4193678,60.1098311 C61.8983662,58.9893416 60.6163112,58.541856 59.4942907,59.0621467 C58.3669357,59.5895404 57.8743848,60.8662947 58.3971645,61.9814571" id="Fill-60" fill="#5E88A1"></path>
                                            <path d="M67.5554121,57.7172041 C68.0764137,58.8376937 69.3762504,59.2780763 70.5053835,58.7542341 C71.6220695,58.2303919 72.1021733,56.9607405 71.5793936,55.8402509 C71.0566138,54.7233129 69.7781151,54.2758273 68.6578728,54.796118 C67.5287396,55.321736 67.0308542,56.600266 67.5554121,57.7172041" id="Fill-62" fill="#5E88A1"></path>
                                            <path d="M79.0387848,52.3692194 C79.5633427,53.4879332 80.8596231,53.9318672 81.9905344,53.4044736 C83.1107767,52.8859586 83.5873242,51.6127557 83.0663226,50.4940419 C82.5435429,49.3771038 81.2597096,48.9278426 80.1430236,49.4481333 C79.0138905,49.9737512 78.5195614,51.2522813 79.0387848,52.3692194" id="Fill-64" fill="#5E88A1"></path>
                                            <path d="M89.4490365,52.4299495 L89.8295632,52.4619128 L89.9771507,52.1600376 C89.8455667,51.8759198 89.3245651,52.3606958 89.1431926,51.9664824 C89.0471718,51.7640485 89.1858685,51.5811476 89.3547939,51.504791 C89.5219412,51.4266586 89.6837539,51.43021 89.8117816,51.5278755 L89.7246517,51.6539528 L89.4116951,51.625541 L89.2676639,51.8901257 C89.4010261,52.170692 89.9113587,51.6681587 90.1087347,52.0890082 C90.2083118,52.3003208 90.0802841,52.4885488 89.8846863,52.5808871 C89.7086482,52.662571 89.5166067,52.6714497 89.367241,52.5649055 L89.4490365,52.4299495 Z" id="Fill-66" fill="#015294"></path>
                                            <path d="M90.1766605,51.5108285 L90.0308512,51.2231592 L90.1659916,51.1627842 L90.258456,51.3368063 L90.2673468,51.3314791 C90.2673468,51.1929717 90.3509205,51.0367069 90.5251804,50.9567988 L90.9394922,51.0384826 C90.9341577,50.8555818 91.0408475,50.7188501 91.1848786,50.6513721 C91.506726,50.5022103 91.6863204,50.6833354 91.7894538,50.9141811 L92.075738,51.5285858 L91.9388195,51.5925123 L91.6578698,50.9798833 C91.5778525,50.8129641 91.4551593,50.6709052 91.243558,50.7738979 C90.9928371,50.8857693 91.0284003,51.1290452 91.0995268,51.2728798 L91.3680293,51.8553213 L91.2346672,51.9174721 L90.9430485,51.2995159 C90.8523623,51.1077363 90.7261127,51.0153981 90.5803034,51.082876 C90.3775929,51.1752143 90.2851285,51.3865269 90.422047,51.6724205 L90.6603207,52.187384 L90.5269585,52.2513105 L90.1766605,51.5108285 Z" id="Fill-68" fill="#015294"></path>
                                            <path d="M7.58759673,16.6481544 C7.41333682,16.5540404 6.27353473,15.7478562 4.25354225,16.6854449 C2.20154285,17.6425667 1.06351893,19.4200787 2.21576815,21.8936792 L4.34067221,26.4413397 L6.75008225,25.3190744 L4.62340003,20.7678624 C4.25354225,19.9705569 4.37267913,19.1696998 5.3720064,18.704457 C6.36777733,18.2392141 7.06126067,18.6618393 7.43111844,19.4609206 L9.5560225,24.0103568 L11.9672107,22.8898672 L9.84230664,18.3351038 C9.47067071,17.539574 9.59514207,16.738717 10.5891348,16.2752498 C11.5849058,15.8082312 12.2783891,16.2326321 12.6500251,17.0299377 L14.7784854,21.5793739 L17.1843392,20.4588843 L15.0612133,15.9112239 C13.9071859,13.4358476 11.8125106,13.1694872 9.75873301,14.126609 C7.7405187,15.0606462 7.62493814,16.4581506 7.58759673,16.6481544" id="Fill-70" fill="#015294"></path>
                                            <path d="M3.59882286,13.3914542 C4.1216026,14.5119437 5.41788299,14.9523263 6.54879427,14.4284841 C7.66725841,13.9064177 8.14736225,12.6367663 7.62636067,11.514501 C7.10002461,10.3993387 5.82152585,9.9500774 4.70483987,10.4703681 C3.57392859,10.9977618 3.07782128,12.2727404 3.59882286,13.3914542" id="Fill-72" fill="#5E88A1"></path>
                                            <path d="M14.0108527,13.4521844 L14.3878232,13.4859234 L14.5371888,13.1822725 C14.4073829,12.8981547 13.8846032,13.3829307 13.6996743,12.990493 C13.6036535,12.7862833 13.7441284,12.6051582 13.914832,12.5270258 C14.0837574,12.4506691 14.243792,12.4524449 14.3700415,12.5518861 L14.2846897,12.6797391 L13.9717332,12.6477759 L13.827702,12.915912 C13.9610642,13.1947026 14.4713968,12.693945 14.6687728,13.1130188 C14.7665718,13.3207799 14.6403222,13.5125594 14.4429462,13.6048977 C14.2669081,13.6848058 14.0766447,13.6954602 13.9272791,13.5906918 L14.0108527,13.4521844 Z" id="Fill-74" fill="#015294"></path>
                                            <path d="M14.7366986,12.5312876 L14.5891111,12.245394 L14.7260296,12.1832433 L14.8184941,12.3608169 L14.8256067,12.3572654 C14.8273849,12.2169823 14.9145149,12.0607175 15.0834403,11.9808093 L15.5013085,12.0607175 C15.4924176,11.8778166 15.6008855,11.7428607 15.7449167,11.673607 C16.0685423,11.5262209 16.2445803,11.707346 16.3477137,11.9346402 L16.6375542,12.5508207 L16.5006357,12.6147472 L16.2179079,12.0056696 C16.1378906,11.8387504 16.0151974,11.6949158 15.8053742,11.794357 C15.5546533,11.9133314 15.5884384,12.1530558 15.6577867,12.2986661 L15.9262893,12.8811076 L15.7964834,12.9414826 L15.5048648,12.3217507 C15.4124003,12.1335227 15.2843726,12.0394086 15.1367852,12.1051109 C14.9394091,12.1992249 14.8451665,12.4105375 14.9803069,12.6946553 L15.2168025,13.2096188 L15.0834403,13.2735453 L14.7366986,12.5312876 Z" id="Fill-76" fill="#015294"></path>
                                            <path d="M43.6092548,33.3528602 C46.9522001,31.7937638 46.6908102,29.2739941 45.9973269,27.7823757 L43.9488838,23.3980829 L41.4843507,24.5452085 L43.4563328,28.7661335 C43.995116,29.9203621 43.5808042,30.728322 42.6010367,31.186462 C41.6177129,31.6446019 40.7304099,31.4439437 40.1880704,30.2826123 L38.2232009,26.0652387 L35.7551115,27.2141401 L37.8035546,31.6002085 C38.5005943,33.0900512 40.2627532,34.9084051 43.6092548,33.3528602" id="Fill-78" fill="#015294"></path>
                                            <path d="M25.2893811,41.8829643 C28.6323264,40.3274193 28.3709366,37.8058739 27.6774532,36.3160312 L25.627232,31.9317385 L23.1644771,33.0788641 L25.134681,37.2944619 C25.6734642,38.4522419 25.2591524,39.2602019 24.2776067,39.7183418 C23.2978393,40.1764818 22.4069799,39.9758236 21.8628622,38.8162678 L19.8997709,34.5971186 L17.4334597,35.7477956 L19.4783465,40.1338641 C20.1789424,41.621931 21.9446577,43.4385092 25.2893811,41.8829643" id="Fill-80" fill="#015294"></path>
                                            <path d="M30.5474073,29.269022 C27.204462,30.8227912 27.4658519,33.3443366 28.1611134,34.8359551 L30.2060002,39.2202478 L32.6740895,38.0713465 L30.7003293,33.8521972 C30.1633243,32.6997444 30.5776361,31.8900087 31.5574036,31.4318687 C32.5407274,30.9737288 33.4280304,31.1779385 33.9703699,32.332167 L35.9334612,36.5513163 L38.4068851,35.4041907 L36.3566639,31.0163465 C35.6596242,29.5282795 33.8939089,27.7117014 30.5474073,29.269022" id="Fill-82" fill="#015294"></path>
                                            <path d="M51.775999,20.8950052 C51.6052954,20.8026669 50.4601589,19.9947069 48.4437227,20.9340714 C46.3917233,21.8929689 45.2519212,23.6687051 46.4059486,26.14053 L48.5308527,30.6899661 L50.9384845,29.5659251 L48.8135805,25.0147132 C48.4401664,24.2156319 48.5646377,23.4165506 49.5586305,22.9513077 C50.5544015,22.4860648 51.2478848,22.90869 51.6212989,23.7077713 L53.7444248,28.2572075 L56.1591693,27.1384937 L54.0324871,22.5837303 C53.6572948,21.7864247 53.7817662,20.983792 54.7775371,20.5221006 C55.7715299,20.0568577 56.4650132,20.4794829 56.8419837,21.2750127 L58.9633314,25.8280004 L61.3727414,24.7057351 L59.2513937,20.1580746 C58.0955882,17.6862498 55.9991347,17.4181136 53.9453571,18.3734597 C51.9324773,19.3092727 51.8151186,20.7067771 51.775999,20.8950052" id="Fill-84" fill="#015294"></path>
                                            <path d="M27.1456049,27.2523184 C27.6648283,28.3710322 28.9628868,28.816742 30.0920199,28.2893484 C31.2104841,27.7690576 31.6888098,26.501182 31.1678082,25.3789167 C30.6450284,24.2602029 29.3647515,23.8127173 28.2480655,24.3312323 C27.1171543,24.858626 26.6192688,26.1371561 27.1456049,27.2523184" id="Fill-86" fill="#5E88A1"></path>
                                            <path d="M36.3004739,22.9880654 C36.8250318,24.1067793 38.1213122,24.5489376 39.2540017,24.0233197 C40.3724658,23.5030289 40.8507915,22.2316018 40.3262336,21.112888 C39.8070102,19.9941742 38.5249551,19.5484644 37.4082691,20.0669794 C36.279136,20.5925973 35.7794723,21.8711274 36.3004739,22.9880654" id="Fill-88" fill="#5E88A1"></path>
                                            <path d="M47.7872251,17.6383049 C48.3117831,18.7570188 49.6080634,19.2009528 50.7389747,18.6753349 C51.8574389,18.1532684 52.3375427,16.883617 51.8129848,15.7649032 C51.2937614,14.6479651 50.0099281,14.1987039 48.8932422,14.7189946 C47.7605527,15.2463882 47.2644454,16.5213669 47.7872251,17.6383049" id="Fill-90" fill="#5E88A1"></path>
                                            <path d="M58.2010332,17.6990351 L58.5744473,17.7309984 L58.7273693,17.4326747 C58.5975634,17.1450054 58.0730055,17.6297814 57.8916329,17.2373437 C57.7956122,17.0349098 57.936087,16.8537847 58.1032343,16.7738765 C58.2721597,16.6975199 58.4304161,16.7010714 58.5620002,16.7987368 L58.4695357,16.9265899 L58.1601355,16.8964023 L58.0178825,17.1627628 C58.1494665,17.4415534 58.6615772,16.93902 58.8571751,17.3598695 C58.9585304,17.5694064 58.8287245,17.7594101 58.6295703,17.8499727 C58.4535322,17.9334323 58.265047,17.9405352 58.1174596,17.8357668 L58.2010332,17.6990351 Z" id="Fill-92" fill="#015294"></path>
                                            <path d="M58.9268791,16.7781383 L58.7792916,16.4922448 L58.9108756,16.4318697 L59.0068964,16.6076676 L59.014009,16.6041162 C59.0157872,16.4656087 59.101139,16.3075682 59.2700644,16.2294358 L59.6897107,16.3093439 C59.6825981,16.1246674 59.7875097,15.9914872 59.933319,15.9222335 C60.2569445,15.7712959 60.4347608,15.9577482 60.5396724,16.1832667 L60.8241783,16.7976714 L60.6854817,16.8615979 L60.4080883,16.2525204 C60.3262929,16.0856012 60.2035997,15.9417665 59.9902202,16.0429835 C59.7430556,16.1584064 59.7750625,16.4016822 59.8479672,16.5455169 L60.1146915,17.1279583 L59.9831075,17.1901091 L59.6932671,16.5668257 C59.6043589,16.3785977 59.4745531,16.2862594 59.3287438,16.3519616 C59.1278114,16.4460756 59.035347,16.6573882 59.1651528,16.941506 L59.4087611,17.4582453 L59.2753989,17.520396 L58.9268791,16.7781383 Z" id="Fill-94" fill="#015294"></path>
                                            <path d="M87.7994352,37.5997109 C91.1406024,36.0423903 90.8827688,33.5208448 90.1892855,32.0292264 L88.1390643,27.6449337 L85.6763094,28.793835 L87.642957,33.0129843 C88.1852965,34.1689885 87.7692065,34.9733971 86.789439,35.4333127 C85.8078934,35.8932284 84.9223685,35.6890188 84.380029,34.529463 L82.4116032,30.3120895 L79.9435138,31.4609908 L81.9919569,35.8470593 C82.6872184,37.336902 84.4547118,39.1552559 87.7994352,37.5997109" id="Fill-96" fill="#015294"></path>
                                            <path d="M69.4760053,46.129815 C72.8225069,44.5742701 72.5593389,42.0545004 71.8676337,40.5646577 L69.8174124,36.1785892 L67.3528794,37.3239391 L69.3213051,41.5430883 C69.8618665,42.6990926 69.4493328,43.5070526 68.4677872,43.9651925 C67.4826852,44.4251082 66.5971604,44.2226743 66.056599,43.0631186 L64.0881732,38.845745 L61.6254183,39.9928706 L63.6703051,44.3807148 C64.3655666,45.8705575 66.13306,47.6871357 69.4760053,46.129815" id="Fill-98" fill="#015294"></path>
                                            <path d="M74.7375878,33.514097 C71.3946425,35.0678662 71.6506979,37.5911874 72.3495157,39.0828058 L74.3944024,43.4653228 L76.8624918,42.3181972 L74.8922879,38.0990479 C74.3517265,36.9465951 74.7678165,36.1368594 75.7493622,35.6769437 C76.7291297,35.2188038 77.6182109,35.4247892 78.1569941,36.5807935 L80.127198,40.7999427 L82.5952874,39.6492657 L80.5450661,35.2649729 C79.8480265,33.7751303 78.0840894,31.9567764 74.7375878,33.514097" id="Fill-100" fill="#015294"></path>
                                            <path d="M95.9651126,25.1418559 C95.7908527,25.0495176 94.6528287,24.2415576 92.6328363,25.1809221 C90.5755024,26.1398197 89.4392566,27.9155559 90.593284,30.3873807 L92.7146317,34.9350412 L95.1258199,33.8127759 L93.0009159,29.2597882 C92.6310581,28.4624826 92.7519731,27.6616256 93.7477441,27.1981584 C94.743515,26.7329156 95.4352202,27.1555408 95.8104124,27.9528463 L97.9317602,32.5040583 L100.344727,31.3835687 L98.225157,26.8288053 C97.8481865,26.0332755 97.9708798,25.2306427 98.9648725,24.770727 C99.9624216,24.3037084 100.657683,24.7281094 101.029319,25.5254149 L103.152445,30.0748511 L105.561855,28.9525858 L103.438729,24.4049254 C102.284702,21.9313248 100.18647,21.6649644 98.1344707,22.6185347 C96.1180345,23.5578992 96.0042321,24.9536279 95.9651126,25.1418559" id="Fill-102" fill="#015294"></path>
                                            <path d="M71.332229,31.5007673 C71.8550087,32.6194811 73.1512891,33.0616394 74.2804222,32.5377973 C75.4006645,32.0175065 75.8807684,30.7443037 75.3579886,29.6273656 C74.8352089,28.506876 73.5531538,28.0611662 72.4329115,28.5779055 C71.3020002,29.1052991 70.8076711,30.3838292 71.332229,31.5007673" id="Fill-104" fill="#5E88A1"></path>
                                            <path d="M80.4886984,27.2366919 C81.0150345,28.35363 82.3148712,28.7957883 83.440448,28.2719461 C84.5606903,27.7498797 85.0372378,26.4784526 84.5180144,25.3597387 C83.9952346,24.2428007 82.7149577,23.7953151 81.5964936,24.3138301 C80.4673604,24.839448 79.9730313,26.1197538 80.4886984,27.2366919" id="Fill-106" fill="#5E88A1"></path>
                                            <path d="M91.9774056,21.8851557 C92.5019635,23.007421 93.7946876,23.4495793 94.9255988,22.9221856 C96.0493975,22.4018949 96.5277232,21.1304678 95.9996089,20.011754 C95.48572,18.8930401 94.2001086,18.4437789 93.0816444,18.9622939 C91.9507332,19.4914633 91.456404,20.7699933 91.9774056,21.8851557" id="Fill-108" fill="#5E88A1"></path>
                                            <path d="M102.386768,21.9476616 L102.765517,21.9796248 L102.914882,21.6777497 C102.786855,21.3936319 102.264075,21.8766321 102.079146,21.4841944 C101.984904,21.2835362 102.1236,21.0988597 102.292526,21.022503 C102.461451,20.9443706 102.619708,20.9479221 102.745957,21.0455876 L102.662383,21.1734406 L102.349427,21.1432531 L102.205396,21.4096135 C102.338758,21.6884041 102.84909,21.1876465 103.046466,21.6067202 C103.144265,21.8180328 103.016238,22.0062609 102.82064,22.1003749 C102.644602,22.1820588 102.450782,22.1891617 102.304973,22.0843933 L102.386768,21.9476616 Z" id="Fill-110" fill="#015294"></path>
                                            <path d="M103.114392,21.0267648 L102.966805,20.7408713 L103.101945,20.6787205 L103.197966,20.8527426 L103.2033,20.8491912 C103.205079,20.7106837 103.292209,20.5526432 103.462912,20.4745108 L103.879002,20.5561947 C103.866555,20.3732939 103.975023,20.2383379 104.120832,20.1690842 C104.444458,20.0199224 104.62583,20.2045989 104.725407,20.4301174 L105.015248,21.0462979 L104.874773,21.1102244 L104.593823,20.5011469 C104.513806,20.3289005 104.394669,20.1886173 104.183068,20.2898343 C103.932347,20.4052571 103.966132,20.648533 104.03548,20.7923676 L104.303983,21.3765848 L104.172399,21.4351841 L103.886115,20.8172279 C103.79365,20.6254484 103.665623,20.5313344 103.519813,20.6005881 C103.317103,20.6929264 103.224638,20.904239 103.358001,21.1901325 L103.598052,21.705096 L103.46469,21.7672468 L103.114392,21.0267648 Z" id="Fill-112" fill="#015294"></path>
                                            <path d="M110.289455,87.098358 C110.814013,88.2152961 112.110294,88.6610059 113.237649,88.1336123 C114.359669,87.6133215 114.841551,86.3454459 114.316993,85.2231806 C113.795992,84.1062425 112.513936,83.6569812 111.391916,84.1754962 C110.262783,84.7028899 109.770232,85.98142 110.289455,87.098358" id="Fill-118" fill="#5E88A1"></path>
                                            <path d="M120.699707,87.1590882 L121.078456,87.1946029 L121.227821,86.8891763 C121.096237,86.6050585 120.58057,87.0880588 120.390307,86.6973968 C120.296064,86.4931871 120.438317,86.3138378 120.605464,86.2339297 C120.772612,86.1557973 120.934424,86.1611245 121.062452,86.2570142 L120.975322,86.3848672 L120.662366,86.3546797 L120.520113,86.6210401 C120.653475,86.9016065 121.162029,86.3972974 121.359405,86.8199226 C121.457204,87.0294595 121.330955,87.2194633 121.133579,87.3082501 C120.957541,87.3934854 120.765499,87.4005883 120.617912,87.2958199 L120.699707,87.1590882 Z" id="Fill-120" fill="#015294"></path>
                                            <path d="M121.429109,86.2381914 L121.2833,85.9522979 L121.416662,85.8919229 L121.510905,86.0641693 L121.519796,86.0623935 C121.516239,85.9238861 121.605147,85.7676213 121.775851,85.6877132 L122.193719,85.7676213 C122.18305,85.5847205 122.291518,85.4479888 122.435549,85.3805108 C122.757397,85.231349 122.938769,85.4178013 123.038346,85.6450955 L123.326409,86.2577245 L123.18949,86.321651 L122.90854,85.7107978 C122.826745,85.5421028 122.707608,85.4000439 122.496007,85.5030366 C122.247064,85.614908 122.279071,85.8599596 122.348419,86.00557 L122.6187,86.5862357 L122.487116,86.6466107 L122.195497,86.0286545 C122.106589,85.836875 121.976783,85.742761 121.830974,85.8120147 C121.626485,85.904353 121.539355,86.1174414 121.670939,86.4015591 L121.910991,86.9165227 L121.775851,86.9822249 L121.429109,86.2381914 Z" id="Fill-122" fill="#015294"></path>
                                            <path d="M119.048328,72.3288496 C122.391273,70.7697532 122.133439,68.2499835 121.441734,66.7601408 L119.389735,62.3758481 L116.928758,63.5229737 L118.891849,67.742123 C119.435967,68.8981272 119.019877,69.7078629 118.041888,70.1642272 C117.056786,70.6223671 116.171261,70.4181574 115.628921,69.2586017 L113.662274,65.0430039 L111.190628,66.1883538 L113.240849,70.5779737 C113.939667,72.0678164 115.703604,73.8843945 119.048328,72.3288496" id="Fill-124" fill="#015294"></path>
                                            <path d="M100.728454,80.8607294 C104.071399,79.3051845 103.810009,76.7836391 103.118304,75.2920206 L101.064527,70.9077279 L98.6071063,72.0548535 L100.571976,76.2740028 C101.116093,77.4282313 100.698225,78.2361913 99.7184577,78.6925555 C98.7351339,79.1542469 97.8478309,78.9535887 97.3054914,77.7922572 L95.3388438,73.573108 L92.8725325,74.7220093 L94.9227538,79.1098535 C95.614459,80.6014719 97.3819524,82.4180501 100.728454,80.8607294" id="Fill-126" fill="#015294"></path>
                                            <path d="M105.988258,68.2432357 C102.645313,69.7987806 102.904925,72.3221018 103.600186,73.8119445 L105.646851,78.1944615 L108.111384,77.0508874 L106.142958,72.8281866 C105.604175,71.6739581 106.020265,70.8677738 107.000033,70.4078582 C107.981578,69.9497182 108.867103,70.1521522 109.404108,71.3081564 L111.379647,75.5290814 L113.84418,74.3801801 L111.797515,69.9923359 C111.100475,68.5024932 109.336538,66.6876908 105.988258,68.2432357" id="Fill-128" fill="#015294"></path>
                                            <path d="M127.215072,59.8727703 C127.04259,59.7786563 125.902788,58.9706963 123.884574,59.9100608 C121.830796,60.8671826 120.690994,62.6446946 121.8468,65.1182951 L123.968147,69.6659556 L126.375779,68.545466 L124.252653,63.9889269 C123.882796,63.1898456 124.000154,62.39254 124.999482,61.9272971 C125.993474,61.46383 126.688736,61.8864552 127.060372,62.6837608 L129.179941,67.2349727 L131.596464,66.1144831 L129.473338,61.557944 C129.101702,60.7641899 129.220839,59.9615571 130.21661,59.4998657 C131.214159,59.0328471 131.909421,59.4554723 132.281057,60.2527779 L134.405961,64.8039898 L136.815371,63.6835003 L134.692245,59.1358398 C133.538217,56.6604635 131.438208,56.3941031 129.387986,57.3494492 C127.369772,58.2852621 127.25597,59.6809908 127.215072,59.8727703" id="Fill-130" fill="#015294"></path>
                                            <path d="M102.5829,66.2300836 C103.103901,67.3487974 104.400182,67.7927314 105.529315,67.2688893 C106.653113,66.7468228 107.133217,65.4736199 106.606881,64.3566819 C106.085879,63.237968 104.803824,62.7887068 103.681804,63.3089975 C102.552671,63.8328397 102.061898,65.1113697 102.5829,66.2300836" id="Fill-132" fill="#5E88A1"></path>
                                            <path d="M111.742925,61.9640549 C112.263927,63.0827687 113.561985,63.524927 114.692897,62.9993091 C115.811361,62.4790184 116.291465,61.209367 115.768685,60.0906532 C115.245905,58.9719393 113.965628,58.5244538 112.845386,59.0429688 C111.716253,59.5685867 111.221924,60.8488925 111.742925,61.9640549" id="Fill-134" fill="#5E88A1"></path>
                                            <path d="M123.228076,56.6142944 C123.750856,57.7347839 125.047136,58.1769422 126.176269,57.6495486 C127.300068,57.1292579 127.778394,55.8596065 127.253836,54.7408927 C126.732834,53.6239546 125.449001,53.1746933 124.332315,53.694984 C123.199626,54.2223777 122.705296,55.499132 123.228076,56.6142944" id="Fill-136" fill="#5E88A1"></path>
                                            <path d="M133.638328,56.6768003 L134.015298,56.7105393 L134.164664,56.4068884 C134.036636,56.1227706 133.513856,56.6075466 133.328928,56.2151089 C133.234685,56.0126749 133.373382,55.8297741 133.544085,55.7516417 C133.711233,55.6735093 133.873045,55.6770608 133.999295,55.7747263 L133.913943,55.9008035 L133.600986,55.8759432 L133.453399,56.1369765 C133.593874,56.4175428 134.102428,55.9167852 134.296248,56.3376347 C134.397603,56.5489473 134.267797,56.7353996 134.072199,56.8312893 C133.894383,56.9129732 133.702342,56.9200761 133.556532,56.8117562 L133.638328,56.6768003 Z" id="Fill-138" fill="#015294"></path>
                                            <path d="M134.365952,55.7559035 L134.218364,55.4700099 L134.351727,55.4078592 L134.447747,55.5818813 L134.453082,55.5783299 C134.453082,55.4415982 134.543768,55.2853334 134.714472,55.2036495 L135.130562,55.2835576 C135.119893,55.1024325 135.230139,54.9657009 135.372392,54.8982229 C135.696017,54.7508368 135.875612,54.9355133 135.976967,55.1610318 L136.265029,55.7754366 L136.129889,55.8375873 L135.845383,55.2302856 C135.767144,55.0598149 135.642673,54.917756 135.432849,55.0189729 C135.178572,55.1343958 135.217692,55.3776717 135.288818,55.523282 L135.555543,56.1039478 L135.423959,56.1660985 L135.134118,55.5481423 C135.041654,55.3545871 134.915404,55.2622488 134.769595,55.3297268 C134.565106,55.4220651 134.476198,55.6333777 134.611338,55.9192712 L134.849612,56.4342347 L134.714472,56.4981612 L134.365952,55.7559035 Z" id="Fill-140" fill="#015294"></path>
                                            <path d="M131.98517,41.8465617 C135.328116,40.289241 135.07206,37.7694713 134.378577,36.2760771 L132.324799,31.8935602 L129.863823,33.0424615 L131.832248,37.2616107 C132.374588,38.4140636 131.954942,39.2237993 130.982287,39.6801635 C129.997185,40.1400792 129.108104,39.9376452 128.565764,38.7763137 L126.600895,34.5589402 L124.131027,35.7078416 L126.17947,40.09391 C126.874732,41.5855284 128.642225,43.4038823 131.98517,41.8465617" id="Fill-142" fill="#015294"></path>
                                            <path d="M113.665297,50.3784415 C117.01002,48.8193451 116.746852,46.2977996 116.056925,44.807957 L114.004926,40.42544 L111.543949,41.5725656 L113.508818,45.7899391 C114.052936,46.9459434 113.635068,47.7539033 112.658857,48.213819 C111.670198,48.671959 110.786452,48.469525 110.244112,47.3081936 L108.277465,43.09082 L105.811153,44.2432728 L107.857818,48.6275656 C108.554858,50.1174083 110.318795,51.9357621 113.665297,50.3784415" id="Fill-144" fill="#015294"></path>
                                            <path d="M118.926701,37.7609478 C115.581978,39.3164927 115.84159,41.8380381 116.535073,43.3296566 L118.583516,47.7139493 L121.049827,46.5650479 L119.077845,42.3458987 C118.54084,41.1934459 118.95693,40.3837102 119.934919,39.9255702 C120.916465,39.4656545 121.805546,39.6734157 122.346108,40.8258685 L124.316312,45.0467935 L126.782623,43.8961164 L124.73418,39.5118237 C124.038918,38.0202053 122.276759,36.2054028 118.926701,37.7609478" id="Fill-146" fill="#015294"></path>
                                            <path d="M140.151915,29.3887066 C139.981211,29.2981441 138.841409,28.4884084 136.821416,29.4277728 C134.769417,30.3866704 133.629615,32.1624066 134.781864,34.6342314 L136.90499,39.1854434 L139.3144,38.0596266 L137.187718,33.5084147 C136.81786,32.7128848 136.940553,31.9102521 137.939881,31.4467849 C138.932095,30.981542 139.625578,31.4023915 139.998993,32.1996971 L142.122118,36.7526847 L144.533307,35.6321952 L142.410181,31.0774318 C142.034988,30.2801262 142.15946,29.4810449 143.153453,29.015802 C144.151002,28.5505591 144.846263,28.9749601 145.217899,29.7704899 L147.342803,34.3234776 L149.750435,33.1994366 L147.629087,28.6517761 C146.47506,26.1781756 144.376828,25.9100394 142.326607,26.8653855 C140.308393,27.8047499 140.192812,29.2004786 140.151915,29.3887066" id="Fill-148" fill="#015294"></path>
                                            <path d="M115.519742,35.747618 C116.040744,36.8663319 117.34058,37.3084902 118.467935,36.7828723 C119.588178,36.2625816 120.07006,34.9893787 119.543724,33.8724406 C119.0245,32.7555025 117.740667,32.3062413 116.622203,32.826532 C115.489513,33.3521499 114.996962,34.63068 115.519742,35.747618" id="Fill-150" fill="#5E88A1"></path>
                                            <path d="M124.679768,31.4817669 C125.202548,32.6004807 126.498828,33.0426391 127.627961,32.5187969 C128.748203,31.9967304 129.230085,30.7253033 128.707306,29.6065895 C128.184526,28.4896514 126.902471,28.0403901 125.782229,28.5606808 C124.653095,29.0862988 124.158766,30.3666046 124.679768,31.4817669" id="Fill-152" fill="#5E88A1"></path>
                                            <path d="M136.166519,26.1320064 C136.687521,27.2507202 137.982023,27.69643 139.116491,27.1672606 C140.236733,26.6469699 140.718615,25.3790943 140.190501,24.2603804 C139.671277,23.1416666 138.387444,22.6924054 137.26898,23.2109203 C136.138069,23.738314 135.641961,25.0150683 136.166519,26.1320064" id="Fill-154" fill="#5E88A1"></path>
                                            <path d="M146.575171,26.1945123 L146.953919,26.2264756 L147.105063,25.9263762 C146.973479,25.6404826 146.454255,26.1234829 146.26577,25.7310452 C146.171528,25.530387 146.312002,25.3474862 146.482706,25.267578 C146.649853,25.1894456 146.813444,25.1947728 146.936137,25.2924383 L146.852564,25.4185156 L146.537829,25.3901038 L146.393798,25.6564643 C146.52716,25.9352548 147.039271,25.4327215 147.234869,25.853571 C147.332668,26.0648836 147.20464,26.2513359 147.01082,26.3454499 C146.831226,26.4306853 146.640963,26.4377882 146.491597,26.3294683 L146.575171,26.1945123 Z" id="Fill-156" fill="#015294"></path>
                                            <path d="M147.304395,25.2718398 L147.155029,24.9859463 L147.29017,24.9237955 L147.38619,25.1013691 L147.393303,25.0995934 C147.393303,24.961086 147.480433,24.8048212 147.64758,24.7231373 L148.069005,24.8048212 C148.060114,24.6201446 148.166804,24.4834129 148.307279,24.4177107 C148.63446,24.2667731 148.812277,24.4514497 148.911854,24.6787439 L149.203472,25.2931486 L149.064776,25.3570751 L148.782048,24.7462219 C148.703809,24.5793027 148.582894,24.435468 148.373071,24.536685 C148.120571,24.6538836 148.156135,24.893608 148.223705,25.0392183 L148.493986,25.6234356 L148.36418,25.6838106 L148.074339,25.0623029 C147.983653,24.8722991 147.853847,24.7764094 147.708038,24.8474388 C147.505327,24.9397771 147.414641,25.1528655 147.546225,25.4352075 L147.786277,25.9519468 L147.64758,26.0140975 L147.304395,25.2718398 Z" id="Fill-158" fill="#015294"></path>
                                            <path d="M163.234952,76.5757004 C166.581453,75.016604 166.321842,72.4968343 165.631915,71.0069916 L163.578137,66.6226988 L161.11716,67.7716002 L163.08203,71.9889737 C163.626147,73.144978 163.206501,73.9547137 162.23029,74.4110779 C161.245188,74.8692178 160.357885,74.6650082 159.817324,73.5072282 L157.850676,69.2880789 L155.382587,70.4352045 L157.429252,74.8230487 C158.126291,76.3146671 159.893785,78.1312453 163.234952,76.5757004" id="Fill-168" fill="#015294"></path>
                                            <path d="M144.915078,85.1058044 C148.259802,83.5502595 147.996634,81.0304898 147.306707,79.5388714 L145.254707,75.1545787 L142.795509,76.3017043 L144.762156,80.5190778 C145.304496,81.6786335 144.886628,82.4848178 143.90686,82.9429577 C142.923536,83.4010977 142.036233,83.1986637 141.493894,82.0408837 L139.529024,77.8217345 L137.059157,78.9688601 L139.109378,83.35848 C139.804639,84.8465469 141.570355,86.6649008 144.915078,85.1058044" id="Fill-170" fill="#015294"></path>
                                            <path d="M150.178261,72.4900865 C146.833538,74.0456314 147.091371,76.5689526 147.786633,78.0570195 L149.836854,82.4448637 L152.299609,81.2941866 L150.331183,77.0750374 C149.7924,75.9243603 150.20849,75.1128489 151.186479,74.6547089 C152.168025,74.196569 153.055328,74.4007786 153.595889,75.5567829 L155.567871,79.7759322 L158.032404,78.6270308 L155.985739,74.2409624 C155.2887,72.7493439 153.521206,70.9345415 150.178261,72.4900865" id="Fill-172" fill="#015294"></path>
                                            <path d="M146.771302,70.4785325 C147.294082,71.5954706 148.588584,72.0411803 149.717717,71.5137867 C150.841516,70.9952717 151.319841,69.7220688 150.795283,68.603355 C150.277838,67.4828655 148.992227,67.0371557 147.871984,67.5556707 C146.742851,68.0812886 146.248522,69.3615944 146.771302,70.4785325" id="Fill-174" fill="#5E88A1"></path>
                                            <path d="M155.929549,66.2109056 C156.454107,67.3296194 157.74861,67.770002 158.879521,67.2461598 C159.999763,66.7258691 160.479867,65.4562177 159.957087,64.3375039 C159.434307,63.2187901 158.152252,62.7713046 157.033788,63.2898195 C155.904655,63.8189889 155.410326,65.0957433 155.929549,66.2109056" id="Fill-176" fill="#5E88A1"></path>
                                            <path d="M157.855299,54.6252922 C161.200023,53.0679716 160.935077,50.5482019 160.243371,49.0548077 L158.194928,44.6740664 L155.732173,45.8194163 L157.698821,50.0385656 C158.239382,51.1945698 157.826849,51.9989784 156.845303,52.458894 C155.861979,52.9188097 154.974676,52.7163758 154.434115,51.55682 L152.463911,47.3394465 L149.999378,48.4901236 L152.047821,52.8744163 C152.741304,54.364259 154.510576,56.1826129 157.855299,54.6252922" id="Fill-178" fill="#015294"></path>
                                            <path d="M159.709923,39.9944688 C160.229146,41.1149583 161.528983,41.5571167 162.658116,41.0314987 C163.77658,40.5094323 164.256684,39.2380052 163.735682,38.1192913 C163.212903,37.0005775 161.930847,36.553092 160.810605,37.0733827 C159.681472,37.5990006 159.185365,38.8775307 159.709923,39.9944688" id="Fill-180" fill="#5E88A1"></path>
                                            <path d="M38.2278241,11.4006763 C41.5689913,9.84335565 41.3076014,7.32358596 40.6105617,5.835519 L38.5674532,1.4476748 L36.0993638,2.59657614 L38.073124,6.81394966 C38.6119072,7.9681782 38.1958172,8.77613818 37.2178279,9.23427813 C36.2327259,9.69419381 35.3436447,9.49175988 34.8048615,8.33042839 L32.8346576,4.11305487 L30.3683464,5.26373194 L32.4185676,9.6498004 C33.1138291,11.1396431 34.8831007,12.9562212 38.2278241,11.4006763" id="Fill-182" fill="#015294"></path>
                                            <path d="M82.4180046,15.6475271 C85.7556154,14.0902064 85.4960037,11.5704367 84.8007422,10.080594 L82.7540773,5.69630128 L80.2913224,6.84165115 L82.2597481,11.0590247 C82.7985313,12.2168047 82.3877758,13.0247647 81.404452,13.4846803 C80.4211282,13.9410446 79.5338252,13.7386106 78.9914857,12.5808306 L77.0266162,8.36168135 L74.5585268,9.51058268 L76.6105262,13.8966511 C77.3040096,15.3882696 79.071503,17.203072 82.4180046,15.6475271" id="Fill-184" fill="#015294"></path>
                                            <path d="M87.6778089,3.03180909 C84.3313073,4.58735401 84.590919,7.10889945 85.2844024,8.59874213 L87.3346236,12.9830349 L89.8009348,11.8359093 L87.8289527,7.61676001 C87.2866132,6.4643072 87.7062595,5.65457148 88.686027,5.19643154 C89.6657945,4.73651586 90.5566538,4.94072552 91.0954371,6.0967298 L93.065641,10.3158791 L95.5301741,9.16875346 L93.481731,4.78090926 C92.7864695,3.29106657 91.0225324,1.47448842 87.6778089,3.03180909" id="Fill-186" fill="#015294"></path>
                                            <path d="M144.922013,11.3642737 C148.266736,9.80695306 148.010681,7.28363189 147.31542,5.7937892 L145.26342,1.41127221 L142.802443,2.55662207 L144.767313,6.77754707 C145.309652,7.93177561 144.891784,8.73973559 143.915573,9.19787553 C142.930471,9.65779122 142.050281,9.45358155 141.504385,8.2940258 L139.534181,4.07665228 L137.06787,5.22377788 L139.116313,9.61162207 C139.813352,11.1014648 141.577289,12.9215944 144.922013,11.3642737" id="Fill-188" fill="#015294"></path>
                                            <path d="M126.60374,19.8961535 C129.943129,18.3388329 129.685295,15.8172874 128.991812,14.325669 L126.94159,9.94315203 L124.482392,11.0902776 L126.44904,15.3076511 C126.989601,16.4636554 126.573511,17.2698397 125.593743,17.7279796 C124.608641,18.189671 123.724895,17.9854614 123.178999,16.8259056 L121.215908,12.6085321 L118.74604,13.7592092 L120.796261,18.1435019 C121.491523,19.6333446 123.259016,21.4516985 126.60374,19.8961535" id="Fill-190" fill="#015294"></path>
                                            <path d="M131.865322,7.27865983 C128.518821,8.83420476 128.778432,11.3557502 129.470137,12.8455929 L131.522137,17.2298856 L133.98667,16.08276 L132.014688,11.8636107 C131.475905,10.7111579 131.895551,9.89787075 132.875318,9.44328228 C133.855086,8.98514234 134.744167,9.189352 135.28295,10.3435805 L137.253154,14.5627298 L139.717687,13.4156042 L137.674579,9.02776001 C136.975761,7.53791732 135.210046,5.72133916 131.865322,7.27865983" id="Fill-192" fill="#015294"></path>
                                            <path d="M128.458363,5.26355437 C128.977586,6.38404392 130.277423,6.82797798 131.406556,6.30236006 C132.528577,5.78029361 133.006902,4.51064221 132.482344,3.39015266 C131.963121,2.27143884 130.681066,1.82395331 129.559046,2.34246829 C128.428134,2.86986194 127.932027,4.14661628 128.458363,5.26355437" id="Fill-194" fill="#5E88A1"></path>
                                            <path d="M49.2954625,0.534768814 C49.2456739,0.426448905 49.1763256,0.31635326 49.1140899,0.206257614 L41.5284492,0.206257614 C40.3281896,1.61974364 40.5878013,3.26052391 41.0963557,4.35082595 L43.1447988,8.73689441 L45.61111,7.58976881 L43.6409061,3.36884382 C43.1003447,2.21461528 43.5182129,1.40487956 44.4979804,0.946739617 C45.4777478,0.490375409 46.366829,0.69636081 46.9056122,1.84881362 L48.874038,6.06796287 L51.3421274,4.92083728 L49.2954625,0.534768814 Z" id="Fill-198" fill="#015294"></path>
                                            <path d="M103.126484,1.54747118 L102.498792,0.206790335 L99.4990325,0.206790335 L100.578377,2.52945331 C101.118938,3.68545759 100.704627,4.4951933 99.7266373,4.95155751 C98.7397572,5.41147319 97.8613449,5.20548779 97.3136709,4.04770778 L95.5230614,0.206790335 L94.5361813,0.206790335 L92.8807121,0.977459854 L94.927377,5.36530405 C95.6226385,6.85514674 97.3883538,8.67350063 100.733077,7.11440423 C104.077801,5.5588593 103.821745,3.0390896 103.126484,1.54747118" id="Fill-202" fill="#015294"></path>
                                        </g>
                                        <g id="Group-211" transform="translate(138.696666, 0.000000)" fill="#00538F">
                                            <path d="M18.3113385,1.20696791 L11.1311187,1.20696791 C10.2900479,2.19960446 10.0411052,3.5207522 10.8003805,5.15265379 L12.9252846,9.69853851 L15.3346946,8.57449748 L13.2080124,4.02506129 C12.8399328,3.22775573 12.9590697,2.42689869 13.9566188,1.96343154 C14.9523897,1.49641291 15.6476512,1.9172624 16.0228435,2.71811943 L18.142413,7.26755563 L20.5553794,6.14706607 L18.4286972,1.59585414 C18.3664615,1.4662254 18.3433454,1.33659665 18.3113385,1.20696791" id="Fill-209"></path>
                                        </g>
                                        <path d="M170.731329,23.1817036 C170.09119,23.2172183 169.529291,22.8940344 169.146986,22.0736442 L167.180338,17.854495 L164.712249,19.0033963 L166.76247,23.3894648 C167.315479,24.5756566 168.565527,25.939422 170.731329,25.6748373 L170.731329,23.1817036 Z" id="Fill-213" fill="#00538F"></path>
                                        <polygon id="Fill-215" fill="#00538F" points="170.446467 16.3357078 170.730973 16.946561 170.730973 16.2007518"></polygon>
                                        <g id="Group-224" transform="translate(135.140342, 42.145638)">
                                            <path d="M35.5909871,2.67962642 L35.5607584,2.61569991 C34.8654969,1.12408149 33.0980035,-0.696048138 29.7550582,0.864823999 C26.4103347,2.42036893 26.6663901,4.94013862 27.3634298,6.42820557 L29.4118728,10.8124983 L31.8781841,9.66714844 L29.9044238,5.44622344 C29.3638624,4.2919949 29.7835088,3.48048345 30.7632762,3.02411924 C31.7412656,2.57130651 32.6339031,2.77551617 33.1726863,3.92619324 L35.1393339,8.1453425 L35.5909871,7.93580562 L35.5909871,2.67962642 Z" id="Fill-216" fill="#00538F"></path>
                                            <path d="M35.5909871,16.6894749 C35.446956,16.7249896 35.2993685,16.7303168 35.1588937,16.7977948 C34.0279824,17.321637 33.5318751,18.6001671 34.056433,19.7188809 C34.3622769,20.3741275 34.9419579,20.7594623 35.5909871,20.8926425 L35.5909871,16.6894749 Z" id="Fill-218" fill="#4E7792"></path>
                                            <path d="M35.5632478,28.1312536 L35.0778095,27.0906722 C34.7506276,26.3839292 34.8484265,25.6878406 35.5632478,25.2083918 L35.5632478,22.702828 C35.2965234,22.7738575 35.0173519,22.8661958 34.711508,23.0082547 C32.6559523,23.9653765 31.5161502,25.7446642 32.6701776,28.2182647 L34.7950816,32.7659252 L35.5632478,32.4090022 L35.5632478,28.1312536 Z" id="Fill-220" fill="#00538F"></path>
                                        </g>
                                        <path d="M123.530186,90.6181277 C122.376159,88.1427514 120.279705,87.876391 118.229484,88.8317371 C116.209491,89.7675501 116.095689,91.1650545 116.054791,91.356834 C115.88231,91.2609442 114.744286,90.4512085 112.724293,91.3941245 C110.672294,92.3512463 109.532492,94.1269825 110.684741,96.5952559 L112.672726,100.84992 L113.448005,100.84992 L115.219055,100.024202 L113.092373,95.4729906 C112.718959,94.6739093 112.841652,93.874828 113.842757,93.4095851 C114.834972,92.9478937 115.530233,93.3687431 115.903647,94.1678244 L118.026773,98.7190364 L120.436183,97.5967711 L118.313057,93.0420077 C117.939643,92.2464779 118.060558,91.4456208 119.056329,90.9821537 C120.0521,90.515135 120.74914,90.9377603 121.120776,91.7386173 L123.24568,96.2862777 L125.651534,95.1657882 L123.530186,90.6181277 Z" id="Fill-235" fill="#00538F"></path>
                                        <polygon id="Fill-245" fill="#00538F" points="0.0736159229 54.7123862 0.80799699 54.3696691 0.0736159229 52.7999183"></polygon>
                                        <g id="Group-250" transform="translate(0.000000, 19.533098)" fill="#00538F">
                                            <path d="M3.90271081,27.8586377 C3.02785492,25.9816845 1.60710317,25.3797099 0.0743271879,25.6158828 L0.0743271879,28.04509 C0.728690947,27.984715 1.20701663,28.3664982 1.49152261,28.9791272 L3.61464851,33.5303392 L6.02761487,32.4098496 L3.90271081,27.8586377 Z" id="Fill-246"></path>
                                            <path d="M3.58673136,5.00295922 L1.54006645,0.618666499 L0.000177816239,1.3342882 L0.000177816239,3.74751372 L1.04395914,5.98316562 C1.58452051,7.14272137 1.17020867,7.94890561 0.192219354,8.40526982 C0.126427346,8.43545734 0.0641916623,8.43900881 0.000177816239,8.46386912 L0.000177816239,11.0067234 C0.375370081,10.9090579 0.773678456,10.7687747 1.19865927,10.5698923 C4.54338272,9.01434734 4.28199285,6.49635339 3.58673136,5.00295922" id="Fill-248"></path>
                                        </g>
                                    </g>
                                </g>
                            </g>
                        </g>
                        <g id="Page-1" transform="translate(4.963504, 4.963504)">
                            <path d="M11.1706131,22.3367591 C5.02083212,22.3367591 0.000248175185,17.3521606 0.000248175185,11.167635 C0.000248175185,5.01785401 5.02083212,-0.000248175183 11.1706131,-0.000248175183 C17.3551387,-0.000248175183 22.3384964,5.01785401 22.3384964,11.167635 C22.3384964,17.3521606 17.3551387,22.3367591 11.1706131,22.3367591 L11.1706131,22.3367591 Z" id="Path" fill="#FFFFFF"></path>
                            <path d="M6.79515453,17.3720146 L11.1681314,12.9990377 L15.5411082,17.3720146 L17.3725109,15.5406119 L12.9995341,11.167635 L17.3725109,6.79465818 L15.5411082,4.96325547 L11.1681314,9.33623233 L6.79515453,4.96325547 L4.96375182,6.79465818 L9.33672868,11.167635 L4.96375182,15.5406119 L6.79515453,17.3720146 Z M0.000248175183,11.167635 C0.000248175183,5.01785401 5.02083212,-0.000248175182 11.1706131,-0.000248175182 C17.3551387,-0.000248175182 22.3384964,5.01785401 22.3384964,11.167635 C22.3384964,17.3521606 17.3551387,22.3367591 11.1706131,22.3367591 C5.02083212,22.3367591 0.000248175183,17.3521606 0.000248175183,11.167635 Z" id="Fill-1" fill="#E85656"></path>
                        </g>
                        <rect id="Rectangle-7" stroke="#DEE5EB" x="0.5" y="0.5" width="169" height="79.6569343" rx="4"></rect>
                    </g>
                </g>
            </g>
        </g>
    </g>
</svg>