<?xml version="1.0" encoding="UTF-8"?>
<svg width="170px" height="81px" viewBox="0 0 170 81" version="1.1" xmlns="http://www.w3.org/2000/svg" xmlns:xlink="http://www.w3.org/1999/xlink">
    <!-- Generator: Sketch 43.2 (39069) - http://www.bohemiancoding.com/sketch -->
    <title>Improper-logo-04</title>
    <desc>Created with Sketch.</desc>
    <defs>
        <rect id="path-1" x="-1.84741111e-13" y="0" width="170" height="80.6569343" rx="4"></rect>
        <polygon id="path-2" points="20.6493484 19.8540146 0.881067021 19.8540146 0.881067021 0.419100199 20.6493484 0.419100199 20.6493484 19.8540146"></polygon>
        <polygon id="path-4" points="19.7693643 19.8540146 0.000180491042 19.8540146 0.000180491042 0.419100199 19.7693643 0.419100199"></polygon>
        <polygon id="path-6" points="0.454837425 0.121831453 16.8641805 0.121831453 16.8641805 16.2709064 0.454837425 16.2709064 0.454837425 0.121831453"></polygon>
    </defs>
    <g id="Pages" stroke="none" stroke-width="1" fill="none" fill-rule="evenodd">
        <g id="Web" transform="translate(-978.000000, -1920.000000)">
            <g id="Logo" transform="translate(370.000000, 566.000000)">
                <g id="Improper-Logo-Usage" transform="translate(8.000000, 1307.000000)">
                    <g id="Improper-logo-04" transform="translate(600.000000, 47.000000)">
                        <g id="Rectangle-7">
                            <use fill="#FFFFFF" fill-rule="evenodd" xlink:href="#path-1"></use>
                            <rect stroke="#DEE5EB" stroke-width="1" x="0.5" y="0.5" width="169" height="79.6569343" rx="4"></rect>
                        </g>
                        <g id="Page-1" transform="translate(38.467153, 17.372263)">
                            <g id="Group-3" transform="translate(43.317850, 19.732544)">
                                <mask id="mask-3" fill="white">
                                    <use xlink:href="#path-2"></use>
                                </mask>
                                <g id="Clip-2"></g>
                                <path d="M10.7665614,19.8543756 C18.8309011,19.8543756 20.6493484,14.6120133 20.6493484,11.0139244 L20.6493484,0.419100199 L14.703071,0.419100199 L14.703071,10.6105269 C14.703071,13.4054307 13.1337014,14.6264526 10.7665614,14.6264526 C8.396714,14.6264526 6.82734439,13.4054307 6.82734439,10.6105269 L6.82734439,0.419100199 L0.881067021,0.419100199 L0.881067021,11.0139244 C0.881067021,14.6120133 2.69770936,19.8543756 10.7665614,19.8543756" id="Fill-1" fill="#00538F" mask="url(#mask-3)"></path>
                            </g>
                            <g id="Group-6" transform="translate(0.000000, 19.732544)">
                                <mask id="mask-5" fill="white">
                                    <use xlink:href="#path-4"></use>
                                </mask>
                                <g id="Clip-5"></g>
                                <path d="M9.88657731,19.8543756 C17.952722,19.8543756 19.7693643,14.6120133 19.7693643,11.0139244 L19.7693643,0.419100199 L13.8239894,0.419100199 L13.8239894,10.6105269 C13.8239894,13.4054307 12.2537173,14.6264526 9.88657731,14.6264526 C7.51672993,14.6264526 5.94555541,13.4054307 5.94555541,10.6105269 L5.94555541,0.419100199 L0.000180491042,0.419100199 L0.000180491042,11.0139244 C0.000180491042,14.6120133 1.82043265,19.8543756 9.88657731,19.8543756" id="Fill-4" fill="#00538F" mask="url(#mask-5)"></path>
                            </g>
                            <path d="M31.9852687,19.4156921 C23.9191241,19.4156921 22.0979695,24.6562495 22.0979695,28.253436 L22.0979695,38.8473577 L28.0451493,38.8473577 L28.0451493,28.6532236 C28.0451493,25.8664419 29.6154214,24.6427127 31.9852687,24.6427127 C34.3533112,24.6427127 35.9226808,25.8664419 35.9226808,28.6532236 L35.9226808,38.8473577 L41.8689582,38.8473577 L41.8689582,28.253436 C41.8689582,24.6562495 40.0514134,19.4156921 31.9852687,19.4156921" id="Fill-7" fill="#015294"></path>
                            <path d="M81.7912303,22.4182508 C81.534933,22.0753179 80.0179058,19.4157823 75.1545747,19.4157823 C70.1991931,19.4157823 66.2960743,21.8858023 66.2960743,27.8609582 L66.2960743,38.8483504 L72.1087883,38.8483504 L72.1087883,27.8519336 C72.1087883,25.9251918 73.093367,24.4496775 75.4948003,24.4496775 C77.8989409,24.4496775 78.8826171,25.9251918 78.8826171,27.8519336 L78.8826171,38.8483504 L84.697136,38.8483504 L84.697136,27.8519336 C84.697136,25.9251918 85.6808122,24.4496775 88.0840504,24.4496775 C90.4863862,24.4496775 91.4709648,25.9251918 91.4709648,27.8519336 L91.4709648,38.8483504 L97.2836788,38.8483504 L97.2836788,27.8609582 C97.2836788,21.8858023 93.3796576,19.4157823 88.4251785,19.4157823 C83.5654572,19.4157823 82.0448202,22.0753179 81.7912303,22.4182508" id="Fill-9" fill="#015294"></path>
                            <path d="M27.0957664,12.2726689 C27.0957664,14.9737173 29.2580491,17.0520717 31.9834638,17.0520717 C34.6827074,17.0520717 36.805282,14.9737173 36.805282,12.2726689 C36.805282,9.57342535 34.6827074,7.49687591 31.9834638,7.49687591 C29.2580491,7.49687591 27.0957664,9.57342535 27.0957664,12.2726689" id="Fill-11" fill="#5E88A1"></path>
                            <path d="M47.7368122,10.838848 C47.7368122,14.3512037 50.5506676,17.0522522 54.0937067,17.0522522 C57.603355,17.0522522 60.3585508,14.3512037 60.3585508,10.838848 C60.3585508,7.32919973 57.603355,4.62905375 54.0937067,4.62905375 C50.5506676,4.62905375 47.7368122,7.32919973 47.7368122,10.838848" id="Fill-13" fill="#5E88A1"></path>
                            <g id="Group-17" transform="translate(73.098872, 0.780985)">
                                <mask id="mask-7" fill="white">
                                    <use xlink:href="#path-6"></use>
                                </mask>
                                <g id="Clip-16"></g>
                                <path d="M0.454837425,8.19302986 C0.454837425,12.7603557 4.10978102,16.2709064 8.71591241,16.2709064 C13.2787259,16.2709064 16.8641805,12.7603557 16.8641805,8.19302986 C16.8641805,3.63292369 13.2787259,0.121470471 8.71591241,0.121470471 C4.10978102,0.121470471 0.454837425,3.63292369 0.454837425,8.19302986" id="Fill-15" fill="#5E88A1" mask="url(#mask-7)"></path>
                            </g>
                        </g>
                        <g id="Page-1" transform="translate(4.963504, 4.963504)">
                            <path d="M11.170365,22.3370073 C5.02058394,22.3370073 0,17.3524088 0,11.1678832 C0,5.01810219 5.02058394,0 11.170365,0 C17.3548905,0 22.3382482,5.01810219 22.3382482,11.1678832 C22.3382482,17.3524088 17.3548905,22.3370073 11.170365,22.3370073 L11.170365,22.3370073 Z" id="Path" fill="#FFFFFF"></path>
                            <path d="M6.79490636,17.3722628 L11.1678832,12.9992859 L15.5408601,17.3722628 L17.3722628,15.5408601 L12.9992859,11.1678832 L17.3722628,6.79490636 L15.5408601,4.96350365 L11.1678832,9.3364805 L6.79490636,4.96350365 L4.96350365,6.79490636 L9.3364805,11.1678832 L4.96350365,15.5408601 L6.79490636,17.3722628 Z M0,11.1678832 C0,5.01810219 5.02058394,0 11.170365,0 C17.3548905,0 22.3382482,5.01810219 22.3382482,11.1678832 C22.3382482,17.3524088 17.3548905,22.3370073 11.170365,22.3370073 C5.02058394,22.3370073 0,17.3524088 0,11.1678832 Z" id="Fill-1" fill="#E85656"></path>
                        </g>
                    </g>
                </g>
            </g>
        </g>
    </g>
</svg>