<?xml version="1.0" encoding="UTF-8"?>
<svg width="64px" height="80px" viewBox="0 0 64 80" version="1.1" xmlns="http://www.w3.org/2000/svg" xmlns:xlink="http://www.w3.org/1999/xlink">
    <!-- Generator: Sketch 43.2 (39069) - http://www.bohemiancoding.com/sketch -->
    <title>print-icon-05</title>
    <desc>Created with Sketch.</desc>
    <defs></defs>
    <g id="Pages" stroke="none" stroke-width="1" fill="none" fill-rule="evenodd">
        <g id="Web" transform="translate(-1071.000000, -5898.000000)" fill="#727A80">
            <g id="Iconography" transform="translate(375.000000, 5647.000000)">
                <g id="Selecting-Icons" transform="translate(0.000000, 135.000000)">
                    <path d="M725.37984,169.78032 C725.96064,169.13712 726.86944,168.29552 727.78944,167.52112 L727.61024,174.12432 C727.59584,174.97232 726.89664,175.64592 726.05024,175.63312 C726.00544,175.63152 725.96064,175.62832 725.91744,175.62352 L724.92704,187.42192 C725.42784,187.46672 725.85984,187.88432 725.90464,188.38832 L726.50304,194.75312 C726.54944,195.27952 726.15744,195.69712 725.63104,195.68912 L720.87424,195.60752 C720.34464,195.59952 719.97024,195.16592 720.03744,194.64112 L720.85024,188.30192 C720.91424,187.80112 721.35584,187.39632 721.85824,187.37072 L721.53504,175.54992 C721.49024,175.55152 721.44704,175.55472 721.40224,175.55312 C721.01824,175.54672 720.67584,175.39632 720.41184,175.15792 L725.37984,169.78032 Z M715.30944,120.96544 C714.17824,120.53024 713.61184,118.53824 714.04864,117.40704 C714.48224,116.27584 715.75104,115.71264 716.88064,116.14624 C722.10624,118.15424 727.90144,118.25344 733.19584,116.42464 C734.34144,116.02944 735.58944,116.63744 735.98464,117.78144 C736.37984,118.92704 735.77184,120.89984 734.62784,121.29504 C734.22944,121.43264 733.83104,121.55904 733.42944,121.67904 L733.05664,135.29984 L728.40704,140.33024 L728.45344,139.21824 L720.55904,139.03424 L720.48704,140.68544 C720.45824,142.45664 720.77344,145.39104 721.17984,147.14944 L721.98784,149.22144 L719.42784,155.58464 L716.77984,148.01024 L716.76064,147.93344 C716.28064,145.91424 715.93184,142.70784 715.96864,140.63264 L716.49344,121.38944 C716.09504,121.25824 715.70144,121.11584 715.30944,120.96544 Z M721.00064,122.21984 L720.63424,134.65024 L728.52864,134.83424 L728.89664,122.40384 C727.10784,122.72064 726.74624,122.86464 724.93824,122.83264 C723.13024,122.80224 722.77504,122.59744 721.00064,122.21984 Z M758.91424,139.73024 C758.45824,140.85184 756.70144,141.93824 755.57984,141.48064 C755.18944,141.32224 754.80544,141.15584 754.42464,140.97984 L741.35744,155.11584 C739.96384,156.65504 737.51584,158.75744 735.78624,159.90144 L735.71904,159.94464 L728.36864,163.78624 C726.87104,164.79104 724.63264,166.71584 723.44384,168.02944 L715.50944,176.61824 C714.93984,177.24704 713.97184,177.29344 713.34144,176.72544 C713.30944,176.69504 713.27904,176.66464 713.24864,176.63104 L704.73344,184.85984 C705.08064,185.22144 705.13184,185.81984 704.83264,186.22944 L701.09184,191.41184 C700.78144,191.84064 700.21184,191.89824 699.81824,191.54464 L696.29344,188.35104 C695.89984,187.99584 695.90304,187.42304 696.29984,187.07264 L701.08384,182.83744 C701.46464,182.50144 702.06464,182.48864 702.45824,182.79904 L709.99904,173.69024 C709.96384,173.66304 709.93024,173.63584 709.89664,173.60544 C709.26944,173.03744 709.22144,172.06624 709.78944,171.43904 L717.72384,162.84864 C718.91264,161.53504 720.60864,159.11904 721.45824,157.52864 L724.55584,149.83264 L724.59104,149.76384 C725.56064,147.92704 727.40864,145.28544 728.80224,143.74624 L741.86944,129.61184 C741.65664,129.24864 741.45344,128.88224 741.25824,128.51104 C740.69344,127.43904 741.57984,125.56704 742.65184,125.00384 C743.72384,124.43744 745.04864,124.84864 745.61344,125.92064 C748.22464,130.87264 752.52064,134.76224 757.70944,136.87264 C758.83104,137.33024 759.37024,138.60864 758.91424,139.73024 Z M737.98944,152.10144 L739.13024,150.90304 L733.31104,145.56704 L732.17024,146.76224 C730.97984,148.07584 729.28384,150.49184 728.43424,152.08384 L725.57824,159.97664 L733.06464,156.34304 C734.56384,155.33984 736.80064,153.41344 737.98944,152.10144 Z M742.07424,147.65344 L750.53664,138.54144 C748.98144,137.60224 748.61504,137.47264 747.27424,136.25824 C745.93344,135.04384 745.80224,134.65664 744.71424,133.20384 L736.25344,142.31584 L742.07424,147.65344 Z" id="print-icon-05"></path>
                </g>
            </g>
        </g>
    </g>
</svg>