<?xml version="1.0" encoding="UTF-8"?>
<svg width="56px" height="73px" viewBox="0 0 56 73" version="1.1" xmlns="http://www.w3.org/2000/svg" xmlns:xlink="http://www.w3.org/1999/xlink">
    <!-- Generator: Sketch 43.2 (39069) - http://www.bohemiancoding.com/sketch -->
    <title>print-icon</title>
    <desc>Created with Sketch.</desc>
    <defs>
        <polygon id="path-1" points="0 0.09 0 72.9998 55.9189 72.9998 55.9189 0.09"></polygon>
    </defs>
    <g id="Pages" stroke="none" stroke-width="1" fill="none" fill-rule="evenodd">
        <g id="Print" transform="translate(-582.000000, -186.000000)">
            <g id="Hero-Banner" transform="translate(-28.000000, -25.000000)">
                <g id="Group-21" transform="translate(253.000000, 210.000000)">
                    <g id="print-icon" transform="translate(357.000000, 0.000000)">
                        <path d="M21.5168,28.9881 C23.0578,28.9881 24.3058,27.7391 24.3058,26.1981 L24.3058,16.9561 C24.3058,15.4161 23.0578,14.1671 21.5168,14.1671 L11.6748,14.1671 C10.1338,14.1671 8.8848,15.4161 8.8848,16.9561 L8.8848,26.1981 C8.8848,27.7391 10.1338,28.9881 11.6748,28.9881 L21.5168,28.9881 Z" id="Fill-1" fill="#E7E7E8"></path>
                        <g id="Group-5" transform="translate(0.000000, 0.910200)">
                            <mask id="mask-2" fill="white">
                                <use xlink:href="#path-1"></use>
                            </mask>
                            <g id="Clip-4"></g>
                            <path d="M50.6689,63.3718 C50.6689,65.7798 48.6509,67.7498 46.1849,67.7498 L9.7339,67.7498 C7.2689,67.7498 5.2499,65.7798 5.2499,63.3718 L5.2499,9.7188 C5.2499,7.3098 7.2689,5.3398 9.7339,5.3398 L32.6829,5.3398 L32.6829,18.0968 C32.6829,21.4228 35.4039,24.1438 38.7309,24.1438 L50.6689,24.1438 L50.6689,63.3718 Z M54.3369,17.7258 L37.8069,1.5838 C36.8249,0.6258 35.5089,0.0898 34.1389,0.0898 L9.7339,0.0898 C4.3669,0.0898 -0.0001,4.4098 -0.0001,9.7188 L-0.0001,63.3718 C-0.0001,68.6808 4.3669,72.9998 9.7339,72.9998 L46.1849,72.9998 C51.5519,72.9998 55.9189,68.6808 55.9189,63.3718 L55.9189,21.4818 C55.9189,20.0678 55.3489,18.7128 54.3369,17.7258 L54.3369,17.7258 Z" id="Fill-3" fill="#E7E7E8" mask="url(#mask-2)"></path>
                        </g>
                        <path d="M26.9443,54.3997 L10.4673,54.3997 C9.8213,54.3997 9.2923,54.9287 9.2923,55.5757 L9.2923,56.7957 C9.2923,57.4417 9.8213,57.9707 10.4673,57.9707 L26.9443,57.9707 C27.5903,57.9707 28.1203,57.4417 28.1203,56.7957 L28.1203,55.5757 C28.1203,54.9287 27.5903,54.3997 26.9443,54.3997" id="Fill-6" fill="#D6D6D9"></path>
                        <path d="M9.292,36.7649 L9.292,37.9859 C9.292,38.6319 9.821,39.1609 10.468,39.1609 L44.597,39.1609 C45.243,39.1609 45.771,38.6319 45.771,37.9859 L45.771,36.7649 C45.771,36.1189 45.243,35.5889 44.597,35.5889 L10.468,35.5889 C9.821,35.5889 9.292,36.1189 9.292,36.7649" id="Fill-8" fill="#D6D6D9"></path>
                        <path d="M44.5967,44.9944 L10.4677,44.9944 C9.8217,44.9944 9.2917,45.5234 9.2917,46.1704 L9.2917,47.3904 C9.2917,48.0364 9.8217,48.5654 10.4677,48.5654 L44.5967,48.5654 C45.2427,48.5654 45.7717,48.0364 45.7717,47.3904 L45.7717,46.1704 C45.7717,45.5234 45.2427,44.9944 44.5967,44.9944" id="Fill-10" fill="#D6D6D9"></path>
                    </g>
                </g>
            </g>
        </g>
    </g>
</svg>