<?xml version="1.0" encoding="UTF-8"?>
<svg width="101px" height="79px" viewBox="0 0 101 79" version="1.1" xmlns="http://www.w3.org/2000/svg" xmlns:xlink="http://www.w3.org/1999/xlink">
    <!-- Generator: Sketch 43.2 (39069) - http://www.bohemiancoding.com/sketch -->
    <title>print-icon-08</title>
    <desc>Created with Sketch.</desc>
    <defs></defs>
    <g id="Pages" stroke="none" stroke-width="1" fill="none" fill-rule="evenodd">
        <g id="Web" transform="translate(-735.000000, -6034.000000)" fill="#727A80">
            <g id="Iconography" transform="translate(375.000000, 5647.000000)">
                <g id="Selecting-Icons" transform="translate(0.000000, 135.000000)">
                    <path d="M360.132272,283.142458 C358.911441,269.418948 366.270993,258.156632 374.704003,252.927505 L397.570467,260.305638 L390.771296,262.70512 L375.406299,257.748248 C375.406299,257.748248 362.999677,266.24263 364.49524,282.748594 C364.580753,283.677894 365.126578,284.774177 365.987164,285.966658 C364.233243,286.640037 363.017871,287.658274 362.357422,288.40607 C360.699931,286.084636 360.248715,284.44021 360.132272,283.142458 Z M400.880901,325.145362 C402.312784,326.573797 405.098315,327.16913 407.30891,325.394022 C407.772862,325.021939 407.800153,324.324964 407.379868,323.90569 L399.050565,315.596442 C398.655751,315.204394 398.655751,314.567315 399.050565,314.175266 L401.000983,312.229545 C401.395797,311.837496 402.034413,311.837496 402.425588,312.229545 L414.806738,324.5827 C414.961389,324.735163 415.163344,324.840435 415.379855,324.869476 C417.572256,325.154437 419.297065,324.564549 420.634339,322.75314 C420.929085,322.357462 420.878141,321.800245 420.528812,321.453572 L404.932748,305.895059 C404.539754,305.503011 404.539754,304.867747 404.932748,304.475699 L406.883166,302.528162 C407.276161,302.136114 407.912957,302.134298 408.305952,302.528162 L424.749866,318.932483 C424.966377,319.148473 425.27022,319.253745 425.574063,319.224705 C427.475356,319.039571 429.116473,317.752708 429.778741,316.209925 C429.937031,315.841472 429.836963,315.413123 429.553133,315.128162 C425.825143,311.412777 413.938875,299.555128 410.904083,296.527643 C410.511089,296.135595 410.511089,295.500331 410.904083,295.108283 L412.854501,293.158931 C413.247496,292.766883 413.882473,292.763253 414.275468,293.155301 C417.21383,296.086589 428.463301,307.308974 432.553356,311.389182 C432.815352,311.648732 433.19925,311.744929 433.554037,311.639657 C436.133974,310.882786 437.30568,308.73015 437.420303,306.924186 C437.453053,306.39964 437.876978,305.987626 438.404609,305.978551 L440.748022,305.940435 C441.324778,305.93136 441.808743,306.408715 441.772355,306.985897 C441.557663,310.341904 439.636356,314.276909 435.029586,315.777946 C434.698452,315.886848 434.430997,316.139139 434.349123,316.474921 C433.63773,319.311827 431.017766,323.097998 425.779657,323.588058 C425.421232,323.620729 425.106472,323.833088 424.944544,324.152535 C422.159012,329.572241 416.089429,330.66308 411.804696,328.209147 C411.428076,327.994973 410.951388,328.036719 410.63117,328.327125 C408.129468,330.623149 402.381922,332.824791 397.78243,328.234558 L394.993259,325.455733 C394.622098,325.085465 394.598445,324.491948 394.935038,324.094454 L396.479725,322.286675 C396.861803,321.840176 397.542266,321.81295 397.958913,322.226779 L400.880901,325.145362 Z M443.273012,264.119942 C448.834977,269.178456 460.197252,293.276727 460.197252,293.276727 C454.777202,300.467911 443.487703,302.553391 436.304635,301.758404 L410.739972,278.162898 C405.325379,279.113979 400.534847,279.600409 396.592165,279.600409 C390.386125,279.600409 386.283334,278.393408 385.142558,275.88684 C383.685203,272.679666 385.479151,269.245612 388.17735,268.042241 L406.051327,261.729536 C409.377226,260.73671 411.265784,261.101533 413.59646,261.961861 L429.667393,267.871628 L443.273012,264.119942 Z M388.395498,303.659113 C390.562427,306.223763 389.516261,309.091524 387.727772,311.022725 C390.109392,310.340271 391.897881,311.520046 392.49647,312.044592 C394.925395,314.173633 395.31839,317.133961 393.588122,319.330158 L390.797132,322.502846 C388.848534,324.719009 386.758021,324.662743 384.965893,323.655396 C377.175138,319.263002 367.29569,308.757557 363.673226,299.55894 C362.556102,296.723849 361.990263,295.251852 363.767836,292.995759 L365.556325,291.093598 C367.288413,289.470954 370.661616,288.447272 373.116013,290.409329 C374.167638,291.249692 374.862656,292.364126 375.148305,293.552976 C376.725742,292.295154 379.942475,292.674497 381.485343,293.974065 C384.327276,296.366286 384.076197,299.524454 382.524232,301.553668 C385.155112,300.74053 387.087336,302.110884 388.395498,303.659113 Z" id="print-icon-08"></path>
                </g>
            </g>
        </g>
    </g>
</svg>