<?xml version="1.0" encoding="UTF-8"?>
<svg width="83px" height="67px" viewBox="0 0 83 67" version="1.1" xmlns="http://www.w3.org/2000/svg" xmlns:xlink="http://www.w3.org/1999/xlink">
    <!-- Generator: Sketch 43.2 (39069) - http://www.bohemiancoding.com/sketch -->
    <title>print-icon-01</title>
    <desc>Created with Sketch.</desc>
    <defs></defs>
    <g id="Pages" stroke="none" stroke-width="1" fill="none" fill-rule="evenodd">
        <g id="Web" transform="translate(-392.000000, -5908.000000)" fill="#727A80">
            <g id="Iconography" transform="translate(375.000000, 5647.000000)">
                <g id="Selecting-Icons" transform="translate(0.000000, 135.000000)">
                    <path d="M22.5688227,133.173249 C22.5688227,129.210607 25.7641359,126 29.7116442,126 C33.6591526,126 36.8574988,129.210607 36.8574988,133.173249 C36.8574988,137.137412 33.6591526,140.34802 29.7116442,140.34802 C25.7641359,140.34802 22.5688227,137.137412 22.5688227,133.173249 Z M57.385149,135.438942 C57.385149,131.630056 60.4636899,128.538191 64.2610625,128.538191 C68.0584352,128.538191 71.1354595,131.630056 71.1354595,135.438942 C71.1354595,139.253917 68.0584352,142.345782 64.2610625,142.345782 C60.4636899,142.345782 57.385149,139.253917 57.385149,135.438942 Z M88.0548474,159.977633 C88.0548474,157.461211 90.0915373,155.416713 92.5953162,155.416713 C95.1036446,155.416713 97.1388179,157.461211 97.1388179,159.977633 C97.1388179,162.498622 95.1036446,164.538553 92.5953162,164.538553 C90.0915373,164.538553 88.0548474,162.498622 88.0548474,159.977633 Z M94.1045595,165.695376 C97.5425162,165.695376 99.369926,166.780802 99.369926,170.72822 L99.3532442,178.451032 C99.3532442,179.591262 98.2886454,180.638629 97.0496464,180.49553 L97.0496464,190.69975 C97.0496464,191.97699 96.0244771,193 94.7612138,193 C93.4934008,193 92.466715,191.97699 92.466715,190.69975 C92.466715,191.97699 91.4430623,193 90.1752494,193 C88.9104695,193 87.8837837,191.97699 87.8837837,190.69975 L87.870135,170.612522 C86.599289,170.42223 84.4321782,169.960962 81.9632794,168.601516 C81.6144792,169.087141 81.1109937,169.484471 80.4664716,169.747835 C78.6633262,170.478557 76.9147756,169.69912 76.1898778,167.89363 L72.5972357,159.382247 L72.5972357,188.938407 C72.5972357,191.18233 70.871433,193 68.7467848,193 C66.6206201,193 64.8978504,191.18233 64.8978504,188.938407 C64.8978504,191.18233 63.1705311,193 61.0428499,193 C58.9166852,193 57.1939155,191.18233 57.1939155,188.938407 L57.1666181,159.161509 L53.4860177,167.89363 C52.7565703,169.69912 51.0095362,170.478557 49.2079074,169.747835 C48.4132495,169.423578 47.843037,168.893805 47.4987864,168.254423 C47.2182297,168.482774 46.9088591,168.6822 46.5388276,168.829866 C44.6674386,169.589512 42.849128,168.782674 42.0908667,166.907156 L38.1372922,157.523475 L38.1069618,188.773994 C38.1069618,191.115348 36.2234407,193 33.8955785,193 C31.5707493,193 29.6841952,191.115348 29.6841952,188.773994 C29.6841952,191.115348 27.794608,193 25.4712953,193 C23.1464662,193 21.2614286,191.115348 21.2614286,188.773994 L21.2614286,170.018811 C18.8486411,170.236505 17.03488,168.354897 17.03488,166.261685 L17,152.071988 C17,144.815011 20.3575811,142.187459 26.6769308,142.187459 L32.7506039,142.187459 C37.4973197,142.187459 40.5728276,143.670214 41.81031,147.488234 L48.1205606,163.624999 L54.1153746,148.302684 C55.1026308,146.008523 57.1711676,144.117781 62.0938,144.117781 L67.6442728,144.117781 C71.8677883,144.117781 74.3958315,145.745159 75.1813902,147.492801 L81.402166,163.242892 C84.0363658,164.673888 88.1324934,165.964829 91.4203144,165.695376 L94.1045595,165.695376 Z" id="print-icon-01"></path>
                </g>
            </g>
        </g>
    </g>
</svg>