<?xml version="1.0" encoding="UTF-8"?>
<svg width="74px" height="80px" viewBox="0 0 74 80" version="1.1" xmlns="http://www.w3.org/2000/svg" xmlns:xlink="http://www.w3.org/1999/xlink">
    <!-- Generator: Sketch 43.2 (39069) - http://www.bohemiancoding.com/sketch -->
    <title>print-icon-02</title>
    <desc>Created with Sketch.</desc>
    <defs></defs>
    <g id="Pages" stroke="none" stroke-width="1" fill="none" fill-rule="evenodd">
        <g id="Web" transform="translate(-571.000000, -5898.000000)" fill="#727A80">
            <g id="Iconography" transform="translate(375.000000, 5647.000000)">
                <g id="Selecting-Icons" transform="translate(0.000000, 135.000000)">
                    <path d="M220.05789,183.676112 C222.028868,183.676112 223.625343,185.272586 223.625343,187.243565 C223.625343,189.214543 222.028868,190.811018 220.05789,190.811018 C218.086912,190.811018 216.490437,189.214543 216.490437,187.243565 C216.490437,185.272586 218.086912,183.676112 220.05789,183.676112 M229.779155,153.555838 C229.779155,146.821809 238.626579,150.52992 238.86394,145.246433 L238.860424,144.993247 C238.860424,144.991489 238.858666,144.989731 238.856907,144.989731 L238.136032,145.520717 C233.851221,145.520717 232.718919,143.331718 232.472767,141.773924 C236.177362,140.094813 236.175603,132.861446 236.309229,131.845188 C236.833182,127.859275 240.078879,125.672035 243.516222,125.740606 C246.953566,125.672035 250.197504,127.859275 250.721458,131.845188 C250.855083,132.861446 250.855083,140.094813 254.55792,141.773924 C254.313526,143.331718 253.179466,145.520717 248.896413,145.520717 L248.175537,144.989731 C248.173779,144.989731 248.172021,144.991489 248.170263,144.993247 L248.168505,145.246433 C248.405866,150.52992 257.25329,146.821809 257.25329,153.555838 C257.25329,158.58614 229.779155,158.577348 229.779155,153.555838 M202.54414,194.999126 C214.181878,196.333625 225.933901,196.333625 237.57164,194.999126 C241.188323,194.570118 244.11578,190.972775 244.11578,187.169719 L244.11578,171.568925 L244.11578,169.777287 L244.11578,167.98389 C250.568491,167.836199 256.975489,165.307861 261.900297,160.384811 C272.054088,150.231021 272.054088,133.768694 261.900297,123.614903 C256.824281,118.538887 250.169373,116 243.516222,116 C237.641969,116 231.771232,117.979769 226.981808,121.935792 C226.345328,122.461503 225.72643,123.018863 225.130389,123.614903 C222.962489,125.784562 221.258762,128.240812 220.015692,130.864094 C216.356811,138.58625 216.717249,147.739606 221.098763,155.180444 L217.673727,167.843232 L230.334756,164.416437 C232.759358,165.844122 235.365058,166.841039 238.044604,167.415981 L238.044604,169.246301 L238.044604,171.073104 L238.044604,180.173713 L202.071175,180.173713 L202.071175,130.864094 L216.101868,130.864094 C217.438124,127.574442 219.384487,124.492261 221.912825,121.791617 C215.447805,121.714254 208.977511,122.041285 202.54414,122.779743 C198.927456,123.208752 196,126.806094 196,130.60915 L196,187.169719 C196,190.972775 198.927456,194.570118 202.54414,194.999126" id="print-icon-02"></path>
                </g>
            </g>
        </g>
    </g>
</svg>