<?xml version="1.0" encoding="UTF-8"?>
<svg width="93px" height="74px" viewBox="0 0 93 74" version="1.1" xmlns="http://www.w3.org/2000/svg" xmlns:xlink="http://www.w3.org/1999/xlink">
    <!-- Generator: Sketch 43.2 (39069) - http://www.bohemiancoding.com/sketch -->
    <title>tone-and-voice-icon</title>
    <desc>Created with Sketch.</desc>
    <defs>
        <polygon id="path-1" points="0.0925381219 53.0874301 52.4208419 53.0874301 52.4208419 0.687152193 0.0925381219 0.687152193"></polygon>
    </defs>
    <g id="Pages" stroke="none" stroke-width="1" fill="none" fill-rule="evenodd">
        <g id="Voice-and-Tone" transform="translate(-561.000000, -191.000000)">
            <g id="Hero-Banner" transform="translate(-29.000000, -25.000000)">
                <g id="Group-7" transform="translate(255.000000, 216.000000)">
                    <g id="tone-and-voice-icon" transform="translate(335.000000, 0.000000)">
                        <g id="Group-3" transform="translate(0.000000, 0.235092)" fill="#E7E7E8">
                            <path d="M3.7159894,69.7833288 L9.43383456,56.9691516 C4.16735237,56.5857545 0.000522814248,52.174945 0.000522814248,46.8073853 L0.000522814248,10.7576002 C0.000522814248,5.1408325 4.56991934,0.571435973 10.1849444,0.571435973 L46.2382149,0.571435973 C51.8549826,0.571435973 56.4243792,5.1408325 56.4243792,10.7576002 L56.4243792,46.8073853 C56.4243792,52.4276385 51.8549826,56.9987777 46.2382149,56.9987777 L37.2492953,56.9987777 L3.7159894,69.7833288 Z M10.1849444,5.41792405 C7.24150015,5.41792405 4.84875361,7.81241331 4.84875361,10.7576002 L4.84875361,46.8073853 C4.84875361,49.7560577 7.24150015,52.150547 10.1849444,52.150547 L16.8926512,52.150547 L12.9018357,61.094156 L36.3570256,52.150547 L46.2382149,52.150547 C49.1799164,52.150547 51.5761484,49.7560577 51.5761484,46.8073853 L51.5761484,10.7576002 C51.5761484,7.81241331 49.1799164,5.41792405 46.2382149,5.41792405 L10.1849444,5.41792405 Z" id="Fill-1"></path>
                        </g>
                        <g id="Group-6" transform="translate(40.082426, 20.341657)">
                            <mask id="mask-2" fill="white">
                                <use xlink:href="#path-1"></use>
                            </mask>
                            <g id="Clip-5"></g>
                            <path d="M22.8140453,0.687152193 C21.7562178,0.687152193 20.7123321,0.734205475 19.6841307,0.823083898 L19.6841307,26.7023892 C19.6841307,34.1629485 13.6125146,40.2328219 6.15544068,40.2328219 L0.0925381219,40.2328219 C5.52283544,45.5184739 13.6822231,48.8819123 22.8140453,48.8819123 C25.187622,48.8819123 27.498461,48.6536167 29.711708,48.2161955 C32.8433653,48.9829897 43.5924263,53.5750415 44.3243662,53.0452564 C45.0719906,52.5032723 40.1836774,44.3038022 40.5287348,44.0929338 C47.7487995,39.6995514 52.4210162,32.6851269 52.4210162,24.7801754 C52.4210162,11.4745528 39.1624469,0.687152193 22.8140453,0.687152193 Z" id="Fill-4" fill="#E7E7E8" mask="url(#mask-2)"></path>
                        </g>
                        <path d="M44.4808619,29.3140206 C44.4808619,31.5882626 42.6388131,33.4285687 40.3663138,33.4285687 C38.0938145,33.4285687 36.2517657,31.5882626 36.2517657,29.3140206 C36.2517657,27.0397786 38.0938145,25.1994725 40.3663138,25.1994725 C42.6388131,25.1994725 44.4808619,27.0397786 44.4808619,29.3140206" id="Fill-7" fill="#E7E7E8"></path>
                        <path d="M32.3261278,29.3140206 C32.3261278,31.5882626 30.4840789,33.4285687 28.2098369,33.4285687 C25.9390804,33.4285687 24.0952888,31.5882626 24.0952888,29.3140206 C24.0952888,27.0397786 25.9390804,25.1994725 28.2098369,25.1994725 C30.4840789,25.1994725 32.3261278,27.0397786 32.3261278,29.3140206" id="Fill-9" fill="#E7E7E8"></path>
                        <path d="M20.1722649,29.3140206 C20.1722649,31.5882626 18.3302161,33.4285687 16.0577168,33.4285687 C13.7834748,33.4285687 11.9431687,31.5882626 11.9431687,29.3140206 C11.9431687,27.0397786 13.7834748,25.1994725 16.0577168,25.1994725 C18.3302161,25.1994725 20.1722649,27.0397786 20.1722649,29.3140206" id="Fill-11" fill="#E7E7E8"></path>
                    </g>
                </g>
            </g>
        </g>
    </g>
</svg>