<?xml version="1.0" encoding="UTF-8"?>
<svg width="167px" height="65px" viewBox="0 0 167 65" version="1.1" xmlns="http://www.w3.org/2000/svg" xmlns:xlink="http://www.w3.org/1999/xlink">
    <!-- Generator: Sketch 43.2 (39069) - http://www.bohemiancoding.com/sketch -->
    <title>unum-logo-white-tag</title>
    <desc>Created with Sketch.</desc>
    <defs></defs>
    <g id="Pages" stroke="none" stroke-width="1" fill="none" fill-rule="evenodd">
        <g id="Print" transform="translate(-432.000000, -1398.000000)" fill="#FFFFFF">
            <g id="Logo" transform="translate(378.000000, 566.000000)">
                <g id="with-tagline" transform="translate(2.000000, 712.000000)">
                    <g id="unum-logo-white-tag" transform="translate(52.000000, 120.000000)">
                        <path d="M74.8906649,44.8948174 C86.057849,44.8948174 88.5741604,37.603242 88.5741604,32.5974505 L88.5741604,17.8564003 L80.3404902,17.8564003 L80.3404902,32.0354033 C80.3404902,35.9227397 78.1665469,37.6220396 74.8906649,37.6220396 C71.6072995,37.6220396 69.435227,35.9227397 69.435227,32.0354033 L69.435227,17.8564003 L61.2015569,17.8564003 L61.2015569,32.5974505 C61.2015569,37.603242 63.7159974,44.8948174 74.8906649,44.8948174" id="Fill-1"></path>
                        <path d="M27.3763452,32.5974505 L27.3763452,17.8564003 L19.1445459,17.8564003 L19.1445459,32.0354033 C19.1445459,35.9227397 16.9687317,37.6220396 13.6909789,37.6220396 C10.4094844,37.6220396 8.23179929,35.9227397 8.23179929,32.0354033 L8.23179929,17.8564003 L0,17.8564003 L0,32.5974505 C0,37.603242 2.52379483,44.8948174 13.6909789,44.8948174 C24.8600339,44.8948174 27.3763452,37.603242 27.3763452,32.5974505 Z" id="Fill-2"></path>
                        <path d="M44.2908219,16.831933 C33.1198961,16.831933 30.599843,24.1216286 30.599843,29.1274201 L30.599843,43.8684703 L38.835384,43.8684703 L38.835384,29.6857078 C38.835384,25.8077702 41.0093274,24.1047108 44.2908219,24.1047108 C47.5704456,24.1047108 49.7425181,25.8077702 49.7425181,29.6857078 L49.7425181,43.8684703 L57.9761882,43.8684703 L57.9761882,29.1274201 C57.9761882,24.1216286 55.458006,16.831933 44.2908219,16.831933" id="Fill-3"></path>
                        <path d="M104.063039,16.831933 C97.2007119,16.831933 91.7976581,20.2718874 91.7976581,28.5841705 L91.7976581,43.8684703 L99.8461128,43.8684703 L99.8461128,28.5691324 C99.8461128,25.8904795 101.211843,23.8377854 104.534497,23.8377854 C107.864634,23.8377854 109.226622,25.8904795 109.226622,28.5691324 L109.226622,43.8684703 L117.276948,43.8684703 L117.276948,28.5691324 C117.276948,25.8904795 118.638936,23.8377854 121.965332,23.8377854 C125.293598,23.8377854 126.657457,25.8904795 126.657457,28.5691324 L126.657457,43.8684703 L134.70217,43.8684703 L134.70217,28.5841705 C134.70217,20.2718874 129.297246,16.831933 122.43866,16.831933 C115.711035,16.831933 113.606314,20.5331735 113.254591,21.0087519 C112.899127,20.5331735 110.800018,16.831933 104.063039,16.831933 Z" id="Fill-4"></path>
                        <path d="M44.2870802,13.5461187 C48.0250654,13.5461187 50.9641919,10.6550533 50.9641919,6.89554033 C50.9641919,3.14166667 48.0250654,0.252480974 44.2870802,0.252480974 C40.5135486,0.252480974 37.520167,3.14166667 37.520167,6.89554033 C37.520167,10.6550533 40.5135486,13.5461187 44.2870802,13.5461187 Z" id="Fill-5"></path>
                        <path d="M68.1143974,6.89554033 C68.1143974,10.6550533 71.1115207,13.5461187 74.8869232,13.5461187 C78.6230376,13.5461187 81.5621641,10.6550533 81.5621641,6.89554033 C81.5621641,3.14166667 78.6230376,0.252480974 74.8869232,0.252480974 C71.1115207,0.252480974 68.1143974,3.14166667 68.1143974,6.89554033" id="Fill-6"></path>
                        <path d="M106.482066,6.89554033 C106.482066,10.6550533 109.479189,13.5461187 113.254591,13.5461187 C116.990706,13.5461187 119.929832,10.6550533 119.929832,6.89554033 C119.929832,3.14166667 116.990706,0.252480974 113.254591,0.252480974 C109.479189,0.252480974 106.482066,3.14166667 106.482066,6.89554033" id="Fill-7"></path>
                        <path d="M137.048233,17.6703044 C136.926627,17.6703044 136.814375,17.6947412 136.726445,17.7191781 L136.726445,18.8959056 L136.975269,18.8959056 C137.416793,18.8959056 137.761032,18.7342466 137.761032,18.2436301 C137.761032,17.7830898 137.368151,17.6703044 137.048233,17.6703044 Z M137.841479,20.6854338 L136.823729,19.2023059 L136.726445,19.2023059 L136.726445,20.6854338 L136.269954,20.6854338 L136.269954,17.4616514 C136.485103,17.3563851 136.78257,17.2905936 137.087521,17.2905936 C137.761032,17.2905936 138.23436,17.6703044 138.23436,18.2436301 C138.23436,18.7981583 137.841479,19.1139574 137.312025,19.1684703 L138.395255,20.6854338 L137.841479,20.6854338 Z M137.199773,16.6232801 C135.85088,16.6232801 134.777005,17.7266971 134.777005,19.0726027 C134.777005,20.4109893 135.85088,21.4993683 137.199773,21.4993683 C138.539311,21.4993683 139.615058,20.4109893 139.615058,19.0726027 C139.615058,17.7266971 138.539311,16.6232801 137.199773,16.6232801 Z M137.199773,21.918554 C135.626377,21.918554 134.359802,20.6534779 134.359802,19.0726027 C134.359802,17.4936073 135.626377,16.2116134 137.199773,16.2116134 C138.763815,16.2116134 140.039744,17.4936073 140.039744,19.0726027 C140.039744,20.6534779 138.763815,21.918554 137.199773,21.918554 L137.199773,21.918554 Z" id="Fill-8"></path>
                        <path d="M32.8504918,60.2749848 L31.3332215,60.2749848 L31.3332215,63.7450152 L32.7606903,63.7450152 C34.1189372,63.7450152 34.8635409,62.9630365 34.8635409,61.9348097 C34.8635409,61.0137291 34.0740365,60.2749848 32.8504918,60.2749848 Z M32.5829583,56.0680898 L31.3332215,56.0680898 L31.3332215,59.2993912 L32.5698622,59.2993912 C33.422976,59.2993912 34.3078944,58.7260654 34.3078944,57.5662557 C34.3078944,56.6414155 33.7503771,56.0680898 32.5829583,56.0680898 Z M32.6746306,64.7431659 L30.2630876,64.7431659 L30.2630876,55.0680594 L32.792495,55.0680594 C34.6128452,55.0680594 35.464088,56.2222298 35.464088,57.4816667 C35.464088,58.3914688 35.067465,59.2148021 34.1619671,59.6076712 L34.1619671,59.6358676 C35.067465,59.7674505 36.0309597,60.6171005 36.0309597,61.9084932 C36.0309597,63.2130441 35.2582931,64.7431659 32.6746306,64.7431659 L32.6746306,64.7431659 Z" id="Fill-9"></path>
                        <path d="M64.310932,58.8689269 C64.1631338,58.814414 63.9461136,58.7542618 63.680451,58.7542618 C63.2202186,58.7542618 62.7188272,59.030586 62.1332469,59.5888737 L62.1332469,64.7431659 L61.0668547,64.7431659 L61.0668547,57.8012253 L62.0397037,57.8012253 L62.090217,58.5944825 C63.0406157,57.7279148 63.5625866,57.6207686 64.0041104,57.6207686 C64.3707996,57.6207686 64.6327205,57.7410731 64.7636809,57.8331811 L64.310932,58.8689269" id="Fill-10"></path>
                        <path d="M71.4276966,58.6226788 C70.6999307,58.6226788 70.3182746,58.8275723 70.0095821,58.9723135 L70.0095821,63.7694521 C70.3182746,63.9029148 70.65503,63.9611872 71.1040372,63.9611872 C72.464155,63.9611872 73.5436432,62.6867123 73.5436432,61.0720015 C73.5436432,59.6358676 72.7990396,58.6226788 71.4276966,58.6226788 Z M70.8720502,64.8860274 C69.9104264,64.8860274 69.2537533,64.6510578 68.9469317,64.4461644 L68.9469317,54.3537519 L70.0095821,54.3537519 L70.0095821,57.9440868 C70.4960066,57.7598706 70.9880437,57.6207686 71.5754948,57.6207686 C73.1675997,57.6207686 74.6119063,58.7260654 74.6119063,61.0268874 C74.6119063,63.461172 72.8869701,64.8860274 70.8720502,64.8860274 L70.8720502,64.8860274 Z" id="Fill-12"></path>
                        <path d="M88.168183,64.7431659 L88.168183,60.4704795 C88.168183,59.6076712 88.0222557,58.6339574 86.9689595,58.6339574 C86.1214584,58.6339574 85.3469209,59.239239 84.8286917,59.6960198 L84.8286917,64.7431659 L83.7585578,64.7431659 L83.7585578,57.8012253 L84.7257942,57.8012253 L84.783791,58.6339574 C85.5414907,58.0455936 86.2860944,57.6207686 87.2514599,57.6207686 C88.237405,57.6207686 89.2345752,58.3444749 89.2345752,60.0738508 L89.2345752,64.7431659 L88.168183,64.7431659" id="Fill-13"></path>
                        <path d="M93.8930252,58.5305708 C92.8752755,58.5305708 92.2316985,59.4460122 92.2316985,60.54379 L95.4795175,60.54379 C95.4795175,59.5775951 94.9425797,58.5305708 93.8930252,58.5305708 Z M92.2129898,61.4535921 C92.2129898,62.7750609 92.9763021,63.9611872 94.4598969,63.9611872 C95.088507,63.9611872 95.732084,63.7074201 96.1418031,63.4480137 L96.5028798,64.2506697 C96.3064391,64.3653349 95.5524811,64.8860274 94.3289364,64.8860274 C92.128801,64.8860274 91.0773757,63.105898 91.0773757,61.1265145 C91.0773757,59.1189346 92.2129898,57.6207686 93.8761875,57.6207686 C95.6591204,57.6207686 96.6338402,59.0531431 96.6338402,61.2035845 L96.6338402,61.4535921 L92.2129898,61.4535921 L92.2129898,61.4535921 Z" id="Fill-14"></path>
                        <path d="M79.1543628,58.5305708 C78.1310005,58.5305708 77.4911652,59.4460122 77.4911652,60.54379 L80.7483385,60.54379 C80.7483385,59.5775951 80.2095298,58.5305708 79.1543628,58.5305708 Z M77.4761982,61.4535921 C77.4761982,62.7750609 78.2357688,63.9611872 79.7212344,63.9611872 C80.3498445,63.9611872 80.9934216,63.7074201 81.399399,63.4480137 L81.7604756,64.2506697 C81.5677767,64.3653349 80.8194313,64.8860274 79.5884031,64.8860274 C77.3863968,64.8860274 76.3368424,63.105898 76.3368424,61.1265145 C76.3368424,59.1189346 77.4761982,57.6207686 79.137525,57.6207686 C80.9204579,57.6207686 81.8989195,59.0531431 81.8989195,61.2035845 L81.8989195,61.4535921 L77.4761982,61.4535921 L77.4761982,61.4535921 Z" id="Fill-15"></path>
                        <path d="M56.4907226,58.5305708 C55.471102,58.5305708 54.8237833,59.4460122 54.8237833,60.54379 L58.0809566,60.54379 C58.0809566,59.5775951 57.5346645,58.5305708 56.4907226,58.5305708 Z M54.8106872,61.4535921 C54.8106872,62.7750609 55.5702578,63.9611872 57.0594651,63.9611872 C57.6843335,63.9611872 58.3241688,63.7074201 58.7376297,63.4480137 L59.0987063,64.2506697 C58.9022657,64.3653349 58.1483077,64.8860274 56.9285047,64.8860274 C54.7246275,64.8860274 53.6732022,63.105898 53.6732022,61.1265145 C53.6732022,59.1189346 54.8106872,57.6207686 56.4738849,57.6207686 C58.2512052,57.6207686 59.2352794,59.0531431 59.2352794,61.2035845 L59.2352794,61.4535921 L54.8106872,61.4535921 L54.8106872,61.4535921 Z" id="Fill-16"></path>
                        <path d="M40.1730514,58.5305708 C39.1496891,58.5305708 38.5079829,59.4460122 38.5079829,60.54379 L41.7632854,60.54379 C41.7632854,59.5775951 41.2226058,58.5305708 40.1730514,58.5305708 Z M38.4948869,61.4535921 C38.4948869,62.7750609 39.2544574,63.9611872 40.7436648,63.9611872 C41.3685332,63.9611872 42.0102393,63.7074201 42.4199584,63.4480137 L42.7791642,64.2506697 C42.5883362,64.3653349 41.8343782,64.8860274 40.6108335,64.8860274 C38.4032146,64.8860274 37.3536602,63.105898 37.3536602,61.1265145 C37.3536602,59.1189346 38.4948869,57.6207686 40.1580845,57.6207686 C41.9410174,57.6207686 42.9157373,59.0531431 42.9157373,61.2035845 L42.9157373,61.4535921 L38.4948869,61.4535921 L38.4948869,61.4535921 Z" id="Fill-17"></path>
                        <path d="M112.225616,64.8860274 C111.23593,64.8860274 110.62977,64.6228615 110.182634,64.3578158 L110.592353,63.5213242 C110.910399,63.7299772 111.510947,64.0194597 112.270517,64.0194597 C113.118018,64.0194597 113.731662,63.6341096 113.731662,62.9949924 C113.731662,61.2956925 110.592353,61.8896956 110.592353,59.4892466 C110.592353,58.4647793 111.305152,57.6207686 112.88416,57.6207686 C113.611926,57.6207686 114.169444,57.7861872 114.620322,57.9873212 L114.620322,58.9271994 C114.137639,58.7260654 113.639989,58.5174125 112.92719,58.5174125 C112.225616,58.5174125 111.645649,58.7692998 111.645649,59.400898 C111.645649,60.9535769 114.835471,60.5569482 114.835471,62.8295738 C114.835471,64.2845053 113.697986,64.8860274 112.225616,64.8860274" id="Fill-18"></path>
                        <path d="M123.568662,61.4122374 L122.274024,61.4535921 C120.988741,61.4968265 120.463028,61.9197717 120.463028,62.7318265 C120.463028,63.3878615 120.897069,63.9611872 121.806308,63.9611872 C122.709935,63.9611872 123.246873,63.5062861 123.568662,63.1716895 L123.568662,61.4122374 Z M123.907288,64.7431659 L123.626658,64.0608143 C123.205714,64.4743607 122.534074,64.8860274 121.514454,64.8860274 C120.390065,64.8860274 119.394765,64.0739726 119.394765,62.7600228 C119.394765,61.3990791 120.345164,60.5569482 122.165514,60.4986758 L123.568662,60.4554414 L123.568662,60.0136986 C123.568662,58.945997 122.990565,58.5493683 122.11313,58.5493683 C121.325496,58.5493683 120.736174,58.8614079 120.2722,59.1997641 L119.834418,58.4177854 C120.620181,57.8594977 121.379751,57.6207686 122.223511,57.6207686 C123.568662,57.6207686 124.638796,58.1940944 124.638796,59.9704642 L124.638796,62.0851903 C124.638796,64.0457763 124.696792,64.5194749 124.780981,64.7431659 L123.907288,64.7431659 L123.907288,64.7431659 Z" id="Fill-19"></path>
                        <polyline id="Fill-20" points="141.85261 64.7826408 140.859182 64.7826408 139.167921 59.239239 139.123021 59.239239 137.398085 64.7826408 136.423365 64.7826408 134.142782 57.8012253 135.250333 57.8012253 136.913531 63.2562785 136.964044 63.2562785 138.640338 57.8012253 139.686151 57.8012253 141.360573 63.2713166 141.399861 63.2713166 143.029384 57.8012253 144.099517 57.8012253 141.85261 64.7826408"></polyline>
                        <path d="M148.211675,58.5305708 C146.905813,58.5305708 146.168692,59.5888737 146.168692,61.2374201 C146.168692,62.874688 146.935746,63.9611872 148.226642,63.9611872 C149.508184,63.9611872 150.282721,62.874688 150.282721,61.2374201 C150.282721,59.5888737 149.534376,58.5305708 148.211675,58.5305708 Z M150.381877,64.0194597 C149.848681,64.5777473 149.083498,64.8860274 148.196708,64.8860274 C147.330499,64.8860274 146.591508,64.5965449 146.050828,64.0307382 C145.422218,63.3878615 145.083592,62.4085084 145.083592,61.2618569 C145.083592,60.1170852 145.433443,59.1584094 146.050828,58.5174125 C146.602733,57.9440868 147.345466,57.6207686 148.211675,57.6207686 C149.098465,57.6207686 149.848681,57.9440868 150.400586,58.5174125 C151.014229,59.1584094 151.360339,60.1170852 151.360339,61.2618569 C151.360339,62.4085084 151.014229,63.3728234 150.381877,64.0194597 L150.381877,64.0194597 Z" id="Fill-21"></path>
                        <path d="M156.312514,58.8689269 C156.170329,58.814414 155.945825,58.7542618 155.683904,58.7542618 C155.216188,58.7542618 154.726022,59.030586 154.142313,59.5888737 L154.142313,64.7431659 L153.070308,64.7431659 L153.070308,57.8012253 L154.035673,57.8012253 L154.097412,58.5944825 C155.047811,57.7279148 155.569781,57.6207686 156.001951,57.6207686 C156.366769,57.6207686 156.634303,57.7410731 156.765263,57.8331811 L156.312514,58.8689269" id="Fill-22"></path>
                        <path d="M46.7584908,64.8860274 C45.5761051,64.8860274 45.0560051,64.2506697 45.0560051,63.2055251 L45.0560051,58.6809513 L43.9297453,58.6809513 L43.9297453,57.8012253 L45.0560051,57.8012253 L45.0560051,56.2805023 L46.1223973,55.9101903 L46.1223973,57.8012253 L48.0643535,57.8012253 L47.6864391,58.6809513 L46.1223973,58.6809513 L46.1223973,63.0607839 C46.1223973,63.6717047 46.3281922,63.9611872 47.0353786,63.9611872 C47.5461244,63.9611872 47.9614561,63.7694521 48.0643535,63.7299772 L48.3543374,64.5157154 C48.2383439,64.5739878 47.6209589,64.8860274 46.7584908,64.8860274" id="Fill-23"></path>
                        <path d="M51.6807326,64.8860274 C50.5020887,64.8860274 49.976376,64.2506697 49.976376,63.2055251 L49.976376,58.6809513 L48.8557288,58.6809513 L48.8557288,57.8012253 L49.976376,57.8012253 L49.976376,56.2805023 L51.0465099,55.9101903 L51.0465099,57.8012253 L52.9847245,57.8012253 L52.6105518,58.6809513 L51.0465099,58.6809513 L51.0465099,63.0607839 C51.0465099,63.6717047 51.250434,63.9611872 51.9576204,63.9611872 C52.4683662,63.9611872 52.8874396,63.7694521 52.9847245,63.7299772 L53.2840626,64.5157154 C53.1605857,64.5739878 52.5432007,64.8860274 51.6807326,64.8860274" id="Fill-24"></path>
                        <path d="M107.8347,64.8860274 C106.654185,64.8860274 106.132214,64.2506697 106.132214,63.2055251 L106.132214,58.6809513 L105.005954,58.6809513 L105.005954,57.8012253 L106.132214,57.8012253 L106.132214,56.2805023 L107.194865,55.9101903 L107.194865,57.8012253 L109.310811,57.8012253 L108.931026,58.6809513 L107.194865,58.6809513 L107.194865,63.0607839 C107.194865,63.6717047 107.40253,63.9611872 108.107846,63.9611872 C108.620463,63.9611872 109.032052,63.7694521 109.13495,63.7299772 L109.430546,64.5157154 C109.314553,64.5739878 108.697168,64.8860274 107.8347,64.8860274" id="Fill-25"></path>
                        <path d="M128.818305,64.8860274 C127.639661,64.8860274 127.115819,64.2506697 127.115819,63.2055251 L127.115819,58.6809513 L125.995172,58.6809513 L125.995172,57.8012253 L127.115819,57.8012253 L127.115819,56.2805023 L128.184082,55.9101903 L128.184082,57.8012253 L130.292545,57.8012253 L129.914631,58.6809513 L128.184082,58.6809513 L128.184082,63.0607839 C128.184082,63.6717047 128.391748,63.9611872 129.097063,63.9611872 C129.607809,63.9611872 130.028753,63.7694521 130.124167,63.7299772 L130.419764,64.5157154 C130.298158,64.5739878 129.684514,64.8860274 128.818305,64.8860274" id="Fill-26"></path>
                        <path d="M99.8236625,57.8049848 L99.8236625,56.7354033 C99.8236625,55.8763546 100.167901,55.256035 101.370867,55.256035 C102.035023,55.256035 102.605636,55.5135616 102.725372,55.5643151 L102.996647,54.6827093 C102.908716,54.6507534 102.188434,54.3612709 101.213714,54.3612709 C99.7394736,54.3612709 98.761012,55.0680594 98.761012,56.6733714 L98.761012,57.8049848 L97.8910605,57.8049848 L97.8910605,58.6847108 L98.761012,58.6847108 L98.761012,64.7356469 L99.8236625,64.7356469 L99.8236625,58.6847108 L102.444742,58.6847108 L102.444742,64.7356469 L103.507393,64.7356469 L103.507393,57.8049848 L99.8236625,57.8049848" id="Fill-27"></path>
                        <path d="M165.414265,64.9010654 C164.965258,64.9010654 164.621019,64.5345129 164.621019,64.0739726 C164.621019,63.6190715 164.965258,63.2562785 165.414265,63.2562785 C165.863272,63.2562785 166.200028,63.6190715 166.200028,64.0739726 C166.200028,64.5345129 165.863272,64.9010654 165.414265,64.9010654" id="Fill-28"></path>
                        <polyline id="Fill-29" points="162.009294 64.7431659 159.042104 61.1265145 159.027137 61.1265145 159.027137 64.7431659 157.964487 64.7431659 157.964487 54.3537519 159.027137 54.3537519 159.027137 60.2486682 159.042104 60.2486682 161.588349 57.8012253 162.969046 57.8012253 159.932635 60.6321385 163.36754 64.7431659 162.009294 64.7431659"></polyline>
                        <path d="M165.14299,64.9010654 C164.693983,64.9010654 164.355356,64.5345129 164.355356,64.0739726 C164.355356,63.6190715 164.693983,63.2562785 165.14299,63.2562785 C165.601351,63.2562785 165.932494,63.6190715 165.932494,64.0739726 C165.932494,64.5345129 165.601351,64.9010654 165.14299,64.9010654" id="Fill-30"></path>
                    </g>
                </g>
            </g>
        </g>
    </g>
</svg>