<?xml version="1.0" encoding="UTF-8"?>
<svg width="28px" height="32px" viewBox="0 0 28 32" version="1.1" xmlns="http://www.w3.org/2000/svg" xmlns:xlink="http://www.w3.org/1999/xlink">
    <!-- Generator: Sketch 50.2 (55047) - http://www.bohemiancoding.com/sketch -->
    <title>interface/actions/alert</title>
    <desc>Created with Sketch.</desc>
    <defs></defs>
    <g id="Icons" stroke="none" stroke-width="1" fill="none" fill-rule="evenodd">
        <g id="icons" transform="translate(-1549.000000, -108.000000)" fill="#FFFFFF" fill-rule="nonzero">
            <g id="Interface/actions/alert" transform="translate(1549.000000, 108.000000)">
                <path d="M11.375,3.82067921 C6.84627854,4.98271651 3.5,9.08144768 3.5,13.9631997 L3.5,20.1808039 C3.5,20.8240227 2.97601465,21.3454545 2.33455069,21.3454545 C1.04521392,21.3454545 0,22.3900254 0,23.6727273 C0,24.9580445 1.04653063,26 2.33910437,26 L25.6608956,26 C26.9527473,26 28,24.9554291 28,23.6727273 C28,22.38741 26.9498846,21.3454545 25.6654493,21.3454545 C25.0217895,21.3454545 24.5,20.8280659 24.5,20.1808039 L24.5,13.9631997 C24.5,9.08337978 21.1544195,4.98311145 16.625,3.82072279 L16.625,2.61867852 C16.625,1.1690169 15.4497475,0 14,0 C12.5532025,0 11.375,1.17242228 11.375,2.61867852 L11.375,3.82067921 Z M9.91666667,28 L18.0833333,28 C18.0833333,30.2493051 16.2551627,32 14,32 C11.7448373,32 9.91666667,30.2493051 9.91666667,28 Z"></path>
            </g>
        </g>
    </g>
</svg>