<?xml version="1.0" encoding="UTF-8"?>
<svg width="32px" height="32px" viewBox="0 0 32 32" version="1.1" xmlns="http://www.w3.org/2000/svg" xmlns:xlink="http://www.w3.org/1999/xlink">
    <!-- Generator: Sketch 50.2 (55047) - http://www.bohemiancoding.com/sketch -->
    <title>interface/actions/attach</title>
    <desc>Created with Sketch.</desc>
    <defs></defs>
    <g id="Icons" stroke="none" stroke-width="1" fill="none" fill-rule="evenodd">
        <g id="icons" transform="translate(-1354.000000, -228.000000)" fill="#FFFFFF" fill-rule="nonzero">
            <g id="Interface/actions/attach" transform="translate(1354.000000, 228.000000)">
                <path d="M23.9470199,0 C21.8278146,0 19.7792494,0.847682119 18.2251656,2.33112583 L2.33112583,18.2251656 C0.812362031,19.7439294 0,21.7571744 0,23.9470199 C0,26.0662252 0.847682119,28.1147903 2.33112583,29.6688742 C3.84988962,31.187638 5.86313466,32 8.05298013,32 C10.1721854,32 12.2207506,31.1523179 13.7748344,29.6688742 L24.5121413,18.9315673 C26.2781457,17.0242826 26.2428256,13.986755 24.3708609,12.0794702 C23.4525386,11.1611479 22.1810155,10.6313466 20.8741722,10.6313466 C19.5673289,10.6313466 18.3311258,11.1611479 17.3774834,12.0794702 L8.54746137,20.9094923 C7.80573951,21.6512141 7.80573951,22.781457 8.54746137,23.5231788 C9.28918322,24.2649007 10.419426,24.2649007 11.1611479,23.5231788 L19.99117,14.6931567 C20.4503311,14.2339956 21.3333333,14.2339956 21.7924945,14.6931567 C22.0397351,14.9403974 22.1456954,15.2582781 22.1456954,15.611479 C22.1456954,15.9646799 22.004415,16.2825607 21.7924945,16.5298013 L11.1611479,27.0551876 C10.3487859,27.9028698 9.25386313,28.3620309 8.05298013,28.3620309 C6.85209713,28.3620309 5.75717439,27.9028698 4.94481236,27.0551876 C4.13245033,26.2075055 3.63796909,25.1479029 3.63796909,23.9470199 C3.63796909,22.7461369 4.09713024,21.6512141 4.94481236,20.8388521 L20.8388521,4.94481236 C21.6865342,4.09713024 22.7461369,3.63796909 23.9470199,3.63796909 C25.1479029,3.63796909 26.2428256,4.09713024 27.0551876,4.94481236 C27.8675497,5.79249448 28.3620309,6.85209713 28.3620309,8.05298013 C28.3620309,9.25386313 27.9028698,10.3487859 27.0551876,11.1611479 C26.3134658,11.9028698 26.3134658,13.0331126 27.0551876,13.7748344 C27.7969095,14.5165563 28.9271523,14.5165563 29.6688742,13.7748344 C31.187638,12.2560706 32,10.2428256 32,8.05298013 C32,5.93377483 31.1523179,3.88520971 29.6688742,2.33112583 C28.1147903,0.847682119 26.0662252,0 23.9470199,0 Z"></path>
            </g>
        </g>
    </g>
</svg>