<?xml version="1.0" encoding="UTF-8"?>
<svg width="32px" height="32px" viewBox="0 0 32 32" version="1.1" xmlns="http://www.w3.org/2000/svg" xmlns:xlink="http://www.w3.org/1999/xlink">
    <!-- Generator: Sketch 50.2 (55047) - http://www.bohemiancoding.com/sketch -->
    <title>interface/actions/calendar</title>
    <desc>Created with Sketch.</desc>
    <defs></defs>
    <g id="Icons" stroke="none" stroke-width="1" fill="none" fill-rule="evenodd">
        <g id="icons" transform="translate(-1450.000000, -288.000000)" fill="#FFFFFF">
            <g id="Interface/actions/calendar" transform="translate(1450.000000, 288.000000)">
                <path d="M32,12 L0,12 L0,7 C-2.02906125e-16,5.34314575 1.34314575,4 3,4 L5,4 L5,6.5 C5,7.88071187 6.11928813,9 7.5,9 C8.88071187,9 10,7.88071187 10,6.5 L10,4 L22,4 L22,6.5 C22,7.88071187 23.1192881,9 24.5,9 C25.8807119,9 27,7.88071187 27,6.5 L27,4 L29,4 C30.6568542,4 32,5.34314575 32,7 L32,12 Z M32,14 L32,29 C32,30.6568542 30.6568542,32 29,32 L3,32 C1.34314575,32 2.02906125e-16,30.6568542 0,29 L0,14 L32,14 Z M7.5,0 C8.32842712,-1.52179594e-16 9,0.671572875 9,1.5 L9,6.5 C9,7.32842712 8.32842712,8 7.5,8 C6.67157288,8 6,7.32842712 6,6.5 L6,1.5 C6,0.671572875 6.67157288,1.52179594e-16 7.5,0 Z M24.5,0 C25.3284271,-1.52179594e-16 26,0.671572875 26,1.5 L26,6.5 C26,7.32842712 25.3284271,8 24.5,8 C23.6715729,8 23,7.32842712 23,6.5 L23,1.5 C23,0.671572875 23.6715729,1.52179594e-16 24.5,0 Z"></path>
            </g>
        </g>
    </g>
</svg>