<?xml version="1.0" encoding="UTF-8"?>
<svg width="31px" height="32px" viewBox="0 0 31 32" version="1.1" xmlns="http://www.w3.org/2000/svg" xmlns:xlink="http://www.w3.org/1999/xlink">
    <!-- Generator: Sketch 50.2 (55047) - http://www.bohemiancoding.com/sketch -->
    <title>Interface/actions/call</title>
    <desc>Created with Sketch.</desc>
    <defs></defs>
    <g id="Icons" stroke="none" stroke-width="1" fill="none" fill-rule="evenodd">
        <g id="icons" transform="translate(-1548.000000, -228.000000)" fill="#FFFFFF">
            <g id="Interface/actions/call" transform="translate(1548.000000, 228.000000)">
                <path d="M24.2654156,22.1949769 L28.1397824,26.3573401 C28.5906652,26.8416539 28.8095945,27.4963168 28.7413729,28.1553318 C28.6731513,28.813725 28.3246009,29.4093253 27.7850301,29.7910566 L26.3914488,30.7739835 C25.3476583,31.5871831 24.1041645,32 22.6950783,32 C20.5274919,32 17.9840665,31.0338592 15.1355045,29.1264462 C12.1895716,27.1543751 9.6306413,24.6557138 8.00324597,22.9068374 C4.90722558,19.5800554 2.48473848,16.09225 1.18294625,13.0850281 C0.408941153,11.2963621 0.0107750698,9.6525551 0.000231731112,8.19837027 C-0.0121721967,6.54399411 0.473441578,5.12462517 1.44342874,3.97880959 L2.52257046,2.64772378 C2.95856852,2.11056444 3.60419296,1.8028169 4.29509174,1.8028169 C4.93451422,1.8028169 5.52742198,2.06144918 5.96404024,2.53022017 L9.8377869,6.69320504 C10.5752004,7.48526638 10.6235757,8.71812166 9.95252323,9.5661371 L8.18496351,11.9423211 C8.18496351,11.9423211 7.99456322,15.3269223 11.7963671,19.4121932 C15.5764641,23.4738389 18.929866,23.4825429 18.929866,23.4825429 L21.4143727,21.881634 C21.7821492,21.6285971 22.2119453,21.494929 22.6578665,21.494929 C23.265659,21.494929 23.8511244,21.749831 24.2654156,22.1949769 Z M29.4856932,8.74772711 C30.4921834,10.8772886 31.0018218,13.1496522 30.9999951,15.5005883 C30.9993862,16.149746 30.4854856,16.6760563 29.8522432,16.6760563 L29.8510254,16.6760563 C29.2165652,16.6754327 28.7026646,16.1478752 28.7032735,15.4987175 C28.7051001,13.506346 28.2721815,11.5794514 27.4179131,9.77228625 C25.2758488,5.23878354 20.8869916,2.39521099 15.9647494,2.35218325 C15.3302891,2.34657094 14.8206508,1.81527186 14.8261307,1.16611418 C14.8316107,0.520074452 15.3442935,0 15.9744915,0 C15.977536,0 15.9811893,0 15.9842337,0 C18.7644116,0.0243200283 21.4843097,0.831869686 23.8510533,2.33409913 C26.2841656,3.87935631 28.2326039,6.09684402 29.4856932,8.74772711 Z M22.4915368,12.1229755 C21.1891678,9.44946041 18.5201459,7.76393013 15.5272316,7.7246318 C14.8837735,7.71664932 14.3682654,7.19103405 14.376919,6.55182202 C14.3855726,5.91199596 14.9140612,5.40357371 15.5581373,5.408486 C17.4192825,5.43304746 19.239014,5.96357503 20.8207711,6.94234926 C22.4482687,7.9499832 23.7518739,9.39235501 24.5906564,11.1134994 C25.2668746,12.5030641 25.6099286,13.9847342 25.6086923,15.5185975 C25.6080742,16.1578095 25.0863849,16.6760563 24.4429268,16.6760563 L24.4416906,16.6760563 C23.7982326,16.6754423 23.2771614,16.1559674 23.2771614,15.5167554 C23.2777795,14.3359631 23.0138442,13.1944692 22.4915368,12.1229755 Z"></path>
            </g>
        </g>
    </g>
</svg>