<?xml version="1.0" encoding="UTF-8"?>
<svg width="26px" height="32px" viewBox="0 0 26 32" version="1.1" xmlns="http://www.w3.org/2000/svg" xmlns:xlink="http://www.w3.org/1999/xlink">
    <!-- Generator: Sketch 50.2 (55047) - http://www.bohemiancoding.com/sketch -->
    <title>Interface/actions/delete</title>
    <desc>Created with Sketch.</desc>
    <defs></defs>
    <g id="Icons" stroke="none" stroke-width="1" fill="none" fill-rule="evenodd">
        <g id="icons" transform="translate(-1405.000000, -108.000000)" fill="#FFFFFF">
            <g id="Interface/actions/delete" transform="translate(1405.000000, 108.000000)">
                <path d="M20,6 L25,6 C25.55,6 26,6.45 26,7 L26,9 C26,9.55 25.55,10 25,10 C24.45,10 24,10.45 24,11 L24,31 C24,31.55 23.55,32 23,32 L3,32 C2.45,32 2,31.55 2,31 L2,11 C2,10.45 1.55,10 1,10 C0.45,10 0,9.55 0,9 L0,7 C0,6.45 0.45,6 1,6 L6,6 L6,4 C6,4 6,6 6,4 C6,2 6,3.55271368e-15 10,3.55271368e-15 L16,3.55271368e-15 C18,3.55271368e-15 20,3.55271368e-15 20,4 C20,6 20,4 20,4 L20,6 Z M16,6 L16,4 L10,4 L10,6 L16,6 Z M8,27 C8,27.55 7.55,28 7,28 L7,28 C6.45,28 6,27.55 6,27 L6,12.172 C6,11.622 6.45,11.172 7,11.172 L7,11.172 C7.55,11.172 8,11.622 8,12.172 L8,27 L8,27 Z M14,27 C14,27.55 13.55,28 13,28 L13,28 C12.45,28 12,27.55 12,27 L12,12.172 C12,11.622 12.45,11.172 13,11.172 L13,11.172 C13.55,11.172 14,11.622 14,12.172 L14,27 L14,27 Z M20,27 C20,27.55 19.55,28 19,28 L19,28 C18.45,28 18,27.55 18,27 L18,12.172 C18,11.622 18.45,11.172 19,11.172 L19,11.172 C19.55,11.172 20,11.622 20,12.172 L20,27 L20,27 Z"></path>
            </g>
        </g>
    </g>
</svg>