<?xml version="1.0" encoding="UTF-8"?>
<svg width="21px" height="32px" viewBox="0 0 21 32" version="1.1" xmlns="http://www.w3.org/2000/svg" xmlns:xlink="http://www.w3.org/1999/xlink">
    <!-- Generator: Sketch 50.2 (55047) - http://www.bohemiancoding.com/sketch -->
    <title>Interface/actions/download</title>
    <desc>Created with Sketch.</desc>
    <defs></defs>
    <g id="Icons" stroke="none" stroke-width="1" fill="none" fill-rule="evenodd">
        <g id="icons" transform="translate(-1553.000000, -168.000000)" fill="#FFFFFF">
            <g id="Interface/actions/download" transform="translate(1553.000000, 168.000000)">
                <path d="M9.60936256,23.4291105 L0.288617663,12.7251868 C-0.370092224,11.9705275 0.171284964,10.7977462 1.17993448,10.7977462 L5.36850202,10.7977462 L5.36850202,1.32983199 C5.36850202,0.595568926 5.96751632,0 6.70856495,0 L14.2886769,0 C15.0297255,0 15.6307983,0.595568926 15.6307983,1.32983199 L15.6307983,10.7977462 L19.8193658,10.7977462 C20.8280153,10.7977462 21.3693925,11.9705275 20.7127411,12.7251868 L11.3899377,23.4291105 C10.9226654,23.96757 10.0786934,23.96757 9.60936256,23.4291105 Z M19.182064,32 L1.8168246,32 C0.818467428,32 0.00125547469,31.190271 0.00125547469,30.1990159 C0.00125547469,29.2077608 0.818467428,28.3959921 1.8168246,28.3959921 L19.182064,28.3959921 C20.1804212,28.3959921 20.9996916,29.2077608 20.9996916,30.1990159 C20.9996916,31.190271 20.1804212,32 19.182064,32 Z"></path>
            </g>
        </g>
    </g>
</svg>