<?xml version="1.0" encoding="UTF-8"?>
<svg width="28px" height="32px" viewBox="0 0 28 32" version="1.1" xmlns="http://www.w3.org/2000/svg" xmlns:xlink="http://www.w3.org/1999/xlink">
    <!-- Generator: Sketch 50.2 (55047) - http://www.bohemiancoding.com/sketch -->
    <title>Interface/actions/download-document</title>
    <desc>Created with Sketch.</desc>
    <defs></defs>
    <g id="Icons" stroke="none" stroke-width="1" fill="none" fill-rule="evenodd">
        <g id="icons" transform="translate(-1452.000000, -168.000000)" fill="#FFFFFF">
            <g id="Interface/actions/download-document" transform="translate(1452.000000, 168.000000)">
                <path d="M8,0.359280153 L8,6 C8,7.1045695 7.1045695,8 6,8 L2.66453526e-15,8 L6.82842712,1.17157288 C7.1704594,0.829540598 7.56805569,0.555847041 8,0.359280153 Z M10,-1.31828128e-15 L26,-6.66133815e-16 C27.1045695,-8.6903994e-16 28,0.8954305 28,2 L28,30 C28,31.1045695 27.1045695,32 26,32 L2,32 C0.8954305,32 5.7935996e-16,31.1045695 4.4408921e-16,30 L4.03717464e-17,10 L7,10 C8.65685425,10 10,8.65685425 10,7 L10,-1.33226763e-15 Z M11.196548,14.5 L11.196548,18.9094097 L7.10604695,18.9094097 C6.82990457,18.9094097 6.60604695,19.1332673 6.60604695,19.4094097 C6.60604695,19.5310093 6.65036036,19.6484415 6.73069331,19.7397272 L13.6245242,27.5734767 C13.8069535,27.7807788 14.1228932,27.8009422 14.3301953,27.6185129 C14.3461472,27.6044749 14.361188,27.5894344 14.3752262,27.5734827 L21.269278,19.7397332 C21.4517106,19.532434 21.4315523,19.2164939 21.2242531,19.0340613 C21.1329666,18.9537251 21.015532,18.9094097 20.8939296,18.9094097 L16.8029394,18.9094097 L16.8029394,14.5 C16.8029394,14.2238576 16.5790817,14 16.3029394,14 L11.696548,14 C11.4204056,14 11.196548,14.2238576 11.196548,14.5 Z"></path>
            </g>
        </g>
    </g>
</svg>