<?xml version="1.0" encoding="UTF-8"?>
<svg width="32px" height="32px" viewBox="0 0 32 32" version="1.1" xmlns="http://www.w3.org/2000/svg" xmlns:xlink="http://www.w3.org/1999/xlink">
    <!-- Generator: Sketch 50.2 (55047) - http://www.bohemiancoding.com/sketch -->
    <title>interface/actions/duplicate</title>
    <desc>Created with Sketch.</desc>
    <defs></defs>
    <g id="Icons" stroke="none" stroke-width="1" fill="none" fill-rule="evenodd">
        <g id="icons" transform="translate(-1402.000000, -168.000000)" fill="#FFFFFF">
            <g id="Interface/actions/duplicate" transform="translate(1402.000000, 168.000000)">
                <path d="M20,0.0331515986 L20,4.5 C20,5.32842712 19.3284271,6 18.5,6 L14,6 L14,5.5 L18.2535933,0.951018232 C18.7185152,0.453810149 19.3353238,0.132806378 20,0.0331515986 Z M21.5,-8.8817842e-16 L30.5,-8.8817842e-16 C31.3284271,1.16701527e-15 32,0.671572875 32,1.5 L32,20.5 C32,21.3284271 31.3284271,22 30.5,22 L15.5,22 C14.6715729,22 14,21.3284271 14,20.5 L14,7.5 L19.25,7.5 C20.4926407,7.5 21.5,6.49264069 21.5,5.25 L21.5,-8.8817842e-16 Z M12,10 L12,21 C12,22.6568542 13.3431458,24 15,24 L18,24 L18,30.5 C18,31.3284271 17.3284271,32 16.5,32 L1.5,32 C0.671572875,32 1.01453063e-16,31.3284271 0,30.5 L0,17.5 L5.25,17.5 C6.49264069,17.5 7.5,16.4926407 7.5,15.25 L7.5,10 L12,10 Z M6,10.0331516 L6,14.5 C6,15.3284271 5.32842712,16 4.5,16 L0,16 L0,15.5 L4.25359334,10.9510182 C4.71851518,10.4538101 5.33532385,10.1328064 6,10.0331516 Z"></path>
            </g>
        </g>
    </g>
</svg>