<?xml version="1.0" encoding="UTF-8"?>
<svg width="32px" height="24px" viewBox="0 0 32 24" version="1.1" xmlns="http://www.w3.org/2000/svg" xmlns:xlink="http://www.w3.org/1999/xlink">
    <!-- Generator: Sketch 50.2 (55047) - http://www.bohemiancoding.com/sketch -->
    <title>interface/actions/email</title>
    <desc>Created with Sketch.</desc>
    <defs></defs>
    <g id="Icons" stroke="none" stroke-width="1" fill="none" fill-rule="evenodd">
        <g id="icons" transform="translate(-1595.000000, -232.000000)" fill="#FFFFFF">
            <g id="Interface/actions/email" transform="translate(1595.000000, 232.000000)">
                <path d="M20.8,12 L32,5 L32,19 L23.2,13.5 L20.8,15 L32,22 C32,23.1045695 31.1045695,24 30,24 L2,24 C0.8954305,24 1.3527075e-16,23.1045695 0,22 L11.2,15 L8.8,13.5 L0,19 L0,5 L11.2,12 L16,15 L20.8,12 Z M32,2 L16,12 L0,2 C-1.3527075e-16,0.8954305 0.8954305,2.02906125e-16 2,0 L30,0 C31.1045695,-2.02906125e-16 32,0.8954305 32,2 Z"></path>
            </g>
        </g>
    </g>
</svg>