<?xml version="1.0" encoding="UTF-8"?>
<svg width="32px" height="32px" viewBox="0 0 32 32" version="1.1" xmlns="http://www.w3.org/2000/svg" xmlns:xlink="http://www.w3.org/1999/xlink">
    <!-- Generator: Sketch 50.2 (55047) - http://www.bohemiancoding.com/sketch -->
    <title>interface/actions/lanq</title>
    <desc>Created with Sketch.</desc>
    <defs></defs>
    <g id="Icons" stroke="none" stroke-width="1" fill="none" fill-rule="evenodd">
        <g id="icons" transform="translate(-1257.000000, -288.000000)" fill="#FFFFFF">
            <g id="Interface/actions/lanq" transform="translate(1257.000000, 288.000000)">
                <path d="M18,13 L16,13 C14.3431458,13 13,14.3431458 13,16 L13,18 L2,18 C0.8954305,18 1.3527075e-16,17.1045695 0,16 L0,2 C-1.3527075e-16,0.8954305 0.8954305,2.02906125e-16 2,0 L16,0 C17.1045695,-2.02906125e-16 18,0.8954305 18,2 L18,13 Z M10.7,5.76279863 C10.66,6.07679181 10.58,6.36348123 10.4333333,6.8003413 C10.1933333,6.77303754 10.0866667,6.77303754 9.92666667,6.77303754 C9.11333333,6.77303754 8.80666667,6.8003413 8.08666667,6.95051195 C8.1,6.66382253 8.11333333,6.22696246 8.15333333,5.63993174 C9.22,5.61262799 11.38,5.40784983 12.8466667,5.16211604 C13.1266667,5.12116041 13.18,5.12116041 13.3666667,5.10750853 L13.3,3.53754266 C12.2733333,3.86518771 10.38,4.13822526 8.24666667,4.26109215 C8.32666667,3.30546075 8.38,2.95051195 8.48666667,2.58191126 L6.83333333,2.5 C6.86,2.60921502 6.86,2.66382253 6.86,2.71843003 C6.86,2.9778157 6.84666667,3.31911263 6.83333333,3.49658703 C6.79333333,4.04266212 6.79333333,4.04266212 6.78,4.31569966 L6.48666667,4.31569966 C5.38,4.31569966 4.59333333,4.24744027 3.99333333,4.1109215 L3.99333333,5.63993174 C4.14,5.62627986 4.26,5.62627986 4.3,5.62627986 L4.55333333,5.62627986 C5.84666667,5.66723549 6.56666667,5.68088737 6.71333333,5.68088737 C6.68666667,6.33617747 6.66,6.88225256 6.66,7.31911263 C5.86,7.67406143 5.36666667,8.01535836 4.83333333,8.54778157 C3.98,9.40784983 3.51333333,10.4863481 3.51333333,11.605802 C3.51333333,13.0255973 4.35333333,13.9948805 5.59333333,13.9948805 C6.7,13.9948805 7.88666667,13.3259386 9.08666667,12.0290102 C10.0466667,11.0051195 10.6733333,10.0221843 11.4066667,8.39761092 C12.3533333,8.72525597 12.9,9.42150171 12.9,10.28157 C12.9,11.2235495 12.4066667,11.8924915 11.34,12.4112628 C10.5533333,12.7935154 9.87333333,12.943686 8.79333333,12.9573379 C9.23333333,13.6672355 9.35333333,13.9129693 9.5,14.5 C10.6733333,14.3771331 11.4333333,14.1723549 12.22,13.7764505 C13.7266667,13.0119454 14.5133333,11.8515358 14.5133333,10.3634812 C14.5133333,9.28498294 14.1,8.43856655 13.2466667,7.78327645 C12.7933333,7.44197952 12.4066667,7.25085324 11.86,7.11433447 C11.9,6.99146758 11.9133333,6.9778157 12.0466667,6.59556314 C12.1533333,6.30887372 12.1533333,6.30887372 12.2066667,6.1996587 L10.7,5.76279863 Z M6.68666667,8.87542662 C6.68666667,10.1996587 6.75333333,11.0733788 6.92666667,11.9607509 C6.5,12.3156997 6.14,12.4795222 5.76666667,12.4795222 C5.3,12.4795222 5.00666667,12.0972696 5.00666667,11.4829352 C5.00666667,10.9095563 5.20666667,10.3498294 5.60666667,9.81740614 C5.87333333,9.47610922 6.1,9.27133106 6.68666667,8.87542662 Z M8.19333333,10.9368601 C8.18,10.8686007 8.18,10.8549488 8.18,10.7866894 C8.18,10.6911263 8.18,10.6911263 8.16666667,10.609215 C8.08666667,9.65358362 8.08666667,9.51706485 8.07333333,8.26109215 C8.60666667,8.08361775 9.08666667,8.01535836 9.67333333,8.01535836 C9.80666667,8.01535836 9.87333333,8.01535836 10.02,8.02901024 C9.52666667,9.16211604 8.99333333,10.0358362 8.36666667,10.7593857 C8.27333333,10.8686007 8.27333333,10.8686007 8.22,10.9505119 L8.19333333,10.9368601 Z M16,14 L30,14 C31.1045695,14 32,14.8954305 32,16 L32,30 C32,31.1045695 31.1045695,32 30,32 L16,32 C14.8954305,32 14,31.1045695 14,30 L14,16 C14,14.8954305 14.8954305,14 16,14 Z M26.163482,29 L29,29 L24.6008493,17 L21.3821656,17 L17,29 L19.836518,29 L20.7367304,26.1553134 L25.2632696,26.1553134 L26.163482,29 Z M24.6348195,24.0299728 L21.3991507,24.0299728 C22.2823823,21.2779154 22.8174088,19.553137 23.0042463,18.8555858 C23.0495402,19.0517721 23.1245572,19.3187994 23.2292994,19.6566757 C23.3340416,19.9945521 23.8025436,21.4523032 24.6348195,24.0299728 Z"></path>
            </g>
        </g>
    </g>
</svg>