<?xml version="1.0" encoding="UTF-8"?>
<svg width="32px" height="26px" viewBox="0 0 32 26" version="1.1" xmlns="http://www.w3.org/2000/svg" xmlns:xlink="http://www.w3.org/1999/xlink">
    <!-- Generator: Sketch 50.2 (55047) - http://www.bohemiancoding.com/sketch -->
    <title>Interface/actions/open</title>
    <desc>Created with Sketch.</desc>
    <defs></defs>
    <g id="Icons" stroke="none" stroke-width="1" fill="none" fill-rule="evenodd">
        <g id="icons" transform="translate(-1257.000000, -111.000000)" fill="#FFFFFF">
            <g id="Interface/actions/open" transform="translate(1257.000000, 111.000000)">
                <path d="M6.40402268,5.135 C5.12321814,5.135 3.97049406,5.98 3.5862527,7.15 L0.256160907,18.265 C0.19212068,18.395 0,18.33 0,18.2 L0,3.38 L0,2.47 L0,1.04 C0,0.455 0.448281588,2.88657986e-16 1.08868386,0 L7.74886744,0 C8.38926971,0 8.8375513,0.455 8.8375513,1.04 L8.8375513,1.43 C8.8375513,2.015 9.34987311,2.47 9.92623515,2.47 L25.4227632,2.47 C26.0631655,2.47 26.5114471,2.925 26.5114471,3.51 L26.5114471,4.68 C26.5114471,4.94 26.2552862,5.135 25.9991253,5.135 L6.40402268,5.135 Z M1.21676431,26 C0.640402268,26 0.19212068,25.415 0.384241361,24.895 L5.57149973,7.735 C5.69958019,7.345 6.01978132,7.085 6.40402268,7.085 L31.1223434,7.085 C31.6987055,7.085 32.1469871,7.67 31.9548664,8.19 L26.767608,25.35 C26.6395275,25.74 26.3193264,26 25.9350851,26 L1.21676431,26 Z"></path>
            </g>
        </g>
    </g>
</svg>