<?xml version="1.0" encoding="UTF-8"?>
<svg width="32px" height="30px" viewBox="0 0 32 30" version="1.1" xmlns="http://www.w3.org/2000/svg" xmlns:xlink="http://www.w3.org/1999/xlink">
    <!-- Generator: Sketch 50.2 (55047) - http://www.bohemiancoding.com/sketch -->
    <title>interface/actions/pointer-right</title>
    <desc>Created with Sketch.</desc>
    <defs></defs>
    <g id="Icons" stroke="none" stroke-width="1" fill="none" fill-rule="evenodd">
        <g id="icons" transform="translate(-1645.000000, -409.000000)" fill="#FFFFFF" fill-rule="nonzero">
            <g id="Interface/actions/pointer-right" transform="translate(1645.000000, 409.000000)">
                <path d="M18.1492142,29.7143635 L18.3036648,29.5635414 L29.9554031,18.2111313 C31.3015972,16.8995203 31.3539437,14.7529114 30.0732806,13.3772427 L30.0732806,13.3772427 C28.8298447,12.0415629 26.7390584,11.9667845 25.4033786,13.2102204 C25.384895,13.2274274 25.3666093,13.2448458 25.3485251,13.2624721 L19.3507837,19.108339 L19.3507837,2.35078365 C19.3507837,0.500196941 17.8505867,-1 16,-1 L16,-1 C14.1494133,-1 12.6492163,0.500196941 12.6492163,2.35078365 L12.6492163,19.108339 L6.65147495,13.2624721 C5.34465302,11.9887415 3.25270181,12.0155673 1.97897116,13.3223892 C1.96134486,13.3404734 1.94392645,13.3587591 1.92671938,13.3772427 L1.92671938,13.3772427 C0.646056312,14.7529114 0.698402789,16.8995203 2.04459695,18.2111313 L13.6963352,29.5635414 L13.8507822,29.7143604 C15.045935,30.8814389 16.9540597,30.8814403 18.1492142,29.7143635 Z" transform="translate(16.000000, 15.000000) rotate(-90.000000) translate(-16.000000, -15.000000) "></path>
            </g>
        </g>
    </g>
</svg>