<?xml version="1.0" encoding="UTF-8"?>
<svg width="30px" height="32px" viewBox="0 0 30 32" version="1.1" xmlns="http://www.w3.org/2000/svg" xmlns:xlink="http://www.w3.org/1999/xlink">
    <!-- Generator: Sketch 50.2 (55047) - http://www.bohemiancoding.com/sketch -->
    <title>interface/actions/pointer-up</title>
    <desc>Created with Sketch.</desc>
    <defs></defs>
    <g id="Icons" stroke="none" stroke-width="1" fill="none" fill-rule="evenodd">
        <g id="icons" transform="translate(-1591.000000, -348.000000)" fill="#FFFFFF" fill-rule="nonzero">
            <g id="Interface/actions/pointer-up" transform="translate(1591.000000, 348.000000)">
                <path d="M17.1492142,30.7143635 L17.3036648,30.5635414 L28.9554031,19.2111313 C30.3015972,17.8995203 30.3539437,15.7529114 29.0732806,14.3772427 L29.0732806,14.3772427 C27.8298447,13.0415629 25.7390584,12.9667845 24.4033786,14.2102204 C24.384895,14.2274274 24.3666093,14.2448458 24.3485251,14.2624721 L18.3507837,20.108339 L18.3507837,3.35078365 C18.3507837,1.50019694 16.8505867,6.23465746e-15 15,0 L15,0 C13.1494133,1.98359844e-15 11.6492163,1.50019694 11.6492163,3.35078365 L11.6492163,20.108339 L5.65147495,14.2624721 C4.34465302,12.9887415 2.25270181,13.0155673 0.978971162,14.3223892 C0.961344859,14.3404734 0.943926454,14.3587591 0.92671938,14.3772427 L0.92671938,14.3772427 C-0.353943688,15.7529114 -0.301597211,17.8995203 1.04459695,19.2111313 L12.6963352,30.5635414 L12.8507822,30.7143604 C14.045935,31.8814389 15.9540597,31.8814403 17.1492142,30.7143635 Z" transform="translate(15.000000, 16.000000) rotate(-180.000000) translate(-15.000000, -16.000000) "></path>
            </g>
        </g>
    </g>
</svg>