<?xml version="1.0" encoding="UTF-8"?>
<svg width="32px" height="30px" viewBox="0 0 32 30" version="1.1" xmlns="http://www.w3.org/2000/svg" xmlns:xlink="http://www.w3.org/1999/xlink">
    <!-- Generator: Sketch 50.2 (55047) - http://www.bohemiancoding.com/sketch -->
    <title>Interface/actions/print</title>
    <desc>Created with Sketch.</desc>
    <defs></defs>
    <g id="Icons" stroke="none" stroke-width="1" fill="none" fill-rule="evenodd">
        <g id="icons" transform="translate(-1450.000000, -109.000000)" fill="#FFFFFF">
            <g id="Interface/actions/print" transform="translate(1450.000000, 109.000000)">
                <path d="M9.84615385,25 L22.1538462,25 L22.1538462,22.5 L9.84615385,22.5 L9.84615385,25 Z M9.84615385,20.8333333 L22.1538462,20.8333333 L22.1538462,18.3333333 L9.84615385,18.3333333 L9.84615385,20.8333333 Z M4.92307692,20.8333333 L4.92307692,27.5016667 C4.92307692,29.52625 5.37189744,30 7.38379487,30 L24.6145641,30 C26.6264615,30 27.0769231,29.6233333 27.0769231,27.5016667 L27.0769231,20.8333333 L29.537641,20.8333333 C31.6299487,20.8666667 32,20.39375 32,18.335 L32,9.16833333 C32,7.21041667 31.6873846,6.66666667 29.537641,6.66666667 L27.0769231,6.66666667 L27.0769231,2.50166667 C27.0769231,0.443333333 26.7068718,0 24.6145641,0 L7.38379487,0 C5.41415385,0 4.92307692,0.477083333 4.92307692,2.50166667 L4.92307692,6.66666667 L2.46071795,6.66666667 C0.343794872,6.66666667 0,7.13541667 0,9.16833333 L0,18.335 C0,20.3595833 0.491076923,20.8666667 2.46071795,20.8333333 L4.92307692,20.8333333 Z M7.38461538,27.5 L7.38461538,16.6666667 L24.6153846,16.6666667 L24.6153846,27.5 L7.38461538,27.5 Z M27.486359,10.7358333 C28.2252308,10.7358333 28.8155897,11.335 28.8155897,12.085 C28.8155897,12.835 28.2252308,13.435 27.486359,13.435 C26.7474872,13.435 26.1571282,12.8354167 26.1571282,12.085 C26.1571282,11.3345833 26.7474872,10.7358333 27.486359,10.7358333 Z M24.6153846,2.5 L24.6153846,6.66666667 L7.38461538,6.66666667 L7.38461538,2.5 L24.6153846,2.5 Z"></path>
            </g>
        </g>
    </g>
</svg>