<?xml version="1.0" encoding="UTF-8"?>
<svg width="32px" height="32px" viewBox="0 0 32 32" version="1.1" xmlns="http://www.w3.org/2000/svg" xmlns:xlink="http://www.w3.org/1999/xlink">
    <!-- Generator: Sketch 50.2 (55047) - http://www.bohemiancoding.com/sketch -->
    <title>interface/actions/pull</title>
    <desc>Created with Sketch.</desc>
    <defs></defs>
    <g id="Icons" stroke="none" stroke-width="1" fill="none" fill-rule="evenodd">
        <g id="icons" transform="translate(-1402.000000, -288.000000)" fill="#FFFFFF">
            <g id="Interface/actions/pull" transform="translate(1402.000000, 288.000000)">
                <path d="M31.5933248,16.8906374 L20.8143774,26.2113823 C20.0544288,26.8700922 18.8734275,26.328715 18.8734275,25.3200655 L18.8734275,21.131498 L9.33915276,21.131498 C8.59974326,21.131498 8,20.5324837 8,19.7914351 L8,12.2113231 C8,11.4702745 8.59974326,10.8692017 9.33915276,10.8692017 L18.8734275,10.8692017 L18.8734275,6.6806342 C18.8734275,5.67198469 20.0544288,5.1306075 20.8143774,5.78725892 L31.5933248,15.1100623 C32.1355584,15.5773346 32.1355584,16.4213066 31.5933248,16.8906374 Z M10,30 C10,31.1045695 9.1045695,32 8,32 L5,32 C2.23857625,32 0,29.7614237 0,27 L0,5 C0,2.23857625 2.23857625,-5.07265313e-16 5,0 L8,0 C9.1045695,2.02906125e-16 10,0.8954305 10,2 C10,3.1045695 9.1045695,4 8,4 L7,4 C5.34314575,4 4,5.34314575 4,7 L4,25 C4,26.6568542 5.34314575,28 7,28 L8,28 C9.1045695,28 10,28.8954305 10,30 Z"></path>
            </g>
        </g>
    </g>
</svg>