<?xml version="1.0" encoding="UTF-8"?>
<svg width="32px" height="32px" viewBox="0 0 32 32" version="1.1" xmlns="http://www.w3.org/2000/svg" xmlns:xlink="http://www.w3.org/1999/xlink">
    <!-- Generator: Sketch 50.2 (55047) - http://www.bohemiancoding.com/sketch -->
    <title>interface/actions/push</title>
    <desc>Created with Sketch.</desc>
    <defs></defs>
    <g id="Icons" stroke="none" stroke-width="1" fill="none" fill-rule="evenodd">
        <g id="icons" transform="translate(-1354.000000, -288.000000)" fill="#FFFFFF">
            <g id="Interface/actions/push" transform="translate(1354.000000, 288.000000)">
                <path d="M23.5933248,16.8906374 L12.8143774,26.2113823 C12.0544288,26.8700922 10.8734275,26.328715 10.8734275,25.3200655 L10.8734275,21.131498 L1.33915276,21.131498 C0.599743261,21.131498 3.65404988e-16,20.5324837 4.10781129e-16,19.7914351 L8.74929119e-16,12.2113231 C9.2030526e-16,11.4702745 0.599743261,10.8692017 1.33915276,10.8692017 L10.8734275,10.8692017 L10.8734275,6.6806342 C10.8734275,5.67198469 12.0544288,5.1306075 12.8143774,5.78725892 L23.5933248,15.1100623 C24.1355584,15.5773346 24.1355584,16.4213066 23.5933248,16.8906374 Z M22,30 C22,28.8954305 22.8954305,28 24,28 L25,28 C26.6568542,28 28,26.6568542 28,25 L28,7 C28,5.34314575 26.6568542,4 25,4 L24,4 C22.8954305,4 22,3.1045695 22,2 C22,0.8954305 22.8954305,2.02906125e-16 24,0 L27,0 C29.7614237,-5.07265313e-16 32,2.23857625 32,5 L32,27 C32,29.7614237 29.7614237,32 27,32 L24,32 C22.8954305,32 22,31.1045695 22,30 Z"></path>
            </g>
        </g>
    </g>
</svg>