<?xml version="1.0" encoding="UTF-8"?>
<svg width="32px" height="32px" viewBox="0 0 32 32" version="1.1" xmlns="http://www.w3.org/2000/svg" xmlns:xlink="http://www.w3.org/1999/xlink">
    <!-- Generator: Sketch 50.2 (55047) - http://www.bohemiancoding.com/sketch -->
    <title>interface/actions/refresh</title>
    <desc>Created with Sketch.</desc>
    <defs></defs>
    <g id="Icons" stroke="none" stroke-width="1" fill="none" fill-rule="evenodd">
        <g id="icons" transform="translate(-1498.000000, -288.000000)" fill="#FFFFFF" fill-rule="nonzero">
            <g id="Interface/actions/refresh" transform="translate(1498.000000, 288.000000)">
                <path d="M14.3758222,26.9134222 L13.8133333,32 C6.0352,31.0780444 0,24.4327111 0,16.3662222 C0,12.8746667 1.13493333,9.65297778 3.04995556,7.04426667 L1.22631111,5.21137778 C0.16,4.13973333 0.513777778,3.12604444 2.01244444,2.95857778 L9.02542222,2.17528889 C10.5240889,2.00782222 11.6142222,3.10364444 11.4474667,4.60977778 L10.6688,11.6590222 C10.5020444,13.1651556 9.49333333,13.5210667 8.42737778,12.4494222 L6.71573333,10.7288889 C5.68995556,12.3637333 5.09191111,14.2944 5.09191111,16.3665778 C5.09155556,21.7873778 9.15164444,26.2709333 14.3758222,26.9134222 Z M28.9500444,24.9717333 C30.8654222,22.3626667 32,19.1413333 32,15.6497778 C32,7.54062222 25.9011556,0.865777778 18.0632889,0 L17.5011556,5.08657778 C22.7843556,5.67288889 26.9084444,10.1852444 26.9084444,15.6497778 C26.9084444,17.7219556 26.3107556,19.6526222 25.2853333,21.2874667 L23.5733333,19.5669333 C22.5073778,18.4952889 21.4986667,18.8508444 21.3319111,20.3573333 L20.5532444,27.4065778 C20.3864889,28.9127111 21.4766222,30.0085333 22.9752889,29.8410667 L29.9882667,29.0577778 C31.4869333,28.8903111 31.8407111,27.8766222 30.7744,26.8049778 L28.9500444,24.9717333 Z"></path>
            </g>
        </g>
    </g>
</svg>