<?xml version="1.0" encoding="UTF-8"?>
<svg width="32px" height="32px" viewBox="0 0 32 32" version="1.1" xmlns="http://www.w3.org/2000/svg" xmlns:xlink="http://www.w3.org/1999/xlink">
    <!-- Generator: Sketch 50.2 (55047) - http://www.bohemiancoding.com/sketch -->
    <title>interface/actions/rss</title>
    <desc>Created with Sketch.</desc>
    <defs></defs>
    <g id="Icons" stroke="none" stroke-width="1" fill="none" fill-rule="evenodd">
        <g id="icons" transform="translate(-1305.000000, -288.000000)" fill="#FFFFFF">
            <g id="Interface/actions/rss" transform="translate(1305.000000, 288.000000)">
                <path d="M1,0 C17.673112,0 32,14.326888 32,31 C32,31.5522847 31.5522847,32 31,32 L25,32 C24.4477153,32 24,31.5522847 24,31 C24,18.745166 13.254834,8 1,8 C0.44771525,8 -1.5440923e-16,7.55228475 -2.22044605e-16,7 L0,1 C-6.76353751e-17,0.44771525 0.44771525,1.01453063e-16 1,0 Z M1,11 C11.5979797,11 21,20.4020203 21,31 C21,31.5522847 20.5522847,32 20,32 L14,32 C13.4477153,32 13,31.5522847 13,31 C13,24.8202983 7.17970175,19 1,19 C0.44771525,19 -7.29284551e-14,18.5522847 -7.59392549e-14,18 L-1.08357767e-13,12 C-1.11368567e-13,11.4477153 0.44771525,11 1,11 Z M4,32 C1.790861,32 0,30.209139 0,28 C0,25.790861 1.790861,24 4,24 C6.209139,24 8,25.790861 8,28 C8,30.209139 6.209139,32 4,32 Z"></path>
            </g>
        </g>
    </g>
</svg>