<?xml version="1.0" encoding="UTF-8"?>
<svg width="32px" height="32px" viewBox="0 0 32 32" version="1.1" xmlns="http://www.w3.org/2000/svg" xmlns:xlink="http://www.w3.org/1999/xlink">
    <!-- Generator: Sketch 50.2 (55047) - http://www.bohemiancoding.com/sketch -->
    <title>interface/actions/save</title>
    <desc>Created with Sketch.</desc>
    <defs></defs>
    <g id="Icons" stroke="none" stroke-width="1" fill="none" fill-rule="evenodd">
        <g id="icons" transform="translate(-1305.000000, -108.000000)" fill="#FFFFFF">
            <g id="Interface/actions/save" transform="translate(1305.000000, 108.000000)">
                <path d="M0,3.00338735 C0,1.34466232 1.33425951,0 2.99610022,0 L29.0038998,0 C30.6586002,0 32,1.33425951 32,2.99610022 L32,29.0038998 C32,30.6586002 30.6656449,32 28.9966126,32 L6.81256961,32 C6.26338455,32 5.50537135,31.6871892 5.10475876,31.2865766 L0.713423328,26.8952407 C0.319410504,26.5012278 0,25.7273828 0,25.1874298 L0,3.00338735 Z M9,17 L9,29 L12,29 L12,21 L17,21 L17,29 L26,29 L26,17 L9,17 Z M3,3 L3,6 L6,6 L6,3 L3,3 Z"></path>
            </g>
        </g>
    </g>
</svg>