<?xml version="1.0" encoding="UTF-8"?>
<svg width="32px" height="32px" viewBox="0 0 32 32" version="1.1" xmlns="http://www.w3.org/2000/svg" xmlns:xlink="http://www.w3.org/1999/xlink">
    <!-- Generator: Sketch 50.2 (55047) - http://www.bohemiancoding.com/sketch -->
    <title>Interface/actions/search</title>
    <desc>Created with Sketch.</desc>
    <defs></defs>
    <g id="Icons" stroke="none" stroke-width="1" fill="none" fill-rule="evenodd">
        <g id="icons" transform="translate(-1644.000000, -168.000000)" fill="#FFFFFF" fill-rule="nonzero">
            <g id="Interface/actions/search" transform="translate(1644.000000, 168.000000)">
                <path d="M23.8716589,21.0380824 L31.408865,28.5752885 C32.2000572,29.3664807 32.199756,30.6395548 31.414362,31.4249488 C30.6234924,32.2158185 29.3531317,32.2078817 28.5647017,31.4194518 L20.9452249,23.799975 C18.783054,25.2942827 16.1480448,26.17152 13.3047176,26.17152 C5.95672498,26.17152 0,20.3128257 0,13.08576 C0,5.85869432 5.95672498,0 13.3047176,0 C20.6527103,0 26.6094353,5.85869432 26.6094353,13.08576 C26.6094353,16.0771006 25.5889299,18.834012 23.8716589,21.0380824 Z M13.3047176,22.08222 C18.3564626,22.08222 22.451711,18.0543677 22.451711,13.08576 C22.451711,8.11715235 18.3564626,4.08930001 13.3047176,4.08930001 C8.25297269,4.08930001 4.15772426,8.11715235 4.15772426,13.08576 C4.15772426,18.0543677 8.25297269,22.08222 13.3047176,22.08222 Z"></path>
            </g>
        </g>
    </g>
</svg>