<?xml version="1.0" encoding="UTF-8"?>
<svg width="32px" height="32px" viewBox="0 0 32 32" version="1.1" xmlns="http://www.w3.org/2000/svg" xmlns:xlink="http://www.w3.org/1999/xlink">
    <!-- Generator: Sketch 50.2 (55047) - http://www.bohemiancoding.com/sketch -->
    <title>interface/actions/send-mail</title>
    <desc>Created with Sketch.</desc>
    <defs></defs>
    <g id="Icons" stroke="none" stroke-width="1" fill="none" fill-rule="evenodd">
        <g id="icons" transform="translate(-1402.000000, -228.000000)" fill="#FFFFFF">
            <g id="Interface/actions/send-mail" transform="translate(1402.000000, 228.000000)">
                <path d="M14.3347956,20.4408873 L22.8144087,9.53864372 C22.8850365,9.44783751 22.8850365,9.32068226 22.8144087,9.22987604 C22.7291439,9.12025111 22.5711537,9.10050254 22.4615276,9.18576638 L11.5591679,17.6652892 L0.539342033,11.8930609 C0.0472410033,11.6352965 -0.142724095,11.0274146 0.115043112,10.5353189 C0.235778945,10.3048256 0.441138246,10.1300871 0.68798812,10.0478047 L30.6760514,0.0518900619 C31.2030681,-0.123780306 31.77271,0.161037635 31.9483823,0.68804874 C32.0172059,0.894517423 32.0172059,1.11773873 31.9483823,1.32420742 L21.9523612,31.3119513 C21.776689,31.8389624 21.207047,32.1237803 20.6800303,31.9481099 C20.4331804,31.8658275 20.2278211,31.691089 20.1070853,31.4605958 L14.3347956,20.4408873 Z"></path>
            </g>
        </g>
    </g>
</svg>