<?xml version="1.0" encoding="UTF-8"?>
<svg width="32px" height="32px" viewBox="0 0 32 32" version="1.1" xmlns="http://www.w3.org/2000/svg" xmlns:xlink="http://www.w3.org/1999/xlink">
    <!-- Generator: Sketch 50.2 (55047) - http://www.bohemiancoding.com/sketch -->
    <title>Interface/actions/settings</title>
    <desc>Created with Sketch.</desc>
    <defs></defs>
    <g id="Icons" stroke="none" stroke-width="1" fill="none" fill-rule="evenodd">
        <g id="icons" transform="translate(-1644.000000, -108.000000)" fill="#FFFFFF">
            <g id="Interface/actions/settings" transform="translate(1644.000000, 108.000000)">
                <path d="M14.7711075,0 C14.345742,0 14.0009945,0.344747572 14.0009945,0.772234561 L14.0009945,3.53870123 C14.0009945,3.90360328 13.7389863,4.20698114 13.3825704,4.28547751 C12.0067624,4.59203766 10.7200583,5.13408692 9.56807107,5.86813405 C9.25832864,6.06331422 8.86160374,6.03255213 8.60171711,5.77372626 L6.64673319,3.81768157 C6.34547685,3.51536447 5.85646567,3.51536447 5.55414857,3.81768157 L3.81768157,5.55520933 C3.51642523,5.85646567 3.51642523,6.34441608 3.81768157,6.64567242 L5.77372626,8.60171711 C6.03255213,8.86054298 6.06437498,9.2593894 5.86813405,9.56701031 C5.13408692,10.7200583 4.59203766,12.0078231 4.28653827,13.3825704 C4.2080419,13.7389863 3.90360328,13.9999337 3.53870123,13.9999337 L0.771173799,13.9999337 C0.344747572,13.9999337 0,14.345742 0,14.7711075 L0,17.2278317 C0,17.654258 0.344747572,18.0000663 0.771173799,18.0000663 L3.53870123,18.0000663 C3.90360328,18.0000663 4.2080419,18.2599529 4.28653827,18.6163689 C4.59203766,19.9921769 5.13408692,21.2788809 5.86813405,22.4319289 C6.06437498,22.7395498 6.03255213,23.1383963 5.77372626,23.3972221 L3.81768157,25.3543276 C3.51642523,25.6545232 3.51642523,26.1435343 3.81768157,26.4437299 L5.55414857,28.1823184 C5.85646567,28.4835748 6.34547685,28.4835748 6.64673319,28.1823184 L8.60171711,26.225213 C8.86160374,25.9663871 9.25832864,25.935625 9.56807107,26.1318659 C10.7200583,26.8648523 12.0067624,27.4079623 13.3825704,27.7134617 C13.7389863,27.7930189 14.0009945,28.095336 14.0009945,28.4612988 L14.0009945,31.2277654 C14.0009945,31.6541917 14.345742,32 14.7711075,32 L17.2288925,32 C17.6553187,32 18.0000663,31.6541917 18.0000663,31.2277654 L18.0000663,28.4612988 C18.0000663,28.095336 18.2599529,27.7930189 18.6174296,27.7134617 C19.9932376,27.4079623 21.2778201,26.8648523 22.4319289,26.1318659 C22.7395498,25.935625 23.1383963,25.9663871 23.3961614,26.225213 L25.3532668,28.1823184 C25.6555839,28.4835748 26.1435343,28.4835748 26.4447907,28.1823184 L28.1812577,26.4437299 C28.4835748,26.1435343 28.4835748,25.6545232 28.1812577,25.3543276 L26.2262737,23.3972221 C25.9663871,23.1383963 25.9366858,22.7395498 26.1329267,22.4319289 C26.8648523,21.2788809 27.4079623,19.9921769 27.7134617,18.6163689 C27.7930189,18.2599529 28.095336,18.0000663 28.4612988,18.0000663 L31.2288262,18.0000663 C31.6552524,18.0000663 32,17.654258 32,17.2278317 L32,14.7711075 C32,14.345742 31.6552524,13.9999337 31.2288262,13.9999337 L28.4612988,13.9999337 C28.095336,13.9999337 27.7930189,13.7389863 27.7134617,13.3825704 C27.4079623,12.0078231 26.8648523,10.7200583 26.1329267,9.56701031 C25.9366858,9.2593894 25.9663871,8.86054298 26.2262737,8.60171711 L28.1812577,6.64567242 C28.4835748,6.34441608 28.4835748,5.85646567 28.1812577,5.55520933 L26.4447907,3.81768157 C26.1435343,3.51536447 25.6555839,3.51536447 25.3532668,3.81768157 L23.3961614,5.77372626 C23.1383963,6.03255213 22.7395498,6.06331422 22.4319289,5.86813405 C21.2778201,5.13408692 19.9932376,4.59203766 18.6174296,4.28547751 C18.2599529,4.20698114 18.0000663,3.90360328 18.0000663,3.53870123 L18.0000663,0.772234561 C18.0000663,0.344747572 17.6553187,0 17.2288925,0 L14.7711075,0 Z M11.999337,15.9994696 C11.999337,13.7909636 13.7920244,11.999337 15.9994696,11.999337 C18.2090364,11.999337 19.9996022,13.7909636 19.9996022,15.9994696 C19.9996022,18.2090364 18.2090364,19.9996022 15.9994696,19.9996022 C13.7920244,19.9996022 11.999337,18.2090364 11.999337,15.9994696 Z"></path>
            </g>
        </g>
    </g>
</svg>