<?xml version="1.0" encoding="UTF-8"?>
<svg width="32px" height="32px" viewBox="0 0 32 32" version="1.1" xmlns="http://www.w3.org/2000/svg" xmlns:xlink="http://www.w3.org/1999/xlink">
    <!-- Generator: Sketch 50.2 (55047) - http://www.bohemiancoding.com/sketch -->
    <title>interface/actions/share</title>
    <desc>Created with Sketch.</desc>
    <defs></defs>
    <g id="Icons" stroke="none" stroke-width="1" fill="none" fill-rule="evenodd">
        <g id="icons" transform="translate(-1257.000000, -468.000000)" fill="#FFFFFF">
            <g id="Interface/actions/share" transform="translate(1257.000000, 468.000000)">
                <path d="M10,7 L10,9 C10,9.55228475 9.55228475,10 9,10 L6,10 C4.8954305,10 4,10.8954305 4,12 L4,26 C4,27.1045695 4.8954305,28 6,28 L20,28 C21.1045695,28 22,27.1045695 22,26 L22,23 C22,22.4477153 22.4477153,22 23,22 L25,22 C25.5522847,22 26,22.4477153 26,23 L26,28 C26,30.209139 24.209139,32 22,32 L4,32 C1.790861,32 0,30.209139 0,28 L0,10 C0,7.790861 1.790861,6 4,6 L9,6 C9.55228475,6 10,6.44771525 10,7 Z M23.7573593,4 L16,4 C14.8954305,4 14,3.1045695 14,2 C14,0.8954305 14.8954305,-5.66405127e-14 16,-5.68434189e-14 L30,-5.68434189e-14 C31.1045695,-5.7046325e-14 32,0.8954305 32,2 L32,16 C32,17.1045695 31.1045695,18 30,18 C28.8954305,18 28,17.1045695 28,16 L28,8.24264069 L13.3431458,22.8994949 C12.1715729,24.0710678 10.2720779,24.0710678 9.10050506,22.8994949 C7.92893219,21.7279221 7.92893219,19.8284271 9.10050506,18.6568542 L23.7573593,4 Z"></path>
            </g>
        </g>
    </g>
</svg>