<?xml version="1.0" encoding="UTF-8"?>
<svg width="32px" height="32px" viewBox="0 0 32 32" version="1.1" xmlns="http://www.w3.org/2000/svg" xmlns:xlink="http://www.w3.org/1999/xlink">
    <!-- Generator: Sketch 50.2 (55047) - http://www.bohemiancoding.com/sketch -->
    <title>interface/actions/sort-down</title>
    <desc>Created with Sketch.</desc>
    <defs></defs>
    <g id="Icons" stroke="none" stroke-width="1" fill="none" fill-rule="evenodd">
        <g id="icons" transform="translate(-1645.000000, -288.000000)" fill="#FFFFFF">
            <g id="Interface/actions/sort-down" transform="translate(1645.000000, 288.000000)">
                <path d="M6.59896951,7.23495806 L6.59896951,30.2349581 C6.59896951,30.7872428 6.15125426,31.2349581 5.59896951,31.2349581 L3.59896951,31.2349581 C3.04668476,31.2349581 2.59896951,30.7872428 2.59896951,30.2349581 L2.59896951,7.23495806 L1,7.23495806 C0.44771525,7.23495806 1.05471187e-14,6.78724281 1.04360964e-14,6.23495806 C1.04360964e-14,6.0326645 0.0613529456,5.8351276 0.175958076,5.66842923 L3.77492759,0.433564491 C4.08781282,-0.0215412973 4.71039254,-0.13683384 5.16549833,0.176051389 C5.26637434,0.245403648 5.35365918,0.332688479 5.42301143,0.433564491 L9.02198094,5.66842923 C9.33486617,6.12353502 9.21957363,6.74611475 8.76446784,7.05899998 C8.59776947,7.17360511 8.40023258,7.23495806 8.19793902,7.23495806 L6.59896951,7.23495806 Z M12.5989695,2.23495806 L30.5989695,2.23495806 C31.1512543,2.23495806 31.5989695,2.68267331 31.5989695,3.23495806 L31.5989695,6.23495806 C31.5989695,6.78724281 31.1512543,7.23495806 30.5989695,7.23495806 L12.5989695,7.23495806 C12.0466848,7.23495806 11.5989695,6.78724281 11.5989695,6.23495806 L11.5989695,3.23495806 C11.5989695,2.68267331 12.0466848,2.23495806 12.5989695,2.23495806 Z M12.5989695,23.2349581 L18.5989695,23.2349581 C19.1512543,23.2349581 19.5989695,23.6826733 19.5989695,24.2349581 L19.5989695,27.2349581 C19.5989695,27.7872428 19.1512543,28.2349581 18.5989695,28.2349581 L12.5989695,28.2349581 C12.0466848,28.2349581 11.5989695,27.7872428 11.5989695,27.2349581 L11.5989695,24.2349581 C11.5989695,23.6826733 12.0466848,23.2349581 12.5989695,23.2349581 Z M12.5989695,16.2349581 L22.5989695,16.2349581 C23.1512543,16.2349581 23.5989695,16.6826733 23.5989695,17.2349581 L23.5989695,20.2349581 C23.5989695,20.7872428 23.1512543,21.2349581 22.5989695,21.2349581 L12.5989695,21.2349581 C12.0466848,21.2349581 11.5989695,20.7872428 11.5989695,20.2349581 L11.5989695,17.2349581 C11.5989695,16.6826733 12.0466848,16.2349581 12.5989695,16.2349581 Z M12.5989695,9.23495806 L26.5989695,9.23495806 C27.1512543,9.23495806 27.5989695,9.68267331 27.5989695,10.2349581 L27.5989695,13.2349581 C27.5989695,13.7872428 27.1512543,14.2349581 26.5989695,14.2349581 L12.5989695,14.2349581 C12.0466848,14.2349581 11.5989695,13.7872428 11.5989695,13.2349581 L11.5989695,10.2349581 C11.5989695,9.68267331 12.0466848,9.23495806 12.5989695,9.23495806 Z"></path>
            </g>
        </g>
    </g>
</svg>