<?xml version="1.0" encoding="UTF-8"?>
<svg width="32px" height="28px" viewBox="0 0 32 28" version="1.1" xmlns="http://www.w3.org/2000/svg" xmlns:xlink="http://www.w3.org/1999/xlink">
    <!-- Generator: Sketch 50.2 (55047) - http://www.bohemiancoding.com/sketch -->
    <title>interface/actions/tab</title>
    <desc>Created with Sketch.</desc>
    <defs></defs>
    <g id="Icons" stroke="none" stroke-width="1" fill="none" fill-rule="evenodd">
        <g id="icons" transform="translate(-1595.000000, -110.000000)" fill="#FFFFFF">
            <g id="Interface/actions/tab" transform="translate(1595.000000, 110.000000)">
                <path d="M1,0 L31,0 C31.5522847,-1.01453063e-16 32,0.44771525 32,1 L32,6 L0,6 L0,1 C-6.76353751e-17,0.44771525 0.44771525,1.01453063e-16 1,0 Z M3,8 L29,8 L29,26 C29,27.1045695 28.1045695,28 27,28 L5,28 C3.8954305,28 3,27.1045695 3,26 L3,8 Z M11,13 L11,16 L21,16 L21,13 L11,13 Z"></path>
            </g>
        </g>
    </g>
</svg>