<?xml version="1.0" encoding="UTF-8"?>
<svg width="21px" height="32px" viewBox="0 0 21 32" version="1.1" xmlns="http://www.w3.org/2000/svg" xmlns:xlink="http://www.w3.org/1999/xlink">
    <!-- Generator: Sketch 50.2 (55047) - http://www.bohemiancoding.com/sketch -->
    <title>Interface/actions/upload</title>
    <desc>Created with Sketch.</desc>
    <defs></defs>
    <g id="Icons" stroke="none" stroke-width="1" fill="none" fill-rule="evenodd">
        <g id="icons" transform="translate(-1601.000000, -168.000000)" fill="#FFFFFF">
            <g id="Interface/actions/upload" transform="translate(1601.000000, 168.000000)">
                <path d="M9.60936256,0.403844683 C10.0786934,-0.134614894 10.9226654,-0.134614894 11.3899377,0.403844683 L20.7127411,11.1077684 C21.3693925,11.8624277 20.8280153,13.0352089 19.8193658,13.0352089 L15.6307983,13.0352089 L15.6307983,22.5031232 C15.6307983,23.2373862 15.0297255,23.8329552 14.2886769,23.8329552 L6.70856495,23.8329552 C5.96751632,23.8329552 5.36850202,23.2373862 5.36850202,22.5031232 L5.36850202,13.0352089 L1.17993448,13.0352089 C0.171284964,13.0352089 -0.370092224,11.8624277 0.288617663,11.1077684 L9.60936256,0.403844683 Z M19.182064,32 L1.8168246,32 C0.818467428,32 0.00125547469,31.190271 0.00125547469,30.1990159 C0.00125547469,29.2077608 0.818467428,28.3959921 1.8168246,28.3959921 L19.182064,28.3959921 C20.1804212,28.3959921 20.9996916,29.2077608 20.9996916,30.1990159 C20.9996916,31.190271 20.1804212,32 19.182064,32 Z"></path>
            </g>
        </g>
    </g>
</svg>