<?xml version="1.0" encoding="UTF-8"?>
<svg width="28px" height="32px" viewBox="0 0 28 32" version="1.1" xmlns="http://www.w3.org/2000/svg" xmlns:xlink="http://www.w3.org/1999/xlink">
    <!-- Generator: Sketch 50.2 (55047) - http://www.bohemiancoding.com/sketch -->
    <title>Interface/actions/upload-document</title>
    <desc>Created with Sketch.</desc>
    <defs></defs>
    <g id="Icons" stroke="none" stroke-width="1" fill="none" fill-rule="evenodd">
        <g id="icons" transform="translate(-1500.000000, -168.000000)" fill="#FFFFFF">
            <g id="Interface/actions/upload-document" transform="translate(1500.000000, 168.000000)">
                <path d="M8,0.359280153 L8,6 C8,7.1045695 7.1045695,8 6,8 L2.66453526e-15,8 L6.82842712,1.17157288 C7.1704594,0.829540598 7.56805569,0.555847041 8,0.359280153 Z M10,-1.31828128e-15 L26,-6.66133815e-16 C27.1045695,-8.6903994e-16 28,0.8954305 28,2 L28,30 C28,31.1045695 27.1045695,32 26,32 L2,32 C0.8954305,32 5.7935996e-16,31.1045695 4.4408921e-16,30 L4.03717464e-17,10 L7,10 C8.65685425,10 10,8.65685425 10,7 L10,-1.33226763e-15 Z M11.196548,27.5 C11.196548,27.7761424 11.4204056,28 11.696548,28 L16.3029394,28 C16.5790817,28 16.8029394,27.7761424 16.8029394,27.5 L16.8029394,23.0905903 L20.8939296,23.0905903 C21.015532,23.0905903 21.1329666,23.0462749 21.2242531,22.9659387 C21.4315523,22.7835061 21.4517106,22.467566 21.269278,22.2602668 L14.3752262,14.4265173 C14.361188,14.4105656 14.3461472,14.3955251 14.3301953,14.3814871 C14.1228932,14.1990578 13.8069535,14.2192212 13.6245242,14.4265233 L6.73069331,22.2602728 C6.65036036,22.3515585 6.60604695,22.4689907 6.60604695,22.5905903 C6.60604695,22.8667327 6.82990457,23.0905903 7.10604695,23.0905903 L11.196548,23.0905903 L11.196548,27.5 Z"></path>
            </g>
        </g>
    </g>
</svg>