<?xml version="1.0" encoding="UTF-8"?>
<svg width="32px" height="23px" viewBox="0 0 32 23" version="1.1" xmlns="http://www.w3.org/2000/svg" xmlns:xlink="http://www.w3.org/1999/xlink">
    <!-- Generator: Sketch 50.2 (55047) - http://www.bohemiancoding.com/sketch -->
    <title>Interface/actions/volume</title>
    <desc>Created with Sketch.</desc>
    <defs></defs>
    <g id="Icons" stroke="none" stroke-width="1" fill="none" fill-rule="evenodd">
        <g id="icons" transform="translate(-1644.000000, -233.000000)" fill="#FFFFFF">
            <g id="Interface/actions/volume" transform="translate(1644.000000, 233.000000)">
                <path d="M20.6270085,18.744688 C19.865784,18.2641305 19.8171952,17.1402986 20.3754265,16.4351916 C21.214393,15.3731921 22.0803533,13.797007 22.0803533,12.298926 C22.0803533,10.7672168 21.201436,8.72023719 20.3754265,7.67559417 C19.8171952,6.96831769 19.9413666,5.94645505 20.6270085,5.36609782 C21.5458766,4.58939543 22.597554,5.23050033 22.9052831,5.62210587 C24.197745,7.25469958 25,9.80935618 25,12.1036656 C25,14.678933 24.2182603,17.1359594 22.9139211,18.4778321 C22.5273702,18.8781159 21.4638155,19.2740606 20.6270085,18.744688 Z M26.7373335,23 C26.1770196,23 25.6696932,22.75262 25.4859283,22.5739566 C25.174768,22.2694889 25.0000223,21.8645891 25.0000223,21.4364313 C25.0000223,21.005102 25.174768,20.6361464 25.4859283,20.3316786 C27.4960684,18.3822394 28.8004611,15.2054146 28.8004611,11.5623736 C28.8004611,7.79669976 27.5017054,4.6759055 25.49382,2.75712447 C25.1770228,2.4547711 25.0034044,2.05198566 25.0000223,1.62171355 C24.9977675,1.19249862 25.1668763,0.787598823 25.4780365,0.478902372 C25.7937063,0.1712631 26.2119688,0 26.6584161,0 C27.1003538,0 27.5141067,0.163862842 27.8275217,0.465159037 C30.4430715,2.96538886 32,6.98267145 32,11.5623736 C32,15.931697 30.369791,20.1667586 27.8365409,22.5739566 C27.5377819,22.8562236 27.1691247,23 26.7373335,23 Z M17,1.18639927 L17,21.8132489 C17,22.9391386 16.1918841,23.3338349 15.3016425,22.6925857 L6.8,16.4292951 L0,16.4292951 L0,6.57141121 L6.8,6.57141121 L15.3005475,0.30600431 C16.1918841,-0.334186734 17,0.0636840632 17,1.18639927 Z"></path>
            </g>
        </g>
    </g>
</svg>