<svg xmlns="http://www.w3.org/2000/svg" viewBox="0 0 48.5 49.49"><defs><style>.cls-1{fill:#185680;fill-rule:evenodd;}</style></defs><title>401k</title><g id="Layer_2" data-name="Layer 2"><g id="Layer_2-2" data-name="Layer 2"><path class="cls-1" d="M26.55,3.69a3.89,3.89,0,0,1-7.77,0,3.89,3.89,0,0,1,7.77,0"/><path class="cls-1" d="M46,24.18H43.84a18.81,18.81,0,0,0-10-9.81l1-5.65a.35.35,0,0,0-.36-.42c-1.3.08-5.11.61-6.93,4.15a27.74,27.74,0,0,0-4.69-.39c-8.44,0-15.77,3.77-19.43,9.29a2,2,0,0,1-.73-.43A2.91,2.91,0,0,1,2,19a1,1,0,0,0-1-1A1,1,0,0,0,0,19a4.69,4.69,0,0,0,1.34,3.28A4,4,0,0,0,2.52,23,14.23,14.23,0,0,0,1,29.38c0,5.13,2.82,9.73,7.31,12.9v5.25c0,2,0,2,2.14,2h3c2.09,0,2.09,0,2.14-2V45.71c2.43.16,4.68.27,7.25.27s4.87,0,7.37-.27v1.82c0,2,0,2,2.14,2h3c2.15,0,2.15,0,2.14-2V42.28a82.94,82.94,0,0,0,8-7.24,1.53,1.53,0,0,1,1-.52c2,0,2-.09,2-2.34v-5.6C48.5,24.18,48.5,24.18,46,24.18ZM27.64,19.82l-.78-.14a28.73,28.73,0,0,0-4.26-.31,27.57,27.57,0,0,0-4.28.32l-.82.14A1.54,1.54,0,0,1,16,18.38a1.44,1.44,0,0,1,.81-1.25l1-.19a28.44,28.44,0,0,1,9.74,0l.77.15a1.45,1.45,0,0,1,.9,1.29A1.53,1.53,0,0,1,27.64,19.82Zm8.59,7.07a2.22,2.22,0,1,1,2.34-2.22A2.29,2.29,0,0,1,36.23,26.89Z"/></g></g></svg>