<svg xmlns="http://www.w3.org/2000/svg" viewBox="0 0 43.69 43.69"><defs><style>.cls-1{fill:#185680;}</style></defs><title>accident</title><g id="Layer_2" data-name="Layer 2"><g id="Layer_2-2" data-name="Layer 2"><path class="cls-1" d="M42.92,30.71a.87.87,0,0,0-.17-.21L34.1,21.85l8.41-8.41a.94.94,0,0,0,.09-.12l.09-.07c2-2,.9-6.38-2.48-9.77S32.45-1,30.44,1l-.09.11-.09.07L21.85,9.59,13.44,1.18l-.12-.09L13.25,1c-2-2-6.38-.9-9.77,2.49S-1,11.24,1,13.26a.48.48,0,0,1,.11.09l.07.09,8.41,8.41L.94,30.5a1.73,1.73,0,0,0-.17.21C-.91,32.82.24,37,3.48,40.21s7.39,4.39,9.5,2.71a1.18,1.18,0,0,0,.22-.17l8.65-8.65,8.65,8.65a1.12,1.12,0,0,0,.21.17c2.11,1.68,6.26.54,9.5-2.71S44.6,32.82,42.92,30.71ZM37.24,8.55a1.78,1.78,0,1,1-1.78,1.77A1.77,1.77,0,0,1,37.24,8.55Zm-4-4a1.78,1.78,0,1,1-1.78,1.77A1.77,1.77,0,0,1,33.23,4.54ZM6.69,34.75A1.78,1.78,0,1,1,8.47,33,1.77,1.77,0,0,1,6.69,34.75Zm4-7.56A1.78,1.78,0,1,1,8.93,29,1.78,1.78,0,0,1,10.71,27.19Zm0,11.58A1.78,1.78,0,1,1,12.48,37,1.78,1.78,0,0,1,10.71,38.77Zm4-4A1.78,1.78,0,1,1,16.49,33,1.78,1.78,0,0,1,14.72,34.76Zm15-12.69-7.36,7.36a.59.59,0,0,1-.85,0l-7.36-7.36a.6.6,0,0,1,0-.84l7.36-7.36a.61.61,0,0,1,.85,0l7.36,7.36A.6.6,0,0,1,29.75,22.07Zm-.54-10A1.78,1.78,0,1,1,31,10.32,1.78,1.78,0,0,1,29.21,12.1Zm2.24,2.24a1.78,1.78,0,1,1,1.78,1.77A1.78,1.78,0,0,1,31.45,14.34Z"/></g></g></svg>