<svg xmlns="http://www.w3.org/2000/svg" viewBox="0 0 51.5 34.04"><defs><style>.cls-1{fill:#185680;}</style></defs><title>ad&amp;amp;d</title><g id="Layer_2" data-name="Layer 2"><g id="Layer_2-2" data-name="Layer 2"><path class="cls-1" d="M49.41,16.61,46.93,16a2.85,2.85,0,0,1-2-1.67L41.17,5.89a.34.34,0,0,0-.32-.21H32.5V.85A.85.85,0,0,0,31.65,0H.85A.85.85,0,0,0,0,.85V27.68a.85.85,0,0,0,.85.85h3c0,.2-.06.4-.06.6s0,.22,0,.32a4.9,4.9,0,0,0,9.77,0c0-.1,0-.21,0-.32a5.09,5.09,0,0,0,0-.55l19,.09h4.36c0,.15,0,.3,0,.46s0,.22,0,.32a4.9,4.9,0,0,0,9.77,0c0-.1,0-.21,0-.32a3.57,3.57,0,0,0,0-.46h4.08a.85.85,0,0,0,.85-.85V19.26A2.73,2.73,0,0,0,49.41,16.61ZM23.3,15.54a.42.42,0,0,1-.41.41H18.67v4.22a.42.42,0,0,1-.41.41h-4a.41.41,0,0,1-.41-.41V16H9.65a.42.42,0,0,1-.41-.41v-4a.41.41,0,0,1,.41-.41h4.22V6.93a.41.41,0,0,1,.41-.41h4a.41.41,0,0,1,.41.41v4.22h4.22a.41.41,0,0,1,.41.41Zm17.85.75H32.86a.32.32,0,0,1-.32-.32V9.49a.32.32,0,0,1,.32-.32h5.67a.33.33,0,0,1,.3.2l2.62,6.48A.32.32,0,0,1,41.15,16.29Z"/></g></g></svg>