<svg xmlns="http://www.w3.org/2000/svg" viewBox="0 0 33.97 47.03"><defs><style>.cls-1{fill:#185680;}</style></defs><title>cancer</title><g id="Layer_2" data-name="Layer 2"><g id="Layer_2-2" data-name="Layer 2"><path class="cls-1" d="M.73,39.18a3.2,3.2,0,0,0,.35,4.43L4,46.22a3.21,3.21,0,0,0,4.67-.44l7.21-9.35L9.63,28.29Z"/><path class="cls-1" d="M33.25,39.18l-10-12.27L17,19.3,11.78,13s-.24-.31-.6-.87h0a14.18,14.18,0,0,1,11.62,0,9.49,9.49,0,0,1-.61.86l-4.12,5,6.21,7.54L30,18.15c2.71-4.72-4.34-16.48-4.34-16.48h0a23.33,23.33,0,0,0-17.35,0h0S1.27,13.43,4,18.15l6.77,8.78L17,35l8.3,10.77a3.22,3.22,0,0,0,4.68.44l2.93-2.61A3.21,3.21,0,0,0,33.25,39.18Z"/></g></g></svg>