<svg xmlns="http://www.w3.org/2000/svg" viewBox="0 0 39.4 42.38"><defs><style>.cls-1{fill:#185680;}</style></defs><title>critical illness</title><g id="Layer_2" data-name="Layer 2"><g id="Layer_2-2" data-name="Layer 2"><path class="cls-1" d="M38.42,0H1A1,1,0,0,0,0,1V41.4a1,1,0,0,0,1,1H38.42a1,1,0,0,0,1-1V1A1,1,0,0,0,38.42,0ZM5.28,4.3H34.12a1,1,0,0,1,1,1V18.5H32.67c-.59-.9-1.78-2.84-2.82-4.58a1.5,1.5,0,0,0-2.71.27l-2.56,7.29L22,8.78a1.51,1.51,0,0,0-1.4-1.21,1.54,1.54,0,0,0-1.51,1.07l-3.22,10.9-2.07-7.19A1.5,1.5,0,0,0,11,12.27L8.93,18H4.3V5.28A1,1,0,0,1,5.28,4.3ZM17.16,37.48a1.25,1.25,0,0,1-1.24,1.24H5.55A1.25,1.25,0,0,1,4.3,37.48V37a1.25,1.25,0,0,1,1.25-1.24H15.92A1.25,1.25,0,0,1,17.16,37ZM29.37,38a.73.73,0,0,1-.73.73H26.38a.73.73,0,0,1-.73-.73V36.47a.73.73,0,0,1,.73-.73h2.26a.73.73,0,0,1,.73.73Zm5.73,0a.73.73,0,0,1-.73.73H32.11a.73.73,0,0,1-.73-.73V36.47a.73.73,0,0,1,.73-.73h2.26a.73.73,0,0,1,.73.73Zm0-7.08a1,1,0,0,1-1,1H5.28a1,1,0,0,1-1-1V21H10a1.5,1.5,0,0,0,1.41-1l.84-2.33,2.21,7.65a1.5,1.5,0,0,0,1.44,1.08h0a1.49,1.49,0,0,0,1.44-1.07l3-10,2.42,12.11a1.5,1.5,0,0,0,1.36,1.2h.11a1.49,1.49,0,0,0,1.41-1l3.33-9.43c2,3.31,2.19,3.31,3,3.31H35v.16a.13.13,0,0,1,.13.13Z"/></g></g></svg>