<svg xmlns="http://www.w3.org/2000/svg" viewBox="0 0 53.17 38.96"><defs><style>.cls-1{fill:#185680;}</style></defs><title>dental</title><g id="Layer_2" data-name="Layer 2"><g id="Layer_2-2" data-name="Layer 2"><path class="cls-1" d="M13.1,16.82a7.36,7.36,0,0,1,.94-.75h0c9.14-6.2,32.63,8,38-6h0a13.13,13.13,0,0,0,.58-1.95,29,29,0,0,0,.6-6.21C53.17.5,52-.36,51,.15a1.26,1.26,0,0,0-.28.19C40.87,8.81,17.68-4.92,11.94,7.73a18.09,18.09,0,0,0-1.3,7.63C10.65,16.9,12.11,17.77,13.1,16.82Z"/><path class="cls-1" d="M49.67,32.27h-.1V19.2l-.52-.42a1.38,1.38,0,0,0-1.72,0l-.52.42V32.27H44.22V20.05l-.52-.42a1.37,1.37,0,0,0-1.71,0l-.52.42V32.27H38.88V19.2l-.52-.42a1.38,1.38,0,0,0-1.72,0l-.52.42V32.27H33.54V20.05L33,19.63a1.37,1.37,0,0,0-1.71,0l-.52.42V32.27H28.19V19.2l-.52-.42a1.38,1.38,0,0,0-1.72,0l-.52.42V32.27H22.85V20.05l-.52-.42a1.38,1.38,0,0,0-1.72,0l-.52.42V32.27H17.5V19.2L17,18.78a1.38,1.38,0,0,0-1.72,0l-.52.42V32.27h-1L1,26.8a.69.69,0,0,0-1,.64V32.7a1.46,1.46,0,0,0,.89,1.35l10.85,4.64a3.35,3.35,0,0,0,1.32.27H49.82a3.34,3.34,0,0,0,3.35-3.46A3.45,3.45,0,0,0,49.67,32.27Z"/></g></g></svg>