<svg xmlns="http://www.w3.org/2000/svg" viewBox="0 0 57.5 44.12"><defs><style>.cls-1{fill:#185680;}</style></defs><title>fmla</title><g id="Layer_2" data-name="Layer 2"><g id="Layer_2-2" data-name="Layer 2"><path class="cls-1" d="M57.34,31.78l-.62-.84a.84.84,0,0,0-1.37,0l-.61.84a.82.82,0,0,0-.17.5v3.51H51.66V32.28a.88.88,0,0,0-.16-.5l-.62-.84a.84.84,0,0,0-1.37,0l-.62.84a.88.88,0,0,0-.16.5v3.51H46.19V17.42h1.58a.84.84,0,0,0,.72-.4l1.93-3.13a.86.86,0,0,0-.28-1.18l-6.64-4.1V.85A.85.85,0,0,0,42.64,0h-5a.85.85,0,0,0-.85.85v3.6C29.5,0,29.32,0,28.75,0,28,0,27.94,0,7.39,12.74a.85.85,0,0,0-.28,1.17L9,17a.86.86,0,0,0,.72.4h1.63V36H8.77V32.49a.88.88,0,0,0-.16-.5L8,31.15a.85.85,0,0,0-1.37,0L6,32a.82.82,0,0,0-.17.5V36H2.93V32.49a.82.82,0,0,0-.17-.5l-.61-.84a.85.85,0,0,0-1.37,0L.16,32a.88.88,0,0,0-.16.5V43.27a.85.85,0,0,0,.85.85H2.08a.85.85,0,0,0,.85-.85V38.93H5.84v4.34a.85.85,0,0,0,.85.85H7.92a.85.85,0,0,0,.85-.85V38.93H11.4v4.13a.86.86,0,0,0,.86.85h5.57V30.11a.34.34,0,0,1,.34-.34h7.91a.34.34,0,0,1,.34.34V43.9H45.34a.85.85,0,0,0,.85-.85V38.72h2.54v4.34a.85.85,0,0,0,.85.85h1.23a.85.85,0,0,0,.85-.85V38.72h2.91v4.34a.85.85,0,0,0,.85.85h1.23a.85.85,0,0,0,.85-.85V32.28A.88.88,0,0,0,57.34,31.78ZM26.16,24.63h-8.1a.24.24,0,0,1-.24-.24v-7a.24.24,0,0,1,.24-.24h8.1a.24.24,0,0,1,.24.24v7A.25.25,0,0,1,26.16,24.63Zm5-7.24a.24.24,0,0,1,.24-.24h8.11a.24.24,0,0,1,.24.24v7a.24.24,0,0,1-.24.24h-8.1a.25.25,0,0,1-.25-.24Zm8.36,19.44H31.42a.24.24,0,0,1-.24-.24v-7a.24.24,0,0,1,.24-.24h8.1a.24.24,0,0,1,.24.24v7A.24.24,0,0,1,39.53,36.83Z"/></g></g></svg>