<svg xmlns="http://www.w3.org/2000/svg" viewBox="0 0 60.54 39.34"><defs><style>.cls-1{fill:#185680;}</style></defs><title>hospital indemnity</title><g id="Layer_2" data-name="Layer 2"><g id="Layer_2-2" data-name="Layer 2"><path class="cls-1" d="M18.55,8.94c1.24-1.81.49-4.52-1.67-6.06L14.26,1C12.1-.51,9.35-.29,8.11,1.51l-.36.54L18.18,9.47Z"/><path class="cls-1" d="M57,10.87H53V2.33A2.1,2.1,0,0,0,50.9.22H29a2.1,2.1,0,0,0-2.08,2.11v8.54H17.33L5.78,2.63A3.62,3.62,0,0,0,.7,3.55l0,.06a3.78,3.78,0,0,0,.89,5.18l12.51,8.93a3.54,3.54,0,0,0,2.3.65l.22,0h1.74L31.9,25.64l-11.25,6a3.89,3.89,0,0,0-1.59-.35A4,4,0,1,0,23,35.73H46.23a3.95,3.95,0,1,0,3.91-4.44,3.9,3.9,0,0,0-1.6.35l-11.26-6,13.57-7.25H57a3.56,3.56,0,0,0,3.55-3.55v-.41A3.57,3.57,0,0,0,57,10.87Zm-6.51-8.1v8.1H45.15V2.77Zm-7.83,0v8.1H37.33V2.77Zm-13.28,0h5.46v8.1H29.37ZM46,33.18H23.13l11.46-6.11Zm-11.45-9L23.7,18.39H45.47Z"/></g></g></svg>