<svg xmlns="http://www.w3.org/2000/svg" viewBox="0 0 41.66 35.22"><defs><style>.cls-1{fill:#185680;}</style></defs><title>individual disability</title><g id="Layer_2" data-name="Layer 2"><g id="Layer_2-2" data-name="Layer 2"><path class="cls-1" d="M39.92,14.7h-.06V7a.61.61,0,0,0-.61-.61H.61A.61.61,0,0,0,0,7V34.61a.61.61,0,0,0,.61.61H39.25a.61.61,0,0,0,.61-.61V27h.06a1.74,1.74,0,0,0,1.74-1.75V16.44A1.74,1.74,0,0,0,39.92,14.7ZM40,25.23a.06.06,0,0,1-.06.06H18.17a.05.05,0,0,1-.06-.06V16.44a.06.06,0,0,1,.06-.06H39.92a.06.06,0,0,1,.06.06Z"/><path class="cls-1" d="M23.31,19a1.87,1.87,0,1,0,1.86,1.87A1.87,1.87,0,0,0,23.31,19Z"/><path class="cls-1" d="M35.58,3.6V.41A.47.47,0,0,0,35.07,0L.52,3.83A.47.47,0,0,0,0,4.24v.2H34.74A.83.83,0,0,0,35.58,3.6Z"/></g></g></svg>