<svg xmlns="http://www.w3.org/2000/svg" viewBox="0 0 29.98 56.41"><defs><style>.cls-1{fill:#185680;}</style></defs><title>life</title><g id="Layer_2" data-name="Layer 2"><g id="Layer_2-2" data-name="Layer 2"><path class="cls-1" d="M13.72,43.69V55.15A1.25,1.25,0,0,0,15,56.41h0a1.25,1.25,0,0,0,1.25-1.26V43.69c-.4,0-.81.06-1.22.07S14.16,43.73,13.72,43.69Z"/><path class="cls-1" d="M15.94.39A1.5,1.5,0,0,0,14,.33C10.68,3,.33,12.62,0,28A15.36,15.36,0,0,0,13.72,43.69V36L8.86,32.58a1.14,1.14,0,1,1,1.31-1.87l3.55,2.49V28.26L8.86,24.85A1.15,1.15,0,0,1,10.17,23l3.55,2.49V20.52L8.86,17.11a1.14,1.14,0,1,1,1.31-1.87l3.55,2.49V8.86A1.26,1.26,0,0,1,15,7.6h0a1.26,1.26,0,0,1,1.25,1.26v8.87l3.55-2.49a1.14,1.14,0,0,1,1.32,1.87l-4.87,3.41v4.94L19.81,23a1.15,1.15,0,0,1,1.32,1.88l-4.87,3.41V33.2l3.55-2.49a1.14,1.14,0,0,1,1.32,1.87L16.26,36v7.7A15,15,0,0,0,30,28.76C30,14.26,19.24,3.39,15.94.39Z"/></g></g></svg>