<svg xmlns="http://www.w3.org/2000/svg" viewBox="0 0 38.51 44.88"><defs><style>.cls-1{fill:#185680;}</style></defs><title>long term care</title><g id="Layer_2" data-name="Layer 2"><g id="Layer_2-2" data-name="Layer 2"><path class="cls-1" d="M36.42,37.14c-1.5.53-3,1-4.52,1.38l-3-10.11h4.56a.79.79,0,0,0,.79-.79,7.25,7.25,0,0,0-.76-3.08c-.91-1.84-2.55-3.36-4.4-3.39.22-.1.36-.25.34-.44-.37-3.6-1.53-6.25-3.52-8-3.29-3-8.55-3.42-15.42-2.91h0L9,3.91A5.13,5.13,0,0,0,5,.11a5.17,5.17,0,0,0-2.28,0L2,.36a1.6,1.6,0,0,0-1.17,2L6.61,26.7a2.25,2.25,0,0,0,1.7,1.66L5.39,38.18c-1.11-.31-2.21-.65-3.31-1C1.77,37-1,38.88.37,39.68a36.89,36.89,0,0,0,37.77,0C39.49,38.88,36.73,37,36.42,37.14ZM11.19,12.6c6.79-.45,10.58.23,12.78,2.21,1.41,1.27,2.25,3.19,2.56,5.92,0,.18.18.32.41.42H13.34L11.19,12.6ZM8,38.86l3.11-10.45H26l3.19,10.72A49.54,49.54,0,0,1,8,38.86Z"/></g></g></svg>