<svg xmlns="http://www.w3.org/2000/svg" viewBox="0 0 44.62 49.28"><defs><style>.cls-1{fill:#185680;}</style></defs><title>long term disability</title><g id="Layer_2" data-name="Layer 2"><g id="Layer_2-2" data-name="Layer 2"><path class="cls-1" d="M43.9,32.88H39.5v-15h0A6.11,6.11,0,0,0,33.38,12H16.26V7.62A6.36,6.36,0,0,0,9.9,1.26H6.85V.89A.89.89,0,0,0,6,0H1A.88.88,0,0,0,.11.89V4.62A.88.88,0,0,0,1,5.51H6a.89.89,0,0,0,.89-.89V4.26H9.9a3.36,3.36,0,0,1,3.36,3.36V12h0V19.6h0v3.23a13.25,13.25,0,1,0,11.67,7H36.52v9.5a4.71,4.71,0,1,0,3-.22V35.87h4.4a.72.72,0,0,0,.72-.72V33.6A.72.72,0,0,0,43.9,32.88ZM36.5,18.1v1.11H16.23V15H33.38A3.12,3.12,0,0,1,36.5,18.1ZM13.23,46a9.9,9.9,0,1,1,9.9-9.9A9.91,9.91,0,0,1,13.23,46Z"/><circle class="cls-1" cx="13.23" cy="36.05" r="7.74"/></g></g></svg>