<svg xmlns="http://www.w3.org/2000/svg" viewBox="0 0 40.65 54.61"><defs><style>.cls-1{fill:#185680;}</style></defs><title>short term disability</title><g id="Layer_2" data-name="Layer 2"><g id="Layer_2-2" data-name="Layer 2"><path class="cls-1" d="M15.56.15c-1.49.62-4,.74-7.16.75S2.73.77,1.24.15C1.24.15,0-.46,0,.77V4.34A.71.71,0,0,0,.78,5H2.41V23.28a.75.75,0,0,0,0,.2L6.09,38.64a1.23,1.23,0,0,1,0,.2v4.53a.84.84,0,0,0,.83.84v7.06a.92.92,0,0,0-.79.62l-.49,1.5a.94.94,0,0,0,.89,1.22h3.7a.94.94,0,0,0,.89-1.22l-.49-1.5a.92.92,0,0,0-.79-.62V44.21a.84.84,0,0,0,.83-.84V38.84a1.23,1.23,0,0,1,0-.2l3.65-15.16a.75.75,0,0,0,0-.2V5H16a.71.71,0,0,0,.78-.62V.77C16.8-.46,15.56.15,15.56.15ZM11.39,12.21v3.94h-6V6.54h6Zm0,10.91L9.23,32a.85.85,0,0,1-1.66,0L5.44,23.12a.69.69,0,0,1,0-.2V19.08h6v3.84A.69.69,0,0,1,11.36,23.12Z"/><path class="cls-1" d="M39.41.15c-1.48.62-4,.74-7.16.75S26.58.77,25.09.15c0,0-1.24-.61-1.24.62V4.34a.71.71,0,0,0,.78.62h1.63V23.28a.75.75,0,0,0,0,.2l3.65,15.16a.65.65,0,0,1,0,.2v4.53a.84.84,0,0,0,.83.84v7.06a.93.93,0,0,0-.79.62l-.49,1.5a.94.94,0,0,0,.89,1.22h3.7A.93.93,0,0,0,35,53.39l-.49-1.5a.92.92,0,0,0-.79-.62V44.21a.84.84,0,0,0,.83-.84V38.84a1.23,1.23,0,0,1,0-.2l3.65-15.16a.75.75,0,0,0,0-.2V5h1.63a.71.71,0,0,0,.78-.62V.77C40.65-.46,39.41.15,39.41.15ZM35.24,12.21v3.94h-6V6.54h6Zm0,10.91L33.08,32a.85.85,0,0,1-1.66,0l-2.13-8.87a.69.69,0,0,1,0-.2V19.08h6v3.84A.69.69,0,0,1,35.21,23.12Z"/></g></g></svg>