<svg xmlns="http://www.w3.org/2000/svg" viewBox="0 0 60.01 23.72"><defs><style>.cls-1{fill:#185680;}</style></defs><title>vision</title><g id="Layer_2" data-name="Layer 2"><g id="Layer_2-2" data-name="Layer 2"><path class="cls-1" d="M60,2.78v-.1l-.1,0L54.55,1.13c-12.17-2.76-19.78.31-22.12,1.13a7.25,7.25,0,0,1-2.42.4,7.26,7.26,0,0,1-2.43-.4c-2.33-.82-9.95-3.89-22.11-1.13L.11,2.64,0,2.68v.1H0v4s1.07.87,1.1,1.65S-.15,23.88,13.79,23.72,27.89,13.06,28.67,8.44a1.4,1.4,0,0,1,2.67,0c.78,4.62.94,15.13,14.88,15.28S58.89,9.23,58.91,8.44,60,6.79,60,6.79v-4h0Zm-37.44,12c-2.21,6.43-10.68,5.11-10.68,5.11-1.15-.2-6.54-1.56-6.36-9.95,0,0,.12-4.52,3.71-5.52a24.07,24.07,0,0,1,11.65,0C23,5,25.17,8.36,22.57,14.79ZM48.14,20s-8.53,1.33-10.75-5.14C34.78,8.34,37,5,39.08,4.38a24.15,24.15,0,0,1,11.73,0c3.61,1,3.73,5.56,3.73,5.56C54.72,18.38,49.3,19.76,48.14,20Z"/></g></g></svg>