<?xml version="1.0" encoding="UTF-8"?>
<svg width="32px" height="32px" viewBox="0 0 32 32" version="1.1" xmlns="http://www.w3.org/2000/svg" xmlns:xlink="http://www.w3.org/1999/xlink">
    <!-- Generator: Sketch 50.2 (55047) - http://www.bohemiancoding.com/sketch -->
    <title>Interface/social/share</title>
    <desc>Created with Sketch.</desc>
    <defs></defs>
    <g id="Icons" stroke="none" stroke-width="1" fill="none" fill-rule="evenodd">
        <g id="icons" transform="translate(-1312.000000, -468.000000)" fill="#FFFFFF">
            <g id="Interface/social/share" transform="translate(1312.000000, 468.000000)">
                <path d="M11.9130176,20.1138874 C10.6925091,21.6682044 8.79618956,22.6666667 6.66666667,22.6666667 C2.98476833,22.6666667 0,19.6818983 0,16 C0,12.3181017 2.98476833,9.33333333 6.66666667,9.33333333 C8.54912424,9.33333333 10.2493515,10.113554 11.4616118,11.3682586 L15.1051766,9.04962646 C14.8218792,8.30964342 14.6666667,7.50628095 14.6666667,6.66666667 C14.6666667,2.98476833 17.651435,-5.68434189e-14 21.3333333,-5.68434189e-14 C25.0152317,-5.68434189e-14 28,2.98476833 28,6.66666667 C28,10.348565 25.0152317,13.3333333 21.3333333,13.3333333 C19.4508758,13.3333333 17.7506485,12.5531127 16.5383882,11.2984081 L12.8948234,13.6170402 C13.1781208,14.3570232 13.3333333,15.1603857 13.3333333,16 C13.3333333,16.598124 13.2545654,17.1778507 13.1068367,17.729373 L20.0869824,21.2194459 C21.3074909,19.665129 23.2038104,18.6666667 25.3333333,18.6666667 C29.0152317,18.6666667 32,21.651435 32,25.3333333 C32,29.0152317 29.0152317,32 25.3333333,32 C21.651435,32 18.6666667,29.0152317 18.6666667,25.3333333 C18.6666667,24.7352093 18.7454346,24.1554826 18.8931633,23.6039603 L11.9130176,20.1138874 Z"></path>
            </g>
        </g>
    </g>
</svg>