<?xml version="1.0" encoding="utf-8"?>
<!-- Generator: Adobe Illustrator 21.1.0, SVG Export Plug-In . SVG Version: 6.00 Build 0)  -->
<svg version="1.1" id="Layer_1" xmlns="http://www.w3.org/2000/svg" xmlns:xlink="http://www.w3.org/1999/xlink" x="0px" y="0px"
	 viewBox="0 0 540 396" style="enable-background:new 0 0 540 396;" xml:space="preserve">
<style type="text/css">
	.st0{fill:#456981;}
	.st1{fill:#00597F;}
	.st2{fill:#939CAA;}
</style>
<path class="st0" d="M262.8,178.6c0,1.4,0.8,2.5,1.8,2.5c1,0,1.8-1.1,1.8-2.5c0-1.4-0.8-2.5-1.8-2.5
	C263.6,176.1,262.8,177.2,262.8,178.6"/>
<path class="st0" d="M249.5,174.4c0,2.3,0.6,4.2,1.4,4.2c0.8,0,1.4-1.9,1.4-4.2c0-2.3-0.6-4.2-1.4-4.2
	C250.1,170.2,249.5,172.1,249.5,174.4"/>
<path class="st1" d="M186.7,187.2c-1.2,1.1-1.8,2.5-1.8,4.2c0,1.5,0.5,2.9,1.6,4c1.1,1.1,2.4,1.6,3.9,1.6c1,0,2-0.3,2.8-0.7
	c0.9-0.5,1.5-1.2,2-2c0.5-0.9,0.7-1.8,0.7-2.8c0-1-0.2-1.9-0.7-2.8c-0.5-0.9-1.2-1.5-2.1-2c-0.9-0.5-1.8-0.8-2.8-0.8
	C189,185.8,187.8,186.3,186.7,187.2 M188.3,193.7L188.3,193.7c-0.6-0.6-0.8-1.4-0.8-2.3c0-0.9,0.3-1.7,0.9-2.3
	c0.6-0.6,1.3-0.9,2.1-0.9c0.9,0,1.6,0.3,2.2,0.9c0.6,0.6,0.8,1.4,0.8,2.3c0,0.9-0.3,1.7-0.9,2.3c-0.6,0.6-1.3,0.9-2.1,0.9
	C189.6,194.6,188.9,194.3,188.3,193.7"/>
<rect x="197.6" y="182.2" class="st1" width="2.6" height="14.5"/>
<path class="st1" d="M203.7,187.2c-1.2,1.1-1.8,2.5-1.8,4.2c0,1.5,0.5,2.9,1.6,4c1.1,1.1,2.4,1.6,3.9,1.6c1,0,2-0.3,2.8-0.7
	c0.9-0.5,1.5-1.2,2-2c0.5-0.9,0.7-1.8,0.7-2.8c0-1-0.2-1.9-0.7-2.8c-0.5-0.9-1.2-1.5-2.1-2c-0.9-0.5-1.8-0.8-2.8-0.8
	C206,185.8,204.7,186.3,203.7,187.2 M205.2,193.7L205.2,193.7c-0.6-0.6-0.8-1.4-0.8-2.3c0-0.9,0.3-1.7,0.9-2.3
	c0.6-0.6,1.3-0.9,2.1-0.9c0.9,0,1.6,0.3,2.2,0.9c0.6,0.6,0.8,1.4,0.8,2.3c0,0.9-0.3,1.7-0.9,2.3c-0.6,0.6-1.3,0.9-2.2,0.9
	C206.5,194.6,205.8,194.3,205.2,193.7"/>
<path class="st1" d="M219.1,186.1L219.1,186.1c-0.5,0.2-1,0.6-1.6,1.1l-0.1,0.1v-1.2h-2.6v10.6h2.6v-4.2c0-1.1,0-1.8,0.1-2.2
	c0.1-0.7,0.4-1.2,0.8-1.5c0.4-0.4,0.9-0.6,1.5-0.6c0.4,0,0.8,0.1,1.1,0.3c0.3,0.2,0.5,0.6,0.6,1c0.1,0.4,0.2,1.3,0.2,2.6v4.6h2.5v-7
	c0-1.2-0.3-2.1-0.9-2.8c-0.7-0.7-1.6-1.1-2.7-1.1C220.1,185.8,219.6,185.9,219.1,186.1"/>
<rect x="226.6" y="186.1" class="st1" width="2.6" height="10.6"/>
<path class="st1" d="M232.7,187.4L232.7,187.4c-1,1-1.5,2.4-1.5,4c0,1.6,0.5,2.9,1.5,4c1,1.1,2.2,1.6,3.6,1.6c0.6,0,1.2-0.1,1.7-0.3
	c0.5-0.2,1-0.6,1.6-1.1l0.1-0.1v1.2h2.6v-10.6h-2.6v1.3l-0.1-0.1c-0.5-0.5-1-0.8-1.6-1.1c-0.6-0.2-1.2-0.4-1.8-0.4
	C234.8,185.8,233.7,186.3,232.7,187.4 M233.8,191.4c0-0.9,0.3-1.7,0.8-2.3c0.6-0.6,1.3-0.9,2.1-0.9c0.9,0,1.6,0.3,2.2,0.9
	c0.6,0.6,0.9,1.4,0.9,2.3c0,1-0.3,1.8-0.9,2.4c-0.6,0.6-1.3,0.9-2.1,0.9c-0.8,0-1.5-0.3-2.1-0.9
	C234.1,193.1,233.8,192.3,233.8,191.4"/>
<rect x="244.8" y="181.9" class="st1" width="2.6" height="14.8"/>
<path class="st0" d="M225.8,179.6c0,1.2,1,2.2,2.2,2.2c1.2,0,2.2-1,2.2-2.2c0-1.2-1-2.2-2.2-2.2
	C226.8,177.3,225.8,178.3,225.8,179.6"/>
<path class="st0" d="M236.4,179.5c1.1,0,2-1.3,2-2.9c0-1.6-0.9-2.9-2-2.9c-1.1,0-2,1.3-2,2.9C234.4,178.2,235.3,179.5,236.4,179.5"
	/>
<path class="st0" d="M257.6,171c0,1.7,0.7,3.2,1.7,3.2c0.9,0,1.7-1.4,1.7-3.2c0-1.7-0.7-3.2-1.6-3.2
	C258.4,167.8,257.6,169.2,257.6,171"/>
<path class="st0" d="M242.4,172.6c0,1.9,0.7,3.4,1.5,3.4c0.8,0,1.5-1.5,1.5-3.4c0-1.9-0.7-3.4-1.5-3.4
	C243,169.2,242.4,170.7,242.4,172.6"/>
<path class="st1" d="M182.6,186.5c-1.3-1.4-2.8-2.1-4.4-2.1c-1.4,0-2.6,0.5-3.6,1.4c-1,1-1.4,2.2-1.4,3.6c0,1,0.2,1.9,0.6,2.6
	c0.4,0.8,1,1.4,1.8,1.8c0.8,0.4,1.6,0.7,2.6,0.7c0.8,0,1.6-0.2,2.2-0.5c0.7-0.3,1.4-0.8,2.2-1.6c0.1,0.1,1.7,1.8,1.8,1.9
	c-1,1-2,1.7-3,2.1c-0.9,0.4-2,0.6-3.2,0.6c-2.2,0-4.1-0.7-5.5-2.1c-1.4-1.4-2.1-3.2-2.1-5.5c0-1.4,0.3-2.7,1-3.8
	c0.6-1.1,1.6-2,2.8-2.7c1.2-0.7,2.5-1,3.9-1c1.2,0,2.3,0.3,3.4,0.8c1.1,0.5,2,1.2,2.8,2.1L182.6,186.5z"/>
<path class="st1" d="M260.3,186c0,0-3,6.9-3.3,7.6c-0.3-0.8-3.3-7.6-3.3-7.6h-1.6l4.6,10.7h0.5l4.6-10.7H260.3z"/>
<path class="st1" d="M262.1,189.8c-0.7,0.8-1.1,1.8-1.1,2.9c0,1.1,0.4,2.1,1.2,2.9c0.8,0.8,1.8,1.3,3,1.3c1.2,0,2.2-0.4,3-1.3
	c0.8-0.8,1.2-1.8,1.2-2.9c0-1.1-0.4-2.1-1.1-2.9c-0.8-0.9-1.8-1.3-3.1-1.3C263.9,188.5,262.9,188.9,262.1,189.8 M263.8,195.2
	L263.8,195.2c-0.4-0.2-0.8-0.6-1-1c-0.2-0.4-0.4-0.9-0.4-1.4c0-0.8,0.3-1.5,0.8-2c0.5-0.6,1.2-0.8,1.9-0.8c0.8,0,1.4,0.3,1.9,0.8
	c0.6,0.6,0.8,1.2,0.8,2c0,0.5-0.1,1-0.4,1.4c-0.2,0.4-0.6,0.8-1,1c-0.4,0.2-0.9,0.4-1.4,0.4C264.7,195.5,264.2,195.4,263.8,195.2"/>
<rect x="270.7" y="185.8" class="st1" width="1.4" height="10.9"/>
<path class="st1" d="M279.5,188.7v3.7c0,1.1-0.1,1.6-0.1,1.8c-0.1,0.4-0.4,0.7-0.7,0.9c-0.3,0.2-0.8,0.4-1.3,0.4
	c-0.5,0-0.9-0.1-1.3-0.4c-0.4-0.2-0.6-0.6-0.7-1c-0.1-0.3-0.1-0.9-0.1-1.7v-3.7h-1.4v3.9c0,1.1,0.1,1.9,0.4,2.5
	c0.3,0.6,0.7,1,1.2,1.3c0.5,0.3,1.2,0.5,2,0.5c0.8,0,1.4-0.2,1.9-0.5c0.5-0.3,0.9-0.8,1.2-1.3c0.3-0.6,0.4-1.4,0.4-2.4v-3.9H279.5z"
	/>
<path class="st1" d="M284.7,188.9L284.7,188.9c-0.4,0.2-0.7,0.5-1,0.8v-1h-1.4v8h1.4v-3c0-1,0-1.7,0.1-2c0.1-0.5,0.4-1,0.9-1.3
	c0.4-0.4,0.9-0.5,1.5-0.5c0.5,0,0.8,0.1,1.1,0.3c0.3,0.2,0.5,0.6,0.6,1c0.1,0.3,0.1,0.9,0.1,1.7v3.8h1.4v-4.1c0-1.1-0.1-1.8-0.3-2.4
	c-0.2-0.5-0.6-0.9-1-1.3c-0.5-0.3-1-0.5-1.6-0.5C285.7,188.5,285.2,188.6,284.7,188.9"/>
<polygon class="st1" points="291.7,185.9 291.7,188.7 290.4,188.7 290.4,189.9 291.7,189.9 291.7,196.7 293.1,196.7 293.1,189.9 
	294.6,189.9 294.6,188.7 293.1,188.7 293.1,185.9 "/>
<path class="st1" d="M296,189.7c-0.8,0.8-1.2,1.8-1.2,2.9c0,1.2,0.4,2.2,1.2,3c0.8,0.8,1.8,1.2,2.9,1.2c0.6,0,1.2-0.1,1.8-0.4
	c0.4-0.2,0.7-0.5,1.1-0.8v1h1.4v-8h-1.4v1.1c-0.3-0.3-0.7-0.6-1-0.8c-0.5-0.3-1.1-0.4-1.8-0.4C297.8,188.5,296.8,188.9,296,189.7
	 M297.6,195.2L297.6,195.2c-0.4-0.3-0.8-0.6-1-1.1c-0.3-0.5-0.4-0.9-0.4-1.4c0-0.5,0.1-1,0.4-1.4c0.2-0.4,0.6-0.8,1-1
	c0.4-0.2,0.9-0.4,1.4-0.4c0.8,0,1.4,0.3,2,0.8c0.5,0.5,0.8,1.2,0.8,2.1c0,0.5-0.1,1-0.4,1.5c-0.2,0.4-0.6,0.8-1,1
	c-0.4,0.3-0.9,0.4-1.4,0.4C298.5,195.6,298,195.4,297.6,195.2"/>
<path class="st1" d="M307.1,188.9c-0.2,0.1-0.4,0.3-0.6,0.6v-0.7h-1.4v8h1.4v-2.8c0-1.3,0.1-2.2,0.2-2.6c0.1-0.5,0.4-0.9,0.6-1.1
	c0.3-0.2,0.5-0.3,0.8-0.3l0.6,0.2l0.1-0.1l0.6-1l-0.2-0.1c-0.3-0.2-0.7-0.3-1-0.3C307.8,188.5,307.4,188.6,307.1,188.9"/>
<path class="st1" d="M316.1,188.7c0,0-2.1,4.8-2.4,5.5c-0.3-0.7-2.5-5.5-2.5-5.5h-1.5c0,0,3.1,7,3.2,7.2c-0.1,0.2-1.6,3.6-1.6,3.6
	h1.5l4.7-10.8H316.1z"/>
<path class="st1" d="M321,186v10.7h3c1.1,0,1.9-0.3,2.6-0.9c0.6-0.6,1-1.4,1-2.2c0-0.4-0.1-0.8-0.3-1.2c-0.2-0.4-0.4-0.7-0.7-1
	c-0.2-0.2-0.6-0.4-0.9-0.5c0.3-0.2,0.6-0.5,0.7-0.8c0.2-0.4,0.4-0.9,0.4-1.3c0-0.5-0.1-1-0.4-1.4c-0.3-0.4-0.7-0.8-1.1-1
	c-0.5-0.2-1.1-0.3-2-0.3H321z M323.4,187.4c0.7,0,1.2,0.1,1.4,0.4c0.3,0.2,0.4,0.5,0.4,1c0,0.3-0.1,0.6-0.3,0.8
	c-0.2,0.3-0.4,0.4-0.7,0.6c-0.3,0.1-0.8,0.2-1.5,0.2h-0.4v-2.9H323.4z M322.8,191.7c0.9,0,1.4,0,1.8,0.1c0.5,0.1,0.9,0.3,1.1,0.6
	c0.3,0.3,0.4,0.7,0.4,1.1c0,0.3-0.1,0.6-0.3,0.9c-0.2,0.3-0.4,0.5-0.8,0.6c-0.3,0.1-0.9,0.2-1.6,0.2h-1.1v-3.5H322.8z"/>
<path class="st1" d="M329.7,190c-0.6,0.8-0.9,1.7-0.9,2.7c0,1.1,0.4,2,1.1,2.9c0.7,0.9,1.8,1.3,3.1,1.3c0.6,0,1.1-0.1,1.6-0.3
	c0.5-0.2,0.9-0.4,1.3-0.8c0.4-0.3,0.7-0.8,1-1.3l0.1-0.2l-1.2-0.6l-0.1,0.2c-0.3,0.5-0.6,0.8-0.8,1c-0.2,0.2-0.5,0.4-0.9,0.5
	c-0.3,0.1-0.7,0.2-1.1,0.2c-0.8,0-1.4-0.3-1.9-0.8c-0.5-0.5-0.7-1.1-0.8-1.8h6.8l0-0.2c0-1.1-0.3-2-0.9-2.7c-0.8-1-1.9-1.5-3.3-1.5
	C331.6,188.5,330.5,189,329.7,190 M331.1,190.5L331.1,190.5c0.5-0.4,1.1-0.7,1.8-0.7c0.4,0,0.8,0.1,1.2,0.3c0.4,0.2,0.7,0.4,0.9,0.7
	c0.2,0.2,0.3,0.6,0.4,0.9h-5.1C330.6,191.2,330.8,190.8,331.1,190.5"/>
<path class="st1" d="M340.8,188.9L340.8,188.9c-0.4,0.2-0.7,0.5-1,0.8v-1h-1.4v8h1.4v-3c0-1,0-1.7,0.1-2c0.1-0.5,0.4-1,0.9-1.3
	c0.4-0.4,0.9-0.5,1.5-0.5c0.5,0,0.8,0.1,1.1,0.3c0.3,0.2,0.5,0.6,0.6,1c0.1,0.3,0.1,0.9,0.1,1.7v3.8h1.4v-4.1c0-1.1-0.1-1.8-0.3-2.4
	c-0.2-0.5-0.6-0.9-1-1.3c-0.5-0.3-1-0.5-1.6-0.5C341.9,188.5,341.3,188.6,340.8,188.9"/>
<path class="st1" d="M353.3,194.3c-0.2,0.2-0.3,0.4-0.5,0.5c-0.2,0.2-0.5,0.4-0.9,0.5c-0.3,0.1-0.7,0.2-1.1,0.2
	c-0.8,0-1.4-0.3-1.9-0.8c-0.5-0.5-0.7-1.1-0.8-1.8h6.8v-0.2c0-1.1-0.3-2-0.9-2.7c-0.8-1-1.9-1.5-3.3-1.5c-1.3,0-2.4,0.5-3.2,1.5
	c-0.6,0.8-0.9,1.7-0.9,2.7c0,1.1,0.4,2,1.1,2.9c0.7,0.9,1.8,1.3,3.1,1.3c0.6,0,1.1-0.1,1.6-0.3c0.5-0.2,0.9-0.4,1.3-0.8
	c0.2-0.2,0.4-0.5,0.6-0.8L353.3,194.3z M349.1,190.5L349.1,190.5c0.5-0.4,1.1-0.7,1.8-0.7c0.4,0,0.8,0.1,1.2,0.3
	c0.4,0.2,0.7,0.4,0.9,0.7c0.2,0.2,0.3,0.6,0.4,0.9h-5.1C348.6,191.2,348.8,190.8,349.1,190.5"/>
<path class="st1" d="M357.3,185.8c-0.3,0.2-0.5,0.4-0.6,0.7c-0.1,0.3-0.2,0.7-0.2,1.2v1h-1v1.2h1v6.7h1.4c0,0,0-6.4,0-6.7h1.6v-1.2
	h-1.6c0-0.3,0-0.8,0-0.8c0-0.6,0-0.7,0-0.7l0.2-0.2c0.1-0.1,0.2-0.1,0.4-0.1c0.2,0,0.5,0.1,0.8,0.2l0.3,0.1v-1.4l-0.1,0
	c-0.5-0.1-0.9-0.2-1.2-0.2C357.9,185.6,357.5,185.7,357.3,185.8"/>
<path class="st1" d="M360.9,185.9L360.9,185.9c-0.2,0.2-0.3,0.4-0.3,0.7c0,0.3,0.1,0.5,0.3,0.7c0.2,0.2,0.4,0.3,0.7,0.3
	c0.3,0,0.5-0.1,0.7-0.3c0.2-0.2,0.3-0.4,0.3-0.7c0-0.3-0.1-0.5-0.3-0.7c-0.2-0.2-0.4-0.3-0.7-0.3
	C361.4,185.6,361.1,185.7,360.9,185.9 M361,196.7h1.4v-8H361V196.7z"/>
<polygon class="st1" points="364.8,185.9 364.8,188.7 363.5,188.7 363.5,189.9 364.8,189.9 364.8,196.7 366.2,196.7 366.2,189.9 
	367.7,189.9 367.7,188.7 366.2,188.7 366.2,185.9 "/>
<path class="st1" d="M369.1,189.1L369.1,189.1c-0.4,0.4-0.7,1-0.7,1.6c0,0.5,0.1,0.9,0.4,1.3c0.3,0.4,0.7,0.7,1.5,1.1
	c0.8,0.4,1.1,0.6,1.2,0.8c0.2,0.2,0.2,0.4,0.2,0.6c0,0.3-0.1,0.5-0.3,0.7c-0.2,0.2-0.5,0.3-0.9,0.3c-0.5,0-1-0.3-1.4-0.8l-0.2-0.2
	l-0.9,1l0.1,0.1c0.3,0.4,0.6,0.6,1.1,0.8c0.4,0.2,0.9,0.3,1.3,0.3c0.7,0,1.3-0.2,1.8-0.7c0.5-0.5,0.7-1,0.7-1.7
	c0-0.5-0.1-0.9-0.4-1.3c-0.3-0.4-0.8-0.8-1.5-1.1c-0.6-0.3-0.9-0.5-1.1-0.7c-0.2-0.2-0.2-0.4-0.2-0.6c0-0.2,0.1-0.4,0.3-0.6
	c0.2-0.2,0.4-0.3,0.7-0.3c0.4,0,0.9,0.2,1.4,0.7l0.1,0.1l0.9-0.9l-0.1-0.1c-0.7-0.7-1.5-1.1-2.2-1.1
	C370.1,188.5,369.5,188.7,369.1,189.1"/>
<g>
	<path class="st2" d="M373.4,196.4c0.1,0.1,0.2,0.1,0.3,0.1c0.1,0,0.2-0.1,0.2-0.2c0-0.1-0.1-0.1-0.2-0.2l-0.1-0.1
		c-0.1,0-0.2-0.1-0.2-0.2c0-0.1,0.1-0.3,0.3-0.3c0.1,0,0.2,0,0.3,0.1l-0.1,0.1c-0.1-0.1-0.1-0.1-0.2-0.1c-0.1,0-0.2,0.1-0.2,0.1
		c0,0.1,0.1,0.1,0.2,0.2l0.1,0.1c0.1,0,0.2,0.1,0.2,0.3c0,0.2-0.1,0.3-0.3,0.3C373.5,196.7,373.4,196.6,373.4,196.4L373.4,196.4z"/>
	<path class="st2" d="M374.1,195.7h0.1l0.2,0.5l0.1,0.2h0l0.1-0.2l0.2-0.5h0.1v0.9h-0.1v-0.5c0-0.1,0-0.2,0-0.3h0l-0.1,0.2l-0.2,0.5
		h-0.1l-0.2-0.5l-0.1-0.2h0c0,0.1,0,0.2,0,0.3v0.5h-0.1V195.7z"/>
</g>
</svg>
