<?xml version="1.0" encoding="UTF-8"?>
<svg width="276px" height="39px" viewBox="0 0 276 39" version="1.1" xmlns="http://www.w3.org/2000/svg" xmlns:xlink="http://www.w3.org/1999/xlink">
    <!-- Generator: Sketch 43.2 (39069) - http://www.bohemiancoding.com/sketch -->
    <title>header-logo-horizontal</title>
    <desc>Created with Sketch.</desc>
    <defs></defs>
    <g id="Pages" stroke="none" stroke-width="1" fill="none" fill-rule="evenodd">
        <g id="Web" transform="translate(-75.000000, -26.000000)" fill="#FEFEFE">
            <g id="Header">
                <path d="M210.0573,63.565 C208.0173,63.565 206.3413,62.893 205.0683,61.574 C203.7893,60.252 203.1413,58.572 203.1413,56.587 C203.1413,54.547 203.7893,52.829 205.0633,51.486 C206.3313,50.143 207.9553,49.463 209.8663,49.463 C211.9143,49.463 213.5913,50.143 214.8623,51.486 C216.1433,52.829 216.7893,54.633 216.7893,56.837 C216.7893,56.837 216.7823,57.284 216.7743,57.408 L206.1643,57.408 L206.1813,57.501 C206.3313,58.481 206.7603,59.277 207.4313,59.857 C208.1043,60.443 208.9823,60.732 210.0303,60.732 C211.2593,60.732 212.3273,60.284 213.2163,59.405 C213.3023,59.447 215.6903,60.604 215.8613,60.682 C215.1903,61.647 214.3913,62.375 213.4613,62.843 C212.5103,63.32 211.3663,63.565 210.0573,63.565 Z M206.2273,54.543 L206.1733,54.644 L213.7563,54.644 L213.7253,54.551 C213.4963,53.892 213.0433,53.338 212.3723,52.919 C211.7013,52.504 210.9093,52.293 210.0253,52.293 C209.0723,52.293 208.2163,52.532 207.4893,52.992 C207.0393,53.293 206.6123,53.813 206.2273,54.543 Z M108.3628,63.566 L108.3628,44.763 L111.3958,44.763 L111.3958,63.566 L108.3628,63.566 Z M182.4949,33.8345 C181.4489,33.8345 180.5989,32.0785 180.5989,29.9225 C180.5989,27.7595 181.4869,26.0005 182.5349,26.0005 C183.5779,26.0005 184.3909,27.7595 184.3909,29.9225 C184.3909,32.0785 183.5389,33.8345 182.4949,33.8345 Z M191.2176,43.2358 C189.9646,43.2358 188.9396,41.8278 188.9396,40.1028 C188.9396,38.3708 189.9646,36.9678 191.2176,36.9678 C192.4706,36.9678 193.4886,38.3708 193.4886,40.1028 C193.4886,41.8278 192.4706,43.2358 191.2176,43.2358 Z M196.785,63.5654 L196.785,52.5394 L195.558,52.5394 L195.558,49.7384 L196.785,49.7384 L196.785,49.6514 C196.79,47.8324 196.823,46.7424 196.868,46.4134 C196.957,45.6674 197.269,45.0664 197.789,44.6324 C198.315,44.1984 199.076,43.9794 200.045,43.9794 C200.73,43.9794 201.523,44.1444 202.383,44.4584 L202.383,46.9624 C201.93,46.8364 201.54,46.7584 201.241,46.7584 C200.822,46.7584 200.509,46.8554 200.299,47.0454 C200.149,47.1894 200.075,47.4704 200.075,47.9024 L200.067,49.7384 L202.237,49.7384 L202.237,52.5394 L200.067,52.5394 L200.067,63.5654 L196.785,63.5654 Z M189.4928,63.565 L189.4928,49.463 L192.5258,49.463 L192.5258,63.565 L189.4928,63.565 Z M143.9988,63.565 L143.9988,49.463 L147.0318,49.463 L147.0318,63.565 L143.9988,63.565 Z M219.8283,63.5654 C218.5593,63.5654 217.5473,62.5214 217.5473,61.2074 C217.5473,59.8934 218.5593,58.8644 219.8403,58.8644 C221.0973,58.8644 222.0963,59.8934 222.0963,61.2074 C222.0963,62.5214 221.0973,63.5654 219.8283,63.5654 Z M219.8143,59.3364 C218.8563,59.3364 218.1143,60.1784 218.1143,61.2074 C218.1143,62.2514 218.8563,63.0794 219.8403,63.0794 C220.7993,63.0934 221.5283,62.2514 221.5283,61.2214 C221.5283,60.1784 220.7993,59.3364 219.8143,59.3364 Z M219.478,61.4915 L219.478,62.4225 L218.964,62.4225 L218.964,60.0785 C219.166,60.0515 219.449,60.0075 219.814,60.0075 C220.232,60.0075 220.423,60.0785 220.571,60.1925 C220.706,60.2925 220.8,60.4645 220.8,60.6925 C220.8,60.9795 220.598,61.1645 220.342,61.2505 L220.342,61.2785 C220.557,61.3505 220.664,61.5365 220.733,61.8505 C220.8,62.2075 220.854,62.3355 220.893,62.4225 L220.354,62.4225 C220.288,62.3355 220.247,62.1355 220.178,61.8505 C220.14,61.6065 220.004,61.4915 219.72,61.4915 L219.478,61.4915 Z M219.49,60.4355 L219.49,61.1065 L219.734,61.1065 C220.016,61.1065 220.247,61.0075 220.247,60.7645 C220.247,60.5495 220.098,60.4085 219.774,60.4085 C219.639,60.4085 219.544,60.4205 219.49,60.4355 Z M186.4598,60.23 L186.4598,63.565 L178.1198,63.565 L178.1198,43.98 L181.4208,43.98 L181.4208,60.23 L186.4598,60.23 Z M132.7059,58.0645 L132.7059,63.5655 L129.5929,63.5655 L129.5929,49.8195 L132.7059,49.8195 L132.7059,51.3375 L132.8289,51.2235 C133.5619,50.5645 134.2299,50.0985 134.8179,49.8505 C135.4089,49.5925 136.0189,49.4635 136.6369,49.4635 C137.8969,49.4635 138.9779,49.9335 139.8589,50.8825 C140.5949,51.6735 140.9669,52.8815 140.9669,54.4525 L140.9669,63.5655 L137.9019,63.5655 L137.9019,57.5575 C137.9019,55.8705 137.8329,54.7875 137.6909,54.2275 C137.5479,53.6695 137.2899,53.2355 136.9379,52.9355 C136.5769,52.6425 136.1309,52.4965 135.6089,52.4965 C134.9309,52.4965 134.3409,52.7395 133.8539,53.2225 C133.3749,53.7025 133.0369,54.3765 132.8509,55.2205 C132.7529,55.6695 132.7059,56.5955 132.7059,58.0645 Z M174.1541,40.1021 C173.1331,40.1021 172.2581,37.5891 172.2581,34.6191 C172.2581,31.6431 173.1331,29.1341 174.1541,29.1341 C175.1851,29.1341 176.0501,31.6431 176.0501,34.6191 C176.0501,37.5891 175.1851,40.1021 174.1541,40.1021 Z M99.9553,63.5652 C98.0993,63.5652 96.4953,62.8652 95.1783,61.5102 C93.8633,60.1482 93.1983,58.4702 93.1983,56.5252 C93.1983,54.4382 93.9513,52.6772 95.4363,51.2762 C96.7353,50.0752 98.2523,49.4632 99.9453,49.4632 C101.1683,49.4632 102.3323,49.7782 103.4103,50.4082 C104.4903,51.0362 105.3373,51.9042 105.9413,52.9862 C106.5453,54.0672 106.8453,55.2512 106.8453,56.5012 C106.8453,57.7582 106.5403,58.9492 105.9363,60.0512 C105.3293,61.1442 104.4903,62.0112 103.4403,62.6282 C102.3913,63.2492 101.2203,63.5652 99.9553,63.5652 Z M97.3103,53.6982 C96.5963,54.4262 96.2303,55.3672 96.2303,56.4982 C96.2303,57.6622 96.5933,58.6122 97.2973,59.3422 C98.0083,60.0642 98.9183,60.4312 100.0043,60.4312 C101.0913,60.4312 102.0073,60.0642 102.7233,59.3292 C103.4503,58.5942 103.8133,57.6422 103.8133,56.4982 C103.8133,55.3492 103.4563,54.4022 102.7473,53.6842 C102.0393,52.9622 101.1173,52.5972 100.0183,52.5972 C98.9403,52.5972 98.0303,52.9662 97.3103,53.6982 Z M120.429,63.5652 C118.569,63.5652 116.965,62.8652 115.649,61.5102 C114.337,60.1482 113.67,58.4702 113.67,56.5252 C113.67,54.4382 114.421,52.6772 115.908,51.2762 C117.209,50.0752 118.727,49.4632 120.417,49.4632 C121.638,49.4632 122.803,49.7782 123.881,50.4082 C124.955,51.0362 125.804,51.9042 126.409,52.9862 C127.012,54.0672 127.318,55.2512 127.318,56.5012 C127.318,57.7582 127.01,58.9492 126.403,60.0512 C125.796,61.1442 124.955,62.0112 123.911,62.6282 C122.861,63.2492 121.691,63.5652 120.429,63.5652 Z M117.783,53.6982 C117.065,54.4262 116.703,55.3672 116.703,56.4982 C116.703,57.6622 117.06,58.6122 117.772,59.3422 C118.479,60.0642 119.389,60.4312 120.475,60.4312 C121.56,60.4312 122.478,60.0642 123.198,59.3292 C123.921,58.5942 124.285,57.6422 124.285,56.4982 C124.285,55.3492 123.924,54.4022 123.218,53.6842 C122.508,52.9622 121.592,52.5972 120.487,52.5972 C119.411,52.5972 118.502,52.9662 117.783,53.6982 Z M156.3408,63.565 C154.6468,63.565 153.1658,62.883 151.9208,61.545 C150.6908,60.209 150.0648,58.524 150.0648,56.542 C150.0648,54.47 150.6698,52.758 151.8678,51.436 C153.0618,50.13 154.5298,49.463 156.2408,49.463 C157.0278,49.463 157.7718,49.612 158.4598,49.914 C159.1488,50.22 159.7968,50.678 160.3858,51.276 L160.5178,51.424 L160.5178,49.811 L163.7128,49.811 L163.7128,63.218 L160.5178,63.218 L160.5178,61.671 L160.3888,61.804 C159.7388,62.424 159.0878,62.88 158.4448,63.149 C157.7998,63.43 157.0898,63.565 156.3408,63.565 Z M154.1678,53.688 C153.4538,54.414 153.0978,55.357 153.0978,56.488 C153.0978,57.627 153.4618,58.582 154.1838,59.318 C154.9058,60.054 155.8118,60.432 156.8728,60.432 C157.9648,60.432 158.8808,60.064 159.5998,59.337 C160.3208,58.611 160.6808,57.65 160.6808,56.475 C160.6808,55.326 160.3208,54.384 159.5998,53.67 C158.8808,52.947 157.9578,52.597 156.8588,52.597 C155.7828,52.597 154.8768,52.958 154.1678,53.688 Z M146.0984,44.019 C144.6354,44.019 143.4454,42.79 143.4454,41.278 C143.4454,39.76 144.6354,38.535 146.0984,38.535 C147.5644,38.535 148.7524,39.76 148.7524,41.278 C148.7524,42.79 147.5644,44.019 146.0984,44.019 Z M166.7458,63.565 L166.7458,44.762 L169.7788,44.762 L169.7788,63.565 L166.7458,63.565 Z M165.8113,36.1846 C164.7643,36.1846 163.9173,34.2486 163.9173,31.8716 C163.9173,29.4976 164.7643,27.5666 165.8113,27.5666 C166.8583,27.5666 167.7083,29.4976 167.7083,31.8716 C167.7083,34.2486 166.8583,36.1846 165.8113,36.1846 Z M156.3367,40.8853 C155.0807,40.8853 154.0607,39.3013 154.0607,37.3623 C154.0607,35.4173 155.0807,33.8343 156.3367,33.8343 C157.5887,33.8343 158.6097,35.4173 158.6097,37.3623 C158.6097,39.3013 157.5887,40.8853 156.3367,40.8853 Z M84.573,63.5654 C81.779,63.5654 79.458,62.6304 77.681,60.8044 C75.898,58.9724 75,56.6014 75,53.7364 C75,51.8844 75.408,50.2194 76.217,48.7814 C77.029,47.3504 78.207,46.1724 79.715,45.2924 C81.23,44.4194 82.882,43.9794 84.622,43.9794 C86.104,43.9794 87.552,44.3054 88.926,44.9524 C90.278,45.5904 91.452,46.5084 92.439,47.6754 L90.129,49.9474 C88.487,48.1784 86.618,47.2744 84.568,47.2744 C82.819,47.2744 81.32,47.9074 80.117,49.1404 C78.916,50.3814 78.306,51.9324 78.306,53.7464 C78.306,55.0074 78.573,56.1504 79.107,57.1284 C79.642,58.1184 80.406,58.8944 81.377,59.4524 C82.344,60.0064 83.442,60.2934 84.632,60.2934 C85.644,60.2934 86.582,60.0934 87.422,59.7074 C88.242,59.3194 89.154,58.6124 90.127,57.6244 C90.225,57.7284 92.261,59.9274 92.372,60.0334 C91.062,61.3444 89.806,62.2664 88.639,62.7764 C87.454,63.2954 86.084,63.5654 84.573,63.5654 Z M244.2728,64 L244.2728,26 L245.3578,26 L245.3578,64 L244.2728,64 Z M267.5625,32.734375 L270.953125,32.734375 C272.52605,32.734375 273.662757,32.9635394 274.363281,33.421875 C275.063806,33.8802106 275.414062,34.6041617 275.414062,35.59375 C275.414062,36.26042 275.242189,36.815102 274.898438,37.2578125 C274.554686,37.700523 274.059899,37.9791661 273.414062,38.09375 L273.414062,38.171875 C274.21615,38.3229174 274.805988,38.6210915 275.183594,39.0664062 C275.5612,39.511721 275.75,40.1145795 275.75,40.875 C275.75,41.9010468 275.391931,42.7044242 274.675781,43.2851562 C273.959632,43.8658883 272.963548,44.15625 271.6875,44.15625 L267.5625,44.15625 L267.5625,32.734375 Z M269.429688,37.453125 L271.226562,37.453125 C272.007816,37.453125 272.578123,37.3294283 272.9375,37.0820312 C273.296877,36.8346342 273.476562,36.4140655 273.476562,35.8203125 C273.476562,35.2838515 273.282554,34.8958345 272.894531,34.65625 C272.506508,34.4166655 271.890629,34.296875 271.046875,34.296875 L269.429688,34.296875 L269.429688,37.453125 Z M269.429688,38.96875 L269.429688,42.5859375 L271.414062,42.5859375 C272.195316,42.5859375 272.785154,42.4361994 273.183594,42.1367188 C273.582033,41.8372381 273.78125,41.3645866 273.78125,40.71875 C273.78125,40.124997 273.578127,39.6848973 273.171875,39.3984375 C272.765623,39.1119777 272.148442,38.96875 271.320312,38.96875 L269.429688,38.96875 Z M282.7125,35.359375 C283.082294,35.359375 283.386978,35.3854164 283.626563,35.4375 L283.446875,37.1484375 C283.186457,37.0859372 282.915626,37.0546875 282.634375,37.0546875 C281.899996,37.0546875 281.30495,37.2942684 280.849219,37.7734375 C280.393487,38.2526066 280.165625,38.8749962 280.165625,39.640625 L280.165625,44.15625 L278.329688,44.15625 L278.329688,35.515625 L279.767188,35.515625 L280.009375,37.0390625 L280.103125,37.0390625 C280.389585,36.5234349 280.763279,36.1145848 281.224219,35.8125 C281.685159,35.5104152 282.181247,35.359375 282.7125,35.359375 Z M290.714063,44.15625 L290.346875,42.953125 L290.284375,42.953125 C289.867706,43.4791693 289.44844,43.8372386 289.026563,44.0273438 C288.604685,44.2174489 288.063024,44.3125 287.401563,44.3125 C286.5526,44.3125 285.889846,44.0833356 285.413281,43.625 C284.936716,43.1666644 284.698438,42.5182334 284.698438,41.6796875 C284.698438,40.789058 285.029163,40.1171898 285.690625,39.6640625 C286.352087,39.2109352 287.359889,38.9635419 288.714063,38.921875 L290.20625,38.875 L290.20625,38.4140625 C290.20625,37.8619764 290.077345,37.4492201 289.819531,37.1757812 C289.561717,36.9023424 289.161982,36.765625 288.620313,36.765625 C288.177602,36.765625 287.753127,36.8307285 287.346875,36.9609375 C286.940623,37.0911465 286.550002,37.2447908 286.175,37.421875 L285.58125,36.109375 C286.050002,35.8645821 286.563018,35.6783861 287.120313,35.5507812 C287.677607,35.4231764 288.203643,35.359375 288.698438,35.359375 C289.797401,35.359375 290.62682,35.5989559 291.186719,36.078125 C291.746617,36.5572941 292.026563,37.3098907 292.026563,38.3359375 L292.026563,44.15625 L290.714063,44.15625 Z M287.979688,42.90625 C288.646358,42.90625 289.181508,42.7200539 289.585156,42.3476562 C289.988804,41.9752586 290.190625,41.4531284 290.190625,40.78125 L290.190625,40.03125 L289.08125,40.078125 C288.216662,40.1093752 287.587762,40.253905 287.194531,40.5117188 C286.8013,40.7695325 286.604688,41.1640598 286.604688,41.6953125 C286.604688,42.0807311 286.71927,42.3789052 286.948438,42.5898438 C287.177605,42.8007823 287.521352,42.90625 287.979688,42.90625 Z M302.590625,44.15625 L300.746875,44.15625 L300.746875,38.84375 C300.746875,38.17708 300.612762,37.6796891 300.344531,37.3515625 C300.076301,37.0234359 299.650524,36.859375 299.067188,36.859375 C298.291142,36.859375 297.723439,37.0885394 297.364063,37.546875 C297.004686,38.0052106 296.825,38.7734321 296.825,39.8515625 L296.825,44.15625 L294.989063,44.15625 L294.989063,35.515625 L296.426563,35.515625 L296.684375,36.6484375 L296.778125,36.6484375 C297.038543,36.2369771 297.408331,35.919272 297.8875,35.6953125 C298.366669,35.471353 298.897914,35.359375 299.48125,35.359375 C301.554177,35.359375 302.590625,36.414052 302.590625,38.5234375 L302.590625,44.15625 Z M308.459375,44.3125 C307.381245,44.3125 306.540107,43.9218789 305.935938,43.140625 C305.331768,42.3593711 305.029688,41.2630279 305.029688,39.8515625 C305.029688,38.4348887 305.335674,37.3320352 305.947656,36.5429688 C306.559639,35.7539023 307.407286,35.359375 308.490625,35.359375 C309.626047,35.359375 310.490622,35.7786416 311.084375,36.6171875 L311.178125,36.6171875 C311.089583,35.9973927 311.045313,35.5078143 311.045313,35.1484375 L311.045313,32 L312.889063,32 L312.889063,44.15625 L311.451563,44.15625 L311.13125,43.0234375 L311.045313,43.0234375 C310.456768,43.8828168 309.594797,44.3125 308.459375,44.3125 Z M308.951563,42.828125 C309.706775,42.828125 310.256248,42.6158875 310.6,42.1914062 C310.943752,41.766925 311.120833,41.0781298 311.13125,40.125 L311.13125,39.8671875 C311.13125,38.7786404 310.954168,38.0052106 310.6,37.546875 C310.245832,37.0885394 309.69115,36.859375 308.935938,36.859375 C308.290101,36.859375 307.79271,37.1210911 307.44375,37.6445312 C307.09479,38.1679714 306.920313,38.9140577 306.920313,39.8828125 C306.920313,40.8411506 307.089582,41.5716121 307.428125,42.0742188 C307.766668,42.5768254 308.274476,42.828125 308.951563,42.828125 Z M272.234375,57.9609375 L276.4375,57.9609375 L276.4375,63.6953125 C275.749997,63.919272 275.089847,64.0781245 274.457031,64.171875 C273.824216,64.2656255 273.140629,64.3125 272.40625,64.3125 C270.677075,64.3125 269.343755,63.8007864 268.40625,62.7773438 C267.468745,61.7539011 267,60.3099052 267,58.4453125 C267,56.6067616 267.528641,55.1679739 268.585938,54.1289062 C269.643234,53.0898386 271.098949,52.5703125 272.953125,52.5703125 C274.145839,52.5703125 275.276036,52.7994769 276.34375,53.2578125 L275.6875,54.8125 C274.760412,54.3854145 273.833338,54.171875 272.90625,54.171875 C271.687494,54.171875 270.723962,54.5546837 270.015625,55.3203125 C269.307288,56.0859413 268.953125,57.1328059 268.953125,58.4609375 C268.953125,59.8567778 269.272132,60.9179651 269.910156,61.6445312 C270.54818,62.3710974 271.46614,62.734375 272.664062,62.734375 C273.268232,62.734375 273.914059,62.6588549 274.601562,62.5078125 L274.601562,59.5625 L272.234375,59.5625 L272.234375,57.9609375 Z M285.478125,64.15625 L285.220313,63.0234375 L285.126563,63.0234375 C284.871353,63.4244812 284.508075,63.7395822 284.036719,63.96875 C283.565362,64.1979178 283.027607,64.3125 282.423438,64.3125 C281.376557,64.3125 280.595315,64.0520859 280.079688,63.53125 C279.56406,63.0104141 279.30625,62.2213595 279.30625,61.1640625 L279.30625,55.515625 L281.157813,55.515625 L281.157813,60.84375 C281.157813,61.5052116 281.293228,62.0013004 281.564063,62.3320312 C281.834897,62.6627621 282.259372,62.828125 282.8375,62.828125 C283.608337,62.828125 284.174738,62.5976586 284.536719,62.1367188 C284.8987,61.6757789 285.079688,60.9036512 285.079688,59.8203125 L285.079688,55.515625 L286.923438,55.515625 L286.923438,64.15625 L285.478125,64.15625 Z M291.776563,64.15625 L289.940625,64.15625 L289.940625,55.515625 L291.776563,55.515625 L291.776563,64.15625 Z M289.83125,53.2265625 C289.83125,52.8984359 289.921093,52.6458342 290.100781,52.46875 C290.28047,52.2916658 290.536978,52.203125 290.870313,52.203125 C291.193231,52.203125 291.44453,52.2916658 291.624219,52.46875 C291.803907,52.6458342 291.89375,52.8984359 291.89375,53.2265625 C291.89375,53.5390641 291.803907,53.7851554 291.624219,53.9648438 C291.44453,54.1445321 291.193231,54.234375 290.870313,54.234375 C290.536978,54.234375 290.28047,54.1445321 290.100781,53.9648438 C289.921093,53.7851554 289.83125,53.5390641 289.83125,53.2265625 Z M297.715625,64.3125 C296.637495,64.3125 295.796357,63.9218789 295.192188,63.140625 C294.588018,62.3593711 294.285938,61.2630279 294.285938,59.8515625 C294.285938,58.4348887 294.591924,57.3320352 295.203906,56.5429688 C295.815888,55.7539023 296.663536,55.359375 297.746875,55.359375 C298.882297,55.359375 299.746872,55.7786416 300.340625,56.6171875 L300.434375,56.6171875 C300.345833,55.9973927 300.301563,55.5078143 300.301563,55.1484375 L300.301563,52 L302.145313,52 L302.145313,64.15625 L300.707813,64.15625 L300.3875,63.0234375 L300.301563,63.0234375 C299.713018,63.8828168 298.851047,64.3125 297.715625,64.3125 Z M298.207813,62.828125 C298.963025,62.828125 299.512498,62.6158875 299.85625,62.1914062 C300.200002,61.766925 300.377083,61.0781298 300.3875,60.125 L300.3875,59.8671875 C300.3875,58.7786404 300.210418,58.0052106 299.85625,57.546875 C299.502082,57.0885394 298.9474,56.859375 298.192188,56.859375 C297.546351,56.859375 297.04896,57.1210911 296.7,57.6445312 C296.35104,58.1679714 296.176563,58.9140577 296.176563,59.8828125 C296.176563,60.8411506 296.345832,61.5716121 296.684375,62.0742188 C297.022918,62.5768254 297.530726,62.828125 298.207813,62.828125 Z M308.94375,64.3125 C307.599993,64.3125 306.549223,63.9205768 305.791406,63.1367188 C305.03359,62.3528607 304.654688,61.2734444 304.654688,59.8984375 C304.654688,58.4869721 305.006247,57.3776082 305.709375,56.5703125 C306.412504,55.7630168 307.37864,55.359375 308.607813,55.359375 C309.748443,55.359375 310.649476,55.7057257 311.310938,56.3984375 C311.972399,57.0911493 312.303125,58.0442648 312.303125,59.2578125 L312.303125,60.25 L306.545313,60.25 C306.571354,61.0885459 306.797915,61.7330707 307.225,62.1835938 C307.652085,62.6341168 308.253642,62.859375 309.029688,62.859375 C309.540107,62.859375 310.015362,62.8111984 310.455469,62.7148438 C310.895575,62.6184891 311.368227,62.4583345 311.873438,62.234375 L311.873438,63.7265625 C311.425519,63.9401052 310.972398,64.0911454 310.514063,64.1796875 C310.055727,64.2682296 309.532295,64.3125 308.94375,64.3125 Z M308.607813,56.75 C308.024476,56.75 307.557033,56.934894 307.205469,57.3046875 C306.853905,57.674481 306.644271,58.2135381 306.576563,58.921875 L310.498438,58.921875 C310.488021,58.2083298 310.316148,57.6679706 309.982813,57.3007812 C309.649478,56.9335919 309.191149,56.75 308.607813,56.75 Z M316.625,64.15625 L314.789063,64.15625 L314.789063,52 L316.625,52 L316.625,64.15625 Z M321.485938,64.15625 L319.65,64.15625 L319.65,55.515625 L321.485938,55.515625 L321.485938,64.15625 Z M319.540625,53.2265625 C319.540625,52.8984359 319.630468,52.6458342 319.810156,52.46875 C319.989845,52.2916658 320.246353,52.203125 320.579688,52.203125 C320.902606,52.203125 321.153905,52.2916658 321.333594,52.46875 C321.513282,52.6458342 321.603125,52.8984359 321.603125,53.2265625 C321.603125,53.5390641 321.513282,53.7851554 321.333594,53.9648438 C321.153905,54.1445321 320.902606,54.234375 320.579688,54.234375 C320.246353,54.234375 319.989845,54.1445321 319.810156,53.9648438 C319.630468,53.7851554 319.540625,53.5390641 319.540625,53.2265625 Z M332.1125,64.15625 L330.26875,64.15625 L330.26875,58.84375 C330.26875,58.17708 330.134637,57.6796891 329.866406,57.3515625 C329.598176,57.0234359 329.172399,56.859375 328.589063,56.859375 C327.813017,56.859375 327.245314,57.0885394 326.885938,57.546875 C326.526561,58.0052106 326.346875,58.7734321 326.346875,59.8515625 L326.346875,64.15625 L324.510938,64.15625 L324.510938,55.515625 L325.948438,55.515625 L326.20625,56.6484375 L326.3,56.6484375 C326.560418,56.2369771 326.930206,55.919272 327.409375,55.6953125 C327.888544,55.471353 328.419789,55.359375 329.003125,55.359375 C331.076052,55.359375 332.1125,56.414052 332.1125,58.5234375 L332.1125,64.15625 Z M338.840625,64.3125 C337.496868,64.3125 336.446098,63.9205768 335.688281,63.1367188 C334.930465,62.3528607 334.551563,61.2734444 334.551563,59.8984375 C334.551563,58.4869721 334.903122,57.3776082 335.60625,56.5703125 C336.309379,55.7630168 337.275515,55.359375 338.504688,55.359375 C339.645318,55.359375 340.546351,55.7057257 341.207813,56.3984375 C341.869274,57.0911493 342.2,58.0442648 342.2,59.2578125 L342.2,60.25 L336.442188,60.25 C336.468229,61.0885459 336.69479,61.7330707 337.121875,62.1835938 C337.548961,62.6341168 338.150517,62.859375 338.926563,62.859375 C339.436982,62.859375 339.912237,62.8111984 340.352344,62.7148438 C340.79245,62.6184891 341.265102,62.4583345 341.770313,62.234375 L341.770313,63.7265625 C341.322394,63.9401052 340.869273,64.0911454 340.410938,64.1796875 C339.952602,64.2682296 339.42917,64.3125 338.840625,64.3125 Z M338.504688,56.75 C337.921351,56.75 337.453908,56.934894 337.102344,57.3046875 C336.75078,57.674481 336.541146,58.2135381 336.473438,58.921875 L340.395313,58.921875 C340.384896,58.2083298 340.213023,57.6679706 339.879688,57.3007812 C339.546353,56.9335919 339.088024,56.75 338.504688,56.75 Z M350.490625,61.6953125 C350.490625,62.5390667 350.183336,63.1861957 349.56875,63.6367188 C348.954164,64.0872418 348.073964,64.3125 346.928125,64.3125 C345.777078,64.3125 344.852608,64.1380226 344.154688,63.7890625 L344.154688,62.203125 C345.170318,62.6718773 346.115621,62.90625 346.990625,62.90625 C348.120839,62.90625 348.685938,62.5651076 348.685938,61.8828125 C348.685938,61.6640614 348.623438,61.4817716 348.498438,61.3359375 C348.373437,61.1901034 348.16771,61.0390633 347.88125,60.8828125 C347.59479,60.7265617 347.196357,60.5494802 346.685938,60.3515625 C345.691141,59.9661439 345.017971,59.5807311 344.666406,59.1953125 C344.314842,58.8098939 344.139063,58.3098989 344.139063,57.6953125 C344.139063,56.9557255 344.437237,56.3815125 345.033594,55.9726562 C345.629951,55.5638 346.441141,55.359375 347.467188,55.359375 C348.482818,55.359375 349.443746,55.5651021 350.35,55.9765625 L349.75625,57.359375 C348.823954,56.9739564 348.040107,56.78125 347.404688,56.78125 C346.435933,56.78125 345.951563,57.0572889 345.951563,57.609375 C345.951563,57.8802097 346.077863,58.1093741 346.330469,58.296875 C346.583074,58.4843759 347.13385,58.7421859 347.982813,59.0703125 C348.696358,59.3463555 349.214582,59.5989572 349.5375,59.828125 C349.860418,60.0572928 350.099999,60.3216131 350.25625,60.6210938 C350.412501,60.9205744 350.490625,61.2786438 350.490625,61.6953125 Z" id="header-logo-horizontal"></path>
            </g>
        </g>
    </g>
</svg>