<?xml version="1.0" encoding="utf-8"?>
<!-- Generator: Adobe Illustrator 21.0.2, SVG Export Plug-In . SVG Version: 6.00 Build 0)  -->
<svg version="1.1" id="Layer_1" xmlns="http://www.w3.org/2000/svg" xmlns:xlink="http://www.w3.org/1999/xlink" x="0px" y="0px"
	 viewBox="0 0 189 57" style="enable-background:new 0 0 189 57;" xml:space="preserve">
<style type="text/css">
	.st0{fill:#FFFFFF;}
</style>
<title>08-logo-my-employers</title>
<desc>Created with Sketch.</desc>
<g id="Web-Mobile" transform="translate(-65.000000, -2938.000000)">
	<g id="Logo" transform="translate(13.000000, 522.000000)">
		<g id="Sub-brands" transform="translate(0.000000, 1918.000000)">
			<g id="_x30_8-logo-my-employers" transform="translate(52.000000, 498.000000)">
				<g id="Clip-2">
				</g>
				<g id="Clip-5">
				</g>
			</g>
		</g>
	</g>
</g>
<g>
	<path class="st0" d="M78.6,35.1c0.1,0.1,0.2,0.2,0.3,0.2C78.7,35.2,78.6,35.1,78.6,35.1z"/>
	<path class="st0" d="M56.9,35.1c0.2,0.2,0.3,0.3,0.3,0.3C57.2,35.3,56.9,35.1,56.9,35.1z"/>
	<path class="st0" d="M186.3,35c-1,0-1.8,0.9-1.8,1.9c0,1.1,0.8,1.9,1.8,1.9c1,0,1.8-0.9,1.8-1.9C188.1,35.9,187.3,35,186.3,35z
		 M186.9,38.2c-0.1-0.1-0.1-0.3-0.2-0.6c0-0.2-0.2-0.4-0.5-0.4h-0.3v1h-0.5v-2.4c0.2,0,0.5-0.1,0.9-0.1c0.4,0,0.6,0.1,0.8,0.2
		c0.1,0.1,0.2,0.3,0.2,0.5c0,0.3-0.2,0.5-0.5,0.6v0c0.2,0.1,0.3,0.3,0.4,0.6c0.1,0.4,0.1,0.5,0.2,0.6H186.9z"/>
	<path class="st0" d="M186.3,36.2c-0.1,0-0.2,0-0.3,0v0.7h0.3c0.3,0,0.5-0.1,0.5-0.4C186.8,36.3,186.6,36.2,186.3,36.2z"/>
	<rect x="68.6" y="20" class="st0" width="3.2" height="19.4"/>
	<path class="st0" d="M63.4,25.9c-1.1-0.6-2.4-1-3.7-1c-1.8,0-3.4,0.6-4.8,1.9c-1.6,1.4-2.4,3.3-2.4,5.4c0,2,0.7,3.7,2.1,5.1
		c1.4,1.4,3.1,2.1,5,2.1c1.3,0,2.6-0.3,3.7-1c1.1-0.6,2-1.5,2.6-2.7c0.6-1.1,1-2.4,1-3.7c0-1.3-0.3-2.5-1-3.6
		C65.4,27.4,64.5,26.5,63.4,25.9z M62.7,35c-0.8,0.8-1.7,1.1-2.9,1.1c-1.1,0-2.1-0.4-2.9-1.1c0,0,0.2,0.2,0.3,0.3c0,0,0,0,0,0
		c0,0-0.1-0.1-0.3-0.3c-0.7-0.8-1.1-1.7-1.1-2.9c0-1.2,0.4-2.1,1.1-2.9c0.8-0.8,1.7-1.1,2.9-1.1c1.2,0,2.1,0.4,2.9,1.1
		c0.7,0.7,1.1,1.7,1.1,2.9C63.8,33.3,63.4,34.3,62.7,35z"/>
	<path class="st0" d="M85,25.9c-1.1-0.6-2.4-1-3.7-1c-1.8,0-3.4,0.6-4.8,1.9c-1.6,1.4-2.4,3.3-2.4,5.4c0,2,0.7,3.7,2.1,5.1
		c1.4,1.4,3.1,2.1,5,2.1c1.3,0,2.6-0.3,3.7-1c1.1-0.6,2-1.5,2.6-2.7c0.6-1.1,1-2.4,1-3.7c0-1.3-0.3-2.5-1-3.6
		C87,27.4,86.1,26.5,85,25.9z M84.3,35c-0.8,0.8-1.7,1.1-2.9,1.1c-1.1,0-2.1-0.4-2.9-1.1c0,0,0.2,0.2,0.3,0.2c0.1,0.1,0.1,0.1,0,0
		c-0.1-0.1-0.1-0.1-0.3-0.2c-0.8-0.8-1.1-1.7-1.1-2.9c0-1.2,0.4-2.1,1.1-2.9c0.8-0.8,1.7-1.1,2.9-1.1c1.2,0,2.1,0.4,2.9,1.1
		c0.7,0.7,1.1,1.7,1.1,2.9C85.4,33.3,85.1,34.3,84.3,35z"/>
	<path class="st0" d="M78.8,35.3C78.9,35.4,78.9,35.4,78.8,35.3L78.8,35.3z"/>
	<path class="st0" d="M57.2,35.4C57.3,35.4,57.3,35.4,57.2,35.4L57.2,35.4z"/>
	<path class="st0" d="M99.6,29.8c0.1,0.6,0.2,1.7,0.2,3.4v6.2h3.2V30c0-1.6-0.4-2.9-1.2-3.7c-0.9-1-2.1-1.5-3.4-1.5
		c-0.7,0-1.3,0.1-1.9,0.4c-0.6,0.3-1.3,0.7-2.1,1.4l-0.1,0.1v-1.6H91v14.1h3.3v-5.7c0-1.5,0-2.5,0.2-2.9c0.2-0.9,0.6-1.6,1.1-2.1
		c0.5-0.5,1.1-0.7,1.9-0.7c0.6,0,1,0.2,1.4,0.5C99.2,28.8,99.4,29.2,99.6,29.8z"/>
	<path class="st0" d="M162,39.4h3.5V28.1h2.3v-2.9h-2.3l0-1.9c0-0.4,0.1-0.7,0.2-0.9c0.2-0.2,0.6-0.3,1-0.3c0.3,0,0.7,0.1,1.2,0.2
		v-2.6c-0.9-0.3-1.7-0.5-2.5-0.5c-1,0-1.8,0.2-2.4,0.7c-0.5,0.4-0.9,1.1-1,1.8c0,0.3-0.1,1.5-0.1,3.3v0.1h-1.3v2.9h1.3V39.4z"/>
	<path class="st0" d="M176,39.4c1.4,0,2.6-0.3,3.6-0.7c1-0.5,1.8-1.2,2.5-2.2c-0.2-0.1-2.7-1.3-2.8-1.3c-0.9,0.9-2.1,1.4-3.4,1.4
		c-1.1,0-2-0.3-2.7-0.9c-0.7-0.6-1.2-1.4-1.3-2.4l0-0.1h11.2c0-0.1,0-0.6,0-0.6c0-2.3-0.7-4.1-2-5.5c-1.3-1.4-3.1-2.1-5.3-2.1
		c-2,0-3.7,0.7-5.1,2.1c-1.3,1.4-2,3.2-2,5.3c0,2,0.7,3.8,2,5.1C172.1,38.7,173.8,39.4,176,39.4z M172,29.6c0.4-0.8,0.9-1.3,1.3-1.6
		c0.8-0.5,1.7-0.7,2.7-0.7c0,0-0.4,0-0.4,0c0,0,0.4,0,0.4,0c0.9,0,1.8,0.2,2.5,0.6c0.7,0.4,1.2,1,1.4,1.7l0,0.1h-8L172,29.6z"/>
	<polygon class="st0" points="151.1,36 145.8,36 145.8,19.2 142.3,19.2 142.3,39.4 151.1,39.4 	"/>
	<path class="st0" d="M186.3,34.6c-1.4,0-2.4,1.1-2.4,2.4c0,1.4,1.1,2.4,2.4,2.4c1.3,0,2.4-1.1,2.4-2.4
		C188.7,35.6,187.7,34.6,186.3,34.6z M186.3,38.9c-1,0-1.8-0.9-1.8-1.9c0,0,0-0.4,0-0.5c0,0.1,0,0.5,0,0.5c0-1.1,0.8-1.9,1.8-1.9
		c1,0,1.8,0.9,1.8,1.9C188.1,38,187.3,38.9,186.3,38.9z"/>
	<path class="st0" d="M43.5,22.6c2.2,0,4.1,0.9,5.9,2.8l2.4-2.3c-1-1.2-2.3-2.1-3.7-2.8c-1.4-0.7-3-1-4.5-1c-1.8,0-3.6,0.5-5.2,1.4
		c-1.6,0.9-2.8,2.1-3.7,3.6c-0.9,1.5-1.3,3.2-1.3,5.1c0,2.9,0.9,5.4,2.8,7.3c1.9,1.9,4.3,2.8,7.3,2.8c1.6,0,3-0.3,4.3-0.8
		c1.2-0.5,2.6-1.5,3.9-2.8c-0.1-0.1-2.3-2.4-2.4-2.5c-1,1-2,1.7-2.9,2.1c-0.9,0.4-1.9,0.6-2.9,0.6c-1.3,0-2.4-0.3-3.4-0.9
		c-1-0.6-1.8-1.4-2.4-2.4c-0.6-1-0.8-2.2-0.8-3.5c0-1.9,0.6-3.5,1.9-4.7C40.1,23.3,41.7,22.6,43.5,22.6z"/>
	<rect x="130.3" y="20" class="st0" width="3.2" height="19.4"/>
	<path class="st0" d="M186.9,37L186.9,37c0.3-0.1,0.5-0.3,0.5-0.6c0-0.2-0.1-0.4-0.2-0.5c-0.2-0.1-0.4-0.2-0.8-0.2
		c-0.4,0-0.7,0-0.9,0.1v2.4h0.5v-1h0.3c0.3,0,0.4,0.1,0.5,0.4c0.1,0.3,0.1,0.5,0.2,0.6h0.6c0-0.1-0.1-0.2-0.2-0.6
		C187.2,37.3,187.1,37.1,186.9,37z M186.2,36.9H186v-0.7c0.1,0,0.2,0,0.3,0c0.3,0,0.5,0.1,0.5,0.4C186.8,36.8,186.5,36.9,186.2,36.9
		z"/>
	<rect x="154.3" y="24.9" class="st0" width="3.2" height="14.5"/>
	<rect x="106.3" y="24.9" class="st0" width="3.2" height="14.5"/>
	<path class="st0" d="M121.5,39c0.7-0.3,1.4-0.7,2.1-1.4l0.1-0.1V39h3.4V25.2h-3.4v1.7l-0.1-0.2c-0.6-0.6-1.3-1.1-2-1.4
		c-0.7-0.3-1.5-0.5-2.3-0.5c-1.8,0-3.4,0.7-4.6,2c-1.3,1.4-1.9,3.1-1.9,5.3c0,2,0.7,3.8,2,5.1c1.3,1.4,2.9,2.1,4.7,2.1
		C120.1,39.4,120.8,39.3,121.5,39z M115.9,32.1c0,0,0,0.5,0,0.5C115.9,32.6,115.9,32.1,115.9,32.1c0-1.2,0.4-2.1,1.1-2.9
		c0.7-0.8,1.7-1.1,2.8-1.1c1.2,0,2.1,0.4,2.9,1.1c0.8,0.7,1.1,1.7,1.1,2.9c0,1.2-0.4,2.2-1.1,2.9c-0.8,0.7-1.7,1.1-2.9,1.1
		c-1.1,0-2.1-0.4-2.8-1.1C116.2,34.3,115.9,33.3,115.9,32.1z"/>
	<path class="st0" d="M137.9,3.9c-1.1,0-2,2.6-2,5.6c0,3.1,0.9,5.6,2,5.6c1.1,0,2-2.6,2-5.6C139.9,6.5,139,3.9,137.9,3.9z"/>
	<ellipse class="st0" cx="119.1" cy="12.4" rx="2.4" ry="3.6"/>
	<ellipse class="st0" cx="108.3" cy="16.4" rx="2.8" ry="2.8"/>
	<ellipse class="st0" cx="129.1" cy="6.7" rx="2" ry="4.4"/>
	<ellipse class="st0" cx="155.9" cy="15.2" rx="2.4" ry="3.2"/>
	<path class="st0" d="M146.7,8.8c1.1,0,2-1.8,2-4c0-2.2-0.9-4-2-4c-1.1,0-2,1.8-2,4C144.7,7,145.6,8.8,146.7,8.8z"/>
	<path class="st0" d="M0,26.7h2.1v1.1c0.4-0.4,0.8-0.8,1.3-1c0.5-0.2,1-0.3,1.6-0.3c0.6,0,1.1,0.1,1.6,0.4c0.5,0.3,0.8,0.7,1.1,1.3
		c0.4-0.5,0.8-1,1.4-1.3c0.5-0.3,1.1-0.4,1.8-0.4c0.7,0,1.2,0.2,1.7,0.5c0.5,0.3,0.9,0.7,1.1,1.2c0.2,0.5,0.3,1.3,0.3,2.4V36h-2.4
		v-4.7c0-1.1-0.1-1.8-0.4-2.1c-0.3-0.4-0.7-0.6-1.2-0.6c-0.4,0-0.8,0.1-1.1,0.3c-0.3,0.2-0.6,0.5-0.7,0.9c-0.2,0.4-0.2,1-0.2,1.9V36
		H5.7v-4.5c0-0.8-0.1-1.4-0.2-1.8c-0.1-0.4-0.3-0.7-0.6-0.8c-0.2-0.2-0.5-0.3-0.9-0.3c-0.4,0-0.7,0.1-1.1,0.3
		c-0.3,0.2-0.6,0.6-0.7,1c-0.2,0.4-0.2,1.1-0.2,2V36H0v3.4h29.2V19.3H0V26.7z M17.6,26.7l2.4,5.9l2.7-5.9h2.4l-5.9,12.8h-2.4
		l1.9-4.1l-3.5-8.6H17.6z"/>
	<path class="st0" d="M156.4,47.3c-0.5-0.3-1-0.4-1.6-0.4c-0.7,0-1.4,0.2-2,0.5c-0.6,0.4-1.1,0.9-1.5,1.5c-0.4,0.6-0.5,1.3-0.5,2.1
		c0,1,0.3,1.7,0.9,2.4c0.6,0.6,1.4,0.9,2.3,0.9c0.8,0,1.4-0.2,2-0.5c0.6-0.3,1.1-0.8,1.4-1.5c0.4-0.6,0.5-1.3,0.5-2
		c0-0.6-0.1-1.2-0.4-1.7C157.3,48,156.9,47.6,156.4,47.3z M156.7,51.9c-0.3,0.5-0.6,0.9-1.1,1.2c-0.5,0.3-1,0.4-1.5,0.4
		c-0.7,0-1.3-0.2-1.8-0.7c-0.5-0.5-0.7-1.1-0.7-1.8c0-0.6,0.1-1.1,0.4-1.6c0.3-0.5,0.6-0.9,1.1-1.2c0.5-0.3,1-0.4,1.6-0.4
		c0.4,0,0.8,0.1,1.2,0.3c0.4,0.2,0.7,0.5,0.9,0.9c0.2,0.4,0.3,0.8,0.3,1.3C157.1,50.8,157,51.3,156.7,51.9z"/>
	<path class="st0" d="M99.8,44.4c-0.2,0.1-0.4,0.3-0.5,0.6c-0.1,0.2-0.2,0.7-0.3,1.5l-0.1,0.6h-0.9l-0.1,0.8h0.9l-0.9,6.2h0.9
		l0.9-6.2h1.4l0.1-0.8h-1.4l0.1-0.7c0.1-0.5,0.2-0.9,0.3-1.1c0.1-0.2,0.3-0.3,0.5-0.3c0.3,0,0.6,0.2,0.9,0.5l0.1-0.9
		c-0.4-0.3-0.7-0.4-1.1-0.4C100.2,44.2,100,44.2,99.8,44.4z"/>
	<polygon class="st0" points="147.8,54.1 148.7,54.1 150,44.4 149.2,44.4 	"/>
	<path class="st0" d="M185.8,47.7c0.5,0,1,0.3,1.4,0.8l0.5-0.7c-0.3-0.4-0.6-0.6-0.9-0.8c-0.3-0.1-0.6-0.2-1-0.2
		c-0.6,0-1.1,0.2-1.5,0.5c-0.4,0.4-0.6,0.8-0.6,1.3c0,0.3,0.1,0.6,0.3,0.9c0.2,0.3,0.6,0.6,1.2,1c0.5,0.4,0.9,0.6,1,0.8
		c0.2,0.2,0.3,0.5,0.3,0.8c0,0.3-0.1,0.6-0.4,0.9c-0.3,0.2-0.6,0.4-0.9,0.4c-0.6,0-1.2-0.3-1.7-0.9l-0.5,0.6
		c0.6,0.8,1.3,1.2,2.2,1.2c0.7,0,1.2-0.2,1.6-0.6c0.4-0.4,0.6-0.9,0.6-1.5c0-0.4-0.1-0.8-0.3-1.1c-0.2-0.3-0.7-0.7-1.3-1.1
		c-0.5-0.3-0.8-0.5-0.9-0.7c-0.1-0.2-0.2-0.4-0.2-0.5c0-0.2,0.1-0.5,0.3-0.7C185.3,47.8,185.5,47.7,185.8,47.7z"/>
	<path class="st0" d="M112.6,47.2c-0.3,0.2-0.6,0.4-0.9,0.8l0.1-0.9H111l-1,7h0.9l0.4-3c0.1-1,0.3-1.6,0.5-2.1
		c0.2-0.4,0.4-0.7,0.7-1c0.3-0.2,0.6-0.3,0.9-0.3c0.2,0,0.3,0,0.6,0.1l0.4-0.8c-0.3-0.1-0.5-0.2-0.8-0.2
		C113.3,46.9,113,47,112.6,47.2z"/>
	<path class="st0" d="M107.5,47.3c-0.5-0.3-1-0.4-1.6-0.4c-0.7,0-1.4,0.2-2,0.5c-0.6,0.4-1.1,0.9-1.5,1.5c-0.4,0.6-0.5,1.3-0.5,2.1
		c0,1,0.3,1.7,0.9,2.4c0.6,0.6,1.4,0.9,2.3,0.9c0.8,0,1.4-0.2,2-0.5c0.6-0.3,1.1-0.8,1.4-1.5c0.4-0.6,0.5-1.3,0.5-2
		c0-0.6-0.1-1.2-0.4-1.7C108.4,48,108,47.6,107.5,47.3z M107.8,51.9c-0.3,0.5-0.6,0.9-1.1,1.2c-0.5,0.3-1,0.4-1.5,0.4
		c-0.7,0-1.3-0.2-1.8-0.7c-0.5-0.5-0.7-1.1-0.7-1.8c0-0.6,0.1-1.1,0.4-1.6c0.3-0.5,0.6-0.9,1.1-1.2c0.5-0.3,1-0.4,1.6-0.4
		c0.4,0,0.8,0.1,1.2,0.3c0.4,0.2,0.7,0.5,0.9,0.9c0.2,0.4,0.3,0.8,0.3,1.3C108.2,50.8,108.1,51.3,107.8,51.9z"/>
	<path class="st0" d="M135.3,46.9c-0.5,0-1,0.1-1.4,0.4c-0.5,0.3-0.9,0.7-1.2,1.2c-0.2-0.5-0.4-0.9-0.7-1.1
		c-0.4-0.3-0.9-0.5-1.4-0.5c-0.4,0-0.8,0.1-1.3,0.3c-0.4,0.2-0.8,0.5-1,0.9l0.1-1h-0.9l-1,7h0.9l0.5-3.3c0-0.3,0.1-0.7,0.2-1.1
		c0.1-0.4,0.3-0.7,0.5-1c0.2-0.3,0.5-0.5,0.8-0.7c0.3-0.2,0.7-0.3,1-0.3c0.4,0,0.8,0.1,1,0.4c0.3,0.3,0.4,0.6,0.4,1.1
		c0,0.3,0,0.6-0.1,1l-0.5,3.9h0.9l0.5-3.4c0.1-0.6,0.2-1.1,0.4-1.5c0.2-0.4,0.5-0.7,0.9-1c0.4-0.3,0.8-0.4,1.3-0.4
		c0.4,0,0.8,0.1,1.1,0.4c0.3,0.3,0.4,0.6,0.4,1c0,0.3,0,0.8-0.1,1.5l-0.5,3.4h0.9l0.5-3.9c0.1-0.4,0.1-0.8,0.1-1.1
		c0-0.7-0.2-1.2-0.6-1.6C136.5,47.1,136,46.9,135.3,46.9z"/>
	<path class="st0" d="M122.2,46.9c-0.7,0-1.4,0.2-2,0.5c-0.6,0.4-1.1,0.9-1.5,1.5c-0.4,0.6-0.6,1.3-0.6,2c0,0.9,0.3,1.6,0.8,2.3
		s1.4,1,2.5,1c0.6,0,1.2-0.1,1.8-0.4c0.5-0.3,1-0.6,1.3-1l-0.7-0.5c-0.3,0.4-0.6,0.6-1,0.9c-0.4,0.2-0.9,0.3-1.4,0.3
		c-0.7,0-1.3-0.2-1.8-0.7c-0.4-0.5-0.7-1.1-0.7-2h6.3c0-0.2,0-0.5,0-0.6c0-0.9-0.3-1.7-0.9-2.3C123.8,47.2,123.1,46.9,122.2,46.9z
		 M119.1,50c0.2-0.7,0.6-1.2,1.1-1.6c0.5-0.4,1.2-0.6,1.9-0.6c0.6,0,1.2,0.2,1.6,0.6s0.7,0.9,0.7,1.6H119.1z"/>
	<path class="st0" d="M170.5,46.9c-0.7,0-1.4,0.2-2,0.5c-0.6,0.4-1.1,0.9-1.5,1.5c-0.4,0.6-0.6,1.3-0.6,2c0,0.9,0.3,1.6,0.8,2.3
		c0.6,0.7,1.4,1,2.5,1c0.6,0,1.2-0.1,1.8-0.4c0.5-0.3,1-0.6,1.3-1l-0.7-0.5c-0.3,0.4-0.6,0.6-1,0.9c-0.4,0.2-0.9,0.3-1.4,0.3
		c-0.7,0-1.3-0.2-1.8-0.7c-0.4-0.5-0.7-1.1-0.7-2h6.3c0-0.2,0-0.5,0-0.6c0-0.9-0.3-1.7-0.9-2.3C172.2,47.2,171.4,46.9,170.5,46.9z
		 M167.5,50c0.2-0.7,0.6-1.2,1.1-1.6c0.5-0.4,1.2-0.6,1.9-0.6c0.6,0,1.2,0.2,1.6,0.6c0.4,0.4,0.7,0.9,0.7,1.6H167.5z"/>
	<path class="st0" d="M179.1,46.9c-0.7,0-1.4,0.2-2,0.5c-0.6,0.4-1.1,0.9-1.5,1.5c-0.4,0.6-0.6,1.3-0.6,2c0,0.9,0.3,1.6,0.8,2.3
		s1.4,1,2.5,1c0.6,0,1.2-0.1,1.8-0.4c0.5-0.3,1-0.6,1.3-1l-0.7-0.5c-0.3,0.4-0.6,0.6-1,0.9c-0.4,0.2-0.9,0.3-1.4,0.3
		c-0.7,0-1.3-0.2-1.8-0.7c-0.4-0.5-0.7-1.1-0.7-2h6.3c0-0.2,0-0.5,0-0.6c0-0.9-0.3-1.7-0.9-2.3C180.8,47.2,180,46.9,179.1,46.9z
		 M176.1,50c0.2-0.7,0.6-1.2,1.1-1.6c0.5-0.4,1.2-0.6,1.9-0.6c0.6,0,1.2,0.2,1.6,0.6c0.4,0.4,0.7,0.9,0.7,1.6H176.1z"/>
	<polygon class="st0" points="162.1,52.2 160.2,47.1 159.3,47.1 161.5,53.2 159.5,56.6 160.5,56.6 166.1,47.1 165.1,47.1 	"/>
	<path class="st0" d="M143.6,46.9c-1,0-2,0.4-2.8,1.2l0.1-1.1H140l-1.3,9.6h0.9l0.5-3.9c0.3,0.5,0.7,0.9,1.1,1.2
		c0.4,0.2,1,0.4,1.5,0.4c1.1,0,2-0.4,2.8-1.2c0.8-0.8,1.2-1.8,1.2-2.9c0-1-0.3-1.8-0.9-2.4C145.3,47.2,144.5,46.9,143.6,46.9z
		 M145,52.5c-0.6,0.6-1.4,0.9-2.2,0.9c-0.7,0-1.3-0.2-1.8-0.7c-0.5-0.5-0.7-1-0.7-1.8c0-0.6,0.1-1.2,0.4-1.7
		c0.3-0.5,0.7-0.9,1.1-1.2c0.5-0.3,1-0.4,1.6-0.4c0.7,0,1.3,0.2,1.8,0.7c0.5,0.5,0.7,1.1,0.7,1.8C146,51.1,145.7,51.9,145,52.5z"/>
</g>
</svg>
