<svg xmlns="http://www.w3.org/2000/svg" width="775" height="322" viewBox="0 0 775 322"><g transform="translate(-441 -489)"><rect width="775" height="322" rx="8" transform="translate(441 489)" fill="#e7edf2"/><g transform="translate(145 243)"><rect width="1" height="300" transform="translate(683 257)" fill="#5a7184"/><text transform="translate(667 552)" fill="#7f2725" font-size="10" font-family="OpenSans-Bold, Open Sans" font-weight="700"><tspan x="-37.969" y="0">BEFORE</tspan></text><text transform="translate(700 552)" fill="#487f3f" font-size="10" font-family="OpenSans-Bold, Open Sans" font-weight="700"><tspan x="0" y="0">AFTER</tspan></text><g transform="translate(353 362)"><path d="M28,64A75.318,75.318,0,0,1,8.2,61.656C2.912,60.145,0,58.136,0,56V44c0,2.135,2.915,4.143,8.2,5.653A75.318,75.318,0,0,0,28,52c2.728,0,5.419-.111,8-.33V58a2,2,0,0,0,2,2h6v2.567A83.507,83.507,0,0,1,28,64Zm0-16A75.236,75.236,0,0,1,8.2,45.657C2.912,44.146,0,42.137,0,40V28c0,2.135,2.915,4.143,8.2,5.653A75.308,75.308,0,0,0,28,36a75.308,75.308,0,0,0,19.8-2.344C53.087,32.145,56,30.136,56,28v8H46a2,2,0,0,0-2,2v6H38a2,2,0,0,0-2,2v1.671C33.417,47.889,30.725,48,28,48Zm0-16A75.3,75.3,0,0,1,8.2,29.657C2.912,28.146,0,26.137,0,24V12c0,2.136,2.915,4.144,8.2,5.654A75.294,75.294,0,0,0,28,20a75.294,75.294,0,0,0,19.8-2.343C53.087,16.146,56,14.137,56,12V24c0,2.137-2.912,4.145-8.2,5.656A75.3,75.3,0,0,1,28,32ZM14,22a2,2,0,1,0,2,2A2,2,0,0,0,14,22ZM6,20a2,2,0,1,0,2,2A2,2,0,0,0,6,20Zm22-4A75.269,75.269,0,0,1,8.2,13.657C2.912,12.146,0,10.137,0,8S2.912,3.855,8.2,2.344A75.269,75.269,0,0,1,28,0,75.269,75.269,0,0,1,47.8,2.344C53.087,3.855,56,5.864,56,8s-2.912,4.145-8.2,5.656A75.269,75.269,0,0,1,28,16Z" fill="#5b7183"/><path d="M9,24a1,1,0,0,1-1-1V16H1a1,1,0,0,1-1-1V9A1,1,0,0,1,1,8H8V1A1,1,0,0,1,9,0h6a1,1,0,0,1,1,1V8h7a1,1,0,0,1,1,1v6a1,1,0,0,1-1,1H16v7a1,1,0,0,1-1,1Z" transform="translate(40 40)" fill="#19557f"/><text transform="translate(32.5 87)" fill="#5b7183" font-size="14" font-family="OpenSans-Bold, Open Sans" font-weight="700"><tspan x="-25.392" y="0">Add DB</tspan></text></g><g transform="translate(449 362)"><path d="M28,64A75.338,75.338,0,0,1,8.2,61.656C2.912,60.145,0,58.136,0,56V44c0,2.135,2.915,4.143,8.2,5.653A75.338,75.338,0,0,0,28,52c1.329,0,2.675-.028,4-.082V54a2,2,0,0,0,2,2h1.515l-1.071,1.071a2,2,0,0,0,0,2.829l3.576,3.576A92.8,92.8,0,0,1,28,64Zm0-16A75.2,75.2,0,0,1,8.2,45.657C2.912,44.146,0,42.137,0,40V28c0,2.135,2.915,4.143,8.2,5.653A75.328,75.328,0,0,0,28,36a90.843,90.843,0,0,0,11.209-.664L34.444,40.1a2,2,0,0,0,0,2.829L35.515,44H34a2,2,0,0,0-2,2v1.92C30.681,47.973,29.335,48,28,48ZM44,35.515l0,0-.793-.793c.237-.044.482-.09.795-.153v.948ZM56,33.9A2,2,0,0,0,54,32H52.26C54.707,30.794,56,29.412,56,28v5.9ZM28,32A75.318,75.318,0,0,1,8.2,29.657C2.912,28.146,0,26.137,0,24V12c0,2.136,2.915,4.144,8.2,5.654A75.255,75.255,0,0,0,28,20a75.255,75.255,0,0,0,19.8-2.343C53.087,16.146,56,14.137,56,12V24c0,2.137-2.912,4.145-8.2,5.656A75.318,75.318,0,0,1,28,32ZM14,22a2,2,0,1,0,2,2A2,2,0,0,0,14,22ZM6,20a2,2,0,1,0,2,2A2,2,0,0,0,6,20Zm22-4A75.289,75.289,0,0,1,8.2,13.657C2.912,12.146,0,10.137,0,8S2.912,3.855,8.2,2.344A75.289,75.289,0,0,1,28,0,75.289,75.289,0,0,1,47.8,2.344C53.087,3.855,56,5.864,56,8s-2.912,4.145-8.2,5.656A75.289,75.289,0,0,1,28,16Z" transform="translate(8)" fill="#5b7183"/><path d="M15,28H13a1,1,0,0,1-1-1V23.8a9.924,9.924,0,0,1-3.635-1.538L6.121,24.506a1,1,0,0,1-1.414,0L3.293,23.092a1,1,0,0,1,0-1.415l2.284-2.284A9.913,9.913,0,0,1,4.2,16H1a1,1,0,0,1-1-1V13a1,1,0,0,1,1-1H4.2A9.922,9.922,0,0,1,5.657,8.484L3.293,6.121a1,1,0,0,1,0-1.414L4.707,3.293a1,1,0,0,1,1.414,0L8.484,5.657A9.922,9.922,0,0,1,12,4.2V1a1,1,0,0,1,1-1h2a1,1,0,0,1,1,1V4.2a9.913,9.913,0,0,1,3.393,1.378l2.284-2.284a1,1,0,0,1,1.415,0l1.414,1.414a1,1,0,0,1,0,1.414L22.262,8.365A9.924,9.924,0,0,1,23.8,12H27a1,1,0,0,1,1,1v2a1,1,0,0,1-1,1H23.8a9.913,9.913,0,0,1-1.457,3.514l2.163,2.163a1,1,0,0,1,0,1.415l-1.414,1.414a1,1,0,0,1-1.415,0l-2.163-2.163A9.913,9.913,0,0,1,16,23.8V27A1,1,0,0,1,15,28ZM14,12a2,2,0,1,0,2,2A2,2,0,0,0,14,12Z" transform="translate(44 36)" fill="#19557f"/><text transform="translate(40 87)" fill="#5b7183" font-size="14" font-family="OpenSans-Bold, Open Sans" font-weight="700"><tspan x="-39.942" y="0">DB Settings</tspan></text></g><g transform="translate(559 362)"><path d="M24.6,63.932h0a71.439,71.439,0,0,1-16.3-2.276C2.945,60.145,0,58.136,0,56V44c0,2.135,2.948,4.143,8.293,5.653A76.964,76.964,0,0,0,28.314,52c1.07,0,2.149-.017,3.208-.051L24.6,63.931ZM28.314,48A76.911,76.911,0,0,1,8.293,45.657C2.945,44.146,0,42.137,0,40V28c0,2.135,2.948,4.143,8.293,5.653A76.955,76.955,0,0,0,28.314,36a90.394,90.394,0,0,0,12.932-.879L33.893,47.846C32.066,47.948,30.19,48,28.314,48Zm27.439-6.013h0l-5.216-9.026a15.584,15.584,0,0,0,4.526-2.324A3.519,3.519,0,0,0,56.628,28V40a2.981,2.981,0,0,1-.874,1.986ZM28.314,32A76.945,76.945,0,0,1,8.293,29.657C2.945,28.146,0,26.137,0,24V12c0,2.136,2.948,4.143,8.293,5.654A76.965,76.965,0,0,0,28.314,20a76.965,76.965,0,0,0,20.021-2.343c5.348-1.511,8.293-3.52,8.293-5.657V24c0,2.1-2.856,4.083-8.041,5.584l-.32-.554a2.022,2.022,0,0,0-3.5,0L43.8,30.7A86.83,86.83,0,0,1,28.314,32ZM14.157,22a2,2,0,1,0,2.022,2A2.014,2.014,0,0,0,14.157,22Zm-8.09-2A2,2,0,1,0,8.09,22,2.013,2.013,0,0,0,6.067,20Zm22.247-4A76.927,76.927,0,0,1,8.293,13.657C2.945,12.146,0,10.137,0,8S2.945,3.854,8.293,2.343A76.927,76.927,0,0,1,28.314,0,76.927,76.927,0,0,1,48.335,2.343C53.683,3.854,56.628,5.863,56.628,8s-2.945,4.146-8.293,5.657A76.927,76.927,0,0,1,28.314,16Z" transform="translate(2)" fill="#5b7183"/><path d="M33.938,30.966H1.012a1.011,1.011,0,0,1-.879-1.511L16.6.511a1.012,1.012,0,0,1,1.759,0L34.817,29.455a1.011,1.011,0,0,1-.878,1.511Zm-16.486-8a2,2,0,1,0,0,4H17.5a2,2,0,1,0,0-4Zm.022-12a2.025,2.025,0,0,0-2.022,2.022v3.955a2.022,2.022,0,0,0,4.045,0V12.989A2.025,2.025,0,0,0,17.474,10.967Z" transform="translate(31 33)" fill="#19557f"/><text transform="translate(34 87)" fill="#5b7183" font-size="14" font-family="OpenSans-Bold, Open Sans" font-weight="700"><tspan x="-33.944" y="0">DB Status</tspan></text></g><g transform="translate(740 362)"><path d="M26.667,64A2.666,2.666,0,0,1,24,61.333V40H2.667A2.667,2.667,0,0,1,0,37.333V26.667A2.667,2.667,0,0,1,2.667,24H24V2.667A2.667,2.667,0,0,1,26.667,0H37.333A2.667,2.667,0,0,1,40,2.667V24H61.333A2.666,2.666,0,0,1,64,26.667V37.333A2.666,2.666,0,0,1,61.333,40H40V61.333A2.666,2.666,0,0,1,37.333,64Z" fill="#5b7183"/><text transform="translate(32.5 87)" fill="#5b7183" font-size="14" font-family="OpenSans-Bold, Open Sans" font-weight="700"><tspan x="-25.392" y="0">Add DB</tspan></text></g><g transform="translate(836 362)"><path d="M35.715,64H28.286A2.289,2.289,0,0,1,26,61.714v-6.47a23.864,23.864,0,0,1-6.192-2.567l-4.576,4.576a2.286,2.286,0,0,1-3.233,0L6.746,52a2.289,2.289,0,0,1,0-3.233l4.577-4.576A23.864,23.864,0,0,1,8.756,38H2.286A2.288,2.288,0,0,1,0,35.715V28.286A2.289,2.289,0,0,1,2.286,26h6.47a23.864,23.864,0,0,1,2.567-6.192L6.746,15.232a2.289,2.289,0,0,1,0-3.233L12,6.746a2.286,2.286,0,0,1,3.233,0l4.576,4.577A23.864,23.864,0,0,1,26,8.756V2.286A2.289,2.289,0,0,1,28.286,0h7.429A2.288,2.288,0,0,1,38,2.286v6.47a23.864,23.864,0,0,1,6.192,2.567l4.576-4.577a2.286,2.286,0,0,1,3.233,0L57.254,12a2.289,2.289,0,0,1,0,3.233l-4.576,4.576A23.864,23.864,0,0,1,55.244,26h6.47A2.289,2.289,0,0,1,64,28.286v7.429A2.288,2.288,0,0,1,61.714,38h-6.47a23.864,23.864,0,0,1-2.567,6.192l4.576,4.576a2.289,2.289,0,0,1,0,3.233L52,57.254a2.286,2.286,0,0,1-3.233,0l-4.576-4.576A23.864,23.864,0,0,1,38,55.244v6.47A2.288,2.288,0,0,1,35.715,64ZM32,24a8,8,0,1,0,8,8A8.009,8.009,0,0,0,32,24Z" transform="translate(8)" fill="#5b7183"/><text transform="translate(40 87)" fill="#5b7183" font-size="14" font-family="OpenSans-Bold, Open Sans" font-weight="700"><tspan x="-39.942" y="0">DB Settings</tspan></text></g><g transform="translate(946 362)"><path d="M59.261,60.032H4.643A4.643,4.643,0,0,1,.554,53.188L27.864,2.444a4.643,4.643,0,0,1,8.176,0L63.35,53.188a4.643,4.643,0,0,1-4.089,6.844ZM31.9,43.736a4.074,4.074,0,1,0,0,8.148H32a4.074,4.074,0,1,0,0-8.148Zm.053-24.445a4.132,4.132,0,0,0-4.127,4.127V35.534a4.127,4.127,0,1,0,8.254,0V23.418A4.132,4.132,0,0,0,31.953,19.291Z" transform="translate(2)" fill="#5b7183"/><text transform="translate(34 86)" fill="#5b7183" font-size="14" font-family="OpenSans-Bold, Open Sans" font-weight="700"><tspan x="-33.944" y="0">DB Status</tspan></text></g></g></g></svg>