<svg xmlns="http://www.w3.org/2000/svg" width="775" height="322" viewBox="0 0 775 322"><g transform="translate(-441 -489)"><rect width="775" height="322" rx="8" transform="translate(441 489)" fill="#e7edf2"/><rect width="1" height="300" transform="translate(839 500)" fill="#5a7184"/><text transform="translate(823 795)" fill="#7f2725" font-size="10" font-family="OpenSans-Bold, Open Sans" font-weight="700"><tspan x="-37.969" y="0">BEFORE</tspan></text><text transform="translate(856 795)" fill="#487f3f" font-size="10" font-family="OpenSans-Bold, Open Sans" font-weight="700"><tspan x="0" y="0">AFTER</tspan></text><path d="M52.221,88h0L32.478,84.77,19.743,82.715,1.382,79.68,0,38.568,25.173,13.411,54.689,0,77,25.157,75.914,60.885,52.222,88ZM19.25,56.872h0l13.03,1.762.1,21.046,14.512,2.349.2-35.63L25.272,21.535,5.035,41.308,6.022,75.47l13.623,2.154-.4-20.751Z" transform="translate(590 604)" fill="#5b7183"/><path d="M75.045,88H36.492V51a1.376,1.376,0,0,0-1.375-1.375H21.344A1.376,1.376,0,0,0,19.969,51V88H8.954V38.5h-6.2A2.75,2.75,0,0,1,.986,33.642L40.235.768a2.75,2.75,0,0,1,3.532,0l14.756,12.36V2.75A2.75,2.75,0,0,1,61.273,0h5.515a2.75,2.75,0,0,1,2.75,2.75v19.6L83.014,33.642A2.75,2.75,0,0,1,81.248,38.5h-6.2V88h0ZM47.507,52.25v11A2.753,2.753,0,0,0,50.258,66H61.28a2.753,2.753,0,0,0,2.75-2.75v-11a2.754,2.754,0,0,0-2.75-2.75H50.258A2.754,2.754,0,0,0,47.507,52.25Z" transform="translate(983 604)" fill="#5b7183"/></g></svg>