<svg xmlns="http://www.w3.org/2000/svg" xmlns:xlink="http://www.w3.org/1999/xlink" width="775" height="322" viewBox="0 0 775 322"><defs><linearGradient id="a" x1="0.5" y1="0.162" x2="0.5" y2="0.924" gradientUnits="objectBoundingBox"><stop offset="0" stop-color="#c3cfda"/><stop offset="1" stop-color="#abbcca"/></linearGradient><linearGradient id="b" x1="0.348" x2="0.736" y2="1" gradientUnits="objectBoundingBox"><stop offset="0" stop-color="#ccf060"/><stop offset="1" stop-color="#26661a"/></linearGradient></defs><g transform="translate(-441 -489)"><rect width="775" height="322" rx="8" transform="translate(441 489)" fill="#e7edf2"/><g transform="translate(145 275)"><g transform="translate(414 343)"><rect width="28" height="28" rx="4" fill="#19557f"/><rect width="28" height="28" rx="4" transform="translate(0 36)" fill="#3baecc"/><rect width="28" height="28" rx="4" transform="translate(36)" fill="#a4cc44"/><rect width="28" height="28" rx="4" transform="translate(36 36)" fill="#1a8573"/></g><g transform="translate(504 347)" stroke-miterlimit="10" fill="url(#a)"><path d="M 36.74695205688477 58 C 36.34283065795898 58 35.94267272949219 57.93492126464844 35.55759048461914 57.80654907226562 C 34.63005065917969 57.49739074707031 33.86938095092773 56.85012817382812 33.41572189331055 55.9840202331543 L 23.31423187255859 36.69956970214844 L 22.71706199645996 35.55952835083008 L 23.5071907043457 34.54365921020508 L 30.68480110168457 25.31540870666504 L 21.45641136169434 32.49296951293945 L 20.4405517578125 33.2830696105957 L 19.3005313873291 32.68592834472656 L 0.0158410519361496 22.58452987670898 C -0.8738889694213867 22.11848068237305 -1.528878927230835 21.3338508605957 -1.828468918800354 20.37516975402832 C -2.128068923950195 19.41647911071777 -2.036388874053955 18.39850997924805 -1.570318937301636 17.50877952575684 C -1.116678953170776 16.64270973205566 -0.3559989631175995 15.99545955657959 0.5715510249137878 15.68628025054932 L 53.05064010620117 -1.806560039520264 C 53.43572235107422 -1.934919953346252 53.83587265014648 -2 54.23998260498047 -2 C 55.86080932617188 -2 57.2943000793457 -0.9665399789810181 57.80702972412109 0.571619987487793 C 58.06264114379883 1.338430047035217 58.06264114379883 2.183020114898682 57.80704116821289 2.949820041656494 L 40.31399154663086 55.42837142944336 C 39.8012809753418 56.9665412902832 38.36780166625977 58 36.74695205688477 58 Z" stroke="none"/><path d="M 36.74694061279297 56.00000381469727 C 37.48391723632812 56.00000381469727 38.17076873779297 55.53349304199219 38.4166374206543 54.79591751098633 L 55.90967178344727 2.317366600036621 C 56.03010559082031 1.956050038337708 56.03010559082031 1.565400004386902 55.90967178344727 1.204083323478699 C 55.66378402709961 0.4664501249790192 54.97701263427734 -4.231770617479924e-06 54.23997116088867 -4.231770617479924e-06 C 54.05548858642578 -4.231770617479924e-06 53.86772537231445 0.02925662510097027 53.68308639526367 0.09080000221729279 L 1.203987717628479 17.58366584777832 C 0.7719877362251282 17.7276496887207 0.4126210510730743 18.03344917297363 0.2013210505247116 18.43680000305176 C -0.2497622817754745 19.29798316955566 0.08267105370759964 20.36176681518555 0.9438543915748596 20.81285095214844 L 20.22853851318359 30.91424942016602 L 39.30767059326172 16.07508277893066 C 39.38798904418945 16.01262283325195 39.48310852050781 15.98237133026123 39.57754135131836 15.98237133026123 C 39.70868301391602 15.98237133026123 39.83847427368164 16.04074859619141 39.92522048950195 16.15228271484375 C 40.04882049560547 16.31119918823242 40.04882049560547 16.53371620178223 39.92522048950195 16.6926326751709 L 25.08588790893555 35.77154922485352 L 35.18740463256836 55.05604934692383 C 35.39868927001953 55.45940017700195 35.75807189941406 55.76520156860352 36.19005584716797 55.90919876098633 C 36.37474822998047 55.97076034545898 36.56240081787109 56.00000381469727 36.74694061279297 56.00000381469727 M 36.7469367980957 60 C 36.1274528503418 60 35.51450347900391 59.90038299560547 34.92513656616211 59.70393371582031 C 33.50425338745117 59.23028182983398 32.33905410766602 58.23880004882812 31.64408683776855 56.91211700439453 L 21.54257011413574 37.62760162353516 L 20.45285606384277 35.54727172851562 L 18.37252044677734 34.45758438110352 L -0.9121623039245605 24.3561840057373 C -3.725728988647461 22.88245010375977 -4.815778732299805 19.39441680908203 -3.342028856277466 16.5808162689209 C -2.646912336349487 15.25391674041748 -1.481645584106445 14.26245021820068 -0.0607956163585186 13.78888320922852 L 52.41818618774414 -3.703933238983154 C 53.00745391845703 -3.900383234024048 53.62043762207031 -4 54.23997116088867 -4 C 56.7230224609375 -4 58.91900253295898 -2.416983366012573 59.70438766479492 -0.06084999814629555 C 60.0959358215332 1.11383330821991 60.0959358215332 2.40761661529541 59.70442199707031 3.582233428955078 L 42.21137237548828 56.06083297729492 C 41.42597198486328 58.41698455810547 39.22998809814453 60 36.7469367980957 60 Z" stroke="none" fill="#5b7183"/></g><g transform="translate(327 344)"><path d="M3.573,0,.051,15.522A2.021,2.021,0,0,0,2.468,17.94L17.99,14.417Z" transform="translate(0 44.01)" fill="#e0ddce"/><path d="M33.34,0,0,33.34,14.854,48.194l33.34-33.34Z" transform="translate(5.839 7.967)" fill="#f1c44f"/><path d="M11.768,1.776a6.062,6.062,0,0,0-8.573,0L0,4.971,14.854,19.825l3.2-3.2a6.062,6.062,0,0,0,0-8.573Z" transform="translate(41.664 0.511)" fill="#a64441"/></g><path d="M52,64H4a4,4,0,0,1-4-4V20H14a6.006,6.006,0,0,0,6-6V0H52a4,4,0,0,1,4,4V60A4,4,0,0,1,52,64ZM14.212,37.819a1,1,0,0,0-.751,1.66L27.249,55.147a1,1,0,0,0,1.5,0L42.539,39.479a1,1,0,0,0-.751-1.66H33.606V29a1,1,0,0,0-1-1H23.393a1,1,0,0,0-1,1v8.819ZM12,16H0L13.657,2.343A7.991,7.991,0,0,1,16,.714V12A4.005,4.005,0,0,1,12,16Z" transform="translate(587 343)" fill="url(#b)"/><g transform="translate(811 343)"><rect width="28" height="28" rx="4" fill="#19557f"/><rect width="28" height="28" rx="4" transform="translate(36 36)" fill="#1a8573"/><path d="M4,64a4,4,0,0,1-4-4V40a4,4,0,0,1,4-4H24a4,4,0,0,1,4,4V60a4,4,0,0,1-4,4ZM40,28a4,4,0,0,1-4-4V4a4,4,0,0,1,4-4H60a4,4,0,0,1,4,4V24a4,4,0,0,1-4,4Z" fill="#5b7183"/></g><path d="M28.67,40.882l16.959-21.8a.5.5,0,0,0-.706-.706l-21.8,16.959L1.079,23.786a2.012,2.012,0,0,1,.3-3.691L61.352.1A2.012,2.012,0,0,1,63.9,2.648L43.9,62.624a2.012,2.012,0,0,1-3.691.3Z" transform="translate(897 343)" fill="#5b7183"/><path d="M2.012,64h0A2.022,2.022,0,0,1,.05,61.532L3.573,46.01,17.99,60.427,2.468,63.95A2.06,2.06,0,0,1,2.012,64Zm18.681-5.84h0L5.839,43.307,39.18,9.967,54.033,24.821ZM56.518,22.336h0L41.665,7.482,44.86,4.287a6.061,6.061,0,0,1,8.573,0l6.282,6.281a6.068,6.068,0,0,1,0,8.573l-3.195,3.195Z" transform="translate(724 343)" fill="#c6c1a7"/><path d="M52,64H4a4,4,0,0,1-4-4V20H14a6.006,6.006,0,0,0,6-6V0H52a4,4,0,0,1,4,4V60A4,4,0,0,1,52,64ZM14.212,37.819a1,1,0,0,0-.751,1.66L27.249,55.147a1,1,0,0,0,1.5,0L42.539,39.479a1,1,0,0,0-.751-1.66H33.606V29a1,1,0,0,0-1-1H23.393a1,1,0,0,0-1,1v8.819ZM12,16H0L13.657,2.343A7.991,7.991,0,0,1,16,.714V12A4.005,4.005,0,0,1,12,16Z" transform="translate(984 343)" fill="#78b25d"/><rect width="1" height="300" transform="translate(683 225)" fill="#557b92"/><path d="M-37.07-7.139h2.222a4.281,4.281,0,0,1,2.2.432,1.5,1.5,0,0,1,.686,1.375,1.732,1.732,0,0,1-.3,1.05,1.2,1.2,0,0,1-.8.493v.049a1.573,1.573,0,0,1,.979.566,1.843,1.843,0,0,1,.3,1.1,1.818,1.818,0,0,1-.706,1.523A3.052,3.052,0,0,1-34.4,0H-37.07Zm1.514,2.827h.879a1.607,1.607,0,0,0,.891-.19.71.71,0,0,0,.276-.63.63.63,0,0,0-.3-.588,1.93,1.93,0,0,0-.95-.178h-.8Zm0,1.2v1.86h.986a1.463,1.463,0,0,0,.923-.239.883.883,0,0,0,.3-.732q0-.889-1.27-.889ZM-26.24,0h-4.111V-7.139h4.111V-5.9h-2.6v1.567h2.417v1.24h-2.417V-1.25h2.6Zm2.979,0h-1.489V-7.139h4.092V-5.9h-2.6v1.841h2.422v1.235h-2.422Zm10.479-3.579a3.874,3.874,0,0,1-.879,2.725A3.258,3.258,0,0,1-16.182.1,3.258,3.258,0,0,1-18.7-.854a3.889,3.889,0,0,1-.879-2.734A3.836,3.836,0,0,1-18.7-6.311a3.3,3.3,0,0,1,2.527-.94,3.25,3.25,0,0,1,2.517.947A3.884,3.884,0,0,1-12.783-3.579Zm-5.21,0a2.982,2.982,0,0,0,.454,1.8,1.589,1.589,0,0,0,1.357.605q1.812,0,1.812-2.407t-1.8-2.412a1.6,1.6,0,0,0-1.362.608A2.969,2.969,0,0,0-17.993-3.579Zm8.2-.391H-9.3a1.868,1.868,0,0,0,1.06-.239A.854.854,0,0,0-7.9-4.961a.781.781,0,0,0-.349-.723A2.119,2.119,0,0,0-9.331-5.9H-9.79Zm0,1.23V0H-11.3V-7.139h2.08a3.56,3.56,0,0,1,2.153.53A1.891,1.891,0,0,1-6.372-5a1.894,1.894,0,0,1-.347,1.121A2.294,2.294,0,0,1-7.7-3.11Q-6.089-.7-5.6,0H-7.28l-1.7-2.739ZM-.591,0H-4.7V-7.139H-.591V-5.9h-2.6v1.567H-.771v1.24H-3.188V-1.25h2.6Z" transform="translate(667 520)" fill="#7f2725"/><path d="M5.269,0,4.751-1.7h-2.6L1.631,0H0L2.52-7.168H4.37L6.9,0ZM4.39-2.969q-.718-2.31-.808-2.612T3.452-6.06q-.161.625-.923,3.091ZM9.287,0H7.8V-7.139H11.89V-5.9h-2.6v1.841h2.422v1.235H9.287ZM16.04,0H14.526V-5.879H12.588v-1.26h5.391v1.26H16.04Zm7.148,0H19.077V-7.139h4.111V-5.9h-2.6v1.567h2.417v1.24H20.591V-1.25h2.6Zm3-3.97h.488a1.868,1.868,0,0,0,1.06-.239.854.854,0,0,0,.342-.752.781.781,0,0,0-.349-.723A2.119,2.119,0,0,0,26.65-5.9h-.459Zm0,1.23V0H24.678V-7.139h2.08a3.56,3.56,0,0,1,2.153.53A1.891,1.891,0,0,1,29.609-5a1.894,1.894,0,0,1-.347,1.121,2.294,2.294,0,0,1-.981.769Q29.893-.7,30.381,0H28.7L27-2.739Z" transform="translate(700 520)" fill="#487f3f"/></g></g></svg>