<svg xmlns="http://www.w3.org/2000/svg" width="775" height="322" viewBox="0 0 775 322"><g transform="translate(-441 -489)"><rect width="775" height="322" rx="8" transform="translate(441 489)" fill="#e7edf2"/><g transform="translate(145 243)"><rect width="1" height="300" transform="translate(683 257)" fill="#557b92"/><path d="M-37.07-7.139h2.222a4.281,4.281,0,0,1,2.2.432,1.5,1.5,0,0,1,.686,1.375,1.732,1.732,0,0,1-.3,1.05,1.2,1.2,0,0,1-.8.493v.049a1.573,1.573,0,0,1,.979.566,1.843,1.843,0,0,1,.3,1.1,1.818,1.818,0,0,1-.706,1.523A3.052,3.052,0,0,1-34.4,0H-37.07Zm1.514,2.827h.879a1.607,1.607,0,0,0,.891-.19.71.71,0,0,0,.276-.63.63.63,0,0,0-.3-.588,1.93,1.93,0,0,0-.95-.178h-.8Zm0,1.2v1.86h.986a1.463,1.463,0,0,0,.923-.239.883.883,0,0,0,.3-.732q0-.889-1.27-.889ZM-26.24,0h-4.111V-7.139h4.111V-5.9h-2.6v1.567h2.417v1.24h-2.417V-1.25h2.6Zm2.979,0h-1.489V-7.139h4.092V-5.9h-2.6v1.841h2.422v1.235h-2.422Zm10.479-3.579a3.874,3.874,0,0,1-.879,2.725A3.258,3.258,0,0,1-16.182.1,3.258,3.258,0,0,1-18.7-.854a3.889,3.889,0,0,1-.879-2.734A3.836,3.836,0,0,1-18.7-6.311a3.3,3.3,0,0,1,2.527-.94,3.25,3.25,0,0,1,2.517.947A3.884,3.884,0,0,1-12.783-3.579Zm-5.21,0a2.982,2.982,0,0,0,.454,1.8,1.589,1.589,0,0,0,1.357.605q1.812,0,1.812-2.407t-1.8-2.412a1.6,1.6,0,0,0-1.362.608A2.969,2.969,0,0,0-17.993-3.579Zm8.2-.391H-9.3a1.868,1.868,0,0,0,1.06-.239A.854.854,0,0,0-7.9-4.961a.781.781,0,0,0-.349-.723A2.119,2.119,0,0,0-9.331-5.9H-9.79Zm0,1.23V0H-11.3V-7.139h2.08a3.56,3.56,0,0,1,2.153.53A1.891,1.891,0,0,1-6.372-5a1.894,1.894,0,0,1-.347,1.121A2.294,2.294,0,0,1-7.7-3.11Q-6.089-.7-5.6,0H-7.28l-1.7-2.739ZM-.591,0H-4.7V-7.139H-.591V-5.9h-2.6v1.567H-.771v1.24H-3.188V-1.25h2.6Z" transform="translate(667 552)" fill="#7f2725"/><path d="M5.269,0,4.751-1.7h-2.6L1.631,0H0L2.52-7.168H4.37L6.9,0ZM4.39-2.969q-.718-2.31-.808-2.612T3.452-6.06q-.161.625-.923,3.091ZM9.287,0H7.8V-7.139H11.89V-5.9h-2.6v1.841h2.422v1.235H9.287ZM16.04,0H14.526V-5.879H12.588v-1.26h5.391v1.26H16.04Zm7.148,0H19.077V-7.139h4.111V-5.9h-2.6v1.567h2.417v1.24H20.591V-1.25h2.6Zm3-3.97h.488a1.868,1.868,0,0,0,1.06-.239.854.854,0,0,0,.342-.752.781.781,0,0,0-.349-.723A2.119,2.119,0,0,0,26.65-5.9h-.459Zm0,1.23V0H24.678V-7.139h2.08a3.56,3.56,0,0,1,2.153.53A1.891,1.891,0,0,1,29.609-5a1.894,1.894,0,0,1-.347,1.121,2.294,2.294,0,0,1-.981.769Q29.893-.7,30.381,0H28.7L27-2.739Z" transform="translate(700 552)" fill="#487f3f"/><path d="M28,64A75.318,75.318,0,0,1,8.2,61.656C2.912,60.145,0,58.136,0,56V44c0,2.135,2.915,4.143,8.2,5.653A75.318,75.318,0,0,0,28,52c2.728,0,5.419-.111,8-.33V58a2,2,0,0,0,2,2h6v2.567A83.507,83.507,0,0,1,28,64Zm0-16A75.236,75.236,0,0,1,8.2,45.657C2.912,44.146,0,42.137,0,40V28c0,2.135,2.915,4.143,8.2,5.653A75.308,75.308,0,0,0,28,36a75.308,75.308,0,0,0,19.8-2.344C53.087,32.145,56,30.136,56,28v8H46a2,2,0,0,0-2,2v6H38a2,2,0,0,0-2,2v1.671C33.417,47.889,30.725,48,28,48Zm0-16A75.3,75.3,0,0,1,8.2,29.657C2.912,28.146,0,26.137,0,24V12c0,2.136,2.915,4.144,8.2,5.654A75.294,75.294,0,0,0,28,20a75.294,75.294,0,0,0,19.8-2.343C53.087,16.146,56,14.137,56,12V24c0,2.137-2.912,4.145-8.2,5.656A75.3,75.3,0,0,1,28,32ZM14,22a2,2,0,1,0,2,2A2,2,0,0,0,14,22ZM6,20a2,2,0,1,0,2,2A2,2,0,0,0,6,20Zm22-4A75.269,75.269,0,0,1,8.2,13.657C2.912,12.146,0,10.137,0,8S2.912,3.855,8.2,2.344A75.269,75.269,0,0,1,28,0,75.269,75.269,0,0,1,47.8,2.344C53.087,3.855,56,5.864,56,8s-2.912,4.145-8.2,5.656A75.269,75.269,0,0,1,28,16Z" transform="translate(353 362)" fill="#5b7183"/><path d="M9,24a1,1,0,0,1-1-1V16H1a1,1,0,0,1-1-1V9A1,1,0,0,1,1,8H8V1A1,1,0,0,1,9,0h6a1,1,0,0,1,1,1V8h7a1,1,0,0,1,1,1v6a1,1,0,0,1-1,1H16v7a1,1,0,0,1-1,1Z" transform="translate(393 402)" fill="#19557f"/><path d="M-18.016,0l-.725-2.379h-3.644L-23.109,0h-2.283l3.527-10.035h2.591L-15.733,0Zm-1.23-4.156q-1-3.233-1.131-3.657t-.181-.67q-.226.875-1.292,4.327ZM-12.219.137A2.482,2.482,0,0,1-14.335-.909a4.808,4.808,0,0,1-.769-2.9,4.813,4.813,0,0,1,.783-2.929,2.542,2.542,0,0,1,2.157-1.049,2.493,2.493,0,0,1,2.2,1.121H-9.9a8.524,8.524,0,0,1-.157-1.524v-2.447H-7.96V0h-1.6l-.4-.991h-.089A2.386,2.386,0,0,1-12.219.137Zm.731-1.661a1.413,1.413,0,0,0,1.172-.465,2.7,2.7,0,0,0,.407-1.579v-.226a3.125,3.125,0,0,0-.379-1.764,1.409,1.409,0,0,0-1.234-.533,1.224,1.224,0,0,0-1.083.591,3.155,3.155,0,0,0-.386,1.719,2.99,2.99,0,0,0,.39,1.692A1.273,1.273,0,0,0-11.488-1.524ZM-3.36.137A2.482,2.482,0,0,1-5.476-.909a4.808,4.808,0,0,1-.769-2.9,4.813,4.813,0,0,1,.783-2.929A2.542,2.542,0,0,1-3.305-7.786,2.493,2.493,0,0,1-1.1-6.665h.068a8.524,8.524,0,0,1-.157-1.524v-2.447H.9V0H-.7l-.4-.991h-.089A2.386,2.386,0,0,1-3.36.137Zm.731-1.661a1.413,1.413,0,0,0,1.172-.465,2.7,2.7,0,0,0,.407-1.579v-.226a3.125,3.125,0,0,0-.379-1.764,1.409,1.409,0,0,0-1.234-.533A1.224,1.224,0,0,0-3.746-5.5,3.155,3.155,0,0,0-4.132-3.78a2.99,2.99,0,0,0,.39,1.692A1.273,1.273,0,0,0-2.628-1.524Zm17.8-3.568a4.922,4.922,0,0,1-1.4,3.78A5.729,5.729,0,0,1,9.71,0H6.88V-9.994h3.138a5.284,5.284,0,0,1,3.8,1.292A4.752,4.752,0,0,1,15.172-5.093Zm-2.2.055q0-3.22-2.844-3.22H9V-1.75h.909Q12.971-1.75,12.971-5.038Zm4.272-4.956h3.11a5.994,5.994,0,0,1,3.086.6,2.106,2.106,0,0,1,.96,1.924A2.425,2.425,0,0,1,23.98-6a1.679,1.679,0,0,1-1.118.69v.068a2.2,2.2,0,0,1,1.371.793,2.58,2.58,0,0,1,.42,1.545,2.546,2.546,0,0,1-.988,2.133A4.272,4.272,0,0,1,20.983,0H17.244Zm2.119,3.958h1.23A2.25,2.25,0,0,0,21.841-6.3a.994.994,0,0,0,.386-.882.882.882,0,0,0-.42-.824,2.7,2.7,0,0,0-1.33-.25H19.363Zm0,1.682v2.6h1.381a2.048,2.048,0,0,0,1.292-.335,1.236,1.236,0,0,0,.417-1.025q0-1.244-1.777-1.244Z" transform="translate(380.5 449)" fill="#5b7183"/><path d="M28,64A75.338,75.338,0,0,1,8.2,61.656C2.912,60.145,0,58.136,0,56V44c0,2.135,2.915,4.143,8.2,5.653A75.338,75.338,0,0,0,28,52c1.329,0,2.675-.028,4-.082V54a2,2,0,0,0,2,2h1.515l-1.071,1.071a2,2,0,0,0,0,2.829l3.576,3.576A92.8,92.8,0,0,1,28,64Zm0-16A75.2,75.2,0,0,1,8.2,45.657C2.912,44.146,0,42.137,0,40V28c0,2.135,2.915,4.143,8.2,5.653A75.328,75.328,0,0,0,28,36a90.843,90.843,0,0,0,11.209-.664L34.444,40.1a2,2,0,0,0,0,2.829L35.515,44H34a2,2,0,0,0-2,2v1.92C30.681,47.973,29.335,48,28,48ZM44,35.515l0,0-.793-.793c.237-.044.482-.09.795-.153v.948ZM56,33.9A2,2,0,0,0,54,32H52.26C54.707,30.794,56,29.412,56,28v5.9ZM28,32A75.318,75.318,0,0,1,8.2,29.657C2.912,28.146,0,26.137,0,24V12c0,2.136,2.915,4.144,8.2,5.654A75.255,75.255,0,0,0,28,20a75.255,75.255,0,0,0,19.8-2.343C53.087,16.146,56,14.137,56,12V24c0,2.137-2.912,4.145-8.2,5.656A75.318,75.318,0,0,1,28,32ZM14,22a2,2,0,1,0,2,2A2,2,0,0,0,14,22ZM6,20a2,2,0,1,0,2,2A2,2,0,0,0,6,20Zm22-4A75.289,75.289,0,0,1,8.2,13.657C2.912,12.146,0,10.137,0,8S2.912,3.855,8.2,2.344A75.289,75.289,0,0,1,28,0,75.289,75.289,0,0,1,47.8,2.344C53.087,3.855,56,5.864,56,8s-2.912,4.145-8.2,5.656A75.289,75.289,0,0,1,28,16Z" transform="translate(457 362)" fill="#5b7183"/><path d="M15,28H13a1,1,0,0,1-1-1V23.8a9.924,9.924,0,0,1-3.635-1.538L6.121,24.506a1,1,0,0,1-1.414,0L3.293,23.092a1,1,0,0,1,0-1.415l2.284-2.284A9.913,9.913,0,0,1,4.2,16H1a1,1,0,0,1-1-1V13a1,1,0,0,1,1-1H4.2A9.922,9.922,0,0,1,5.657,8.484L3.293,6.121a1,1,0,0,1,0-1.414L4.707,3.293a1,1,0,0,1,1.414,0L8.484,5.657A9.922,9.922,0,0,1,12,4.2V1a1,1,0,0,1,1-1h2a1,1,0,0,1,1,1V4.2a9.913,9.913,0,0,1,3.393,1.378l2.284-2.284a1,1,0,0,1,1.415,0l1.414,1.414a1,1,0,0,1,0,1.414L22.262,8.365A9.924,9.924,0,0,1,23.8,12H27a1,1,0,0,1,1,1v2a1,1,0,0,1-1,1H23.8a9.913,9.913,0,0,1-1.457,3.514l2.163,2.163a1,1,0,0,1,0,1.415l-1.414,1.414a1,1,0,0,1-1.415,0l-2.163-2.163A9.913,9.913,0,0,1,16,23.8V27A1,1,0,0,1,15,28ZM14,12a2,2,0,1,0,2,2A2,2,0,0,0,14,12Z" transform="translate(493 398)" fill="#19557f"/><path d="M-30.393-5.093a4.922,4.922,0,0,1-1.4,3.78A5.729,5.729,0,0,1-35.854,0h-2.83V-9.994h3.138a5.284,5.284,0,0,1,3.8,1.292A4.752,4.752,0,0,1-30.393-5.093Zm-2.2.055q0-3.22-2.844-3.22h-1.128V-1.75h.909Q-32.594-1.75-32.594-5.038Zm4.272-4.956h3.11a5.994,5.994,0,0,1,3.086.6,2.106,2.106,0,0,1,.96,1.924A2.425,2.425,0,0,1-21.584-6,1.679,1.679,0,0,1-22.7-5.3v.068a2.2,2.2,0,0,1,1.371.793,2.58,2.58,0,0,1,.42,1.545A2.546,2.546,0,0,1-21.9-.766,4.272,4.272,0,0,1-24.582,0h-3.739ZM-26.2-6.036h1.23A2.25,2.25,0,0,0-23.724-6.3a.994.994,0,0,0,.386-.882.882.882,0,0,0-.42-.824,2.7,2.7,0,0,0-1.33-.25H-26.2Zm0,1.682v2.6h1.381a2.048,2.048,0,0,0,1.292-.335,1.236,1.236,0,0,0,.417-1.025q0-1.244-1.777-1.244ZM-9.379-2.775a2.583,2.583,0,0,1-.974,2.133,4.232,4.232,0,0,1-2.71.779,6.366,6.366,0,0,1-2.83-.6V-2.434a11.663,11.663,0,0,0,1.712.636,5.067,5.067,0,0,0,1.282.185,1.822,1.822,0,0,0,1.07-.267.912.912,0,0,0,.373-.793.875.875,0,0,0-.164-.523,1.836,1.836,0,0,0-.482-.441,12.4,12.4,0,0,0-1.3-.677,6.14,6.14,0,0,1-1.374-.827,3.105,3.105,0,0,1-.731-.923,2.634,2.634,0,0,1-.273-1.23,2.583,2.583,0,0,1,.9-2.085,3.735,3.735,0,0,1,2.485-.759,5.868,5.868,0,0,1,1.487.185,10.22,10.22,0,0,1,1.48.52l-.684,1.647a10,10,0,0,0-1.323-.458,4.258,4.258,0,0,0-1.029-.13,1.362,1.362,0,0,0-.923.28.925.925,0,0,0-.321.731.905.905,0,0,0,.13.489,1.428,1.428,0,0,0,.414.4,12.788,12.788,0,0,0,1.343.7A5.345,5.345,0,0,1-9.9-4.426,2.622,2.622,0,0,1-9.379-2.775ZM-4.566-6.3a1.322,1.322,0,0,0-1.039.42,1.946,1.946,0,0,0-.431,1.193H-3.11a1.738,1.738,0,0,0-.4-1.193A1.366,1.366,0,0,0-4.566-6.3ZM-4.272.137A3.945,3.945,0,0,1-7.157-.882,3.857,3.857,0,0,1-8.2-3.767a4.242,4.242,0,0,1,.96-2.97A3.42,3.42,0,0,1-4.58-7.786a3.366,3.366,0,0,1,2.522.923,3.491,3.491,0,0,1,.9,2.55V-3.3H-6.084a2.007,2.007,0,0,0,.526,1.388,1.852,1.852,0,0,0,1.381.5,5.732,5.732,0,0,0,1.306-.144,6.533,6.533,0,0,0,1.285-.458V-.4A4.9,4.9,0,0,1-2.755,0,7.37,7.37,0,0,1-4.272.137ZM3.76-1.524a4.52,4.52,0,0,0,1.313-.239V-.212A4.68,4.68,0,0,1,3.158.137,2.343,2.343,0,0,1,1.336-.5a2.752,2.752,0,0,1-.571-1.9V-6.077h-1v-.882l1.148-.7.6-1.613H2.851v1.627H4.99v1.565H2.851v3.685a.814.814,0,0,0,.25.656A.984.984,0,0,0,3.76-1.524Zm6.077,0a4.52,4.52,0,0,0,1.313-.239V-.212A4.68,4.68,0,0,1,9.235.137,2.343,2.343,0,0,1,7.414-.5a2.752,2.752,0,0,1-.571-1.9V-6.077h-1v-.882l1.148-.7.6-1.613H8.928v1.627h2.14v1.565H8.928v3.685a.814.814,0,0,0,.25.656A.984.984,0,0,0,9.837-1.524Zm2.769-8.094q0-1.019,1.135-1.019t1.135,1.019a.993.993,0,0,1-.284.755,1.192,1.192,0,0,1-.851.27Q12.605-8.593,12.605-9.618ZM14.779,0H12.694V-7.643h2.085Zm9.242,0H21.937V-4.464A2.144,2.144,0,0,0,21.643-5.7a1.069,1.069,0,0,0-.937-.414,1.408,1.408,0,0,0-1.265.584,3.625,3.625,0,0,0-.39,1.938V0H16.967V-7.643H18.56l.28.978h.116a2.2,2.2,0,0,1,.96-.837,3.271,3.271,0,0,1,1.391-.284,2.673,2.673,0,0,1,2.023.721,2.894,2.894,0,0,1,.69,2.082Zm8.8-7.643v1.06l-1.2.308a2.085,2.085,0,0,1,.328,1.148,2.319,2.319,0,0,1-.858,1.917,3.716,3.716,0,0,1-2.382.687l-.376-.021-.308-.034a.693.693,0,0,0-.321.547q0,.451,1.148.451h1.3a2.963,2.963,0,0,1,1.917.54A1.93,1.93,0,0,1,32.73.547a2.352,2.352,0,0,1-1.118,2.078,5.821,5.821,0,0,1-3.209.738,4.443,4.443,0,0,1-2.444-.557,1.769,1.769,0,0,1-.844-1.562A1.635,1.635,0,0,1,25.546.089a2.445,2.445,0,0,1,1.265-.663,1.4,1.4,0,0,1-.561-.448,1.064,1.064,0,0,1-.239-.66,1.069,1.069,0,0,1,.253-.728A2.924,2.924,0,0,1,27-2.98a2.051,2.051,0,0,1-.954-.834,2.538,2.538,0,0,1-.352-1.354A2.387,2.387,0,0,1,26.5-7.1a3.518,3.518,0,0,1,2.324-.684,5.949,5.949,0,0,1,.762.058q.441.058.564.085ZM26.92,1.08a.756.756,0,0,0,.414.677A2.276,2.276,0,0,0,28.492,2,4.1,4.1,0,0,0,30.249,1.7a.938.938,0,0,0,.636-.841A.6.6,0,0,0,30.509.26,3.079,3.079,0,0,0,29.347.1h-1.08a1.636,1.636,0,0,0-.96.27A.833.833,0,0,0,26.92,1.08Zm.759-6.221a1.556,1.556,0,0,0,.284.984,1.03,1.03,0,0,0,.865.362,1.009,1.009,0,0,0,.861-.362,1.6,1.6,0,0,0,.273-.984q0-1.381-1.135-1.381T27.679-5.141ZM39.409-2.27a2.1,2.1,0,0,1-.817,1.791,4.036,4.036,0,0,1-2.444.615A7.676,7.676,0,0,1,34.727.024a5.378,5.378,0,0,1-1.1-.332V-2.03a7.268,7.268,0,0,0,1.309.458,5.3,5.3,0,0,0,1.282.185q1.135,0,1.135-.656a.548.548,0,0,0-.15-.4,2.18,2.18,0,0,0-.52-.349q-.369-.195-.984-.455a6.184,6.184,0,0,1-1.3-.684,1.924,1.924,0,0,1-.6-.721,2.381,2.381,0,0,1-.188-1,1.815,1.815,0,0,1,.79-1.576,3.846,3.846,0,0,1,2.239-.557,6.355,6.355,0,0,1,2.687.6l-.629,1.5q-.574-.246-1.073-.4a3.37,3.37,0,0,0-1.019-.157q-.923,0-.923.5a.587.587,0,0,0,.3.485,8.087,8.087,0,0,0,1.3.608,6.05,6.05,0,0,1,1.313.677,2,2,0,0,1,.615.725A2.227,2.227,0,0,1,39.409-2.27Z" transform="translate(489 449)" fill="#5b7183"/><path d="M24.6,63.932h0a71.439,71.439,0,0,1-16.3-2.276C2.945,60.145,0,58.136,0,56V44c0,2.135,2.948,4.143,8.293,5.653A76.964,76.964,0,0,0,28.314,52c1.07,0,2.149-.017,3.208-.051L24.6,63.931ZM28.314,48A76.911,76.911,0,0,1,8.293,45.657C2.945,44.146,0,42.137,0,40V28c0,2.135,2.948,4.143,8.293,5.653A76.955,76.955,0,0,0,28.314,36a90.394,90.394,0,0,0,12.932-.879L33.893,47.846C32.066,47.948,30.19,48,28.314,48Zm27.439-6.013h0l-5.216-9.026a15.584,15.584,0,0,0,4.526-2.324A3.519,3.519,0,0,0,56.628,28V40a2.981,2.981,0,0,1-.874,1.986ZM28.314,32A76.945,76.945,0,0,1,8.293,29.657C2.945,28.146,0,26.137,0,24V12c0,2.136,2.948,4.143,8.293,5.654A76.965,76.965,0,0,0,28.314,20a76.965,76.965,0,0,0,20.021-2.343c5.348-1.511,8.293-3.52,8.293-5.657V24c0,2.1-2.856,4.083-8.041,5.584l-.32-.554a2.022,2.022,0,0,0-3.5,0L43.8,30.7A86.83,86.83,0,0,1,28.314,32ZM14.157,22a2,2,0,1,0,2.022,2A2.014,2.014,0,0,0,14.157,22Zm-8.09-2A2,2,0,1,0,8.09,22,2.013,2.013,0,0,0,6.067,20Zm22.247-4A76.927,76.927,0,0,1,8.293,13.657C2.945,12.146,0,10.137,0,8S2.945,3.854,8.293,2.343A76.927,76.927,0,0,1,28.314,0,76.927,76.927,0,0,1,48.335,2.343C53.683,3.854,56.628,5.863,56.628,8s-2.945,4.146-8.293,5.657A76.927,76.927,0,0,1,28.314,16Z" transform="translate(561 362)" fill="#5b7183"/><path d="M33.938,30.966H1.012a1.011,1.011,0,0,1-.879-1.511L16.6.511a1.012,1.012,0,0,1,1.759,0L34.817,29.455a1.011,1.011,0,0,1-.878,1.511Zm-16.486-8a2,2,0,1,0,0,4H17.5a2,2,0,1,0,0-4Zm.022-12a2.025,2.025,0,0,0-2.022,2.022v3.955a2.022,2.022,0,0,0,4.045,0V12.989A2.025,2.025,0,0,0,17.474,10.967Z" transform="translate(590 395)" fill="#19557f"/><path d="M-24.394-5.093a4.922,4.922,0,0,1-1.4,3.78A5.729,5.729,0,0,1-29.856,0h-2.83V-9.994h3.138a5.284,5.284,0,0,1,3.8,1.292A4.752,4.752,0,0,1-24.394-5.093Zm-2.2.055q0-3.22-2.844-3.22h-1.128V-1.75h.909Q-26.6-1.75-26.6-5.038Zm4.272-4.956h3.11a5.994,5.994,0,0,1,3.086.6,2.106,2.106,0,0,1,.96,1.924A2.425,2.425,0,0,1-15.586-6,1.679,1.679,0,0,1-16.7-5.3v.068a2.2,2.2,0,0,1,1.371.793,2.58,2.58,0,0,1,.42,1.545A2.546,2.546,0,0,1-15.9-.766,4.272,4.272,0,0,1-18.583,0h-3.739ZM-20.2-6.036h1.23A2.25,2.25,0,0,0-17.726-6.3a.994.994,0,0,0,.386-.882.882.882,0,0,0-.42-.824,2.7,2.7,0,0,0-1.33-.25H-20.2Zm0,1.682v2.6h1.381a2.048,2.048,0,0,0,1.292-.335,1.236,1.236,0,0,0,.417-1.025q0-1.244-1.777-1.244ZM-3.38-2.775A2.583,2.583,0,0,1-4.354-.643a4.232,4.232,0,0,1-2.71.779,6.366,6.366,0,0,1-2.83-.6V-2.434A11.663,11.663,0,0,0-8.183-1.8,5.067,5.067,0,0,0-6.9-1.613a1.822,1.822,0,0,0,1.07-.267.912.912,0,0,0,.373-.793A.875.875,0,0,0-5.623-3.2,1.836,1.836,0,0,0-6.1-3.637a12.4,12.4,0,0,0-1.3-.677,6.14,6.14,0,0,1-1.374-.827,3.105,3.105,0,0,1-.731-.923,2.634,2.634,0,0,1-.273-1.23,2.583,2.583,0,0,1,.9-2.085A3.735,3.735,0,0,1-6.4-10.138a5.868,5.868,0,0,1,1.487.185,10.22,10.22,0,0,1,1.48.52l-.684,1.647a10,10,0,0,0-1.323-.458,4.258,4.258,0,0,0-1.029-.13,1.362,1.362,0,0,0-.923.28.925.925,0,0,0-.321.731.905.905,0,0,0,.13.489,1.428,1.428,0,0,0,.414.4,12.787,12.787,0,0,0,1.343.7A5.345,5.345,0,0,1-3.9-4.426,2.622,2.622,0,0,1-3.38-2.775ZM1.487-1.524A4.52,4.52,0,0,0,2.8-1.764V-.212A4.68,4.68,0,0,1,.885.137,2.343,2.343,0,0,1-.937-.5a2.752,2.752,0,0,1-.571-1.9V-6.077h-1v-.882l1.148-.7.6-1.613H.578v1.627h2.14v1.565H.578v3.685a.814.814,0,0,0,.25.656A.984.984,0,0,0,1.487-1.524ZM9.2,0l-.4-1.039H8.74A3.079,3.079,0,0,1,7.656-.12,3.5,3.5,0,0,1,6.2.137,2.349,2.349,0,0,1,4.471-.492a2.415,2.415,0,0,1-.632-1.791,2.017,2.017,0,0,1,.851-1.794,4.932,4.932,0,0,1,2.567-.639l1.326-.041v-.335A1.039,1.039,0,0,0,7.393-6.255,5.42,5.42,0,0,0,5.24-5.7l-.69-1.408A6.213,6.213,0,0,1,7.475-7.8a3.644,3.644,0,0,1,2.358.67,2.476,2.476,0,0,1,.82,2.037V0ZM8.583-3.541l-.807.027a2.583,2.583,0,0,0-1.354.328,1.031,1.031,0,0,0-.444.916q0,.882,1.012.882A1.6,1.6,0,0,0,8.148-1.8a1.465,1.465,0,0,0,.434-1.107ZM16.02-1.524a4.52,4.52,0,0,0,1.313-.239V-.212a4.68,4.68,0,0,1-1.914.349A2.343,2.343,0,0,1,13.6-.5a2.752,2.752,0,0,1-.571-1.9V-6.077h-1v-.882l1.148-.7.6-1.613h1.333v1.627h2.14v1.565h-2.14v3.685a.814.814,0,0,0,.25.656A.984.984,0,0,0,16.02-1.524ZM24.292,0l-.28-.978H23.9a2.2,2.2,0,0,1-.95.824,3.244,3.244,0,0,1-1.4.291,2.669,2.669,0,0,1-2.03-.721,2.9,2.9,0,0,1-.684-2.075V-7.643h2.085v4.464a2.144,2.144,0,0,0,.294,1.241,1.069,1.069,0,0,0,.937.414,1.408,1.408,0,0,0,1.265-.584,3.625,3.625,0,0,0,.39-1.938v-3.6h2.085V0Zm9.119-2.27a2.1,2.1,0,0,1-.817,1.791A4.036,4.036,0,0,1,30.15.137,7.676,7.676,0,0,1,28.728.024a5.378,5.378,0,0,1-1.1-.332V-2.03a7.268,7.268,0,0,0,1.309.458,5.3,5.3,0,0,0,1.282.185q1.135,0,1.135-.656a.548.548,0,0,0-.15-.4,2.18,2.18,0,0,0-.52-.349q-.369-.195-.984-.455a6.184,6.184,0,0,1-1.3-.684,1.924,1.924,0,0,1-.6-.721,2.381,2.381,0,0,1-.188-1,1.815,1.815,0,0,1,.79-1.576,3.846,3.846,0,0,1,2.239-.557,6.355,6.355,0,0,1,2.687.6l-.629,1.5q-.574-.246-1.073-.4a3.37,3.37,0,0,0-1.019-.157q-.923,0-.923.5a.587.587,0,0,0,.3.485,8.087,8.087,0,0,0,1.3.608,6.05,6.05,0,0,1,1.313.677,2,2,0,0,1,.615.725A2.227,2.227,0,0,1,33.411-2.27Z" transform="translate(593 449)" fill="#5b7183"/><path d="M26.667,64A2.666,2.666,0,0,1,24,61.333V40H2.667A2.667,2.667,0,0,1,0,37.333V26.667A2.667,2.667,0,0,1,2.667,24H24V2.667A2.667,2.667,0,0,1,26.667,0H37.333A2.667,2.667,0,0,1,40,2.667V24H61.333A2.666,2.666,0,0,1,64,26.667V37.333A2.666,2.666,0,0,1,61.333,40H40V61.333A2.666,2.666,0,0,1,37.333,64Z" transform="translate(740 362)" fill="#5b7183"/><path d="M-18.016,0l-.725-2.379h-3.644L-23.109,0h-2.283l3.527-10.035h2.591L-15.733,0Zm-1.23-4.156q-1-3.233-1.131-3.657t-.181-.67q-.226.875-1.292,4.327ZM-12.219.137A2.482,2.482,0,0,1-14.335-.909a4.808,4.808,0,0,1-.769-2.9,4.813,4.813,0,0,1,.783-2.929,2.542,2.542,0,0,1,2.157-1.049,2.493,2.493,0,0,1,2.2,1.121H-9.9a8.524,8.524,0,0,1-.157-1.524v-2.447H-7.96V0h-1.6l-.4-.991h-.089A2.386,2.386,0,0,1-12.219.137Zm.731-1.661a1.413,1.413,0,0,0,1.172-.465,2.7,2.7,0,0,0,.407-1.579v-.226a3.125,3.125,0,0,0-.379-1.764,1.409,1.409,0,0,0-1.234-.533,1.224,1.224,0,0,0-1.083.591,3.155,3.155,0,0,0-.386,1.719,2.99,2.99,0,0,0,.39,1.692A1.273,1.273,0,0,0-11.488-1.524ZM-3.36.137A2.482,2.482,0,0,1-5.476-.909a4.808,4.808,0,0,1-.769-2.9,4.813,4.813,0,0,1,.783-2.929A2.542,2.542,0,0,1-3.305-7.786,2.493,2.493,0,0,1-1.1-6.665h.068a8.524,8.524,0,0,1-.157-1.524v-2.447H.9V0H-.7l-.4-.991h-.089A2.386,2.386,0,0,1-3.36.137Zm.731-1.661a1.413,1.413,0,0,0,1.172-.465,2.7,2.7,0,0,0,.407-1.579v-.226a3.125,3.125,0,0,0-.379-1.764,1.409,1.409,0,0,0-1.234-.533A1.224,1.224,0,0,0-3.746-5.5,3.155,3.155,0,0,0-4.132-3.78a2.99,2.99,0,0,0,.39,1.692A1.273,1.273,0,0,0-2.628-1.524Zm17.8-3.568a4.922,4.922,0,0,1-1.4,3.78A5.729,5.729,0,0,1,9.71,0H6.88V-9.994h3.138a5.284,5.284,0,0,1,3.8,1.292A4.752,4.752,0,0,1,15.172-5.093Zm-2.2.055q0-3.22-2.844-3.22H9V-1.75h.909Q12.971-1.75,12.971-5.038Zm4.272-4.956h3.11a5.994,5.994,0,0,1,3.086.6,2.106,2.106,0,0,1,.96,1.924A2.425,2.425,0,0,1,23.98-6a1.679,1.679,0,0,1-1.118.69v.068a2.2,2.2,0,0,1,1.371.793,2.58,2.58,0,0,1,.42,1.545,2.546,2.546,0,0,1-.988,2.133A4.272,4.272,0,0,1,20.983,0H17.244Zm2.119,3.958h1.23A2.25,2.25,0,0,0,21.841-6.3a.994.994,0,0,0,.386-.882.882.882,0,0,0-.42-.824,2.7,2.7,0,0,0-1.33-.25H19.363Zm0,1.682v2.6h1.381a2.048,2.048,0,0,0,1.292-.335,1.236,1.236,0,0,0,.417-1.025q0-1.244-1.777-1.244Z" transform="translate(772.5 449)" fill="#5b7183"/><path d="M35.715,64H28.286A2.289,2.289,0,0,1,26,61.714v-6.47a23.864,23.864,0,0,1-6.192-2.567l-4.576,4.576a2.286,2.286,0,0,1-3.233,0L6.746,52a2.289,2.289,0,0,1,0-3.233l4.577-4.576A23.864,23.864,0,0,1,8.756,38H2.286A2.288,2.288,0,0,1,0,35.715V28.286A2.289,2.289,0,0,1,2.286,26h6.47a23.864,23.864,0,0,1,2.567-6.192L6.746,15.232a2.289,2.289,0,0,1,0-3.233L12,6.746a2.286,2.286,0,0,1,3.233,0l4.576,4.577A23.864,23.864,0,0,1,26,8.756V2.286A2.289,2.289,0,0,1,28.286,0h7.429A2.288,2.288,0,0,1,38,2.286v6.47a23.864,23.864,0,0,1,6.192,2.567l4.576-4.577a2.286,2.286,0,0,1,3.233,0L57.254,12a2.289,2.289,0,0,1,0,3.233l-4.576,4.576A23.864,23.864,0,0,1,55.244,26h6.47A2.289,2.289,0,0,1,64,28.286v7.429A2.288,2.288,0,0,1,61.714,38h-6.47a23.864,23.864,0,0,1-2.567,6.192l4.576,4.576a2.289,2.289,0,0,1,0,3.233L52,57.254a2.286,2.286,0,0,1-3.233,0l-4.576-4.576A23.864,23.864,0,0,1,38,55.244v6.47A2.288,2.288,0,0,1,35.715,64ZM32,24a8,8,0,1,0,8,8A8.009,8.009,0,0,0,32,24Z" transform="translate(844 362)" fill="#5b7183"/><path d="M-30.393-5.093a4.922,4.922,0,0,1-1.4,3.78A5.729,5.729,0,0,1-35.854,0h-2.83V-9.994h3.138a5.284,5.284,0,0,1,3.8,1.292A4.752,4.752,0,0,1-30.393-5.093Zm-2.2.055q0-3.22-2.844-3.22h-1.128V-1.75h.909Q-32.594-1.75-32.594-5.038Zm4.272-4.956h3.11a5.994,5.994,0,0,1,3.086.6,2.106,2.106,0,0,1,.96,1.924A2.425,2.425,0,0,1-21.584-6,1.679,1.679,0,0,1-22.7-5.3v.068a2.2,2.2,0,0,1,1.371.793,2.58,2.58,0,0,1,.42,1.545A2.546,2.546,0,0,1-21.9-.766,4.272,4.272,0,0,1-24.582,0h-3.739ZM-26.2-6.036h1.23A2.25,2.25,0,0,0-23.724-6.3a.994.994,0,0,0,.386-.882.882.882,0,0,0-.42-.824,2.7,2.7,0,0,0-1.33-.25H-26.2Zm0,1.682v2.6h1.381a2.048,2.048,0,0,0,1.292-.335,1.236,1.236,0,0,0,.417-1.025q0-1.244-1.777-1.244ZM-9.379-2.775a2.583,2.583,0,0,1-.974,2.133,4.232,4.232,0,0,1-2.71.779,6.366,6.366,0,0,1-2.83-.6V-2.434a11.663,11.663,0,0,0,1.712.636,5.067,5.067,0,0,0,1.282.185,1.822,1.822,0,0,0,1.07-.267.912.912,0,0,0,.373-.793.875.875,0,0,0-.164-.523,1.836,1.836,0,0,0-.482-.441,12.4,12.4,0,0,0-1.3-.677,6.14,6.14,0,0,1-1.374-.827,3.105,3.105,0,0,1-.731-.923,2.634,2.634,0,0,1-.273-1.23,2.583,2.583,0,0,1,.9-2.085,3.735,3.735,0,0,1,2.485-.759,5.868,5.868,0,0,1,1.487.185,10.22,10.22,0,0,1,1.48.52l-.684,1.647a10,10,0,0,0-1.323-.458,4.258,4.258,0,0,0-1.029-.13,1.362,1.362,0,0,0-.923.28.925.925,0,0,0-.321.731.905.905,0,0,0,.13.489,1.428,1.428,0,0,0,.414.4,12.788,12.788,0,0,0,1.343.7A5.345,5.345,0,0,1-9.9-4.426,2.622,2.622,0,0,1-9.379-2.775ZM-4.566-6.3a1.322,1.322,0,0,0-1.039.42,1.946,1.946,0,0,0-.431,1.193H-3.11a1.738,1.738,0,0,0-.4-1.193A1.366,1.366,0,0,0-4.566-6.3ZM-4.272.137A3.945,3.945,0,0,1-7.157-.882,3.857,3.857,0,0,1-8.2-3.767a4.242,4.242,0,0,1,.96-2.97A3.42,3.42,0,0,1-4.58-7.786a3.366,3.366,0,0,1,2.522.923,3.491,3.491,0,0,1,.9,2.55V-3.3H-6.084a2.007,2.007,0,0,0,.526,1.388,1.852,1.852,0,0,0,1.381.5,5.732,5.732,0,0,0,1.306-.144,6.533,6.533,0,0,0,1.285-.458V-.4A4.9,4.9,0,0,1-2.755,0,7.37,7.37,0,0,1-4.272.137ZM3.76-1.524a4.52,4.52,0,0,0,1.313-.239V-.212A4.68,4.68,0,0,1,3.158.137,2.343,2.343,0,0,1,1.336-.5a2.752,2.752,0,0,1-.571-1.9V-6.077h-1v-.882l1.148-.7.6-1.613H2.851v1.627H4.99v1.565H2.851v3.685a.814.814,0,0,0,.25.656A.984.984,0,0,0,3.76-1.524Zm6.077,0a4.52,4.52,0,0,0,1.313-.239V-.212A4.68,4.68,0,0,1,9.235.137,2.343,2.343,0,0,1,7.414-.5a2.752,2.752,0,0,1-.571-1.9V-6.077h-1v-.882l1.148-.7.6-1.613H8.928v1.627h2.14v1.565H8.928v3.685a.814.814,0,0,0,.25.656A.984.984,0,0,0,9.837-1.524Zm2.769-8.094q0-1.019,1.135-1.019t1.135,1.019a.993.993,0,0,1-.284.755,1.192,1.192,0,0,1-.851.27Q12.605-8.593,12.605-9.618ZM14.779,0H12.694V-7.643h2.085Zm9.242,0H21.937V-4.464A2.144,2.144,0,0,0,21.643-5.7a1.069,1.069,0,0,0-.937-.414,1.408,1.408,0,0,0-1.265.584,3.625,3.625,0,0,0-.39,1.938V0H16.967V-7.643H18.56l.28.978h.116a2.2,2.2,0,0,1,.96-.837,3.271,3.271,0,0,1,1.391-.284,2.673,2.673,0,0,1,2.023.721,2.894,2.894,0,0,1,.69,2.082Zm8.8-7.643v1.06l-1.2.308a2.085,2.085,0,0,1,.328,1.148,2.319,2.319,0,0,1-.858,1.917,3.716,3.716,0,0,1-2.382.687l-.376-.021-.308-.034a.693.693,0,0,0-.321.547q0,.451,1.148.451h1.3a2.963,2.963,0,0,1,1.917.54A1.93,1.93,0,0,1,32.73.547a2.352,2.352,0,0,1-1.118,2.078,5.821,5.821,0,0,1-3.209.738,4.443,4.443,0,0,1-2.444-.557,1.769,1.769,0,0,1-.844-1.562A1.635,1.635,0,0,1,25.546.089a2.445,2.445,0,0,1,1.265-.663,1.4,1.4,0,0,1-.561-.448,1.064,1.064,0,0,1-.239-.66,1.069,1.069,0,0,1,.253-.728A2.924,2.924,0,0,1,27-2.98a2.051,2.051,0,0,1-.954-.834,2.538,2.538,0,0,1-.352-1.354A2.387,2.387,0,0,1,26.5-7.1a3.518,3.518,0,0,1,2.324-.684,5.949,5.949,0,0,1,.762.058q.441.058.564.085ZM26.92,1.08a.756.756,0,0,0,.414.677A2.276,2.276,0,0,0,28.492,2,4.1,4.1,0,0,0,30.249,1.7a.938.938,0,0,0,.636-.841A.6.6,0,0,0,30.509.26,3.079,3.079,0,0,0,29.347.1h-1.08a1.636,1.636,0,0,0-.96.27A.833.833,0,0,0,26.92,1.08Zm.759-6.221a1.556,1.556,0,0,0,.284.984,1.03,1.03,0,0,0,.865.362,1.009,1.009,0,0,0,.861-.362,1.6,1.6,0,0,0,.273-.984q0-1.381-1.135-1.381T27.679-5.141ZM39.409-2.27a2.1,2.1,0,0,1-.817,1.791,4.036,4.036,0,0,1-2.444.615A7.676,7.676,0,0,1,34.727.024a5.378,5.378,0,0,1-1.1-.332V-2.03a7.268,7.268,0,0,0,1.309.458,5.3,5.3,0,0,0,1.282.185q1.135,0,1.135-.656a.548.548,0,0,0-.15-.4,2.18,2.18,0,0,0-.52-.349q-.369-.195-.984-.455a6.184,6.184,0,0,1-1.3-.684,1.924,1.924,0,0,1-.6-.721,2.381,2.381,0,0,1-.188-1,1.815,1.815,0,0,1,.79-1.576,3.846,3.846,0,0,1,2.239-.557,6.355,6.355,0,0,1,2.687.6l-.629,1.5q-.574-.246-1.073-.4a3.37,3.37,0,0,0-1.019-.157q-.923,0-.923.5a.587.587,0,0,0,.3.485,8.087,8.087,0,0,0,1.3.608,6.05,6.05,0,0,1,1.313.677,2,2,0,0,1,.615.725A2.227,2.227,0,0,1,39.409-2.27Z" transform="translate(876 449)" fill="#5b7183"/><path d="M59.261,60.032H4.643A4.643,4.643,0,0,1,.554,53.188L27.864,2.444a4.643,4.643,0,0,1,8.176,0L63.35,53.188a4.643,4.643,0,0,1-4.089,6.844ZM31.9,43.736a4.074,4.074,0,1,0,0,8.148H32a4.074,4.074,0,1,0,0-8.148Zm.053-24.445a4.132,4.132,0,0,0-4.127,4.127V35.534a4.127,4.127,0,1,0,8.254,0V23.418A4.132,4.132,0,0,0,31.953,19.291Z" transform="translate(948 362)" fill="#5b7183"/><path d="M-24.394-5.093a4.922,4.922,0,0,1-1.4,3.78A5.729,5.729,0,0,1-29.856,0h-2.83V-9.994h3.138a5.284,5.284,0,0,1,3.8,1.292A4.752,4.752,0,0,1-24.394-5.093Zm-2.2.055q0-3.22-2.844-3.22h-1.128V-1.75h.909Q-26.6-1.75-26.6-5.038Zm4.272-4.956h3.11a5.994,5.994,0,0,1,3.086.6,2.106,2.106,0,0,1,.96,1.924A2.425,2.425,0,0,1-15.586-6,1.679,1.679,0,0,1-16.7-5.3v.068a2.2,2.2,0,0,1,1.371.793,2.58,2.58,0,0,1,.42,1.545A2.546,2.546,0,0,1-15.9-.766,4.272,4.272,0,0,1-18.583,0h-3.739ZM-20.2-6.036h1.23A2.25,2.25,0,0,0-17.726-6.3a.994.994,0,0,0,.386-.882.882.882,0,0,0-.42-.824,2.7,2.7,0,0,0-1.33-.25H-20.2Zm0,1.682v2.6h1.381a2.048,2.048,0,0,0,1.292-.335,1.236,1.236,0,0,0,.417-1.025q0-1.244-1.777-1.244ZM-3.38-2.775A2.583,2.583,0,0,1-4.354-.643a4.232,4.232,0,0,1-2.71.779,6.366,6.366,0,0,1-2.83-.6V-2.434A11.663,11.663,0,0,0-8.183-1.8,5.067,5.067,0,0,0-6.9-1.613a1.822,1.822,0,0,0,1.07-.267.912.912,0,0,0,.373-.793A.875.875,0,0,0-5.623-3.2,1.836,1.836,0,0,0-6.1-3.637a12.4,12.4,0,0,0-1.3-.677,6.14,6.14,0,0,1-1.374-.827,3.105,3.105,0,0,1-.731-.923,2.634,2.634,0,0,1-.273-1.23,2.583,2.583,0,0,1,.9-2.085A3.735,3.735,0,0,1-6.4-10.138a5.868,5.868,0,0,1,1.487.185,10.22,10.22,0,0,1,1.48.52l-.684,1.647a10,10,0,0,0-1.323-.458,4.258,4.258,0,0,0-1.029-.13,1.362,1.362,0,0,0-.923.28.925.925,0,0,0-.321.731.905.905,0,0,0,.13.489,1.428,1.428,0,0,0,.414.4,12.787,12.787,0,0,0,1.343.7A5.345,5.345,0,0,1-3.9-4.426,2.622,2.622,0,0,1-3.38-2.775ZM1.487-1.524A4.52,4.52,0,0,0,2.8-1.764V-.212A4.68,4.68,0,0,1,.885.137,2.343,2.343,0,0,1-.937-.5a2.752,2.752,0,0,1-.571-1.9V-6.077h-1v-.882l1.148-.7.6-1.613H.578v1.627h2.14v1.565H.578v3.685a.814.814,0,0,0,.25.656A.984.984,0,0,0,1.487-1.524ZM9.2,0l-.4-1.039H8.74A3.079,3.079,0,0,1,7.656-.12,3.5,3.5,0,0,1,6.2.137,2.349,2.349,0,0,1,4.471-.492a2.415,2.415,0,0,1-.632-1.791,2.017,2.017,0,0,1,.851-1.794,4.932,4.932,0,0,1,2.567-.639l1.326-.041v-.335A1.039,1.039,0,0,0,7.393-6.255,5.42,5.42,0,0,0,5.24-5.7l-.69-1.408A6.213,6.213,0,0,1,7.475-7.8a3.644,3.644,0,0,1,2.358.67,2.476,2.476,0,0,1,.82,2.037V0ZM8.583-3.541l-.807.027a2.583,2.583,0,0,0-1.354.328,1.031,1.031,0,0,0-.444.916q0,.882,1.012.882A1.6,1.6,0,0,0,8.148-1.8a1.465,1.465,0,0,0,.434-1.107ZM16.02-1.524a4.52,4.52,0,0,0,1.313-.239V-.212a4.68,4.68,0,0,1-1.914.349A2.343,2.343,0,0,1,13.6-.5a2.752,2.752,0,0,1-.571-1.9V-6.077h-1v-.882l1.148-.7.6-1.613h1.333v1.627h2.14v1.565h-2.14v3.685a.814.814,0,0,0,.25.656A.984.984,0,0,0,16.02-1.524ZM24.292,0l-.28-.978H23.9a2.2,2.2,0,0,1-.95.824,3.244,3.244,0,0,1-1.4.291,2.669,2.669,0,0,1-2.03-.721,2.9,2.9,0,0,1-.684-2.075V-7.643h2.085v4.464a2.144,2.144,0,0,0,.294,1.241,1.069,1.069,0,0,0,.937.414,1.408,1.408,0,0,0,1.265-.584,3.625,3.625,0,0,0,.39-1.938v-3.6h2.085V0Zm9.119-2.27a2.1,2.1,0,0,1-.817,1.791A4.036,4.036,0,0,1,30.15.137,7.676,7.676,0,0,1,28.728.024a5.378,5.378,0,0,1-1.1-.332V-2.03a7.268,7.268,0,0,0,1.309.458,5.3,5.3,0,0,0,1.282.185q1.135,0,1.135-.656a.548.548,0,0,0-.15-.4,2.18,2.18,0,0,0-.52-.349q-.369-.195-.984-.455a6.184,6.184,0,0,1-1.3-.684,1.924,1.924,0,0,1-.6-.721,2.381,2.381,0,0,1-.188-1,1.815,1.815,0,0,1,.79-1.576,3.846,3.846,0,0,1,2.239-.557,6.355,6.355,0,0,1,2.687.6l-.629,1.5q-.574-.246-1.073-.4a3.37,3.37,0,0,0-1.019-.157q-.923,0-.923.5a.587.587,0,0,0,.3.485,8.087,8.087,0,0,0,1.3.608,6.05,6.05,0,0,1,1.313.677,2,2,0,0,1,.615.725A2.227,2.227,0,0,1,33.411-2.27Z" transform="translate(980 448)" fill="#5b7183"/></g></g></svg>