<svg xmlns="http://www.w3.org/2000/svg" width="775" height="322" viewBox="0 0 775 322"><g transform="translate(-441 -489)"><rect width="775" height="322" rx="8" transform="translate(441 489)" fill="#e7edf2"/><g transform="translate(145 266)"><g transform="translate(419 357)"><path d="M0,38.621H9.578a3.861,3.861,0,0,0,3.862-3.862V14.937L10.148,2.153A2.89,2.89,0,0,0,7.357,0H4.75" transform="translate(42.56 12.552)" fill="none" stroke="#5b7183" stroke-linecap="round" stroke-linejoin="round" stroke-miterlimit="10" stroke-width="1.931"/><path d="M8.69,0H6.083a2.89,2.89,0,0,0-2.79,2.153L0,14.937V34.759a3.861,3.861,0,0,0,3.862,3.862H13.44" transform="translate(0 12.552)" fill="none" stroke="#5b7183" stroke-linecap="round" stroke-linejoin="round" stroke-miterlimit="10" stroke-width="1.931"/><path d="M0,3.862A3.862,3.862,0,0,1,3.862,0H52.138A3.862,3.862,0,0,1,56,3.862" transform="translate(0 24.138)" fill="none" stroke="#5b7183" stroke-linecap="round" stroke-linejoin="round" stroke-miterlimit="10" stroke-width="1.931"/><path d="M31.939,11.586h2.819V1.931A1.937,1.937,0,0,0,32.828,0H1.931A1.937,1.937,0,0,0,0,1.931v9.655H2.819" transform="translate(10.621 39.586)" fill="none" stroke="#5b7183" stroke-linecap="round" stroke-linejoin="round" stroke-miterlimit="10" stroke-width="1.931"/><path d="M0,0H34.759" transform="translate(10.621 43.448)" fill="none" stroke="#5b7183" stroke-linecap="round" stroke-linejoin="round" stroke-miterlimit="10" stroke-width="1.931"/><path d="M29.913,12.552H.98a.969.969,0,0,1-.956-1.183L2.69,0H28.2l2.666,11.369a.969.969,0,0,1-.956,1.183Z" transform="translate(12.554 43.448)" fill="none" stroke="#5b7183" stroke-linecap="round" stroke-linejoin="round" stroke-miterlimit="10" stroke-width="1.931"/><path d="M0,0H56" transform="translate(0 35.724)" fill="none" stroke="#5b7183" stroke-linecap="round" stroke-linejoin="round" stroke-miterlimit="10" stroke-width="1.931"/><circle cx="1.931" cy="1.931" r="1.931" transform="translate(3.862 28)" fill="none" stroke="#5b7183" stroke-linecap="round" stroke-linejoin="round" stroke-miterlimit="10" stroke-width="1.931"/><path d="M6.759,0H4.828A1.931,1.931,0,0,0,2.9,1.931V3.862H1.931A1.931,1.931,0,0,0,0,5.793v6.759H38.621V5.793A1.931,1.931,0,0,0,36.69,3.862h-.966V1.931A1.931,1.931,0,0,0,33.793,0H31.862" transform="translate(8.69 3.862)" fill="none" stroke="#5b7183" stroke-linecap="round" stroke-linejoin="round" stroke-miterlimit="10" stroke-width="1.931"/><path d="M0,0H42.483" transform="translate(6.759 16.414)" fill="none" stroke="#5b7183" stroke-linecap="round" stroke-linejoin="round" stroke-miterlimit="10" stroke-width="1.931"/><path d="M.966,0H24.138A.966.966,0,0,1,25.1.966V16.414H0V.966A.966.966,0,0,1,.966,0Z" transform="translate(15.448)" fill="none" stroke="#5b7183" stroke-linecap="round" stroke-linejoin="round" stroke-miterlimit="10" stroke-width="1.931"/><path d="M0,0H3.862" transform="translate(11.586 7.724)" fill="none" stroke="#5b7183" stroke-linecap="round" stroke-linejoin="round" stroke-miterlimit="10" stroke-width="1.931"/><path d="M0,0H3.862" transform="translate(40.552 7.724)" fill="none" stroke="#5b7183" stroke-linecap="round" stroke-linejoin="round" stroke-miterlimit="10" stroke-width="1.931"/><path d="M0,0H30.9V5.793a1.931,1.931,0,0,1-1.931,1.931H1.931A1.931,1.931,0,0,1,0,5.793Z" transform="translate(12.552 24.138)" fill="none" stroke="#5b7183" stroke-linecap="round" stroke-linejoin="round" stroke-miterlimit="10" stroke-width="1.931"/><path d="M1.931,0h9.655a1.931,1.931,0,0,1,1.931,1.931V3.862H0V1.931A1.931,1.931,0,0,1,1.931,0Z" transform="translate(21.241 28)" fill="none" stroke="#5b7183" stroke-linecap="round" stroke-linejoin="round" stroke-miterlimit="10" stroke-width="1.931"/><path d="M30.9,3.862H0l.6-2.4A1.931,1.931,0,0,1,2.473,0h25.95A1.931,1.931,0,0,1,30.3,1.463Z" transform="translate(12.552 20.276)" fill="none" stroke="#5b7183" stroke-linecap="round" stroke-linejoin="round" stroke-miterlimit="10" stroke-width="1.931"/></g><g transform="translate(531 336)"><path d="M0,66.207H16.419a6.619,6.619,0,0,0,6.621-6.621V25.606L17.4,3.691A4.953,4.953,0,0,0,12.612,0H8.143" transform="translate(72.96 21.517)" fill="none" stroke="#5b7183" stroke-linecap="round" stroke-linejoin="round" stroke-miterlimit="10" stroke-width="3.31"/><path d="M14.9,0H10.428A4.953,4.953,0,0,0,5.644,3.691L0,25.606v33.98a6.619,6.619,0,0,0,6.621,6.621H23.04" transform="translate(0 21.517)" fill="none" stroke="#5b7183" stroke-linecap="round" stroke-linejoin="round" stroke-miterlimit="10" stroke-width="3.31"/><path d="M0,6.621A6.621,6.621,0,0,1,6.621,0H89.379A6.621,6.621,0,0,1,96,6.621" transform="translate(0 41.379)" fill="none" stroke="#5b7183" stroke-linecap="round" stroke-linejoin="round" stroke-miterlimit="10" stroke-width="3.31"/><path d="M54.753,19.862h4.833V3.31A3.32,3.32,0,0,0,56.276,0H3.31A3.32,3.32,0,0,0,0,3.31V19.862H4.833" transform="translate(18.207 67.862)" fill="none" stroke="#5b7183" stroke-linecap="round" stroke-linejoin="round" stroke-miterlimit="10" stroke-width="3.31"/><path d="M0,0H59.586" transform="translate(18.207 74.483)" fill="none" stroke="#5b7183" stroke-linecap="round" stroke-linejoin="round" stroke-miterlimit="10" stroke-width="3.31"/><path d="M51.28,21.517H1.68A1.662,1.662,0,0,1,.041,19.49L4.612,0H48.348l4.571,19.49a1.662,1.662,0,0,1-1.639,2.027Z" transform="translate(21.52 74.483)" fill="none" stroke="#5b7183" stroke-linecap="round" stroke-linejoin="round" stroke-miterlimit="10" stroke-width="3.31"/><path d="M0,0H96" transform="translate(0 61.241)" fill="none" stroke="#5b7183" stroke-linecap="round" stroke-linejoin="round" stroke-miterlimit="10" stroke-width="3.31"/><circle cx="3.31" cy="3.31" r="3.31" transform="translate(6.621 48)" fill="none" stroke="#5b7183" stroke-linecap="round" stroke-linejoin="round" stroke-miterlimit="10" stroke-width="3.31"/><path d="M11.586,0H8.276a3.31,3.31,0,0,0-3.31,3.31v3.31H3.31A3.31,3.31,0,0,0,0,9.931V21.517H66.207V9.931a3.31,3.31,0,0,0-3.31-3.31H61.241V3.31A3.31,3.31,0,0,0,57.931,0h-3.31" transform="translate(14.897 6.621)" fill="none" stroke="#5b7183" stroke-linecap="round" stroke-linejoin="round" stroke-miterlimit="10" stroke-width="3.31"/><path d="M0,0H72.828" transform="translate(11.586 28.138)" fill="none" stroke="#5b7183" stroke-linecap="round" stroke-linejoin="round" stroke-miterlimit="10" stroke-width="3.31"/><path d="M1.655,0H41.379a1.655,1.655,0,0,1,1.655,1.655V28.138H0V1.655A1.655,1.655,0,0,1,1.655,0Z" transform="translate(26.483)" fill="none" stroke="#5b7183" stroke-linecap="round" stroke-linejoin="round" stroke-miterlimit="10" stroke-width="3.31"/><path d="M0,0H6.621" transform="translate(19.862 13.241)" fill="none" stroke="#5b7183" stroke-linecap="round" stroke-linejoin="round" stroke-miterlimit="10" stroke-width="3.31"/><path d="M0,0H6.621" transform="translate(69.517 13.241)" fill="none" stroke="#5b7183" stroke-linecap="round" stroke-linejoin="round" stroke-miterlimit="10" stroke-width="3.31"/><path d="M0,0H52.966V9.931a3.31,3.31,0,0,1-3.31,3.31H3.31A3.31,3.31,0,0,1,0,9.931Z" transform="translate(21.517 41.379)" fill="none" stroke="#5b7183" stroke-linecap="round" stroke-linejoin="round" stroke-miterlimit="10" stroke-width="3.31"/><path d="M3.31,0H19.862a3.31,3.31,0,0,1,3.31,3.31v3.31H0V3.31A3.31,3.31,0,0,1,3.31,0Z" transform="translate(36.414 48)" fill="none" stroke="#5b7183" stroke-linecap="round" stroke-linejoin="round" stroke-miterlimit="10" stroke-width="3.31"/><path d="M52.966,6.621H0L1.028,2.507A3.31,3.31,0,0,1,4.24,0H48.726a3.31,3.31,0,0,1,3.211,2.507Z" transform="translate(21.517 34.759)" fill="none" stroke="#5b7183" stroke-linecap="round" stroke-linejoin="round" stroke-miterlimit="10" stroke-width="3.31"/></g><g transform="translate(347 376)"><path d="M0,11.034H2.737a1.1,1.1,0,0,0,1.1-1.1V4.268L2.9.615A.826.826,0,0,0,2.1,0H1.357" transform="translate(12.16 3.586)" fill="none" stroke="#5b7183" stroke-linecap="round" stroke-linejoin="round" stroke-miterlimit="10" stroke-width="0.552"/><path d="M2.483,0H1.738a.826.826,0,0,0-.8.615L0,4.268V9.931a1.1,1.1,0,0,0,1.1,1.1H3.84" transform="translate(0 3.586)" fill="none" stroke="#5b7183" stroke-linecap="round" stroke-linejoin="round" stroke-miterlimit="10" stroke-width="0.552"/><path d="M0,1.1A1.1,1.1,0,0,1,1.1,0H14.9A1.1,1.1,0,0,1,16,1.1" transform="translate(0 6.897)" fill="none" stroke="#5b7183" stroke-linecap="round" stroke-linejoin="round" stroke-miterlimit="10" stroke-width="0.552"/><path d="M9.126,3.31h.806V.552A.553.553,0,0,0,9.379,0H.552A.553.553,0,0,0,0,.552V3.31H.806" transform="translate(3.034 11.31)" fill="none" stroke="#5b7183" stroke-linecap="round" stroke-linejoin="round" stroke-miterlimit="10" stroke-width="0.552"/><path d="M0,0H9.931" transform="translate(3.034 12.414)" fill="none" stroke="#5b7183" stroke-linecap="round" stroke-linejoin="round" stroke-miterlimit="10" stroke-width="0.552"/><path d="M8.547,3.586H.28a.277.277,0,0,1-.273-.338L.769,0H8.058L8.82,3.248a.277.277,0,0,1-.273.338Z" transform="translate(3.587 12.414)" fill="none" stroke="#5b7183" stroke-linecap="round" stroke-linejoin="round" stroke-miterlimit="10" stroke-width="0.552"/><path d="M0,0H16" transform="translate(0 10.207)" fill="none" stroke="#5b7183" stroke-linecap="round" stroke-linejoin="round" stroke-miterlimit="10" stroke-width="0.552"/><circle cx="0.552" cy="0.552" r="0.552" transform="translate(1.103 8)" fill="none" stroke="#5b7183" stroke-linecap="round" stroke-linejoin="round" stroke-miterlimit="10" stroke-width="0.552"/><path d="M1.931,0H1.379A.552.552,0,0,0,.828.552V1.1H.552A.552.552,0,0,0,0,1.655V3.586H11.034V1.655a.552.552,0,0,0-.552-.552h-.276V.552A.552.552,0,0,0,9.655,0H9.1" transform="translate(2.483 1.103)" fill="none" stroke="#5b7183" stroke-linecap="round" stroke-linejoin="round" stroke-miterlimit="10" stroke-width="0.552"/><path d="M0,0H12.138" transform="translate(1.931 4.69)" fill="none" stroke="#5b7183" stroke-linecap="round" stroke-linejoin="round" stroke-miterlimit="10" stroke-width="0.552"/><path d="M.276,0H6.9a.276.276,0,0,1,.276.276V4.69H0V.276A.276.276,0,0,1,.276,0Z" transform="translate(4.414)" fill="none" stroke="#5b7183" stroke-linecap="round" stroke-linejoin="round" stroke-miterlimit="10" stroke-width="0.552"/><path d="M0,0H1.1" transform="translate(3.31 2.207)" fill="none" stroke="#5b7183" stroke-linecap="round" stroke-linejoin="round" stroke-miterlimit="10" stroke-width="0.552"/><path d="M0,0H1.1" transform="translate(11.586 2.207)" fill="none" stroke="#5b7183" stroke-linecap="round" stroke-linejoin="round" stroke-miterlimit="10" stroke-width="0.552"/><path d="M0,0H8.828V1.655a.552.552,0,0,1-.552.552H.552A.552.552,0,0,1,0,1.655Z" transform="translate(3.586 6.897)" fill="none" stroke="#5b7183" stroke-linecap="round" stroke-linejoin="round" stroke-miterlimit="10" stroke-width="0.552"/><path d="M.552,0H3.31a.552.552,0,0,1,.552.552V1.1H0V.552A.552.552,0,0,1,.552,0Z" transform="translate(6.069 8)" fill="none" stroke="#5b7183" stroke-linecap="round" stroke-linejoin="round" stroke-miterlimit="10" stroke-width="0.552"/><path d="M8.828,1.1H0L.171.418A.552.552,0,0,1,.707,0H8.121a.552.552,0,0,1,.535.418Z" transform="translate(3.586 5.793)" fill="none" stroke="#5b7183" stroke-linecap="round" stroke-linejoin="round" stroke-miterlimit="10" stroke-width="0.552"/></g><path d="M73.844,90H22.152c-6,0-7.383-1.4-7.383-7.5V62.5H7.28c-.139,0-.289,0-.422,0-2.864,0-4.5-.461-5.481-1.541S0,58.157,0,55.005V27.5c0-2.872.219-4.885,1.31-6.039,1-1.055,2.7-1.466,6.072-1.466h7.387V7.505c0-3.226.427-4.973,1.475-6.03S18.994,0,22.152,0H73.844C77.2,0,78.9.4,79.891,1.437,81.006,2.6,81.23,4.619,81.23,7.505V20h7.383c3.338,0,5.109.449,6.112,1.55C95.787,22.715,96,24.692,96,27.5v27.5a20.113,20.113,0,0,1-.253,3.694A4.723,4.723,0,0,1,94.76,61C93.829,62.067,92.218,62.5,89.2,62.5c-.181,0-.362,0-.588,0H81.23V82.5c0,3.4-.4,5.119-1.43,6.134C78.653,89.772,76.67,90,73.844,90ZM22.154,50V82.5H73.846V50ZM82.459,32.207a3.934,3.934,0,0,0-2.825,1.18,4.119,4.119,0,0,0,0,5.737,3.969,3.969,0,0,0,5.65,0,4.118,4.118,0,0,0,0-5.736A3.937,3.937,0,0,0,82.459,32.207ZM22.154,7.5V20H73.846V7.5ZM66.461,75H29.539V67.5H66.461V75Zm0-12.5H29.539V55H66.461v7.5Z" transform="translate(924 340)" fill="#5b7183"/><rect width="1" height="300" transform="translate(683 234)" fill="#5a7184"/><text transform="translate(667 529)" fill="#7f2725" font-size="10" font-family="OpenSans-Bold, Open Sans" font-weight="700"><tspan x="-37.969" y="0">BEFORE</tspan></text><text transform="translate(700 529)" fill="#487f3f" font-size="10" font-family="OpenSans-Bold, Open Sans" font-weight="700"><tspan x="0" y="0">AFTER</tspan></text><path d="M43.076,53H12.921c-3.5,0-4.306-.825-4.306-4.414V36.806H4.307l-.3,0c-1.674,0-2.631-.271-3.2-.907S0,34.248,0,32.392V16.2c0-1.691.128-2.876.764-3.557.581-.621,1.574-.863,3.542-.863H8.616V4.42C8.616.867,9.461,0,12.921,0H43.076c1.958,0,2.947.237,3.528.846.651.683.781,1.874.781,3.574v7.358h4.306c1.947,0,2.98.264,3.565.913.62.686.744,1.851.744,3.507V32.392c0,3.422-.521,4.416-3.971,4.416l-.338,0H47.385V48.587c0,2-.234,3.014-.834,3.613C45.881,52.866,44.725,53,43.076,53ZM12.923,29.444V48.583H43.077V29.444ZM48.1,18.967a2.285,2.285,0,0,0-1.648.695,2.441,2.441,0,0,0,0,3.378,2.3,2.3,0,0,0,3.3,0,2.443,2.443,0,0,0,0-3.378A2.285,2.285,0,0,0,48.1,18.967ZM12.923,4.416v7.361H43.077V4.416Zm25.845,39.75H17.231V39.75H38.769v4.415Zm0-7.361H17.231V32.389H38.769V36.8Z" transform="translate(812 358)" fill="#5b7183"/><path d="M12.307,15H3.692c-1,0-1.23-.234-1.23-1.249V10.417H1.142A1.165,1.165,0,0,1,.23,10.16,1.441,1.441,0,0,1,0,9.167V4.585c0-1,.145-1.251,1.23-1.251H2.462V1.251C2.462.246,2.7,0,3.692,0h8.616c1.036,0,1.231.2,1.231,1.251V3.334h1.23C15.847,3.334,16,3.6,16,4.585V9.167c0,.969-.149,1.25-1.132,1.25H13.539v3.335C13.539,14.79,13.332,15,12.307,15ZM3.693,8.333V13.75h8.615V8.333Zm10.05-2.965a.675.675,0,1,0,.665.675A.67.67,0,0,0,13.743,5.368ZM3.693,1.25V3.334h8.615V1.25ZM11.076,12.5H4.923V11.25h6.154V12.5Zm0-2.083H4.923V9.167h6.154v1.249Z" transform="translate(740 376)" fill="#5b7183"/></g></g></svg>