<svg xmlns="http://www.w3.org/2000/svg" width="775" height="322" viewBox="0 0 775 322"><g transform="translate(-441 -489)"><rect width="775" height="322" rx="8" transform="translate(441 489)" fill="#e7edf2"/><g transform="translate(146 -2636)"><g transform="translate(861 3214)"><rect width="12" height="192" fill="none" stroke="#c3cfda" stroke-miterlimit="10" stroke-width="0.75"/><rect width="12" height="192" transform="translate(12)" fill="none" stroke="#c3cfda" stroke-miterlimit="10" stroke-width="0.75"/><rect width="12" height="192" transform="translate(24)" fill="none" stroke="#c3cfda" stroke-miterlimit="10" stroke-width="0.75"/><rect width="12" height="192" transform="translate(36)" fill="none" stroke="#c3cfda" stroke-miterlimit="10" stroke-width="0.75"/><rect width="12" height="192" transform="translate(48)" fill="none" stroke="#c3cfda" stroke-miterlimit="10" stroke-width="0.75"/><rect width="12" height="192" transform="translate(60)" fill="none" stroke="#c3cfda" stroke-miterlimit="10" stroke-width="0.75"/><rect width="12" height="192" transform="translate(72)" fill="none" stroke="#c3cfda" stroke-miterlimit="10" stroke-width="0.75"/><rect width="12" height="192" transform="translate(84)" fill="none" stroke="#c3cfda" stroke-miterlimit="10" stroke-width="0.75"/><rect width="12" height="192" transform="translate(96)" fill="none" stroke="#c3cfda" stroke-miterlimit="10" stroke-width="0.75"/><rect width="12" height="192" transform="translate(108)" fill="none" stroke="#c3cfda" stroke-miterlimit="10" stroke-width="0.75"/><rect width="12" height="192" transform="translate(120)" fill="none" stroke="#c3cfda" stroke-miterlimit="10" stroke-width="0.75"/><rect width="12" height="192" transform="translate(132)" fill="none" stroke="#c3cfda" stroke-miterlimit="10" stroke-width="0.75"/><rect width="12" height="192" transform="translate(144)" fill="none" stroke="#c3cfda" stroke-miterlimit="10" stroke-width="0.75"/><rect width="12" height="192" transform="translate(156)" fill="none" stroke="#c3cfda" stroke-miterlimit="10" stroke-width="0.75"/><rect width="12" height="192" transform="translate(168)" fill="none" stroke="#c3cfda" stroke-miterlimit="10" stroke-width="0.75"/><rect width="12" height="192" transform="translate(180)" fill="none" stroke="#c3cfda" stroke-miterlimit="10" stroke-width="0.75"/><rect width="12" height="192" transform="translate(192 0) rotate(90)" fill="none" stroke="#c3cfda" stroke-miterlimit="10" stroke-width="0.75"/><rect width="12" height="192" transform="translate(192 12) rotate(90)" fill="none" stroke="#c3cfda" stroke-miterlimit="10" stroke-width="0.75"/><rect width="12" height="192" transform="translate(192 24) rotate(90)" fill="none" stroke="#c3cfda" stroke-miterlimit="10" stroke-width="0.75"/><rect width="12" height="192" transform="translate(192 36) rotate(90)" fill="none" stroke="#c3cfda" stroke-miterlimit="10" stroke-width="0.75"/><rect width="12" height="192" transform="translate(192 48) rotate(90)" fill="none" stroke="#c3cfda" stroke-miterlimit="10" stroke-width="0.75"/><rect width="12" height="192" transform="translate(192 60) rotate(90)" fill="none" stroke="#c3cfda" stroke-miterlimit="10" stroke-width="0.75"/><rect width="12" height="192" transform="translate(192 72) rotate(90)" fill="none" stroke="#c3cfda" stroke-miterlimit="10" stroke-width="0.75"/><rect width="12" height="192" transform="translate(192 84) rotate(90)" fill="none" stroke="#c3cfda" stroke-miterlimit="10" stroke-width="0.75"/><rect width="12" height="192" transform="translate(192 96) rotate(90)" fill="none" stroke="#c3cfda" stroke-miterlimit="10" stroke-width="0.75"/><rect width="12" height="192" transform="translate(192 108) rotate(90)" fill="none" stroke="#c3cfda" stroke-miterlimit="10" stroke-width="0.75"/><rect width="12" height="192" transform="translate(192 120) rotate(90)" fill="none" stroke="#c3cfda" stroke-miterlimit="10" stroke-width="0.75"/><rect width="12" height="192" transform="translate(192 132) rotate(90)" fill="none" stroke="#c3cfda" stroke-miterlimit="10" stroke-width="0.75"/><rect width="12" height="192" transform="translate(192 144) rotate(90)" fill="none" stroke="#c3cfda" stroke-miterlimit="10" stroke-width="0.75"/><rect width="12" height="192" transform="translate(192 156) rotate(90)" fill="none" stroke="#c3cfda" stroke-miterlimit="10" stroke-width="0.75"/><rect width="12" height="192" transform="translate(192 168) rotate(90)" fill="none" stroke="#c3cfda" stroke-miterlimit="10" stroke-width="0.75"/><rect width="12" height="192" transform="translate(192 180) rotate(90)" fill="none" stroke="#c3cfda" stroke-miterlimit="10" stroke-width="0.75"/></g><g transform="translate(587 3214)"><rect width="12" height="192" fill="none" stroke="#c3cfda" stroke-miterlimit="10" stroke-width="0.75"/><rect width="12" height="192" transform="translate(12)" fill="none" stroke="#c3cfda" stroke-miterlimit="10" stroke-width="0.75"/><rect width="12" height="192" transform="translate(24)" fill="none" stroke="#c3cfda" stroke-miterlimit="10" stroke-width="0.75"/><rect width="12" height="192" transform="translate(36)" fill="none" stroke="#c3cfda" stroke-miterlimit="10" stroke-width="0.75"/><rect width="12" height="192" transform="translate(48)" fill="none" stroke="#c3cfda" stroke-miterlimit="10" stroke-width="0.75"/><rect width="12" height="192" transform="translate(60)" fill="none" stroke="#c3cfda" stroke-miterlimit="10" stroke-width="0.75"/><rect width="12" height="192" transform="translate(72)" fill="none" stroke="#c3cfda" stroke-miterlimit="10" stroke-width="0.75"/><rect width="12" height="192" transform="translate(84)" fill="none" stroke="#c3cfda" stroke-miterlimit="10" stroke-width="0.75"/><rect width="12" height="192" transform="translate(96)" fill="none" stroke="#c3cfda" stroke-miterlimit="10" stroke-width="0.75"/><rect width="12" height="192" transform="translate(108)" fill="none" stroke="#c3cfda" stroke-miterlimit="10" stroke-width="0.75"/><rect width="12" height="192" transform="translate(120)" fill="none" stroke="#c3cfda" stroke-miterlimit="10" stroke-width="0.75"/><rect width="12" height="192" transform="translate(132)" fill="none" stroke="#c3cfda" stroke-miterlimit="10" stroke-width="0.75"/><rect width="12" height="192" transform="translate(144)" fill="none" stroke="#c3cfda" stroke-miterlimit="10" stroke-width="0.75"/><rect width="12" height="192" transform="translate(156)" fill="none" stroke="#c3cfda" stroke-miterlimit="10" stroke-width="0.75"/><rect width="12" height="192" transform="translate(168)" fill="none" stroke="#c3cfda" stroke-miterlimit="10" stroke-width="0.75"/><rect width="12" height="192" transform="translate(180)" fill="none" stroke="#c3cfda" stroke-miterlimit="10" stroke-width="0.75"/><rect width="12" height="192" transform="translate(192 0) rotate(90)" fill="none" stroke="#c3cfda" stroke-miterlimit="10" stroke-width="0.75"/><rect width="12" height="192" transform="translate(192 12) rotate(90)" fill="none" stroke="#c3cfda" stroke-miterlimit="10" stroke-width="0.75"/><rect width="12" height="192" transform="translate(192 24) rotate(90)" fill="none" stroke="#c3cfda" stroke-miterlimit="10" stroke-width="0.75"/><rect width="12" height="192" transform="translate(192 36) rotate(90)" fill="none" stroke="#c3cfda" stroke-miterlimit="10" stroke-width="0.75"/><rect width="12" height="192" transform="translate(192 48) rotate(90)" fill="none" stroke="#c3cfda" stroke-miterlimit="10" stroke-width="0.75"/><rect width="12" height="192" transform="translate(192 60) rotate(90)" fill="none" stroke="#c3cfda" stroke-miterlimit="10" stroke-width="0.75"/><rect width="12" height="192" transform="translate(192 72) rotate(90)" fill="none" stroke="#c3cfda" stroke-miterlimit="10" stroke-width="0.75"/><rect width="12" height="192" transform="translate(192 84) rotate(90)" fill="none" stroke="#c3cfda" stroke-miterlimit="10" stroke-width="0.75"/><rect width="12" height="192" transform="translate(192 96) rotate(90)" fill="none" stroke="#c3cfda" stroke-miterlimit="10" stroke-width="0.75"/><rect width="12" height="192" transform="translate(192 108) rotate(90)" fill="none" stroke="#c3cfda" stroke-miterlimit="10" stroke-width="0.75"/><rect width="12" height="192" transform="translate(192 120) rotate(90)" fill="none" stroke="#c3cfda" stroke-miterlimit="10" stroke-width="0.75"/><rect width="12" height="192" transform="translate(192 132) rotate(90)" fill="none" stroke="#c3cfda" stroke-miterlimit="10" stroke-width="0.75"/><rect width="12" height="192" transform="translate(192 144) rotate(90)" fill="none" stroke="#c3cfda" stroke-miterlimit="10" stroke-width="0.75"/><rect width="12" height="192" transform="translate(192 156) rotate(90)" fill="none" stroke="#c3cfda" stroke-miterlimit="10" stroke-width="0.75"/><rect width="12" height="192" transform="translate(192 168) rotate(90)" fill="none" stroke="#c3cfda" stroke-miterlimit="10" stroke-width="0.75"/><rect width="12" height="192" transform="translate(192 180) rotate(90)" fill="none" stroke="#c3cfda" stroke-miterlimit="10" stroke-width="0.75"/></g><g transform="translate(313 3214)"><rect width="12" height="192" fill="none" stroke="#c3cfda" stroke-miterlimit="10" stroke-width="0.75"/><rect width="12" height="192" transform="translate(12)" fill="none" stroke="#c3cfda" stroke-miterlimit="10" stroke-width="0.75"/><rect width="12" height="192" transform="translate(24)" fill="none" stroke="#c3cfda" stroke-miterlimit="10" stroke-width="0.75"/><rect width="12" height="192" transform="translate(36)" fill="none" stroke="#c3cfda" stroke-miterlimit="10" stroke-width="0.75"/><rect width="12" height="192" transform="translate(48)" fill="none" stroke="#c3cfda" stroke-miterlimit="10" stroke-width="0.75"/><rect width="12" height="192" transform="translate(60)" fill="none" stroke="#c3cfda" stroke-miterlimit="10" stroke-width="0.75"/><rect width="12" height="192" transform="translate(72)" fill="none" stroke="#c3cfda" stroke-miterlimit="10" stroke-width="0.75"/><rect width="12" height="192" transform="translate(84)" fill="none" stroke="#c3cfda" stroke-miterlimit="10" stroke-width="0.75"/><rect width="12" height="192" transform="translate(96)" fill="none" stroke="#c3cfda" stroke-miterlimit="10" stroke-width="0.75"/><rect width="12" height="192" transform="translate(108)" fill="none" stroke="#c3cfda" stroke-miterlimit="10" stroke-width="0.75"/><rect width="12" height="192" transform="translate(120)" fill="none" stroke="#c3cfda" stroke-miterlimit="10" stroke-width="0.75"/><rect width="12" height="192" transform="translate(132)" fill="none" stroke="#c3cfda" stroke-miterlimit="10" stroke-width="0.75"/><rect width="12" height="192" transform="translate(144)" fill="none" stroke="#c3cfda" stroke-miterlimit="10" stroke-width="0.75"/><rect width="12" height="192" transform="translate(156)" fill="none" stroke="#c3cfda" stroke-miterlimit="10" stroke-width="0.75"/><rect width="12" height="192" transform="translate(168)" fill="none" stroke="#c3cfda" stroke-miterlimit="10" stroke-width="0.75"/><rect width="12" height="192" transform="translate(180)" fill="none" stroke="#c3cfda" stroke-miterlimit="10" stroke-width="0.75"/><rect width="12" height="192" transform="translate(192 0) rotate(90)" fill="none" stroke="#c3cfda" stroke-miterlimit="10" stroke-width="0.75"/><rect width="12" height="192" transform="translate(192 12) rotate(90)" fill="none" stroke="#c3cfda" stroke-miterlimit="10" stroke-width="0.75"/><rect width="12" height="192" transform="translate(192 24) rotate(90)" fill="none" stroke="#c3cfda" stroke-miterlimit="10" stroke-width="0.75"/><rect width="12" height="192" transform="translate(192 36) rotate(90)" fill="none" stroke="#c3cfda" stroke-miterlimit="10" stroke-width="0.75"/><rect width="12" height="192" transform="translate(192 48) rotate(90)" fill="none" stroke="#c3cfda" stroke-miterlimit="10" stroke-width="0.75"/><rect width="12" height="192" transform="translate(192 60) rotate(90)" fill="none" stroke="#c3cfda" stroke-miterlimit="10" stroke-width="0.75"/><rect width="12" height="192" transform="translate(192 72) rotate(90)" fill="none" stroke="#c3cfda" stroke-miterlimit="10" stroke-width="0.75"/><rect width="12" height="192" transform="translate(192 84) rotate(90)" fill="none" stroke="#c3cfda" stroke-miterlimit="10" stroke-width="0.75"/><rect width="12" height="192" transform="translate(192 96) rotate(90)" fill="none" stroke="#c3cfda" stroke-miterlimit="10" stroke-width="0.75"/><rect width="12" height="192" transform="translate(192 108) rotate(90)" fill="none" stroke="#c3cfda" stroke-miterlimit="10" stroke-width="0.75"/><rect width="12" height="192" transform="translate(192 120) rotate(90)" fill="none" stroke="#c3cfda" stroke-miterlimit="10" stroke-width="0.75"/><rect width="12" height="192" transform="translate(192 132) rotate(90)" fill="none" stroke="#c3cfda" stroke-miterlimit="10" stroke-width="0.75"/><rect width="12" height="192" transform="translate(192 144) rotate(90)" fill="none" stroke="#c3cfda" stroke-miterlimit="10" stroke-width="0.75"/><rect width="12" height="192" transform="translate(192 156) rotate(90)" fill="none" stroke="#c3cfda" stroke-miterlimit="10" stroke-width="0.75"/><rect width="12" height="192" transform="translate(192 168) rotate(90)" fill="none" stroke="#c3cfda" stroke-miterlimit="10" stroke-width="0.75"/><rect width="12" height="192" transform="translate(192 180) rotate(90)" fill="none" stroke="#c3cfda" stroke-miterlimit="10" stroke-width="0.75"/></g><path d="M30,26H2a2,2,0,0,1-2-2V6A2,2,0,0,1,2,4h8V2a2,2,0,0,1,2-2h8a2,2,0,0,1,2,2V4h8a2,2,0,0,1,2,2V24A2,2,0,0,1,30,26ZM10.5,13a.5.5,0,0,0-.5.5v3a.5.5,0,0,0,.5.5H14v3.5a.5.5,0,0,0,.5.5h3a.5.5,0,0,0,.5-.5V17h3.5a.5.5,0,0,0,.5-.5v-3a.5.5,0,0,0-.5-.5H18V9.5a.5.5,0,0,0-.5-.5h-3a.5.5,0,0,0-.5.5V13Zm2-11a.5.5,0,0,0-.5.5V4h8V2.5a.5.5,0,0,0-.5-.5Z" transform="translate(667 3160)" fill="#2e2e2e"/><path d="M168,156H24A23.98,23.98,0,0,1,0,132V48A23.981,23.981,0,0,1,24,24H60V12A12,12,0,0,1,72,0h48a12,12,0,0,1,12,12V24h36a23.98,23.98,0,0,1,24,24v84a23.98,23.98,0,0,1-24,24ZM63,78a3,3,0,0,0-3,3V99a3,3,0,0,0,3,3H84v21a3,3,0,0,0,3,3h18a3,3,0,0,0,3-3V102h21a3,3,0,0,0,3-3V81a3,3,0,0,0-3-3H108V57a3,3,0,0,0-3-3H87a3,3,0,0,0-3,3V78ZM75,12a3,3,0,0,0-3,3v9h48V15a3,3,0,0,0-3-3Z" transform="translate(861 3226)" fill="#2e2e2e"/><g transform="translate(861 3214)" opacity="0.15"><rect width="12" height="192" fill="none" stroke="#c3cfda" stroke-miterlimit="10" stroke-width="0.75"/><rect width="12" height="192" transform="translate(12)" fill="none" stroke="#c3cfda" stroke-miterlimit="10" stroke-width="0.75"/><rect width="12" height="192" transform="translate(24)" fill="none" stroke="#c3cfda" stroke-miterlimit="10" stroke-width="0.75"/><rect width="12" height="192" transform="translate(36)" fill="none" stroke="#c3cfda" stroke-miterlimit="10" stroke-width="0.75"/><rect width="12" height="192" transform="translate(48)" fill="none" stroke="#c3cfda" stroke-miterlimit="10" stroke-width="0.75"/><rect width="12" height="192" transform="translate(60)" fill="none" stroke="#c3cfda" stroke-miterlimit="10" stroke-width="0.75"/><rect width="12" height="192" transform="translate(72)" fill="none" stroke="#c3cfda" stroke-miterlimit="10" stroke-width="0.75"/><rect width="12" height="192" transform="translate(84)" fill="none" stroke="#c3cfda" stroke-miterlimit="10" stroke-width="0.75"/><rect width="12" height="192" transform="translate(96)" fill="none" stroke="#c3cfda" stroke-miterlimit="10" stroke-width="0.75"/><rect width="12" height="192" transform="translate(108)" fill="none" stroke="#c3cfda" stroke-miterlimit="10" stroke-width="0.75"/><rect width="12" height="192" transform="translate(120)" fill="none" stroke="#c3cfda" stroke-miterlimit="10" stroke-width="0.75"/><rect width="12" height="192" transform="translate(132)" fill="none" stroke="#c3cfda" stroke-miterlimit="10" stroke-width="0.75"/><rect width="12" height="192" transform="translate(144)" fill="none" stroke="#c3cfda" stroke-miterlimit="10" stroke-width="0.75"/><rect width="12" height="192" transform="translate(156)" fill="none" stroke="#c3cfda" stroke-miterlimit="10" stroke-width="0.75"/><rect width="12" height="192" transform="translate(168)" fill="none" stroke="#c3cfda" stroke-miterlimit="10" stroke-width="0.75"/><rect width="12" height="192" transform="translate(180)" fill="none" stroke="#c3cfda" stroke-miterlimit="10" stroke-width="0.75"/><rect width="12" height="192" transform="translate(192 0) rotate(90)" fill="none" stroke="#c3cfda" stroke-miterlimit="10" stroke-width="0.75"/><rect width="12" height="192" transform="translate(192 12) rotate(90)" fill="none" stroke="#c3cfda" stroke-miterlimit="10" stroke-width="0.75"/><rect width="12" height="192" transform="translate(192 24) rotate(90)" fill="none" stroke="#c3cfda" stroke-miterlimit="10" stroke-width="0.75"/><rect width="12" height="192" transform="translate(192 36) rotate(90)" fill="none" stroke="#c3cfda" stroke-miterlimit="10" stroke-width="0.75"/><rect width="12" height="192" transform="translate(192 48) rotate(90)" fill="none" stroke="#c3cfda" stroke-miterlimit="10" stroke-width="0.75"/><rect width="12" height="192" transform="translate(192 60) rotate(90)" fill="none" stroke="#c3cfda" stroke-miterlimit="10" stroke-width="0.75"/><rect width="12" height="192" transform="translate(192 72) rotate(90)" fill="none" stroke="#c3cfda" stroke-miterlimit="10" stroke-width="0.75"/><rect width="12" height="192" transform="translate(192 84) rotate(90)" fill="none" stroke="#c3cfda" stroke-miterlimit="10" stroke-width="0.75"/><rect width="12" height="192" transform="translate(192 96) rotate(90)" fill="none" stroke="#c3cfda" stroke-miterlimit="10" stroke-width="0.75"/><rect width="12" height="192" transform="translate(192 108) rotate(90)" fill="none" stroke="#c3cfda" stroke-miterlimit="10" stroke-width="0.75"/><rect width="12" height="192" transform="translate(192 120) rotate(90)" fill="none" stroke="#c3cfda" stroke-miterlimit="10" stroke-width="0.75"/><rect width="12" height="192" transform="translate(192 132) rotate(90)" fill="none" stroke="#c3cfda" stroke-miterlimit="10" stroke-width="0.75"/><rect width="12" height="192" transform="translate(192 144) rotate(90)" fill="none" stroke="#c3cfda" stroke-miterlimit="10" stroke-width="0.75"/><rect width="12" height="192" transform="translate(192 156) rotate(90)" fill="none" stroke="#c3cfda" stroke-miterlimit="10" stroke-width="0.75"/><rect width="12" height="192" transform="translate(192 168) rotate(90)" fill="none" stroke="#c3cfda" stroke-miterlimit="10" stroke-width="0.75"/><rect width="12" height="192" transform="translate(192 180) rotate(90)" fill="none" stroke="#c3cfda" stroke-miterlimit="10" stroke-width="0.75"/></g><path d="M180,156H12A12,12,0,0,1,0,144V36A12,12,0,0,1,12,24H60V12A12,12,0,0,1,72,0h48a12,12,0,0,1,12,12V24h48a12,12,0,0,1,12,12V144a12,12,0,0,1-12,12ZM63,78a3,3,0,0,0-3,3V99a3,3,0,0,0,3,3H84v21a3,3,0,0,0,3,3h18a3,3,0,0,0,3-3V102h21a3,3,0,0,0,3-3V81a3,3,0,0,0-3-3H108V57a3,3,0,0,0-3-3H87a3,3,0,0,0-3,3V78ZM75,12a3,3,0,0,0-3,3v9h48V15a3,3,0,0,0-3-3Z" transform="translate(587 3226)" fill="#2e2e2e"/><g transform="translate(587 3214)" opacity="0.15"><rect width="12" height="192" fill="none" stroke="#c3cfda" stroke-miterlimit="10" stroke-width="0.75"/><rect width="12" height="192" transform="translate(12)" fill="none" stroke="#c3cfda" stroke-miterlimit="10" stroke-width="0.75"/><rect width="12" height="192" transform="translate(24)" fill="none" stroke="#c3cfda" stroke-miterlimit="10" stroke-width="0.75"/><rect width="12" height="192" transform="translate(36)" fill="none" stroke="#c3cfda" stroke-miterlimit="10" stroke-width="0.75"/><rect width="12" height="192" transform="translate(48)" fill="none" stroke="#c3cfda" stroke-miterlimit="10" stroke-width="0.75"/><rect width="12" height="192" transform="translate(60)" fill="none" stroke="#c3cfda" stroke-miterlimit="10" stroke-width="0.75"/><rect width="12" height="192" transform="translate(72)" fill="none" stroke="#c3cfda" stroke-miterlimit="10" stroke-width="0.75"/><rect width="12" height="192" transform="translate(84)" fill="none" stroke="#c3cfda" stroke-miterlimit="10" stroke-width="0.75"/><rect width="12" height="192" transform="translate(96)" fill="none" stroke="#c3cfda" stroke-miterlimit="10" stroke-width="0.75"/><rect width="12" height="192" transform="translate(108)" fill="none" stroke="#c3cfda" stroke-miterlimit="10" stroke-width="0.75"/><rect width="12" height="192" transform="translate(120)" fill="none" stroke="#c3cfda" stroke-miterlimit="10" stroke-width="0.75"/><rect width="12" height="192" transform="translate(132)" fill="none" stroke="#c3cfda" stroke-miterlimit="10" stroke-width="0.75"/><rect width="12" height="192" transform="translate(144)" fill="none" stroke="#c3cfda" stroke-miterlimit="10" stroke-width="0.75"/><rect width="12" height="192" transform="translate(156)" fill="none" stroke="#c3cfda" stroke-miterlimit="10" stroke-width="0.75"/><rect width="12" height="192" transform="translate(168)" fill="none" stroke="#c3cfda" stroke-miterlimit="10" stroke-width="0.75"/><rect width="12" height="192" transform="translate(180)" fill="none" stroke="#c3cfda" stroke-miterlimit="10" stroke-width="0.75"/><rect width="12" height="192" transform="translate(192 0) rotate(90)" fill="none" stroke="#c3cfda" stroke-miterlimit="10" stroke-width="0.75"/><rect width="12" height="192" transform="translate(192 12) rotate(90)" fill="none" stroke="#c3cfda" stroke-miterlimit="10" stroke-width="0.75"/><rect width="12" height="192" transform="translate(192 24) rotate(90)" fill="none" stroke="#c3cfda" stroke-miterlimit="10" stroke-width="0.75"/><rect width="12" height="192" transform="translate(192 36) rotate(90)" fill="none" stroke="#c3cfda" stroke-miterlimit="10" stroke-width="0.75"/><rect width="12" height="192" transform="translate(192 48) rotate(90)" fill="none" stroke="#c3cfda" stroke-miterlimit="10" stroke-width="0.75"/><rect width="12" height="192" transform="translate(192 60) rotate(90)" fill="none" stroke="#c3cfda" stroke-miterlimit="10" stroke-width="0.75"/><rect width="12" height="192" transform="translate(192 72) rotate(90)" fill="none" stroke="#c3cfda" stroke-miterlimit="10" stroke-width="0.75"/><rect width="12" height="192" transform="translate(192 84) rotate(90)" fill="none" stroke="#c3cfda" stroke-miterlimit="10" stroke-width="0.75"/><rect width="12" height="192" transform="translate(192 96) rotate(90)" fill="none" stroke="#c3cfda" stroke-miterlimit="10" stroke-width="0.75"/><rect width="12" height="192" transform="translate(192 108) rotate(90)" fill="none" stroke="#c3cfda" stroke-miterlimit="10" stroke-width="0.75"/><rect width="12" height="192" transform="translate(192 120) rotate(90)" fill="none" stroke="#c3cfda" stroke-miterlimit="10" stroke-width="0.75"/><rect width="12" height="192" transform="translate(192 132) rotate(90)" fill="none" stroke="#c3cfda" stroke-miterlimit="10" stroke-width="0.75"/><rect width="12" height="192" transform="translate(192 144) rotate(90)" fill="none" stroke="#c3cfda" stroke-miterlimit="10" stroke-width="0.75"/><rect width="12" height="192" transform="translate(192 156) rotate(90)" fill="none" stroke="#c3cfda" stroke-miterlimit="10" stroke-width="0.75"/><rect width="12" height="192" transform="translate(192 168) rotate(90)" fill="none" stroke="#c3cfda" stroke-miterlimit="10" stroke-width="0.75"/><rect width="12" height="192" transform="translate(192 180) rotate(90)" fill="none" stroke="#c3cfda" stroke-miterlimit="10" stroke-width="0.75"/></g><path d="M31,26H1a1,1,0,0,1-1-1V5A1,1,0,0,1,1,4h9V2a2,2,0,0,1,2-2h8a2,2,0,0,1,2,2V4h9a1,1,0,0,1,1,1V25A1,1,0,0,1,31,26ZM10.5,13a.5.5,0,0,0-.5.5v3a.5.5,0,0,0,.5.5H14v3.5a.5.5,0,0,0,.5.5h3a.5.5,0,0,0,.5-.5V17h3.5a.5.5,0,0,0,.5-.5v-3a.5.5,0,0,0-.5-.5H18V9.5a.5.5,0,0,0-.5-.5h-3a.5.5,0,0,0-.5.5V13Zm2-11a.5.5,0,0,0-.5.5V4h8V2.5a.5.5,0,0,0-.5-.5Z" transform="translate(393 3160)" fill="#2e2e2e"/><path d="M186,156H6a6.007,6.007,0,0,1-6-6V30a6.007,6.007,0,0,1,6-6H60V12A12,12,0,0,1,72,0h48a12,12,0,0,1,12,12V24h54a6.006,6.006,0,0,1,6,6V150A6.006,6.006,0,0,1,186,156ZM63,78a3,3,0,0,0-3,3V99a3,3,0,0,0,3,3H84v21a3,3,0,0,0,3,3h18a3,3,0,0,0,3-3V102h21a3,3,0,0,0,3-3V81a3,3,0,0,0-3-3H108V57a3,3,0,0,0-3-3H87a3,3,0,0,0-3,3V78ZM75,12a3,3,0,0,0-3,3v9h48V15a3,3,0,0,0-3-3Z" transform="translate(313 3226)" fill="#2e2e2e"/><g transform="translate(313 3214)" opacity="0.15"><rect width="12" height="192" fill="none" stroke="#c3cfda" stroke-miterlimit="10" stroke-width="0.75"/><rect width="12" height="192" transform="translate(12)" fill="none" stroke="#c3cfda" stroke-miterlimit="10" stroke-width="0.75"/><rect width="12" height="192" transform="translate(24)" fill="none" stroke="#c3cfda" stroke-miterlimit="10" stroke-width="0.75"/><rect width="12" height="192" transform="translate(36)" fill="none" stroke="#c3cfda" stroke-miterlimit="10" stroke-width="0.75"/><rect width="12" height="192" transform="translate(48)" fill="none" stroke="#c3cfda" stroke-miterlimit="10" stroke-width="0.75"/><rect width="12" height="192" transform="translate(60)" fill="none" stroke="#c3cfda" stroke-miterlimit="10" stroke-width="0.75"/><rect width="12" height="192" transform="translate(72)" fill="none" stroke="#c3cfda" stroke-miterlimit="10" stroke-width="0.75"/><rect width="12" height="192" transform="translate(84)" fill="none" stroke="#c3cfda" stroke-miterlimit="10" stroke-width="0.75"/><rect width="12" height="192" transform="translate(96)" fill="none" stroke="#c3cfda" stroke-miterlimit="10" stroke-width="0.75"/><rect width="12" height="192" transform="translate(108)" fill="none" stroke="#c3cfda" stroke-miterlimit="10" stroke-width="0.75"/><rect width="12" height="192" transform="translate(120)" fill="none" stroke="#c3cfda" stroke-miterlimit="10" stroke-width="0.75"/><rect width="12" height="192" transform="translate(132)" fill="none" stroke="#c3cfda" stroke-miterlimit="10" stroke-width="0.75"/><rect width="12" height="192" transform="translate(144)" fill="none" stroke="#c3cfda" stroke-miterlimit="10" stroke-width="0.75"/><rect width="12" height="192" transform="translate(156)" fill="none" stroke="#c3cfda" stroke-miterlimit="10" stroke-width="0.75"/><rect width="12" height="192" transform="translate(168)" fill="none" stroke="#c3cfda" stroke-miterlimit="10" stroke-width="0.75"/><rect width="12" height="192" transform="translate(180)" fill="none" stroke="#c3cfda" stroke-miterlimit="10" stroke-width="0.75"/><rect width="12" height="192" transform="translate(192 0) rotate(90)" fill="none" stroke="#c3cfda" stroke-miterlimit="10" stroke-width="0.75"/><rect width="12" height="192" transform="translate(192 12) rotate(90)" fill="none" stroke="#c3cfda" stroke-miterlimit="10" stroke-width="0.75"/><rect width="12" height="192" transform="translate(192 24) rotate(90)" fill="none" stroke="#c3cfda" stroke-miterlimit="10" stroke-width="0.75"/><rect width="12" height="192" transform="translate(192 36) rotate(90)" fill="none" stroke="#c3cfda" stroke-miterlimit="10" stroke-width="0.75"/><rect width="12" height="192" transform="translate(192 48) rotate(90)" fill="none" stroke="#c3cfda" stroke-miterlimit="10" stroke-width="0.75"/><rect width="12" height="192" transform="translate(192 60) rotate(90)" fill="none" stroke="#c3cfda" stroke-miterlimit="10" stroke-width="0.75"/><rect width="12" height="192" transform="translate(192 72) rotate(90)" fill="none" stroke="#c3cfda" stroke-miterlimit="10" stroke-width="0.75"/><rect width="12" height="192" transform="translate(192 84) rotate(90)" fill="none" stroke="#c3cfda" stroke-miterlimit="10" stroke-width="0.75"/><rect width="12" height="192" transform="translate(192 96) rotate(90)" fill="none" stroke="#c3cfda" stroke-miterlimit="10" stroke-width="0.75"/><rect width="12" height="192" transform="translate(192 108) rotate(90)" fill="none" stroke="#c3cfda" stroke-miterlimit="10" stroke-width="0.75"/><rect width="12" height="192" transform="translate(192 120) rotate(90)" fill="none" stroke="#c3cfda" stroke-miterlimit="10" stroke-width="0.75"/><rect width="12" height="192" transform="translate(192 132) rotate(90)" fill="none" stroke="#c3cfda" stroke-miterlimit="10" stroke-width="0.75"/><rect width="12" height="192" transform="translate(192 144) rotate(90)" fill="none" stroke="#c3cfda" stroke-miterlimit="10" stroke-width="0.75"/><rect width="12" height="192" transform="translate(192 156) rotate(90)" fill="none" stroke="#c3cfda" stroke-miterlimit="10" stroke-width="0.75"/><rect width="12" height="192" transform="translate(192 168) rotate(90)" fill="none" stroke="#c3cfda" stroke-miterlimit="10" stroke-width="0.75"/><rect width="12" height="192" transform="translate(192 180) rotate(90)" fill="none" stroke="#c3cfda" stroke-miterlimit="10" stroke-width="0.75"/></g><path d="M28,26H4a4,4,0,0,1-4-4V8A4,4,0,0,1,4,4h6V2a2,2,0,0,1,2-2h8a2,2,0,0,1,2,2V4h6a4.005,4.005,0,0,1,4,4V22A4.005,4.005,0,0,1,28,26ZM10.5,13a.5.5,0,0,0-.5.5v3a.5.5,0,0,0,.5.5H14v3.5a.5.5,0,0,0,.5.5h3a.5.5,0,0,0,.5-.5V17h3.5a.5.5,0,0,0,.5-.5v-3a.5.5,0,0,0-.5-.5H18V9.5a.5.5,0,0,0-.5-.5h-3a.5.5,0,0,0-.5.5V13Zm2-11a.5.5,0,0,0-.5.5V4h8V2.5a.5.5,0,0,0-.5-.5Z" transform="translate(941 3160)" fill="#2e2e2e"/><path d="M0,24A24,24,0,0,1,24,0V24Z" transform="translate(861 3250)" fill="#3baecc" opacity="0.663"/><path d="M0,12A12,12,0,0,1,12,0V12Z" transform="translate(587 3250)" fill="#3baecc" opacity="0.663"/><path d="M0,6A6,6,0,0,1,6,0V6Z" transform="translate(313 3250)" fill="#3baecc" opacity="0.663"/><g transform="translate(861 3250)" fill="none" stroke="#3baecc" stroke-miterlimit="10" stroke-width="1"><circle cx="24" cy="24" r="24" stroke="none"/><circle cx="24" cy="24" r="24.5" fill="none"/></g><g transform="translate(587 3250)" fill="none" stroke="#3baecc" stroke-miterlimit="10" stroke-width="1"><circle cx="12" cy="12" r="12" stroke="none"/><circle cx="12" cy="12" r="12.5" fill="none"/></g><g transform="translate(313 3250)" fill="none" stroke="#3baecc" stroke-miterlimit="10" stroke-width="1"><circle cx="6" cy="6" r="6" stroke="none"/><circle cx="6" cy="6" r="6.5" fill="none"/></g><rect width="1" height="300" transform="translate(545 3136)" fill="#5a7184"/><rect width="1" height="300" transform="translate(816 3136)" fill="#5a7184"/><text transform="translate(681 3432)" fill="#5b7183" font-size="14" font-family="OpenSans-Bold, Open Sans" font-weight="700"><tspan x="-31.773" y="0">1x radius</tspan></text><text transform="translate(410 3432)" fill="#5b7183" font-size="14" font-family="OpenSans-Bold, Open Sans" font-weight="700"><tspan x="-37.765" y="0">0.5x radius</tspan></text><text transform="translate(952 3432)" fill="#5b7183" font-size="14" font-family="OpenSans-Bold, Open Sans" font-weight="700"><tspan x="-31.773" y="0">2x radius</tspan></text></g></g></svg>