<svg xmlns="http://www.w3.org/2000/svg" width="775" height="322" viewBox="0 0 775 322"><g transform="translate(-441 -489)"><rect width="775" height="322" rx="8" transform="translate(441 489)" fill="#e7edf2"/><g transform="translate(146 -2636)"><g transform="translate(861 3214)"><rect width="12" height="192" fill="none" stroke="#c3cfda" stroke-miterlimit="10" stroke-width="0.75"/><rect width="12" height="192" transform="translate(12)" fill="none" stroke="#c3cfda" stroke-miterlimit="10" stroke-width="0.75"/><rect width="12" height="192" transform="translate(24)" fill="none" stroke="#c3cfda" stroke-miterlimit="10" stroke-width="0.75"/><rect width="12" height="192" transform="translate(36)" fill="none" stroke="#c3cfda" stroke-miterlimit="10" stroke-width="0.75"/><rect width="12" height="192" transform="translate(48)" fill="none" stroke="#c3cfda" stroke-miterlimit="10" stroke-width="0.75"/><rect width="12" height="192" transform="translate(60)" fill="none" stroke="#c3cfda" stroke-miterlimit="10" stroke-width="0.75"/><rect width="12" height="192" transform="translate(72)" fill="none" stroke="#c3cfda" stroke-miterlimit="10" stroke-width="0.75"/><rect width="12" height="192" transform="translate(84)" fill="none" stroke="#c3cfda" stroke-miterlimit="10" stroke-width="0.75"/><rect width="12" height="192" transform="translate(96)" fill="none" stroke="#c3cfda" stroke-miterlimit="10" stroke-width="0.75"/><rect width="12" height="192" transform="translate(108)" fill="none" stroke="#c3cfda" stroke-miterlimit="10" stroke-width="0.75"/><rect width="12" height="192" transform="translate(120)" fill="none" stroke="#c3cfda" stroke-miterlimit="10" stroke-width="0.75"/><rect width="12" height="192" transform="translate(132)" fill="none" stroke="#c3cfda" stroke-miterlimit="10" stroke-width="0.75"/><rect width="12" height="192" transform="translate(144)" fill="none" stroke="#c3cfda" stroke-miterlimit="10" stroke-width="0.75"/><rect width="12" height="192" transform="translate(156)" fill="none" stroke="#c3cfda" stroke-miterlimit="10" stroke-width="0.75"/><rect width="12" height="192" transform="translate(168)" fill="none" stroke="#c3cfda" stroke-miterlimit="10" stroke-width="0.75"/><rect width="12" height="192" transform="translate(180)" fill="none" stroke="#c3cfda" stroke-miterlimit="10" stroke-width="0.75"/><rect width="12" height="192" transform="translate(192 0) rotate(90)" fill="none" stroke="#c3cfda" stroke-miterlimit="10" stroke-width="0.75"/><rect width="12" height="192" transform="translate(192 12) rotate(90)" fill="none" stroke="#c3cfda" stroke-miterlimit="10" stroke-width="0.75"/><rect width="12" height="192" transform="translate(192 24) rotate(90)" fill="none" stroke="#c3cfda" stroke-miterlimit="10" stroke-width="0.75"/><rect width="12" height="192" transform="translate(192 36) rotate(90)" fill="none" stroke="#c3cfda" stroke-miterlimit="10" stroke-width="0.75"/><rect width="12" height="192" transform="translate(192 48) rotate(90)" fill="none" stroke="#c3cfda" stroke-miterlimit="10" stroke-width="0.75"/><rect width="12" height="192" transform="translate(192 60) rotate(90)" fill="none" stroke="#c3cfda" stroke-miterlimit="10" stroke-width="0.75"/><rect width="12" height="192" transform="translate(192 72) rotate(90)" fill="none" stroke="#c3cfda" stroke-miterlimit="10" stroke-width="0.75"/><rect width="12" height="192" transform="translate(192 84) rotate(90)" fill="none" stroke="#c3cfda" stroke-miterlimit="10" stroke-width="0.75"/><rect width="12" height="192" transform="translate(192 96) rotate(90)" fill="none" stroke="#c3cfda" stroke-miterlimit="10" stroke-width="0.75"/><rect width="12" height="192" transform="translate(192 108) rotate(90)" fill="none" stroke="#c3cfda" stroke-miterlimit="10" stroke-width="0.75"/><rect width="12" height="192" transform="translate(192 120) rotate(90)" fill="none" stroke="#c3cfda" stroke-miterlimit="10" stroke-width="0.75"/><rect width="12" height="192" transform="translate(192 132) rotate(90)" fill="none" stroke="#c3cfda" stroke-miterlimit="10" stroke-width="0.75"/><rect width="12" height="192" transform="translate(192 144) rotate(90)" fill="none" stroke="#c3cfda" stroke-miterlimit="10" stroke-width="0.75"/><rect width="12" height="192" transform="translate(192 156) rotate(90)" fill="none" stroke="#c3cfda" stroke-miterlimit="10" stroke-width="0.75"/><rect width="12" height="192" transform="translate(192 168) rotate(90)" fill="none" stroke="#c3cfda" stroke-miterlimit="10" stroke-width="0.75"/><rect width="12" height="192" transform="translate(192 180) rotate(90)" fill="none" stroke="#c3cfda" stroke-miterlimit="10" stroke-width="0.75"/></g><g transform="translate(587 3214)"><rect width="12" height="192" fill="none" stroke="#c3cfda" stroke-miterlimit="10" stroke-width="0.75"/><rect width="12" height="192" transform="translate(12)" fill="none" stroke="#c3cfda" stroke-miterlimit="10" stroke-width="0.75"/><rect width="12" height="192" transform="translate(24)" fill="none" stroke="#c3cfda" stroke-miterlimit="10" stroke-width="0.75"/><rect width="12" height="192" transform="translate(36)" fill="none" stroke="#c3cfda" stroke-miterlimit="10" stroke-width="0.75"/><rect width="12" height="192" transform="translate(48)" fill="none" stroke="#c3cfda" stroke-miterlimit="10" stroke-width="0.75"/><rect width="12" height="192" transform="translate(60)" fill="none" stroke="#c3cfda" stroke-miterlimit="10" stroke-width="0.75"/><rect width="12" height="192" transform="translate(72)" fill="none" stroke="#c3cfda" stroke-miterlimit="10" stroke-width="0.75"/><rect width="12" height="192" transform="translate(84)" fill="none" stroke="#c3cfda" stroke-miterlimit="10" stroke-width="0.75"/><rect width="12" height="192" transform="translate(96)" fill="none" stroke="#c3cfda" stroke-miterlimit="10" stroke-width="0.75"/><rect width="12" height="192" transform="translate(108)" fill="none" stroke="#c3cfda" stroke-miterlimit="10" stroke-width="0.75"/><rect width="12" height="192" transform="translate(120)" fill="none" stroke="#c3cfda" stroke-miterlimit="10" stroke-width="0.75"/><rect width="12" height="192" transform="translate(132)" fill="none" stroke="#c3cfda" stroke-miterlimit="10" stroke-width="0.75"/><rect width="12" height="192" transform="translate(144)" fill="none" stroke="#c3cfda" stroke-miterlimit="10" stroke-width="0.75"/><rect width="12" height="192" transform="translate(156)" fill="none" stroke="#c3cfda" stroke-miterlimit="10" stroke-width="0.75"/><rect width="12" height="192" transform="translate(168)" fill="none" stroke="#c3cfda" stroke-miterlimit="10" stroke-width="0.75"/><rect width="12" height="192" transform="translate(180)" fill="none" stroke="#c3cfda" stroke-miterlimit="10" stroke-width="0.75"/><rect width="12" height="192" transform="translate(192 0) rotate(90)" fill="none" stroke="#c3cfda" stroke-miterlimit="10" stroke-width="0.75"/><rect width="12" height="192" transform="translate(192 12) rotate(90)" fill="none" stroke="#c3cfda" stroke-miterlimit="10" stroke-width="0.75"/><rect width="12" height="192" transform="translate(192 24) rotate(90)" fill="none" stroke="#c3cfda" stroke-miterlimit="10" stroke-width="0.75"/><rect width="12" height="192" transform="translate(192 36) rotate(90)" fill="none" stroke="#c3cfda" stroke-miterlimit="10" stroke-width="0.75"/><rect width="12" height="192" transform="translate(192 48) rotate(90)" fill="none" stroke="#c3cfda" stroke-miterlimit="10" stroke-width="0.75"/><rect width="12" height="192" transform="translate(192 60) rotate(90)" fill="none" stroke="#c3cfda" stroke-miterlimit="10" stroke-width="0.75"/><rect width="12" height="192" transform="translate(192 72) rotate(90)" fill="none" stroke="#c3cfda" stroke-miterlimit="10" stroke-width="0.75"/><rect width="12" height="192" transform="translate(192 84) rotate(90)" fill="none" stroke="#c3cfda" stroke-miterlimit="10" stroke-width="0.75"/><rect width="12" height="192" transform="translate(192 96) rotate(90)" fill="none" stroke="#c3cfda" stroke-miterlimit="10" stroke-width="0.75"/><rect width="12" height="192" transform="translate(192 108) rotate(90)" fill="none" stroke="#c3cfda" stroke-miterlimit="10" stroke-width="0.75"/><rect width="12" height="192" transform="translate(192 120) rotate(90)" fill="none" stroke="#c3cfda" stroke-miterlimit="10" stroke-width="0.75"/><rect width="12" height="192" transform="translate(192 132) rotate(90)" fill="none" stroke="#c3cfda" stroke-miterlimit="10" stroke-width="0.75"/><rect width="12" height="192" transform="translate(192 144) rotate(90)" fill="none" stroke="#c3cfda" stroke-miterlimit="10" stroke-width="0.75"/><rect width="12" height="192" transform="translate(192 156) rotate(90)" fill="none" stroke="#c3cfda" stroke-miterlimit="10" stroke-width="0.75"/><rect width="12" height="192" transform="translate(192 168) rotate(90)" fill="none" stroke="#c3cfda" stroke-miterlimit="10" stroke-width="0.75"/><rect width="12" height="192" transform="translate(192 180) rotate(90)" fill="none" stroke="#c3cfda" stroke-miterlimit="10" stroke-width="0.75"/></g><g transform="translate(313 3214)"><rect width="12" height="192" fill="none" stroke="#c3cfda" stroke-miterlimit="10" stroke-width="0.75"/><rect width="12" height="192" transform="translate(12)" fill="none" stroke="#c3cfda" stroke-miterlimit="10" stroke-width="0.75"/><rect width="12" height="192" transform="translate(24)" fill="none" stroke="#c3cfda" stroke-miterlimit="10" stroke-width="0.75"/><rect width="12" height="192" transform="translate(36)" fill="none" stroke="#c3cfda" stroke-miterlimit="10" stroke-width="0.75"/><rect width="12" height="192" transform="translate(48)" fill="none" stroke="#c3cfda" stroke-miterlimit="10" stroke-width="0.75"/><rect width="12" height="192" transform="translate(60)" fill="none" stroke="#c3cfda" stroke-miterlimit="10" stroke-width="0.75"/><rect width="12" height="192" transform="translate(72)" fill="none" stroke="#c3cfda" stroke-miterlimit="10" stroke-width="0.75"/><rect width="12" height="192" transform="translate(84)" fill="none" stroke="#c3cfda" stroke-miterlimit="10" stroke-width="0.75"/><rect width="12" height="192" transform="translate(96)" fill="none" stroke="#c3cfda" stroke-miterlimit="10" stroke-width="0.75"/><rect width="12" height="192" transform="translate(108)" fill="none" stroke="#c3cfda" stroke-miterlimit="10" stroke-width="0.75"/><rect width="12" height="192" transform="translate(120)" fill="none" stroke="#c3cfda" stroke-miterlimit="10" stroke-width="0.75"/><rect width="12" height="192" transform="translate(132)" fill="none" stroke="#c3cfda" stroke-miterlimit="10" stroke-width="0.75"/><rect width="12" height="192" transform="translate(144)" fill="none" stroke="#c3cfda" stroke-miterlimit="10" stroke-width="0.75"/><rect width="12" height="192" transform="translate(156)" fill="none" stroke="#c3cfda" stroke-miterlimit="10" stroke-width="0.75"/><rect width="12" height="192" transform="translate(168)" fill="none" stroke="#c3cfda" stroke-miterlimit="10" stroke-width="0.75"/><rect width="12" height="192" transform="translate(180)" fill="none" stroke="#c3cfda" stroke-miterlimit="10" stroke-width="0.75"/><rect width="12" height="192" transform="translate(192 0) rotate(90)" fill="none" stroke="#c3cfda" stroke-miterlimit="10" stroke-width="0.75"/><rect width="12" height="192" transform="translate(192 12) rotate(90)" fill="none" stroke="#c3cfda" stroke-miterlimit="10" stroke-width="0.75"/><rect width="12" height="192" transform="translate(192 24) rotate(90)" fill="none" stroke="#c3cfda" stroke-miterlimit="10" stroke-width="0.75"/><rect width="12" height="192" transform="translate(192 36) rotate(90)" fill="none" stroke="#c3cfda" stroke-miterlimit="10" stroke-width="0.75"/><rect width="12" height="192" transform="translate(192 48) rotate(90)" fill="none" stroke="#c3cfda" stroke-miterlimit="10" stroke-width="0.75"/><rect width="12" height="192" transform="translate(192 60) rotate(90)" fill="none" stroke="#c3cfda" stroke-miterlimit="10" stroke-width="0.75"/><rect width="12" height="192" transform="translate(192 72) rotate(90)" fill="none" stroke="#c3cfda" stroke-miterlimit="10" stroke-width="0.75"/><rect width="12" height="192" transform="translate(192 84) rotate(90)" fill="none" stroke="#c3cfda" stroke-miterlimit="10" stroke-width="0.75"/><rect width="12" height="192" transform="translate(192 96) rotate(90)" fill="none" stroke="#c3cfda" stroke-miterlimit="10" stroke-width="0.75"/><rect width="12" height="192" transform="translate(192 108) rotate(90)" fill="none" stroke="#c3cfda" stroke-miterlimit="10" stroke-width="0.75"/><rect width="12" height="192" transform="translate(192 120) rotate(90)" fill="none" stroke="#c3cfda" stroke-miterlimit="10" stroke-width="0.75"/><rect width="12" height="192" transform="translate(192 132) rotate(90)" fill="none" stroke="#c3cfda" stroke-miterlimit="10" stroke-width="0.75"/><rect width="12" height="192" transform="translate(192 144) rotate(90)" fill="none" stroke="#c3cfda" stroke-miterlimit="10" stroke-width="0.75"/><rect width="12" height="192" transform="translate(192 156) rotate(90)" fill="none" stroke="#c3cfda" stroke-miterlimit="10" stroke-width="0.75"/><rect width="12" height="192" transform="translate(192 168) rotate(90)" fill="none" stroke="#c3cfda" stroke-miterlimit="10" stroke-width="0.75"/><rect width="12" height="192" transform="translate(192 180) rotate(90)" fill="none" stroke="#c3cfda" stroke-miterlimit="10" stroke-width="0.75"/></g><path d="M30,26H2a2,2,0,0,1-2-2V6A2,2,0,0,1,2,4h8V2a2,2,0,0,1,2-2h8a2,2,0,0,1,2,2V4h8a2,2,0,0,1,2,2V24A2,2,0,0,1,30,26ZM10.5,13a.5.5,0,0,0-.5.5v3a.5.5,0,0,0,.5.5H14v3.5a.5.5,0,0,0,.5.5h3a.5.5,0,0,0,.5-.5V17h3.5a.5.5,0,0,0,.5-.5v-3a.5.5,0,0,0-.5-.5H18V9.5a.5.5,0,0,0-.5-.5h-3a.5.5,0,0,0-.5.5V13Zm2-11a.5.5,0,0,0-.5.5V4h8V2.5a.5.5,0,0,0-.5-.5Z" transform="translate(667 3160)" fill="#525252"/><path d="M168,156H24A23.98,23.98,0,0,1,0,132V48A23.981,23.981,0,0,1,24,24H60V12A12,12,0,0,1,72,0h48a12,12,0,0,1,12,12V24h36a23.98,23.98,0,0,1,24,24v84a23.98,23.98,0,0,1-24,24ZM63,78a3,3,0,0,0-3,3V99a3,3,0,0,0,3,3H84v21a3,3,0,0,0,3,3h18a3,3,0,0,0,3-3V102h21a3,3,0,0,0,3-3V81a3,3,0,0,0-3-3H108V57a3,3,0,0,0-3-3H87a3,3,0,0,0-3,3V78ZM75,12a3,3,0,0,0-3,3v9h48V15a3,3,0,0,0-3-3Z" transform="translate(861 3226)" fill="#525252"/><g transform="translate(861 3214)" opacity="0.15"><rect width="12" height="192" fill="none" stroke="#c3cfda" stroke-miterlimit="10" stroke-width="0.75"/><rect width="12" height="192" transform="translate(12)" fill="none" stroke="#c3cfda" stroke-miterlimit="10" stroke-width="0.75"/><rect width="12" height="192" transform="translate(24)" fill="none" stroke="#c3cfda" stroke-miterlimit="10" stroke-width="0.75"/><rect width="12" height="192" transform="translate(36)" fill="none" stroke="#c3cfda" stroke-miterlimit="10" stroke-width="0.75"/><rect width="12" height="192" transform="translate(48)" fill="none" stroke="#c3cfda" stroke-miterlimit="10" stroke-width="0.75"/><rect width="12" height="192" transform="translate(60)" fill="none" stroke="#c3cfda" stroke-miterlimit="10" stroke-width="0.75"/><rect width="12" height="192" transform="translate(72)" fill="none" stroke="#c3cfda" stroke-miterlimit="10" stroke-width="0.75"/><rect width="12" height="192" transform="translate(84)" fill="none" stroke="#c3cfda" stroke-miterlimit="10" stroke-width="0.75"/><rect width="12" height="192" transform="translate(96)" fill="none" stroke="#c3cfda" stroke-miterlimit="10" stroke-width="0.75"/><rect width="12" height="192" transform="translate(108)" fill="none" stroke="#c3cfda" stroke-miterlimit="10" stroke-width="0.75"/><rect width="12" height="192" transform="translate(120)" fill="none" stroke="#c3cfda" stroke-miterlimit="10" stroke-width="0.75"/><rect width="12" height="192" transform="translate(132)" fill="none" stroke="#c3cfda" stroke-miterlimit="10" stroke-width="0.75"/><rect width="12" height="192" transform="translate(144)" fill="none" stroke="#c3cfda" stroke-miterlimit="10" stroke-width="0.75"/><rect width="12" height="192" transform="translate(156)" fill="none" stroke="#c3cfda" stroke-miterlimit="10" stroke-width="0.75"/><rect width="12" height="192" transform="translate(168)" fill="none" stroke="#c3cfda" stroke-miterlimit="10" stroke-width="0.75"/><rect width="12" height="192" transform="translate(180)" fill="none" stroke="#c3cfda" stroke-miterlimit="10" stroke-width="0.75"/><rect width="12" height="192" transform="translate(192 0) rotate(90)" fill="none" stroke="#c3cfda" stroke-miterlimit="10" stroke-width="0.75"/><rect width="12" height="192" transform="translate(192 12) rotate(90)" fill="none" stroke="#c3cfda" stroke-miterlimit="10" stroke-width="0.75"/><rect width="12" height="192" transform="translate(192 24) rotate(90)" fill="none" stroke="#c3cfda" stroke-miterlimit="10" stroke-width="0.75"/><rect width="12" height="192" transform="translate(192 36) rotate(90)" fill="none" stroke="#c3cfda" stroke-miterlimit="10" stroke-width="0.75"/><rect width="12" height="192" transform="translate(192 48) rotate(90)" fill="none" stroke="#c3cfda" stroke-miterlimit="10" stroke-width="0.75"/><rect width="12" height="192" transform="translate(192 60) rotate(90)" fill="none" stroke="#c3cfda" stroke-miterlimit="10" stroke-width="0.75"/><rect width="12" height="192" transform="translate(192 72) rotate(90)" fill="none" stroke="#c3cfda" stroke-miterlimit="10" stroke-width="0.75"/><rect width="12" height="192" transform="translate(192 84) rotate(90)" fill="none" stroke="#c3cfda" stroke-miterlimit="10" stroke-width="0.75"/><rect width="12" height="192" transform="translate(192 96) rotate(90)" fill="none" stroke="#c3cfda" stroke-miterlimit="10" stroke-width="0.75"/><rect width="12" height="192" transform="translate(192 108) rotate(90)" fill="none" stroke="#c3cfda" stroke-miterlimit="10" stroke-width="0.75"/><rect width="12" height="192" transform="translate(192 120) rotate(90)" fill="none" stroke="#c3cfda" stroke-miterlimit="10" stroke-width="0.75"/><rect width="12" height="192" transform="translate(192 132) rotate(90)" fill="none" stroke="#c3cfda" stroke-miterlimit="10" stroke-width="0.75"/><rect width="12" height="192" transform="translate(192 144) rotate(90)" fill="none" stroke="#c3cfda" stroke-miterlimit="10" stroke-width="0.75"/><rect width="12" height="192" transform="translate(192 156) rotate(90)" fill="none" stroke="#c3cfda" stroke-miterlimit="10" stroke-width="0.75"/><rect width="12" height="192" transform="translate(192 168) rotate(90)" fill="none" stroke="#c3cfda" stroke-miterlimit="10" stroke-width="0.75"/><rect width="12" height="192" transform="translate(192 180) rotate(90)" fill="none" stroke="#c3cfda" stroke-miterlimit="10" stroke-width="0.75"/></g><path d="M180,156H12A12,12,0,0,1,0,144V36A12,12,0,0,1,12,24H60V12A12,12,0,0,1,72,0h48a12,12,0,0,1,12,12V24h48a12,12,0,0,1,12,12V144a12,12,0,0,1-12,12ZM63,78a3,3,0,0,0-3,3V99a3,3,0,0,0,3,3H84v21a3,3,0,0,0,3,3h18a3,3,0,0,0,3-3V102h21a3,3,0,0,0,3-3V81a3,3,0,0,0-3-3H108V57a3,3,0,0,0-3-3H87a3,3,0,0,0-3,3V78ZM75,12a3,3,0,0,0-3,3v9h48V15a3,3,0,0,0-3-3Z" transform="translate(587 3226)" fill="#525252"/><g transform="translate(587 3214)" opacity="0.15"><rect width="12" height="192" fill="none" stroke="#c3cfda" stroke-miterlimit="10" stroke-width="0.75"/><rect width="12" height="192" transform="translate(12)" fill="none" stroke="#c3cfda" stroke-miterlimit="10" stroke-width="0.75"/><rect width="12" height="192" transform="translate(24)" fill="none" stroke="#c3cfda" stroke-miterlimit="10" stroke-width="0.75"/><rect width="12" height="192" transform="translate(36)" fill="none" stroke="#c3cfda" stroke-miterlimit="10" stroke-width="0.75"/><rect width="12" height="192" transform="translate(48)" fill="none" stroke="#c3cfda" stroke-miterlimit="10" stroke-width="0.75"/><rect width="12" height="192" transform="translate(60)" fill="none" stroke="#c3cfda" stroke-miterlimit="10" stroke-width="0.75"/><rect width="12" height="192" transform="translate(72)" fill="none" stroke="#c3cfda" stroke-miterlimit="10" stroke-width="0.75"/><rect width="12" height="192" transform="translate(84)" fill="none" stroke="#c3cfda" stroke-miterlimit="10" stroke-width="0.75"/><rect width="12" height="192" transform="translate(96)" fill="none" stroke="#c3cfda" stroke-miterlimit="10" stroke-width="0.75"/><rect width="12" height="192" transform="translate(108)" fill="none" stroke="#c3cfda" stroke-miterlimit="10" stroke-width="0.75"/><rect width="12" height="192" transform="translate(120)" fill="none" stroke="#c3cfda" stroke-miterlimit="10" stroke-width="0.75"/><rect width="12" height="192" transform="translate(132)" fill="none" stroke="#c3cfda" stroke-miterlimit="10" stroke-width="0.75"/><rect width="12" height="192" transform="translate(144)" fill="none" stroke="#c3cfda" stroke-miterlimit="10" stroke-width="0.75"/><rect width="12" height="192" transform="translate(156)" fill="none" stroke="#c3cfda" stroke-miterlimit="10" stroke-width="0.75"/><rect width="12" height="192" transform="translate(168)" fill="none" stroke="#c3cfda" stroke-miterlimit="10" stroke-width="0.75"/><rect width="12" height="192" transform="translate(180)" fill="none" stroke="#c3cfda" stroke-miterlimit="10" stroke-width="0.75"/><rect width="12" height="192" transform="translate(192 0) rotate(90)" fill="none" stroke="#c3cfda" stroke-miterlimit="10" stroke-width="0.75"/><rect width="12" height="192" transform="translate(192 12) rotate(90)" fill="none" stroke="#c3cfda" stroke-miterlimit="10" stroke-width="0.75"/><rect width="12" height="192" transform="translate(192 24) rotate(90)" fill="none" stroke="#c3cfda" stroke-miterlimit="10" stroke-width="0.75"/><rect width="12" height="192" transform="translate(192 36) rotate(90)" fill="none" stroke="#c3cfda" stroke-miterlimit="10" stroke-width="0.75"/><rect width="12" height="192" transform="translate(192 48) rotate(90)" fill="none" stroke="#c3cfda" stroke-miterlimit="10" stroke-width="0.75"/><rect width="12" height="192" transform="translate(192 60) rotate(90)" fill="none" stroke="#c3cfda" stroke-miterlimit="10" stroke-width="0.75"/><rect width="12" height="192" transform="translate(192 72) rotate(90)" fill="none" stroke="#c3cfda" stroke-miterlimit="10" stroke-width="0.75"/><rect width="12" height="192" transform="translate(192 84) rotate(90)" fill="none" stroke="#c3cfda" stroke-miterlimit="10" stroke-width="0.75"/><rect width="12" height="192" transform="translate(192 96) rotate(90)" fill="none" stroke="#c3cfda" stroke-miterlimit="10" stroke-width="0.75"/><rect width="12" height="192" transform="translate(192 108) rotate(90)" fill="none" stroke="#c3cfda" stroke-miterlimit="10" stroke-width="0.75"/><rect width="12" height="192" transform="translate(192 120) rotate(90)" fill="none" stroke="#c3cfda" stroke-miterlimit="10" stroke-width="0.75"/><rect width="12" height="192" transform="translate(192 132) rotate(90)" fill="none" stroke="#c3cfda" stroke-miterlimit="10" stroke-width="0.75"/><rect width="12" height="192" transform="translate(192 144) rotate(90)" fill="none" stroke="#c3cfda" stroke-miterlimit="10" stroke-width="0.75"/><rect width="12" height="192" transform="translate(192 156) rotate(90)" fill="none" stroke="#c3cfda" stroke-miterlimit="10" stroke-width="0.75"/><rect width="12" height="192" transform="translate(192 168) rotate(90)" fill="none" stroke="#c3cfda" stroke-miterlimit="10" stroke-width="0.75"/><rect width="12" height="192" transform="translate(192 180) rotate(90)" fill="none" stroke="#c3cfda" stroke-miterlimit="10" stroke-width="0.75"/></g><path d="M31,26H1a1,1,0,0,1-1-1V5A1,1,0,0,1,1,4h9V2a2,2,0,0,1,2-2h8a2,2,0,0,1,2,2V4h9a1,1,0,0,1,1,1V25A1,1,0,0,1,31,26ZM10.5,13a.5.5,0,0,0-.5.5v3a.5.5,0,0,0,.5.5H14v3.5a.5.5,0,0,0,.5.5h3a.5.5,0,0,0,.5-.5V17h3.5a.5.5,0,0,0,.5-.5v-3a.5.5,0,0,0-.5-.5H18V9.5a.5.5,0,0,0-.5-.5h-3a.5.5,0,0,0-.5.5V13Zm2-11a.5.5,0,0,0-.5.5V4h8V2.5a.5.5,0,0,0-.5-.5Z" transform="translate(393 3160)" fill="#525252"/><path d="M186,156H6a6.007,6.007,0,0,1-6-6V30a6.007,6.007,0,0,1,6-6H60V12A12,12,0,0,1,72,0h48a12,12,0,0,1,12,12V24h54a6.006,6.006,0,0,1,6,6V150A6.006,6.006,0,0,1,186,156ZM63,78a3,3,0,0,0-3,3V99a3,3,0,0,0,3,3H84v21a3,3,0,0,0,3,3h18a3,3,0,0,0,3-3V102h21a3,3,0,0,0,3-3V81a3,3,0,0,0-3-3H108V57a3,3,0,0,0-3-3H87a3,3,0,0,0-3,3V78ZM75,12a3,3,0,0,0-3,3v9h48V15a3,3,0,0,0-3-3Z" transform="translate(313 3226)" fill="#525252"/><g transform="translate(313 3214)" opacity="0.15"><rect width="12" height="192" fill="none" stroke="#c3cfda" stroke-miterlimit="10" stroke-width="0.75"/><rect width="12" height="192" transform="translate(12)" fill="none" stroke="#c3cfda" stroke-miterlimit="10" stroke-width="0.75"/><rect width="12" height="192" transform="translate(24)" fill="none" stroke="#c3cfda" stroke-miterlimit="10" stroke-width="0.75"/><rect width="12" height="192" transform="translate(36)" fill="none" stroke="#c3cfda" stroke-miterlimit="10" stroke-width="0.75"/><rect width="12" height="192" transform="translate(48)" fill="none" stroke="#c3cfda" stroke-miterlimit="10" stroke-width="0.75"/><rect width="12" height="192" transform="translate(60)" fill="none" stroke="#c3cfda" stroke-miterlimit="10" stroke-width="0.75"/><rect width="12" height="192" transform="translate(72)" fill="none" stroke="#c3cfda" stroke-miterlimit="10" stroke-width="0.75"/><rect width="12" height="192" transform="translate(84)" fill="none" stroke="#c3cfda" stroke-miterlimit="10" stroke-width="0.75"/><rect width="12" height="192" transform="translate(96)" fill="none" stroke="#c3cfda" stroke-miterlimit="10" stroke-width="0.75"/><rect width="12" height="192" transform="translate(108)" fill="none" stroke="#c3cfda" stroke-miterlimit="10" stroke-width="0.75"/><rect width="12" height="192" transform="translate(120)" fill="none" stroke="#c3cfda" stroke-miterlimit="10" stroke-width="0.75"/><rect width="12" height="192" transform="translate(132)" fill="none" stroke="#c3cfda" stroke-miterlimit="10" stroke-width="0.75"/><rect width="12" height="192" transform="translate(144)" fill="none" stroke="#c3cfda" stroke-miterlimit="10" stroke-width="0.75"/><rect width="12" height="192" transform="translate(156)" fill="none" stroke="#c3cfda" stroke-miterlimit="10" stroke-width="0.75"/><rect width="12" height="192" transform="translate(168)" fill="none" stroke="#c3cfda" stroke-miterlimit="10" stroke-width="0.75"/><rect width="12" height="192" transform="translate(180)" fill="none" stroke="#c3cfda" stroke-miterlimit="10" stroke-width="0.75"/><rect width="12" height="192" transform="translate(192 0) rotate(90)" fill="none" stroke="#c3cfda" stroke-miterlimit="10" stroke-width="0.75"/><rect width="12" height="192" transform="translate(192 12) rotate(90)" fill="none" stroke="#c3cfda" stroke-miterlimit="10" stroke-width="0.75"/><rect width="12" height="192" transform="translate(192 24) rotate(90)" fill="none" stroke="#c3cfda" stroke-miterlimit="10" stroke-width="0.75"/><rect width="12" height="192" transform="translate(192 36) rotate(90)" fill="none" stroke="#c3cfda" stroke-miterlimit="10" stroke-width="0.75"/><rect width="12" height="192" transform="translate(192 48) rotate(90)" fill="none" stroke="#c3cfda" stroke-miterlimit="10" stroke-width="0.75"/><rect width="12" height="192" transform="translate(192 60) rotate(90)" fill="none" stroke="#c3cfda" stroke-miterlimit="10" stroke-width="0.75"/><rect width="12" height="192" transform="translate(192 72) rotate(90)" fill="none" stroke="#c3cfda" stroke-miterlimit="10" stroke-width="0.75"/><rect width="12" height="192" transform="translate(192 84) rotate(90)" fill="none" stroke="#c3cfda" stroke-miterlimit="10" stroke-width="0.75"/><rect width="12" height="192" transform="translate(192 96) rotate(90)" fill="none" stroke="#c3cfda" stroke-miterlimit="10" stroke-width="0.75"/><rect width="12" height="192" transform="translate(192 108) rotate(90)" fill="none" stroke="#c3cfda" stroke-miterlimit="10" stroke-width="0.75"/><rect width="12" height="192" transform="translate(192 120) rotate(90)" fill="none" stroke="#c3cfda" stroke-miterlimit="10" stroke-width="0.75"/><rect width="12" height="192" transform="translate(192 132) rotate(90)" fill="none" stroke="#c3cfda" stroke-miterlimit="10" stroke-width="0.75"/><rect width="12" height="192" transform="translate(192 144) rotate(90)" fill="none" stroke="#c3cfda" stroke-miterlimit="10" stroke-width="0.75"/><rect width="12" height="192" transform="translate(192 156) rotate(90)" fill="none" stroke="#c3cfda" stroke-miterlimit="10" stroke-width="0.75"/><rect width="12" height="192" transform="translate(192 168) rotate(90)" fill="none" stroke="#c3cfda" stroke-miterlimit="10" stroke-width="0.75"/><rect width="12" height="192" transform="translate(192 180) rotate(90)" fill="none" stroke="#c3cfda" stroke-miterlimit="10" stroke-width="0.75"/></g><path d="M28,26H4a4,4,0,0,1-4-4V8A4,4,0,0,1,4,4h6V2a2,2,0,0,1,2-2h8a2,2,0,0,1,2,2V4h6a4.005,4.005,0,0,1,4,4V22A4.005,4.005,0,0,1,28,26ZM10.5,13a.5.5,0,0,0-.5.5v3a.5.5,0,0,0,.5.5H14v3.5a.5.5,0,0,0,.5.5h3a.5.5,0,0,0,.5-.5V17h3.5a.5.5,0,0,0,.5-.5v-3a.5.5,0,0,0-.5-.5H18V9.5a.5.5,0,0,0-.5-.5h-3a.5.5,0,0,0-.5.5V13Zm2-11a.5.5,0,0,0-.5.5V4h8V2.5a.5.5,0,0,0-.5-.5Z" transform="translate(941 3160)" fill="#525252"/><path d="M0,24A24,24,0,0,1,24,0V24Z" transform="translate(861 3250)" fill="#3baecc" opacity="0.663"/><path d="M0,12A12,12,0,0,1,12,0V12Z" transform="translate(587 3250)" fill="#3baecc" opacity="0.663"/><path d="M0,6A6,6,0,0,1,6,0V6Z" transform="translate(313 3250)" fill="#3baecc" opacity="0.663"/><g transform="translate(861 3250)" fill="none" stroke="#3baecc" stroke-miterlimit="10" stroke-width="1"><circle cx="24" cy="24" r="24" stroke="none"/><circle cx="24" cy="24" r="24.5" fill="none"/></g><g transform="translate(587 3250)" fill="none" stroke="#3baecc" stroke-miterlimit="10" stroke-width="1"><circle cx="12" cy="12" r="12" stroke="none"/><circle cx="12" cy="12" r="12.5" fill="none"/></g><g transform="translate(313 3250)" fill="none" stroke="#3baecc" stroke-miterlimit="10" stroke-width="1"><circle cx="6" cy="6" r="6" stroke="none"/><circle cx="6" cy="6" r="6.5" fill="none"/></g><rect width="1" height="300" transform="translate(545 3136)" fill="#557b92"/><rect width="1" height="300" transform="translate(816 3136)" fill="#557b92"/><path d="M-25.99,0H-28.1V-5.783l.021-.95.034-1.039q-.526.526-.731.69l-1.148.923-1.019-1.271,3.22-2.563h1.736Zm4.867-3.9-2.461-3.739h2.365l1.483,2.434,1.5-2.434h2.365L-18.361-3.9l2.6,3.9h-2.372l-1.606-2.618L-21.349,0h-2.365ZM-6.692-7.786a3.362,3.362,0,0,1,.7.062L-6.146-5.77a2.388,2.388,0,0,0-.615-.068,2.211,2.211,0,0,0-1.555.513A1.853,1.853,0,0,0-8.873-3.89V0h-2.085V-7.643h1.579l.308,1.285h.1a2.873,2.873,0,0,1,.96-1.036A2.368,2.368,0,0,1-6.692-7.786ZM-.027,0l-.4-1.039H-.485A3.079,3.079,0,0,1-1.569-.12,3.5,3.5,0,0,1-3.021.137,2.349,2.349,0,0,1-4.754-.492a2.415,2.415,0,0,1-.632-1.791,2.017,2.017,0,0,1,.851-1.794,4.932,4.932,0,0,1,2.567-.639l1.326-.041v-.335A1.039,1.039,0,0,0-1.832-6.255,5.42,5.42,0,0,0-3.985-5.7l-.69-1.408A6.213,6.213,0,0,1-1.75-7.8a3.644,3.644,0,0,1,2.358.67,2.476,2.476,0,0,1,.82,2.037V0ZM-.643-3.541l-.807.027A2.583,2.583,0,0,0-2.8-3.186a1.031,1.031,0,0,0-.444.916q0,.882,1.012.882A1.6,1.6,0,0,0-1.077-1.8,1.465,1.465,0,0,0-.643-2.912ZM6,.137A2.482,2.482,0,0,1,3.879-.909a4.808,4.808,0,0,1-.769-2.9,4.813,4.813,0,0,1,.783-2.929A2.542,2.542,0,0,1,6.05-7.786a2.493,2.493,0,0,1,2.2,1.121h.068a8.524,8.524,0,0,1-.157-1.524v-2.447h2.092V0h-1.6l-.4-.991H8.162A2.386,2.386,0,0,1,6,.137Zm.731-1.661A1.413,1.413,0,0,0,7.9-1.989a2.7,2.7,0,0,0,.407-1.579v-.226a3.125,3.125,0,0,0-.379-1.764,1.409,1.409,0,0,0-1.234-.533A1.224,1.224,0,0,0,5.609-5.5,3.155,3.155,0,0,0,5.223-3.78a2.99,2.99,0,0,0,.39,1.692A1.273,1.273,0,0,0,6.727-1.524Zm5.619-8.094q0-1.019,1.135-1.019t1.135,1.019a.993.993,0,0,1-.284.755,1.192,1.192,0,0,1-.851.27Q12.346-8.593,12.346-9.618ZM14.52,0H12.435V-7.643H14.52Zm7.6,0-.28-.978h-.109a2.2,2.2,0,0,1-.95.824,3.244,3.244,0,0,1-1.4.291,2.669,2.669,0,0,1-2.03-.721,2.9,2.9,0,0,1-.684-2.075V-7.643h2.085v4.464a2.144,2.144,0,0,0,.294,1.241,1.069,1.069,0,0,0,.937.414,1.408,1.408,0,0,0,1.265-.584,3.625,3.625,0,0,0,.39-1.938v-3.6h2.085V0ZM31.24-2.27a2.1,2.1,0,0,1-.817,1.791,4.036,4.036,0,0,1-2.444.615A7.676,7.676,0,0,1,26.558.024a5.378,5.378,0,0,1-1.1-.332V-2.03a7.268,7.268,0,0,0,1.309.458,5.3,5.3,0,0,0,1.282.185q1.135,0,1.135-.656a.548.548,0,0,0-.15-.4,2.18,2.18,0,0,0-.52-.349q-.369-.195-.984-.455a6.184,6.184,0,0,1-1.3-.684,1.924,1.924,0,0,1-.6-.721,2.381,2.381,0,0,1-.188-1,1.815,1.815,0,0,1,.79-1.576,3.846,3.846,0,0,1,2.239-.557,6.355,6.355,0,0,1,2.687.6l-.629,1.5q-.574-.246-1.073-.4a3.37,3.37,0,0,0-1.019-.157q-.923,0-.923.5a.587.587,0,0,0,.3.485,8.087,8.087,0,0,0,1.3.608,6.05,6.05,0,0,1,1.313.677,2,2,0,0,1,.615.725A2.227,2.227,0,0,1,31.24-2.27Z" transform="translate(681 3432)" fill="#5b7183"/><path d="M-30.273-5a6.966,6.966,0,0,1-.858,3.876A2.977,2.977,0,0,1-33.773.137a2.943,2.943,0,0,1-2.608-1.3A6.867,6.867,0,0,1-37.259-5,7.033,7.033,0,0,1-36.4-8.9a2.964,2.964,0,0,1,2.632-1.254,2.95,2.95,0,0,1,2.615,1.313A6.881,6.881,0,0,1-30.273-5Zm-4.888,0a7.776,7.776,0,0,0,.318,2.635,1.1,1.1,0,0,0,1.07.8,1.112,1.112,0,0,0,1.066-.807A7.56,7.56,0,0,0-32.378-5a7.538,7.538,0,0,0-.332-2.642,1.114,1.114,0,0,0-1.063-.8,1.1,1.1,0,0,0-1.066.8A7.762,7.762,0,0,0-35.161-5Zm6.187,4.02a1.146,1.146,0,0,1,.308-.868,1.247,1.247,0,0,1,.9-.294,1.212,1.212,0,0,1,.878.3,1.143,1.143,0,0,1,.311.861,1.143,1.143,0,0,1-.314.851,1.19,1.19,0,0,1-.875.311,1.226,1.226,0,0,1-.889-.3A1.138,1.138,0,0,1-28.974-.978Zm7.39-5.407a3.215,3.215,0,0,1,2.307.813,2.924,2.924,0,0,1,.858,2.229A3.24,3.24,0,0,1-19.452-.766a4.351,4.351,0,0,1-2.953.9A5.784,5.784,0,0,1-25.1-.4V-2.229a5.591,5.591,0,0,0,1.258.468,5.565,5.565,0,0,0,1.36.181q1.935,0,1.935-1.586,0-1.511-2-1.511a4.973,4.973,0,0,0-.8.072,5.852,5.852,0,0,0-.711.154L-24.9-4.9l.376-5.093H-19.1V-8.2h-3.568l-.185,1.962.239-.048A4.705,4.705,0,0,1-21.584-6.385ZM-15.131-3.9l-2.461-3.739h2.365l1.483,2.434,1.5-2.434h2.365L-12.37-3.9l2.6,3.9h-2.372l-1.606-2.618L-15.357,0h-2.365ZM-.7-7.786a3.362,3.362,0,0,1,.7.062L-.154-5.77a2.388,2.388,0,0,0-.615-.068,2.211,2.211,0,0,0-1.555.513A1.853,1.853,0,0,0-2.881-3.89V0H-4.966V-7.643h1.579l.308,1.285h.1a2.873,2.873,0,0,1,.96-1.036A2.368,2.368,0,0,1-.7-7.786ZM5.964,0l-.4-1.039H5.506A3.079,3.079,0,0,1,4.423-.12,3.5,3.5,0,0,1,2.97.137,2.349,2.349,0,0,1,1.237-.492,2.415,2.415,0,0,1,.6-2.283a2.017,2.017,0,0,1,.851-1.794,4.932,4.932,0,0,1,2.567-.639l1.326-.041v-.335A1.039,1.039,0,0,0,4.16-6.255,5.42,5.42,0,0,0,2.006-5.7l-.69-1.408A6.213,6.213,0,0,1,4.242-7.8,3.644,3.644,0,0,1,6.6-7.13a2.476,2.476,0,0,1,.82,2.037V0ZM5.349-3.541l-.807.027a2.583,2.583,0,0,0-1.354.328,1.031,1.031,0,0,0-.444.916q0,.882,1.012.882A1.6,1.6,0,0,0,4.915-1.8a1.465,1.465,0,0,0,.434-1.107ZM11.987.137A2.482,2.482,0,0,1,9.871-.909a4.808,4.808,0,0,1-.769-2.9,4.813,4.813,0,0,1,.783-2.929,2.542,2.542,0,0,1,2.157-1.049,2.493,2.493,0,0,1,2.2,1.121h.068a8.524,8.524,0,0,1-.157-1.524v-2.447h2.092V0h-1.6l-.4-.991h-.089A2.386,2.386,0,0,1,11.987.137Zm.731-1.661a1.413,1.413,0,0,0,1.172-.465A2.7,2.7,0,0,0,14.3-3.568v-.226a3.125,3.125,0,0,0-.379-1.764,1.409,1.409,0,0,0-1.234-.533A1.224,1.224,0,0,0,11.6-5.5a3.155,3.155,0,0,0-.386,1.719,2.99,2.99,0,0,0,.39,1.692A1.273,1.273,0,0,0,12.718-1.524Zm5.619-8.094q0-1.019,1.135-1.019t1.135,1.019a.993.993,0,0,1-.284.755,1.192,1.192,0,0,1-.851.27Q18.337-8.593,18.337-9.618ZM20.511,0H18.426V-7.643h2.085Zm7.6,0-.28-.978h-.109a2.2,2.2,0,0,1-.95.824,3.244,3.244,0,0,1-1.4.291,2.669,2.669,0,0,1-2.03-.721,2.9,2.9,0,0,1-.684-2.075V-7.643h2.085v4.464a2.144,2.144,0,0,0,.294,1.241,1.069,1.069,0,0,0,.937.414,1.408,1.408,0,0,0,1.265-.584,3.625,3.625,0,0,0,.39-1.938v-3.6h2.085V0Zm9.119-2.27a2.1,2.1,0,0,1-.817,1.791,4.036,4.036,0,0,1-2.444.615A7.676,7.676,0,0,1,32.549.024a5.378,5.378,0,0,1-1.1-.332V-2.03a7.268,7.268,0,0,0,1.309.458,5.3,5.3,0,0,0,1.282.185q1.135,0,1.135-.656a.548.548,0,0,0-.15-.4,2.18,2.18,0,0,0-.52-.349q-.369-.195-.984-.455a6.184,6.184,0,0,1-1.3-.684,1.924,1.924,0,0,1-.6-.721,2.381,2.381,0,0,1-.188-1,1.815,1.815,0,0,1,.79-1.576,3.846,3.846,0,0,1,2.239-.557,6.355,6.355,0,0,1,2.687.6l-.629,1.5q-.574-.246-1.073-.4a3.37,3.37,0,0,0-1.019-.157q-.923,0-.923.5a.587.587,0,0,0,.3.485,8.087,8.087,0,0,0,1.3.608,6.05,6.05,0,0,1,1.313.677,2,2,0,0,1,.615.725A2.227,2.227,0,0,1,37.232-2.27Z" transform="translate(410 3432)" fill="#5b7183"/><path d="M-24.227,0h-6.986V-1.47L-28.7-4.006q1.114-1.142,1.456-1.583a3.48,3.48,0,0,0,.492-.817,2.08,2.08,0,0,0,.15-.779,1.136,1.136,0,0,0-.332-.9,1.286,1.286,0,0,0-.885-.294,2.546,2.546,0,0,0-1.128.267,5.821,5.821,0,0,0-1.142.759l-1.148-1.36A7.492,7.492,0,0,1-30.017-9.6a4.492,4.492,0,0,1,1.06-.4,5.429,5.429,0,0,1,1.285-.14,3.805,3.805,0,0,1,1.654.342,2.639,2.639,0,0,1,1.114.957,2.542,2.542,0,0,1,.4,1.408,3.447,3.447,0,0,1-.243,1.3A4.974,4.974,0,0,1-25.5-4.895,18.383,18.383,0,0,1-27.3-3.083l-1.285,1.21v.1h4.354Zm3.1-3.9-2.461-3.739h2.365l1.483,2.434,1.5-2.434h2.365L-18.361-3.9l2.6,3.9h-2.372l-1.606-2.618L-21.349,0h-2.365ZM-6.692-7.786a3.362,3.362,0,0,1,.7.062L-6.146-5.77a2.388,2.388,0,0,0-.615-.068,2.211,2.211,0,0,0-1.555.513A1.853,1.853,0,0,0-8.873-3.89V0h-2.085V-7.643h1.579l.308,1.285h.1a2.873,2.873,0,0,1,.96-1.036A2.368,2.368,0,0,1-6.692-7.786ZM-.027,0l-.4-1.039H-.485A3.079,3.079,0,0,1-1.569-.12,3.5,3.5,0,0,1-3.021.137,2.349,2.349,0,0,1-4.754-.492a2.415,2.415,0,0,1-.632-1.791,2.017,2.017,0,0,1,.851-1.794,4.932,4.932,0,0,1,2.567-.639l1.326-.041v-.335A1.039,1.039,0,0,0-1.832-6.255,5.42,5.42,0,0,0-3.985-5.7l-.69-1.408A6.213,6.213,0,0,1-1.75-7.8a3.644,3.644,0,0,1,2.358.67,2.476,2.476,0,0,1,.82,2.037V0ZM-.643-3.541l-.807.027A2.583,2.583,0,0,0-2.8-3.186a1.031,1.031,0,0,0-.444.916q0,.882,1.012.882A1.6,1.6,0,0,0-1.077-1.8,1.465,1.465,0,0,0-.643-2.912ZM6,.137A2.482,2.482,0,0,1,3.879-.909a4.808,4.808,0,0,1-.769-2.9,4.813,4.813,0,0,1,.783-2.929A2.542,2.542,0,0,1,6.05-7.786a2.493,2.493,0,0,1,2.2,1.121h.068a8.524,8.524,0,0,1-.157-1.524v-2.447h2.092V0h-1.6l-.4-.991H8.162A2.386,2.386,0,0,1,6,.137Zm.731-1.661A1.413,1.413,0,0,0,7.9-1.989a2.7,2.7,0,0,0,.407-1.579v-.226a3.125,3.125,0,0,0-.379-1.764,1.409,1.409,0,0,0-1.234-.533A1.224,1.224,0,0,0,5.609-5.5,3.155,3.155,0,0,0,5.223-3.78a2.99,2.99,0,0,0,.39,1.692A1.273,1.273,0,0,0,6.727-1.524Zm5.619-8.094q0-1.019,1.135-1.019t1.135,1.019a.993.993,0,0,1-.284.755,1.192,1.192,0,0,1-.851.27Q12.346-8.593,12.346-9.618ZM14.52,0H12.435V-7.643H14.52Zm7.6,0-.28-.978h-.109a2.2,2.2,0,0,1-.95.824,3.244,3.244,0,0,1-1.4.291,2.669,2.669,0,0,1-2.03-.721,2.9,2.9,0,0,1-.684-2.075V-7.643h2.085v4.464a2.144,2.144,0,0,0,.294,1.241,1.069,1.069,0,0,0,.937.414,1.408,1.408,0,0,0,1.265-.584,3.625,3.625,0,0,0,.39-1.938v-3.6h2.085V0ZM31.24-2.27a2.1,2.1,0,0,1-.817,1.791,4.036,4.036,0,0,1-2.444.615A7.676,7.676,0,0,1,26.558.024a5.378,5.378,0,0,1-1.1-.332V-2.03a7.268,7.268,0,0,0,1.309.458,5.3,5.3,0,0,0,1.282.185q1.135,0,1.135-.656a.548.548,0,0,0-.15-.4,2.18,2.18,0,0,0-.52-.349q-.369-.195-.984-.455a6.184,6.184,0,0,1-1.3-.684,1.924,1.924,0,0,1-.6-.721,2.381,2.381,0,0,1-.188-1,1.815,1.815,0,0,1,.79-1.576,3.846,3.846,0,0,1,2.239-.557,6.355,6.355,0,0,1,2.687.6l-.629,1.5q-.574-.246-1.073-.4a3.37,3.37,0,0,0-1.019-.157q-.923,0-.923.5a.587.587,0,0,0,.3.485,8.087,8.087,0,0,0,1.3.608,6.05,6.05,0,0,1,1.313.677,2,2,0,0,1,.615.725A2.227,2.227,0,0,1,31.24-2.27Z" transform="translate(952 3432)" fill="#5b7183"/></g></g></svg>