<svg xmlns="http://www.w3.org/2000/svg" width="775" height="322" viewBox="0 0 775 322"><g transform="translate(-441 -489)"><rect width="775" height="322" rx="8" transform="translate(441 489)" fill="#e7edf2"/><path d="M88.63,83.594H57.025V56.006H43.284V83.592H11.679V36.2H0L21.525,20.663V4.889H32.978V12.4L50.154,0,100.31,36.2H88.63V83.592ZM64.7,47.355V58.849H76.263V47.355Zm-40.654,0V58.849H35.608V47.355Z" transform="translate(724.707 608.204)" fill="#1a8573"/><path d="M23.8,133.747H20.108a2.57,2.57,0,0,1-2.557-2.577V118H8.8v13.174a2.568,2.568,0,0,1-2.554,2.577H2.554A2.568,2.568,0,0,1,0,131.171V98.487a2.58,2.58,0,0,1,.493-1.525l1.844-2.539a2.539,2.539,0,0,1,4.123,0L8.3,96.962A2.58,2.58,0,0,1,8.8,98.487v10.632h8.755V98.487a2.632,2.632,0,0,1,.493-1.525l1.847-2.539a2.539,2.539,0,0,1,4.123,0l1.844,2.539a2.58,2.58,0,0,1,.493,1.525v10.632h7.9l-.03-56.23h-.785c-.9,0-2.631,0-4.12-.012a2.526,2.526,0,0,1-2.143-1.223l-5.826-9.487a2.608,2.608,0,0,1,.845-3.56C83.947,0,83.993,0,86.385,0c1.7,0,2.21,0,24.013,13.5V2.579A2.57,2.57,0,0,1,112.952,0H128.1a2.571,2.571,0,0,1,2.557,2.579V26.1l.81.5c5.616,3.5,11.955,7.454,19.142,11.937a2.606,2.606,0,0,1,.854,3.559l-5.808,9.476a2.567,2.567,0,0,1-2.174,1.225l-4.738,0,.028,55.681H146.4V97.848a2.632,2.632,0,0,1,.493-1.525l1.844-2.543a2.54,2.54,0,0,1,4.121,0l1.848,2.543a2.632,2.632,0,0,1,.493,1.525v10.632h8.755V97.848a2.573,2.573,0,0,1,.493-1.525l1.844-2.543a2.54,2.54,0,0,1,4.121,0l1.848,2.543a2.632,2.632,0,0,1,.493,1.525v32.684a2.57,2.57,0,0,1-2.557,2.577h-3.69a2.568,2.568,0,0,1-2.553-2.577V117.357H155.2v13.174a2.57,2.57,0,0,1-2.557,2.577h-3.686a2.57,2.57,0,0,1-2.557-2.577V117.357h-7.626l.006,13.119a2.563,2.563,0,0,1-.746,1.823,2.534,2.534,0,0,1-1.807.756l-56.867.031-.021-41.841a1.025,1.025,0,0,0-1.021-1.027l-23.758.011a1.025,1.025,0,0,0-1.019,1.028l.021,41.839-16.746.01a2.568,2.568,0,0,1-2.554-2.577L34.256,118h-7.9v13.174A2.568,2.568,0,0,1,23.8,133.747Zm94.941-44.772-24.348.016a.728.728,0,0,0-.727.727l.013,21.194a.729.729,0,0,0,.727.73l24.347-.011a.729.729,0,0,0,.725-.731l-.013-21.194A.728.728,0,0,0,118.738,88.975ZM78.6,52.007l-24.353.011a.727.727,0,0,0-.721.731l.011,21.192a.731.731,0,0,0,.211.515.707.707,0,0,0,.508.214l24.357-.011a.728.728,0,0,0,.723-.731l-.011-21.194A.727.727,0,0,0,78.6,52.007Zm40.123-.021L94.369,52a.726.726,0,0,0-.721.73l.01,21.194a.726.726,0,0,0,.724.727l24.348-.011a.728.728,0,0,0,.724-.731l-.013-21.194A.725.725,0,0,0,118.72,51.986Z" transform="translate(933.686 583.126)" fill="#1a8573"/><path d="M15.883,23.684V13.326H9.195V23.684H2.09V13.326H0L12.539,0,25.078,13.326h-2.09V23.684Z" transform="translate(550.557 638.854)" fill="#1a8573"/></g></svg>