<svg xmlns="http://www.w3.org/2000/svg" width="17.392" height="16" viewBox="0 0 17.392 16"><path d="M16.388,16H1a.975.975,0,0,1-.711-.292A.966.966,0,0,1,0,15V11.667a.966.966,0,0,1,.293-.708A.975.975,0,0,1,1,10.667h4.86l1.41,1.417a2.024,2.024,0,0,0,2.843,0l1.422-1.417h4.849a1,1,0,0,1,1,1V15a1,1,0,0,1-1,1Zm-1-2.667a.649.649,0,0,0-.471.2.653.653,0,0,0,0,.937.658.658,0,0,0,.941,0,.653.653,0,0,0,0-.937A.649.649,0,0,0,15.385,13.333Zm-2.676,0A.678.678,0,0,0,12.04,14a.637.637,0,0,0,.2.468.664.664,0,1,0,.47-1.135Zm-4.013-2a.629.629,0,0,1-.471-.2L3.543,6.468A.6.6,0,0,1,3.4,5.739a.628.628,0,0,1,.616-.406H6.689V.667A.644.644,0,0,1,6.888.2a.645.645,0,0,1,.47-.2h2.676A.646.646,0,0,1,10.5.2a.644.644,0,0,1,.2.469V5.333h2.676a.628.628,0,0,1,.617.406.6.6,0,0,1-.147.729L9.166,11.136A.625.625,0,0,1,8.7,11.334Z" fill="#fff"/></svg>