<svg xmlns="http://www.w3.org/2000/svg" width="775" height="284" viewBox="0 0 775 284"><rect width="775" height="284" rx="4" fill="#015294"/><rect width="775" height="284" rx="4" fill="none"/><g transform="translate(38 32)"><path d="M18.333,0h-.421a1.656,1.656,0,0,0-1.179.494l-3.4,3.443V1.688A1.677,1.677,0,0,0,11.667,0h-10A1.677,1.677,0,0,0,0,1.688V11.813A1.677,1.677,0,0,0,1.667,13.5h10a1.677,1.677,0,0,0,1.667-1.687V9.563l3.4,3.443a1.656,1.656,0,0,0,1.179.494h.421A1.677,1.677,0,0,0,20,11.813V1.688A1.677,1.677,0,0,0,18.333,0Z" transform="translate(640 3.25)" fill="#3baecc"/><path d="M17.372,15.75H2.628a1.661,1.661,0,0,1-1.473-.9A10.267,10.267,0,0,1,0,10.125,10.074,10.074,0,0,1,10,0,10.074,10.074,0,0,1,20,10.125a10.228,10.228,0,0,1-1.154,4.726A1.662,1.662,0,0,1,17.372,15.75ZM12.222,4.5a.832.832,0,0,0-.793.587L9.834,10.132a2.231,2.231,0,1,0,1.588.514L13.016,5.6a.846.846,0,0,0-.54-1.06A.823.823,0,0,0,12.222,4.5ZM17.778,9a1.125,1.125,0,1,0,1.111,1.125A1.119,1.119,0,0,0,17.778,9ZM2.222,9a1.125,1.125,0,1,0,1.112,1.125A1.119,1.119,0,0,0,2.222,9ZM15.5,3.432A1.125,1.125,0,1,0,16.61,4.557,1.12,1.12,0,0,0,15.5,3.432Zm-11,0A1.125,1.125,0,1,0,5.611,4.557,1.119,1.119,0,0,0,4.5,3.432ZM10,1.125A1.125,1.125,0,1,0,11.111,2.25,1.119,1.119,0,0,0,10,1.125Z" transform="translate(640 42.125)" fill="#3baecc"/><path d="M8.75,20H6.25V16.124A6.266,6.266,0,0,1,1.25,10V8.75H.625A.625.625,0,0,1,0,8.125V6.875A.626.626,0,0,1,.625,6.25h13.75A.626.626,0,0,1,15,6.875v1.25a.626.626,0,0,1-.626.625H13.75V10a6.266,6.266,0,0,1-5,6.124V20ZM12.5,5.625H10V1.25a1.25,1.25,0,0,1,2.5,0V5.624Zm-7.5,0H2.5V1.25a1.25,1.25,0,1,1,2.5,0V5.624Z" transform="translate(642.5 80)" fill="#3baecc"/><path d="M5.313,20H.938A.938.938,0,0,1,0,19.063V16.014a.932.932,0,0,1,.274-.663L6.6,9.03a6.876,6.876,0,1,1,6.529,4.72,6.928,6.928,0,0,1-1.282-.12L10.9,14.685a.937.937,0,0,1-.7.315H8.75v1.562a.938.938,0,0,1-.937.937H6.25v1.563A.938.938,0,0,1,5.313,20ZM15,3.125A1.875,1.875,0,1,0,16.875,5,1.878,1.878,0,0,0,15,3.125Z" transform="translate(640 120)" fill="#3baecc"/><path d="M13.661,17.5H12.054a.476.476,0,0,1-.482-.468V12.188a.953.953,0,0,1,.965-.938h4.981a.476.476,0,0,1,.482.469v1.562a.476.476,0,0,1-.482.469H14.143v3.281A.475.475,0,0,1,13.661,17.5Zm-7.715,0H4.339a.475.475,0,0,1-.482-.468V13.75H.482A.476.476,0,0,1,0,13.281V11.719a.476.476,0,0,1,.482-.469H5.464a.953.953,0,0,1,.965.938v4.844A.476.476,0,0,1,5.946,17.5ZM17.518,6.25H12.536a.952.952,0,0,1-.965-.937V.469A.476.476,0,0,1,12.054,0h1.607a.476.476,0,0,1,.481.469V3.75h3.375A.476.476,0,0,1,18,4.218V5.782A.476.476,0,0,1,17.518,6.25Zm-12.054,0H.482A.476.476,0,0,1,0,5.782V4.218A.476.476,0,0,1,.482,3.75H3.857V.469A.476.476,0,0,1,4.339,0H5.946a.476.476,0,0,1,.482.469V5.313A.952.952,0,0,1,5.464,6.25Z" transform="translate(641 161.25)" fill="#3baecc"/><path d="M9.67,0A9.655,9.655,0,0,0,3,2.683l-1.4-1.4A.937.937,0,0,0,0,1.951V7.188a.937.937,0,0,0,.938.938H6.174a.938.938,0,0,0,.663-1.6L5.206,4.894a6.562,6.562,0,1,1,.16,9.733.468.468,0,0,0-.639.022L3.177,16.2a.47.47,0,0,0,.019.681A9.688,9.688,0,1,0,9.67,0Z" transform="translate(640.313 200.312)" fill="#3baecc"/><path d="M16.071,10H6.107V5.973a2.894,2.894,0,0,1,5.786-.035v.625a.949.949,0,0,0,.964.937h1.286a.949.949,0,0,0,.964-.937V5.938A6.031,6.031,0,0,0,8.98,0,6.061,6.061,0,0,0,2.893,6v4H1.929A1.9,1.9,0,0,0,0,11.875v6.25A1.9,1.9,0,0,0,1.929,20H16.071A1.9,1.9,0,0,0,18,18.125v-6.25A1.9,1.9,0,0,0,16.071,10Z" transform="translate(681)" fill="#3baecc"/><path d="M11.875,17.5h-2.5a.626.626,0,0,1-.626-.625v-1.25A.626.626,0,0,1,9.375,15h2.5a.626.626,0,0,1,.625.625v1.25A.626.626,0,0,1,11.875,17.5Zm-8.124,0a.621.621,0,0,1-.442-.183L.184,14.192a.626.626,0,0,1,.442-1.067H2.5V.625A.625.625,0,0,1,3.125,0h1.25A.626.626,0,0,1,5,.625v12.5H6.874a.626.626,0,0,1,.442,1.067L4.192,17.317A.621.621,0,0,1,3.75,17.5Zm10.624-5h-5a.626.626,0,0,1-.626-.626V10.625A.626.626,0,0,1,9.375,10h5a.626.626,0,0,1,.626.625v1.249A.626.626,0,0,1,14.375,12.5Zm2.5-5h-7.5a.626.626,0,0,1-.626-.625V5.625A.626.626,0,0,1,9.375,5h7.5a.625.625,0,0,1,.625.625v1.25A.625.625,0,0,1,16.875,7.5Zm2.5-5h-10a.626.626,0,0,1-.626-.626V.625A.626.626,0,0,1,9.375,0h10A.625.625,0,0,1,20,.625v1.25A.626.626,0,0,1,19.375,2.5Z" transform="translate(680 41.25)" fill="#3baecc"/><path d="M16.389,7.031H12.507L8.889.2A.416.416,0,0,0,8.534,0H6.528a.421.421,0,0,0-.4.528l1.154,6.5H3.464L2.252,4.986a.416.416,0,0,0-.357-.2H.417a.42.42,0,0,0-.409.5L.742,9,.008,12.714a.42.42,0,0,0,.409.5H1.895a.416.416,0,0,0,.357-.2l1.212-2.045H7.279l-1.154,6.5a.421.421,0,0,0,.4.528H8.534a.416.416,0,0,0,.355-.2l3.618-6.83h3.882C18.383,10.969,20,10.087,20,9S18.383,7.031,16.389,7.031Z" transform="translate(680 81)" fill="#3baecc"/><path d="M18.559,5.148,13.125,8.606V5.939a.938.938,0,0,0-1.441-.791L6.25,8.606V.938A.937.937,0,0,0,5.313,0H.938A.937.937,0,0,0,0,.938V16.563a.937.937,0,0,0,.938.938H19.063A.937.937,0,0,0,20,16.563V5.939A.938.938,0,0,0,18.559,5.148Z" transform="translate(680 121.25)" fill="#3baecc"/><path d="M11.893,20H.964A.952.952,0,0,1,0,19.063V4.687A.952.952,0,0,1,.964,3.75H3.857V15.313A2.222,2.222,0,0,0,6.107,17.5h6.75v1.563A.952.952,0,0,1,11.893,20Zm5.144-3.749H6.107a.953.953,0,0,1-.965-.938V.938A.953.953,0,0,1,6.107,0h6.75V4.063A.952.952,0,0,0,13.821,5H18V15.313A.952.952,0,0,1,17.036,16.25ZM18,3.75H14.143V0h.244a.973.973,0,0,1,.681.274l2.65,2.576A.918.918,0,0,1,18,3.514v.236Z" transform="translate(681 160)" fill="#3baecc"/><path d="M1.895,15.575a.98.98,0,0,1-.687-.275l-.922-.883a.91.91,0,0,1,0-1.325L5.81,7.78a1,1,0,0,1,1.381,0l5.523,5.313a.915.915,0,0,1,.286.666.9.9,0,0,1-.286.657l-.918.883a.989.989,0,0,1-.69.275.977.977,0,0,1-.686-.275L6.5,11.534,2.585,15.3A.989.989,0,0,1,1.895,15.575ZM11.1,8.07a.989.989,0,0,1-.69-.275L6.5,4.029,2.581,7.795a1,1,0,0,1-1.377,0L.286,6.912a.909.909,0,0,1,0-1.324L5.81.275A.988.988,0,0,1,6.5,0a.967.967,0,0,1,.683.275l5.523,5.313a.9.9,0,0,1,.286.657.915.915,0,0,1-.286.666l-.918.883A.977.977,0,0,1,11.1,8.07Z" transform="translate(683.5 202.213)" fill="#3baecc"/><path d="M15.061,17.334a1.11,1.11,0,0,1-.914-.483,1.135,1.135,0,0,1,.28-1.566,7.922,7.922,0,0,0-.376-13.2A1.135,1.135,0,0,1,13.683.538,1.1,1.1,0,0,1,15.21.166,10.125,10.125,0,0,1,18.69,3.8a10.213,10.213,0,0,1-3,13.335A1.1,1.1,0,0,1,15.061,17.334ZM8.05,15.558a.816.816,0,0,1-.583-.248l-3.09-3.127H.833A.84.84,0,0,1,0,11.34V6.277a.839.839,0,0,1,.833-.843H4.377l3.09-3.128a.815.815,0,0,1,.582-.247.834.834,0,0,1,.841.844V14.714A.834.834,0,0,1,8.05,15.558Zm5.114-1a1.107,1.107,0,0,1-.913-.483,1.135,1.135,0,0,1,.279-1.566,4.533,4.533,0,0,0-.214-7.544,1.134,1.134,0,0,1-.369-1.546,1.1,1.1,0,0,1,1.528-.374A6.8,6.8,0,0,1,13.8,14.359,1.1,1.1,0,0,1,13.163,14.559Zm-1.9-2.775a1.108,1.108,0,0,1-.914-.484,1.137,1.137,0,0,1,.28-1.566,1.134,1.134,0,0,0,.48-.925,1.122,1.122,0,0,0-.533-.961A1.134,1.134,0,0,1,10.21,6.3a1.1,1.1,0,0,1,1.527-.373,3.4,3.4,0,0,1,.161,5.656A1.1,1.1,0,0,1,11.266,11.784Z" transform="translate(600 1.333)" fill="#3baecc"/><path d="M10.152,20a1.863,1.863,0,0,1-1.326-.549L.549,11.174A1.862,1.862,0,0,1,0,9.849V1.875A1.877,1.877,0,0,1,1.875,0H9.849a1.862,1.862,0,0,1,1.326.549l8.276,8.276a1.875,1.875,0,0,1,0,2.652l-7.973,7.973A1.863,1.863,0,0,1,10.152,20ZM4.375,2.5A1.875,1.875,0,1,0,6.25,4.375,1.877,1.877,0,0,0,4.375,2.5Z" transform="translate(600 40)" fill="#3baecc"/><path d="M16.563,20H3.437a.938.938,0,0,1-.937-.937V15H.469A.469.469,0,0,1,0,14.531V9.375A1.877,1.877,0,0,1,1.875,7.5H2.5V.938A.938.938,0,0,1,3.437,0H14.3a.935.935,0,0,1,.663.274l2.263,2.264A.928.928,0,0,1,17.5,3.2V7.5h.625A1.877,1.877,0,0,1,20,9.375v5.156a.469.469,0,0,1-.469.469H17.5v4.063A.938.938,0,0,1,16.563,20ZM5,13.75V17.5H15V13.75ZM16.875,9.688a.937.937,0,1,0,.938.938A.939.939,0,0,0,16.875,9.688ZM5,2.5V8.75H15V5H13.438a.939.939,0,0,1-.938-.938V2.5Z" transform="translate(600 80)" fill="#3baecc"/><path d="M18.5,16H1.5A1.5,1.5,0,0,1,0,14.5V13.375A.376.376,0,0,1,.375,13H7.828a.19.19,0,0,1,.185.16A.993.993,0,0,0,9,14h2a.993.993,0,0,0,.987-.841.184.184,0,0,1,.184-.16h7.454a.375.375,0,0,1,.374.375V14.5A1.5,1.5,0,0,1,18.5,16Zm-2-4H3.5A1.5,1.5,0,0,1,2,10.5v-9A1.5,1.5,0,0,1,3.5,0h13A1.5,1.5,0,0,1,18,1.5v9A1.5,1.5,0,0,1,16.5,12ZM4,2v8H16V2Z" transform="translate(600 122)" fill="#3baecc"/><path d="M9.688,19.375a9.688,9.688,0,1,1,9.688-9.688A9.7,9.7,0,0,1,9.688,19.375ZM12.334,4.146a.912.912,0,0,0-.636.262l-4.01,3.82a.933.933,0,0,0-.265.458l-1.3,5.382a.908.908,0,0,0,.164.79.971.971,0,0,0,.758.369.911.911,0,0,0,.636-.26l4.009-3.82a.933.933,0,0,0,.265-.458l1.3-5.382a.908.908,0,0,0-.167-.791A.969.969,0,0,0,12.334,4.146ZM9.688,10.938a1.25,1.25,0,1,1,1.25-1.25A1.252,1.252,0,0,1,9.688,10.938Z" transform="translate(600.313 160.313)" fill="#3baecc"/><path d="M16.1,17.5H10.9a.476.476,0,0,1-.482-.468v-.852a.452.452,0,0,1,.088-.27l2.7-3.72.034-.046.057-.077H11.03a.475.475,0,0,1-.481-.468v-1.13A.476.476,0,0,1,11.03,10h5.02a.476.476,0,0,1,.482.469V11.3a.452.452,0,0,1-.088.27l-2.71,3.739c-.031.043-.061.084-.091.122H16.1a.476.476,0,0,1,.482.469v1.13A.476.476,0,0,1,16.1,17.5Zm-12.241,0a.645.645,0,0,1-.454-.183L.189,14.192a.6.6,0,0,1-.143-.67.631.631,0,0,1,.6-.4H2.571V.625A.635.635,0,0,1,3.214,0H4.5a.635.635,0,0,1,.643.625v12.5H7.07a.631.631,0,0,1,.6.4.6.6,0,0,1-.142.671L4.312,17.317A.649.649,0,0,1,3.857,17.5Zm12.731-10H15.153a.482.482,0,0,1-.463-.337l-.334-1.105H12.635l-.326,1.1a.482.482,0,0,1-.464.339H10.411a.481.481,0,0,1-.4-.2.455.455,0,0,1-.059-.417L12.249.318A.48.48,0,0,1,12.705,0h1.589a.48.48,0,0,1,.456.318l2.294,6.563a.455.455,0,0,1-.059.417A.481.481,0,0,1,16.589,7.5ZM13.5,3.191l-.272.9h.537Z" transform="translate(601.464 201.25)" fill="#3baecc"/><path d="M9.921,14a2,2,0,1,1,2-2A2,2,0,0,1,9.921,14Zm4.853-4.679a.5.5,0,0,1-.325-.122,6.88,6.88,0,0,0-9.056,0,.5.5,0,0,1-.679-.025L3.65,8.112a.5.5,0,0,1,.017-.724,9.38,9.38,0,0,1,12.506,0,.5.5,0,0,1,.017.724L15.129,9.174A.5.5,0,0,1,14.774,9.321ZM1.561,5.765a.5.5,0,0,1-.353-.146L.147,4.558a.5.5,0,0,1,.011-.718,14.333,14.333,0,0,1,19.526,0,.5.5,0,0,1,.011.718L18.634,5.619a.5.5,0,0,1-.353.146.5.5,0,0,1-.342-.134,11.826,11.826,0,0,0-16.036,0A.5.5,0,0,1,1.561,5.765Z" transform="translate(560.079 3)" fill="#3baecc"/><path d="M10,20a1.875,1.875,0,1,1,1.875-1.875A1.877,1.877,0,0,1,10,20Zm5.746-2.38a1.875,1.875,0,1,1,1.875-1.875A1.877,1.877,0,0,1,15.745,17.62Zm-11.49,0A1.875,1.875,0,1,1,6.13,15.745,1.877,1.877,0,0,1,4.255,17.62Zm13.87-5.746A1.875,1.875,0,1,1,20,10,1.877,1.877,0,0,1,18.125,11.875Zm-16.25,0A1.875,1.875,0,1,1,3.75,10,1.877,1.877,0,0,1,1.875,11.875ZM4.255,6.13A1.875,1.875,0,1,1,6.13,4.255,1.877,1.877,0,0,1,4.255,6.13ZM10,3.75a1.875,1.875,0,1,1,1.875-1.876A1.877,1.877,0,0,1,10,3.75Z" transform="translate(560 40)" fill="#3baecc"/><path d="M9.688,19.375a9.688,9.688,0,1,1,9.688-9.688A9.7,9.7,0,0,1,9.688,19.375Zm0-6.484a1.8,1.8,0,1,0,1.8,1.8A1.8,1.8,0,0,0,9.688,12.891Zm.058-7.016c.843,0,1.786.551,1.786,1.288,0,.584-.483.884-1.271,1.327l-.068.038c-.921.516-2.066,1.157-2.066,2.722v.157a.469.469,0,0,0,.469.468h2.187a.469.469,0,0,0,.469-.468v-.052c0-.42.459-.685,1.041-1.022A3.475,3.475,0,0,0,14.5,7.187a3.694,3.694,0,0,0-1.451-2.841A4.961,4.961,0,0,0,9.948,3.2a5.043,5.043,0,0,0-4.553,2.49.471.471,0,0,0,.106.635L6.856,7.357a.468.468,0,0,0,.651-.083C8.191,6.407,8.665,5.875,9.745,5.875Z" transform="translate(560.313 80.313)" fill="#3baecc"/><path d="M8.438,20H5.313a.938.938,0,0,1-.938-.937V18.7a.94.94,0,0,1-.625-.884V16.718a.469.469,0,0,1,.468-.468H9.531a.469.469,0,0,1,.469.468v1.094a.939.939,0,0,1-.625.884v.366A.938.938,0,0,1,8.438,20Zm.9-5H4.41a.941.941,0,0,1-.874-.6,10.959,10.959,0,0,0-1.991-3.323A5.524,5.524,0,0,1,0,6.875a6.875,6.875,0,0,1,13.75,0,5.522,5.522,0,0,1-1.544,4.2A10.964,10.964,0,0,0,10.214,14.4.941.941,0,0,1,9.34,15ZM6.875,2.5A4.38,4.38,0,0,0,2.5,6.875a.625.625,0,0,0,1.25,0A3.128,3.128,0,0,1,6.875,3.75a.625.625,0,0,0,0-1.25Z" transform="translate(563.125 120)" fill="#3baecc"/><path d="M19.736,15.75l-.03,0a6.981,6.981,0,0,1-3.571-1.4,9.537,9.537,0,0,1-3.358.6,8.643,8.643,0,0,1-5.425-1.775c.129,0,.267.007.423.007a10.864,10.864,0,0,0,6.667-2.144,6.69,6.69,0,0,0,2.781-5.289c0-.031,0-.061,0-.092V5.6a5.09,5.09,0,0,1,2.751,3.659,4.253,4.253,0,0,1-1.443,3.621,3.142,3.142,0,0,0,1.135,2.221c.056.051.112.1.166.153l.026.025c.09.085.168.158.138.273A.265.265,0,0,1,19.736,15.75ZM.284,12.375a.288.288,0,0,1-.278-.213c-.031-.127.058-.212.152-.3l.026-.025c.059-.057.119-.113.179-.169A3.477,3.477,0,0,0,1.585,9.223,4.82,4.82,0,0,1,0,5.746C0,2.577,3.489,0,7.778,0s7.778,2.577,7.778,5.746-3.489,5.746-7.778,5.746a9.936,9.936,0,0,1-3.616-.658,7.427,7.427,0,0,1-3.846,1.54Z" transform="translate(560 162.125)" fill="#3baecc"/><path d="M19.273.962,15.211.024a.937.937,0,0,0-1.073.544L12.263,4.943a.938.938,0,0,0,.268,1.095L14.9,7.975A14.489,14.489,0,0,1,7.975,14.9L6.038,12.531a.938.938,0,0,0-1.095-.268L.568,14.138a.937.937,0,0,0-.544,1.073l.937,4.063A.938.938,0,0,0,1.875,20,18.124,18.124,0,0,0,20,1.875.937.937,0,0,0,19.273.962Z" transform="translate(560 200)" fill="#3baecc"/><path d="M17.915,10l1.8-1.758a.931.931,0,0,0-.417-1.576l-2.447-.625.69-2.422a.946.946,0,0,0-1.159-1.159l-2.422.69L13.333.7A.937.937,0,0,0,11.757.282L10,2.093,8.243.282A.937.937,0,0,0,6.667.7L6.043,3.147l-2.422-.69A.946.946,0,0,0,2.463,3.616l.69,2.422L.705,6.663A.931.931,0,0,0,.289,8.239L2.085,10l-1.8,1.758a.931.931,0,0,0,.417,1.576l2.447.625-.69,2.422a.946.946,0,0,0,1.159,1.159l2.422-.69.624,2.448a.929.929,0,0,0,1.575.417L10,17.914l1.757,1.8a.933.933,0,0,0,1.575-.417l.624-2.448,2.422.69a.946.946,0,0,0,1.159-1.159l-.69-2.422,2.447-.625a.931.931,0,0,0,.417-1.576L17.915,10Z" transform="translate(520)" fill="#3baecc"/><path d="M8.292.626,6.024,5.28.951,6.029A1.129,1.129,0,0,0,.337,7.948l3.67,3.621-.868,5.115A1.113,1.113,0,0,0,4.75,17.868l4.538-2.415,4.538,2.415a1.114,1.114,0,0,0,1.611-1.185l-.868-5.115,3.67-3.621a1.129,1.129,0,0,0-.615-1.919L12.552,5.28,10.285.626A1.106,1.106,0,0,0,8.292.626Z" transform="translate(520.712 41)" fill="#3baecc"/><path d="M11.87,20a.616.616,0,0,1-.437-.184L8.308,16.692a.626.626,0,0,1,0-.884l3.125-3.125a.625.625,0,0,1,1.067.442V15H16.25a1.253,1.253,0,0,0,1.06-1.913l-1.077-1.724a.47.47,0,0,1,.149-.646L17.7,9.892a.468.468,0,0,1,.645.149l1.076,1.721A3.753,3.753,0,0,1,16.245,17.5H12.5v1.875A.622.622,0,0,1,11.87,20ZM5.782,17.5H3.755A3.752,3.752,0,0,1,.574,11.762L2.56,8.583.969,7.589a.625.625,0,0,1,.19-1.138l4.306-.995a.624.624,0,0,1,.75.469l.994,4.306a.607.607,0,0,1-.115.526A.637.637,0,0,1,6.6,11a.611.611,0,0,1-.329-.1L4.678,9.907l-1.987,3.18A1.253,1.253,0,0,0,3.75,15H5.782a.469.469,0,0,1,.468.468v1.563A.469.469,0,0,1,5.782,17.5ZM15.719,8.81a.633.633,0,0,1-.142-.016L11.272,7.8a.626.626,0,0,1-.191-1.139l1.591-.994L11.059,3.085a1.251,1.251,0,0,0-2.119,0l-.7,1.123a.467.467,0,0,1-.646.148L6.268,3.531a.47.47,0,0,1-.149-.646l.7-1.124a3.752,3.752,0,0,1,6.359,0l1.612,2.582,1.589-.994a.617.617,0,0,1,.33-.1.639.639,0,0,1,.494.242.607.607,0,0,1,.116.526l-.994,4.306A.621.621,0,0,1,15.719,8.81Z" transform="translate(520 80)" fill="#3baecc"/><path d="M5.935,20a5.935,5.935,0,0,1-4.2-10.133l1.45-1.449a.624.624,0,0,1,1.066.414,7.23,7.23,0,0,0,.379,2.059.626.626,0,0,1-.148.649l-.511.511a2.84,2.84,0,0,0-.045,3.983,2.816,2.816,0,0,0,4,.02l2.625-2.625a2.812,2.812,0,0,0,0-3.977,2.912,2.912,0,0,0-.4-.335.623.623,0,0,1-.272-.492A1.549,1.549,0,0,1,10.33,7.46l.823-.823a.619.619,0,0,1,.441-.182.632.632,0,0,1,.363.115,6.031,6.031,0,0,1,.8.671,5.936,5.936,0,0,1,.014,8.383l-.014.014-2.625,2.625A5.9,5.9,0,0,1,5.935,20Zm2.472-6.455a.633.633,0,0,1-.364-.115,6.031,6.031,0,0,1-.8-.671,5.935,5.935,0,0,1-.013-8.383l.013-.014L9.867,1.736a5.938,5.938,0,0,1,8.4,8.4l-1.45,1.45a.624.624,0,0,1-1.066-.415,7.167,7.167,0,0,0-.379-2.059.626.626,0,0,1,.148-.649l.511-.511a2.838,2.838,0,0,0,.045-3.983,2.816,2.816,0,0,0-4-.021L9.452,6.571a2.81,2.81,0,0,0,0,3.977,2.859,2.859,0,0,0,.4.335.631.631,0,0,1,.272.492A1.546,1.546,0,0,1,9.67,12.54l-.823.823A.617.617,0,0,1,8.407,13.545Z" transform="translate(520 120)" fill="#3baecc"/><path d="M9.272,19.375a9.732,9.732,0,0,1-2.131-.236.468.468,0,0,1-.368-.458V16.76A7.457,7.457,0,0,1,4.4,15.388l-1.663.96a.469.469,0,0,1-.58-.088A9.716,9.716,0,0,1,.022,12.566a.466.466,0,0,1,.213-.546L1.9,11.058a7.52,7.52,0,0,1,0-2.741L.235,7.356a.466.466,0,0,1-.213-.546A9.716,9.716,0,0,1,2.157,3.115a.469.469,0,0,1,.58-.088l1.663.96A7.477,7.477,0,0,1,6.773,2.615V.694A.468.468,0,0,1,7.14.236a9.777,9.777,0,0,1,4.267,0,.472.472,0,0,1,.367.458V2.615a7.478,7.478,0,0,1,2.373,1.373l1.663-.96a.469.469,0,0,1,.58.088,9.73,9.73,0,0,1,2.137,3.694.468.468,0,0,1-.213.546l-1.665.96a7.527,7.527,0,0,1,0,2.742l1.665.961a.468.468,0,0,1,.213.546A9.73,9.73,0,0,1,16.39,16.26a.469.469,0,0,1-.58.088l-1.663-.96a7.458,7.458,0,0,1-2.373,1.372v1.921a.468.468,0,0,1-.366.458A9.777,9.777,0,0,1,9.272,19.375Zm0-12.812A3.125,3.125,0,1,0,12.4,9.688,3.128,3.128,0,0,0,9.274,6.563Z" transform="translate(520.726 160.312)" fill="#3baecc"/><path d="M15,15.75H1.667A1.679,1.679,0,0,1,0,14.063v-9A1.679,1.679,0,0,1,1.667,3.375h.555v7.313A2.8,2.8,0,0,0,5,13.5H16.667v.563A1.679,1.679,0,0,1,15,15.75Zm3.333-3.375H5a1.679,1.679,0,0,1-1.667-1.687v-9A1.679,1.679,0,0,1,5,0H18.333A1.679,1.679,0,0,1,20,1.688v9A1.679,1.679,0,0,1,18.333,12.375ZM7.778,6.362a.41.41,0,0,0-.294.124L5.556,8.438v1.688H17.778V6.188L14.739,3.11a.413.413,0,0,0-.589,0L9.445,7.875,8.072,6.485A.41.41,0,0,0,7.778,6.362ZM7.222,1.688A1.688,1.688,0,1,0,8.889,3.375,1.679,1.679,0,0,0,7.222,1.688Z" transform="translate(520 202.125)" fill="#3baecc"/><path d="M18.125,17.5H1.875A1.877,1.877,0,0,1,0,15.625V4.375A1.877,1.877,0,0,1,1.875,2.5H5.313l.481-1.285A1.878,1.878,0,0,1,7.546,0h4.9A1.881,1.881,0,0,1,14.2,1.215L14.687,2.5h3.438A1.877,1.877,0,0,1,20,4.375v11.25A1.877,1.877,0,0,1,18.125,17.5ZM10,5.313A4.687,4.687,0,1,0,14.687,10,4.693,4.693,0,0,0,10,5.313Zm0,8.125A3.438,3.438,0,1,1,13.438,10,3.441,3.441,0,0,1,10,13.438Z" transform="translate(480 1.25)" fill="#3baecc"/><path d="M13.1,17.5h-.241v-5H18v.238a.925.925,0,0,1-.282.66l-3.937,3.829A.97.97,0,0,1,13.1,17.5Zm-1.527,0H.964A.952.952,0,0,1,0,16.563V.938A.952.952,0,0,1,.964,0H17.036A.952.952,0,0,1,18,.938V11.25H12.536a.953.953,0,0,0-.965.938V17.5Z" transform="translate(481 41.25)" fill="#3baecc"/><path d="M15.945,17.5a.971.971,0,0,1-.653-.257A.921.921,0,0,1,15,16.562V15H12.7a.471.471,0,0,1-.343-.149L9.6,11.9l2.083-2.232,2.062,2.209H15V10.313a.932.932,0,0,1,.945-.938.92.92,0,0,1,.655.275l3.125,3.124a.938.938,0,0,1,0,1.326L16.6,17.225A.923.923,0,0,1,15.945,17.5ZM4.8,15H.469A.469.469,0,0,1,0,14.531V12.344a.469.469,0,0,1,.469-.469H3.75l8.61-9.226A.473.473,0,0,1,12.7,2.5H15V.938A.932.932,0,0,1,15.945,0,.923.923,0,0,1,16.6.275L19.725,3.4a.937.937,0,0,1,0,1.326L16.6,7.85a.924.924,0,0,1-.656.275.968.968,0,0,1-.653-.257A.919.919,0,0,1,15,7.186V5.625H13.75L5.139,14.851A.471.471,0,0,1,4.8,15ZM5.811,7.834h0L3.75,5.625H.469A.469.469,0,0,1,0,5.156V2.969A.469.469,0,0,1,.469,2.5H4.8a.473.473,0,0,1,.343.148L7.895,5.6,5.812,7.833Z" transform="translate(480 81.25)" fill="#3baecc"/><path d="M3.125,16.25H.625A.626.626,0,0,1,0,15.625v-2.5A.625.625,0,0,1,.625,12.5h2.5a.626.626,0,0,1,.625.625v2.5A.626.626,0,0,1,3.125,16.25Zm16.25-.469H5.625A.626.626,0,0,1,5,15.156V13.594a.625.625,0,0,1,.625-.625h13.75a.625.625,0,0,1,.625.625v1.562A.626.626,0,0,1,19.375,15.781ZM3.125,10H.625A.625.625,0,0,1,0,9.375v-2.5A.626.626,0,0,1,.625,6.25h2.5a.626.626,0,0,1,.625.625v2.5A.626.626,0,0,1,3.125,10Zm16.25-.469H5.625A.625.625,0,0,1,5,8.906V7.344a.626.626,0,0,1,.625-.626h13.75A.626.626,0,0,1,20,7.344V8.906A.625.625,0,0,1,19.375,9.531ZM3.125,3.75H.625A.626.626,0,0,1,0,3.125V.625A.625.625,0,0,1,.625,0h2.5A.626.626,0,0,1,3.75.625v2.5A.626.626,0,0,1,3.125,3.75Zm16.25-.469H5.625A.626.626,0,0,1,5,2.656V1.094A.625.625,0,0,1,5.625.469h13.75A.625.625,0,0,1,20,1.094V2.656A.626.626,0,0,1,19.375,3.281Z" transform="translate(480 121.875)" fill="#3baecc"/><path d="M8.822,16a.361.361,0,0,1-.106-.015l-1.906-.553a.367.367,0,0,1-.223-.179.38.38,0,0,1-.032-.287L10.819.271A.374.374,0,0,1,11.181,0a.367.367,0,0,1,.1.014L13.19.568a.366.366,0,0,1,.224.179.381.381,0,0,1,.032.286L9.181,15.727A.374.374,0,0,1,8.822,16Zm-3.94-3.4a.378.378,0,0,1-.259-.1L.12,8.271a.373.373,0,0,1,0-.547l4.5-4.218a.375.375,0,0,1,.531.015l1.359,1.45a.373.373,0,0,1-.024.537L3.657,8l2.831,2.49a.369.369,0,0,1,.126.263.374.374,0,0,1-.1.274l-1.359,1.45A.365.365,0,0,1,4.882,12.6Zm10.238,0a.367.367,0,0,1-.273-.12l-1.359-1.45a.366.366,0,0,1-.1-.271.373.373,0,0,1,.127-.266L16.343,8,13.513,5.505a.375.375,0,0,1-.025-.537l1.359-1.451a.378.378,0,0,1,.274-.116.373.373,0,0,1,.257.1l4.5,4.225a.372.372,0,0,1,0,.546l-4.5,4.222A.381.381,0,0,1,15.12,12.6Z" transform="translate(480 162.001)" fill="#3baecc"/><path d="M18.333,15.75H1.667A1.679,1.679,0,0,1,0,14.063V7.875H20v6.188A1.679,1.679,0,0,1,18.333,15.75Zm-11.25-4.5a.42.42,0,0,0-.417.422v1.406a.42.42,0,0,0,.417.422h4.722a.42.42,0,0,0,.417-.422V11.672a.42.42,0,0,0-.417-.422Zm-4.444,0a.42.42,0,0,0-.417.422v1.406a.42.42,0,0,0,.417.422h2.5a.42.42,0,0,0,.417-.422V11.672a.42.42,0,0,0-.417-.422ZM20,3.375H0V1.688A1.679,1.679,0,0,1,1.667,0H18.333A1.679,1.679,0,0,1,20,1.688V3.374Z" transform="translate(480 202.125)" fill="#3baecc"/><path d="M18.125,15H1.875A1.877,1.877,0,0,1,0,13.125V1.875A1.877,1.877,0,0,1,1.875,0h16.25A1.877,1.877,0,0,1,20,1.875v11.25A1.877,1.877,0,0,1,18.125,15ZM4.962,8.526l-1.219.3A1.638,1.638,0,0,0,2.5,10.422v.633a.821.821,0,0,0,.82.82h7.11a.821.821,0,0,0,.82-.82v-.633A1.638,1.638,0,0,0,10.007,8.83l-1.219-.3a3.239,3.239,0,0,1-1.894.616A3.336,3.336,0,0,1,4.962,8.526Zm8.007.224a.469.469,0,0,0-.469.469v.312a.469.469,0,0,0,.469.469h4.063a.469.469,0,0,0,.468-.469V9.219a.469.469,0,0,0-.468-.469ZM6.875,3.125A2.735,2.735,0,1,0,9.609,5.859,2.737,2.737,0,0,0,6.875,3.125ZM12.969,6.25a.469.469,0,0,0-.469.469v.312a.469.469,0,0,0,.469.469h4.063a.469.469,0,0,0,.468-.469V6.719a.469.469,0,0,0-.468-.469Zm0-2.5a.469.469,0,0,0-.469.468v.313A.469.469,0,0,0,12.969,5h4.063a.469.469,0,0,0,.468-.469V4.218a.469.469,0,0,0-.468-.468Z" transform="translate(0 2.5)" fill="#3baecc"/><path d="M7.778,18a3.358,3.358,0,0,1-3.334-3.375,1.111,1.111,0,1,1,2.222,0,1.112,1.112,0,1,0,2.223,0V9.175a2.384,2.384,0,0,1,1.09-.262,2.507,2.507,0,0,1,1.132.273v5.439A3.358,3.358,0,0,1,7.778,18ZM13.5,10.688a.422.422,0,0,1-.346-.2l-.007-.012-.023-.039A3.7,3.7,0,0,0,10,8.351c-1.571,0-2.417,1.056-3.149,2.138a.416.416,0,0,1-.346.2.408.408,0,0,1-.34-.2C5.2,9.062,4.147,8.338,3.038,8.338A3.634,3.634,0,0,0,.66,9.409a.454.454,0,0,1-.286.113.373.373,0,0,1-.3-.149.34.34,0,0,1-.068-.3A8.424,8.424,0,0,1,3.734,4.045,11.682,11.682,0,0,1,10,2.272a11.72,11.72,0,0,1,6.267,1.773A8.348,8.348,0,0,1,19.99,9.076a.343.343,0,0,1-.068.3.369.369,0,0,1-.3.149.455.455,0,0,1-.286-.113,3.627,3.627,0,0,0-2.377-1.066c-1.113,0-2.166.722-3.129,2.146A.4.4,0,0,1,13.5,10.688ZM8.888,1.758h0V1.125a1.111,1.111,0,1,1,2.222,0v.632c-.369-.031-.742-.048-1.111-.048s-.743.016-1.111.049Z" transform="translate(0 41)" fill="#3baecc"/><path d="M19.25,10h-1.5V8.5A1.251,1.251,0,0,0,16.5,7.25H10.75V6h1.5A.75.75,0,0,0,13,5.25V.75A.75.75,0,0,0,12.25,0H7.75A.75.75,0,0,0,7,.75v4.5A.75.75,0,0,0,7.75,6h1.5V7.25H3.5A1.251,1.251,0,0,0,2.25,8.5V10H.75a.75.75,0,0,0-.75.75v4.5A.75.75,0,0,0,.75,16h4.5A.75.75,0,0,0,6,15.25v-4.5A.75.75,0,0,0,5.25,10H3.75V8.75h5.5V10H7.75a.75.75,0,0,0-.75.75v4.5a.75.75,0,0,0,.75.75h4.5a.75.75,0,0,0,.75-.75v-4.5a.75.75,0,0,0-.75-.75h-1.5V8.75h5.5V10h-1.5a.75.75,0,0,0-.75.75v4.5a.75.75,0,0,0,.75.75h4.5a.75.75,0,0,0,.75-.75v-4.5A.75.75,0,0,0,19.25,10Z" transform="translate(0 82)" fill="#3baecc"/><path d="M.939,20a.94.94,0,0,1-.721-.337.929.929,0,0,1-.2-.762l.828-4.746L11.1,3.9a.468.468,0,0,1,.333-.138.476.476,0,0,1,.335.138L16.1,8.231a.469.469,0,0,1,0,.664L5.846,19.151,1.1,19.984A.989.989,0,0,1,.939,20Zm1.08-5.315L1.577,17.2l1.215,1.214,2.52-.441V16.558H3.436V14.683Zm9.23-8.359a.544.544,0,0,0-.387.161L4.846,12.5a.547.547,0,0,0,.774.774l6.016-6.016a.548.548,0,0,0-.387-.934Zm6.066,1.162a.467.467,0,0,1-.332-.138L12.648,3.012a.469.469,0,0,1,0-.664l1.8-1.8a1.878,1.878,0,0,1,2.652,0L19.448,2.9a1.872,1.872,0,0,1,0,2.652l-1.8,1.8A.467.467,0,0,1,17.315,7.485Z" transform="translate(0 120.001)" fill="#3baecc"/><path d="M14.063,20H.938A.938.938,0,0,1,0,19.063v-.625A.939.939,0,0,1,.938,17.5a8.739,8.739,0,0,1,1.337-4.727A6.717,6.717,0,0,1,5.658,10,6.72,6.72,0,0,1,2.275,7.227,8.742,8.742,0,0,1,.938,2.5.939.939,0,0,1,0,1.562V.938A.939.939,0,0,1,.938,0H14.063A.939.939,0,0,1,15,.938v.625a.939.939,0,0,1-.938.938,8.739,8.739,0,0,1-1.337,4.727A6.717,6.717,0,0,1,9.342,10a6.72,6.72,0,0,1,3.383,2.773A8.742,8.742,0,0,1,14.063,17.5a.939.939,0,0,1,.938.938v.625A.938.938,0,0,1,14.063,20ZM7.5,11.875c-1.535,0-2.926,1.2-3.63,3.126h7.259C10.428,13.073,9.037,11.875,7.5,11.875ZM3.437,2.5A7.4,7.4,0,0,0,3.87,5h7.26a7.284,7.284,0,0,0,.432-2.5Z" transform="translate(2.5 160)" fill="#3baecc"/><path d="M3.857,17.5a3.751,3.751,0,1,1,0-7.5,3.945,3.945,0,0,1,.536.036L5.717,8.75,4.394,7.464a3.968,3.968,0,0,1-.536.036A3.809,3.809,0,0,1,0,3.75,3.809,3.809,0,0,1,3.857,0,3.809,3.809,0,0,1,7.714,3.75a3.625,3.625,0,0,1-.268,1.377l1,.971,4.641-4.513a3.443,3.443,0,0,1,4.773,0,.46.46,0,0,1,0,.663l-6.687,6.5,6.687,6.5a.459.459,0,0,1,0,.662,3.443,3.443,0,0,1-4.773,0L8.445,11.4l-1,.97a3.636,3.636,0,0,1,.268,1.378A3.808,3.808,0,0,1,3.857,17.5Zm0-5a1.251,1.251,0,1,0,1.285,1.25A1.27,1.27,0,0,0,3.857,12.5Zm4.5-4.219a.469.469,0,1,0,.481.469A.476.476,0,0,0,8.357,8.281ZM3.857,2.5A1.27,1.27,0,0,0,2.571,3.75a1.286,1.286,0,0,0,2.571,0A1.269,1.269,0,0,0,3.857,2.5Z" transform="translate(1 201.25)" fill="#3baecc"/><path d="M17.813,17.5H2.188a.938.938,0,0,1-.938-.937V5.937A.938.938,0,0,1,2.188,5H17.813a.938.938,0,0,1,.937.937V16.563A.938.938,0,0,1,17.813,17.5ZM7.969,7.5a.469.469,0,0,0-.469.469v.312a.469.469,0,0,0,.469.469h4.063a.469.469,0,0,0,.469-.469V7.969a.469.469,0,0,0-.469-.469ZM19.063,3.75H.938A.939.939,0,0,1,0,2.813V.938A.939.939,0,0,1,.938,0H19.063A.938.938,0,0,1,20,.938V2.813A.938.938,0,0,1,19.063,3.75Z" transform="translate(40 1.25)" fill="#3baecc"/><path d="M16.16,16h-12a1,1,0,1,1,0-2h5V13H1.5A1.5,1.5,0,0,1,0,11.5V1.5A1.5,1.5,0,0,1,1.5,0h17A1.5,1.5,0,0,1,20,1.5v10A1.5,1.5,0,0,1,18.5,13H11.159v1h5a1,1,0,0,1,0,2ZM2,2v9H18V2Z" transform="translate(40 42)" fill="#3baecc"/><path d="M18.125,16H16.375A.375.375,0,0,1,16,15.625V.375A.375.375,0,0,1,16.375,0h1.751A.376.376,0,0,1,18.5.375v15.25A.376.376,0,0,1,18.125,16Zm-4,0h-1.75A.376.376,0,0,1,12,15.625V4.875a.376.376,0,0,1,.375-.375h1.75a.376.376,0,0,1,.375.375v10.75A.376.376,0,0,1,14.125,16Zm-4,0H8.375A.376.376,0,0,1,8,15.625V8.375A.376.376,0,0,1,8.375,8h1.75a.376.376,0,0,1,.375.375v7.249A.376.376,0,0,1,10.125,16Zm-4,0H4.375A.376.376,0,0,1,4,15.625v-4.75a.375.375,0,0,1,.375-.374h1.75a.375.375,0,0,1,.374.374v4.75A.375.375,0,0,1,6.125,16Zm-4,0H.375A.376.376,0,0,1,0,15.625v-3.25A.376.376,0,0,1,.375,12h1.75a.376.376,0,0,1,.375.375v3.25A.376.376,0,0,1,2.125,16Z" transform="translate(40.75 82)" fill="#3baecc"/><path d="M17.036,20H7.393a.952.952,0,0,1-.964-.937V7.187a.952.952,0,0,1,.964-.938h5.465v4.063a.952.952,0,0,0,.964.938H18v7.813A.952.952,0,0,1,17.036,20ZM5.143,16.25H.964A.952.952,0,0,1,0,15.313V2.188A.952.952,0,0,1,.964,1.25H4.2a2.606,2.606,0,0,1,4.451,0h3.238a.953.953,0,0,1,.965.938V5H7.393a2.222,2.222,0,0,0-2.25,2.187V16.25ZM6.429,1.562a.953.953,0,0,0-.965.938.965.965,0,0,0,1.929,0A.952.952,0,0,0,6.429,1.562ZM18,10H14.143V6.25h.244a.97.97,0,0,1,.681.275L17.717,9.1A.929.929,0,0,1,18,9.763V10Z" transform="translate(41 120)" fill="#3baecc"/><path d="M16.109,15.737H12.082a.419.419,0,0,1-.417-.421V11.379a.42.42,0,0,0-.417-.422h-2.5a.42.42,0,0,0-.417.422v3.938a.419.419,0,0,1-.417.421H3.887a.839.839,0,0,1-.833-.843V9.856a.424.424,0,0,1,.153-.327L9.734,4.087a.412.412,0,0,1,.264-.1.426.426,0,0,1,.267.1l6.528,5.442a.432.432,0,0,1,.149.327v5.038A.839.839,0,0,1,16.109,15.737ZM18.7,9.552a.416.416,0,0,1-.266-.1l-8.167-6.81A.428.428,0,0,0,10,2.551a.414.414,0,0,0-.264.095L1.568,9.455a.416.416,0,0,1-.266.1A.411.411,0,0,1,.981,9.4L.1,8.309A.426.426,0,0,1,.15,7.715L8.939.385a1.648,1.648,0,0,1,2.119,0l3.107,2.591V.424A.42.42,0,0,1,14.581,0h1.945a.42.42,0,0,1,.417.422V5.293l2.9,2.422a.429.429,0,0,1,.059.594L19.019,9.4A.411.411,0,0,1,18.7,9.552Z" transform="translate(40.001 162.131)" fill="#3baecc"/><path d="M9,20c-4.963,0-9-1.281-9-2.857V13.125c1.773,1.188,5.137,1.9,9,1.9s7.227-.709,9-1.9v4.019C18,18.718,13.963,20,9,20Zm0-6.25c-4.963,0-9-1.282-9-2.858V6.875c1.773,1.188,5.137,1.9,9,1.9s7.225-.709,9-1.9v4.018C18,12.468,13.963,13.75,9,13.75ZM9,7.5c-4.963,0-9-1.281-9-2.857V2.857C0,1.282,4.037,0,9,0s9,1.282,9,2.857V4.643C18,6.218,13.963,7.5,9,7.5Z" transform="translate(41 200)" fill="#3baecc"/><path d="M9.688,19.375a9.688,9.688,0,1,1,9.688-9.688A9.7,9.7,0,0,1,9.688,19.375ZM3.8,5.566h0A7.189,7.189,0,0,0,13.81,15.577L3.8,5.566ZM9.693,2.5A7.14,7.14,0,0,0,5.566,3.8L15.577,13.81A7.189,7.189,0,0,0,9.693,2.5Z" transform="translate(80.313 0.313)" fill="#3baecc"/><path d="M15.139,18H4.861a.42.42,0,0,1-.417-.422v-.422a2.015,2.015,0,0,1,2.222-1.968H8.333V12.656a7.773,7.773,0,0,1-2.364-2.587A8.053,8.053,0,0,1,2.149,8.6,4.6,4.6,0,0,1,0,5.063V3.093A.839.839,0,0,1,.833,2.25H4.444V.843A.839.839,0,0,1,5.278,0h9.445a.839.839,0,0,1,.833.843V2.25h3.611A.839.839,0,0,1,20,3.093V5.063A4.607,4.607,0,0,1,17.851,8.6a8.03,8.03,0,0,1-3.82,1.466,7.729,7.729,0,0,1-2.364,2.587v2.532h1.667a2.015,2.015,0,0,1,2.222,1.968v.422A.42.42,0,0,1,15.139,18Zm.406-13.5A12.816,12.816,0,0,1,15.1,7.53a5.558,5.558,0,0,0,1.451-.752,2.7,2.7,0,0,0,1.226-1.715V4.5ZM2.222,4.5v.563A2.586,2.586,0,0,0,3.448,6.778,5.53,5.53,0,0,0,4.9,7.53,12.864,12.864,0,0,1,4.451,4.5Z" transform="translate(80 41)" fill="#3baecc"/><path d="M12.2,15a.97.97,0,0,1-.654-.257.92.92,0,0,1-.292-.683v-3.75H5.937A.938.938,0,0,1,5,9.376V5.626a.938.938,0,0,1,.937-.938H11.25V.939a.939.939,0,0,1,1.6-.664l6.562,6.562a.947.947,0,0,1,0,1.328l-6.562,6.563A.924.924,0,0,1,12.2,15ZM7.031,15H3.75A3.755,3.755,0,0,1,0,11.251v-7.5A3.755,3.755,0,0,1,3.75,0h3.28A.469.469,0,0,1,7.5.47V2.032a.469.469,0,0,1-.469.469H3.75A1.252,1.252,0,0,0,2.5,3.751v7.5A1.252,1.252,0,0,0,3.75,12.5h3.28a.469.469,0,0,1,.469.469v1.562A.469.469,0,0,1,7.031,15Z" transform="translate(80.157 82.499)" fill="#3baecc"/><path d="M1.738,18.209a6,6,0,0,1,.056-8.5l8.428-8.381a4.586,4.586,0,0,1,6.456,0,4.457,4.457,0,0,1,0,6.339l-7.347,7.3a3.057,3.057,0,0,1-4.339-.039,2.967,2.967,0,0,1,.058-4.178l5.775-5.736A.656.656,0,0,1,11.734,5l.919.874a.613.613,0,0,1,.01.884L6.888,12.5a.518.518,0,0,0-.026.715.437.437,0,0,0,.63.006l7.347-7.3a2.005,2.005,0,0,0,0-2.844,1.965,1.965,0,0,0-2.779,0L3.632,11.457a3.546,3.546,0,0,0-.048,5.012,3.5,3.5,0,0,0,4.944.011l6.913-6.875a.656.656,0,0,1,.909-.01l.919.874a.613.613,0,0,1,.01.884l-6.913,6.875A6.115,6.115,0,0,1,1.738,18.209Z" transform="translate(81 120)" fill="#3baecc"/><path d="M9.448,16.312a.782.782,0,0,1-.549-.224L4.541,11.823C2.1,9.434,2.1,9.434,2.024,9.351l-.031-.034H5.653a.415.415,0,0,0,.389-.274l1.166-3.46,2.42,7.355a.415.415,0,0,0,.775.031l1.976-5.02.445,1.143a.416.416,0,0,0,.368.225h3.715l-.036.039c-.148.162-.148.162-2.338,2.3L10,16.087A.779.779,0,0,1,9.448,16.312Zm.645-5.423v0L7.619,3.375a.416.416,0,0,0-.785-.007L5.167,8.192H1.108A5.882,5.882,0,0,1,0,4.974C0,1.86,1.883,0,5.038,0,6.866,0,8.583,1.438,9.445,2.3c.861-.857,2.581-2.3,4.406-2.3,3.155,0,5.038,1.86,5.038,4.974a5.847,5.847,0,0,1-1.108,3.218H13.611l-.916-2.061a.412.412,0,0,0-.37-.226.407.407,0,0,0-.379.251l-1.85,4.73Z" transform="translate(80.556 161.844)" fill="#3baecc"/><path d="M14.722,18H5.278a.844.844,0,0,1,0-1.687h2.5l.555-1.687H1.667A1.679,1.679,0,0,1,0,12.938V1.688A1.679,1.679,0,0,1,1.667,0H18.333A1.679,1.679,0,0,1,20,1.688v11.25a1.679,1.679,0,0,1-1.667,1.688H11.667l.555,1.688h2.5a.844.844,0,0,1,0,1.688ZM2.222,2.25V12.375H17.778V2.25Z" transform="translate(80 201)" fill="#3baecc"/><path d="M17.357,15.313H.643A.635.635,0,0,1,0,14.687V13.125A.635.635,0,0,1,.643,12.5H17.357a.635.635,0,0,1,.643.625v1.562A.635.635,0,0,1,17.357,15.313Zm0-6.25H.643A.635.635,0,0,1,0,8.438V6.875A.635.635,0,0,1,.643,6.25H17.357A.635.635,0,0,1,18,6.875V8.438A.635.635,0,0,1,17.357,9.062Zm0-6.25H.643A.635.635,0,0,1,0,2.188V.625A.635.635,0,0,1,.643,0H17.357A.635.635,0,0,1,18,.625V2.188A.635.635,0,0,1,17.357,2.813Z" transform="translate(121 2.344)" fill="#3baecc"/><path d="M14.739,14.665,11.481,11.25h1.332a.938.938,0,0,0,.682-1.581L10.265,6.25h1.3a.938.938,0,0,0,.687-1.575L8.187.3A.938.938,0,0,0,6.813.3L2.75,4.675A.938.938,0,0,0,3.437,6.25h1.3L1.506,9.669a.938.938,0,0,0,.682,1.581H3.519L.26,14.665A.938.938,0,0,0,.938,16.25H5.625A2.96,2.96,0,0,1,4.3,18.887.626.626,0,0,0,4.687,20h5.625a.626.626,0,0,0,.39-1.113A2.966,2.966,0,0,1,9.375,16.25h4.686A.938.938,0,0,0,14.739,14.665Z" transform="translate(122.5 40)" fill="#3baecc"/><path d="M7.2,15.314a.934.934,0,0,1-.947-.939V10.625H.938A.939.939,0,0,1,0,9.688V5.937A.938.938,0,0,1,.938,5H6.25V1.25A.934.934,0,0,1,7.2.311a.923.923,0,0,1,.656.275l6.563,6.563a.948.948,0,0,1,0,1.327L7.852,15.039A.923.923,0,0,1,7.2,15.314ZM16.25,15H12.969a.469.469,0,0,1-.469-.469V12.969a.469.469,0,0,1,.469-.469H16.25A1.251,1.251,0,0,0,17.5,11.25V3.75A1.251,1.251,0,0,0,16.25,2.5H12.969a.469.469,0,0,1-.469-.469V.469A.469.469,0,0,1,12.969,0H16.25A3.754,3.754,0,0,1,20,3.75v7.5A3.754,3.754,0,0,1,16.25,15Z" transform="translate(120 82.343)" fill="#3baecc"/><path d="M18.593.126.488,10.569a.938.938,0,0,0,.086,1.687L4.726,14,15.949,4.11a.234.234,0,0,1,.336.324L6.875,15.9V19.04a.937.937,0,0,0,1.66.617l2.48-3.019,4.867,2.039a.94.94,0,0,0,1.289-.711L19.984,1.095A.938.938,0,0,0,18.593.126Z" transform="translate(120.001 120)" fill="#3baecc"/><path d="M10,0A9.995,9.995,0,0,0,0,10v1.875a1.25,1.25,0,0,0,.691,1.118l.562.281A4.375,4.375,0,0,0,5.625,17.5h.938a.937.937,0,0,0,.938-.937V9.688a.937.937,0,0,0-.937-.937H5.625A4.362,4.362,0,0,0,2.5,10.064V10a7.5,7.5,0,0,1,15,0v.064A4.362,4.362,0,0,0,14.375,8.75h-.937a.937.937,0,0,0-.937.938v6.875a.937.937,0,0,0,.938.938h.938a4.375,4.375,0,0,0,4.372-4.226l.562-.281A1.25,1.25,0,0,0,20,11.875V10A9.995,9.995,0,0,0,10,0Z" transform="translate(120 161.25)" fill="#3baecc"/><path d="M19.063,20H.938A.938.938,0,0,1,0,19.063V14.687a.938.938,0,0,1,.938-.937h5.73l1.914,1.914a2,2,0,0,0,2.836,0l1.913-1.914h5.731a.938.938,0,0,1,.937.937v4.376A.938.938,0,0,1,19.063,20Zm-2.188-2.656a.781.781,0,1,0,.781.781A.782.782,0,0,0,16.875,17.344Zm-2.5,0a.781.781,0,1,0,.781.781A.782.782,0,0,0,14.375,17.344ZM10,15a.745.745,0,0,1-.533-.22L3.52,8.832A.779.779,0,0,1,4.071,7.5H7.5V.938A.939.939,0,0,1,8.438,0h3.125A.939.939,0,0,1,12.5.938V7.5h3.425a.779.779,0,0,1,.551,1.332l-5.941,5.945A.749.749,0,0,1,10,15Z" transform="translate(120 200)" fill="#3baecc"/><path d="M17.5,10H1.5A1.5,1.5,0,0,1,0,8.5v-7A1.5,1.5,0,0,1,1.5,0h16A1.5,1.5,0,0,1,19,1.5V2h.25A.751.751,0,0,1,20,2.75v4.5a.751.751,0,0,1-.75.75H19v.5A1.5,1.5,0,0,1,17.5,10ZM2,2V8H17V6h1V4H17V2ZM13,7H3V3H13V7Z" transform="translate(160 5)" fill="#3baecc"/><path d="M14.786,20H3.214a1.9,1.9,0,0,1-1.928-1.875V5.468A.475.475,0,0,1,1.768,5H16.232a.475.475,0,0,1,.481.468V18.125A1.9,1.9,0,0,1,14.786,20ZM12.857,7.5a.635.635,0,0,0-.644.626v8.75a.643.643,0,0,0,1.286,0V8.125A.635.635,0,0,0,12.857,7.5ZM9,7.5a.635.635,0,0,0-.643.626v8.75a.643.643,0,0,0,1.285,0V8.125A.635.635,0,0,0,9,7.5Zm-3.857,0a.635.635,0,0,0-.643.626v8.75a.643.643,0,0,0,1.286,0V8.125A.635.635,0,0,0,5.143,7.5ZM17.518,3.75H.482A.476.476,0,0,1,0,3.281V2.188A.952.952,0,0,1,.964,1.25h4.5L5.842.519A.952.952,0,0,1,6.7,0h4.593a.964.964,0,0,1,.864.519l.378.731h4.5A.952.952,0,0,1,18,2.188V3.281A.476.476,0,0,1,17.518,3.75Z" transform="translate(161 40)" fill="#3baecc"/><path d="M18.337,10.593l1.641-7.313a.841.841,0,0,0-.813-1.031H5.528L5.21.675A.836.836,0,0,0,4.393,0H.833A.839.839,0,0,0,0,.844v.563a.839.839,0,0,0,.833.844H3.26L5.7,14.324a1.948,1.948,0,1,0,2.328.3h7.279a1.942,1.942,0,1,0,2.208-.366l.192-.853a.841.841,0,0,0-.813-1.031H7.574L7.346,11.25H17.525A.836.836,0,0,0,18.337,10.593Z" transform="translate(160 81)" fill="#3baecc"/><path d="M10,20a9.981,9.981,0,0,0,7.768-3.7.469.469,0,0,0-.452-.756A7.834,7.834,0,0,1,11.974,1.036a.469.469,0,0,0-.147-.868A10,10,0,1,0,10,20Z" transform="translate(161.063 120)" fill="#3baecc"/><path d="M2.75,12H1.25A.25.25,0,0,1,1,11.717l.507-3.847a1,1,0,0,1,.006-1.745,3.185,3.185,0,0,1,.38-1.487L.535,4.219a.751.751,0,0,1,0-1.438L9.154.122a3.006,3.006,0,0,1,1.692,0l8.619,2.66a.751.751,0,0,1,0,1.438l-8.619,2.66a3.006,3.006,0,0,1-1.692,0L2.887,4.945a2.035,2.035,0,0,0-.373,1.2,1,1,0,0,1-.023,1.728L3,11.717A.25.25,0,0,1,2.75,12ZM10,11c-3.446,0-6.25-.9-6.25-2l.393-2.622L8.86,7.834l.006,0,.006,0a4.006,4.006,0,0,0,2.255,0l.006,0,.007,0,4.716-1.455L16.25,9C16.25,10.1,13.446,11,10,11Z" transform="translate(160 164)" fill="#3baecc"/><path d="M16.563,5.625a2.813,2.813,0,1,1,2.813-2.812A2.816,2.816,0,0,1,16.563,5.625Zm-6.875,0A2.813,2.813,0,1,1,12.5,2.813,2.816,2.816,0,0,1,9.688,5.625Zm-6.875,0A2.813,2.813,0,1,1,5.625,2.813,2.816,2.816,0,0,1,2.813,5.625Z" transform="translate(160.313 207.188)" fill="#3baecc"/><path d="M9,20a2.539,2.539,0,0,1-2.571-2.5h-4.5A1.893,1.893,0,0,1,.139,16.312,1.812,1.812,0,0,1,.567,14.3c.893-.869,2-1.95,2-6.174A6.147,6.147,0,0,1,4.114,4.064a6.479,6.479,0,0,1,3.828-2.1,1.226,1.226,0,0,1-.228-.71,1.287,1.287,0,0,1,2.572,0,1.219,1.219,0,0,1-.228.71,6.481,6.481,0,0,1,3.828,2.1,6.147,6.147,0,0,1,1.543,4.062c0,4.224,1.111,5.305,2,6.174a1.811,1.811,0,0,1,.428,2.012A1.894,1.894,0,0,1,16.07,17.5h-4.5A2.54,2.54,0,0,1,9,20ZM7.393,17.5A1.588,1.588,0,0,0,9,19.063a.313.313,0,1,0,0-.625.952.952,0,0,1-.964-.938H7.393Z" transform="translate(201)" fill="#3baecc"/><path d="M18.333,13.5H1.667A1.679,1.679,0,0,1,0,11.813V8.438A1.68,1.68,0,0,0,1.667,6.75,1.679,1.679,0,0,0,0,5.063V1.688A1.679,1.679,0,0,1,1.667,0H18.333A1.679,1.679,0,0,1,20,1.688V5.063a1.688,1.688,0,0,0,0,3.375v3.375A1.679,1.679,0,0,1,18.333,13.5ZM4.167,2.25a.839.839,0,0,0-.833.843v7.312a.84.84,0,0,0,.833.844H15.834a.84.84,0,0,0,.833-.844V3.093a.839.839,0,0,0-.833-.843Zm11.389,7.875H4.444V3.375H15.556v6.749Z" transform="translate(200 43.25)" fill="#3baecc"/><path d="M16.332,15.75H3.667A1.681,1.681,0,0,1,2.018,14.3L1.111,7.875H.833A.839.839,0,0,1,0,7.032V6.469a.84.84,0,0,1,.833-.844H3.172L6.88.463A1.113,1.113,0,0,1,7.78,0a1.093,1.093,0,0,1,.652.215,1.134,1.134,0,0,1,.245,1.571L5.919,5.625H14.08L11.324,1.786A1.136,1.136,0,0,1,11.569.215,1.094,1.094,0,0,1,12.221,0a1.113,1.113,0,0,1,.9.463l3.707,5.162h2.338A.84.84,0,0,1,20,6.469v.563a.839.839,0,0,1-.833.843h-.277L17.982,14.3A1.681,1.681,0,0,1,16.332,15.75ZM13.889,7.875a.84.84,0,0,0-.833.844v3.937a.833.833,0,1,0,1.667,0V8.719A.84.84,0,0,0,13.889,7.875ZM10,7.875a.84.84,0,0,0-.833.844v3.937a.833.833,0,1,0,1.667,0V8.719A.84.84,0,0,0,10,7.875Zm-3.889,0a.84.84,0,0,0-.833.844v3.937a.833.833,0,1,0,1.667,0V8.719A.84.84,0,0,0,6.111,7.875Z" transform="translate(200 82.125)" fill="#3baecc"/><path d="M11.05,20H1.95A1.916,1.916,0,0,1,0,18.125V1.875A1.916,1.916,0,0,1,1.95,0h9.1A1.915,1.915,0,0,1,13,1.875v16.25A1.915,1.915,0,0,1,11.05,20ZM6.5,16.25A1.251,1.251,0,1,0,7.8,17.5,1.277,1.277,0,0,0,6.5,16.25ZM2.437,1.875a.479.479,0,0,0-.487.469V14.531A.479.479,0,0,0,2.437,15h8.125a.479.479,0,0,0,.488-.469V2.344a.479.479,0,0,0-.488-.469Z" transform="translate(203.5 120)" fill="#3baecc"/><path d="M9.7,19.375H9.661a12.627,12.627,0,0,1-2.739-5.936h5.53a12.649,12.649,0,0,1-2.739,5.936H9.7Zm1.746-.159h0a15.026,15.026,0,0,0,2.281-5.778h4.9a9.7,9.7,0,0,1-7.176,5.778Zm-3.514,0h0A9.7,9.7,0,0,1,.752,13.438h4.9a15.048,15.048,0,0,0,2.28,5.776Zm11.117-7.028H13.915a21.41,21.41,0,0,0,0-5h5.134a9.727,9.727,0,0,1,0,5Zm-6.393,0H6.719a20.08,20.08,0,0,1,0-5h5.936a20.07,20.07,0,0,1,0,5Zm-7.2,0H.327a9.73,9.73,0,0,1,0-5H5.46a21.358,21.358,0,0,0,0,5Zm13.161-6.25h-4.9A15.016,15.016,0,0,0,11.444.159a9.7,9.7,0,0,1,7.177,5.776Zm-6.169,0H6.923A12.638,12.638,0,0,1,9.661,0h.052a12.638,12.638,0,0,1,2.739,5.936Zm-6.8,0H.752A9.7,9.7,0,0,1,7.932.159,15.062,15.062,0,0,0,5.65,5.936Z" transform="translate(200.313 160.313)" fill="#3baecc"/><path d="M18.125,15H1.875A1.877,1.877,0,0,1,0,13.125V5.141a.232.232,0,0,1,.234-.234.236.236,0,0,1,.145.051C1.246,5.63,2.367,6.466,6.4,9.394c.125.091.264.2.411.312a5.84,5.84,0,0,0,3.178,1.548h.032A5.933,5.933,0,0,0,13.2,9.7c.145-.112.282-.218.4-.306,3.886-2.823,5.113-3.739,6.016-4.442a.225.225,0,0,1,.141-.05A.236.236,0,0,1,20,5.136v7.988A1.877,1.877,0,0,1,18.125,15Zm-8.107-5H9.982a5.321,5.321,0,0,1-2.46-1.322c-.142-.11-.277-.214-.39-.3C2.317,4.888,1.635,4.354.6,3.546L.359,3.355A.938.938,0,0,1,0,2.617V1.875A1.877,1.877,0,0,1,1.875,0h16.25A1.877,1.877,0,0,1,20,1.875v.742a.938.938,0,0,1-.359.738l-.192.15c-1.051.825-1.685,1.323-6.582,4.877-.111.081-.244.184-.385.292A5.331,5.331,0,0,1,10.018,10Z" transform="translate(200 202.5)" fill="#3baecc"/><path d="M0,20V1.875A1.875,1.875,0,0,1,1.875,0h11.25A1.875,1.875,0,0,1,15,1.875V20L7.5,15.625Z" transform="translate(242.5)" fill="#3baecc"/><path d="M12.418,8.37l-.51-4.62h1.759a.97.97,0,0,0,1-.937V.937a.97.97,0,0,0-1-.937H2.333a.97.97,0,0,0-1,.937V2.812a.97.97,0,0,0,1,.937H4.092l-.51,4.62C1.561,9.251,0,10.83,0,12.812a.97.97,0,0,0,1,.937H6.667v4.063a.3.3,0,0,0,.035.14l1,1.875a.344.344,0,0,0,.6,0l1-1.875a.3.3,0,0,0,.035-.14V13.75H15a.97.97,0,0,0,1-.937C16,10.813,14.417,9.241,12.418,8.37Z" transform="translate(242 40)" fill="#3baecc"/><path d="M9.375,20a1.864,1.864,0,0,1-.721-.144,13.469,13.469,0,0,1-5.895-5.174A17.7,17.7,0,0,1,0,5,1.872,1.872,0,0,1,1.154,3.269L8.654.144a1.882,1.882,0,0,1,1.443,0l7.5,3.125A1.871,1.871,0,0,1,18.75,5a18.613,18.613,0,0,1-.882,5.772,16.226,16.226,0,0,1-2.191,4.375A13.892,13.892,0,0,1,10.1,19.856,1.864,1.864,0,0,1,9.375,20Zm0-17.448V17.434a11.778,11.778,0,0,0,4.761-4.475,15.115,15.115,0,0,0,2.109-7.545Z" transform="translate(240.625 80)" fill="#3baecc"/><path d="M10.156,20H2.969a.469.469,0,0,1-.469-.469V18.75a.469.469,0,0,1,.469-.469H5.625V16.5A6.572,6.572,0,0,1,0,10V8.281a.469.469,0,0,1,.469-.468h.937a.469.469,0,0,1,.469.468V10a4.692,4.692,0,0,0,4.687,4.687H6.59a4.724,4.724,0,0,0,4.66-4.738V8.281a.469.469,0,0,1,.469-.468h.937a.469.469,0,0,1,.469.468V10A6.572,6.572,0,0,1,7.5,16.5v1.786h2.657a.469.469,0,0,1,.469.469v.781A.469.469,0,0,1,10.156,20ZM6.563,13.75A3.755,3.755,0,0,1,2.813,10V3.75a3.75,3.75,0,1,1,7.5,0V10A3.754,3.754,0,0,1,6.563,13.75Z" transform="translate(243.438 120)" fill="#3baecc"/><path d="M16.875,17.5H3.125A1.877,1.877,0,0,1,1.25,15.625V11.25H.938A.939.939,0,0,1,0,10.312V7.187A.939.939,0,0,1,.938,6.25h2.52A3.748,3.748,0,0,1,6.25,0C7.706,0,8.758.593,10,2.115A4.605,4.605,0,0,1,13.75,0a3.748,3.748,0,0,1,2.793,6.25h2.52A.938.938,0,0,1,20,7.187v3.125a.938.938,0,0,1-.937.938H18.75v4.375A1.877,1.877,0,0,1,16.875,17.5Zm-8.75-10v7.187a.938.938,0,0,0,.937.938h1.876a.938.938,0,0,0,.937-.938V7.5Zm5.625-5c-1.516,0-2.413,1.566-2.812,2.5H13.75a1.25,1.25,0,0,0,0-2.5Zm-7.5,0a1.25,1.25,0,0,0,0,2.5H9.062C8.663,4.068,7.768,2.5,6.25,2.5Z" transform="translate(240 161.25)" fill="#3baecc"/><path d="M18.331,18H1.669a1.647,1.647,0,0,1-1.435-.832,1.688,1.688,0,0,1-.008-1.7L8.556.843a1.657,1.657,0,0,1,2.887,0l8.331,14.626a1.685,1.685,0,0,1-.008,1.7A1.648,1.648,0,0,1,18.331,18ZM10,12.445a1.617,1.617,0,1,0,1.6,1.617A1.609,1.609,0,0,0,10,12.445ZM8.9,6.188a.41.41,0,0,0-.3.129.421.421,0,0,0-.116.315l.257,4.782a.42.42,0,0,0,.417.4h1.686a.42.42,0,0,0,.416-.4l.257-4.782a.421.421,0,0,0-.116-.315.41.41,0,0,0-.3-.129Z" transform="translate(240 201)" fill="#3baecc"/><path d="M18.125,17.5H1.875A1.877,1.877,0,0,1,0,15.625V10H7.5v.781a.469.469,0,0,0,.469.469h4.063a.469.469,0,0,0,.469-.469V10H20v5.625A1.877,1.877,0,0,1,18.125,17.5ZM20,8.75H0V5.625A1.877,1.877,0,0,1,1.875,3.75H5V1.875A1.877,1.877,0,0,1,6.875,0h6.25A1.877,1.877,0,0,1,15,1.875V3.75h3.125A1.877,1.877,0,0,1,20,5.625V8.749ZM7.5,2.5V3.75h5V2.5Z" transform="translate(280 1.25)" fill="#3baecc"/><path d="M13.549,20h-.112a11.217,11.217,0,0,1-4.67-1.239,6.048,6.048,0,0,0-2.056-.632.471.471,0,0,1-.461-.469V9.31a.466.466,0,0,1,.14-.333A15.7,15.7,0,0,0,8.323,6.542,13.582,13.582,0,0,1,9.87,4.558a4.734,4.734,0,0,0,.992-2.3l0-.014C11.04,1.515,11.4,0,12.188,0a2.875,2.875,0,0,1,1.758.515A3.127,3.127,0,0,1,15,3.181a5.059,5.059,0,0,1-.772,2.491,5.585,5.585,0,0,0-.528,1.2h3.973A2.338,2.338,0,0,1,20,9.145a2.825,2.825,0,0,1-.76,1.921l0,0a3.283,3.283,0,0,1-.364,3.1,3.089,3.089,0,0,1-.64,2.92,2.082,2.082,0,0,1-.24,1.744C17.184,20,15.168,20,13.549,20ZM4.063,20H.938A.938.938,0,0,1,0,19.063V9.688A.939.939,0,0,1,.938,8.75H4.063A.939.939,0,0,1,5,9.688v9.375A.938.938,0,0,1,4.063,20ZM2.5,16.563a.937.937,0,1,0,.937.937A.938.938,0,0,0,2.5,16.563Z" transform="translate(280 40)" fill="#3baecc"/><path d="M19.675,6.165,12.8.229a.938.938,0,0,0-1.55.71V4.065C4.975,4.137,0,5.395,0,11.341a7.985,7.985,0,0,0,3.255,6.021.7.7,0,0,0,1.1-.728c-1.771-5.665.84-7.168,6.9-7.256v3.434a.938.938,0,0,0,1.55.71l6.875-5.938A.938.938,0,0,0,19.675,6.165Z" transform="translate(280 81.25)" fill="#3baecc"/><path d="M9.806,20H8.555a.938.938,0,0,1-.937-.937V14.375h3.125v4.688A.938.938,0,0,1,9.806,20Zm7.187-6.25H2.694a.943.943,0,0,1-.662-.275L.138,11.581a.467.467,0,0,1,0-.662L2.031,9.024a.943.943,0,0,1,.662-.274H7.618V6.875h3.125V8.75h6.25a.939.939,0,0,1,.938.938v3.125A.939.939,0,0,1,16.993,13.75Zm-1.326-7.5H1.368a.938.938,0,0,1-.937-.937V2.188a.938.938,0,0,1,.937-.938H7.618V.938A.938.938,0,0,1,8.555,0h1.25a.939.939,0,0,1,.938.938V1.25h4.924a.932.932,0,0,1,.663.275l1.894,1.894a.468.468,0,0,1,.138.333.461.461,0,0,1-.138.33L16.33,5.975A.929.929,0,0,1,15.667,6.25Z" transform="translate(280.819 120)" fill="#3baecc"/><path d="M11.258,15A1.243,1.243,0,0,1,10,13.75V1.25A1.242,1.242,0,0,1,11.258,0a1.229,1.229,0,0,1,.793.289l7.5,6.25a1.254,1.254,0,0,1,0,1.922l-7.5,6.25A1.225,1.225,0,0,1,11.258,15Zm-10,0A1.243,1.243,0,0,1,0,13.75V1.25A1.242,1.242,0,0,1,1.258,0a1.229,1.229,0,0,1,.793.289l7.5,6.25a1.254,1.254,0,0,1,0,1.922l-7.5,6.25A1.225,1.225,0,0,1,1.258,15Z" transform="translate(280 162.499)" fill="#3baecc"/><path d="M18,12.188v4.375a.949.949,0,0,1-.964.938h-4.5a.936.936,0,0,1-.683-1.6l1.454-1.414L9,10.3,4.692,14.488,6.146,15.9a.936.936,0,0,1-.683,1.6H.964A.949.949,0,0,1,0,16.563V12.188a.969.969,0,0,1,1.647-.664L3.1,12.938,7.411,8.75,3.1,4.559,1.647,5.977A.969.969,0,0,1,0,5.313V.938A.949.949,0,0,1,.964,0h4.5a.936.936,0,0,1,.683,1.6L4.692,3.016,9,7.2l4.31-4.191L11.854,1.6A.936.936,0,0,1,12.537,0h4.5A.949.949,0,0,1,18,.938V5.313a.969.969,0,0,1-1.647.664L14.9,4.563,10.589,8.75l4.31,4.191,1.454-1.414A.967.967,0,0,1,18,12.188Z" transform="translate(281 201.25)" fill="#3baecc"/><path d="M17.5,20a1.242,1.242,0,0,1-.884-.367L14.478,17.5a5.642,5.642,0,0,1-3.541,1.254V9.219a.469.469,0,0,0-.469-.469H9.531a.469.469,0,0,0-.469.469V18.75A5.636,5.636,0,0,1,5.522,17.5L3.384,19.634a1.25,1.25,0,1,1-1.768-1.768l2.353-2.353a5.566,5.566,0,0,1-.532-2.389V12.5H1.276A1.271,1.271,0,0,1,0,11.285,1.249,1.249,0,0,1,1.25,10H3.437V7.7L1.616,5.884A1.25,1.25,0,0,1,3.384,4.116L5.518,6.25h8.964l2.134-2.134a1.25,1.25,0,0,1,1.768,1.768L16.563,7.7V10H18.75A1.251,1.251,0,0,1,20,11.285,1.273,1.273,0,0,1,18.724,12.5H16.563v.625a5.565,5.565,0,0,1-.532,2.389l2.354,2.353A1.25,1.25,0,0,1,17.5,20ZM14.414,4.375H5.664a4.375,4.375,0,0,1,8.751,0Z" transform="translate(320)" fill="#3baecc"/><path d="M16.071,20H1.929A1.9,1.9,0,0,1,0,18.125V1.875A1.9,1.9,0,0,1,1.929,0H16.071A1.9,1.9,0,0,1,18,1.875v16.25A1.9,1.9,0,0,1,16.071,20ZM9,16.25A1.25,1.25,0,1,0,10.286,17.5,1.269,1.269,0,0,0,9,16.25ZM2.411,1.875a.476.476,0,0,0-.482.469V14.531A.476.476,0,0,0,2.411,15H15.589a.476.476,0,0,0,.482-.469V2.344a.476.476,0,0,0-.482-.469Z" transform="translate(321 40)" fill="#3baecc"/><path d="M18.75,17.5H1.25A1.251,1.251,0,0,1,0,16.25v-2.5A1.252,1.252,0,0,1,1.25,12.5h17.5A1.252,1.252,0,0,1,20,13.75v2.5A1.251,1.251,0,0,1,18.75,17.5Zm-1.875-3.437a.937.937,0,1,0,.938.938A.939.939,0,0,0,16.875,14.063Zm-2.5,0a.937.937,0,1,0,.938.938A.938.938,0,0,0,14.375,14.063ZM18.75,11.25H1.25A1.252,1.252,0,0,1,0,10V7.5A1.252,1.252,0,0,1,1.25,6.25h17.5A1.252,1.252,0,0,1,20,7.5V10A1.252,1.252,0,0,1,18.75,11.25ZM16.875,7.813a.937.937,0,1,0,.938.937A.938.938,0,0,0,16.875,7.813Zm-2.5,0a.937.937,0,1,0,.938.937A.938.938,0,0,0,14.375,7.813ZM18.75,5H1.25A1.252,1.252,0,0,1,0,3.75V1.25A1.252,1.252,0,0,1,1.25,0h17.5A1.252,1.252,0,0,1,20,1.25v2.5A1.252,1.252,0,0,1,18.75,5ZM16.875,1.562a.937.937,0,1,0,.938.938A.939.939,0,0,0,16.875,1.562Zm-2.5,0a.937.937,0,1,0,.938.938A.938.938,0,0,0,14.375,1.562Z" transform="translate(320 81.25)" fill="#3baecc"/><path d="M7.5,20a.925.925,0,0,1-.771-.4c-1.011-1.466-1.862-2.678-2.613-3.748C.709,10.994,0,9.984,0,7.5a7.5,7.5,0,0,1,15,0c0,2.485-.709,3.494-4.114,8.345-.753,1.073-1.6,2.286-2.616,3.752A.925.925,0,0,1,7.5,20Zm0-15.625A3.125,3.125,0,1,0,10.625,7.5,3.128,3.128,0,0,0,7.5,4.375Z" transform="translate(322.5 120)" fill="#3baecc"/><path d="M15.451,13.5H1.563a.824.824,0,0,1-.719-.417.843.843,0,0,1,0-.852L3.358,7.866A2.226,2.226,0,0,1,5.278,6.75H19.165a.824.824,0,0,1,.719.417.843.843,0,0,1,0,.852l-2.515,4.365A2.226,2.226,0,0,1,15.451,13.5ZM0,11.462V1.688A1.679,1.679,0,0,1,1.667,0H7.222L9.445,2.25H15a1.679,1.679,0,0,1,1.667,1.688V5.625H5.278A3.337,3.337,0,0,0,2.4,7.3L0,11.459Z" transform="translate(320 163.25)" fill="#3baecc"/><path d="M14.063,20H.938A.938.938,0,0,1,0,19.063V.938A.939.939,0,0,1,.938,0H8.75V5.313a.938.938,0,0,0,.938.937H15V19.063A.938.938,0,0,1,14.063,20ZM4.218,13.75a.469.469,0,0,0-.468.469v.312A.469.469,0,0,0,4.218,15h6.563a.469.469,0,0,0,.469-.469v-.312a.469.469,0,0,0-.469-.469Zm0-2.5a.469.469,0,0,0-.468.469v.312a.469.469,0,0,0,.468.469h6.563a.469.469,0,0,0,.469-.469v-.312a.469.469,0,0,0-.469-.469Zm0-2.5a.469.469,0,0,0-.468.469v.312A.469.469,0,0,0,4.218,10h6.563a.469.469,0,0,0,.469-.469V9.219a.469.469,0,0,0-.469-.469ZM15,5H10V0h.238A.936.936,0,0,1,10.9.274L14.727,4.1A.931.931,0,0,1,15,4.762V5Z" transform="translate(322.5 200)" fill="#3baecc"/><path d="M18,20H0v-.781a.476.476,0,0,1,.482-.469h.8V.938A.952.952,0,0,1,2.25,0h13.5a.952.952,0,0,1,.964.938V18.75h.8a.476.476,0,0,1,.482.469V20ZM8.2,15a.476.476,0,0,0-.482.468V18.75h2.572V15.468A.476.476,0,0,0,9.8,15Zm2.571-5a.476.476,0,0,0-.482.469v1.562a.476.476,0,0,0,.482.469h1.607a.476.476,0,0,0,.482-.469V10.469A.476.476,0,0,0,12.375,10ZM5.625,10a.476.476,0,0,0-.482.469v1.562a.476.476,0,0,0,.482.469H7.232a.476.476,0,0,0,.482-.469V10.469A.476.476,0,0,0,7.232,10Zm5.143-3.75a.476.476,0,0,0-.482.469V8.281a.476.476,0,0,0,.482.469h1.607a.476.476,0,0,0,.482-.469V6.718a.476.476,0,0,0-.482-.469Zm-5.143,0a.476.476,0,0,0-.482.469V8.281a.476.476,0,0,0,.482.469H7.232a.476.476,0,0,0,.482-.469V6.718a.476.476,0,0,0-.482-.469ZM10.768,2.5a.476.476,0,0,0-.482.469V4.531A.476.476,0,0,0,10.768,5h1.607a.476.476,0,0,0,.482-.469V2.969a.476.476,0,0,0-.482-.469Zm-5.143,0a.476.476,0,0,0-.482.469V4.531A.476.476,0,0,0,5.625,5H7.232a.476.476,0,0,0,.482-.469V2.969A.476.476,0,0,0,7.232,2.5Z" transform="translate(361)" fill="#3baecc"/><path d="M9.688,19.375A9.648,9.648,0,0,1,3,16.692L1.6,18.087a.924.924,0,0,1-.656.276.967.967,0,0,1-.653-.258A.921.921,0,0,1,0,17.424V12.188a.939.939,0,0,1,.938-.938H6.174a.938.938,0,0,1,.663,1.6L5.207,14.481A6.566,6.566,0,0,0,16.052,11.3a.469.469,0,0,1,.455-.357h2.238a.469.469,0,0,1,.362.17.463.463,0,0,1,.1.383A9.688,9.688,0,0,1,9.688,19.375ZM2.867,8.438H.629a.468.468,0,0,1-.462-.553,9.689,9.689,0,0,1,16.212-5.2l1.4-1.4a.936.936,0,0,1,1.6.663V7.187a.939.939,0,0,1-.938.938H13.2a.938.938,0,0,1-.663-1.6l1.631-1.631A6.565,6.565,0,0,0,3.323,8.08.471.471,0,0,1,2.867,8.438Z" transform="translate(360.313 40.313)" fill="#3baecc"/><path d="M17.956,20a.933.933,0,0,1-.664-.275L13.4,15.83a.931.931,0,0,1-.274-.663V14.53a8.042,8.042,0,0,1-5,1.719A8.124,8.124,0,1,1,16.25,8.124a8.041,8.041,0,0,1-1.719,5h.636a.929.929,0,0,1,.664.274l3.894,3.894a.942.942,0,0,1,0,1.327l-1.105,1.105A.924.924,0,0,1,17.956,20ZM8.125,3.125a5,5,0,1,0,5,5A5.006,5.006,0,0,0,8.125,3.125Z" transform="translate(360.001 80)" fill="#3baecc"/><path d="M10.033,18.441a10.5,10.5,0,0,1-6.781-2.61A9.22,9.22,0,0,1,0,8.808C.02,8.442.015,7.96.009,7.4c0-.215,0-.441-.006-.674a.466.466,0,0,1,.469-.473H6.409a.469.469,0,0,1,.469.469V8.754c0,2.576,1.62,3.75,3.126,3.75s3.123-1.173,3.123-3.75V6.723a.469.469,0,0,1,.469-.469h5.932A.466.466,0,0,1,20,6.727c0,.126,0,.253,0,.378v.022c-.008.649-.015,1.262,0,1.678a9.256,9.256,0,0,1-3.215,7.026A10.389,10.389,0,0,1,10.033,18.441ZM6.409,5H.469A.469.469,0,0,1,0,4.535V1.41A1.408,1.408,0,0,1,1.406,0H5.467A1.408,1.408,0,0,1,6.873,1.41V4.535A.464.464,0,0,1,6.409,5ZM19.537,5H13.6a.469.469,0,0,1-.469-.469V1.406A1.407,1.407,0,0,1,14.532,0h4.062A1.407,1.407,0,0,1,20,1.406V4.535A.464.464,0,0,1,19.537,5Z" transform="translate(360 120.779)" fill="#3baecc"/><path d="M9.688,19.375A9.688,9.688,0,0,1,2.837,2.837a9.688,9.688,0,0,1,13.7,13.7A9.625,9.625,0,0,1,9.688,19.375ZM8.75,3.75a.469.469,0,0,0-.469.468v6.574a.476.476,0,0,0,.192.379l3.445,2.5a.471.471,0,0,0,.656-.1l1.1-1.516a.47.47,0,0,0,.085-.353.462.462,0,0,0-.187-.3l-2.48-1.8V4.218a.469.469,0,0,0-.468-.468Z" transform="translate(360.313 160.313)" fill="#3baecc"/><path d="M1.25,15H.938A.939.939,0,0,1,0,14.063V.938A.939.939,0,0,1,.938,0H1.25V.781a.469.469,0,0,0,.469.469H3.281A.469.469,0,0,0,3.75.781V0h12.5V.781a.469.469,0,0,0,.468.469h1.562A.469.469,0,0,0,18.75.781V0h.313A.938.938,0,0,1,20,.938V14.063a.938.938,0,0,1-.937.938H18.75v-.781a.469.469,0,0,0-.469-.469H16.718a.469.469,0,0,0-.468.469V15H3.75v-.781a.469.469,0,0,0-.469-.469H1.719a.469.469,0,0,0-.469.469V15ZM6.094,8.438a.469.469,0,0,0-.469.469v3.749a.469.469,0,0,0,.469.469h7.812a.469.469,0,0,0,.469-.469V8.906a.469.469,0,0,0-.469-.469ZM16.718,10a.469.469,0,0,0-.468.469v1.562a.469.469,0,0,0,.468.469h1.562a.469.469,0,0,0,.469-.469V10.469A.469.469,0,0,0,18.281,10Zm-15,0a.469.469,0,0,0-.469.469v1.562a.469.469,0,0,0,.469.469H3.281a.469.469,0,0,0,.469-.469V10.469A.469.469,0,0,0,3.281,10Zm15-3.75a.469.469,0,0,0-.468.469V8.281a.469.469,0,0,0,.468.469h1.562a.469.469,0,0,0,.469-.469V6.719a.469.469,0,0,0-.469-.469Zm-15,0a.469.469,0,0,0-.469.469V8.281a.469.469,0,0,0,.469.469H3.281a.469.469,0,0,0,.469-.469V6.719a.469.469,0,0,0-.469-.469ZM6.094,1.875a.469.469,0,0,0-.469.469v3.75a.469.469,0,0,0,.469.469h7.812a.469.469,0,0,0,.469-.469V2.344a.469.469,0,0,0-.469-.469ZM16.718,2.5a.469.469,0,0,0-.468.469V4.532A.469.469,0,0,0,16.718,5h1.562a.469.469,0,0,0,.469-.469V2.969a.469.469,0,0,0-.469-.469Zm-15,0a.469.469,0,0,0-.469.469V4.532A.469.469,0,0,0,1.719,5H3.281a.469.469,0,0,0,.469-.469V2.969A.469.469,0,0,0,3.281,2.5Z" transform="translate(360 202.5)" fill="#3baecc"/><path d="M6.03,18h0a3.746,3.746,0,0,1-1.862-.41.837.837,0,0,1-.345-.453c-.054-.172-.11-.344-.166-.517a8.62,8.62,0,0,1-.487-5.37h-1.5A1.679,1.679,0,0,1,0,9.562V6.188A1.679,1.679,0,0,1,1.667,4.5H7.222c4.307,0,6.983-2.344,9.134-4.228L16.667,0a2.239,2.239,0,0,1,2.222,2.25V6.284a1.7,1.7,0,0,1,0,3.182V13.5a2.239,2.239,0,0,1-2.222,2.25l-.309-.27a23.169,23.169,0,0,0-3.523-2.692,10.8,10.8,0,0,0-4.884-1.515A1.806,1.806,0,0,0,6.812,12.4a1.621,1.621,0,0,0,.148,1.429.437.437,0,0,1,.036.41,1.861,1.861,0,0,0,.688,2.14.854.854,0,0,1,.239.772.84.84,0,0,1-.5.618A3.757,3.757,0,0,1,6.03,18ZM16.667,2.958A14.836,14.836,0,0,1,8.889,6.649V9.1a14.836,14.836,0,0,1,7.778,3.691Z" transform="translate(400 1)" fill="#3baecc"/><path d="M16.25,17.5H3.75V3.75H5V1.875A1.877,1.877,0,0,1,6.875,0h6.25A1.877,1.877,0,0,1,15,1.875V3.75h1.25V17.5ZM7.5,2.5V3.75h5V2.5Zm10.625,15H17.5V3.75h.625A1.877,1.877,0,0,1,20,5.625v10A1.877,1.877,0,0,1,18.125,17.5ZM2.5,17.5H1.875A1.877,1.877,0,0,1,0,15.625v-10A1.877,1.877,0,0,1,1.875,3.75H2.5V17.5Z" transform="translate(400 41.25)" fill="#3baecc"/><path d="M16.071,17.5H1.929A1.9,1.9,0,0,1,0,15.625V1.875A1.9,1.9,0,0,1,1.929,0H12.7a1.944,1.944,0,0,1,1.364.549l3.37,3.277A1.862,1.862,0,0,1,18,5.152V15.625A1.9,1.9,0,0,1,16.071,17.5ZM9,10a2.5,2.5,0,1,0,2.571,2.5A2.539,2.539,0,0,0,9,10ZM3.054,2.5a.476.476,0,0,0-.482.469V7.031a.476.476,0,0,0,.482.469h9.321a.476.476,0,0,0,.482-.469V3.105a.469.469,0,0,0-.141-.332l-.14-.136a.492.492,0,0,0-.34-.137Z" transform="translate(401 81.25)" fill="#3baecc"/><path d="M15.379,18a.832.832,0,0,1-.683-.36L5.951,5.106A9.551,9.551,0,0,0,4.6,5.863L11.2,15.4a11.3,11.3,0,0,1-1.2.064,11.406,11.406,0,0,1-1.539-.1L7.05,13.323l-4.146-6a9.562,9.562,0,0,0-.983,1.263l4.312,6.237a11.3,11.3,0,0,1-6-4.969,1.7,1.7,0,0,1,0-1.714A11.259,11.259,0,0,1,4.981,3.7l-1.5-2.053A.852.852,0,0,1,3.689.475L4.145.153A.821.821,0,0,1,4.622,0,.831.831,0,0,1,5.3.36L7.137,2.9A11.3,11.3,0,0,1,19.769,8.143a1.7,1.7,0,0,1,0,1.714,11.266,11.266,0,0,1-4.75,4.441l1.5,2.052a.852.852,0,0,1-.205,1.175l-.454.322A.822.822,0,0,1,15.379,18ZM13.188,7.282a3.7,3.7,0,0,1-.307,3.923l.661.957A4.809,4.809,0,0,0,14.722,9,4.758,4.758,0,0,0,10,4.218a4.656,4.656,0,0,0-1.723.329L8.94,5.5a3.575,3.575,0,0,1,2.76.27,1.505,1.505,0,1,0,1.486,1.508Z" transform="translate(400 121)" fill="#3baecc"/><path d="M16.8,6.08A3,3,0,0,0,12.334,2.5,5,5,0,0,0,3,5q0,.128.006.254A4.5,4.5,0,0,0,4.5,14H16a4,4,0,0,0,.8-7.92Z" transform="translate(400 163)" fill="#3baecc"/><path d="M19.062,0H.939A.938.938,0,0,0,.276,1.6L7.5,8.826v8.049a.938.938,0,0,0,.4.768l3.125,2.187a.938.938,0,0,0,1.475-.768V8.826L19.724,1.6A.938.938,0,0,0,19.062,0Z" transform="translate(400 200)" fill="#3baecc"/><path d="M16.071,20H1.929A1.9,1.9,0,0,1,0,18.125V7.969A.476.476,0,0,1,.482,7.5H17.518A.476.476,0,0,1,18,7.969V18.125A1.9,1.9,0,0,1,16.071,20Zm-2.732-5a.475.475,0,0,0-.481.468v1.563a.475.475,0,0,0,.481.468h1.607a.476.476,0,0,0,.482-.468V15.468A.476.476,0,0,0,14.946,15ZM8.2,15a.476.476,0,0,0-.482.468v1.563A.476.476,0,0,0,8.2,17.5H9.8a.476.476,0,0,0,.482-.468V15.468A.476.476,0,0,0,9.8,15ZM3.054,15a.476.476,0,0,0-.482.468v1.563a.476.476,0,0,0,.482.468H4.661a.475.475,0,0,0,.482-.468V15.468A.475.475,0,0,0,4.661,15Zm10.285-5a.476.476,0,0,0-.481.469v1.562a.476.476,0,0,0,.481.469h1.607a.476.476,0,0,0,.482-.469V10.469A.476.476,0,0,0,14.946,10ZM8.2,10a.476.476,0,0,0-.482.469v1.562A.476.476,0,0,0,8.2,12.5H9.8a.476.476,0,0,0,.482-.469V10.469A.476.476,0,0,0,9.8,10ZM3.054,10a.476.476,0,0,0-.482.469v1.562a.476.476,0,0,0,.482.469H4.661a.476.476,0,0,0,.482-.469V10.469A.476.476,0,0,0,4.661,10ZM17.518,6.25H.482A.476.476,0,0,1,0,5.782V4.375A1.9,1.9,0,0,1,1.929,2.5H3.857V.469A.476.476,0,0,1,4.339,0H5.946a.476.476,0,0,1,.482.469V2.5h5.143V.469A.476.476,0,0,1,12.054,0h1.607a.476.476,0,0,1,.481.469V2.5h1.929A1.9,1.9,0,0,1,18,4.375V5.782A.476.476,0,0,1,17.518,6.25Z" transform="translate(441)" fill="#3baecc"/><path d="M8.357,20A8.253,8.253,0,0,1,0,11.875,7.991,7.991,0,0,1,2.033,6.562,8.409,8.409,0,0,1,7.071,3.847V2.5H5.946a.476.476,0,0,1-.482-.469V.469A.476.476,0,0,1,5.946,0h4.821a.476.476,0,0,1,.482.469V2.031a.476.476,0,0,1-.482.469H9.643V3.847A8.44,8.44,0,0,1,13.649,5.59l1.105-1.075a.492.492,0,0,1,.683,0l1.137,1.106a.46.46,0,0,1,0,.664L15.393,7.434l-.024.023a7.885,7.885,0,0,1,1.345,4.417A8.253,8.253,0,0,1,8.357,20Zm-.8-13.1a.476.476,0,0,0-.482.468v5.918a.476.476,0,0,0,.482.469H9.161a.476.476,0,0,0,.481-.469V7.363a.475.475,0,0,0-.481-.468Z" transform="translate(441.642 40)" fill="#3baecc"/><path d="M17.357,17.5H15.425a.636.636,0,0,1-.643-.6,14.147,14.147,0,0,0-4.318-9.57,14.939,14.939,0,0,0-9.843-4.2A.635.635,0,0,1,0,2.5V.626A.634.634,0,0,1,.64,0H.663A18.177,18.177,0,0,1,12.745,5.127,17.216,17.216,0,0,1,18,16.855a.607.607,0,0,1-.172.446A.659.659,0,0,1,17.357,17.5Zm-5.8,0H9.63a.636.636,0,0,1-.644-.581A8.893,8.893,0,0,0,.6,8.763.634.634,0,0,1,0,8.138V6.26a.634.634,0,0,1,.641-.625H.675A12.349,12.349,0,0,1,8.645,9.1,11.7,11.7,0,0,1,12.2,16.844a.608.608,0,0,1-.167.453A.658.658,0,0,1,11.561,17.5Zm-8.988,0a2.5,2.5,0,1,1,0-5,2.5,2.5,0,1,1,0,5Z" transform="translate(441 81.25)" fill="#3baecc"/><path d="M16.071,20H1.929A1.9,1.9,0,0,1,0,18.125v-7.5A1.9,1.9,0,0,1,1.929,8.75h.964V5.937A6.031,6.031,0,0,1,9,0a6.031,6.031,0,0,1,6.107,5.937V8.75h.964A1.9,1.9,0,0,1,18,10.625v7.5A1.9,1.9,0,0,1,16.071,20ZM9,3.125A2.857,2.857,0,0,0,6.107,5.937V8.75h5.785V5.937A2.857,2.857,0,0,0,9,3.125Z" transform="translate(441 120)" fill="#3baecc"/><path d="M3.125,20a3.127,3.127,0,0,1-.937-6.109V6.106a3.124,3.124,0,1,1,1.875,0v5.625a9.5,9.5,0,0,1,3.174-.66c1.4-.129,2.726-.25,3.329-1A2.408,2.408,0,0,0,11,8.625a3.12,3.12,0,1,1,1.879-.035,4.189,4.189,0,0,1-.844,2.652c-1.106,1.371-2.97,1.544-4.615,1.7l-.021,0a7.782,7.782,0,0,0-2.563.5,1.375,1.375,0,0,0-.582.523A3.124,3.124,0,0,1,3.125,20Zm0-3.749a.625.625,0,1,0,.625.625A.625.625,0,0,0,3.125,16.25ZM11.875,5a.625.625,0,1,0,.625.625A.625.625,0,0,0,11.875,5ZM3.125,2.5a.625.625,0,1,0,.625.625A.625.625,0,0,0,3.125,2.5Z" transform="translate(442.5 160)" fill="#3baecc"/><path d="M2.5,20H1.875a.938.938,0,0,1-.937-.937V3.982A2.187,2.187,0,0,1,2.188,0L2.26,0A2.216,2.216,0,0,1,4.37,2.049a2.181,2.181,0,0,1-.14.92A7.575,7.575,0,0,1,6.889,2.5a10.8,10.8,0,0,1,3.6.737,8.972,8.972,0,0,0,2.85.621,11.527,11.527,0,0,0,4.568-1.244,1.247,1.247,0,0,1,1.777,1.133v9.5a1.248,1.248,0,0,1-.541,1.03,8.18,8.18,0,0,1-4.785,1.6,10.807,10.807,0,0,1-3.6-.735l-.005,0-.005,0-.005,0-.007,0a8.959,8.959,0,0,0-2.835-.616,10.925,10.925,0,0,0-4.47.864v3.688A.938.938,0,0,1,2.5,20Zm12.437-8.828h0v2.8a6.333,6.333,0,0,0,2.875-1.059V10.155a7.26,7.26,0,0,1-2.875,1.017V8.393a7.339,7.339,0,0,1-1.164.094,7.646,7.646,0,0,1-1.71-.2V5.618a14.517,14.517,0,0,1-2.132-.591L9.856,5,9.8,4.982l-.033-.011c-.193-.064-.392-.13-.578-.187V7.417a7.038,7.038,0,0,0-1.926-.29,6.97,6.97,0,0,0-.949.068V4.4a8.288,8.288,0,0,0-2.276.636l-.017.006-.1.04L3.859,5.1l-.124.047-.111.04-.187.069V8.013A13.832,13.832,0,0,1,6.313,7.2V9.931a11.143,11.143,0,0,0-2.876.679v2.753a12.325,12.325,0,0,1,2.876-.647V9.931c.409-.035.758-.052,1.066-.052a7.965,7.965,0,0,1,1.807.2v2.671a14.935,14.935,0,0,1,2.119.588l.006,0,.005,0,.005,0c.292.1.514.17.74.241V10.953h0c-.391-.11-.786-.241-1.1-.346L10.94,10.6l-.031-.011-.007,0-.015-.005-.008,0a17.452,17.452,0,0,0-1.691-.5V7.419c.418.114.853.26,1.14.357l.013,0a17.807,17.807,0,0,0,1.722.508v2.663h0a6.558,6.558,0,0,0,2.873.219Zm2.876-6.465a13.847,13.847,0,0,1-2.876.878V8.393a11.721,11.721,0,0,0,2.739-.876l.017-.007.008,0,.112-.047V4.707Z" transform="translate(440.156 200)" fill="#3baecc"/></g></svg>