<svg xmlns="http://www.w3.org/2000/svg" width="775" height="322" viewBox="0 0 775 322"><g transform="translate(-441 -489)"><rect width="775" height="322" rx="8" transform="translate(441 489)" fill="#e7edf2"/><g transform="translate(145 -114)"><path d="M61,60H0v-.734C0,47.881,1.572,41.591,4.8,40.033c.837-.4,1.917-1.021,3.163-1.736,3.568-2.044,8.825-5.055,14.7-6.577-3.837-3.6-6.425-9.93-6.425-15.975C16.238,6.622,22.235,0,30.5,0S44.759,6.683,44.759,15.892c0,5.974-2.48,12.067-6.285,15.691,7.988,1.822,14.793,6.137,17.8,8.042,4.3,2.726,4.686,17.906,4.716,19.628L61,60Z" transform="translate(380 734)" fill="#5b7183"/><text transform="translate(411 820)" fill="#5b7183" font-size="14" font-family="OpenSans-Bold, Open Sans" font-weight="700"><tspan x="-22.883" y="0">Profile</tspan></text><text transform="translate(504 820)" fill="#5b7183" font-size="14" font-family="OpenSans-Bold, Open Sans" font-weight="700"><tspan x="-22.883" y="0">Profile</tspan></text><text transform="translate(597 820)" fill="#5b7183" font-size="14" font-family="OpenSans-Bold, Open Sans" font-weight="700"><tspan x="-22.883" y="0">Profile</tspan></text><text transform="translate(771 820)" fill="#5b7183" font-size="14" font-family="OpenSans-Bold, Open Sans" font-weight="700"><tspan x="-22.883" y="0">Profile</tspan></text><text transform="translate(863.5 820)" fill="#5b7183" font-size="14" font-family="OpenSans-Bold, Open Sans" font-weight="700"><tspan x="-7.499" y="0">ID</tspan></text><text transform="translate(957 820)" fill="#5b7183" font-size="14" font-family="OpenSans-Bold, Open Sans" font-weight="700"><tspan x="-28.526" y="0">Security</tspan></text><path d="M61,60H0v-.734C0,47.881,1.572,41.591,4.8,40.033c.837-.4,1.917-1.021,3.163-1.736,3.568-2.044,8.825-5.055,14.7-6.577-3.837-3.6-6.425-9.93-6.425-15.975C16.238,6.622,22.235,0,30.5,0S44.759,6.683,44.759,15.892c0,5.974-2.48,12.067-6.285,15.691,7.988,1.822,14.793,6.137,17.8,8.042,4.3,2.726,4.686,17.906,4.716,19.628L61,60Z" transform="translate(740 734)" fill="#5b7183"/><path d="M33.638,63.776a1.331,1.331,0,0,1-.365-1.85c5.3-7.856,7.854-16.821,7.785-27.4a1.342,1.342,0,0,1,1.333-1.339,1.381,1.381,0,0,1,1.344,1.326c.067,10.984-2.7,20.706-8.239,28.906A1.344,1.344,0,0,1,34.383,64,1.314,1.314,0,0,1,33.638,63.776Zm-7.145-.2A1.328,1.328,0,0,1,26.3,61.7,38.8,38.8,0,0,0,33.853,46.96a1.337,1.337,0,0,1,2.586.68,41.361,41.361,0,0,1-8.063,15.753,1.328,1.328,0,0,1-1.036.485A1.351,1.351,0,0,1,26.493,63.579Zm15.3-2a1.328,1.328,0,0,1-.587-1.786c6.131-12.027,5.716-23.278,5.52-28.688-.026-.653-.04-1.013-.04-1.315,0-8.661-7.292-15.7-16.255-15.7a16,16,0,0,0-7.123,1.672,1.335,1.335,0,1,1-1.186-2.392,18.644,18.644,0,0,1,8.309-1.947c10.438,0,18.931,8.24,18.931,18.371,0,.277.014.6.03.979.2,5.431.645,17.594-5.8,30.227a1.331,1.331,0,0,1-1.2.731A1.362,1.362,0,0,1,41.792,61.582Zm-24.915-.925a1.331,1.331,0,0,1,.463-1.83,23.69,23.69,0,0,0,5.817-4.776,1.336,1.336,0,0,1,2.024,1.744,26.428,26.428,0,0,1-6.47,5.323,1.328,1.328,0,0,1-.683.187A1.346,1.346,0,0,1,16.878,60.656Zm32.844-2.363a1.328,1.328,0,0,1-.793-1.712c4.085-10.966,3.727-20.888,3.55-25.658l-.014-.337c-.015-.307-.026-.573-.026-.8A21.119,21.119,0,0,0,44.11,13.021a1.324,1.324,0,0,1-.235-1.869,1.339,1.339,0,0,1,1.877-.235,23.759,23.759,0,0,1,9.364,18.869c0,.2.011.424.022.686l.014.285c.179,5.008.556,15.287-3.711,26.749a1.33,1.33,0,0,1-1.253.875A1.217,1.217,0,0,1,49.721,58.293ZM9.878,55.875a1.334,1.334,0,0,1,.8-1.715c11.087-4.021,13.414-12.3,13.414-18.536V29.96a6.935,6.935,0,0,1,6.885-7.128,7.069,7.069,0,0,1,7.159,6.952c0,.486.042,1.1.085,1.835a53.841,53.841,0,0,1,.134,5.733,1.357,1.357,0,0,1-1.392,1.28,1.341,1.341,0,0,1-1.285-1.389,51.071,51.071,0,0,0-.126-5.458c-.056-.8-.094-1.475-.094-2A4.393,4.393,0,0,0,30.974,25.5a4.293,4.293,0,0,0-4.208,4.461v5.664c0,7.088-2.632,16.491-15.176,21.046a1.231,1.231,0,0,1-.455.083A1.343,1.343,0,0,1,9.878,55.875ZM5.033,50.987a1.336,1.336,0,0,1,.91-1.656c7.281-2.11,10.116-5.95,10.116-13.7V29.968c0-6.84,6.438-12.84,13.775-12.84A12.947,12.947,0,0,1,43.018,29.792a1.338,1.338,0,0,1-2.677,0,10.274,10.274,0,0,0-10.508-10c-5.809,0-11.1,4.851-11.1,10.174v5.664c0,8.829-3.716,13.838-12.047,16.261a1.346,1.346,0,0,1-1.657-.906Zm22.154.458a1.329,1.329,0,0,1-.573-1.8,26.927,26.927,0,0,0,2.832-12.885V32.077a1.338,1.338,0,0,1,2.677,0v4.685a29.529,29.529,0,0,1-3.132,14.115,1.34,1.34,0,0,1-1.191.717A1.319,1.319,0,0,1,27.187,51.445Zm30.958-1.133a1.333,1.333,0,0,1-1.06-1.562A75.927,75.927,0,0,0,58.22,30.7l-.031-.867c0-15-12.453-27.168-27.758-27.168a28.171,28.171,0,0,0-22,10.9,1.336,1.336,0,0,1-2.114-1.635A30.86,30.86,0,0,1,30.431,0C47.213,0,60.865,13.362,60.865,29.789l.027.774a78.538,78.538,0,0,1-1.178,18.7A1.34,1.34,0,0,1,58.4,50.339,1.4,1.4,0,0,1,58.145,50.312ZM1.491,46.24a1.335,1.335,0,0,1,.91-1.656l2.519-.731c5.1-1.482,6.58-3.326,6.58-8.219a1.338,1.338,0,0,1,2.677,0c0,6.056-2.3,8.978-8.507,10.778l-2.519.728a1.3,1.3,0,0,1-.375.054A1.338,1.338,0,0,1,1.491,46.24Zm-.252-6.328a1.338,1.338,0,0,1,1.338-1.334,2.8,2.8,0,0,0,2.777-2.947V29.968c0-13.147,11.393-24.256,24.881-24.256a26.214,26.214,0,0,1,9.79,1.893,1.329,1.329,0,0,1,.725,1.742A1.343,1.343,0,0,1,39,10.069a23.492,23.492,0,0,0-8.764-1.687c-12.035,0-22.2,9.887-22.2,21.589v5.664a5.479,5.479,0,0,1-5.456,5.611A1.336,1.336,0,0,1,1.239,39.912ZM0,34.744V29.965A30.843,30.843,0,0,1,3.3,16.178a1.338,1.338,0,0,1,2.378,1.227,28.121,28.121,0,0,0-3,12.56v4.778a1.338,1.338,0,0,1-2.677,0Zm11.5-4.778A18.4,18.4,0,0,1,17.842,16.24a1.343,1.343,0,0,1,1.89.112,1.327,1.327,0,0,1-.112,1.883,15.75,15.75,0,0,0-5.44,11.731,1.34,1.34,0,0,1-2.679,0Z" transform="translate(566 733)" fill="#5b7183"/><path d="M33.638,63.776a1.331,1.331,0,0,1-.365-1.85c5.3-7.856,7.854-16.821,7.785-27.4a1.342,1.342,0,0,1,1.333-1.339,1.381,1.381,0,0,1,1.344,1.326c.067,10.984-2.7,20.706-8.239,28.906A1.344,1.344,0,0,1,34.383,64,1.314,1.314,0,0,1,33.638,63.776Zm-7.145-.2A1.328,1.328,0,0,1,26.3,61.7,38.8,38.8,0,0,0,33.853,46.96a1.337,1.337,0,0,1,2.586.68,41.361,41.361,0,0,1-8.063,15.753,1.328,1.328,0,0,1-1.036.485A1.351,1.351,0,0,1,26.493,63.579Zm15.3-2a1.328,1.328,0,0,1-.587-1.786c6.131-12.027,5.716-23.278,5.52-28.688-.026-.653-.04-1.013-.04-1.315,0-8.661-7.292-15.7-16.255-15.7a16,16,0,0,0-7.123,1.672,1.335,1.335,0,1,1-1.186-2.392,18.644,18.644,0,0,1,8.309-1.947c10.438,0,18.931,8.24,18.931,18.371,0,.277.014.6.03.979.2,5.431.645,17.594-5.8,30.227a1.331,1.331,0,0,1-1.2.731A1.362,1.362,0,0,1,41.792,61.582Zm-24.915-.925a1.331,1.331,0,0,1,.463-1.83,23.69,23.69,0,0,0,5.817-4.776,1.336,1.336,0,0,1,2.024,1.744,26.428,26.428,0,0,1-6.47,5.323,1.328,1.328,0,0,1-.683.187A1.346,1.346,0,0,1,16.878,60.656Zm32.844-2.363a1.328,1.328,0,0,1-.793-1.712c4.085-10.966,3.727-20.888,3.55-25.658l-.014-.337c-.015-.307-.026-.573-.026-.8A21.119,21.119,0,0,0,44.11,13.021a1.324,1.324,0,0,1-.235-1.869,1.339,1.339,0,0,1,1.877-.235,23.759,23.759,0,0,1,9.364,18.869c0,.2.011.424.022.686l.014.285c.179,5.008.556,15.287-3.711,26.749a1.33,1.33,0,0,1-1.253.875A1.217,1.217,0,0,1,49.721,58.293ZM9.878,55.875a1.334,1.334,0,0,1,.8-1.715c11.087-4.021,13.414-12.3,13.414-18.536V29.96a6.935,6.935,0,0,1,6.885-7.128,7.069,7.069,0,0,1,7.159,6.952c0,.486.042,1.1.085,1.835a53.841,53.841,0,0,1,.134,5.733,1.357,1.357,0,0,1-1.392,1.28,1.341,1.341,0,0,1-1.285-1.389,51.071,51.071,0,0,0-.126-5.458c-.056-.8-.094-1.475-.094-2A4.393,4.393,0,0,0,30.974,25.5a4.293,4.293,0,0,0-4.208,4.461v5.664c0,7.088-2.632,16.491-15.176,21.046a1.231,1.231,0,0,1-.455.083A1.343,1.343,0,0,1,9.878,55.875ZM5.033,50.987a1.336,1.336,0,0,1,.91-1.656c7.281-2.11,10.116-5.95,10.116-13.7V29.968c0-6.84,6.438-12.84,13.775-12.84A12.947,12.947,0,0,1,43.018,29.792a1.338,1.338,0,0,1-2.677,0,10.274,10.274,0,0,0-10.508-10c-5.809,0-11.1,4.851-11.1,10.174v5.664c0,8.829-3.716,13.838-12.047,16.261a1.346,1.346,0,0,1-1.657-.906Zm22.154.458a1.329,1.329,0,0,1-.573-1.8,26.927,26.927,0,0,0,2.832-12.885V32.077a1.338,1.338,0,0,1,2.677,0v4.685a29.529,29.529,0,0,1-3.132,14.115,1.34,1.34,0,0,1-1.191.717A1.319,1.319,0,0,1,27.187,51.445Zm30.958-1.133a1.333,1.333,0,0,1-1.06-1.562A75.927,75.927,0,0,0,58.22,30.7l-.031-.867c0-15-12.453-27.168-27.758-27.168a28.171,28.171,0,0,0-22,10.9,1.336,1.336,0,0,1-2.114-1.635A30.86,30.86,0,0,1,30.431,0C47.213,0,60.865,13.362,60.865,29.789l.027.774a78.538,78.538,0,0,1-1.178,18.7A1.34,1.34,0,0,1,58.4,50.339,1.4,1.4,0,0,1,58.145,50.312ZM1.491,46.24a1.335,1.335,0,0,1,.91-1.656l2.519-.731c5.1-1.482,6.58-3.326,6.58-8.219a1.338,1.338,0,0,1,2.677,0c0,6.056-2.3,8.978-8.507,10.778l-2.519.728a1.3,1.3,0,0,1-.375.054A1.338,1.338,0,0,1,1.491,46.24Zm-.252-6.328a1.338,1.338,0,0,1,1.338-1.334,2.8,2.8,0,0,0,2.777-2.947V29.968c0-13.147,11.393-24.256,24.881-24.256a26.214,26.214,0,0,1,9.79,1.893,1.329,1.329,0,0,1,.725,1.742A1.343,1.343,0,0,1,39,10.069a23.492,23.492,0,0,0-8.764-1.687c-12.035,0-22.2,9.887-22.2,21.589v5.664a5.479,5.479,0,0,1-5.456,5.611A1.336,1.336,0,0,1,1.239,39.912ZM0,34.744V29.965A30.843,30.843,0,0,1,3.3,16.178a1.338,1.338,0,0,1,2.378,1.227,28.121,28.121,0,0,0-3,12.56v4.778a1.338,1.338,0,0,1-2.677,0Zm11.5-4.778A18.4,18.4,0,0,1,17.842,16.24a1.343,1.343,0,0,1,1.89.112,1.327,1.327,0,0,1-.112,1.883,15.75,15.75,0,0,0-5.44,11.731,1.34,1.34,0,0,1-2.679,0Z" transform="translate(926 733)" fill="#5b7183"/><path d="M58.847,38H2.153A2.134,2.134,0,0,1,0,35.891V2.11A2.134,2.134,0,0,1,2.153,0H58.847A2.134,2.134,0,0,1,61,2.11V35.89A2.134,2.134,0,0,1,58.847,38Zm-32.8-14.328v2.492H55.917V23.672ZM13.644,10.087a4.929,4.929,0,0,0-4.488,3.085,4.833,4.833,0,0,0-.23,2.934A6.483,6.483,0,0,0,10.8,19.25a1.306,1.306,0,0,1,.511,1.273c-.2.7-1.261,1.3-2.993,1.687a4.5,4.5,0,0,0-3.005,1.738,2.786,2.786,0,0,0-.231,2.217H22.24a2.763,2.763,0,0,0-.233-2.2,4.543,4.543,0,0,0-3.038-1.755c-1.714-.387-2.767-.982-2.965-1.676a1.32,1.32,0,0,1,.517-1.283c1.866-1.829,2.463-4.037,1.638-6.059A4.96,4.96,0,0,0,13.644,10.087Zm12.408,7.356v2.491H55.917V17.443Zm0-6.23v2.492H55.917V11.213Z" transform="translate(473 745)" fill="#5b7183"/><path d="M58.847,38H2.153A2.134,2.134,0,0,1,0,35.891V2.11A2.134,2.134,0,0,1,2.153,0H58.847A2.134,2.134,0,0,1,61,2.11V35.89A2.134,2.134,0,0,1,58.847,38Zm-32.8-14.328v2.492H55.917V23.672ZM13.644,10.087a4.929,4.929,0,0,0-4.488,3.085,4.833,4.833,0,0,0-.23,2.934A6.483,6.483,0,0,0,10.8,19.25a1.306,1.306,0,0,1,.511,1.273c-.2.7-1.261,1.3-2.993,1.687a4.5,4.5,0,0,0-3.005,1.738,2.786,2.786,0,0,0-.231,2.217H22.24a2.763,2.763,0,0,0-.233-2.2,4.543,4.543,0,0,0-3.038-1.755c-1.714-.387-2.767-.982-2.965-1.676a1.32,1.32,0,0,1,.517-1.283c1.866-1.829,2.463-4.037,1.638-6.059A4.96,4.96,0,0,0,13.644,10.087Zm12.408,7.356v2.491H55.917V17.443Zm0-6.23v2.492H55.917V11.213Z" transform="translate(833 745)" fill="#5b7183"/><rect width="1" height="300" transform="translate(683 614)" fill="#fff"/><text transform="translate(667 909)" fill="#7f2725" font-size="10" font-family="OpenSans-Bold, Open Sans" font-weight="700"><tspan x="-37.969" y="0">BEFORE</tspan></text><text transform="translate(700 909)" fill="#487f3f" font-size="10" font-family="OpenSans-Bold, Open Sans" font-weight="700"><tspan x="0" y="0">AFTER</tspan></text><path d="M-.434.434-71.566,71.566" transform="translate(539 728)" fill="none" stroke="#7f2725" stroke-linecap="square" stroke-miterlimit="10" stroke-width="3"/><path d="M-.434.434-71.566,71.566" transform="translate(632 729)" fill="none" stroke="#7f2725" stroke-linecap="square" stroke-miterlimit="10" stroke-width="3"/></g></g></svg>