<svg xmlns="http://www.w3.org/2000/svg" width="775" height="322" viewBox="0 0 775 322"><g transform="translate(-441 -489)"><rect width="775" height="322" rx="8" transform="translate(441 489)" fill="#e7edf2"/><g transform="translate(-9 18)"><path d="M29.192,40H3.808A1.261,1.261,0,0,1,2.539,38.75v-25a1.262,1.262,0,0,0-1.27-1.25A1.261,1.261,0,0,1,0,11.25V8.75A1.261,1.261,0,0,1,1.269,7.5H7.616V5A6.138,6.138,0,0,1,8.25,1.562C8.962.511,10.415,0,12.693,0h7.615A6.4,6.4,0,0,1,23.8.625c1.068.7,1.587,2.133,1.587,4.376V7.5H31.73A1.262,1.262,0,0,1,33,8.75v2.5a1.262,1.262,0,0,1-1.27,1.25,1.261,1.261,0,0,0-1.269,1.25v25A1.261,1.261,0,0,1,29.192,40ZM24.116,13.965a1.261,1.261,0,0,0-1.269,1.25V33.75a1.269,1.269,0,0,0,2.538,0V15.215A1.261,1.261,0,0,0,24.116,13.965Zm-7.616,0a1.261,1.261,0,0,0-1.269,1.25V33.75a1.27,1.27,0,0,0,2.539,0V15.215A1.262,1.262,0,0,0,16.5,13.965Zm-7.615,0a1.261,1.261,0,0,0-1.269,1.25V33.75a1.269,1.269,0,0,0,2.538,0V15.215A1.261,1.261,0,0,0,8.885,13.965ZM12.693,5V7.5h7.615V5Z" transform="translate(540 612)" fill="#7f2725"/><text transform="translate(520 636)" fill="#3baecc" font-size="12" font-family="OpenSans, Open Sans"><tspan x="-27.123" y="0">40px</tspan></text><path d="M0,42V41H4V1H0V0H53V1H5V41H53v1Z" transform="translate(520 611)" fill="#3baecc"/><path d="M0,42V41H4V1H0V0H12V1H5V41h7v1Z" transform="translate(843 600) rotate(90)" fill="#3baecc"/><path d="M15.038,20H1.961a.64.64,0,0,1-.653-.625V6.875A.641.641,0,0,0,.653,6.25.64.64,0,0,1,0,5.625V4.375A.64.64,0,0,1,.653,3.75h3.27V2.5c0-1.229,0-2.5,2.615-2.5h3.923c1.286,0,2.615,0,2.615,2.5V3.75h3.269A.641.641,0,0,1,17,4.375v1.25a.641.641,0,0,1-.654.625.641.641,0,0,0-.653.625v12.5A.641.641,0,0,1,15.038,20ZM12.423,6.982a.641.641,0,0,0-.653.626v9.267a.655.655,0,0,0,1.308,0V7.608A.641.641,0,0,0,12.423,6.982Zm-3.923,0a.641.641,0,0,0-.653.626v9.267a.655.655,0,0,0,1.308,0V7.608A.641.641,0,0,0,8.5,6.982Zm-3.923,0a.641.641,0,0,0-.653.626v9.267a.655.655,0,0,0,1.308,0V7.608A.641.641,0,0,0,4.577,6.982ZM6.539,2.5V3.75h3.923V2.5Z" transform="translate(1075 601)" fill="#7f2725"/><text transform="translate(1101 618)" fill="#7f2725" font-size="16" font-family="OpenSans-Bold, Open Sans" font-weight="700"><tspan x="0" y="0">DELETE</tspan></text><text transform="translate(1038 614)" fill="#3baecc" font-size="12" font-family="OpenSans, Open Sans"><tspan x="-27.123" y="0">40px</tspan></text><text transform="translate(1038 656)" fill="#3baecc" font-size="12" font-family="OpenSans, Open Sans"><tspan x="-27.123" y="0">40px</tspan></text><path d="M0,42V41H4V1H0V0H53V1H5V41H53v1Z" transform="translate(1038 591)" fill="#3baecc"/><path d="M.629,20a.632.632,0,0,1-.613-.772l1.1-4.85,4.505,4.505-4.851,1.1A.644.644,0,0,1,.629,20Zm5.837-1.825h0l-4.64-4.641L12.244,3.115l4.642,4.641L6.467,18.175Zm11.2-11.2h0L13.02,2.338l1-1a1.894,1.894,0,0,1,2.679,0L18.661,3.3a1.9,1.9,0,0,1,0,2.679l-1,1Z" transform="translate(1073 643)" fill="#5b7183"/><text transform="translate(1101 659)" fill="#5b7183" font-size="16" font-family="OpenSans-Bold, Open Sans" font-weight="700"><tspan x="0" y="0">EDIT</tspan></text><path d="M0,42V41H4V1H0V0H53V1H5V41H53v1Z" transform="translate(1038 632)" fill="#3baecc"/><rect width="40" height="40" rx="3" transform="translate(802 612)" fill="#7f2725"/><text transform="translate(789 636)" fill="#3baecc" font-size="12" font-family="OpenSans, Open Sans"><tspan x="-27.123" y="0">40px</tspan></text><text transform="translate(836 596)" fill="#3baecc" font-size="12" font-family="OpenSans, Open Sans"><tspan x="-27.123" y="0">40px</tspan></text><text transform="translate(855 636)" fill="#3baecc" font-size="12" font-family="OpenSans, Open Sans"><tspan x="0" y="0">24px</tspan></text><path d="M0,42V41H4V1H0V0H13V1H5V41h8v1Z" transform="translate(789 611)" fill="#3baecc"/><path d="M0,26V25H38V1H0V0H43V1H39V25h4v1Z" transform="translate(812 619)" fill="#3baecc"/><path d="M17.692,24H2.308a.761.761,0,0,1-.769-.751v-15A.761.761,0,0,0,.769,7.5.761.761,0,0,1,0,6.75V5.25A.761.761,0,0,1,.769,4.5H4.615V3A3.651,3.651,0,0,1,5,.938C5.432.307,6.312,0,7.692,0h4.615a3.909,3.909,0,0,1,2.116.375c.647.42.961,1.279.961,2.624V4.5h3.847A.76.76,0,0,1,20,5.25v1.5a.76.76,0,0,1-.769.75.761.761,0,0,0-.769.751v15A.761.761,0,0,1,17.692,24ZM14.615,8.379a.76.76,0,0,0-.769.75V20.25a.769.769,0,0,0,1.538,0V9.129A.761.761,0,0,0,14.615,8.379ZM10,8.379a.761.761,0,0,0-.769.75V20.25a.77.77,0,0,0,1.539,0V9.129A.761.761,0,0,0,10,8.379Zm-4.615,0a.761.761,0,0,0-.769.75V20.25a.77.77,0,0,0,1.539,0V9.129A.761.761,0,0,0,5.385,8.379ZM7.692,3V4.5h4.615V3Z" transform="translate(812 620)" fill="#fff"/><rect width="1" height="300" transform="translate(687 482)" fill="#5a7184"/><rect width="1" height="300" transform="translate(958 482)" fill="#5a7184"/></g></g></svg>