<svg xmlns="http://www.w3.org/2000/svg" width="775" height="322" viewBox="0 0 775 322"><g transform="translate(-441 -489)"><rect width="775" height="322" rx="8" transform="translate(441 489)" fill="#e7edf2"/><g transform="translate(5 -12)"><rect width="1" height="276" transform="translate(827 524)" fill="#5a7184"/><text transform="translate(810 795)" fill="#7f2725" font-size="10" font-family="OpenSans-Bold, Open Sans" font-weight="700"><tspan x="-37.969" y="0">BEFORE</tspan></text><text transform="translate(843 795)" fill="#487f3f" font-size="10" font-family="OpenSans-Bold, Open Sans" font-weight="700"><tspan x="0" y="0">AFTER</tspan></text><rect width="76" height="8" rx="4" transform="translate(873 586)" fill="#5b7183"/><rect width="80" height="4" rx="2" transform="translate(873 611)" fill="#abbcca"/><rect width="70" height="4" rx="2" transform="translate(873 628)" fill="#abbcca"/><rect width="80" height="4" rx="2" transform="translate(873 645)" fill="#abbcca"/><rect width="70" height="4" rx="2" transform="translate(873 662)" fill="#abbcca"/><rect width="80" height="4" rx="2" transform="translate(873 679)" fill="#abbcca"/><rect width="60" height="4" rx="2" transform="translate(873 695)" fill="#abbcca"/><circle cx="8" cy="8" r="8" transform="translate(851 582)" fill="#3baecc"/><rect width="76" height="8" rx="4" transform="translate(454 587)" fill="#5b7183"/><rect width="80" height="4" rx="2" transform="translate(474 611)" fill="#abbcca"/><rect width="70" height="4" rx="2" transform="translate(474 628)" fill="#abbcca"/><rect width="80" height="4" rx="2" transform="translate(474 645)" fill="#abbcca"/><rect width="70" height="4" rx="2" transform="translate(474 662)" fill="#abbcca"/><rect width="80" height="4" rx="2" transform="translate(474 679)" fill="#abbcca"/><rect width="60" height="4" rx="2" transform="translate(474 695)" fill="#abbcca"/><circle cx="6" cy="6" r="6" transform="translate(454 607)" fill="#19557f"/><circle cx="6" cy="6" r="6" transform="translate(454 624)" fill="#1a8573"/><circle cx="6" cy="6" r="6" transform="translate(454 641)" fill="#a4cc44"/><circle cx="6" cy="6" r="6" transform="translate(454 658)" fill="#3baecc"/><circle cx="6" cy="6" r="6" transform="translate(454 675)" fill="#f38130"/><circle cx="6" cy="6" r="6" transform="translate(454 692)" fill="#19557f"/><rect width="76" height="8" rx="4" transform="translate(580 587)" fill="#5b7183"/><rect width="80" height="4" rx="2" transform="translate(600 611)" fill="#abbcca"/><rect width="80" height="4" rx="2" transform="translate(600 628)" fill="#abbcca"/><rect width="60" height="4" rx="2" transform="translate(600 645)" fill="#abbcca"/><rect width="80" height="4" rx="2" transform="translate(600 662)" fill="#abbcca"/><rect width="70" height="4" rx="2" transform="translate(600 679)" fill="#abbcca"/><rect width="80" height="4" rx="2" transform="translate(600 695)" fill="#abbcca"/><circle cx="6" cy="6" r="6" transform="translate(580 607)" fill="#19557f"/><circle cx="6" cy="6" r="6" transform="translate(580 624)" fill="#f38130"/><circle cx="6" cy="6" r="6" transform="translate(580 641)" fill="#3baecc"/><circle cx="6" cy="6" r="6" transform="translate(580 658)" fill="#19557f"/><circle cx="6" cy="6" r="6" transform="translate(580 675)" fill="#1a8573"/><circle cx="6" cy="6" r="6" transform="translate(580 692)" fill="#a4cc44"/><rect width="76" height="8" rx="4" transform="translate(706 587)" fill="#5b7183"/><rect width="70" height="4" rx="2" transform="translate(726 611)" fill="#abbcca"/><rect width="80" height="4" rx="2" transform="translate(726 628)" fill="#abbcca"/><rect width="80" height="4" rx="2" transform="translate(726 645)" fill="#abbcca"/><rect width="75" height="4" rx="2" transform="translate(726 662)" fill="#abbcca"/><rect width="80" height="4" rx="2" transform="translate(726 679)" fill="#abbcca"/><rect width="70" height="4" rx="2" transform="translate(726 695)" fill="#abbcca"/><circle cx="6" cy="6" r="6" transform="translate(706 607)" fill="#19557f"/><circle cx="6" cy="6" r="6" transform="translate(706 624)" fill="#1a8573"/><circle cx="6" cy="6" r="6" transform="translate(706 641)" fill="#f38130"/><circle cx="6" cy="6" r="6" transform="translate(706 658)" fill="#a4cc44"/><circle cx="6" cy="6" r="6" transform="translate(706 675)" fill="#19557f"/><circle cx="6" cy="6" r="6" transform="translate(706 692)" fill="#3baecc"/><rect width="76" height="8" rx="4" transform="translate(993 586)" fill="#5b7183"/><rect width="80" height="4" rx="2" transform="translate(993 611)" fill="#abbcca"/><rect width="80" height="4" rx="2" transform="translate(993 628)" fill="#abbcca"/><rect width="60" height="4" rx="2" transform="translate(993 645)" fill="#abbcca"/><rect width="80" height="4" rx="2" transform="translate(993 662)" fill="#abbcca"/><rect width="70" height="4" rx="2" transform="translate(993 679)" fill="#abbcca"/><rect width="80" height="4" rx="2" transform="translate(993 695)" fill="#abbcca"/><circle cx="8" cy="8" r="8" transform="translate(971 582)" fill="#a4cc44"/><rect width="76" height="8" rx="4" transform="translate(1114 586)" fill="#5b7183"/><rect width="70" height="4" rx="2" transform="translate(1114 611)" fill="#abbcca"/><rect width="80" height="4" rx="2" transform="translate(1114 628)" fill="#abbcca"/><rect width="80" height="4" rx="2" transform="translate(1114 645)" fill="#abbcca"/><rect width="75" height="4" rx="2" transform="translate(1114 662)" fill="#abbcca"/><rect width="80" height="4" rx="2" transform="translate(1114 679)" fill="#abbcca"/><rect width="70" height="4" rx="2" transform="translate(1114 695)" fill="#abbcca"/><circle cx="8" cy="8" r="8" transform="translate(1092 582)" fill="#f38130"/></g></g></svg>