<svg xmlns="http://www.w3.org/2000/svg" width="775" height="322" viewBox="0 0 775 322"><g transform="translate(-441 -489)"><rect width="775" height="322" rx="8" transform="translate(441 489)" fill="#e7edf2"/><g transform="translate(3 18)"><path d="M29.192,40H3.808A1.261,1.261,0,0,1,2.539,38.75v-25a1.262,1.262,0,0,0-1.27-1.25A1.261,1.261,0,0,1,0,11.25V8.75A1.261,1.261,0,0,1,1.269,7.5H7.616V5A6.138,6.138,0,0,1,8.25,1.562C8.962.511,10.415,0,12.693,0h7.615A6.4,6.4,0,0,1,23.8.625c1.068.7,1.587,2.133,1.587,4.376V7.5H31.73A1.262,1.262,0,0,1,33,8.75v2.5a1.262,1.262,0,0,1-1.27,1.25,1.261,1.261,0,0,0-1.269,1.25v25A1.261,1.261,0,0,1,29.192,40ZM24.116,13.965a1.261,1.261,0,0,0-1.269,1.25V33.75a1.269,1.269,0,0,0,2.538,0V15.215A1.261,1.261,0,0,0,24.116,13.965Zm-7.616,0a1.261,1.261,0,0,0-1.269,1.25V33.75a1.27,1.27,0,0,0,2.539,0V15.215A1.262,1.262,0,0,0,16.5,13.965Zm-7.615,0a1.261,1.261,0,0,0-1.269,1.25V33.75a1.269,1.269,0,0,0,2.538,0V15.215A1.261,1.261,0,0,0,8.885,13.965ZM12.693,5V7.5h7.615V5Z" transform="translate(540 612)" fill="#7f2725"/><path d="M-20.5-1.969h-1.271V0h-.932V-1.969h-4.166v-.85L-22.8-8.613h1.031v5.76H-20.5Zm-2.2-.885V-5.7q0-.838.059-1.893h-.047a8.8,8.8,0,0,1-.527.932L-25.9-2.854ZM-14-4.295a6.256,6.256,0,0,1-.7,3.316A2.366,2.366,0,0,1-16.84.117,2.346,2.346,0,0,1-18.943-1a6.132,6.132,0,0,1-.721-3.29,6.254,6.254,0,0,1,.7-3.322A2.355,2.355,0,0,1-16.84-8.7,2.359,2.359,0,0,1-14.722-7.57,6.106,6.106,0,0,1-14-4.295Zm-4.682,0a6.274,6.274,0,0,0,.439,2.722,1.47,1.47,0,0,0,1.4.853,1.471,1.471,0,0,0,1.409-.864,6.322,6.322,0,0,0,.437-2.71A6.28,6.28,0,0,0-15.431-7a1.472,1.472,0,0,0-1.409-.858,1.471,1.471,0,0,0-1.4.847A6.232,6.232,0,0,0-18.68-4.295Zm9.3,4.412a2.779,2.779,0,0,1-1.146-.231,2.154,2.154,0,0,1-.87-.712h-.07A8.614,8.614,0,0,1-11.4.24V2.883h-.973v-9.3h.791l.135.879h.047a2.259,2.259,0,0,1,.873-.762,2.654,2.654,0,0,1,1.143-.234,2.374,2.374,0,0,1,1.972.873,3.844,3.844,0,0,1,.694,2.449A3.821,3.821,0,0,1-7.421-.759,2.378,2.378,0,0,1-9.381.117Zm-.141-5.83a1.724,1.724,0,0,0-1.424.545A2.8,2.8,0,0,0-11.4-3.434v.217a3.214,3.214,0,0,0,.451,1.937A1.716,1.716,0,0,0-9.5-.7a1.5,1.5,0,0,0,1.3-.674,3.2,3.2,0,0,0,.472-1.857,3.075,3.075,0,0,0-.472-1.843A1.551,1.551,0,0,0-9.521-5.713Zm5.813,2.426L-5.941-6.422h1.107l1.693,2.461,1.688-2.461h1.1L-2.59-3.287-.24,0h-1.1l-1.8-2.6L-4.957,0h-1.1Z" transform="translate(520 636)" fill="#3baecc"/><path d="M0,42V41H4V1H0V0H53V1H5V41H53v1Z" transform="translate(520 611)" fill="#3baecc"/><path d="M0,42V41H4V1H0V0H12V1H5V41h7v1Z" transform="translate(843 600) rotate(90)" fill="#3baecc"/><path d="M15.038,20H1.961a.64.64,0,0,1-.653-.625V6.875A.641.641,0,0,0,.653,6.25.64.64,0,0,1,0,5.625V4.375A.64.64,0,0,1,.653,3.75h3.27V2.5c0-1.229,0-2.5,2.615-2.5h3.923c1.286,0,2.615,0,2.615,2.5V3.75h3.269A.641.641,0,0,1,17,4.375v1.25a.641.641,0,0,1-.654.625.641.641,0,0,0-.653.625v12.5A.641.641,0,0,1,15.038,20ZM12.423,6.982a.641.641,0,0,0-.653.626v9.267a.655.655,0,0,0,1.308,0V7.608A.641.641,0,0,0,12.423,6.982Zm-3.923,0a.641.641,0,0,0-.653.626v9.267a.655.655,0,0,0,1.308,0V7.608A.641.641,0,0,0,8.5,6.982Zm-3.923,0a.641.641,0,0,0-.653.626v9.267a.655.655,0,0,0,1.308,0V7.608A.641.641,0,0,0,4.577,6.982ZM6.539,2.5V3.75h3.923V2.5Z" transform="translate(1075 601)" fill="#7f2725"/><path d="M10.914-5.82A5.625,5.625,0,0,1,9.309-1.5,6.547,6.547,0,0,1,4.672,0H1.438V-11.422H5.023A6.039,6.039,0,0,1,9.367-9.945,5.431,5.431,0,0,1,10.914-5.82ZM8.4-5.758q0-3.68-3.25-3.68H3.859V-2H4.9Q8.4-2,8.4-5.758ZM19.859,0H13.281V-11.422h6.578v1.984H15.7V-6.93H19.57v1.984H15.7V-2h4.156Zm2.383,0V-11.422h2.422V-2H29.3V0ZM37.859,0H31.281V-11.422h6.578v1.984H33.7V-6.93H37.57v1.984H33.7V-2h4.156Zm6.789,0H42.227V-9.406h-3.1v-2.016H47.75v2.016h-3.1ZM56.086,0H49.508V-11.422h6.578v1.984H51.93V-6.93H55.8v1.984H51.93V-2h4.156Z" transform="translate(1101 618)" fill="#7f2725"/><path d="M-20.5-1.969h-1.271V0h-.932V-1.969h-4.166v-.85L-22.8-8.613h1.031v5.76H-20.5Zm-2.2-.885V-5.7q0-.838.059-1.893h-.047a8.8,8.8,0,0,1-.527.932L-25.9-2.854ZM-14-4.295a6.256,6.256,0,0,1-.7,3.316A2.366,2.366,0,0,1-16.84.117,2.346,2.346,0,0,1-18.943-1a6.132,6.132,0,0,1-.721-3.29,6.254,6.254,0,0,1,.7-3.322A2.355,2.355,0,0,1-16.84-8.7,2.359,2.359,0,0,1-14.722-7.57,6.106,6.106,0,0,1-14-4.295Zm-4.682,0a6.274,6.274,0,0,0,.439,2.722,1.47,1.47,0,0,0,1.4.853,1.471,1.471,0,0,0,1.409-.864,6.322,6.322,0,0,0,.437-2.71A6.28,6.28,0,0,0-15.431-7a1.472,1.472,0,0,0-1.409-.858,1.471,1.471,0,0,0-1.4.847A6.232,6.232,0,0,0-18.68-4.295Zm9.3,4.412a2.779,2.779,0,0,1-1.146-.231,2.154,2.154,0,0,1-.87-.712h-.07A8.614,8.614,0,0,1-11.4.24V2.883h-.973v-9.3h.791l.135.879h.047a2.259,2.259,0,0,1,.873-.762,2.654,2.654,0,0,1,1.143-.234,2.374,2.374,0,0,1,1.972.873,3.844,3.844,0,0,1,.694,2.449A3.821,3.821,0,0,1-7.421-.759,2.378,2.378,0,0,1-9.381.117Zm-.141-5.83a1.724,1.724,0,0,0-1.424.545A2.8,2.8,0,0,0-11.4-3.434v.217a3.214,3.214,0,0,0,.451,1.937A1.716,1.716,0,0,0-9.5-.7a1.5,1.5,0,0,0,1.3-.674,3.2,3.2,0,0,0,.472-1.857,3.075,3.075,0,0,0-.472-1.843A1.551,1.551,0,0,0-9.521-5.713Zm5.813,2.426L-5.941-6.422h1.107l1.693,2.461,1.688-2.461h1.1L-2.59-3.287-.24,0h-1.1l-1.8-2.6L-4.957,0h-1.1Z" transform="translate(1038 614)" fill="#3baecc"/><path d="M-20.5-1.969h-1.271V0h-.932V-1.969h-4.166v-.85L-22.8-8.613h1.031v5.76H-20.5Zm-2.2-.885V-5.7q0-.838.059-1.893h-.047a8.8,8.8,0,0,1-.527.932L-25.9-2.854ZM-14-4.295a6.256,6.256,0,0,1-.7,3.316A2.366,2.366,0,0,1-16.84.117,2.346,2.346,0,0,1-18.943-1a6.132,6.132,0,0,1-.721-3.29,6.254,6.254,0,0,1,.7-3.322A2.355,2.355,0,0,1-16.84-8.7,2.359,2.359,0,0,1-14.722-7.57,6.106,6.106,0,0,1-14-4.295Zm-4.682,0a6.274,6.274,0,0,0,.439,2.722,1.47,1.47,0,0,0,1.4.853,1.471,1.471,0,0,0,1.409-.864,6.322,6.322,0,0,0,.437-2.71A6.28,6.28,0,0,0-15.431-7a1.472,1.472,0,0,0-1.409-.858,1.471,1.471,0,0,0-1.4.847A6.232,6.232,0,0,0-18.68-4.295Zm9.3,4.412a2.779,2.779,0,0,1-1.146-.231,2.154,2.154,0,0,1-.87-.712h-.07A8.614,8.614,0,0,1-11.4.24V2.883h-.973v-9.3h.791l.135.879h.047a2.259,2.259,0,0,1,.873-.762,2.654,2.654,0,0,1,1.143-.234,2.374,2.374,0,0,1,1.972.873,3.844,3.844,0,0,1,.694,2.449A3.821,3.821,0,0,1-7.421-.759,2.378,2.378,0,0,1-9.381.117Zm-.141-5.83a1.724,1.724,0,0,0-1.424.545A2.8,2.8,0,0,0-11.4-3.434v.217a3.214,3.214,0,0,0,.451,1.937A1.716,1.716,0,0,0-9.5-.7a1.5,1.5,0,0,0,1.3-.674,3.2,3.2,0,0,0,.472-1.857,3.075,3.075,0,0,0-.472-1.843A1.551,1.551,0,0,0-9.521-5.713Zm5.813,2.426L-5.941-6.422h1.107l1.693,2.461,1.688-2.461h1.1L-2.59-3.287-.24,0h-1.1l-1.8-2.6L-4.957,0h-1.1Z" transform="translate(1038 656)" fill="#3baecc"/><path d="M0,42V41H4V1H0V0H53V1H5V41H53v1Z" transform="translate(1038 591)" fill="#3baecc"/><path d="M.629,20a.632.632,0,0,1-.613-.772l1.1-4.85,4.505,4.505-4.851,1.1A.644.644,0,0,1,.629,20Zm5.837-1.825h0l-4.64-4.641L12.244,3.115l4.642,4.641L6.467,18.175Zm11.2-11.2h0L13.02,2.338l1-1a1.894,1.894,0,0,1,2.679,0L18.661,3.3a1.9,1.9,0,0,1,0,2.679l-1,1Z" transform="translate(1073 643)" fill="#5b7183"/><path d="M8.016,0H1.438V-11.422H8.016v1.984H3.859V-6.93H7.727v1.984H3.859V-2H8.016ZM19.875-5.82A5.625,5.625,0,0,1,18.27-1.5,6.547,6.547,0,0,1,13.633,0H10.4V-11.422h3.586a6.039,6.039,0,0,1,4.344,1.477A5.431,5.431,0,0,1,19.875-5.82Zm-2.516.063q0-3.68-3.25-3.68H12.82V-2h1.039Q17.359-2,17.359-5.758ZM22.242,0V-11.422h2.422V0Zm9.7,0H29.523V-9.406h-3.1v-2.016h8.625v2.016h-3.1Z" transform="translate(1101 659)" fill="#5b7183"/><path d="M0,42V41H4V1H0V0H53V1H5V41H53v1Z" transform="translate(1038 632)" fill="#3baecc"/><rect width="40" height="40" rx="3" transform="translate(802 612)" fill="#7f2725"/><path d="M-20.5-1.969h-1.271V0h-.932V-1.969h-4.166v-.85L-22.8-8.613h1.031v5.76H-20.5Zm-2.2-.885V-5.7q0-.838.059-1.893h-.047a8.8,8.8,0,0,1-.527.932L-25.9-2.854ZM-14-4.295a6.256,6.256,0,0,1-.7,3.316A2.366,2.366,0,0,1-16.84.117,2.346,2.346,0,0,1-18.943-1a6.132,6.132,0,0,1-.721-3.29,6.254,6.254,0,0,1,.7-3.322A2.355,2.355,0,0,1-16.84-8.7,2.359,2.359,0,0,1-14.722-7.57,6.106,6.106,0,0,1-14-4.295Zm-4.682,0a6.274,6.274,0,0,0,.439,2.722,1.47,1.47,0,0,0,1.4.853,1.471,1.471,0,0,0,1.409-.864,6.322,6.322,0,0,0,.437-2.71A6.28,6.28,0,0,0-15.431-7a1.472,1.472,0,0,0-1.409-.858,1.471,1.471,0,0,0-1.4.847A6.232,6.232,0,0,0-18.68-4.295Zm9.3,4.412a2.779,2.779,0,0,1-1.146-.231,2.154,2.154,0,0,1-.87-.712h-.07A8.614,8.614,0,0,1-11.4.24V2.883h-.973v-9.3h.791l.135.879h.047a2.259,2.259,0,0,1,.873-.762,2.654,2.654,0,0,1,1.143-.234,2.374,2.374,0,0,1,1.972.873,3.844,3.844,0,0,1,.694,2.449A3.821,3.821,0,0,1-7.421-.759,2.378,2.378,0,0,1-9.381.117Zm-.141-5.83a1.724,1.724,0,0,0-1.424.545A2.8,2.8,0,0,0-11.4-3.434v.217a3.214,3.214,0,0,0,.451,1.937A1.716,1.716,0,0,0-9.5-.7a1.5,1.5,0,0,0,1.3-.674,3.2,3.2,0,0,0,.472-1.857,3.075,3.075,0,0,0-.472-1.843A1.551,1.551,0,0,0-9.521-5.713Zm5.813,2.426L-5.941-6.422h1.107l1.693,2.461,1.688-2.461h1.1L-2.59-3.287-.24,0h-1.1l-1.8-2.6L-4.957,0h-1.1Z" transform="translate(789 636)" fill="#3baecc"/><path d="M-20.5-1.969h-1.271V0h-.932V-1.969h-4.166v-.85L-22.8-8.613h1.031v5.76H-20.5Zm-2.2-.885V-5.7q0-.838.059-1.893h-.047a8.8,8.8,0,0,1-.527.932L-25.9-2.854ZM-14-4.295a6.256,6.256,0,0,1-.7,3.316A2.366,2.366,0,0,1-16.84.117,2.346,2.346,0,0,1-18.943-1a6.132,6.132,0,0,1-.721-3.29,6.254,6.254,0,0,1,.7-3.322A2.355,2.355,0,0,1-16.84-8.7,2.359,2.359,0,0,1-14.722-7.57,6.106,6.106,0,0,1-14-4.295Zm-4.682,0a6.274,6.274,0,0,0,.439,2.722,1.47,1.47,0,0,0,1.4.853,1.471,1.471,0,0,0,1.409-.864,6.322,6.322,0,0,0,.437-2.71A6.28,6.28,0,0,0-15.431-7a1.472,1.472,0,0,0-1.409-.858,1.471,1.471,0,0,0-1.4.847A6.232,6.232,0,0,0-18.68-4.295Zm9.3,4.412a2.779,2.779,0,0,1-1.146-.231,2.154,2.154,0,0,1-.87-.712h-.07A8.614,8.614,0,0,1-11.4.24V2.883h-.973v-9.3h.791l.135.879h.047a2.259,2.259,0,0,1,.873-.762,2.654,2.654,0,0,1,1.143-.234,2.374,2.374,0,0,1,1.972.873,3.844,3.844,0,0,1,.694,2.449A3.821,3.821,0,0,1-7.421-.759,2.378,2.378,0,0,1-9.381.117Zm-.141-5.83a1.724,1.724,0,0,0-1.424.545A2.8,2.8,0,0,0-11.4-3.434v.217a3.214,3.214,0,0,0,.451,1.937A1.716,1.716,0,0,0-9.5-.7a1.5,1.5,0,0,0,1.3-.674,3.2,3.2,0,0,0,.472-1.857,3.075,3.075,0,0,0-.472-1.843A1.551,1.551,0,0,0-9.521-5.713Zm5.813,2.426L-5.941-6.422h1.107l1.693,2.461,1.688-2.461h1.1L-2.59-3.287-.24,0h-1.1l-1.8-2.6L-4.957,0h-1.1Z" transform="translate(836 596)" fill="#3baecc"/><path d="M6.217,0H.586V-.838L2.842-3.105A16.612,16.612,0,0,0,4.2-4.594a3.8,3.8,0,0,0,.492-.867,2.484,2.484,0,0,0,.164-.908,1.44,1.44,0,0,0-.416-1.087,1.593,1.593,0,0,0-1.154-.4,2.9,2.9,0,0,0-1.011.176,4.029,4.029,0,0,0-1.063.639L.7-7.705a3.949,3.949,0,0,1,2.578-.984,2.724,2.724,0,0,1,1.893.618A2.126,2.126,0,0,1,5.854-6.41,3.208,3.208,0,0,1,5.4-4.8,10.23,10.23,0,0,1,3.686-2.783L1.811-.949V-.9H6.217Zm7.266-1.969H12.211V0h-.932V-1.969H7.113v-.85L11.18-8.613h1.031v5.76h1.271Zm-2.2-.885V-5.7q0-.838.059-1.893h-.047a8.8,8.8,0,0,1-.527.932L8.086-2.854ZM17.742.117A2.779,2.779,0,0,1,16.6-.114a2.154,2.154,0,0,1-.87-.712h-.07A8.614,8.614,0,0,1,15.727.24V2.883h-.973v-9.3h.791l.135.879h.047A2.259,2.259,0,0,1,16.6-6.3a2.654,2.654,0,0,1,1.143-.234,2.374,2.374,0,0,1,1.972.873,3.844,3.844,0,0,1,.694,2.449A3.821,3.821,0,0,1,19.7-.759,2.378,2.378,0,0,1,17.742.117ZM17.6-5.713a1.724,1.724,0,0,0-1.424.545,2.8,2.8,0,0,0-.451,1.734v.217a3.214,3.214,0,0,0,.451,1.937A1.716,1.716,0,0,0,17.625-.7a1.5,1.5,0,0,0,1.3-.674A3.2,3.2,0,0,0,19.4-3.229a3.075,3.075,0,0,0-.472-1.843A1.551,1.551,0,0,0,17.6-5.713Zm5.813,2.426L21.182-6.422h1.107l1.693,2.461L25.67-6.422h1.1L24.533-3.287,26.883,0h-1.1l-1.8-2.6L22.166,0h-1.1Z" transform="translate(855 636)" fill="#3baecc"/><path d="M0,42V41H4V1H0V0H13V1H5V41h8v1Z" transform="translate(789 611)" fill="#3baecc"/><path d="M0,26V25H38V1H0V0H43V1H39V25h4v1Z" transform="translate(812 619)" fill="#3baecc"/><path d="M17.692,24H2.308a.761.761,0,0,1-.769-.751v-15A.761.761,0,0,0,.769,7.5.761.761,0,0,1,0,6.75V5.25A.761.761,0,0,1,.769,4.5H4.615V3A3.651,3.651,0,0,1,5,.938C5.432.307,6.312,0,7.692,0h4.615a3.909,3.909,0,0,1,2.116.375c.647.42.961,1.279.961,2.624V4.5h3.847A.76.76,0,0,1,20,5.25v1.5a.76.76,0,0,1-.769.75.761.761,0,0,0-.769.751v15A.761.761,0,0,1,17.692,24ZM14.615,8.379a.76.76,0,0,0-.769.75V20.25a.769.769,0,0,0,1.538,0V9.129A.761.761,0,0,0,14.615,8.379ZM10,8.379a.761.761,0,0,0-.769.75V20.25a.77.77,0,0,0,1.539,0V9.129A.761.761,0,0,0,10,8.379Zm-4.615,0a.761.761,0,0,0-.769.75V20.25a.77.77,0,0,0,1.539,0V9.129A.761.761,0,0,0,5.385,8.379ZM7.692,3V4.5h4.615V3Z" transform="translate(812 620)" fill="#fff"/><rect width="1" height="300" transform="translate(687 482)" fill="#557b92"/><rect width="1" height="300" transform="translate(958 482)" fill="#557b92"/></g></g></svg>