<svg xmlns="http://www.w3.org/2000/svg" width="775" height="322" viewBox="0 0 775 322"><g transform="translate(-441 -489)"><rect width="775" height="322" rx="8" transform="translate(441 489)" fill="#e7edf2"/><g transform="translate(145 -114)"><path d="M61,60H0v-.734C0,47.881,1.572,41.591,4.8,40.033c.837-.4,1.917-1.021,3.163-1.736,3.568-2.044,8.825-5.055,14.7-6.577-3.837-3.6-6.425-9.93-6.425-15.975C16.238,6.622,22.235,0,30.5,0S44.759,6.683,44.759,15.892c0,5.974-2.48,12.067-6.285,15.691,7.988,1.822,14.793,6.137,17.8,8.042,4.3,2.726,4.686,17.906,4.716,19.628L61,60Z" transform="translate(380 734)" fill="#5b7183"/><path d="M-19.506-5.291h.7a2.322,2.322,0,0,0,1.463-.386A1.352,1.352,0,0,0-16.861-6.8a1.386,1.386,0,0,0-.407-1.1,1.906,1.906,0,0,0-1.275-.355h-.964Zm4.785-1.586a3.055,3.055,0,0,1-1.008,2.468,4.312,4.312,0,0,1-2.868.854h-.909V0h-2.119V-9.994h3.192a4.246,4.246,0,0,1,2.765.783A2.854,2.854,0,0,1-14.721-6.877Zm5.988-.909a3.362,3.362,0,0,1,.7.062L-8.186-5.77A2.388,2.388,0,0,0-8.8-5.838a2.211,2.211,0,0,0-1.555.513,1.853,1.853,0,0,0-.557,1.436V0H-13V-7.643h1.579l.308,1.285h.1a2.873,2.873,0,0,1,.96-1.036A2.368,2.368,0,0,1-8.733-7.786ZM-5.26-3.835a3.208,3.208,0,0,0,.373,1.716,1.332,1.332,0,0,0,1.213.581,1.311,1.311,0,0,0,1.2-.578,3.254,3.254,0,0,0,.366-1.719,3.157,3.157,0,0,0-.369-1.7A1.335,1.335,0,0,0-3.688-6.1a1.33,1.33,0,0,0-1.2.564A3.154,3.154,0,0,0-5.26-3.835Zm5.284,0A4.107,4.107,0,0,1-.96-.916,3.569,3.569,0,0,1-3.7.137,3.835,3.835,0,0,1-5.643-.345,3.207,3.207,0,0,1-6.935-1.729a4.652,4.652,0,0,1-.451-2.105,4.084,4.084,0,0,1,.978-2.912A3.59,3.59,0,0,1-3.661-7.786a3.856,3.856,0,0,1,1.941.479A3.194,3.194,0,0,1-.427-5.934,4.608,4.608,0,0,1,.024-3.835ZM5.971-6.077h-1.8V0H2.082V-6.077H.933v-1l1.148-.561V-8.2a2.5,2.5,0,0,1,.643-1.907,2.945,2.945,0,0,1,2.058-.6,5.355,5.355,0,0,1,1.921.321L6.169-8.859a3.886,3.886,0,0,0-1.162-.2.752.752,0,0,0-.643.263,1.089,1.089,0,0,0-.2.673v.479h1.8ZM7.079-9.618q0-1.019,1.135-1.019T9.348-9.618a.993.993,0,0,1-.284.755,1.192,1.192,0,0,1-.851.27Q7.079-8.593,7.079-9.618ZM9.252,0H7.167V-7.643H9.252Zm4.266,0H11.433V-10.637h2.085Zm5.353-6.3a1.322,1.322,0,0,0-1.039.42A1.946,1.946,0,0,0,17.4-4.689h2.926a1.738,1.738,0,0,0-.4-1.193A1.366,1.366,0,0,0,18.871-6.3ZM19.165.137A3.945,3.945,0,0,1,16.28-.882a3.857,3.857,0,0,1-1.039-2.885,4.242,4.242,0,0,1,.96-2.97,3.42,3.42,0,0,1,2.656-1.049,3.366,3.366,0,0,1,2.522.923,3.491,3.491,0,0,1,.9,2.55V-3.3H17.353a2.007,2.007,0,0,0,.526,1.388,1.852,1.852,0,0,0,1.381.5,5.732,5.732,0,0,0,1.306-.144,6.533,6.533,0,0,0,1.285-.458V-.4A4.9,4.9,0,0,1,20.682,0,7.37,7.37,0,0,1,19.165.137Z" transform="translate(411 820)" fill="#5b7183"/><path d="M-19.506-5.291h.7a2.322,2.322,0,0,0,1.463-.386A1.352,1.352,0,0,0-16.861-6.8a1.386,1.386,0,0,0-.407-1.1,1.906,1.906,0,0,0-1.275-.355h-.964Zm4.785-1.586a3.055,3.055,0,0,1-1.008,2.468,4.312,4.312,0,0,1-2.868.854h-.909V0h-2.119V-9.994h3.192a4.246,4.246,0,0,1,2.765.783A2.854,2.854,0,0,1-14.721-6.877Zm5.988-.909a3.362,3.362,0,0,1,.7.062L-8.186-5.77A2.388,2.388,0,0,0-8.8-5.838a2.211,2.211,0,0,0-1.555.513,1.853,1.853,0,0,0-.557,1.436V0H-13V-7.643h1.579l.308,1.285h.1a2.873,2.873,0,0,1,.96-1.036A2.368,2.368,0,0,1-8.733-7.786ZM-5.26-3.835a3.208,3.208,0,0,0,.373,1.716,1.332,1.332,0,0,0,1.213.581,1.311,1.311,0,0,0,1.2-.578,3.254,3.254,0,0,0,.366-1.719,3.157,3.157,0,0,0-.369-1.7A1.335,1.335,0,0,0-3.688-6.1a1.33,1.33,0,0,0-1.2.564A3.154,3.154,0,0,0-5.26-3.835Zm5.284,0A4.107,4.107,0,0,1-.96-.916,3.569,3.569,0,0,1-3.7.137,3.835,3.835,0,0,1-5.643-.345,3.207,3.207,0,0,1-6.935-1.729a4.652,4.652,0,0,1-.451-2.105,4.084,4.084,0,0,1,.978-2.912A3.59,3.59,0,0,1-3.661-7.786a3.856,3.856,0,0,1,1.941.479A3.194,3.194,0,0,1-.427-5.934,4.608,4.608,0,0,1,.024-3.835ZM5.971-6.077h-1.8V0H2.082V-6.077H.933v-1l1.148-.561V-8.2a2.5,2.5,0,0,1,.643-1.907,2.945,2.945,0,0,1,2.058-.6,5.355,5.355,0,0,1,1.921.321L6.169-8.859a3.886,3.886,0,0,0-1.162-.2.752.752,0,0,0-.643.263,1.089,1.089,0,0,0-.2.673v.479h1.8ZM7.079-9.618q0-1.019,1.135-1.019T9.348-9.618a.993.993,0,0,1-.284.755,1.192,1.192,0,0,1-.851.27Q7.079-8.593,7.079-9.618ZM9.252,0H7.167V-7.643H9.252Zm4.266,0H11.433V-10.637h2.085Zm5.353-6.3a1.322,1.322,0,0,0-1.039.42A1.946,1.946,0,0,0,17.4-4.689h2.926a1.738,1.738,0,0,0-.4-1.193A1.366,1.366,0,0,0,18.871-6.3ZM19.165.137A3.945,3.945,0,0,1,16.28-.882a3.857,3.857,0,0,1-1.039-2.885,4.242,4.242,0,0,1,.96-2.97,3.42,3.42,0,0,1,2.656-1.049,3.366,3.366,0,0,1,2.522.923,3.491,3.491,0,0,1,.9,2.55V-3.3H17.353a2.007,2.007,0,0,0,.526,1.388,1.852,1.852,0,0,0,1.381.5,5.732,5.732,0,0,0,1.306-.144,6.533,6.533,0,0,0,1.285-.458V-.4A4.9,4.9,0,0,1,20.682,0,7.37,7.37,0,0,1,19.165.137Z" transform="translate(504 820)" fill="#5b7183"/><path d="M-19.506-5.291h.7a2.322,2.322,0,0,0,1.463-.386A1.352,1.352,0,0,0-16.861-6.8a1.386,1.386,0,0,0-.407-1.1,1.906,1.906,0,0,0-1.275-.355h-.964Zm4.785-1.586a3.055,3.055,0,0,1-1.008,2.468,4.312,4.312,0,0,1-2.868.854h-.909V0h-2.119V-9.994h3.192a4.246,4.246,0,0,1,2.765.783A2.854,2.854,0,0,1-14.721-6.877Zm5.988-.909a3.362,3.362,0,0,1,.7.062L-8.186-5.77A2.388,2.388,0,0,0-8.8-5.838a2.211,2.211,0,0,0-1.555.513,1.853,1.853,0,0,0-.557,1.436V0H-13V-7.643h1.579l.308,1.285h.1a2.873,2.873,0,0,1,.96-1.036A2.368,2.368,0,0,1-8.733-7.786ZM-5.26-3.835a3.208,3.208,0,0,0,.373,1.716,1.332,1.332,0,0,0,1.213.581,1.311,1.311,0,0,0,1.2-.578,3.254,3.254,0,0,0,.366-1.719,3.157,3.157,0,0,0-.369-1.7A1.335,1.335,0,0,0-3.688-6.1a1.33,1.33,0,0,0-1.2.564A3.154,3.154,0,0,0-5.26-3.835Zm5.284,0A4.107,4.107,0,0,1-.96-.916,3.569,3.569,0,0,1-3.7.137,3.835,3.835,0,0,1-5.643-.345,3.207,3.207,0,0,1-6.935-1.729a4.652,4.652,0,0,1-.451-2.105,4.084,4.084,0,0,1,.978-2.912A3.59,3.59,0,0,1-3.661-7.786a3.856,3.856,0,0,1,1.941.479A3.194,3.194,0,0,1-.427-5.934,4.608,4.608,0,0,1,.024-3.835ZM5.971-6.077h-1.8V0H2.082V-6.077H.933v-1l1.148-.561V-8.2a2.5,2.5,0,0,1,.643-1.907,2.945,2.945,0,0,1,2.058-.6,5.355,5.355,0,0,1,1.921.321L6.169-8.859a3.886,3.886,0,0,0-1.162-.2.752.752,0,0,0-.643.263,1.089,1.089,0,0,0-.2.673v.479h1.8ZM7.079-9.618q0-1.019,1.135-1.019T9.348-9.618a.993.993,0,0,1-.284.755,1.192,1.192,0,0,1-.851.27Q7.079-8.593,7.079-9.618ZM9.252,0H7.167V-7.643H9.252Zm4.266,0H11.433V-10.637h2.085Zm5.353-6.3a1.322,1.322,0,0,0-1.039.42A1.946,1.946,0,0,0,17.4-4.689h2.926a1.738,1.738,0,0,0-.4-1.193A1.366,1.366,0,0,0,18.871-6.3ZM19.165.137A3.945,3.945,0,0,1,16.28-.882a3.857,3.857,0,0,1-1.039-2.885,4.242,4.242,0,0,1,.96-2.97,3.42,3.42,0,0,1,2.656-1.049,3.366,3.366,0,0,1,2.522.923,3.491,3.491,0,0,1,.9,2.55V-3.3H17.353a2.007,2.007,0,0,0,.526,1.388,1.852,1.852,0,0,0,1.381.5,5.732,5.732,0,0,0,1.306-.144,6.533,6.533,0,0,0,1.285-.458V-.4A4.9,4.9,0,0,1,20.682,0,7.37,7.37,0,0,1,19.165.137Z" transform="translate(597 820)" fill="#5b7183"/><path d="M-19.506-5.291h.7a2.322,2.322,0,0,0,1.463-.386A1.352,1.352,0,0,0-16.861-6.8a1.386,1.386,0,0,0-.407-1.1,1.906,1.906,0,0,0-1.275-.355h-.964Zm4.785-1.586a3.055,3.055,0,0,1-1.008,2.468,4.312,4.312,0,0,1-2.868.854h-.909V0h-2.119V-9.994h3.192a4.246,4.246,0,0,1,2.765.783A2.854,2.854,0,0,1-14.721-6.877Zm5.988-.909a3.362,3.362,0,0,1,.7.062L-8.186-5.77A2.388,2.388,0,0,0-8.8-5.838a2.211,2.211,0,0,0-1.555.513,1.853,1.853,0,0,0-.557,1.436V0H-13V-7.643h1.579l.308,1.285h.1a2.873,2.873,0,0,1,.96-1.036A2.368,2.368,0,0,1-8.733-7.786ZM-5.26-3.835a3.208,3.208,0,0,0,.373,1.716,1.332,1.332,0,0,0,1.213.581,1.311,1.311,0,0,0,1.2-.578,3.254,3.254,0,0,0,.366-1.719,3.157,3.157,0,0,0-.369-1.7A1.335,1.335,0,0,0-3.688-6.1a1.33,1.33,0,0,0-1.2.564A3.154,3.154,0,0,0-5.26-3.835Zm5.284,0A4.107,4.107,0,0,1-.96-.916,3.569,3.569,0,0,1-3.7.137,3.835,3.835,0,0,1-5.643-.345,3.207,3.207,0,0,1-6.935-1.729a4.652,4.652,0,0,1-.451-2.105,4.084,4.084,0,0,1,.978-2.912A3.59,3.59,0,0,1-3.661-7.786a3.856,3.856,0,0,1,1.941.479A3.194,3.194,0,0,1-.427-5.934,4.608,4.608,0,0,1,.024-3.835ZM5.971-6.077h-1.8V0H2.082V-6.077H.933v-1l1.148-.561V-8.2a2.5,2.5,0,0,1,.643-1.907,2.945,2.945,0,0,1,2.058-.6,5.355,5.355,0,0,1,1.921.321L6.169-8.859a3.886,3.886,0,0,0-1.162-.2.752.752,0,0,0-.643.263,1.089,1.089,0,0,0-.2.673v.479h1.8ZM7.079-9.618q0-1.019,1.135-1.019T9.348-9.618a.993.993,0,0,1-.284.755,1.192,1.192,0,0,1-.851.27Q7.079-8.593,7.079-9.618ZM9.252,0H7.167V-7.643H9.252Zm4.266,0H11.433V-10.637h2.085Zm5.353-6.3a1.322,1.322,0,0,0-1.039.42A1.946,1.946,0,0,0,17.4-4.689h2.926a1.738,1.738,0,0,0-.4-1.193A1.366,1.366,0,0,0,18.871-6.3ZM19.165.137A3.945,3.945,0,0,1,16.28-.882a3.857,3.857,0,0,1-1.039-2.885,4.242,4.242,0,0,1,.96-2.97,3.42,3.42,0,0,1,2.656-1.049,3.366,3.366,0,0,1,2.522.923,3.491,3.491,0,0,1,.9,2.55V-3.3H17.353a2.007,2.007,0,0,0,.526,1.388,1.852,1.852,0,0,0,1.381.5,5.732,5.732,0,0,0,1.306-.144,6.533,6.533,0,0,0,1.285-.458V-.4A4.9,4.9,0,0,1,20.682,0,7.37,7.37,0,0,1,19.165.137Z" transform="translate(771 820)" fill="#5b7183"/><path d="M-6.241,0V-9.994h2.119V0ZM6.686-5.093a4.922,4.922,0,0,1-1.4,3.78A5.729,5.729,0,0,1,1.224,0h-2.83V-9.994H1.531A5.284,5.284,0,0,1,5.332-8.7,4.752,4.752,0,0,1,6.686-5.093Zm-2.2.055q0-3.22-2.844-3.22H.513V-1.75h.909Q4.484-1.75,4.484-5.038Z" transform="translate(863.5 820)" fill="#5b7183"/><path d="M-21.369-2.775a2.583,2.583,0,0,1-.974,2.133,4.232,4.232,0,0,1-2.71.779,6.366,6.366,0,0,1-2.83-.6V-2.434a11.663,11.663,0,0,0,1.712.636,5.067,5.067,0,0,0,1.282.185,1.822,1.822,0,0,0,1.07-.267.912.912,0,0,0,.373-.793.875.875,0,0,0-.164-.523,1.836,1.836,0,0,0-.482-.441,12.4,12.4,0,0,0-1.3-.677,6.14,6.14,0,0,1-1.374-.827,3.105,3.105,0,0,1-.731-.923,2.634,2.634,0,0,1-.273-1.23,2.583,2.583,0,0,1,.9-2.085,3.735,3.735,0,0,1,2.485-.759,5.868,5.868,0,0,1,1.487.185,10.22,10.22,0,0,1,1.48.52L-22.1-7.786a10,10,0,0,0-1.323-.458,4.258,4.258,0,0,0-1.029-.13,1.362,1.362,0,0,0-.923.28.925.925,0,0,0-.321.731.905.905,0,0,0,.13.489,1.428,1.428,0,0,0,.414.4,12.787,12.787,0,0,0,1.343.7,5.345,5.345,0,0,1,1.921,1.343A2.622,2.622,0,0,1-21.369-2.775ZM-16.557-6.3a1.322,1.322,0,0,0-1.039.42,1.946,1.946,0,0,0-.431,1.193H-15.1a1.738,1.738,0,0,0-.4-1.193A1.366,1.366,0,0,0-16.557-6.3Zm.294,6.439A3.945,3.945,0,0,1-19.147-.882a3.857,3.857,0,0,1-1.039-2.885,4.242,4.242,0,0,1,.96-2.97A3.42,3.42,0,0,1-16.57-7.786a3.366,3.366,0,0,1,2.522.923,3.491,3.491,0,0,1,.9,2.55V-3.3h-4.929a2.007,2.007,0,0,0,.526,1.388,1.852,1.852,0,0,0,1.381.5,5.732,5.732,0,0,0,1.306-.144,6.533,6.533,0,0,0,1.285-.458V-.4A4.9,4.9,0,0,1-14.745,0,7.37,7.37,0,0,1-16.263.137Zm7.916,0q-3.568,0-3.568-3.917a4.178,4.178,0,0,1,.971-2.977A3.641,3.641,0,0,1-8.162-7.786a5.3,5.3,0,0,1,2.379.52L-6.4-5.653q-.492-.2-.916-.325A2.951,2.951,0,0,0-8.162-6.1q-1.627,0-1.627,2.311,0,2.242,1.627,2.242a3.709,3.709,0,0,0,1.114-.161,4.023,4.023,0,0,0,1.025-.5V-.431A3.36,3.36,0,0,1-7.044.014,5.747,5.747,0,0,1-8.347.137ZM1.162,0,.882-.978H.772a2.2,2.2,0,0,1-.95.824,3.244,3.244,0,0,1-1.4.291,2.669,2.669,0,0,1-2.03-.721,2.9,2.9,0,0,1-.684-2.075V-7.643h2.085v4.464a2.144,2.144,0,0,0,.294,1.241,1.069,1.069,0,0,0,.937.414A1.408,1.408,0,0,0,.287-2.109a3.625,3.625,0,0,0,.39-1.938v-3.6H2.762V0ZM9.215-7.786a3.362,3.362,0,0,1,.7.062L9.762-5.77a2.388,2.388,0,0,0-.615-.068,2.211,2.211,0,0,0-1.555.513A1.853,1.853,0,0,0,7.034-3.89V0H4.949V-7.643H6.528l.308,1.285h.1A2.873,2.873,0,0,1,7.9-7.393,2.368,2.368,0,0,1,9.215-7.786Zm2-1.832q0-1.019,1.135-1.019t1.135,1.019a.993.993,0,0,1-.284.755,1.192,1.192,0,0,1-.851.27Q11.218-8.593,11.218-9.618ZM13.392,0H11.307V-7.643h2.085ZM18.8-1.524a4.52,4.52,0,0,0,1.313-.239V-.212A4.68,4.68,0,0,1,18.2.137,2.343,2.343,0,0,1,16.375-.5a2.752,2.752,0,0,1-.571-1.9V-6.077h-1v-.882l1.148-.7.6-1.613H17.89v1.627h2.14v1.565H17.89v3.685a.814.814,0,0,0,.25.656A.984.984,0,0,0,18.8-1.524Zm1.764-6.118h2.283l1.442,4.3a5.966,5.966,0,0,1,.253,1.326h.041a5.86,5.86,0,0,1,.294-1.326l1.415-4.3h2.235L25.293.978a3.732,3.732,0,0,1-1.268,1.791,3.2,3.2,0,0,1-1.924.595,4.839,4.839,0,0,1-1.06-.116V1.593a3.564,3.564,0,0,0,.82.089,1.481,1.481,0,0,0,.967-.338A2.194,2.194,0,0,0,23.475.321L23.6-.055Z" transform="translate(957 820)" fill="#5b7183"/><path d="M61,60H0v-.734C0,47.881,1.572,41.591,4.8,40.033c.837-.4,1.917-1.021,3.163-1.736,3.568-2.044,8.825-5.055,14.7-6.577-3.837-3.6-6.425-9.93-6.425-15.975C16.238,6.622,22.235,0,30.5,0S44.759,6.683,44.759,15.892c0,5.974-2.48,12.067-6.285,15.691,7.988,1.822,14.793,6.137,17.8,8.042,4.3,2.726,4.686,17.906,4.716,19.628L61,60Z" transform="translate(740 734)" fill="#5b7183"/><path d="M33.638,63.776a1.331,1.331,0,0,1-.365-1.85c5.3-7.856,7.854-16.821,7.785-27.4a1.342,1.342,0,0,1,1.333-1.339,1.381,1.381,0,0,1,1.344,1.326c.067,10.984-2.7,20.706-8.239,28.906A1.344,1.344,0,0,1,34.383,64,1.314,1.314,0,0,1,33.638,63.776Zm-7.145-.2A1.328,1.328,0,0,1,26.3,61.7,38.8,38.8,0,0,0,33.853,46.96a1.337,1.337,0,0,1,2.586.68,41.361,41.361,0,0,1-8.063,15.753,1.328,1.328,0,0,1-1.036.485A1.351,1.351,0,0,1,26.493,63.579Zm15.3-2a1.328,1.328,0,0,1-.587-1.786c6.131-12.027,5.716-23.278,5.52-28.688-.026-.653-.04-1.013-.04-1.315,0-8.661-7.292-15.7-16.255-15.7a16,16,0,0,0-7.123,1.672,1.335,1.335,0,1,1-1.186-2.392,18.644,18.644,0,0,1,8.309-1.947c10.438,0,18.931,8.24,18.931,18.371,0,.277.014.6.03.979.2,5.431.645,17.594-5.8,30.227a1.331,1.331,0,0,1-1.2.731A1.362,1.362,0,0,1,41.792,61.582Zm-24.915-.925a1.331,1.331,0,0,1,.463-1.83,23.69,23.69,0,0,0,5.817-4.776,1.336,1.336,0,0,1,2.024,1.744,26.428,26.428,0,0,1-6.47,5.323,1.328,1.328,0,0,1-.683.187A1.346,1.346,0,0,1,16.878,60.656Zm32.844-2.363a1.328,1.328,0,0,1-.793-1.712c4.085-10.966,3.727-20.888,3.55-25.658l-.014-.337c-.015-.307-.026-.573-.026-.8A21.119,21.119,0,0,0,44.11,13.021a1.324,1.324,0,0,1-.235-1.869,1.339,1.339,0,0,1,1.877-.235,23.759,23.759,0,0,1,9.364,18.869c0,.2.011.424.022.686l.014.285c.179,5.008.556,15.287-3.711,26.749a1.33,1.33,0,0,1-1.253.875A1.217,1.217,0,0,1,49.721,58.293ZM9.878,55.875a1.334,1.334,0,0,1,.8-1.715c11.087-4.021,13.414-12.3,13.414-18.536V29.96a6.935,6.935,0,0,1,6.885-7.128,7.069,7.069,0,0,1,7.159,6.952c0,.486.042,1.1.085,1.835a53.841,53.841,0,0,1,.134,5.733,1.357,1.357,0,0,1-1.392,1.28,1.341,1.341,0,0,1-1.285-1.389,51.071,51.071,0,0,0-.126-5.458c-.056-.8-.094-1.475-.094-2A4.393,4.393,0,0,0,30.974,25.5a4.293,4.293,0,0,0-4.208,4.461v5.664c0,7.088-2.632,16.491-15.176,21.046a1.231,1.231,0,0,1-.455.083A1.343,1.343,0,0,1,9.878,55.875ZM5.033,50.987a1.336,1.336,0,0,1,.91-1.656c7.281-2.11,10.116-5.95,10.116-13.7V29.968c0-6.84,6.438-12.84,13.775-12.84A12.947,12.947,0,0,1,43.018,29.792a1.338,1.338,0,0,1-2.677,0,10.274,10.274,0,0,0-10.508-10c-5.809,0-11.1,4.851-11.1,10.174v5.664c0,8.829-3.716,13.838-12.047,16.261a1.346,1.346,0,0,1-1.657-.906Zm22.154.458a1.329,1.329,0,0,1-.573-1.8,26.927,26.927,0,0,0,2.832-12.885V32.077a1.338,1.338,0,0,1,2.677,0v4.685a29.529,29.529,0,0,1-3.132,14.115,1.34,1.34,0,0,1-1.191.717A1.319,1.319,0,0,1,27.187,51.445Zm30.958-1.133a1.333,1.333,0,0,1-1.06-1.562A75.927,75.927,0,0,0,58.22,30.7l-.031-.867c0-15-12.453-27.168-27.758-27.168a28.171,28.171,0,0,0-22,10.9,1.336,1.336,0,0,1-2.114-1.635A30.86,30.86,0,0,1,30.431,0C47.213,0,60.865,13.362,60.865,29.789l.027.774a78.538,78.538,0,0,1-1.178,18.7A1.34,1.34,0,0,1,58.4,50.339,1.4,1.4,0,0,1,58.145,50.312ZM1.491,46.24a1.335,1.335,0,0,1,.91-1.656l2.519-.731c5.1-1.482,6.58-3.326,6.58-8.219a1.338,1.338,0,0,1,2.677,0c0,6.056-2.3,8.978-8.507,10.778l-2.519.728a1.3,1.3,0,0,1-.375.054A1.338,1.338,0,0,1,1.491,46.24Zm-.252-6.328a1.338,1.338,0,0,1,1.338-1.334,2.8,2.8,0,0,0,2.777-2.947V29.968c0-13.147,11.393-24.256,24.881-24.256a26.214,26.214,0,0,1,9.79,1.893,1.329,1.329,0,0,1,.725,1.742A1.343,1.343,0,0,1,39,10.069a23.492,23.492,0,0,0-8.764-1.687c-12.035,0-22.2,9.887-22.2,21.589v5.664a5.479,5.479,0,0,1-5.456,5.611A1.336,1.336,0,0,1,1.239,39.912ZM0,34.744V29.965A30.843,30.843,0,0,1,3.3,16.178a1.338,1.338,0,0,1,2.378,1.227,28.121,28.121,0,0,0-3,12.56v4.778a1.338,1.338,0,0,1-2.677,0Zm11.5-4.778A18.4,18.4,0,0,1,17.842,16.24a1.343,1.343,0,0,1,1.89.112,1.327,1.327,0,0,1-.112,1.883,15.75,15.75,0,0,0-5.44,11.731,1.34,1.34,0,0,1-2.679,0Z" transform="translate(566 733)" fill="#5b7183"/><path d="M33.638,63.776a1.331,1.331,0,0,1-.365-1.85c5.3-7.856,7.854-16.821,7.785-27.4a1.342,1.342,0,0,1,1.333-1.339,1.381,1.381,0,0,1,1.344,1.326c.067,10.984-2.7,20.706-8.239,28.906A1.344,1.344,0,0,1,34.383,64,1.314,1.314,0,0,1,33.638,63.776Zm-7.145-.2A1.328,1.328,0,0,1,26.3,61.7,38.8,38.8,0,0,0,33.853,46.96a1.337,1.337,0,0,1,2.586.68,41.361,41.361,0,0,1-8.063,15.753,1.328,1.328,0,0,1-1.036.485A1.351,1.351,0,0,1,26.493,63.579Zm15.3-2a1.328,1.328,0,0,1-.587-1.786c6.131-12.027,5.716-23.278,5.52-28.688-.026-.653-.04-1.013-.04-1.315,0-8.661-7.292-15.7-16.255-15.7a16,16,0,0,0-7.123,1.672,1.335,1.335,0,1,1-1.186-2.392,18.644,18.644,0,0,1,8.309-1.947c10.438,0,18.931,8.24,18.931,18.371,0,.277.014.6.03.979.2,5.431.645,17.594-5.8,30.227a1.331,1.331,0,0,1-1.2.731A1.362,1.362,0,0,1,41.792,61.582Zm-24.915-.925a1.331,1.331,0,0,1,.463-1.83,23.69,23.69,0,0,0,5.817-4.776,1.336,1.336,0,0,1,2.024,1.744,26.428,26.428,0,0,1-6.47,5.323,1.328,1.328,0,0,1-.683.187A1.346,1.346,0,0,1,16.878,60.656Zm32.844-2.363a1.328,1.328,0,0,1-.793-1.712c4.085-10.966,3.727-20.888,3.55-25.658l-.014-.337c-.015-.307-.026-.573-.026-.8A21.119,21.119,0,0,0,44.11,13.021a1.324,1.324,0,0,1-.235-1.869,1.339,1.339,0,0,1,1.877-.235,23.759,23.759,0,0,1,9.364,18.869c0,.2.011.424.022.686l.014.285c.179,5.008.556,15.287-3.711,26.749a1.33,1.33,0,0,1-1.253.875A1.217,1.217,0,0,1,49.721,58.293ZM9.878,55.875a1.334,1.334,0,0,1,.8-1.715c11.087-4.021,13.414-12.3,13.414-18.536V29.96a6.935,6.935,0,0,1,6.885-7.128,7.069,7.069,0,0,1,7.159,6.952c0,.486.042,1.1.085,1.835a53.841,53.841,0,0,1,.134,5.733,1.357,1.357,0,0,1-1.392,1.28,1.341,1.341,0,0,1-1.285-1.389,51.071,51.071,0,0,0-.126-5.458c-.056-.8-.094-1.475-.094-2A4.393,4.393,0,0,0,30.974,25.5a4.293,4.293,0,0,0-4.208,4.461v5.664c0,7.088-2.632,16.491-15.176,21.046a1.231,1.231,0,0,1-.455.083A1.343,1.343,0,0,1,9.878,55.875ZM5.033,50.987a1.336,1.336,0,0,1,.91-1.656c7.281-2.11,10.116-5.95,10.116-13.7V29.968c0-6.84,6.438-12.84,13.775-12.84A12.947,12.947,0,0,1,43.018,29.792a1.338,1.338,0,0,1-2.677,0,10.274,10.274,0,0,0-10.508-10c-5.809,0-11.1,4.851-11.1,10.174v5.664c0,8.829-3.716,13.838-12.047,16.261a1.346,1.346,0,0,1-1.657-.906Zm22.154.458a1.329,1.329,0,0,1-.573-1.8,26.927,26.927,0,0,0,2.832-12.885V32.077a1.338,1.338,0,0,1,2.677,0v4.685a29.529,29.529,0,0,1-3.132,14.115,1.34,1.34,0,0,1-1.191.717A1.319,1.319,0,0,1,27.187,51.445Zm30.958-1.133a1.333,1.333,0,0,1-1.06-1.562A75.927,75.927,0,0,0,58.22,30.7l-.031-.867c0-15-12.453-27.168-27.758-27.168a28.171,28.171,0,0,0-22,10.9,1.336,1.336,0,0,1-2.114-1.635A30.86,30.86,0,0,1,30.431,0C47.213,0,60.865,13.362,60.865,29.789l.027.774a78.538,78.538,0,0,1-1.178,18.7A1.34,1.34,0,0,1,58.4,50.339,1.4,1.4,0,0,1,58.145,50.312ZM1.491,46.24a1.335,1.335,0,0,1,.91-1.656l2.519-.731c5.1-1.482,6.58-3.326,6.58-8.219a1.338,1.338,0,0,1,2.677,0c0,6.056-2.3,8.978-8.507,10.778l-2.519.728a1.3,1.3,0,0,1-.375.054A1.338,1.338,0,0,1,1.491,46.24Zm-.252-6.328a1.338,1.338,0,0,1,1.338-1.334,2.8,2.8,0,0,0,2.777-2.947V29.968c0-13.147,11.393-24.256,24.881-24.256a26.214,26.214,0,0,1,9.79,1.893,1.329,1.329,0,0,1,.725,1.742A1.343,1.343,0,0,1,39,10.069a23.492,23.492,0,0,0-8.764-1.687c-12.035,0-22.2,9.887-22.2,21.589v5.664a5.479,5.479,0,0,1-5.456,5.611A1.336,1.336,0,0,1,1.239,39.912ZM0,34.744V29.965A30.843,30.843,0,0,1,3.3,16.178a1.338,1.338,0,0,1,2.378,1.227,28.121,28.121,0,0,0-3,12.56v4.778a1.338,1.338,0,0,1-2.677,0Zm11.5-4.778A18.4,18.4,0,0,1,17.842,16.24a1.343,1.343,0,0,1,1.89.112,1.327,1.327,0,0,1-.112,1.883,15.75,15.75,0,0,0-5.44,11.731,1.34,1.34,0,0,1-2.679,0Z" transform="translate(926 733)" fill="#5b7183"/><path d="M58.847,38H2.153A2.134,2.134,0,0,1,0,35.891V2.11A2.134,2.134,0,0,1,2.153,0H58.847A2.134,2.134,0,0,1,61,2.11V35.89A2.134,2.134,0,0,1,58.847,38Zm-32.8-14.328v2.492H55.917V23.672ZM13.644,10.087a4.929,4.929,0,0,0-4.488,3.085,4.833,4.833,0,0,0-.23,2.934A6.483,6.483,0,0,0,10.8,19.25a1.306,1.306,0,0,1,.511,1.273c-.2.7-1.261,1.3-2.993,1.687a4.5,4.5,0,0,0-3.005,1.738,2.786,2.786,0,0,0-.231,2.217H22.24a2.763,2.763,0,0,0-.233-2.2,4.543,4.543,0,0,0-3.038-1.755c-1.714-.387-2.767-.982-2.965-1.676a1.32,1.32,0,0,1,.517-1.283c1.866-1.829,2.463-4.037,1.638-6.059A4.96,4.96,0,0,0,13.644,10.087Zm12.408,7.356v2.491H55.917V17.443Zm0-6.23v2.492H55.917V11.213Z" transform="translate(473 745)" fill="#5b7183"/><path d="M58.847,38H2.153A2.134,2.134,0,0,1,0,35.891V2.11A2.134,2.134,0,0,1,2.153,0H58.847A2.134,2.134,0,0,1,61,2.11V35.89A2.134,2.134,0,0,1,58.847,38Zm-32.8-14.328v2.492H55.917V23.672ZM13.644,10.087a4.929,4.929,0,0,0-4.488,3.085,4.833,4.833,0,0,0-.23,2.934A6.483,6.483,0,0,0,10.8,19.25a1.306,1.306,0,0,1,.511,1.273c-.2.7-1.261,1.3-2.993,1.687a4.5,4.5,0,0,0-3.005,1.738,2.786,2.786,0,0,0-.231,2.217H22.24a2.763,2.763,0,0,0-.233-2.2,4.543,4.543,0,0,0-3.038-1.755c-1.714-.387-2.767-.982-2.965-1.676a1.32,1.32,0,0,1,.517-1.283c1.866-1.829,2.463-4.037,1.638-6.059A4.96,4.96,0,0,0,13.644,10.087Zm12.408,7.356v2.491H55.917V17.443Zm0-6.23v2.492H55.917V11.213Z" transform="translate(833 745)" fill="#5b7183"/><rect width="1" height="300" transform="translate(683 614)" fill="#557b92"/><path d="M-37.07-7.139h2.222a4.281,4.281,0,0,1,2.2.432,1.5,1.5,0,0,1,.686,1.375,1.732,1.732,0,0,1-.3,1.05,1.2,1.2,0,0,1-.8.493v.049a1.573,1.573,0,0,1,.979.566,1.843,1.843,0,0,1,.3,1.1,1.818,1.818,0,0,1-.706,1.523A3.052,3.052,0,0,1-34.4,0H-37.07Zm1.514,2.827h.879a1.607,1.607,0,0,0,.891-.19.71.71,0,0,0,.276-.63.63.63,0,0,0-.3-.588,1.93,1.93,0,0,0-.95-.178h-.8Zm0,1.2v1.86h.986a1.463,1.463,0,0,0,.923-.239.883.883,0,0,0,.3-.732q0-.889-1.27-.889ZM-26.24,0h-4.111V-7.139h4.111V-5.9h-2.6v1.567h2.417v1.24h-2.417V-1.25h2.6Zm2.979,0h-1.489V-7.139h4.092V-5.9h-2.6v1.841h2.422v1.235h-2.422Zm10.479-3.579a3.874,3.874,0,0,1-.879,2.725A3.258,3.258,0,0,1-16.182.1,3.258,3.258,0,0,1-18.7-.854a3.889,3.889,0,0,1-.879-2.734A3.836,3.836,0,0,1-18.7-6.311a3.3,3.3,0,0,1,2.527-.94,3.25,3.25,0,0,1,2.517.947A3.884,3.884,0,0,1-12.783-3.579Zm-5.21,0a2.982,2.982,0,0,0,.454,1.8,1.589,1.589,0,0,0,1.357.605q1.812,0,1.812-2.407t-1.8-2.412a1.6,1.6,0,0,0-1.362.608A2.969,2.969,0,0,0-17.993-3.579Zm8.2-.391H-9.3a1.868,1.868,0,0,0,1.06-.239A.854.854,0,0,0-7.9-4.961a.781.781,0,0,0-.349-.723A2.119,2.119,0,0,0-9.331-5.9H-9.79Zm0,1.23V0H-11.3V-7.139h2.08a3.56,3.56,0,0,1,2.153.53A1.891,1.891,0,0,1-6.372-5a1.894,1.894,0,0,1-.347,1.121A2.294,2.294,0,0,1-7.7-3.11Q-6.089-.7-5.6,0H-7.28l-1.7-2.739ZM-.591,0H-4.7V-7.139H-.591V-5.9h-2.6v1.567H-.771v1.24H-3.188V-1.25h2.6Z" transform="translate(667 909)" fill="#7f2725"/><path d="M5.269,0,4.751-1.7h-2.6L1.631,0H0L2.52-7.168H4.37L6.9,0ZM4.39-2.969q-.718-2.31-.808-2.612T3.452-6.06q-.161.625-.923,3.091ZM9.287,0H7.8V-7.139H11.89V-5.9h-2.6v1.841h2.422v1.235H9.287ZM16.04,0H14.526V-5.879H12.588v-1.26h5.391v1.26H16.04Zm7.148,0H19.077V-7.139h4.111V-5.9h-2.6v1.567h2.417v1.24H20.591V-1.25h2.6Zm3-3.97h.488a1.868,1.868,0,0,0,1.06-.239.854.854,0,0,0,.342-.752.781.781,0,0,0-.349-.723A2.119,2.119,0,0,0,26.65-5.9h-.459Zm0,1.23V0H24.678V-7.139h2.08a3.56,3.56,0,0,1,2.153.53A1.891,1.891,0,0,1,29.609-5a1.894,1.894,0,0,1-.347,1.121,2.294,2.294,0,0,1-.981.769Q29.893-.7,30.381,0H28.7L27-2.739Z" transform="translate(700 909)" fill="#487f3f"/><path d="M-.434.434-71.566,71.566" transform="translate(539 728)" fill="none" stroke="#7f2725" stroke-linecap="square" stroke-miterlimit="10" stroke-width="3"/><path d="M-.434.434-71.566,71.566" transform="translate(632 729)" fill="none" stroke="#7f2725" stroke-linecap="square" stroke-miterlimit="10" stroke-width="3"/></g></g></svg>