<svg xmlns="http://www.w3.org/2000/svg" width="775" height="322" viewBox="0 0 775 322"><g transform="translate(-441 -489)"><rect width="775" height="322" rx="8" transform="translate(441 489)" fill="#e7edf2"/><g transform="translate(5 -12)"><rect width="1" height="276" transform="translate(827 524)" fill="#557b92"/><path d="M-37.07-7.139h2.222a4.281,4.281,0,0,1,2.2.432,1.5,1.5,0,0,1,.686,1.375,1.732,1.732,0,0,1-.3,1.05,1.2,1.2,0,0,1-.8.493v.049a1.573,1.573,0,0,1,.979.566,1.843,1.843,0,0,1,.3,1.1,1.818,1.818,0,0,1-.706,1.523A3.052,3.052,0,0,1-34.4,0H-37.07Zm1.514,2.827h.879a1.607,1.607,0,0,0,.891-.19.71.71,0,0,0,.276-.63.63.63,0,0,0-.3-.588,1.93,1.93,0,0,0-.95-.178h-.8Zm0,1.2v1.86h.986a1.463,1.463,0,0,0,.923-.239.883.883,0,0,0,.3-.732q0-.889-1.27-.889ZM-26.24,0h-4.111V-7.139h4.111V-5.9h-2.6v1.567h2.417v1.24h-2.417V-1.25h2.6Zm2.979,0h-1.489V-7.139h4.092V-5.9h-2.6v1.841h2.422v1.235h-2.422Zm10.479-3.579a3.874,3.874,0,0,1-.879,2.725A3.258,3.258,0,0,1-16.182.1,3.258,3.258,0,0,1-18.7-.854a3.889,3.889,0,0,1-.879-2.734A3.836,3.836,0,0,1-18.7-6.311a3.3,3.3,0,0,1,2.527-.94,3.25,3.25,0,0,1,2.517.947A3.884,3.884,0,0,1-12.783-3.579Zm-5.21,0a2.982,2.982,0,0,0,.454,1.8,1.589,1.589,0,0,0,1.357.605q1.812,0,1.812-2.407t-1.8-2.412a1.6,1.6,0,0,0-1.362.608A2.969,2.969,0,0,0-17.993-3.579Zm8.2-.391H-9.3a1.868,1.868,0,0,0,1.06-.239A.854.854,0,0,0-7.9-4.961a.781.781,0,0,0-.349-.723A2.119,2.119,0,0,0-9.331-5.9H-9.79Zm0,1.23V0H-11.3V-7.139h2.08a3.56,3.56,0,0,1,2.153.53A1.891,1.891,0,0,1-6.372-5a1.894,1.894,0,0,1-.347,1.121A2.294,2.294,0,0,1-7.7-3.11Q-6.089-.7-5.6,0H-7.28l-1.7-2.739ZM-.591,0H-4.7V-7.139H-.591V-5.9h-2.6v1.567H-.771v1.24H-3.188V-1.25h2.6Z" transform="translate(810 795)" fill="#7f2725"/><path d="M5.269,0,4.751-1.7h-2.6L1.631,0H0L2.52-7.168H4.37L6.9,0ZM4.39-2.969q-.718-2.31-.808-2.612T3.452-6.06q-.161.625-.923,3.091ZM9.287,0H7.8V-7.139H11.89V-5.9h-2.6v1.841h2.422v1.235H9.287ZM16.04,0H14.526V-5.879H12.588v-1.26h5.391v1.26H16.04Zm7.148,0H19.077V-7.139h4.111V-5.9h-2.6v1.567h2.417v1.24H20.591V-1.25h2.6Zm3-3.97h.488a1.868,1.868,0,0,0,1.06-.239.854.854,0,0,0,.342-.752.781.781,0,0,0-.349-.723A2.119,2.119,0,0,0,26.65-5.9h-.459Zm0,1.23V0H24.678V-7.139h2.08a3.56,3.56,0,0,1,2.153.53A1.891,1.891,0,0,1,29.609-5a1.894,1.894,0,0,1-.347,1.121,2.294,2.294,0,0,1-.981.769Q29.893-.7,30.381,0H28.7L27-2.739Z" transform="translate(843 795)" fill="#487f3f"/><rect width="76" height="8" rx="4" transform="translate(873 586)" fill="#5b7183"/><rect width="80" height="4" rx="2" transform="translate(873 611)" fill="#abbcca"/><rect width="70" height="4" rx="2" transform="translate(873 628)" fill="#abbcca"/><rect width="80" height="4" rx="2" transform="translate(873 645)" fill="#abbcca"/><rect width="70" height="4" rx="2" transform="translate(873 662)" fill="#abbcca"/><rect width="80" height="4" rx="2" transform="translate(873 679)" fill="#abbcca"/><rect width="60" height="4" rx="2" transform="translate(873 695)" fill="#abbcca"/><circle cx="8" cy="8" r="8" transform="translate(851 582)" fill="#3baecc"/><rect width="76" height="8" rx="4" transform="translate(454 587)" fill="#5b7183"/><rect width="80" height="4" rx="2" transform="translate(474 611)" fill="#abbcca"/><rect width="70" height="4" rx="2" transform="translate(474 628)" fill="#abbcca"/><rect width="80" height="4" rx="2" transform="translate(474 645)" fill="#abbcca"/><rect width="70" height="4" rx="2" transform="translate(474 662)" fill="#abbcca"/><rect width="80" height="4" rx="2" transform="translate(474 679)" fill="#abbcca"/><rect width="60" height="4" rx="2" transform="translate(474 695)" fill="#abbcca"/><circle cx="6" cy="6" r="6" transform="translate(454 607)" fill="#19557f"/><circle cx="6" cy="6" r="6" transform="translate(454 624)" fill="#1a8573"/><circle cx="6" cy="6" r="6" transform="translate(454 641)" fill="#a4cc44"/><circle cx="6" cy="6" r="6" transform="translate(454 658)" fill="#3baecc"/><circle cx="6" cy="6" r="6" transform="translate(454 675)" fill="#f38130"/><circle cx="6" cy="6" r="6" transform="translate(454 692)" fill="#19557f"/><rect width="76" height="8" rx="4" transform="translate(580 587)" fill="#5b7183"/><rect width="80" height="4" rx="2" transform="translate(600 611)" fill="#abbcca"/><rect width="80" height="4" rx="2" transform="translate(600 628)" fill="#abbcca"/><rect width="60" height="4" rx="2" transform="translate(600 645)" fill="#abbcca"/><rect width="80" height="4" rx="2" transform="translate(600 662)" fill="#abbcca"/><rect width="70" height="4" rx="2" transform="translate(600 679)" fill="#abbcca"/><rect width="80" height="4" rx="2" transform="translate(600 695)" fill="#abbcca"/><circle cx="6" cy="6" r="6" transform="translate(580 607)" fill="#19557f"/><circle cx="6" cy="6" r="6" transform="translate(580 624)" fill="#f38130"/><circle cx="6" cy="6" r="6" transform="translate(580 641)" fill="#3baecc"/><circle cx="6" cy="6" r="6" transform="translate(580 658)" fill="#19557f"/><circle cx="6" cy="6" r="6" transform="translate(580 675)" fill="#1a8573"/><circle cx="6" cy="6" r="6" transform="translate(580 692)" fill="#a4cc44"/><rect width="76" height="8" rx="4" transform="translate(706 587)" fill="#5b7183"/><rect width="70" height="4" rx="2" transform="translate(726 611)" fill="#abbcca"/><rect width="80" height="4" rx="2" transform="translate(726 628)" fill="#abbcca"/><rect width="80" height="4" rx="2" transform="translate(726 645)" fill="#abbcca"/><rect width="75" height="4" rx="2" transform="translate(726 662)" fill="#abbcca"/><rect width="80" height="4" rx="2" transform="translate(726 679)" fill="#abbcca"/><rect width="70" height="4" rx="2" transform="translate(726 695)" fill="#abbcca"/><circle cx="6" cy="6" r="6" transform="translate(706 607)" fill="#19557f"/><circle cx="6" cy="6" r="6" transform="translate(706 624)" fill="#1a8573"/><circle cx="6" cy="6" r="6" transform="translate(706 641)" fill="#f38130"/><circle cx="6" cy="6" r="6" transform="translate(706 658)" fill="#a4cc44"/><circle cx="6" cy="6" r="6" transform="translate(706 675)" fill="#19557f"/><circle cx="6" cy="6" r="6" transform="translate(706 692)" fill="#3baecc"/><rect width="76" height="8" rx="4" transform="translate(993 586)" fill="#5b7183"/><rect width="80" height="4" rx="2" transform="translate(993 611)" fill="#abbcca"/><rect width="80" height="4" rx="2" transform="translate(993 628)" fill="#abbcca"/><rect width="60" height="4" rx="2" transform="translate(993 645)" fill="#abbcca"/><rect width="80" height="4" rx="2" transform="translate(993 662)" fill="#abbcca"/><rect width="70" height="4" rx="2" transform="translate(993 679)" fill="#abbcca"/><rect width="80" height="4" rx="2" transform="translate(993 695)" fill="#abbcca"/><circle cx="8" cy="8" r="8" transform="translate(971 582)" fill="#a4cc44"/><rect width="76" height="8" rx="4" transform="translate(1114 586)" fill="#5b7183"/><rect width="70" height="4" rx="2" transform="translate(1114 611)" fill="#abbcca"/><rect width="80" height="4" rx="2" transform="translate(1114 628)" fill="#abbcca"/><rect width="80" height="4" rx="2" transform="translate(1114 645)" fill="#abbcca"/><rect width="75" height="4" rx="2" transform="translate(1114 662)" fill="#abbcca"/><rect width="80" height="4" rx="2" transform="translate(1114 679)" fill="#abbcca"/><rect width="70" height="4" rx="2" transform="translate(1114 695)" fill="#abbcca"/><circle cx="8" cy="8" r="8" transform="translate(1092 582)" fill="#f38130"/></g></g></svg>