<svg xmlns="http://www.w3.org/2000/svg" width="22.703" height="30" viewBox="0 0 22.703 30"><defs><style>.a{fill:#0199a6;}</style></defs><g transform="translate(-693.5 -823)"><path class="a" d="M716.2,834.351a11.351,11.351,0,1,0-16.622,10.054,2.45,2.45,0,0,0-.405,1.3v2.432A4.879,4.879,0,0,0,704.041,853h1.622a4.879,4.879,0,0,0,4.865-4.865V845.7a2.243,2.243,0,0,0-.405-1.3A11.325,11.325,0,0,0,716.2,834.351ZM708.095,845.7v.811h-4.054a1.216,1.216,0,0,0,0,2.432h3.892a2.362,2.362,0,0,1-2.27,1.622h-1.622a2.389,2.389,0,0,1-2.432-2.432V845.7h6.487Zm-3.243-2.432h0a8.919,8.919,0,1,1,8.919-8.919A8.893,8.893,0,0,1,704.851,843.27Z"/><path class="a" d="M707.216,828.5a1.216,1.216,0,0,0,0,2.432,4.5,4.5,0,0,1,4.459,4.459,1.216,1.216,0,1,0,2.432,0A6.886,6.886,0,0,0,707.216,828.5Z" transform="translate(-2.365 -1.041)"/></g></svg>