<svg xmlns="http://www.w3.org/2000/svg" width="14.1" height="14.98" viewBox="0 0 14.1 14.98"><defs><style>.a{fill:#47b4bc;}</style></defs><g transform="translate(-751.5 -1168.5)"><path class="a" d="M764.894,1197a.705.705,0,0,0-.7.7v2.82H752.91v-2.82a.7.7,0,0,0-1.41,0v3.525a.705.705,0,0,0,.7.705h12.689a.705.705,0,0,0,.7-.705V1197.7A.705.705,0,0,0,764.894,1197Z" transform="translate(0 -18.454)"/><path class="a" d="M760.931,1179.58c.008.007.017.013.025.02l.034.027a.716.716,0,0,0,.14.086l.014.009.007,0a.684.684,0,0,0,.1.031c.012,0,.024.008.037.01a.692.692,0,0,0,.271,0c.016,0,.032-.01.049-.014a.719.719,0,0,0,.081-.025c.018-.007.035-.018.052-.027a.747.747,0,0,0,.069-.037c.016-.011.03-.024.045-.036a.638.638,0,0,0,.056-.044l4.8-4.6a.705.705,0,0,0-.976-1.018l-3.6,3.448.028-8.211a.705.705,0,0,0-.7-.707h0a.7.7,0,0,0-.7.7l-.028,8.209-3.527-3.429a.705.705,0,0,0-.983,1.011Z" transform="translate(-2.914)"/></g></svg>