<svg xmlns="http://www.w3.org/2000/svg" width="775" height="201" viewBox="0 0 775 201"><g transform="translate(-3081 -965.5)"><rect width="775" height="201" rx="4" transform="translate(3081 965.5)" fill="#d9e1e8"/><text transform="translate(3157 1117.5)" fill="#015294" font-size="10" font-family="OpenSans-Bold, Open Sans" font-weight="700"><tspan x="-24.739" y="0">ACCIDENT</tspan></text><text transform="translate(3261 1117.5)" fill="#015294" font-size="10" font-family="OpenSans-Bold, Open Sans" font-weight="700"><tspan x="-24.175" y="0">HOSPITAL</tspan><tspan x="-28.672" y="14">INDEMNITY</tspan></text><text transform="translate(3365 1117.5)" fill="#015294" font-size="10" font-family="OpenSans-Bold, Open Sans" font-weight="700"><tspan x="-43.13" y="0">CRITICAL ILLNESS</tspan></text><text transform="translate(3469 1117.5)" fill="#015294" font-size="10" font-family="OpenSans-Bold, Open Sans" font-weight="700"><tspan x="-27.07" y="0">DISABILITY</tspan></text><text transform="translate(3573 1117.5)" fill="#015294" font-size="10" font-family="OpenSans-Bold, Open Sans" font-weight="700"><tspan x="-19.387" y="0">DENTAL</tspan><tspan x="-22.407" y="14">&amp; VISION</tspan></text><text transform="translate(3677 1117.5)" fill="#015294" font-size="10" font-family="OpenSans-Bold, Open Sans" font-weight="700"><tspan x="-19.988" y="0">CANCER</tspan></text><text transform="translate(3781 1117.5)" fill="#015294" font-size="10" font-family="OpenSans-Bold, Open Sans" font-weight="700"><tspan x="-10.024" y="0">LIFE</tspan></text><rect width="88" height="88" rx="8" transform="translate(3113 997.5)" fill="#fff"/><rect width="88" height="88" rx="8" transform="translate(3217 997.5)" fill="#fff"/><rect width="88" height="88" rx="8" transform="translate(3321 997.5)" fill="#fff"/><rect width="88" height="88" rx="8" transform="translate(3425 997.5)" fill="#fff"/><rect width="88" height="88" rx="8" transform="translate(3529 997.5)" fill="#fff"/><rect width="88" height="88" rx="8" transform="translate(3633 997.5)" fill="#fff"/><rect width="88" height="88" rx="8" transform="translate(3737 997.5)" fill="#fff"/><path d="M36,48a3.591,3.591,0,0,1-2.56-1.06L24,37.5,14.559,46.94A3.636,3.636,0,0,1,12,48,12,12,0,0,1,0,36a3.646,3.646,0,0,1,1.06-2.56L10.5,24,1.06,14.562A3.655,3.655,0,0,1,0,12,12,12,0,0,1,12,0a3.636,3.636,0,0,1,2.56,1.06L24,10.5,33.44,1.06A3.591,3.591,0,0,1,36,0,12,12,0,0,1,48,12a3.648,3.648,0,0,1-1.06,2.562L37.5,24,46.94,33.44A3.591,3.591,0,0,1,48,36,12,12,0,0,1,36,48ZM12,39a1.5,1.5,0,1,0,1.5,1.5A1.5,1.5,0,0,0,12,39Zm4.5-4.5A1.5,1.5,0,1,0,18,36,1.5,1.5,0,0,0,16.5,34.5Zm-9,0A1.5,1.5,0,1,0,9,36,1.5,1.5,0,0,0,7.5,34.5ZM12,30a1.5,1.5,0,1,0,1.5,1.5A1.5,1.5,0,0,0,12,30ZM24,15.31a.753.753,0,0,0-.532.22l-7.937,7.942a.747.747,0,0,0,0,1.06l7.937,7.939a.753.753,0,0,0,1.063,0l7.939-7.939a.75.75,0,0,0,0-1.06L24.531,15.53A.749.749,0,0,0,24,15.31ZM36,15a1.5,1.5,0,1,0,1.5,1.5A1.5,1.5,0,0,0,36,15Zm4.5-4.5A1.5,1.5,0,1,0,42,12,1.5,1.5,0,0,0,40.5,10.5Zm-9,0A1.5,1.5,0,1,0,33,12,1.5,1.5,0,0,0,31.5,10.5ZM36,6a1.5,1.5,0,1,0,1.5,1.5A1.5,1.5,0,0,0,36,6Z" transform="translate(3133 1017.5)" fill="#015294"/><path d="M39,30a3,3,0,0,1-3-3H18a3,3,0,1,1-1.993-2.826l8.827-4.668-8.5-4.5H12.389a5.9,5.9,0,0,1-3.44-1.105L1.28,8.431A3.081,3.081,0,0,1,0,5.923V3.77A2.01,2.01,0,0,1,1.987,1.742a1.949,1.949,0,0,1,1.085.33L13.5,9.016H21V1.555A1.518,1.518,0,0,1,22.5.024h18A1.518,1.518,0,0,1,42,1.555V9.016h3.061a3,3,0,0,1,0,6h-7.4l-8.5,4.5,8.825,4.668A3,3,0,1,1,39,30ZM27,20.654,17.834,25.5H36.161Zm-6.333-5.642h0L27,18.363l6.333-3.351ZM36,3.021V9.016h3V3.021Zm-6,0V9.016h3V3.021Zm-6,0V9.016h3V3.021Zm-10.5,4.5h0l-9-5.995A5.145,5.145,0,0,1,11.014.869l1.968,1.309a3.49,3.49,0,0,1,.981,4.763,3.4,3.4,0,0,1-.463.578Z" transform="translate(3237 1026.5)" fill="#015294"/><path d="M40.5,48H1.5A1.5,1.5,0,0,1,0,46.5l0-45A1.5,1.5,0,0,1,1.5,0h39A1.5,1.5,0,0,1,42,1.5v45A1.5,1.5,0,0,1,40.5,48Zm-6.75-6a.751.751,0,0,0-.75.75v1.5a.751.751,0,0,0,.75.75h3a.751.751,0,0,0,.75-.75v-1.5a.751.751,0,0,0-.75-.75Zm-6,0a.751.751,0,0,0-.75.75v1.5a.751.751,0,0,0,.75.75h3a.751.751,0,0,0,.751-.75v-1.5A.751.751,0,0,0,30.75,42ZM5.25,42a.751.751,0,0,0-.75.75v1.5a.751.751,0,0,0,.75.75h13.5a.751.751,0,0,0,.75-.75v-1.5a.751.751,0,0,0-.75-.75ZM4.5,24V36h33V24H33.8a1.49,1.49,0,0,1-1.246-.669L30,19.5,27.327,31.537A1.859,1.859,0,0,1,25.5,33a1.793,1.793,0,0,1-1.767-1.477L21,16.5,18.325,28.537A1.88,1.88,0,0,1,16.5,30a1.922,1.922,0,0,1-1.865-1.454L12,18l-2.586,5.17A1.493,1.493,0,0,1,8.073,24ZM21,9a1.765,1.765,0,0,1,1.747,1.477L25.5,27l2.635-10.544A1.922,1.922,0,0,1,30,15a2.444,2.444,0,0,1,2.171,1.344l1.914,3.829A1.49,1.49,0,0,0,35.427,21H37.5V6H4.5V21H5.977a2.24,2.24,0,0,0,2.089-1.414l1.878-4.692A2.2,2.2,0,0,1,12,13.5a2,2,0,0,1,1.914,1.444L16.5,24,19.207,10.47A1.832,1.832,0,0,1,21,9Z" transform="translate(3344 1017.5)" fill="#015294"/><path d="M40.5,48A4.5,4.5,0,0,1,39,39.256V30H26.23A13.5,13.5,0,0,1,3.954,44.046,13.5,13.5,0,0,1,13.5,21a13.782,13.782,0,0,1,1.5.081V7.5a3,3,0,0,0-3-3H9v.75A.751.751,0,0,1,8.251,6h-4.5A.751.751,0,0,1,3,5.25V.75A.751.751,0,0,1,3.749,0h4.5A.751.751,0,0,1,9,.75V1.5h3a6.006,6.006,0,0,1,6,6V12H36a6.007,6.007,0,0,1,6,6V33h5.25a.752.752,0,0,1,.752.751v1.5a.752.752,0,0,1-.752.751H42v3.255A4.5,4.5,0,0,1,40.5,48Zm-27-24A10.5,10.5,0,1,0,24,34.5,10.511,10.511,0,0,0,13.5,24ZM18,15v4.5H39V18a3,3,0,0,0-3-3ZM13.5,42A7.5,7.5,0,1,1,21,34.5,7.508,7.508,0,0,1,13.5,42Z" transform="translate(3445 1017.5)" fill="#015294"/><path d="M43,36H7L0,32V24.255L10,29.8V18.912a1.5,1.5,0,0,1,3,0V29.8h3V17.362a1.5,1.5,0,1,1,3,0V29.8h3V18.912a1.5,1.5,0,0,1,3,0V29.8h3V17.362a1.5,1.5,0,1,1,3,0V29.8h3V18.912a1.5,1.5,0,0,1,3,0V29.8h3V17.362a1.5,1.5,0,1,1,3,0V29.8a3,3,0,0,1,3,3V33A3,3,0,0,1,43,36ZM9.252,15.934a.751.751,0,0,1-.751-.75V10.012a7.919,7.919,0,0,1,3.75-6.735A12.241,12.241,0,0,1,20.37,1.553l13.76,1.9a12.316,12.316,0,0,0,1.67.114A12.24,12.24,0,0,0,42.25,1.727L44.856.113A.735.735,0,0,1,45.25,0,.751.751,0,0,1,46,.75V5.672a8.786,8.786,0,0,1-3.749,7.195,11.627,11.627,0,0,1-6.689,2.105,11.713,11.713,0,0,1-1.593-.109L20.225,12.968a13.042,13.042,0,0,0-7.973,1.448L9.608,15.844A.745.745,0,0,1,9.252,15.934Z" transform="translate(3550 1023.5)" fill="#015294"/><path d="M27.858,48a3.111,3.111,0,0,1-2.146-.846,3.047,3.047,0,0,1-.362-.409l-20.6-28a8.853,8.853,0,0,1-1.282-8.023L5.446,4.759A6.118,6.118,0,0,1,10.156.7,37.9,37.9,0,0,1,17.014,0,37.868,37.868,0,0,1,23.87.7a6.125,6.125,0,0,1,4.713,4.055L30.59,10.81a8.844,8.844,0,0,1,.349,4.089,8.94,8.94,0,0,1-1.547,3.817l-4.885,6.872-6-7.527,4.2-5.626a1.469,1.469,0,0,0,.293-.883v-.266a1.2,1.2,0,0,0-.724-1.094,13.029,13.029,0,0,0-5.269-1.162,13.046,13.046,0,0,0-5.27,1.162,1.2,1.2,0,0,0-.724,1.094v.24a1.481,1.481,0,0,0,.326.919L33.353,40.083a2.958,2.958,0,0,1-.224,3.933l-3.054,3.071A3.107,3.107,0,0,1,27.858,48ZM6.039,47.871a3.1,3.1,0,0,1-2.216-.913L.87,43.992a2.948,2.948,0,0,1-.249-3.9L9.523,28.6l5.993,7.529L8.633,46.5a3.026,3.026,0,0,1-.444.524A3.113,3.113,0,0,1,6.039,47.871Z" transform="translate(3660 1017.5)" fill="#015294"/><path d="M12.987,48A1.084,1.084,0,0,1,11.9,46.929V37.174c.379.033.761.059,1.149.056.356,0,.708-.027,1.057-.056v9.754A1.084,1.084,0,0,1,13.01,48ZM14.1,30.623l4.218-2.9a.961.961,0,0,0,.24-1.354,1,1,0,0,0-1.38-.239L14.1,28.247v-4.2l4.218-2.9a.964.964,0,0,0,.24-1.356,1,1,0,0,0-1.38-.239L14.1,21.666v-4.2l4.218-2.9a.962.962,0,0,0,.24-1.354,1,1,0,0,0-1.38-.239L14.1,15.086V7.54A1.084,1.084,0,0,0,13.01,6.469h-.023A1.084,1.084,0,0,0,11.9,7.54v7.546l-3.077-2.12a1,1,0,0,0-1.38.239.959.959,0,0,0,.24,1.354l4.216,2.9v4.2L8.818,19.547a1,1,0,0,0-1.38.239.962.962,0,0,0,.24,1.356l4.216,2.9v4.2L8.818,26.127a1,1,0,0,0-1.38.239.958.958,0,0,0,.24,1.354l4.216,2.9v6.549A13.14,13.14,0,0,1,0,23.846C.283,10.734,9.266,2.561,12.129.284a1.315,1.315,0,0,1,1.692.049C16.681,2.881,26,12.132,26,24.474a12.852,12.852,0,0,1-11.9,12.7Z" transform="translate(3768 1017.5)" fill="#015294"/></g></svg>