<svg xmlns="http://www.w3.org/2000/svg" width="775" height="201" viewBox="0 0 775 201"><g transform="translate(-3081 -965.5)"><rect width="775" height="201" rx="4" transform="translate(3081 965.5)" fill="#d9e1e8"/><path d="M-19.47,0l-.518-1.7h-2.6L-23.108,0h-1.631l2.52-7.168h1.851L-17.839,0Zm-.879-2.969q-.718-2.31-.808-2.612t-.129-.479q-.161.625-.923,3.091Zm6.24-3.013a1.542,1.542,0,0,0-1.323.642A2.987,2.987,0,0,0-15.9-3.55q0,2.388,1.792,2.388a5.665,5.665,0,0,0,1.821-.376v1.27A5.058,5.058,0,0,1-14.25.1a2.994,2.994,0,0,1-2.383-.945,4,4,0,0,1-.825-2.712,4.429,4.429,0,0,1,.405-1.951,2.929,2.929,0,0,1,1.165-1.284,3.445,3.445,0,0,1,1.78-.447,4.8,4.8,0,0,1,2.09.5l-.488,1.23a8.082,8.082,0,0,0-.806-.332A2.4,2.4,0,0,0-14.109-5.981Zm6.172,0a1.542,1.542,0,0,0-1.323.642,2.987,2.987,0,0,0-.469,1.79q0,2.388,1.792,2.388a5.665,5.665,0,0,0,1.821-.376v1.27A5.058,5.058,0,0,1-8.079.1a2.994,2.994,0,0,1-2.383-.945,4,4,0,0,1-.825-2.712,4.429,4.429,0,0,1,.405-1.951A2.929,2.929,0,0,1-9.717-6.794a3.445,3.445,0,0,1,1.78-.447,4.8,4.8,0,0,1,2.09.5l-.488,1.23a8.083,8.083,0,0,0-.806-.332A2.4,2.4,0,0,0-7.937-5.981ZM-4.6,0V-7.139h1.514V0ZM4.636-3.638a3.515,3.515,0,0,1-1,2.7A4.092,4.092,0,0,1,.735,0H-1.287V-7.139H.955a3.774,3.774,0,0,1,2.715.923A3.4,3.4,0,0,1,4.636-3.638ZM3.064-3.6q0-2.3-2.031-2.3H.227V-1.25H.876Q3.064-1.25,3.064-3.6ZM10.227,0H6.116V-7.139h4.111V-5.9h-2.6v1.567h2.417v1.24H7.629V-1.25h2.6Zm7.822,0H16.125L13.02-5.4h-.044q.093,1.431.093,2.041V0H11.716V-7.139h1.909l3.1,5.347h.034q-.073-1.392-.073-1.968V-7.139h1.362ZM22.6,0H21.086V-5.879H19.148v-1.26h5.391v1.26H22.6Z" transform="translate(3157 1117.5)" fill="#015294"/><path d="M-17.427,0h-1.509V-3.081h-2.827V0h-1.514V-7.139h1.514v2.8h2.827v-2.8h1.509Zm8.281-3.579a3.874,3.874,0,0,1-.879,2.725A3.258,3.258,0,0,1-12.544.1a3.258,3.258,0,0,1-2.52-.952,3.889,3.889,0,0,1-.879-2.734,3.836,3.836,0,0,1,.881-2.722,3.3,3.3,0,0,1,2.527-.94,3.25,3.25,0,0,1,2.517.947A3.884,3.884,0,0,1-9.146-3.579Zm-5.21,0a2.982,2.982,0,0,0,.454,1.8,1.589,1.589,0,0,0,1.357.605q1.812,0,1.812-2.407t-1.8-2.412a1.6,1.6,0,0,0-1.362.608A2.969,2.969,0,0,0-14.355-3.579Zm10.9,1.6a1.845,1.845,0,0,1-.7,1.523A3.023,3.023,0,0,1-6.084.1a4.547,4.547,0,0,1-2.021-.43V-1.738a8.33,8.33,0,0,0,1.223.454,3.619,3.619,0,0,0,.916.132,1.3,1.3,0,0,0,.764-.19.651.651,0,0,0,.266-.566.625.625,0,0,0-.117-.374A1.311,1.311,0,0,0-5.4-2.6a8.854,8.854,0,0,0-.925-.483A4.386,4.386,0,0,1-7.3-3.672a2.218,2.218,0,0,1-.522-.659,1.881,1.881,0,0,1-.2-.879A1.845,1.845,0,0,1-7.38-6.7a2.668,2.668,0,0,1,1.775-.542,4.191,4.191,0,0,1,1.062.132,7.3,7.3,0,0,1,1.057.371l-.488,1.177a7.144,7.144,0,0,0-.945-.327,3.041,3.041,0,0,0-.735-.093.973.973,0,0,0-.659.2.66.66,0,0,0-.229.522.647.647,0,0,0,.093.349,1.02,1.02,0,0,0,.3.288,9.134,9.134,0,0,0,.959.5,3.818,3.818,0,0,1,1.372.959A1.873,1.873,0,0,1-3.452-1.982Zm2.808-1.8h.5A1.659,1.659,0,0,0,.9-4.055a.966.966,0,0,0,.347-.8.99.99,0,0,0-.291-.786A1.361,1.361,0,0,0,.044-5.9H-.645ZM2.773-4.912a2.182,2.182,0,0,1-.72,1.763A3.08,3.08,0,0,1,0-2.539H-.645V0H-2.158V-7.139H.122A3.033,3.033,0,0,1,2.1-6.58,2.039,2.039,0,0,1,2.773-4.912ZM4.121,0V-7.139H5.635V0Zm6.064,0H8.672V-5.879H6.733v-1.26h5.391v1.26H10.186Zm6.709,0-.518-1.7h-2.6L13.257,0H11.626l2.52-7.168H16L18.525,0Zm-.879-2.969q-.718-2.31-.808-2.612t-.129-.479q-.161.625-.923,3.091ZM19.424,0V-7.139h1.514V-1.25h2.9V0Zm-47.2,14V6.861h1.514V14Zm9.644,0h-1.924l-3.105-5.4H-23.2q.093,1.431.093,2.041V14h-1.353V6.861h1.909l3.1,5.347h.034q-.073-1.392-.073-1.968V6.861h1.362Zm7.72-3.638a3.515,3.515,0,0,1-1,2.7,4.092,4.092,0,0,1-2.9.938h-2.021V6.861h2.241a3.774,3.774,0,0,1,2.715.923A3.4,3.4,0,0,1-10.41,10.362Zm-1.572.039q0-2.3-2.031-2.3h-.806V12.75h.649Q-11.982,12.75-11.982,10.4ZM-4.819,14H-8.931V6.861h4.111V8.1h-2.6V9.669H-5v1.24H-7.417V12.75h2.6Zm4.512,0L-2.026,8.4H-2.07q.093,1.709.093,2.28V14H-3.33V6.861H-1.27L.42,12.32H.449L2.241,6.861H4.3V14H2.891V10.621q0-.239.007-.552t.066-1.66H2.92L1.079,14Zm12.739,0H10.508L7.4,8.6H7.358q.093,1.431.093,2.041V14H6.1V6.861H8.008l3.1,5.347h.034q-.073-1.392-.073-1.968V6.861h1.362Zm1.8,0V6.861h1.514V14Zm6.064,0H18.779V8.121H16.841V6.861h5.391v1.26H20.293Zm5.259-4.2,1.489-2.939h1.631L26.3,11.222V14H24.8V11.271L22.432,6.861h1.641Z" transform="translate(3261 1117.5)" fill="#015294"/><path d="M-39.2-5.981a1.542,1.542,0,0,0-1.323.642,2.987,2.987,0,0,0-.469,1.79q0,2.388,1.792,2.388a5.665,5.665,0,0,0,1.821-.376v1.27A5.058,5.058,0,0,1-39.341.1a2.994,2.994,0,0,1-2.383-.945,4,4,0,0,1-.825-2.712,4.429,4.429,0,0,1,.405-1.951,2.929,2.929,0,0,1,1.165-1.284,3.445,3.445,0,0,1,1.78-.447,4.8,4.8,0,0,1,2.09.5l-.488,1.23A8.082,8.082,0,0,0-38.4-5.84,2.4,2.4,0,0,0-39.2-5.981Zm4.854,2.012h.488a1.868,1.868,0,0,0,1.06-.239.854.854,0,0,0,.342-.752.781.781,0,0,0-.349-.723A2.119,2.119,0,0,0-33.887-5.9h-.459Zm0,1.23V0h-1.514V-7.139h2.08a3.56,3.56,0,0,1,2.153.53A1.891,1.891,0,0,1-30.928-5a1.894,1.894,0,0,1-.347,1.121,2.294,2.294,0,0,1-.981.769Q-30.645-.7-30.156,0h-1.68l-1.7-2.739ZM-29.258,0V-7.139h1.514V0Zm6.064,0h-1.514V-5.879h-1.938v-1.26h5.391v1.26h-1.938Zm3.037,0V-7.139h1.514V0Zm6.343-5.981a1.542,1.542,0,0,0-1.323.642,2.987,2.987,0,0,0-.469,1.79q0,2.388,1.792,2.388a5.665,5.665,0,0,0,1.821-.376v1.27A5.058,5.058,0,0,1-13.955.1a2.994,2.994,0,0,1-2.383-.945,4,4,0,0,1-.825-2.712,4.429,4.429,0,0,1,.405-1.951,2.929,2.929,0,0,1,1.165-1.284,3.445,3.445,0,0,1,1.78-.447,4.8,4.8,0,0,1,2.09.5l-.488,1.23a8.082,8.082,0,0,0-.806-.332A2.4,2.4,0,0,0-13.813-5.981ZM-6.1,0l-.518-1.7h-2.6L-9.741,0h-1.631l2.52-7.168H-7L-4.473,0Zm-.879-2.969q-.718-2.31-.808-2.612T-7.92-6.06q-.161.625-.923,3.091ZM-3.574,0V-7.139h1.514V-1.25h2.9V0ZM4.673,0V-7.139H6.187V0ZM7.983,0V-7.139H9.5V-1.25h2.9V0Zm5.649,0V-7.139h1.514V-1.25h2.9V0ZM25.615,0H23.691L20.586-5.4h-.044q.093,1.431.093,2.041V0H19.282V-7.139h1.909l3.1,5.347h.034q-.073-1.392-.073-1.968V-7.139h1.362Zm5.908,0H27.412V-7.139h4.111V-5.9h-2.6v1.567h2.417v1.24H28.926V-1.25h2.6Zm5.7-1.982a1.845,1.845,0,0,1-.7,1.523A3.023,3.023,0,0,1,34.595.1a4.547,4.547,0,0,1-2.021-.43V-1.738a8.33,8.33,0,0,0,1.223.454,3.619,3.619,0,0,0,.916.132,1.3,1.3,0,0,0,.764-.19.651.651,0,0,0,.266-.566.625.625,0,0,0-.117-.374,1.311,1.311,0,0,0-.344-.315,8.853,8.853,0,0,0-.925-.483,4.386,4.386,0,0,1-.981-.591,2.218,2.218,0,0,1-.522-.659,1.881,1.881,0,0,1-.2-.879A1.845,1.845,0,0,1,33.3-6.7a2.668,2.668,0,0,1,1.775-.542,4.191,4.191,0,0,1,1.062.132,7.3,7.3,0,0,1,1.057.371L36.7-5.562a7.144,7.144,0,0,0-.945-.327,3.041,3.041,0,0,0-.735-.093.973.973,0,0,0-.659.2.66.66,0,0,0-.229.522.647.647,0,0,0,.093.349,1.02,1.02,0,0,0,.3.288,9.134,9.134,0,0,0,.959.5,3.818,3.818,0,0,1,1.372.959A1.873,1.873,0,0,1,37.227-1.982Zm5.508,0a1.845,1.845,0,0,1-.7,1.523A3.023,3.023,0,0,1,40.1.1a4.547,4.547,0,0,1-2.021-.43V-1.738a8.33,8.33,0,0,0,1.223.454,3.619,3.619,0,0,0,.916.132,1.3,1.3,0,0,0,.764-.19.651.651,0,0,0,.266-.566.625.625,0,0,0-.117-.374,1.311,1.311,0,0,0-.344-.315,8.853,8.853,0,0,0-.925-.483,4.386,4.386,0,0,1-.981-.591,2.218,2.218,0,0,1-.522-.659,1.881,1.881,0,0,1-.2-.879A1.845,1.845,0,0,1,38.806-6.7a2.668,2.668,0,0,1,1.775-.542,4.191,4.191,0,0,1,1.062.132,7.3,7.3,0,0,1,1.057.371l-.488,1.177a7.144,7.144,0,0,0-.945-.327,3.041,3.041,0,0,0-.735-.093.973.973,0,0,0-.659.2.66.66,0,0,0-.229.522.647.647,0,0,0,.093.349,1.02,1.02,0,0,0,.3.288,9.134,9.134,0,0,0,.959.5,3.818,3.818,0,0,1,1.372.959A1.873,1.873,0,0,1,42.734-1.982Z" transform="translate(3365 1117.5)" fill="#015294"/><path d="M-20.249-3.638a3.515,3.515,0,0,1-1,2.7A4.092,4.092,0,0,1-24.15,0h-2.021V-7.139h2.241a3.774,3.774,0,0,1,2.715.923A3.4,3.4,0,0,1-20.249-3.638Zm-1.572.039q0-2.3-2.031-2.3h-.806V-1.25h.649Q-21.821-1.25-21.821-3.6ZM-18.77,0V-7.139h1.514V0Zm7.524-1.982a1.845,1.845,0,0,1-.7,1.523A3.023,3.023,0,0,1-13.877.1,4.547,4.547,0,0,1-15.9-.332V-1.738a8.33,8.33,0,0,0,1.223.454,3.619,3.619,0,0,0,.916.132A1.3,1.3,0,0,0-13-1.343a.651.651,0,0,0,.266-.566.625.625,0,0,0-.117-.374,1.311,1.311,0,0,0-.344-.315,8.853,8.853,0,0,0-.925-.483,4.386,4.386,0,0,1-.981-.591,2.218,2.218,0,0,1-.522-.659,1.881,1.881,0,0,1-.2-.879A1.845,1.845,0,0,1-15.173-6.7,2.668,2.668,0,0,1-13.4-7.241a4.191,4.191,0,0,1,1.062.132,7.3,7.3,0,0,1,1.057.371l-.488,1.177a7.144,7.144,0,0,0-.945-.327,3.041,3.041,0,0,0-.735-.093.973.973,0,0,0-.659.2.66.66,0,0,0-.229.522.647.647,0,0,0,.093.349,1.02,1.02,0,0,0,.3.288,9.134,9.134,0,0,0,.959.5,3.818,3.818,0,0,1,1.372.959A1.873,1.873,0,0,1-11.245-1.982ZM-5.581,0-6.1-1.7H-8.7L-9.219,0H-10.85l2.52-7.168h1.851L-3.95,0ZM-6.46-2.969q-.718-2.31-.808-2.612T-7.4-6.06q-.161.625-.923,3.091Zm3.408-4.17H-.83a4.281,4.281,0,0,1,2.2.432,1.5,1.5,0,0,1,.686,1.375,1.732,1.732,0,0,1-.3,1.05,1.2,1.2,0,0,1-.8.493v.049a1.573,1.573,0,0,1,.979.566,1.843,1.843,0,0,1,.3,1.1A1.818,1.818,0,0,1,1.536-.547,3.052,3.052,0,0,1-.381,0H-3.052Zm1.514,2.827h.879A1.607,1.607,0,0,0,.232-4.5a.71.71,0,0,0,.276-.63.63.63,0,0,0-.3-.588A1.93,1.93,0,0,0-.742-5.9h-.8Zm0,1.2v1.86h.986a1.463,1.463,0,0,0,.923-.239.883.883,0,0,0,.3-.732q0-.889-1.27-.889ZM3.667,0V-7.139H5.181V0ZM6.978,0V-7.139H8.491V-1.25h2.9V0Zm5.649,0V-7.139h1.514V0Zm6.064,0H17.178V-5.879H15.239v-1.26H20.63v1.26H18.691ZM23.95-4.2l1.489-2.939H27.07L24.7-2.778V0H23.2V-2.729L20.83-7.139h1.641Z" transform="translate(3469 1117.5)" fill="#015294"/><path d="M-12.566-3.638a3.515,3.515,0,0,1-1,2.7,4.092,4.092,0,0,1-2.9.938h-2.021V-7.139h2.241a3.774,3.774,0,0,1,2.715.923A3.4,3.4,0,0,1-12.566-3.638Zm-1.572.039q0-2.3-2.031-2.3h-.806V-1.25h.649Q-14.138-1.25-14.138-3.6ZM-6.975,0h-4.111V-7.139h4.111V-5.9h-2.6v1.567h2.417v1.24H-9.573V-1.25h2.6ZM.847,0H-1.077L-4.182-5.4h-.044q.093,1.431.093,2.041V0H-5.486V-7.139h1.909l3.1,5.347h.034Q-.515-3.184-.515-3.76V-7.139H.847ZM5.4,0H3.884V-5.879H1.946v-1.26H7.336v1.26H5.4Zm6.709,0-.518-1.7h-2.6L8.469,0H6.838l2.52-7.168h1.851L13.738,0Zm-.879-2.969q-.718-2.31-.808-2.612t-.129-.479q-.161.625-.923,3.091ZM14.636,0V-7.139H16.15V-1.25h2.9V0ZM-14.907,14h-1.841l-.562-.552a3.6,3.6,0,0,1-2.109.649,2.985,2.985,0,0,1-1.89-.547,1.78,1.78,0,0,1-.7-1.479,2.1,2.1,0,0,1,.3-1.14A2.8,2.8,0,0,1-20.7,10.05a3.167,3.167,0,0,1-.532-.8,2.084,2.084,0,0,1-.166-.837,1.456,1.456,0,0,1,.569-1.2,2.368,2.368,0,0,1,1.521-.454,2.307,2.307,0,0,1,1.453.422,1.358,1.358,0,0,1,.544,1.13,1.81,1.81,0,0,1-.337,1.062,3.348,3.348,0,0,1-1.089.916l1.387,1.353a6,6,0,0,0,.6-1.47H-15.2a7.035,7.035,0,0,1-.483,1.287,5.871,5.871,0,0,1-.7,1.111Zm-5.532-2.07a.809.809,0,0,0,.315.669,1.263,1.263,0,0,0,.808.249,2.1,2.1,0,0,0,1.108-.3l-1.621-1.611a2.042,2.042,0,0,0-.447.449A.923.923,0,0,0-20.439,11.93Zm1.753-3.462a.506.506,0,0,0-.176-.408.678.678,0,0,0-.454-.149.782.782,0,0,0-.515.156.545.545,0,0,0-.188.444,1.494,1.494,0,0,0,.464.947A2.9,2.9,0,0,0-18.911,9,.73.73,0,0,0-18.687,8.468ZM-7.339,6.861h1.528L-8.237,14h-1.65L-12.31,6.861h1.528l1.343,4.248q.112.376.232.876t.149.7a12.507,12.507,0,0,1,.366-1.572ZM-4.912,14V6.861H-3.4V14Zm7.524-1.982a1.845,1.845,0,0,1-.7,1.523A3.023,3.023,0,0,1-.02,14.1a4.547,4.547,0,0,1-2.021-.43V12.262a8.33,8.33,0,0,0,1.223.454,3.619,3.619,0,0,0,.916.132,1.3,1.3,0,0,0,.764-.19.651.651,0,0,0,.266-.566.625.625,0,0,0-.117-.374A1.311,1.311,0,0,0,.667,11.4a8.854,8.854,0,0,0-.925-.483,4.386,4.386,0,0,1-.981-.591,2.218,2.218,0,0,1-.522-.659,1.881,1.881,0,0,1-.2-.879A1.845,1.845,0,0,1-1.316,7.3,2.668,2.668,0,0,1,.459,6.759a4.191,4.191,0,0,1,1.062.132,7.3,7.3,0,0,1,1.057.371L2.09,8.438a7.144,7.144,0,0,0-.945-.327A3.041,3.041,0,0,0,.41,8.019a.973.973,0,0,0-.659.2.66.66,0,0,0-.229.522.647.647,0,0,0,.093.349,1.02,1.02,0,0,0,.3.288,9.134,9.134,0,0,0,.959.5,3.818,3.818,0,0,1,1.372.959A1.873,1.873,0,0,1,2.612,12.018ZM3.906,14V6.861H5.42V14Zm9.79-3.579a3.874,3.874,0,0,1-.879,2.725,3.258,3.258,0,0,1-2.52.952,3.258,3.258,0,0,1-2.52-.952A3.889,3.889,0,0,1,6.9,10.411a3.836,3.836,0,0,1,.881-2.722,3.3,3.3,0,0,1,2.527-.94,3.25,3.25,0,0,1,2.517.947A3.884,3.884,0,0,1,13.7,10.421Zm-5.21,0a2.982,2.982,0,0,0,.454,1.8,1.589,1.589,0,0,0,1.357.605q1.812,0,1.812-2.407t-1.8-2.412a1.6,1.6,0,0,0-1.362.608A2.969,2.969,0,0,0,8.486,10.421ZM21.509,14H19.585L16.479,8.6h-.044q.093,1.431.093,2.041V14H15.176V6.861h1.909l3.1,5.347h.034q-.073-1.392-.073-1.968V6.861h1.362Z" transform="translate(3573 1117.5)" fill="#015294"/><path d="M-16.057-5.981a1.542,1.542,0,0,0-1.323.642,2.987,2.987,0,0,0-.469,1.79q0,2.388,1.792,2.388a5.665,5.665,0,0,0,1.821-.376v1.27A5.058,5.058,0,0,1-16.2.1a2.994,2.994,0,0,1-2.383-.945,4,4,0,0,1-.825-2.712A4.429,4.429,0,0,1-19-5.51a2.929,2.929,0,0,1,1.165-1.284,3.445,3.445,0,0,1,1.78-.447,4.8,4.8,0,0,1,2.09.5l-.488,1.23a8.082,8.082,0,0,0-.806-.332A2.4,2.4,0,0,0-16.057-5.981ZM-8.347,0l-.518-1.7h-2.6L-11.985,0h-1.631l2.52-7.168h1.851L-6.716,0Zm-.879-2.969q-.718-2.31-.808-2.612t-.129-.479q-.161.625-.923,3.091ZM.515,0H-1.409L-4.514-5.4h-.044q.093,1.431.093,2.041V0H-5.818V-7.139h1.909l3.1,5.347h.034Q-.847-3.184-.847-3.76V-7.139H.515ZM5.344-5.981a1.542,1.542,0,0,0-1.323.642,2.987,2.987,0,0,0-.469,1.79q0,2.388,1.792,2.388a5.665,5.665,0,0,0,1.821-.376v1.27A5.058,5.058,0,0,1,5.2.1,2.994,2.994,0,0,1,2.82-.847,4,4,0,0,1,1.995-3.56,4.429,4.429,0,0,1,2.4-5.51,2.929,2.929,0,0,1,3.564-6.794a3.445,3.445,0,0,1,1.78-.447,4.8,4.8,0,0,1,2.09.5l-.488,1.23A8.083,8.083,0,0,0,6.14-5.84,2.4,2.4,0,0,0,5.344-5.981ZM12.8,0H8.684V-7.139H12.8V-5.9H10.2v1.567h2.417v1.24H10.2V-1.25h2.6Zm3-3.97h.488a1.868,1.868,0,0,0,1.06-.239.854.854,0,0,0,.342-.752.781.781,0,0,0-.349-.723A2.119,2.119,0,0,0,16.257-5.9H15.8Zm0,1.23V0H14.285V-7.139h2.08a3.56,3.56,0,0,1,2.153.53A1.891,1.891,0,0,1,19.216-5a1.894,1.894,0,0,1-.347,1.121,2.294,2.294,0,0,1-.981.769Q19.5-.7,19.988,0h-1.68L16.6-2.739Z" transform="translate(3677 1117.5)" fill="#015294"/><path d="M-9.126,0V-7.139h1.514V-1.25h2.9V0Zm5.649,0V-7.139h1.514V0Zm4.8,0H-.166V-7.139H3.926V-5.9h-2.6v1.841H3.745v1.235H1.323Zm8.11,0H5.322V-7.139H9.434V-5.9h-2.6v1.567H9.253v1.24H6.836V-1.25h2.6Z" transform="translate(3781 1117.5)" fill="#015294"/><rect width="88" height="88" rx="8" transform="translate(3113 997.5)" fill="#fff"/><rect width="88" height="88" rx="8" transform="translate(3217 997.5)" fill="#fff"/><rect width="88" height="88" rx="8" transform="translate(3321 997.5)" fill="#fff"/><rect width="88" height="88" rx="8" transform="translate(3425 997.5)" fill="#fff"/><rect width="88" height="88" rx="8" transform="translate(3529 997.5)" fill="#fff"/><rect width="88" height="88" rx="8" transform="translate(3633 997.5)" fill="#fff"/><rect width="88" height="88" rx="8" transform="translate(3737 997.5)" fill="#fff"/><path d="M36,48a3.591,3.591,0,0,1-2.56-1.06L24,37.5,14.559,46.94A3.636,3.636,0,0,1,12,48,12,12,0,0,1,0,36a3.646,3.646,0,0,1,1.06-2.56L10.5,24,1.06,14.562A3.655,3.655,0,0,1,0,12,12,12,0,0,1,12,0a3.636,3.636,0,0,1,2.56,1.06L24,10.5,33.44,1.06A3.591,3.591,0,0,1,36,0,12,12,0,0,1,48,12a3.648,3.648,0,0,1-1.06,2.562L37.5,24,46.94,33.44A3.591,3.591,0,0,1,48,36,12,12,0,0,1,36,48ZM12,39a1.5,1.5,0,1,0,1.5,1.5A1.5,1.5,0,0,0,12,39Zm4.5-4.5A1.5,1.5,0,1,0,18,36,1.5,1.5,0,0,0,16.5,34.5Zm-9,0A1.5,1.5,0,1,0,9,36,1.5,1.5,0,0,0,7.5,34.5ZM12,30a1.5,1.5,0,1,0,1.5,1.5A1.5,1.5,0,0,0,12,30ZM24,15.31a.753.753,0,0,0-.532.22l-7.937,7.942a.747.747,0,0,0,0,1.06l7.937,7.939a.753.753,0,0,0,1.063,0l7.939-7.939a.75.75,0,0,0,0-1.06L24.531,15.53A.749.749,0,0,0,24,15.31ZM36,15a1.5,1.5,0,1,0,1.5,1.5A1.5,1.5,0,0,0,36,15Zm4.5-4.5A1.5,1.5,0,1,0,42,12,1.5,1.5,0,0,0,40.5,10.5Zm-9,0A1.5,1.5,0,1,0,33,12,1.5,1.5,0,0,0,31.5,10.5ZM36,6a1.5,1.5,0,1,0,1.5,1.5A1.5,1.5,0,0,0,36,6Z" transform="translate(3133 1017.5)" fill="#015294"/><path d="M39,30a3,3,0,0,1-3-3H18a3,3,0,1,1-1.993-2.826l8.827-4.668-8.5-4.5H12.389a5.9,5.9,0,0,1-3.44-1.105L1.28,8.431A3.081,3.081,0,0,1,0,5.923V3.77A2.01,2.01,0,0,1,1.987,1.742a1.949,1.949,0,0,1,1.085.33L13.5,9.016H21V1.555A1.518,1.518,0,0,1,22.5.024h18A1.518,1.518,0,0,1,42,1.555V9.016h3.061a3,3,0,0,1,0,6h-7.4l-8.5,4.5,8.825,4.668A3,3,0,1,1,39,30ZM27,20.654,17.834,25.5H36.161Zm-6.333-5.642h0L27,18.363l6.333-3.351ZM36,3.021V9.016h3V3.021Zm-6,0V9.016h3V3.021Zm-6,0V9.016h3V3.021Zm-10.5,4.5h0l-9-5.995A5.145,5.145,0,0,1,11.014.869l1.968,1.309a3.49,3.49,0,0,1,.981,4.763,3.4,3.4,0,0,1-.463.578Z" transform="translate(3237 1026.5)" fill="#015294"/><path d="M40.5,48H1.5A1.5,1.5,0,0,1,0,46.5l0-45A1.5,1.5,0,0,1,1.5,0h39A1.5,1.5,0,0,1,42,1.5v45A1.5,1.5,0,0,1,40.5,48Zm-6.75-6a.751.751,0,0,0-.75.75v1.5a.751.751,0,0,0,.75.75h3a.751.751,0,0,0,.75-.75v-1.5a.751.751,0,0,0-.75-.75Zm-6,0a.751.751,0,0,0-.75.75v1.5a.751.751,0,0,0,.75.75h3a.751.751,0,0,0,.751-.75v-1.5A.751.751,0,0,0,30.75,42ZM5.25,42a.751.751,0,0,0-.75.75v1.5a.751.751,0,0,0,.75.75h13.5a.751.751,0,0,0,.75-.75v-1.5a.751.751,0,0,0-.75-.75ZM4.5,24V36h33V24H33.8a1.49,1.49,0,0,1-1.246-.669L30,19.5,27.327,31.537A1.859,1.859,0,0,1,25.5,33a1.793,1.793,0,0,1-1.767-1.477L21,16.5,18.325,28.537A1.88,1.88,0,0,1,16.5,30a1.922,1.922,0,0,1-1.865-1.454L12,18l-2.586,5.17A1.493,1.493,0,0,1,8.073,24ZM21,9a1.765,1.765,0,0,1,1.747,1.477L25.5,27l2.635-10.544A1.922,1.922,0,0,1,30,15a2.444,2.444,0,0,1,2.171,1.344l1.914,3.829A1.49,1.49,0,0,0,35.427,21H37.5V6H4.5V21H5.977a2.24,2.24,0,0,0,2.089-1.414l1.878-4.692A2.2,2.2,0,0,1,12,13.5a2,2,0,0,1,1.914,1.444L16.5,24,19.207,10.47A1.832,1.832,0,0,1,21,9Z" transform="translate(3344 1017.5)" fill="#015294"/><path d="M40.5,48A4.5,4.5,0,0,1,39,39.256V30H26.23A13.5,13.5,0,0,1,3.954,44.046,13.5,13.5,0,0,1,13.5,21a13.782,13.782,0,0,1,1.5.081V7.5a3,3,0,0,0-3-3H9v.75A.751.751,0,0,1,8.251,6h-4.5A.751.751,0,0,1,3,5.25V.75A.751.751,0,0,1,3.749,0h4.5A.751.751,0,0,1,9,.75V1.5h3a6.006,6.006,0,0,1,6,6V12H36a6.007,6.007,0,0,1,6,6V33h5.25a.752.752,0,0,1,.752.751v1.5a.752.752,0,0,1-.752.751H42v3.255A4.5,4.5,0,0,1,40.5,48Zm-27-24A10.5,10.5,0,1,0,24,34.5,10.511,10.511,0,0,0,13.5,24ZM18,15v4.5H39V18a3,3,0,0,0-3-3ZM13.5,42A7.5,7.5,0,1,1,21,34.5,7.508,7.508,0,0,1,13.5,42Z" transform="translate(3445 1017.5)" fill="#015294"/><path d="M43,36H7L0,32V24.255L10,29.8V18.912a1.5,1.5,0,0,1,3,0V29.8h3V17.362a1.5,1.5,0,1,1,3,0V29.8h3V18.912a1.5,1.5,0,0,1,3,0V29.8h3V17.362a1.5,1.5,0,1,1,3,0V29.8h3V18.912a1.5,1.5,0,0,1,3,0V29.8h3V17.362a1.5,1.5,0,1,1,3,0V29.8a3,3,0,0,1,3,3V33A3,3,0,0,1,43,36ZM9.252,15.934a.751.751,0,0,1-.751-.75V10.012a7.919,7.919,0,0,1,3.75-6.735A12.241,12.241,0,0,1,20.37,1.553l13.76,1.9a12.316,12.316,0,0,0,1.67.114A12.24,12.24,0,0,0,42.25,1.727L44.856.113A.735.735,0,0,1,45.25,0,.751.751,0,0,1,46,.75V5.672a8.786,8.786,0,0,1-3.749,7.195,11.627,11.627,0,0,1-6.689,2.105,11.713,11.713,0,0,1-1.593-.109L20.225,12.968a13.042,13.042,0,0,0-7.973,1.448L9.608,15.844A.745.745,0,0,1,9.252,15.934Z" transform="translate(3550 1023.5)" fill="#015294"/><path d="M27.858,48a3.111,3.111,0,0,1-2.146-.846,3.047,3.047,0,0,1-.362-.409l-20.6-28a8.853,8.853,0,0,1-1.282-8.023L5.446,4.759A6.118,6.118,0,0,1,10.156.7,37.9,37.9,0,0,1,17.014,0,37.868,37.868,0,0,1,23.87.7a6.125,6.125,0,0,1,4.713,4.055L30.59,10.81a8.844,8.844,0,0,1,.349,4.089,8.94,8.94,0,0,1-1.547,3.817l-4.885,6.872-6-7.527,4.2-5.626a1.469,1.469,0,0,0,.293-.883v-.266a1.2,1.2,0,0,0-.724-1.094,13.029,13.029,0,0,0-5.269-1.162,13.046,13.046,0,0,0-5.27,1.162,1.2,1.2,0,0,0-.724,1.094v.24a1.481,1.481,0,0,0,.326.919L33.353,40.083a2.958,2.958,0,0,1-.224,3.933l-3.054,3.071A3.107,3.107,0,0,1,27.858,48ZM6.039,47.871a3.1,3.1,0,0,1-2.216-.913L.87,43.992a2.948,2.948,0,0,1-.249-3.9L9.523,28.6l5.993,7.529L8.633,46.5a3.026,3.026,0,0,1-.444.524A3.113,3.113,0,0,1,6.039,47.871Z" transform="translate(3660 1017.5)" fill="#015294"/><path d="M12.987,48A1.084,1.084,0,0,1,11.9,46.929V37.174c.379.033.761.059,1.149.056.356,0,.708-.027,1.057-.056v9.754A1.084,1.084,0,0,1,13.01,48ZM14.1,30.623l4.218-2.9a.961.961,0,0,0,.24-1.354,1,1,0,0,0-1.38-.239L14.1,28.247v-4.2l4.218-2.9a.964.964,0,0,0,.24-1.356,1,1,0,0,0-1.38-.239L14.1,21.666v-4.2l4.218-2.9a.962.962,0,0,0,.24-1.354,1,1,0,0,0-1.38-.239L14.1,15.086V7.54A1.084,1.084,0,0,0,13.01,6.469h-.023A1.084,1.084,0,0,0,11.9,7.54v7.546l-3.077-2.12a1,1,0,0,0-1.38.239.959.959,0,0,0,.24,1.354l4.216,2.9v4.2L8.818,19.547a1,1,0,0,0-1.38.239.962.962,0,0,0,.24,1.356l4.216,2.9v4.2L8.818,26.127a1,1,0,0,0-1.38.239.958.958,0,0,0,.24,1.354l4.216,2.9v6.549A13.14,13.14,0,0,1,0,23.846C.283,10.734,9.266,2.561,12.129.284a1.315,1.315,0,0,1,1.692.049C16.681,2.881,26,12.132,26,24.474a12.852,12.852,0,0,1-11.9,12.7Z" transform="translate(3768 1017.5)" fill="#015294"/></g></svg>