<?xml version="1.0" encoding="UTF-8"?>
<svg width="38px" height="38px" viewBox="0 0 38 38" version="1.1" xmlns="http://www.w3.org/2000/svg" xmlns:xlink="http://www.w3.org/1999/xlink">
    <!-- Generator: Sketch 50.2 (55047) - http://www.bohemiancoding.com/sketch -->
    <title>icons/products/401k</title>
    <desc>Created with Sketch.</desc>
    <defs></defs>
    <g id="Icons" stroke="none" stroke-width="1" fill="none" fill-rule="evenodd">
        <g id="icons" transform="translate(-560.000000, -464.000000)" fill="#FFFFFF">
            <g id="icons/products/401k" transform="translate(560.000000, 464.000000)">
                <path d="M17.6895938,7.075125 C15.7355625,7.075125 14.1520313,5.49159375 14.1520313,3.53934375 C14.1520313,1.58353125 15.7355625,0 17.6895938,0 C19.643625,0 21.2271563,1.58353125 21.2271563,3.53934375 C21.2271563,5.49159375 19.643625,7.075125 17.6895938,7.075125 M13.6906875,12.63975 C13.2560625,12.825 12.9728437,13.2525 12.9728437,13.7245313 L12.9728437,14.1520313 C12.9728437,14.2464375 12.9906562,14.3408438 13.0245,14.4299063 C13.1776875,14.8253438 13.623,15.0195 14.0166563,14.8663125 C15.240375,14.3889375 16.465875,14.1520313 17.6895938,14.1520313 C18.9133125,14.1520313 20.1370313,14.3889375 21.36075,14.8663125 C21.4498125,14.9019375 21.5442187,14.9179688 21.638625,14.9179688 C22.0625625,14.9179688 22.4063438,14.5741875 22.4063438,14.1520313 L22.4063438,13.7245313 C22.4063438,13.2525 22.123125,12.825 21.6867188,12.63975 C20.3543438,12.0750938 19.0219687,11.791875 17.6895938,11.791875 C16.3554375,11.791875 15.0230625,12.0750938 13.6906875,12.63975 M28.3022813,21.225375 C29.604375,21.225375 30.6606562,20.170875 30.6606562,18.8687813 C30.6606562,17.5666875 29.604375,16.5104063 28.3022813,16.5104063 C27.0001875,16.5104063 25.9439062,17.5666875 25.9439062,18.8687813 C25.9439062,20.170875 27.0001875,21.225375 28.3022813,21.225375 M3.31134375,14.8485 C6.52115625,11.5692188 11.7651563,9.4335 17.6895938,9.4335 C18.7868438,9.4335 19.8627188,9.50653125 20.9065312,9.64725 L21.310875,8.63371875 C21.9717187,6.98071875 23.5730625,5.8959375 25.3543125,5.8959375 L27.5826563,5.8959375 C27.908625,5.8959375 28.17225,6.1595625 28.17225,6.48553125 C28.17225,6.52471875 28.1686875,6.56390625 28.1615625,6.6013125 L27.189,11.4623438 C30.7995938,13.1509688 33.5195625,15.77475 34.713,18.8687813 L37.1461875,18.8687813 C37.4721562,18.8687813 37.7357813,19.1324063 37.7357813,19.458375 L37.7357813,25.3543125 C37.7357813,25.6785 37.4721562,25.9439063 37.1461875,25.9439063 L36.5565938,25.9439063 C35.81025,25.9439063 35.1013125,26.2752188 34.6221563,26.8505625 L33.6104062,28.0635938 C32.3742188,29.932125 30.544875,31.5477188 28.3022813,32.7856875 L28.3022813,37.1461875 C28.3022813,37.4721563 28.0386563,37.7357813 27.7126875,37.7357813 L24.175125,37.7357813 C23.8491563,37.7357813 23.5855312,37.4721563 23.5855312,37.1461875 L23.5855312,34.6399688 C21.7401562,35.1173438 19.757625,35.3774063 17.6895938,35.3774063 C15.6215625,35.3774063 13.63725,35.1173438 11.791875,34.6399688 L11.791875,37.1461875 C11.791875,37.4721563 11.52825,37.7357813 11.2022813,37.7357813 L7.6665,37.7357813 C7.33875,37.7357813 7.075125,37.4721563 7.075125,37.1461875 L7.075125,32.7856875 C2.77875,30.416625 0,26.6492813 0,22.4045625 C0,20.6464688 0.477375,18.9685312 1.34484375,17.4366562 C0.49875,16.5068438 0,15.276 0,13.9596563 L0,11.791875 C0.69646875,13.1848125 1.87565625,14.2695938 3.31134375,14.8485"></path>
            </g>
        </g>
    </g>
</svg>