<?xml version="1.0" encoding="UTF-8"?>
<svg width="38px" height="38px" viewBox="0 0 38 38" version="1.1" xmlns="http://www.w3.org/2000/svg" xmlns:xlink="http://www.w3.org/1999/xlink">
    <!-- Generator: Sketch 50.2 (55047) - http://www.bohemiancoding.com/sketch -->
    <title>icons/products/accident</title>
    <desc>Created with Sketch.</desc>
    <defs></defs>
    <g id="Icons" stroke="none" stroke-width="1" fill="none" fill-rule="evenodd">
        <g id="icons" transform="translate(-560.000000, -191.000000)" fill="#FFFFFF">
            <g id="icons/products/accident" transform="translate(560.000000, 191.000000)">
                <path d="M4.74977578,28.5004484 C4.74977578,29.155157 5.28071749,29.6878924 5.93721973,29.6878924 C6.59372197,29.6878924 7.12466368,29.155157 7.12466368,28.5004484 C7.12466368,27.8439462 6.59372197,27.3130045 5.93721973,27.3130045 C5.28071749,27.3130045 4.74977578,27.8439462 4.74977578,28.5004484 Z M8.31210762,32.0627803 C8.31210762,32.7192825 8.84484305,33.2502242 9.49955157,33.2502242 C10.1560538,33.2502242 10.6869955,32.7192825 10.6869955,32.0627803 C10.6869955,31.4080717 10.1560538,30.8753363 9.49955157,30.8753363 C8.84484305,30.8753363 8.31210762,31.4080717 8.31210762,32.0627803 Z M11.8744395,28.5004484 C11.8744395,29.155157 12.4071749,29.6878924 13.0618834,29.6878924 C13.7183857,29.6878924 14.2493274,29.155157 14.2493274,28.5004484 C14.2493274,27.8439462 13.7183857,27.3130045 13.0618834,27.3130045 C12.4071749,27.3130045 11.8744395,27.8439462 11.8744395,28.5004484 Z M8.31210762,24.9381166 C8.31210762,25.5928251 8.84484305,26.1255605 9.49955157,26.1255605 C10.1560538,26.1255605 10.6869955,25.5928251 10.6869955,24.9381166 C10.6869955,24.2816143 10.1560538,23.7506726 9.49955157,23.7506726 C8.84484305,23.7506726 8.31210762,24.2816143 8.31210762,24.9381166 Z M23.7506726,9.49955157 C23.7506726,10.1560538 24.2816143,10.6869955 24.9363229,10.6869955 C25.5928251,10.6869955 26.1255605,10.1560538 26.1255605,9.49955157 C26.1255605,8.84484305 25.5928251,8.31210762 24.9363229,8.31210762 C24.2816143,8.31210762 23.7506726,8.84484305 23.7506726,9.49955157 Z M27.3130045,13.0636771 C27.3130045,13.7183857 27.8439462,14.2511211 28.5004484,14.2511211 C29.155157,14.2511211 29.6878924,13.7183857 29.6878924,13.0636771 C29.6878924,12.4071749 29.155157,11.8744395 28.5004484,11.8744395 C27.8439462,11.8744395 27.3130045,12.4071749 27.3130045,13.0636771 Z M30.8753363,9.49955157 C30.8753363,10.1560538 31.406278,10.6869955 32.0627803,10.6869955 C32.7174888,10.6869955 33.2502242,10.1560538 33.2502242,9.49955157 C33.2502242,8.84484305 32.7174888,8.31210762 32.0627803,8.31210762 C31.406278,8.31210762 30.8753363,8.84484305 30.8753363,9.49955157 Z M27.3130045,5.93721973 C27.3130045,6.59372197 27.8439462,7.12466368 28.5004484,7.12466368 C29.155157,7.12466368 29.6878924,6.59372197 29.6878924,5.93721973 C29.6878924,5.28251121 29.155157,4.74977578 28.5004484,4.74977578 C27.8439462,4.74977578 27.3130045,5.28251121 27.3130045,5.93721973 Z M19.4206278,12.2941704 C19.1874439,12.0627803 18.8125561,12.0627803 18.5793722,12.2941704 L12.2959641,18.5811659 C12.0627803,18.8125561 12.0627803,19.1892377 12.2959641,19.4206278 L18.5793722,25.7058296 C18.8125561,25.9372197 19.1874439,25.9372197 19.4206278,25.7058296 L25.7058296,19.4206278 C25.9372197,19.1892377 25.9372197,18.8125561 25.7058296,18.5811659 L19.4206278,12.2941704 Z M18.9991031,8.31210762 L26.4735426,0.839461883 C27.0098655,0.301345291 27.7399103,0 28.5004484,0 C33.7470852,0 38,4.2529148 38,9.49955157 C38,10.2600897 37.6986547,10.9901345 37.1605381,11.5282511 L29.6878924,19.0008969 L37.1605381,26.4735426 C37.6986547,27.0098655 38,27.7399103 38,28.5004484 C38,33.7470852 33.7470852,38 28.5004484,38 C27.7399103,38 27.0098655,37.6986547 26.4735426,37.1605381 L18.9991031,29.6878924 L11.5264574,37.1605381 C10.9901345,37.6986547 10.2600897,38 9.49955157,38 C4.2529148,38 0,33.7470852 0,28.5004484 C0,27.7399103 0.303139013,27.0098655 0.839461883,26.4735426 L8.31210762,19.0008969 L0.839461883,11.5282511 C0.303139013,10.9901345 0,10.2600897 0,9.49955157 C0,4.2529148 4.2529148,0 9.49955157,0 C10.2600897,0 10.9901345,0.301345291 11.5264574,0.839461883 L18.9991031,8.31210762 Z"></path>
            </g>
        </g>
    </g>
</svg>