<?xml version="1.0" encoding="UTF-8"?>
<svg width="38px" height="29px" viewBox="0 0 38 29" version="1.1" xmlns="http://www.w3.org/2000/svg" xmlns:xlink="http://www.w3.org/1999/xlink">
    <!-- Generator: Sketch 50.2 (55047) - http://www.bohemiancoding.com/sketch -->
    <title>icons/products/ad&amp;d</title>
    <desc>Created with Sketch.</desc>
    <defs></defs>
    <g id="Icons" stroke="none" stroke-width="1" fill="none" fill-rule="evenodd">
        <g id="icons" transform="translate(-714.000000, -195.000000)" fill="#FFFFFF">
            <g id="icons/products/ad&amp;d" transform="translate(714.000000, 195.000000)">
                <path d="M24.3443946,7.24954371 C24.0161435,7.24954371 23.7506726,7.51966769 23.7506726,7.85367235 L23.7506726,12.6867015 C23.7506726,13.0207061 24.0161435,13.2908301 24.3443946,13.2908301 L29.9982063,13.2908301 C30.0735426,13.2908301 30.1488789,13.2762288 30.2188341,13.2488514 C30.5237668,13.1247404 30.670852,12.7724841 30.5488789,12.4622066 L28.6493274,7.62917742 C28.5596413,7.40103216 28.3426009,7.24954371 28.0986547,7.24954371 L24.3443946,7.24954371 Z M35.4224215,24.1669709 C35.555157,24.5447794 35.6269058,24.9499654 35.6269058,25.3752281 C35.6269058,27.3756058 34.0304933,29 32.0627803,29 C30.096861,29 28.5004484,27.3756058 28.5004484,25.3752281 C28.5004484,24.9499654 28.5721973,24.5447794 28.703139,24.1669709 L23.1569507,24.1669709 L9.29865471,24.1669709 C9.42959641,24.5447794 9.50134529,24.9499654 9.50134529,25.3752281 C9.50134529,27.3756058 7.90493274,29 5.93901345,29 C3.97130045,29 2.37488789,27.3756058 2.37488789,25.3752281 C2.37488789,24.9499654 2.44663677,24.5447794 2.57757848,24.1669709 L0.593721973,24.1669709 C0.267264574,24.1669709 0,23.8950217 0,23.5628422 L0,0.604128642 C0,0.270123985 0.267264574,0 0.593721973,0 L23.1569507,0 C23.4852018,0 23.7506726,0.270123985 23.7506726,0.604128642 L23.7506726,3.62477185 L30.4843049,3.62477185 C30.7210762,3.62477185 30.9363229,3.76895966 31.0295964,3.98980427 L34.0179372,11.0860344 C34.2852018,11.7193656 34.8071749,12.2066839 35.4493274,12.4257033 L36.3766816,12.7396312 C37.3470852,13.0681604 38,13.9916924 38,15.0338599 L38,23.5628422 C38,23.8950217 37.7345291,24.1669709 37.406278,24.1669709 L35.4224215,24.1669709 Z M13.0636771,8.45780099 L13.0636771,5.43715778 C13.0636771,5.10315312 12.7982063,4.83302914 12.4699552,4.83302914 L8.90762332,4.83302914 C8.5793722,4.83302914 8.31210762,5.10315312 8.31210762,5.43715778 L8.31210762,8.45780099 L5.34529148,8.45780099 C5.01704036,8.45780099 4.75156951,8.72792498 4.75156951,9.06192964 L4.75156951,12.6867015 C4.75156951,13.0207061 5.01704036,13.2908301 5.34529148,13.2908301 L8.31210762,13.2908301 L8.31210762,16.3114733 C8.31210762,16.645478 8.5793722,16.915602 8.90762332,16.915602 L12.4699552,16.915602 C12.7982063,16.915602 13.0636771,16.645478 13.0636771,16.3114733 L13.0636771,13.2908301 L16.032287,13.2908301 C16.3605381,13.2908301 16.626009,13.0207061 16.626009,12.6867015 L16.626009,9.06192964 C16.626009,8.72792498 16.3605381,8.45780099 16.032287,8.45780099 L13.0636771,8.45780099 Z"></path>
            </g>
        </g>
    </g>
</svg>