<?xml version="1.0" encoding="UTF-8"?>
<svg width="26px" height="38px" viewBox="0 0 26 38" version="1.1" xmlns="http://www.w3.org/2000/svg" xmlns:xlink="http://www.w3.org/1999/xlink">
    <!-- Generator: Sketch 50.2 (55047) - http://www.bohemiancoding.com/sketch -->
    <title>icons/products/cancer</title>
    <desc>Created with Sketch.</desc>
    <defs></defs>
    <g id="Icons" stroke="none" stroke-width="1" fill="none" fill-rule="evenodd">
        <g id="icons" transform="translate(-714.000000, -465.000000)" fill="#FFFFFF">
            <g id="icons/products/cancer" transform="translate(714.000000, 465.000000)">
                <path d="M6.60123098,36.8104603 C6.50319222,36.9613891 6.39089327,37.1015373 6.26255162,37.2255145 C5.32672708,38.1418681 3.83119035,38.11851 2.92388618,37.1752049 L0.665429627,34.8268244 C-0.143835782,33.9859353 -0.224049314,32.674292 0.474699674,31.738174 L7.28215474,22.6393225 L11.8650212,28.599214 L6.60123098,36.8104603 Z M19.3854854,37.0063084 L3.63154778,14.8395369 C2.32495847,13.0014395 1.95954127,10.6440751 2.65116017,8.48974593 L4.16452214,3.7678301 C4.69393145,2.1148002 6.07538671,0.885808412 7.76700097,0.556999204 C9.69390826,0.185067477 11.4425633,0 13.0111834,0 C14.5798036,0 16.3284586,0.185067477 18.2535834,0.556999204 C19.9469801,0.88401164 21.3266529,2.1148002 21.8578447,3.7678301 L23.392597,8.55802325 C24.0699557,10.6746202 23.7312763,12.9870653 22.4763802,14.8161788 L18.7402121,20.2568033 L14.1573457,14.2987086 L17.369452,9.84451174 C17.5156189,9.64147654 17.5940499,9.3971156 17.5940499,9.14556758 L17.5940499,8.93534529 C17.5940499,8.5616168 17.3765821,8.22382373 17.0396852,8.06930137 C15.6974455,7.45660225 14.3534232,7.1493543 13.0111834,7.1493543 C11.6671611,7.1493543 10.3249214,7.45660225 8.98089909,8.06930137 C8.64400225,8.22382373 8.42831698,8.5616168 8.42831698,8.93534529 L8.42831698,9.12580309 C8.42831698,9.38813174 8.5156606,9.64507009 8.67608767,9.8534956 L25.5048866,31.7327837 C26.2250259,32.6689017 26.1519425,33.9967159 25.335547,34.8465889 L22.9986594,37.2776209 C22.0913552,38.2191293 20.597601,38.2442841 19.6617765,37.3297273 C19.5601727,37.2291081 19.4674815,37.1230986 19.3854854,37.0063084 Z"></path>
            </g>
        </g>
    </g>
</svg>