<?xml version="1.0" encoding="UTF-8"?>
<svg width="34px" height="38px" viewBox="0 0 34 38" version="1.1" xmlns="http://www.w3.org/2000/svg" xmlns:xlink="http://www.w3.org/1999/xlink">
    <!-- Generator: Sketch 50.2 (55047) - http://www.bohemiancoding.com/sketch -->
    <title>icons/products/critical-illness</title>
    <desc>Created with Sketch.</desc>
    <defs></defs>
    <g id="Icons" stroke="none" stroke-width="1" fill="none" fill-rule="evenodd">
        <g id="icons" transform="translate(-560.000000, -283.000000)" fill="#FFFFFF">
            <g id="icons/products/critical-illness" transform="translate(560.000000, 283.000000)">
                <path d="M22.464908,33.2502242 C22.129255,33.2502242 21.8577979,33.5156951 21.8577979,33.8439462 L21.8577979,35.0313901 C21.8577979,35.3596413 22.129255,35.6251121 22.464908,35.6251121 L24.8933484,35.6251121 C25.2290015,35.6251121 25.5004585,35.3596413 25.5004585,35.0313901 L25.5004585,33.8439462 C25.5004585,33.5156951 25.2290015,33.2502242 24.8933484,33.2502242 L22.464908,33.2502242 Z M27.3217889,33.2502242 C26.9861358,33.2502242 26.7146788,33.5156951 26.7146788,33.8439462 L26.7146788,35.0313901 C26.7146788,35.3596413 26.9861358,35.6251121 27.3217889,35.6251121 L29.7502293,35.6251121 C30.0858823,35.6251121 30.3573394,35.3596413 30.3573394,35.0313901 L30.3573394,33.8439462 C30.3573394,33.5156951 30.0858823,33.2502242 29.7502293,33.2502242 L27.3217889,33.2502242 Z M4.24977073,33.2502242 C3.91595188,33.2502242 3.64266062,33.5156951 3.64266062,33.8439462 L3.64266062,35.0313901 C3.64266062,35.3596413 3.91595188,35.6251121 4.24977073,35.6251121 L15.1795868,35.6251121 C15.5134056,35.6251121 15.7866969,35.3596413 15.7866969,35.0313901 L15.7866969,33.8439462 C15.7866969,33.5156951 15.5134056,33.2502242 15.1795868,33.2502242 L4.24977073,33.2502242 Z M0.0018341695,1.18744395 C0.0018341695,0.532735426 0.544748341,0 1.21605438,0 L32.7857798,0 C33.4570858,0 34,0.532735426 34,1.18744395 L34,36.8125561 C34,37.4690583 33.4570858,38 32.7857798,38 L1.21422021,38 C0.544748341,38 0,37.4690583 0,36.8125561 L0.0018341695,1.18744395 Z M30.3573394,19.0008969 L27.3639748,19.0008969 C26.9586233,19.0008969 26.5789502,18.8017937 26.3551815,18.4717489 L24.2862383,15.438565 L22.1219183,24.9668161 C21.9678481,25.644843 21.3534013,26.1255605 20.6435777,26.1255605 C19.9410908,26.1255605 19.337649,25.6340807 19.2129255,24.9578475 L17.0009171,13.0636771 L14.8347629,22.5919283 C14.6806927,23.2699552 14.0662459,23.7506726 13.3582565,23.7506726 C12.6447645,23.7506726 12.0211469,23.2753363 11.848735,22.5991031 L9.71376167,14.2511211 L7.62097427,18.3443946 C7.41554728,18.7461883 6.99552247,19.0008969 6.53514592,19.0008969 L3.64266062,19.0008969 L3.64266062,28.5022422 L30.3573394,28.5022422 L30.3573394,19.0008969 Z M30.3573394,16.626009 L30.3573394,4.74977578 L3.64266062,4.74977578 L3.64266062,16.626009 L4.83853914,16.626009 C5.58321195,16.626009 6.25268382,16.1829596 6.52964342,15.5049327 L8.05016993,11.7901345 C8.32162702,11.1246637 8.98009387,10.6887892 9.71376167,10.6887892 C10.4327561,10.6887892 11.0655446,11.155157 11.2636349,11.8295964 L13.3582565,19.0008969 L15.5482548,8.29058296 C15.6858176,7.61434978 16.2947618,7.1264574 17.0009171,7.1264574 C17.7015698,7.1264574 18.2995091,7.62152466 18.4150618,8.29596413 L20.6435777,21.3757848 L22.7767168,13.0278027 C22.9509629,12.3515695 23.5727464,11.8744395 24.2862383,11.8744395 C25.029077,11.8744395 25.711388,12.2869955 26.0433727,12.9381166 L27.5932459,15.9695067 C27.7986729,16.3713004 28.2186977,16.626009 28.6790743,16.626009 L30.3573394,16.626009 Z"></path>
            </g>
        </g>
    </g>
</svg>