<?xml version="1.0" encoding="UTF-8"?>
<svg width="38px" height="29px" viewBox="0 0 38 29" version="1.1" xmlns="http://www.w3.org/2000/svg" xmlns:xlink="http://www.w3.org/1999/xlink">
    <!-- Generator: Sketch 50.2 (55047) - http://www.bohemiancoding.com/sketch -->
    <title>icons/products/dental</title>
    <desc>Created with Sketch.</desc>
    <defs></defs>
    <g id="Icons" stroke="none" stroke-width="1" fill="none" fill-rule="evenodd">
        <g id="icons" transform="translate(-897.000000, -195.000000)" fill="#FFFFFF">
            <g id="icons/products/dental" transform="translate(897.000000, 195.000000)">
                <path d="M9.18923767,12.7631397 C9.10134529,12.8105999 9.0044843,12.8361553 8.9058296,12.8361553 C8.57757848,12.8361553 8.31390135,12.5659974 8.31390135,12.2319507 L8.31390135,8.0645811 C8.31390135,5.8540316 9.4367713,3.80229118 11.2807175,2.63951659 C13.2,1.4292818 15.4744395,0.938251401 17.709417,1.2503934 L28.6026906,2.77824636 C30.8376682,3.09038837 33.1121076,2.60118336 35.0313901,1.39094857 L37.0941704,0.0912695915 C37.1874439,0.0310316611 37.296861,0 37.406278,0 C37.7345291,0 38,0.270157991 38,0.604204696 L38,4.56895575 C38,6.87807641 36.8914798,9.04116573 35.0313901,10.3645748 C33.12287,11.7208409 30.7820628,12.2958394 28.4753363,11.972745 L17.5946188,10.4467174 C15.4224215,10.1437024 13.2089686,10.5525902 11.2807175,11.6131428 L9.18923767,12.7631397 Z M35.6251121,24.0093787 C36.9381166,24.0093787 38,25.0900107 38,26.4261975 L38,26.5831812 C38,27.9175426 36.9381166,29 35.6251121,29 L7.1264574,29 L0,25.2561214 L0,19.0169321 L9.49955157,24.0093787 L9.49955157,15.2347202 C9.49955157,14.5666268 10.032287,14.0263108 10.6869955,14.0263108 C11.3434978,14.0263108 11.8744395,14.5666268 11.8744395,15.2347202 L11.8744395,24.0093787 L14.2493274,24.0093787 L14.2493274,13.9861522 C14.2493274,13.3198842 14.7820628,12.7777428 15.4367713,12.7777428 C16.0932735,12.7777428 16.626009,13.3198842 16.626009,13.9861522 L16.626009,24.0093787 L19.0008969,24.0093787 L19.0008969,15.2347202 C19.0008969,14.5666268 19.5318386,14.0263108 20.1883408,14.0263108 C20.8430493,14.0263108 21.3757848,14.5666268 21.3757848,15.2347202 L21.3757848,24.0093787 L23.7488789,24.0093787 L23.7488789,13.9861522 C23.7488789,13.3198842 24.2816143,12.7777428 24.9363229,12.7777428 C25.5946188,12.7777428 26.1237668,13.3198842 26.1237668,13.9861522 L26.1237668,24.0093787 L28.5004484,24.0093787 L28.5004484,15.2347202 C28.5004484,14.5666268 29.0331839,14.0263108 29.6878924,14.0263108 C30.3426009,14.0263108 30.8753363,14.5666268 30.8753363,15.2347202 L30.8753363,24.0093787 L33.2502242,24.0093787 L33.2502242,13.9861522 C33.2502242,13.3198842 33.7811659,12.7777428 34.4376682,12.7777428 C35.0923767,12.7777428 35.6251121,13.3198842 35.6251121,13.9861522 L35.6251121,24.0093787 Z"></path>
            </g>
        </g>
    </g>
</svg>