<?xml version="1.0" encoding="UTF-8"?>
<svg width="38px" height="29px" viewBox="0 0 38 29" version="1.1" xmlns="http://www.w3.org/2000/svg" xmlns:xlink="http://www.w3.org/1999/xlink">
    <!-- Generator: Sketch 50.2 (55047) - http://www.bohemiancoding.com/sketch -->
    <title>icons/products/fmla</title>
    <desc>Created with Sketch.</desc>
    <defs></defs>
    <g id="Icons" stroke="none" stroke-width="1" fill="none" fill-rule="evenodd">
        <g id="icons" transform="translate(-714.000000, -111.000000)" fill="#FFFFFF">
            <g id="icons/products/fmla" transform="translate(714.000000, 111.000000)">
                <path d="M20.7820628,10.8743156 C20.4538117,10.8743156 20.1883408,11.1444395 20.1883408,11.4784442 L20.1883408,15.1032161 C20.1883408,15.4372207 20.4538117,15.7073447 20.7820628,15.7073447 L25.5318386,15.7073447 C25.8600897,15.7073447 26.1255605,15.4372207 26.1255605,15.1032161 L26.1255605,11.4784442 C26.1255605,11.1444395 25.8600897,10.8743156 25.5318386,10.8743156 L20.7820628,10.8743156 Z M12.4699552,10.8743156 C12.141704,10.8743156 11.8762332,11.1444395 11.8762332,11.4784442 L11.8762332,15.1032161 C11.8762332,15.4372207 12.141704,15.7073447 12.4699552,15.7073447 L17.2197309,15.7073447 C17.5461883,15.7073447 17.8134529,15.4372207 17.8134529,15.1032161 L17.8134529,11.4784442 C17.8134529,11.1444395 17.5461883,10.8743156 17.2197309,10.8743156 L12.4699552,10.8743156 Z M26.1255605,22.9568884 L26.1255605,19.9362452 C26.1255605,19.6022405 25.8600897,19.3321166 25.5318386,19.3321166 L20.7820628,19.3321166 C20.4538117,19.3321166 20.1883408,19.6022405 20.1883408,19.9362452 L20.1883408,23.5610171 C20.1883408,23.8950217 20.4538117,24.1651457 20.7820628,24.1651457 L25.5318386,24.1651457 C25.8600897,24.1651457 26.1255605,23.8950217 26.1255605,23.5610171 L26.1255605,22.9568884 Z M35.6251121,25.373403 L34.4376682,25.373403 L34.4376682,29 L32.0627803,29 L32.0627803,25.373403 L30.8753363,25.373403 L30.8753363,29 L17.8134529,29 L17.8134529,19.9362452 C17.8134529,19.6022405 17.5461883,19.3321166 17.2197309,19.3321166 L12.4699552,19.3321166 C12.141704,19.3321166 11.8762332,19.6022405 11.8762332,19.9362452 L11.8762332,29 L7.12466368,29 L7.12466368,25.373403 L5.93901345,25.373403 L5.93901345,29 L3.56233184,29 L3.56233184,25.373403 L2.37488789,25.373403 L2.37488789,29 L0,29 L0,20.7922462 C0,20.6316319 0.0627802691,20.4764932 0.173991031,20.3633331 L0.767713004,19.7592045 C1.00089686,19.5237586 1.37578475,19.5237586 1.60896861,19.7592045 L2.20089686,20.3633331 C2.31390135,20.4764932 2.37488789,20.6316319 2.37488789,20.7922462 L2.37488789,22.9568884 L3.56233184,22.9568884 L3.56233184,20.7922462 C3.56233184,20.6316319 3.62511211,20.4764932 3.73632287,20.3633331 L4.33004484,19.7592045 C4.5632287,19.5237586 4.93811659,19.5237586 5.16950673,19.7592045 L5.7632287,20.3633331 C5.87443946,20.4764932 5.93901345,20.6316319 5.93901345,20.7922462 L5.93901345,22.9568884 L7.12466368,22.9568884 L7.12466368,10.8743156 L6.36591928,10.8743156 C6.10941704,10.8743156 5.88340807,10.7082258 5.80269058,10.4600038 L4.91300448,7.74598779 C4.81973094,7.46126251 4.9470852,7.1491598 5.21076233,7.01592297 L18.735426,0.135061993 C18.9022422,0.0492793757 19.0995516,0.0492793757 19.2663677,0.135061993 L23.7506726,2.41651457 L23.7506726,0.604128642 C23.7506726,0.270123985 24.0161435,0 24.3443946,0 L27.9067265,0 C28.2349776,0 28.5004484,0.270123985 28.5004484,0.604128642 L28.5004484,4.83302914 L32.7892377,7.01592297 C33.0547085,7.1491598 33.1820628,7.46126251 33.0869955,7.74598779 L32.1991031,10.4600038 C32.1165919,10.7082258 31.890583,10.8743156 31.6340807,10.8743156 L30.8753363,10.8743156 L30.8753363,22.9568884 L32.0627803,22.9568884 L32.0627803,20.7922462 C32.0627803,20.6316319 32.1255605,20.4764932 32.2367713,20.3633331 L32.8304933,19.7592045 C33.0618834,19.5237586 33.438565,19.5237586 33.6699552,19.7592045 L34.2636771,20.3633331 C34.3748879,20.4764932 34.4376682,20.6316319 34.4376682,20.7922462 L34.4376682,22.9568884 L35.6251121,22.9568884 L35.6251121,20.7922462 C35.6251121,20.6316319 35.6878924,20.4764932 35.7991031,20.3633331 L36.3928251,19.7592045 C36.626009,19.5237586 37.0008969,19.5237586 37.232287,19.7592045 L37.826009,20.3633331 C37.9372197,20.4764932 38,20.6316319 38,20.7922462 L38,29 L35.6251121,29 L35.6251121,25.373403 Z"></path>
            </g>
        </g>
    </g>
</svg>