<?xml version="1.0" encoding="UTF-8"?>
<svg width="38px" height="23px" viewBox="0 0 38 23" version="1.1" xmlns="http://www.w3.org/2000/svg" xmlns:xlink="http://www.w3.org/1999/xlink">
    <!-- Generator: Sketch 50.2 (55047) - http://www.bohemiancoding.com/sketch -->
    <title>icons/products/hospital-indemnity</title>
    <desc>Created with Sketch.</desc>
    <defs></defs>
    <g id="Icons" stroke="none" stroke-width="1" fill="none" fill-rule="evenodd">
        <g id="icons" transform="translate(-714.000000, -382.000000)" fill="#FFFFFF">
            <g id="icons/products/hospital-indemnity" transform="translate(714.000000, 382.000000)">
                <path d="M10.6869955,5.76395903 L3.56233184,1.16779961 C4.94887892,-0.175774956 7.0941704,-0.383160476 8.71928251,0.666174803 L10.2780269,1.66942441 C11.5121076,2.46706103 11.8600897,4.10132982 11.0547085,5.32082758 C10.9488789,5.48212743 10.8251121,5.63101959 10.6869955,5.76395903 Z M28.5004484,6.91255576 L30.8753363,6.91255576 L30.8753363,2.31639633 L28.5004484,2.31639633 L28.5004484,6.91255576 Z M23.7488789,6.91255576 L26.1237668,6.91255576 L26.1237668,2.31639633 L23.7488789,2.31639633 L23.7488789,6.91255576 Z M18.9991031,6.91255576 L21.373991,6.91255576 L21.373991,2.31639633 L18.9991031,2.31639633 L18.9991031,6.91255576 Z M28.6313901,19.5506648 L21.373991,15.8354507 L14.1183857,19.5506648 L28.6313901,19.5506648 Z M16.3605381,11.5087152 L21.373991,14.0771051 L26.3874439,11.5087152 L16.3605381,11.5087152 Z M33.2502242,6.91255576 L35.6735426,6.91255576 C36.9578475,6.91255576 38,7.94239325 38,9.2097492 C38,10.4788777 36.9578475,11.5087152 35.6735426,11.5087152 L29.8188341,11.5087152 L23.090583,14.9562779 L30.07713,18.5350075 C30.3264574,18.4481537 30.5955157,18.4020681 30.8735426,18.4020681 C32.1865471,18.4020681 33.2502242,19.4319055 33.2502242,20.701034 C33.2502242,21.9701625 32.1865471,23 30.8735426,23 C29.5623318,23 28.5004484,21.9701625 28.5004484,20.701034 L14.2493274,20.701034 C14.2493274,21.9701625 13.1856502,23 11.8744395,23 C10.5632287,23 9.49955157,21.9701625 9.49955157,20.701034 C9.49955157,19.4319055 10.5632287,18.4020681 11.8744395,18.4020681 C12.1542601,18.4020681 12.4215247,18.4481537 12.670852,18.5350075 L19.6591928,14.9562779 L12.929148,11.5087152 L9.80807175,11.5087152 C8.83408072,11.5087152 7.88520179,11.2127034 7.08520179,10.6614478 L1.01345291,6.46587925 C0.376681614,6.02452032 0,5.30664737 0,4.54268875 L0,2.89246722 C0,2.0327922 0.704932735,1.33618956 1.57309417,1.33618956 C1.87802691,1.33618956 2.17757848,1.42481585 2.432287,1.58966075 L10.6869955,6.91255576 L16.6242152,6.91255576 L16.6242152,1.19261497 C16.6242152,0.545643048 17.155157,0.0192028827 17.8116592,0.0192028827 L32.0627803,0.0192028827 C32.7174888,0.0192028827 33.2502242,0.545643048 33.2502242,1.19261497 L33.2502242,6.91255576 Z"></path>
            </g>
        </g>
    </g>
</svg>