<?xml version="1.0" encoding="UTF-8"?>
<svg width="38px" height="34px" viewBox="0 0 38 34" version="1.1" xmlns="http://www.w3.org/2000/svg" xmlns:xlink="http://www.w3.org/1999/xlink">
    <!-- Generator: Sketch 50.2 (55047) - http://www.bohemiancoding.com/sketch -->
    <title>icons/products/individual-disability</title>
    <desc>Created with Sketch.</desc>
    <defs></defs>
    <g id="Icons" stroke="none" stroke-width="1" fill="none" fill-rule="evenodd">
        <g id="icons" transform="translate(-714.000000, -287.000000)" fill="#FFFFFF">
            <g id="icons/products/individual-disability" transform="translate(714.000000, 287.000000)">
                <path d="M19.0008969,20.5848843 C19.0008969,21.2580245 19.5318386,21.804607 20.1883408,21.804607 C20.844843,21.804607 21.3757848,21.2580245 21.3757848,20.5848843 C21.3757848,19.9117441 20.844843,19.3651616 20.1883408,19.3651616 C19.5318386,19.3651616 19.0008969,19.9117441 19.0008969,20.5848843 Z M30.8753363,4.73215731 L0,4.73215731 L0,4.59459459 C0,3.97647947 0.452017937,3.45924367 1.05112108,3.38771106 L29.5515695,0.00917084749 C29.5964126,0.003668339 29.6430493,0 29.6878924,0 C30.3443946,0 30.8753363,0.544748341 30.8753363,1.21422021 L30.8753363,4.73215731 Z M17.8134529,15.7059934 L36.8125561,15.7059934 C37.4690583,15.7059934 38,16.2507418 38,16.9202136 L38,24.2495549 C38,24.9190268 37.4690583,25.4637752 36.8125561,25.4637752 L17.8134529,25.4637752 C17.1569507,25.4637752 16.626009,24.9190268 16.626009,24.2495549 L16.626009,16.9202136 C16.626009,16.2507418 17.1569507,15.7059934 17.8134529,15.7059934 Z M35.6269058,14.4862707 L17.8134529,14.4862707 C16.5004484,14.4862707 15.438565,15.5739332 15.438565,16.9165453 L15.438565,24.2532233 C15.438565,25.5958354 16.5004484,26.6834979 17.8134529,26.6834979 L35.6269058,26.6834979 L35.6269058,32.7857798 C35.6269058,33.4570858 35.0941704,34 34.4376682,34 L2.37488789,34 C1.06367713,34 0,32.9123375 0,31.5715596 L0,7.16976857 L34.4376682,7.16976857 C35.0941704,7.16976857 35.6269058,7.71268274 35.6269058,8.38398878 L35.6269058,14.4862707 Z"></path>
            </g>
        </g>
    </g>
</svg>