<?xml version="1.0" encoding="UTF-8"?>
<svg width="22px" height="41px" viewBox="0 0 22 41" version="1.1" xmlns="http://www.w3.org/2000/svg" xmlns:xlink="http://www.w3.org/1999/xlink">
    <!-- Generator: Sketch 51.1 (57501) - http://www.bohemiancoding.com/sketch -->
    <title>icons/products/life</title>
    <desc>Created with Sketch.</desc>
    <defs></defs>
    <g id="Icons" stroke="none" stroke-width="1" fill="none" fill-rule="evenodd">
        <g id="icons" transform="translate(-562.000000, -374.000000)" fill="#FFFFFF">
            <g id="icons/products/life" transform="translate(562.000000, 374.000000)">
                <g id="life">
                    <path d="M10.2428509,31.6193612 L10.242851,39.9261425 C10.2427439,40.4261572 10.6370928,40.8344479 11.1302019,40.8448649 C11.6233111,40.8344479 12.0176599,40.4261572 12.0175529,39.9261425 L12.0175529,31.6193612 C11.7283868,31.6390054 11.4382479,31.6390054 11.1490817,31.6193612 C10.8472679,31.6374353 10.5446648,31.6374353 10.2428509,31.6193612 Z" id="Shape" fill-rule="nonzero"></path>
                    <path d="M11.7721154,0.287100737 C11.3727485,-0.0692691365 10.7743765,-0.0692691365 10.3750096,0.287100737 C4.38940186,5.2026027 0.772991175,12.4863316 0.444230769,20.2884521 C0.294545623,26.078519 4.56102752,31.012185 10.242851,31.6193612 L10.242851,26.0496069 L6.76896635,23.5805405 C6.59065854,23.4566149 6.46847116,23.2657085 6.42948677,23.0501353 C6.39050239,22.8345621 6.43794119,22.612129 6.56128846,22.4321376 C6.82299731,22.0532238 7.33717844,21.9592245 7.71295673,22.2215971 L10.242851,24.135602 L10.242851,20.4607125 L6.76896635,17.9916462 C6.52951509,17.8206942 6.39821477,17.5332214 6.42452496,17.2375161 C6.45083516,16.9418108 6.63075871,16.6827976 6.89652017,16.5580443 C7.16228162,16.4332911 7.47350548,16.4617507 7.71295673,16.6327027 L10.242851,18.4318673 L10.242851,14.8526781 L6.76896635,12.3836118 C6.59065854,12.2596862 6.46847116,12.0687798 6.42948677,11.8532066 C6.39050239,11.6376334 6.43794119,11.4152002 6.56128846,11.2352088 C6.82299731,10.8562951 7.33717844,10.7622958 7.71295673,11.0246683 L10.242851,12.9386732 L10.242851,6.41191646 C10.242851,5.91509087 10.6401315,5.51233415 11.1302019,5.51233415 C11.6202723,5.51233415 12.0175529,5.91509087 12.0175529,6.41191646 L12.0175529,12.842973 L14.5474471,10.9289681 C14.9232254,10.6665956 15.4374065,10.7605948 15.6991154,11.1395086 C15.8224627,11.3195 15.8699015,11.5419332 15.8309171,11.7575063 C15.7919327,11.9730795 15.6697453,12.1639859 15.4914375,12.2879115 L12.0553125,14.8526781 L12.0553125,18.4318673 L14.5852067,16.6327027 C14.824658,16.4583316 15.1376811,16.4267127 15.4063633,16.5497564 C15.6750454,16.6728002 15.8585675,16.9318134 15.8877984,17.2292282 C15.9170293,17.526643 15.7875282,17.8172751 15.5480769,17.9916462 L12.0553125,20.4607125 L12.0553125,24.0399017 L14.5852067,22.1258968 C14.960985,21.8635243 15.4751662,21.9575236 15.736875,22.3364373 C15.8602223,22.5164287 15.9076611,22.7388619 15.8686767,22.9544351 C15.8296923,23.1700083 15.7075049,23.3609147 15.5291971,23.4848403 L12.0553125,26.0496069 L12.0553125,31.6193612 C17.5934707,31.151524 21.8534888,26.4583282 21.8539327,20.8243735 C21.8539327,10.3164865 14.1887308,2.44992629 11.7721154,0.287100737 Z" id="Shape" fill-rule="nonzero"></path>
                </g>
            </g>
        </g>
    </g>
</svg>