<?xml version="1.0" encoding="UTF-8"?>
<svg width="34px" height="38px" viewBox="0 0 34 38" version="1.1" xmlns="http://www.w3.org/2000/svg" xmlns:xlink="http://www.w3.org/1999/xlink">
    <!-- Generator: Sketch 50.2 (55047) - http://www.bohemiancoding.com/sketch -->
    <title>icons/products/long-term-care</title>
    <desc>Created with Sketch.</desc>
    <defs></defs>
    <g id="Icons" stroke="none" stroke-width="1" fill="none" fill-rule="evenodd">
        <g id="icons" transform="translate(-897.000000, -465.000000)" fill="#FFFFFF">
            <g id="icons/products/long-term-care" transform="translate(897.000000, 465.000000)">
                <path d="M11.005017,11.875 L12.0614986,16.625 L21.1149593,16.625 L20.5867185,15.1002644 C19.9172466,13.173716 18.0684037,11.875 15.9866214,11.875 L11.005017,11.875 Z M21.4432756,23.75 L11.3223283,23.75 L8.62609915,32.3943542 C11.3259967,32.9558157 14.1267735,33.2517938 17.0009171,33.2517938 C19.4605384,33.2517938 21.8724713,33.0347432 24.2092032,32.6185801 L21.4432756,23.75 Z M32.2483681,30.3153323 L34,32.8445997 C29.1871392,36.0949773 23.3251335,38 17.0009171,38 C10.6730323,38 4.8110266,36.0949773 0,32.8445997 L1.75163187,30.3153323 C2.8741436,30.7673716 4.02233371,31.1727719 5.19436802,31.524358 L7.61730593,23.75 L6.63969359,23.75 C5.48600097,23.75 4.49004693,22.9553437 4.26077575,21.8503588 L0.163241085,2.13462991 C-0.0385175595,1.17135574 0.597939257,0.231401057 1.58472245,0.0340823263 C1.70394346,0.0125566465 1.82499865,0 1.94788801,0 L4.03884124,0 C6.5608243,0 8.74165183,1.71846677 9.27906349,4.1293429 L10.474942,9.5 L16.4671738,9.5 C19.7081513,9.5 22.5602848,11.5951662 23.4626962,14.6374622 L24.0532988,16.625 L24.4146302,16.625 C26.5477693,16.625 28.3709338,18.1300038 28.7267627,20.1892938 L29.1027674,22.3651813 C29.2164859,23.0109517 28.7707828,23.6244335 28.1086476,23.7338557 C28.0426175,23.7446186 27.9747532,23.75 27.9068889,23.75 L25.1464638,23.75 L27.6721152,31.849037 C29.238496,31.4256986 30.764525,30.9126699 32.2483681,30.3153323 Z"></path>
            </g>
        </g>
    </g>
</svg>