<?xml version="1.0" encoding="UTF-8"?>
<svg width="40px" height="40px" viewBox="0 0 40 40" version="1.1" xmlns="http://www.w3.org/2000/svg" xmlns:xlink="http://www.w3.org/1999/xlink">
    <!-- Generator: Sketch 50.2 (55047) - http://www.bohemiancoding.com/sketch -->
    <title>icons/products/long-tern-disability</title>
    <desc>Created with Sketch.</desc>
    <defs></defs>
    <g id="Icons" stroke="none" stroke-width="1" fill="none" fill-rule="evenodd">
        <g id="icons" transform="translate(-897.000000, -284.000000)" fill="#FFFFFF">
            <g id="icons/products/long-tern-disability" transform="translate(897.000000, 284.000000)">
                <path d="M10.9897233,34.1920949 C7.61791831,34.1920949 4.88432148,31.4603426 4.88432148,28.086693 C4.88432148,24.714888 7.61791831,21.9812912 10.9897233,21.9812912 C14.3615283,21.9812912 17.0969697,24.714888 17.0969697,28.086693 C17.0969697,31.4603426 14.3615283,34.1920949 10.9897233,34.1920949 Z M10.9897233,36.6342556 C15.711726,36.6342556 19.5391304,32.8086957 19.5391304,28.086693 C19.5391304,23.3665349 15.711726,19.5391304 10.9897233,19.5391304 C6.26956522,19.5391304 2.44216074,23.3665349 2.44216074,28.086693 C2.44216074,32.8086957 6.26956522,36.6342556 10.9897233,36.6342556 Z M14.6529644,15.8758893 L31.7499341,15.8758893 L31.7499341,14.654809 C31.7499341,13.3064559 30.6561265,12.2108037 29.3077734,12.2108037 L14.6529644,12.2108037 L14.6529644,15.8758893 Z M31.7499341,31.9583663 L31.7499341,24.4234519 L21.3541502,24.4234519 C21.7599473,25.5689065 21.9812912,26.8028986 21.9812912,28.086693 C21.9812912,34.1552042 17.0600791,39.0764163 10.9897233,39.0764163 C4.92121212,39.0764163 0,34.1552042 0,28.086693 C0,22.0163373 4.92121212,17.0969697 10.9897233,17.0969697 C11.4047431,17.0969697 11.8105402,17.1191041 12.2108037,17.1633729 L12.2108037,15.8758893 L12.2108037,6.10540184 C12.2108037,4.75704875 11.116996,3.66508564 9.76864295,3.66508564 L7.32832675,3.66508564 L7.32832675,4.27378129 C7.32832675,4.6113307 7.05349144,4.88432148 6.71778656,4.88432148 L3.05270092,4.88432148 C2.71699605,4.88432148 2.44216074,4.6113307 2.44216074,4.27378129 L2.44216074,0.610540184 C2.44216074,0.27483531 2.71699605,0 3.05270092,0 L6.71778656,0 C7.05349144,0 7.32832675,0.27483531 7.32832675,0.610540184 L7.32832675,1.22108037 L9.76864295,1.22108037 C12.4671937,1.22108037 14.6529644,3.40869565 14.6529644,6.10540184 L14.6529644,9.77048748 L29.3077734,9.77048748 C32.0063241,9.77048748 34.1920949,11.9562582 34.1920949,14.654809 L34.1920949,26.8656126 L38.4658762,26.8656126 C38.8034256,26.8656126 39.0782609,27.140448 39.0782609,27.4761528 L39.0782609,28.6972332 C39.0782609,29.0347826 38.8034256,29.3096179 38.4658762,29.3096179 L34.1920949,29.3096179 L34.1920949,31.9583663 C35.6160738,32.4619236 36.6342556,33.8194993 36.6342556,35.4131752 C36.6342556,37.4366271 34.9944664,39.0764163 32.9710145,39.0764163 C30.9475626,39.0764163 29.3077734,37.4366271 29.3077734,35.4131752 C29.3077734,33.8194993 30.3259552,32.4619236 31.7499341,31.9583663 Z"></path>
            </g>
        </g>
    </g>
</svg>