<?xml version="1.0" encoding="UTF-8"?>
<svg width="38px" height="31px" viewBox="0 0 38 31" version="1.1" xmlns="http://www.w3.org/2000/svg" xmlns:xlink="http://www.w3.org/1999/xlink">
    <!-- Generator: Sketch 50.2 (55047) - http://www.bohemiancoding.com/sketch -->
    <title>icons/products/medical</title>
    <desc>Created with Sketch.</desc>
    <defs></defs>
    <g id="Icons" stroke="none" stroke-width="1" fill="none" fill-rule="evenodd">
        <g id="icons" transform="translate(-560.000000, -111.000000)" fill="#FFFFFF">
            <g id="icons/products/medical" transform="translate(560.000000, 111.000000)">
                <path d="M14.8430493,2.38447685 C14.5147982,2.38447685 14.2493274,2.65101958 14.2493274,2.98059606 L14.2493274,4.7689537 L23.7488789,4.7689537 L23.7488789,2.98059606 C23.7488789,2.65101958 23.4834081,2.38447685 23.155157,2.38447685 L14.8430493,2.38447685 Z M26.1237668,4.7689537 L36.8125561,4.7689537 C37.4672646,4.7689537 38,5.30384012 38,5.96119212 L38,29.8077616 C38,30.4651136 37.4672646,31 36.8125561,31 L1.18744395,31 C0.530941704,31 0,30.4651136 0,29.8077616 L0,5.96119212 C0,5.30384012 0.530941704,4.7689537 1.18744395,4.7689537 L11.8744395,4.7689537 L11.8744395,2.38447685 C11.8744395,1.06797188 12.9363229,0 14.2493274,0 L23.7488789,0 C25.0600897,0 26.1237668,1.06797188 26.1237668,2.38447685 L26.1237668,4.7689537 Z M21.373991,15.4990995 L21.373991,11.326265 C21.373991,10.9984895 21.1085202,10.7301458 20.7802691,10.7301458 L17.2179372,10.7301458 C16.8896861,10.7301458 16.6242152,10.9984895 16.6242152,11.326265 L16.6242152,15.4990995 L12.4681614,15.4990995 C12.1399103,15.4990995 11.8744395,15.7674432 11.8744395,16.0952187 L11.8744395,19.673735 C11.8744395,20.0015105 12.1399103,20.2698542 12.4681614,20.2698542 L16.6242152,20.2698542 L16.6242152,24.4426887 C16.6242152,24.7722651 16.8896861,25.0388079 17.2179372,25.0388079 L20.7802691,25.0388079 C21.1085202,25.0388079 21.373991,24.7722651 21.373991,24.4426887 L21.373991,20.2698542 L25.5300448,20.2698542 C25.858296,20.2698542 26.1237668,20.0015105 26.1237668,19.673735 L26.1237668,16.0952187 C26.1237668,15.7674432 25.858296,15.4990995 25.5300448,15.4990995 L21.373991,15.4990995 Z"></path>
            </g>
        </g>
    </g>
</svg>