<?xml version="1.0" encoding="UTF-8"?>
<svg width="31px" height="38px" viewBox="0 0 31 38" version="1.1" xmlns="http://www.w3.org/2000/svg" xmlns:xlink="http://www.w3.org/1999/xlink">
    <!-- Generator: Sketch 50.2 (55047) - http://www.bohemiancoding.com/sketch -->
    <title>icons/products/short-term-disability</title>
    <desc>Created with Sketch.</desc>
    <defs></defs>
    <g id="Icons" stroke="none" stroke-width="1" fill="none" fill-rule="evenodd">
        <g id="icons" transform="translate(-897.000000, -106.000000)" fill="#FFFFFF">
            <g id="icons/products/short-term-disability" transform="translate(897.000000, 106.000000)">
                <path d="M21.4620926,12.9201794 L21.4620926,15.309417 L22.4598269,21.3022422 C22.5714867,21.9784753 23.1568001,22.4735426 23.8447685,22.4735426 C24.5327369,22.4735426 25.1198513,21.9784753 25.233312,21.3022422 L26.2292453,15.309417 L26.2292453,12.9201794 L21.4620926,12.9201794 Z M21.4620926,10.5309417 L26.2292453,10.5309417 L26.2292453,3.36502242 L21.4620926,3.36502242 L21.4620926,10.5309417 Z M4.7689537,12.9201794 L4.7689537,15.309417 L5.76668797,21.3022422 C5.88014872,21.9784753 6.46546215,22.4735426 7.15343055,22.4735426 C7.84319991,22.4735426 8.42851333,21.9784753 8.54017312,21.3022422 L9.5379074,15.309417 L9.5379074,12.9201794 L4.7689537,12.9201794 Z M4.7689537,10.5309417 L9.53610643,10.5309417 L9.53610643,3.36502242 L4.7689537,3.36502242 L4.7689537,10.5309417 Z M5.96299309,35.7399103 L5.96299309,28.444843 C5.30203916,28.444843 4.7689537,27.9139013 4.7689537,27.2573991 L4.7689537,26.0573991 L2.44030674,15.5623318 C2.40248649,15.393722 2.38447685,15.2215247 2.38447685,15.0493274 L2.38447685,3.36502242 L0.596119212,3.36502242 C0.266542729,3.36502242 0,3.09955157 0,2.77130045 L0,0.593721973 C0,0.265470852 0.266542729,0 0.596119212,0 C0.653750073,0 0.713181897,0.00896860987 0.767210829,0.0251121076 C2.89595073,0.660089686 5.02469064,0.977578475 7.15343055,0.977578475 C9.28217045,0.977578475 11.4109104,0.660089686 13.5414512,0.0251121076 C13.854819,-0.068161435 14.1879974,0.10941704 14.2834486,0.423318386 C14.2978563,0.478923767 14.3068611,0.53632287 14.3068611,0.593721973 L14.3068611,2.77130045 C14.3068611,3.09955157 14.0403184,3.36502242 13.7107419,3.36502242 L11.9223842,3.36502242 L11.9223842,15.0493274 C11.9223842,15.2215247 11.9025736,15.393722 11.8665543,15.5623318 L9.5379074,26.0573991 L9.5379074,27.2573991 C9.5379074,27.9139013 9.00482194,28.444843 8.34566897,28.444843 L8.34566897,35.7399103 C8.41410562,35.7919283 8.46993551,35.8618834 8.51135769,35.9408072 L8.94178818,36.8053812 C9.14529716,37.2143498 8.97780747,37.709417 8.56898856,37.9139013 C8.49875094,37.9479821 8.42311044,37.9730942 8.34566897,37.9874439 L8.34566897,38 L5.96299309,38 L5.96299309,37.9874439 C5.57398478,37.9174888 5.27862662,37.5802691 5.27862662,37.1730942 C5.27862662,37.0457399 5.30744205,36.9201794 5.36507291,36.8053812 L5.79730436,35.9408072 C5.83692558,35.8618834 5.89275548,35.7919283 5.96299309,35.7399103 Z M22.6525301,35.7399103 L22.6525301,28.444843 C21.9951781,28.444843 21.4620926,27.9139013 21.4620926,27.2573991 L21.4620926,26.0573991 L19.1334457,15.5623318 C19.0956254,15.393722 19.0776158,15.2215247 19.0776158,15.0493274 L19.0776158,3.36502242 L17.2892581,3.36502242 C16.9596816,3.36502242 16.6931389,3.09955157 16.6931389,2.77130045 L16.6931389,0.593721973 C16.6931389,0.265470852 16.9578807,0 17.2892581,0 C17.346889,0 17.4027189,0.00896860987 17.4585488,0.0251121076 C19.5872887,0.660089686 21.7178295,0.977578475 23.8447685,0.977578475 C25.9753094,0.977578475 28.1040493,0.660089686 30.2327892,0.0251121076 C30.5479579,-0.068161435 30.8793354,0.10941704 30.9747865,0.423318386 C30.9909952,0.478923767 31,0.53632287 31,0.593721973 L31,2.77130045 C31,3.09955157 30.7316563,3.36502242 30.4038808,3.36502242 L28.6155232,3.36502242 L28.6155232,15.0493274 C28.6155232,15.2215247 28.5957125,15.393722 28.5578923,15.5623318 L26.2292453,26.0573991 L26.2292453,27.2573991 C26.2292453,27.9139013 25.6979608,28.444843 25.0370069,28.444843 L25.0370069,35.7399103 C25.1054436,35.7919283 25.1630744,35.8618834 25.2026956,35.9408072 L25.6331261,36.8053812 C25.8384361,37.2143498 25.6709464,37.709417 25.2603265,37.9139013 C25.1900889,37.9479821 25.1144484,37.9730942 25.0370069,37.9874439 L25.0370069,38 L22.6525301,38 L22.6525301,37.9874439 C22.2653227,37.9174888 21.9699646,37.5802691 21.9699646,37.1730942 C21.9699646,37.0457399 22.000581,36.9201794 22.0564109,36.8053812 L22.4886423,35.9408072 C22.5300645,35.8618834 22.5858944,35.7919283 22.6525301,35.7399103 Z"></path>
            </g>
        </g>
    </g>
</svg>