<?xml version="1.0" encoding="UTF-8"?>
<svg width="40px" height="16px" viewBox="0 0 40 16" version="1.1" xmlns="http://www.w3.org/2000/svg" xmlns:xlink="http://www.w3.org/1999/xlink">
    <!-- Generator: Sketch 50.2 (55047) - http://www.bohemiancoding.com/sketch -->
    <title>icons/products/vision</title>
    <desc>Created with Sketch.</desc>
    <defs></defs>
    <g id="Icons" stroke="none" stroke-width="1" fill="none" fill-rule="evenodd">
        <g id="icons" transform="translate(-897.000000, -385.000000)" fill="#FFFFFF">
            <g id="icons/products/vision" transform="translate(897.000000, 385.000000)">
                <path d="M29.3077734,12.674188 C35.4150198,12.674188 35.4150198,8.87193162 35.4150198,6.33517949 C35.4150198,2.53483761 31.7499341,2.53483761 29.3077734,2.53483761 C28.086693,2.53483761 23.2023715,2.53483761 23.2023715,5.06776068 C23.2023715,8.87193162 25.6445323,12.674188 29.3077734,12.674188 M9.76864295,12.674188 C13.4337286,12.674188 15.8758893,8.87193162 15.8758893,5.06776068 C15.8758893,2.53483761 10.9897233,2.53483761 9.76864295,2.53483761 C7.32832675,2.53483761 3.66508564,2.53483761 3.66508564,6.33517949 C3.66508564,8.87193162 3.66508564,12.674188 9.76864295,12.674188 M19.5391304,1.2674188 C21.9812912,1.2674188 25.6445323,0 29.3077734,0 C32.9710145,0 35.8208169,0.844307692 39.0782609,2.53483761 L39.0782609,5.06776068 C38.4105402,5.06776068 37.8608696,5.61340171 37.827668,6.30263248 C37.5399209,12.2395897 35.1069829,15.2090256 30.5288538,15.2090256 C25.1815547,15.2090256 21.9849802,12.2338462 20.9391304,6.27965812 C20.8155468,5.57894017 20.2252964,5.06776068 19.5391304,5.06776068 C18.8511199,5.06776068 18.2627141,5.57894017 18.1391304,6.27965812 C17.0932806,12.2338462 13.8967062,15.2090256 8.54940711,15.2090256 C3.971278,15.2090256 1.53833992,12.2395897 1.25059289,6.30263248 C1.2173913,5.61340171 0.667720685,5.06776068 0,5.06776068 L0,2.53483761 C3.25744401,0.844307692 6.10724638,0 9.76864295,0 C13.4337286,0 17.0969697,1.2674188 19.5391304,1.2674188"></path>
            </g>
        </g>
    </g>
</svg>