<svg width="120" height="31" viewBox="0 0 120 31" xmlns="http://www.w3.org/2000/svg"><title>footer-logo</title><path d="M7.805 17.263c-1.426 0-2.65.514-3.631 1.514-.98 1.008-1.477 2.266-1.477 3.738 0 1.023.218 1.951.654 2.744a4.757 4.757 0 0 0 1.851 1.886 5.3 5.3 0 0 0 2.655.682 5.43 5.43 0 0 0 2.277-.475c.668-.315 1.413-.889 2.206-1.69.08.084 1.742 1.869 1.831 1.954-1.068 1.064-2.092 1.812-3.044 2.226-.967.422-2.085.64-3.318.64-2.28 0-4.173-.759-5.622-2.24C.733 26.756 0 24.832 0 22.507c0-1.503.332-2.854.992-4.021.663-1.162 1.624-2.117 2.854-2.831a7.96 7.96 0 0 1 4.003-1.066c1.21 0 2.391.265 3.511.79a8.456 8.456 0 0 1 2.867 2.21l-1.885 1.843c-1.34-1.436-2.865-2.169-4.537-2.169zm9.515 7.485c0-.918.298-1.682.88-2.272.588-.594 1.33-.894 2.21-.894.896 0 1.649.297 2.226.882.58.583.87 1.351.87 2.284 0 .928-.297 1.7-.89 2.297-.584.596-1.331.894-2.218.894-.886 0-1.628-.298-2.208-.884-.574-.592-.87-1.363-.87-2.307zm-2.475.022c0-1.694.615-3.123 1.826-4.26 1.06-.974 2.298-1.47 3.68-1.47a5.55 5.55 0 0 1 2.826.766 5.484 5.484 0 0 1 2.064 2.092 5.74 5.74 0 0 1 .738 2.852 5.9 5.9 0 0 1-.741 2.88 5.516 5.516 0 0 1-4.88 2.852c-1.513 0-2.823-.568-3.897-1.668-1.073-1.104-1.616-2.466-1.616-4.044zm12.371 5.712V15.225h2.475v15.257h-2.475zm6.805-5.734c0-.918.296-1.682.88-2.272.588-.594 1.329-.894 2.207-.894.9 0 1.648.297 2.227.882.576.583.871 1.351.871 2.284 0 .928-.297 1.7-.887 2.297-.587.596-1.336.894-2.22.894-.887 0-1.63-.298-2.206-.884-.58-.592-.872-1.363-.872-2.307zm-2.475.022c0-1.694.613-3.123 1.826-4.26 1.061-.974 2.3-1.47 3.678-1.47a5.55 5.55 0 0 1 2.826.766 5.512 5.512 0 0 1 2.063 2.092c.492.877.741 1.838.741 2.852 0 1.02-.252 1.986-.746 2.88a5.515 5.515 0 0 1-4.874 2.852c-1.517 0-2.825-.568-3.899-1.668-1.07-1.104-1.615-2.466-1.615-4.044zm15.63-4.302c.598-.535 1.143-.913 1.623-1.115a3.71 3.71 0 0 1 1.484-.314c1.028 0 1.91.382 2.628 1.152.6.642.903 1.622.903 2.896v7.395h-2.5v-4.875c0-1.37-.056-2.248-.171-2.702-.117-.453-.328-.804-.615-1.048-.294-.238-.658-.357-1.084-.357a1.97 1.97 0 0 0-1.431.59c-.392.39-.667.935-.82 1.62-.08.365-.118 1.116-.118 2.309v4.463h-2.539V19.328h2.54v1.232l.1-.092zm9.113 10.014V19.04h2.474v11.443h-2.474zm8.295-8.015c.579-.593 1.318-.885 2.195-.885.897 0 1.65.284 2.237.871.588.579.88 1.343.88 2.276 0 .953-.292 1.733-.88 2.323-.587.59-1.334.887-2.225.887-.866 0-1.605-.306-2.194-.903-.589-.598-.886-1.372-.886-2.297 0-.918.291-1.683.873-2.272zm-3.347 2.316c0-1.681.494-3.07 1.47-4.143.974-1.06 2.173-1.6 3.569-1.6.641 0 1.248.12 1.81.365a5.14 5.14 0 0 1 1.57 1.105l.108.12v-1.31h2.607V30.2h-2.607v-1.255l-.105.108c-.53.503-1.06.873-1.585 1.091a4.301 4.301 0 0 1-1.718.338c-1.38 0-2.59-.553-3.605-1.64-1.003-1.084-1.514-2.45-1.514-4.059zm13.608 5.7V15.224h2.475v15.257h-2.475zm9.279 0V14.588h2.693v13.187h4.11v2.706h-6.803zm15.295-13.919c.072-.605.327-1.093.75-1.444.43-.353 1.051-.53 1.841-.53.56 0 1.206.133 1.908.388v2.032c-.37-.102-.688-.165-.932-.165-.342 0-.598.078-.769.233-.122.116-.182.344-.182.695l-.007 1.49h1.77v2.272h-1.77v8.947h-2.677v-8.947h-1v-2.272h1v-.07c.004-1.477.031-2.361.068-2.629zm12.647 5.28c.549.34.918.789 1.105 1.324l.025.075h-6.186l.044-.082c.314-.593.662-1.015 1.03-1.258.592-.374 1.29-.567 2.068-.567.721 0 1.367.17 1.914.508zm-7.53 2.976c0-1.656.529-3.05 1.568-4.14 1.035-1.09 2.359-1.64 3.918-1.64 1.671 0 3.04.55 4.076 1.64 1.046 1.09 1.572 2.554 1.572 4.343 0 0-.006.362-.012.463h-8.656l.014.076c.123.795.472 1.44 1.02 1.911.55.475 1.265.71 2.12.71 1.003 0 1.874-.363 2.6-1.076.07.034 2.018.972 2.157 1.035-.547.784-1.2 1.374-1.957 1.754-.776.388-1.71.586-2.778.586-1.664 0-3.031-.545-4.07-1.616-1.043-1.072-1.572-2.435-1.572-4.046zm-11.134 5.662V19.04h2.474v11.443h-2.474zm24.67-1.995h-.198v-.544a.944.944 0 0 1 .231-.022c.265 0 .386.114.386.289 0 .197-.188.277-.418.277zm-.628 1.068v-1.902c.165-.022.396-.058.694-.058.341 0 .496.058.618.15.11.082.186.22.186.406 0 .233-.164.383-.374.453v.022c.176.059.263.21.32.465.054.29.098.393.13.464h-.44c-.054-.07-.087-.233-.143-.464-.031-.198-.142-.291-.374-.291h-.197v.755h-.42zm.716.533c.782.012 1.376-.672 1.376-1.508 0-.846-.594-1.53-1.398-1.53-.782 0-1.387.684-1.387 1.52 0 .846.605 1.518 1.409 1.518zm-.011.394c-1.035 0-1.86-.847-1.86-1.913s.825-1.901 1.87-1.901c1.026 0 1.841.835 1.841 1.901s-.815 1.913-1.851 1.913zm-60.148-15.86c-1.193 0-2.164-.998-2.164-2.224 0-1.233.97-2.226 2.164-2.226 1.196 0 2.166.993 2.166 2.226 0 1.226-.97 2.224-2.166 2.224zm10.207-5.403c0 1.574-.833 2.86-1.854 2.86-1.025 0-1.857-1.286-1.857-2.86 0-1.577.832-2.862 1.857-2.862 1.021 0 1.854 1.285 1.854 2.862zm19.485-2.862c-.853 0-1.547-1.425-1.547-3.174 0-1.755.725-3.183 1.58-3.183.85 0 1.513 1.428 1.513 3.183 0 1.75-.694 3.174-1.546 3.174zm-13.61 1.907c-.854 0-1.545-1.57-1.545-3.5 0-1.926.69-3.493 1.545-3.493.854 0 1.548 1.567 1.548 3.493 0 1.93-.694 3.5-1.548 3.5zm20.726 5.722c-1.022 0-1.858-1.143-1.858-2.542 0-1.406.836-2.544 1.858-2.544 1.022 0 1.853 1.138 1.853 2.544 0 1.4-.83 2.542-1.853 2.542zm-13.92-2.543c-.833 0-1.547-2.04-1.547-4.45 0-2.414.714-4.45 1.547-4.45.841 0 1.546 2.036 1.546 4.45 0 2.41-.705 4.45-1.546 4.45z" fill="#FFF" fill-rule="evenodd"/></svg>