<?xml version="1.0" encoding="UTF-8"?>
<svg width="170px" height="81px" viewBox="0 0 170 81" version="1.1" xmlns="http://www.w3.org/2000/svg" xmlns:xlink="http://www.w3.org/1999/xlink">
    <!-- Generator: Sketch 43.2 (39069) - http://www.bohemiancoding.com/sketch -->
    <title>Improper-logo-01</title>
    <desc>Created with Sketch.</desc>
    <defs>
        <rect id="path-1" x="1.84741111e-13" y="0" width="170" height="80.6569343" rx="4"></rect>
    </defs>
    <g id="Pages" stroke="none" stroke-width="1" fill="none" fill-rule="evenodd">
        <g id="Web" transform="translate(-378.000000, -1920.000000)">
            <g id="Logo" transform="translate(370.000000, 566.000000)">
                <g id="Improper-Logo-Usage" transform="translate(8.000000, 1307.000000)">
                    <g id="Improper-logo-01" transform="translate(0.000000, 47.000000)">
                        <g id="Rectangle-7">
                            <use fill="#FFFFFF" fill-rule="evenodd" xlink:href="#path-1"></use>
                            <rect stroke="#DEE5EB" stroke-width="1" x="0.5" y="0.5" width="169" height="79.6569343" rx="4"></rect>
                        </g>
                        <g id="Page-1" transform="translate(31.021898, 23.576642)">
                            <path d="M57.8414867,34.3187597 C66.465959,34.3187597 68.4107119,28.7132387 68.4107119,24.8652339 L68.4107119,13.5335497 L62.0514183,13.5335497 L62.0514183,24.4328521 C62.0514183,27.4218842 60.3730434,28.7277158 57.8414867,28.7277158 C55.3070346,28.7277158 53.6286598,27.4218842 53.6286598,24.4328521 L53.6286598,13.5335497 L47.2693661,13.5335497 L47.2693661,24.8652339 C47.2693661,28.7132387 49.2121887,34.3187597 57.8414867,34.3187597" id="Fill-1" fill="#82C341"></path>
                            <path d="M10.5732788,34.3187597 C19.1996814,34.3187597 21.142504,28.7132387 21.142504,24.8652339 L21.142504,13.5335497 L14.7841754,13.5335497 L14.7841754,24.4328521 C14.7841754,27.4218842 13.1048355,28.7277158 10.5732788,28.7277158 C8.03882663,28.7277158 6.35852154,27.4218842 6.35852154,24.4328521 L6.35852154,13.5335497 L0.000193027581,13.5335497 L0.000193027581,24.8652339 C0.000193027581,28.7132387 1.94687618,34.3187597 10.5732788,34.3187597" id="Fill-3" fill="#82C341"></path>
                            <path d="M34.2069002,12.7468658 C25.5804976,12.7468658 23.6328493,18.3514217 23.6328493,22.1984613 L23.6328493,33.5291803 L29.9931081,33.5291803 L29.9931081,22.6269826 C29.9931081,19.6466367 31.672448,18.3369446 34.2069002,18.3369446 C36.739422,18.3369446 38.4177968,19.6466367 38.4177968,22.6269826 L38.4177968,33.5291803 L44.7770905,33.5291803 L44.7770905,22.1984613 C44.7770905,18.3514217 42.8333028,12.7468658 34.2069002,12.7468658" id="Fill-5" fill="#82C341"></path>
                            <path d="M87.472282,15.9580727 C87.1981829,15.5922854 85.575786,12.7470589 80.3746579,12.7470589 C75.0750856,12.7470589 70.9008642,15.3896065 70.9008642,21.7797845 L70.9008642,33.5293734 L77.1173175,33.5293734 L77.1173175,21.769168 C77.1173175,19.7085986 78.1702829,18.1305981 80.7385149,18.1305981 C83.3096422,18.1305981 84.3616426,19.7085986 84.3616426,21.769168 L84.3616426,33.5293734 L90.5800261,33.5293734 L90.5800261,21.769168 C90.5800261,19.7085986 91.6320264,18.1305981 94.2021886,18.1305981 C96.7713857,18.1305981 97.8243512,19.7085986 97.8243512,21.769168 L97.8243512,33.5293734 L104.040804,33.5293734 L104.040804,21.7797845 C104.040804,15.3896065 99.8656179,12.7470589 94.5670108,12.7470589 C89.3697431,12.7470589 87.7434858,15.5922854 87.472282,15.9580727" id="Fill-7" fill="#82C341"></path>
                            <path d="M28.977783,5.10779933 C28.977783,7.99742222 31.2902534,10.2191697 34.2049699,10.2191697 C37.0916974,10.2191697 39.3617017,7.99742222 39.3617017,5.10779933 C39.3617017,2.22107186 37.0916974,0.000289541371 34.2049699,0.000289541371 C31.2902534,0.000289541371 28.977783,2.22107186 28.977783,5.10779933" id="Fill-9" fill="#00AEDA"></path>
                            <path d="M52.6104393,5.10779933 C52.6104393,7.99742222 54.92484,10.2191697 57.8395564,10.2191697 C60.7262839,10.2191697 62.994358,7.99742222 62.994358,5.10779933 C62.994358,2.22107186 60.7262839,0.000289541371 57.8395564,0.000289541371 C54.92484,0.000289541371 52.6104393,2.22107186 52.6104393,5.10779933" id="Fill-11" fill="#00AEDA"></path>
                            <path d="M82.2442265,5.10779933 C82.2442265,7.99742222 84.5566969,10.2191697 87.4723785,10.2191697 C90.359106,10.2191697 92.6281452,7.99742222 92.6281452,5.10779933 C92.6281452,2.22107186 90.359106,0.000289541371 87.4723785,0.000289541371 C84.5566969,0.000289541371 82.2442265,2.22107186 82.2442265,5.10779933" id="Fill-13" fill="#00AEDA"></path>
                            <path d="M106.641272,11.6563565 L106.780252,11.6563565 C106.942395,11.6563565 107.073654,11.6023088 107.073654,11.47105 C107.073654,11.3552335 106.988722,11.2780225 106.803415,11.2780225 C106.726204,11.2780225 106.672156,11.2857436 106.641272,11.2934647 L106.641272,11.6563565 Z M106.633551,12.3744191 L106.340149,12.3744191 L106.340149,11.1081582 C106.455966,11.0849949 106.618109,11.0705178 106.826578,11.0705178 C107.065933,11.0705178 107.174028,11.1081582 107.266681,11.1622059 C107.336171,11.2162536 107.390219,11.316628 107.390219,11.4401656 C107.390219,11.5791455 107.282124,11.6872409 107.127702,11.7335676 L107.127702,11.7490098 C107.251239,11.7953364 107.320729,11.8879896 107.359335,12.0578539 C107.39794,12.2508815 107.421103,12.3280925 107.451988,12.3744191 L107.135423,12.3744191 C107.096817,12.3280925 107.073654,12.212276 107.035048,12.065575 C107.011885,11.9265951 106.934674,11.8648263 106.772531,11.8648263 L106.633551,11.8648263 L106.633551,12.3744191 Z M105.854685,11.7104042 C105.854685,12.2740448 106.270659,12.7218688 106.842021,12.7218688 C107.39794,12.7218688 107.807159,12.2740448 107.807159,11.7181254 C107.807159,11.1544848 107.39794,10.6999049 106.8343,10.6999049 C106.270659,10.6999049 105.854685,11.1544848 105.854685,11.7104042 L105.854685,11.7104042 Z M108.13048,11.7104042 C108.13048,12.4284668 107.566839,12.9911422 106.8343,12.9911422 C106.109481,12.9911422 105.530398,12.4284668 105.530398,11.7104042 C105.530398,11.0077839 106.109481,10.4451085 106.8343,10.4451085 C107.566839,10.4451085 108.13048,11.0077839 108.13048,11.7104042 L108.13048,11.7104042 Z" id="Fill-15" fill="#00AEDA"></path>
                        </g>
                        <g id="Page-1" transform="translate(4.963504, 4.963504)">
                            <path d="M11.170365,22.3370073 C5.02058394,22.3370073 0,17.3524088 0,11.1678832 C0,5.01810219 5.02058394,0 11.170365,0 C17.3548905,0 22.3382482,5.01810219 22.3382482,11.1678832 C22.3382482,17.3524088 17.3548905,22.3370073 11.170365,22.3370073 L11.170365,22.3370073 Z" id="Path" fill="#FFFFFF"></path>
                            <path d="M6.79490636,17.3722628 L11.1678832,12.9992859 L15.5408601,17.3722628 L17.3722628,15.5408601 L12.9992859,11.1678832 L17.3722628,6.79490636 L15.5408601,4.96350365 L11.1678832,9.3364805 L6.79490636,4.96350365 L4.96350365,6.79490636 L9.3364805,11.1678832 L4.96350365,15.5408601 L6.79490636,17.3722628 Z M0,11.1678832 C0,5.01810219 5.02058394,0 11.170365,0 C17.3548905,0 22.3382482,5.01810219 22.3382482,11.1678832 C22.3382482,17.3524088 17.3548905,22.3370073 11.170365,22.3370073 C5.02058394,22.3370073 0,17.3524088 0,11.1678832 Z" id="Fill-1" fill="#E85656"></path>
                        </g>
                    </g>
                </g>
            </g>
        </g>
    </g>
</svg>