<?xml version="1.0" encoding="UTF-8"?>
<svg width="90px" height="90px" viewBox="0 0 90 90" version="1.1" xmlns="http://www.w3.org/2000/svg" xmlns:xlink="http://www.w3.org/1999/xlink">
    <!-- Generator: Sketch 43.2 (39069) - http://www.bohemiancoding.com/sketch -->
    <title>print-icon-10</title>
    <desc>Created with Sketch.</desc>
    <defs></defs>
    <g id="Pages" stroke="none" stroke-width="1" fill="none" fill-rule="evenodd">
        <g id="Web" transform="translate(-559.000000, -6273.000000)" fill="#727A80">
            <g id="Iconography" transform="translate(375.000000, 5647.000000)">
                <g id="Level-of-Detail" transform="translate(4.000000, 519.000000)">
                    <path d="M269.672067,196.607599 L180.020617,196.607599 L180.020617,195.511171 C180.020617,178.509974 182.331698,169.115788 187.069678,166.790269 C188.29991,166.186133 189.886514,165.265138 191.718842,164.198311 C196.962577,161.145854 204.689603,156.649425 213.328443,154.376528 C207.689422,148.993049 203.884977,139.547334 203.884977,130.52046 C203.884977,116.89515 212.699237,107.006486 224.843649,107.006486 C236.988061,107.006486 245.802322,116.987249 245.802322,130.738637 C245.802322,139.660296 242.157068,148.758441 236.564631,154.170386 C248.304019,156.891744 258.305245,163.335422 262.721596,166.180656 C269.040758,170.251689 269.608148,192.920315 269.652592,195.492533 L269.672067,196.607599 Z" id="print-icon-10"></path>
                </g>
            </g>
        </g>
    </g>
</svg>