<?xml version="1.0" encoding="UTF-8"?>
<svg width="83px" height="79px" viewBox="0 0 83 79" version="1.1" xmlns="http://www.w3.org/2000/svg" xmlns:xlink="http://www.w3.org/1999/xlink">
    <!-- Generator: Sketch 43.2 (39069) - http://www.bohemiancoding.com/sketch -->
    <title>print-icon-06</title>
    <desc>Created with Sketch.</desc>
    <defs></defs>
    <g id="Pages" stroke="none" stroke-width="1" fill="none" fill-rule="evenodd">
        <g id="Web" transform="translate(-392.000000, -6035.000000)" fill="#727A80">
            <g id="Iconography" transform="translate(375.000000, 5647.000000)">
                <g id="Selecting-Icons" transform="translate(0.000000, 135.000000)">
                    <path d="M99.3678462,316.134769 L88.7586154,322.265538 L86.3986154,318.177846 L92.7693846,314.470154 C95.0724615,313.130154 98.0216923,313.877846 99.3678462,316.134769 Z M77.7535385,312.912615 C82.2350769,312.912615 85.9289231,316.528 85.9289231,321.008 C85.9289231,325.488 82.2350769,329.181846 77.7535385,329.181846 C73.2750769,329.181846 69.5796923,325.488 69.5796923,321.008 C69.5796923,319.828 69.8950769,318.649538 70.3658462,317.628 L70.3658462,308.668 L68.3996923,308.668 C68.2443077,321.243385 57.9458462,331.460308 45.2935385,331.460308 C32.5612308,331.460308 22.1873846,321.086462 22.1873846,308.354154 C22.1873846,299.078769 28.8673846,291.061846 36.8058462,287.368 L36.0196923,278.958769 L35.8627692,277.621846 L34.3689231,259.858769 L20.5366154,259.858769 C18.5704615,259.858769 16.9996923,259.466462 16.9996923,257.501846 C16.9996923,255.537231 18.5704615,253.964923 20.5366154,253.964923 L36.4104615,253.964923 C38.2996923,253.964923 39.792,255.378769 39.9489231,257.186462 L40.7350769,265.518769 L41.8350769,265.438769 C43.3289231,265.281846 44.6658462,266.304923 44.8227692,267.797231 L45.6089231,274.478769 L72.7243077,274.478769 C74.6889231,274.478769 76.2612308,276.049538 76.2612308,278.015692 L76.2612308,299.551077 L82.3135385,299.551077 L82.3135385,308.668 L76.2612308,308.668 L76.2612308,312.912615 L77.7535385,312.912615 Z M77.9135385,325.101846 C80.0843077,325.101846 81.8443077,323.341846 81.8443077,321.171077 C81.8443077,319.000308 80.0843077,317.241846 77.9135385,317.241846 C75.7427692,317.241846 73.9812308,319.000308 73.9812308,321.171077 C73.9812308,323.341846 75.7427692,325.101846 77.9135385,325.101846 Z M70.2873846,299.551077 L70.2873846,280.451077 L46.0012308,280.451077 C46.0012308,280.451077 46.472,284.538769 46.552,285.324923 C55.5904615,285.795692 63.292,291.534154 66.5935385,299.551077 L70.2873846,299.551077 Z M45.2443077,325.749538 C54.7012308,325.749538 62.3689231,318.081846 62.3689231,308.623385 C62.3689231,299.164923 54.7012308,291.498769 45.2443077,291.498769 C35.7858462,291.498769 28.1181538,299.164923 28.1181538,308.623385 C28.1181538,318.081846 35.7858462,325.749538 45.2443077,325.749538 Z M42.7269231,309.451538 C42.7269231,307.713077 44.1361538,306.302308 45.8761538,306.302308 C47.6161538,306.302308 49.0253846,307.713077 49.0253846,309.451538 C49.0253846,311.191538 47.6161538,312.600769 45.8761538,312.600769 C44.1361538,312.600769 42.7269231,311.191538 42.7269231,309.451538 Z" id="print-icon-06"></path>
                </g>
            </g>
        </g>
    </g>
</svg>