<?xml version="1.0" encoding="UTF-8"?>
<svg width="94px" height="90px" viewBox="0 0 94 90" version="1.1" xmlns="http://www.w3.org/2000/svg" xmlns:xlink="http://www.w3.org/1999/xlink">
    <!-- Generator: Sketch 43.2 (39069) - http://www.bohemiancoding.com/sketch -->
    <title>print-icon-12</title>
    <desc>Created with Sketch.</desc>
    <defs></defs>
    <g id="Pages" stroke="none" stroke-width="1" fill="none" fill-rule="evenodd">
        <g id="Web" transform="translate(-913.000000, -6273.000000)" fill="#727A80">
            <g id="Iconography" transform="translate(375.000000, 5647.000000)">
                <g id="Level-of-Detail" transform="translate(4.000000, 519.000000)">
                    <path d="M588.883754,112.782534 L588.257599,110.489687 L591.820064,114.625833 L591.820064,116.404162 C594.483949,117.532739 596.678428,119.238767 598.406433,121.524284 C597.642808,121.338784 596.930734,121.181605 596.267696,121.052704 C594.944136,120.794944 594.505743,120.831595 594.95168,121.160656 C595.440785,121.545233 596.346909,123.096163 597.672146,125.810281 C598.926133,128.423777 599.673832,130.231425 599.917756,131.230103 C600.105519,132.002423 599.789926,134.337169 598.969302,138.237505 C598.565696,140.193961 598.142391,142.06554 597.694359,143.851198 L597.219084,144.621436 C597.048086,145.079356 597.356553,145.177854 598.147421,144.921135 C598.926133,144.664375 599.407695,144.936837 599.59462,145.736395 C599.694788,146.149293 599.716162,146.586264 599.660001,147.042102 L598.191008,152.120326 C597.168371,155.562742 596.506172,157.441651 596.203153,157.757093 C595.88756,158.069369 595.412286,158.09136 594.777329,157.81994 C594.446648,157.735061 594.259723,157.52024 594.215297,157.177561 L594.303311,158.14167 C594.288223,159.15709 594.165842,160.329732 593.935749,161.656387 C593.691825,162.986187 592.977655,164.554918 591.799108,166.369913 L589.508233,169.02848 C589.077385,170.728202 588.802446,171.761448 588.688447,172.134505 C588.645279,172.134505 588.623066,172.155463 588.623066,172.198431 C588.595823,172.354569 588.614683,172.334657 588.688447,172.134505 C588.94746,172.150223 590.042603,173.126886 591.970106,175.068674 C593.09375,176.171084 594.201886,177.30598 595.295772,178.477551 C611.577913,183.862801 622.181905,187.296825 627.10565,188.783821 L627.10565,196.990065 L534.334033,196.990065 L534.334033,193.647209 C535.730268,193.246901 537.099093,192.889561 538.437239,192.577284 C539.55996,191.706462 542.821376,189.876798 548.219432,187.091433 C550.838724,185.72076 553.365979,184.433916 555.799352,183.234049 L555.799352,182.356942 C555.799352,180.48536 556.554594,178.741629 558.065918,177.12993 C558.814874,176.326177 559.562572,175.715243 560.312366,175.284548 C560.959058,174.66942 561.428046,173.911776 561.715139,173.012662 C561.945232,172.297982 562.18287,171.828513 562.428051,171.60007 C561.838778,170.185379 561.018153,169.064106 559.967017,168.234157 C558.224343,166.834138 556.994244,164.413448 556.272531,160.972069 C556.042438,159.884348 555.876469,158.77043 555.776301,157.629233 L555.710919,156.214534 C554.689539,156.571874 553.976627,156.693444 553.574278,156.579204 C553.170672,156.465005 552.587685,154.872177 551.825317,151.80072 C550.989773,148.472544 550.651799,145.794036 550.810224,143.765278 C550.953855,141.8937 551.594973,140.99352 552.731441,141.065863 C553.293472,141.109843 553.832033,141.338324 554.351734,141.75118 C553.991296,140.622561 553.617447,139.379743 553.227671,138.022684 C552.451473,135.323269 552.026911,133.18027 551.955243,131.594773 C551.882317,130.080534 552.702941,127.787687 554.417115,124.716229 C554.834133,123.974312 555.387782,123.002872 556.07932,121.801993 C556.525256,120.959454 556.690806,120.481585 556.575969,120.366345 C556.389883,120.166185 556.389883,119.910466 556.575969,119.595065 C556.849231,119.152847 557.001369,118.853148 557.029869,118.695968 C557.100699,118.167788 557.728112,117.610288 558.908755,117.023468 C559.385287,116.781409 561.666522,115.54488 565.753717,113.318044 L566.185823,112.695573 L565.040805,111.988223 L564.242394,110.574607 L563.616238,108.989067 L567.178703,109.738356 L566.379034,109.522495 L567.804859,109.245827 C568.150208,108.887446 568.265464,108.709276 568.150208,108.709276 L568.236965,107.936997 L568.862282,108.365597 L569.402939,108.194756 L569.921382,107.208657 L570.181232,107.894016 C570.38115,108.423196 570.598669,108.901065 570.828763,109.329665 C571.030356,109.729985 571.210156,109.965755 571.369419,110.037014 C571.656931,110.165915 571.887024,110.315764 572.05928,110.486563 C572.363556,110.772643 572.621311,110.857522 572.837574,110.744364 C572.938999,110.687764 573.010668,110.601845 573.052998,110.486563 C572.750817,109.958425 572.447798,109.544485 572.146875,109.244786 C571.974619,109.058245 571.816194,108.751215 571.6716,108.322616 L571.541675,107.744167 L573.052998,108.364514 L574.393323,109.521412 L575.990146,109.608415 L575.278491,108.644305 C575.278491,108.288048 575.125096,107.960028 574.825429,107.659288 C574.637247,107.472747 574.925597,107.565996 575.688384,107.936997 C576.063072,108.123497 576.459134,108.329946 576.876571,108.559426 L577.76132,108.644305 L578.321255,108.880116 C578.739531,109.108555 579.11338,109.351655 579.444899,109.608415 C579.792344,109.866174 580.027886,109.707953 580.157811,109.136834 C580.258398,108.422155 580.32378,107.986225 580.351022,107.830086 C580.380779,107.643545 580.610872,107.486365 581.042978,107.357465 C581.257565,107.300907 581.466702,107.250596 581.668296,107.207615 L583.115076,109.608415 C583.287331,109.894495 583.640225,110.394354 584.172499,111.107993 L584.498569,110.851233 C584.713156,110.651073 584.784824,110.443582 584.713156,110.228762 L583.807032,107.486365 L584.131007,107.530387 C584.376188,107.615266 584.599157,107.809137 584.80075,108.108837 C585.0891,108.565715 585.772675,109.707953 586.853149,111.536592 L588.082409,113.657559 L588.883754,112.782534 Z" id="print-icon-12"></path>
                </g>
            </g>
        </g>
    </g>
</svg>