<?xml version="1.0" encoding="UTF-8"?>
<svg width="72px" height="90px" viewBox="0 0 72 90" version="1.1" xmlns="http://www.w3.org/2000/svg" xmlns:xlink="http://www.w3.org/1999/xlink">
    <!-- Generator: Sketch 43.2 (39069) - http://www.bohemiancoding.com/sketch -->
    <title>print-icon-13</title>
    <desc>Created with Sketch.</desc>
    <defs></defs>
    <g id="Pages" stroke="none" stroke-width="1" fill="none" fill-rule="evenodd">
        <g id="Web" transform="translate(-1073.000000, -6273.000000)" fill="#727A80">
            <g id="Iconography" transform="translate(375.000000, 5647.000000)">
                <g id="Level-of-Detail" transform="translate(4.000000, 519.000000)">
                    <path d="M765.175413,133.067335 L765.175413,133.158861 C764.864145,133.072812 764.356108,133.009289 763.886184,132.998022 C764.653338,135.598383 765.126617,138.393499 765.147897,141.315306 C765.257962,150.717387 762.614933,160.99113 762.614933,160.99113 C760.962856,162.502515 761.623246,168.013344 761.623246,168.013344 L760.962856,168.013344 C760.85169,149.094769 754.247419,151.149093 754.247419,150.389779 C754.247419,149.636663 755.458868,147.6895 755.458868,142.183799 C755.458868,136.666784 747.853372,134.391977 746.976887,134.830854 C746.113243,135.246057 744.82218,137.756768 735.914247,135.503617 C735.895169,135.891003 735.851143,136.370056 735.81739,136.892384 L735.914247,135.491258 C735.749149,135.453136 735.582584,135.406762 735.410149,135.370729 C726.054985,132.882646 720.326464,134.075683 719.881435,134.075683 C718.563956,135.370729 709.859643,139.260947 709.09359,140.773377 C708.314696,142.285771 709.09359,145.208623 709.971909,146.611838 C709.532383,146.50057 707.989271,144.123755 707.989271,144.123755 C707.989271,144.123755 707.329981,147.041454 706.889354,147.908938 C706.450561,151.801246 702.812543,155.790373 702.485283,156.555848 C702.485283,158.067269 701.049301,167.694996 701.049301,167.694996 L700.390011,167.694996 C700.61381,163.46991 699.397224,161.095156 698.743438,159.697129 C698.079012,158.285663 696.097473,146.827169 696.315769,145.7454 C696.429136,145.210677 696.215977,143.647801 695.978603,141.936544 C695.829648,142.38677 694.606825,143.802345 694.027516,144.951062 C694.210224,144.250482 695.53981,142.37542 695.613554,141.109236 C695.630064,140.875385 695.679593,140.547741 695.75407,140.173759 C695.604015,139.01679 695.508258,137.932967 695.551551,137.206623 C695.551551,137.037667 695.561823,136.870764 695.561823,136.712113 C695.2397,137.079897 694.884923,137.494055 694.541887,138.009212 C694.639478,137.350862 695.13257,136.25468 695.75407,135.068849 C696.044642,133.383354 696.611477,132.01001 697.367257,130.788146 C697.18565,130.966363 696.997806,131.160038 696.821702,131.356848 C696.987166,130.946797 697.459712,130.35853 698.086349,129.716682 C699.68376,127.512932 701.788204,125.589442 703.686827,122.724315 C704.704195,120.731787 705.786135,118.537369 706.033781,118.284961 C705.671667,118.376664 705.633144,118.471429 705.443832,118.190123 C705.734771,118.127355 706.388558,117.995439 707.101412,117.836788 C707.980832,116.951757 709.003337,116.091516 710.133705,115.297178 C710.245971,114.65951 710.334024,114.041336 710.482978,113.823916 C710.659449,113.582894 711.422567,113.787847 712.144594,114.015573 C713.215527,113.388102 714.361304,112.799871 715.54854,112.258986 C715.71327,111.932387 715.85929,111.632596 716.013748,111.519274 C715.971556,111.689239 715.971556,111.821083 716.341008,111.912821 C716.562606,111.82011 716.779801,111.735649 716.996996,111.644991 C717.407539,111.2246 717.826153,110.430262 717.847432,109.927536 C718.216517,110.218031 718.539008,110.656907 718.726852,110.999973 C718.844255,110.951545 718.973398,110.906216 719.102541,110.871265 C719.218109,110.440604 719.306161,110.0027 719.435304,109.880081 C719.905649,110.252009 721.224962,110.20668 721.928278,109.928509 C722.628292,109.647311 723.581089,108.426456 724.353745,108.053448 C723.988329,108.426456 723.913852,108.331655 723.65153,108.798312 C724.24258,108.564497 728.098526,108.426456 729.460031,108.471785 C729.197709,108.286326 728.285637,107.727893 727.623412,107.342597 C728.832293,107.437399 729.830583,108.286326 731.073218,108.702538 C731.771397,108.657209 730.60214,108.331655 730.012191,107.763926 C730.623052,107.763926 731.630514,108.436726 732.40097,108.798312 C732.702181,108.807609 732.992019,108.826129 733.29213,108.847821 C734.633456,108.69843 736.635173,108.826129 738.168746,108.98788 C737.49258,109.033208 737.49258,109.109453 736.753676,109.283599 C738.683117,109.627745 740.5146,110.131516 742.247391,110.755816 C743.754549,110.917566 745.627122,111.299764 746.635685,111.661458 C745.959886,111.569719 745.797356,111.652162 744.784391,111.78505 C744.828417,111.800544 744.868407,111.821083 744.909131,111.840648 C746.130854,112.060122 748.455795,112.818391 749.242026,113.303642 C748.908162,113.303642 748.608051,113.265555 748.06433,113.460275 C748.179898,113.526215 748.292165,113.593163 748.40333,113.668327 C749.948277,114.15873 752.631297,115.854602 753.121453,116.347022 C753.086599,116.336753 753.05945,116.326412 753.037437,116.326412 C753.141265,116.352175 753.289119,116.408854 752.732923,116.299676 C752.732923,116.495441 753.066788,116.831264 753.338648,117.147522 C753.767902,117.502983 754.18138,117.857399 754.563306,118.211815 C755.910135,118.721783 757.431968,119.45119 758.632778,120.339284 C757.697592,120.021982 757.678881,120.087921 756.31224,119.901381 C756.506321,120.105361 756.693065,120.309377 756.887146,120.526798 C758.469148,121.860975 761.485665,124.613825 762.171003,125.917086 C761.800451,125.348385 761.213804,125.348385 760.701635,125.02384 C761.355421,125.629619 761.490801,126.654745 761.859152,127.857043 C762.212828,128.57618 762.546692,129.323099 762.857443,130.07726 C763.610939,131.318633 764.265681,131.822105 765.175412,133.067339 L765.175413,133.067335 Z M716.08419,159.536028 C716.037962,159.711578 716.012647,159.8952 716.012647,160.08347 C716.012647,161.392929 717.1166,162.448935 718.471868,162.448935 C719.82897,162.448935 720.926686,161.393938 720.926686,160.08347 C720.926686,159.838053 720.888163,159.601535 720.81552,159.380115 C720.832397,159.385268 720.84964,159.390348 720.866884,159.395249 C721.060232,159.449874 721.2323,159.528137 721.415008,159.597175 C721.584875,159.669312 721.758044,159.749665 721.917639,159.820757 C722.002756,159.86814 722.077233,159.904208 722.164184,159.944385 C722.238662,159.99692 722.31424,160.03915 722.383581,160.077273 C722.527399,160.167931 722.678555,160.246229 722.808799,160.333824 C723.064883,160.518239 723.315465,160.671738 723.51505,160.845847 C723.717569,161.009651 723.896242,161.151835 724.02832,161.268256 C724.306417,161.518611 724.457573,161.673154 724.457573,161.673154 L724.557366,161.57529 C724.557366,161.57529 724.410246,161.423809 724.146823,161.151835 C724.01768,161.009651 723.845612,160.859251 723.648228,160.686151 C723.45965,160.502781 723.214939,160.328672 722.967292,160.120548 C722.83925,160.021639 722.689928,159.940277 722.538772,159.83517 C722.470899,159.788796 722.39422,159.731108 722.320844,159.683725 C722.238662,159.64045 722.154645,159.593067 722.077233,159.543595 C721.906999,159.450883 721.741168,159.351974 721.563963,159.269567 C721.376852,159.18817 721.199647,159.098557 720.999329,159.031572 C720.801946,158.956372 720.609699,158.881172 720.399841,158.827592 C720.300049,158.797685 720.189984,158.770913 720.089091,158.742087 C719.984162,158.716324 719.881435,158.694668 719.774305,158.665842 C719.345051,158.576193 718.889382,158.536017 718.443251,158.518505 C717.994186,158.525711 717.542919,158.536017 717.110363,158.609163 C716.889132,158.638025 716.673772,158.694668 716.460612,158.736934 C716.250755,158.78947 716.043099,158.832745 715.844615,158.903837 C715.44251,159.022312 715.061685,159.171667 714.713146,159.322103 C714.358369,159.4787 714.027807,159.645603 713.745307,159.806308 C713.454735,159.975301 713.192413,160.134961 712.965312,160.287451 C712.74188,160.438895 712.547799,160.582089 712.392607,160.69851 C712.23925,160.824227 712.12148,160.914885 712.034529,160.990085 C711.99674,161.023055 711.960051,161.051917 711.938038,161.073537 C711.91786,161.095156 711.907587,161.0993 711.907587,161.0993 L712.558072,161.753507 C712.558072,161.753507 712.569812,161.751453 712.590724,161.729797 C712.602465,161.723636 712.635851,161.686558 712.667403,161.65975 C712.731608,161.593811 712.839471,161.504198 712.965312,161.38057 C713.107296,161.268256 713.273128,161.129171 713.480784,160.980825 C713.674132,160.823182 713.911138,160.654226 714.167223,160.495575 C714.436149,160.313214 714.724519,160.162778 715.04701,159.99692 C715.358494,159.83517 715.700796,159.67342 716.066212,159.543595 C716.072083,159.541072 716.077953,159.53855 716.08419,159.536028 Z M742.634086,159.543703 C742.466054,159.628343 742.308294,159.704804 742.1498,159.796039 C741.786585,159.995875 741.452721,160.214305 741.141237,160.433743 C740.836724,160.654226 740.560827,160.880871 740.31208,161.0993 C740.062232,161.30328 739.84467,161.521709 739.667466,161.706124 C739.480722,161.897745 739.321128,162.068756 739.195287,162.211985 C738.942137,162.503524 738.826935,162.687939 738.826935,162.687939 L738.933699,162.764184 C738.933699,162.764184 739.066144,162.602434 739.331767,162.322208 C739.453206,162.193428 739.622339,162.034777 739.813485,161.861676 C740.006466,161.670055 740.217424,161.478434 740.470574,161.285768 C740.729594,161.084887 741.01613,160.880871 741.313305,160.673792 C741.624056,160.486278 741.967092,160.286442 742.320768,160.106135 C742.370664,160.081453 742.421661,160.057527 742.473758,160.03407 C742.444407,160.180938 742.428998,160.333752 742.428998,160.490422 C742.428998,161.793683 743.527815,162.853822 744.886018,162.853822 C746.242386,162.853822 747.341203,161.793683 747.341203,160.490422 C747.341203,160.095938 747.241777,159.726676 747.067874,159.401879 C747.091355,159.407752 747.114835,159.414418 747.138683,159.422057 C747.322125,159.441623 747.507034,159.498266 747.690843,159.550801 C747.779995,159.573502 747.87245,159.593067 747.961603,159.629136 C748.039015,159.654863 748.128535,159.692986 748.209249,159.714641 C748.2951,159.745557 748.383519,159.774383 748.47047,159.809407 C748.543847,159.836215 748.622727,159.879454 748.703441,159.914514 C748.853497,159.983516 749.007955,160.030935 749.149572,160.114386 C749.420332,160.262732 749.676416,160.384306 749.892878,160.524401 C750.104936,160.661432 750.301219,160.776809 750.444671,160.890167 C750.731207,161.104453 750.911713,161.22808 750.911713,161.22808 L751.410308,160.562523 C751.410308,160.562523 751.222464,160.446102 750.898139,160.227709 C750.728272,160.120548 750.524651,160.001028 750.285443,159.86814 C750.04917,159.724947 749.759332,159.609534 749.454085,159.464287 C749.30403,159.395249 749.130861,159.3283 748.959526,159.264415 C748.88725,159.239696 748.795896,159.202583 748.703441,159.171667 C748.610987,159.140787 748.524035,159.116069 748.433782,159.091314 C748.339493,159.058344 748.243736,159.02642 748.138807,159.00271 C748.049655,158.965633 747.954265,158.96048 747.851171,158.931654 C747.653787,158.889388 747.452368,158.842005 747.231137,158.813143 C747.13318,158.796676 747.032653,158.782263 746.914884,158.767814 C746.809955,158.7565 746.702825,158.760608 746.587624,158.751347 C746.484529,158.736934 746.373364,158.727638 746.264399,158.727638 C746.151032,158.73279 746.045003,158.736934 745.933837,158.727638 C745.482203,158.741042 745.036073,158.796676 744.600582,158.880127 C744.378251,158.935762 744.147114,158.96974 743.944594,159.040833 C743.829026,159.071749 743.724097,159.107817 743.62137,159.140787 C743.515341,159.178909 743.409311,159.222184 743.31172,159.257208 C743.208993,159.297384 743.109201,159.335507 743.00097,159.378782 C742.955476,159.402347 742.907781,159.424111 742.858986,159.444757 C742.787811,159.467638 742.717002,159.491348 742.647294,159.515778 C742.642892,159.525038 742.638489,159.534334 742.634086,159.543703 Z M728.284903,179.328669 C728.097425,179.463802 727.685048,179.528898 727.211768,179.490398 C726.634294,179.434828 726.176423,179.252694 726.105248,179.052541 L726.005822,179.133928 C726.005822,179.133928 725.995183,179.109198 725.978306,179.100961 C725.957394,179.057686 725.926942,179.018537 725.926942,178.945395 C725.937582,178.872245 725.978306,178.800122 726.030036,178.738312 C726.082501,178.689884 726.151842,178.630131 726.233657,178.588925 C726.389949,178.478687 726.591368,178.409663 726.827641,178.329296 C726.946145,178.289119 727.07859,178.272631 727.219106,178.259238 C727.289548,178.235543 727.364025,178.235543 727.433366,178.221122 L727.510045,178.221122 C727.518483,178.221122 727.555905,178.235543 727.588558,178.235543 C727.64836,178.235543 727.691652,178.259238 727.739714,178.273669 C728.083117,178.386995 728.340302,178.573467 728.617299,178.758915 C728.891361,178.946421 729.169459,179.134962 729.45783,179.320403 C729.741431,179.511001 730.046678,179.674812 730.352292,179.79123 C730.665977,179.922071 730.993604,179.988014 731.294816,179.970492 L731.435332,179.970492 L731.542462,179.970492 C731.620241,179.951953 731.702057,179.933403 731.78057,179.922071 C731.947502,179.881891 732.10196,179.842742 732.264489,179.79123 C732.584778,179.657297 732.884889,179.491425 733.185,179.320403 C733.473737,179.134962 733.768712,178.968059 734.051946,178.78158 C734.342884,178.611589 734.61768,178.464263 734.929531,178.352998 C735.078486,178.290146 735.243217,178.260272 735.41235,178.260272 C735.577081,178.260272 735.708425,178.274696 735.82913,178.312811 C736.083013,178.37051 736.280397,178.479714 736.432653,178.574501 C736.511166,178.611589 736.57427,178.669281 736.628936,178.721827 C736.682501,178.759942 736.727628,178.822787 736.753676,178.891818 C736.759913,178.931998 736.764316,178.969086 736.753676,179.002059 C736.742303,179.045327 736.727628,179.059747 736.710751,179.059747 C736.682501,179.103019 736.667826,179.103019 736.667826,179.103019 L736.608757,179.014847 C736.514835,179.206569 736.067604,179.384556 735.512142,179.42858 C735.063077,179.454682 734.670511,179.401199 734.472394,179.285726 C734.458086,179.297472 734.443411,179.309374 734.428735,179.32143 C734.169715,179.512035 733.896754,179.734565 733.59114,179.934437 C733.285893,180.143581 732.950928,180.347572 732.571204,180.510349 C732.378957,180.590705 732.181573,180.660767 731.968781,180.723611 C731.864586,180.744222 731.757823,180.759673 731.650693,180.78131 L731.469085,180.800887 L731.31903,180.800887 C730.859325,180.800887 730.426769,180.700943 730.040441,180.534044 C729.656314,180.370237 729.32355,180.144608 729.021238,179.935464 C728.753413,179.735383 728.509803,179.518636 728.284903,179.328669 Z M726.097543,179.023679 C726.096809,179.020032 726.096442,179.016375 726.096076,179.012711 L726.096076,179.020598 C726.096442,179.021672 726.097176,179.022699 726.097543,179.023679 Z M717.824319,186.058277 C717.824319,186.058277 721.070504,186.466259 722.28709,186.466259 C723.51505,186.466259 724.661194,186.22724 726.670248,186.277726 C728.638212,186.316868 730.396318,187.304887 730.922062,187.400702 C731.447072,187.495482 732.830223,186.483771 734.090835,186.615646 C735.490129,186.746487 736.54602,187.735534 738.179019,188.033278 C739.831096,188.336175 742.553005,189.335523 743.022983,189.335523 C743.503967,189.335523 741.263776,189.265465 736.379088,188.485562 C733.348997,188.014736 731.770297,189.117112 730.719542,188.893544 C728.102929,188.336175 728.419916,187.515058 726.528631,187.400702 C724.548928,187.267799 720.760855,186.689826 717.824319,186.058277 Z M718.808667,183.051991 C718.808667,183.051991 718.776014,183.070537 718.702638,183.107626 C718.62706,183.128229 718.525433,183.182833 718.390787,183.238467 C718.121127,183.327067 717.731864,183.461 717.265555,183.599055 C717.041022,183.664991 716.793376,183.719599 716.53509,183.796867 C716.290745,183.872078 716.028423,183.96377 715.797287,184.076069 C715.743722,184.097699 715.691257,184.127581 715.636592,184.149211 C715.57679,184.170849 715.529829,184.20691 715.487637,184.248117 C715.397384,184.306843 715.326942,184.371752 715.272643,184.427386 C715.254666,184.470654 715.225315,184.488169 715.213575,184.528346 C715.207338,184.544834 715.198166,184.565434 715.187526,184.582949 C715.187526,184.59738 715.176887,184.619011 715.176887,184.639614 C715.1435,184.697313 715.1435,184.787975 715.1435,184.897178 C715.1435,185.108383 715.213575,185.362859 715.293556,185.629691 C715.38491,185.885194 715.488738,186.149976 715.604306,186.39517 C715.631455,186.467293 715.659705,186.527049 715.692358,186.594009 C715.722809,186.653765 715.750326,186.707338 715.777475,186.784614 C715.836176,186.894844 715.894878,187.025693 715.957982,187.135931 C716.066946,187.380098 716.182515,187.606757 716.290745,187.815897 C716.387236,188.035339 716.482625,188.215639 716.568843,188.406233 C716.648457,188.574163 716.718898,188.724581 716.784937,188.857483 C716.889866,189.118139 716.944532,189.284011 716.944532,189.284011 C716.944532,189.284011 716.80585,189.19335 716.581317,189.004809 C716.471252,188.913121 716.33257,188.814215 716.190953,188.666889 C716.039797,188.538101 715.872865,188.388721 715.707033,188.215639 C715.620082,188.126004 715.536066,188.035339 715.444712,187.937464 C715.359595,187.825169 715.272643,187.737595 715.176887,187.62633 C715.089935,187.517119 715.004818,187.401729 714.913464,187.268826 C714.82211,187.156534 714.742497,187.025693 714.651142,186.894844 C714.614454,186.83818 714.564191,186.765037 714.532639,186.690853 C714.489347,186.617711 714.448623,186.558985 714.411934,186.485835 C714.329019,186.336444 714.255642,186.185 714.189236,186.019127 C714.062294,185.705932 713.950028,185.349462 713.933151,184.918816 C713.933151,184.716886 713.954064,184.489196 714.028541,184.264602 C714.051655,184.207937 714.072934,184.151272 714.094947,184.098737 C714.125398,184.041034 714.152548,183.987461 714.182999,183.950373 C714.245002,183.840135 714.327918,183.759779 714.404597,183.666026 C714.477973,183.575364 714.56309,183.497062 714.650042,183.43937 C714.741396,183.387858 714.83275,183.318827 714.917867,183.275555 C715.003718,183.239497 715.101309,183.199318 715.186426,183.167382 C715.271543,183.12926 715.358494,183.108656 715.432238,183.088053 C715.776374,183.000479 716.087125,182.962357 716.376596,182.920123 C716.665333,182.920123 716.933892,182.910845 717.180805,182.920123 C717.672796,182.920123 718.0749,182.962357 718.360335,183.000479 C718.497917,183.021083 718.615686,183.031388 718.693099,183.031388 C718.776014,183.051991 718.808667,183.051991 718.808667,183.051991 Z M724.918379,190.068032 C724.918379,190.068032 724.962405,190.086578 725.047522,190.125731 C725.134474,190.177243 725.248941,190.216393 725.400097,190.313237 C725.700208,190.458499 726.124326,190.66867 726.632459,190.887092 C726.695563,190.906661 726.7583,190.925207 726.826541,190.968478 C726.891846,190.982899 726.955684,191.003509 727.018788,191.033384 C727.155268,191.076652 727.288447,191.113747 727.395577,191.133317 L727.470054,191.133317 L727.59296,191.133317 L727.856383,191.133317 C728.02625,191.146713 728.203822,191.146713 728.37589,191.167313 C728.745342,191.167313 729.114794,191.202348 729.489382,191.223978 C729.86507,191.24768 730.246262,191.284769 730.63039,191.314647 L730.770906,191.314647 L730.811997,191.314647 L730.825572,191.314647 L730.837312,191.314647 L730.867396,191.336281 L730.94114,191.336281 L731.22254,191.395007 C731.412218,191.44858 731.598228,191.467122 731.779836,191.523787 C732.143784,191.598994 732.5081,191.692751 732.868012,191.765897 C733.02137,191.823592 733.188302,191.856558 733.347896,191.898799 L733.412835,191.913223 L733.450624,191.913223 L733.536841,191.913223 C733.610218,191.936918 733.685796,191.936918 733.760273,191.936918 C734.072124,191.956494 734.375537,191.936918 734.651434,191.936918 C734.929531,191.913223 735.190019,191.898799 735.41235,191.875104 C735.639084,191.855531 735.82913,191.846257 735.980286,191.802985 C736.058065,191.781351 736.130341,191.781351 736.183906,191.765897 C736.243708,191.747354 736.293971,191.722625 736.333962,191.714385 C736.389728,191.671113 736.433754,191.656689 736.433754,191.656689 L736.571335,191.764866 C736.571335,191.764866 736.537582,191.822562 736.464205,191.897769 C736.433754,191.935887 736.389728,191.968857 736.333962,192.0214 C736.280397,192.064671 736.208121,192.10279 736.130341,192.155333 C735.970747,192.247025 735.776665,192.363446 735.553967,192.433504 C735.323197,192.534467 735.059775,192.624102 734.771038,192.702401 C734.481566,192.775547 734.170816,192.835303 733.823377,192.888876 C733.732023,192.9033 733.64177,192.9033 733.548215,192.9033 C733.505289,192.924934 733.441085,192.924934 733.379448,192.924934 L733.29213,192.924934 L733.22389,192.924934 L733.188302,192.924934 L733.184266,192.924934 L733.139873,192.9033 L733.123363,192.9033 L733.064295,192.9033 L732.928915,192.888876 C732.844899,192.867242 732.75171,192.845605 732.669895,192.845605 C732.315119,192.789971 731.960343,192.733309 731.584654,192.659129 C731.393507,192.644705 731.2119,192.602464 731.022955,192.564346 L730.743757,192.511803 L730.664877,192.511803 C730.654604,192.493257 730.695328,192.511803 730.683955,192.511803 L730.673315,192.511803 L730.664877,192.511803 L730.620851,192.493257 L730.480334,192.493257 C730.105746,192.454108 729.719418,192.402595 729.343362,192.363446 C728.97391,192.323266 728.604825,192.26351 728.250783,192.213028 C728.073578,192.173879 727.896006,192.155333 727.730175,192.123397 C727.645425,192.123397 727.559207,192.10279 727.479593,192.079095 C727.435201,192.079095 727.392275,192.064671 727.34935,192.064671 C727.286246,192.045099 727.235983,192.0214 727.183518,192.0214 C726.969258,191.955464 726.814067,191.874074 726.65117,191.781351 C726.584031,191.747354 726.511755,191.714385 726.443514,191.656689 C726.375274,191.613418 726.318407,191.575299 726.257871,191.522756 C726.010959,191.356884 725.8,191.185863 725.623896,191.023086 C725.441188,190.866481 725.302506,190.724308 725.173363,190.593466 C725.05486,190.477049 724.969743,190.366811 724.903704,190.313237 C724.846103,190.235969 724.819688,190.199908 724.819688,190.199908 L724.918379,190.068032 Z M738.438406,157.249222 L738.932598,157.766398 C738.932598,157.766398 747.749544,153.369274 754.28851,156.630039 C753.108612,155.736828 749.8184,154.267673 749.464358,153.924571 C748.761409,154.081205 741.334218,156.315799 738.438406,157.249222 Z M724.405109,157.133846 L724.926818,156.297279 C724.926818,156.297279 718.167355,154.746726 714.104119,154.600434 C713.707518,154.856986 707.767673,158.575184 707.767673,158.575184 C707.767673,158.575184 715.979995,154.271781 724.405109,157.133846 Z M734.026998,196.653432 C734.026998,196.653432 733.998381,196.631797 733.944816,196.631797 C733.882079,196.619433 733.794027,196.601919 733.693134,196.579253 C733.581968,196.56174 733.460163,196.540104 733.311208,196.521559 C733.167389,196.505075 733.014032,196.48447 732.840863,196.451502 C732.749509,196.451502 732.658155,196.430897 732.571937,196.430897 C732.482785,196.409261 732.385194,196.393808 732.283567,196.393808 C732.187077,196.374233 732.090219,196.374233 731.993729,196.353627 C731.948602,196.353627 731.893203,196.341264 731.839638,196.341264 L731.686281,196.341264 C731.587589,196.320659 731.48266,196.320659 731.374429,196.300054 C731.267666,196.300054 731.159436,196.300054 731.055608,196.277389 C730.839146,196.261934 730.624153,196.277389 730.398519,196.261934 C730.286253,196.261934 730.17362,196.277389 730.065756,196.277389 L729.743632,196.277389 C729.524969,196.300054 729.311076,196.321689 729.10232,196.321689 C728.894297,196.342295 728.691777,196.375262 728.496595,196.393808 C728.29701,196.393808 728.115403,196.451502 727.939299,196.461804 C727.761727,196.48344 727.595896,196.48344 727.452077,196.521559 C727.300921,196.540104 727.182418,196.56174 727.075288,196.579253 C726.964122,196.600889 726.872768,196.600889 726.819203,196.600889 C726.754265,196.600889 726.720511,196.619433 726.720511,196.619433 C726.720511,196.619433 726.743625,196.579253 726.787651,196.540104 C726.828742,196.506105 726.89368,196.451502 726.973661,196.375262 C727.052174,196.301085 727.161505,196.211452 727.280009,196.110487 C727.396678,196.019824 727.54123,195.930192 727.708162,195.830258 C727.781906,195.775654 727.867756,195.740625 727.964247,195.686022 C728.00864,195.664386 728.051565,195.642751 728.097792,195.611843 C728.150257,195.589178 728.202721,195.573724 728.243445,195.552088 C728.351676,195.51603 728.458806,195.464516 728.561533,195.421246 C728.672699,195.384156 728.779829,195.343976 728.893196,195.312039 C729.129469,195.254344 729.367576,195.200771 729.62256,195.144106 C729.873509,195.122472 730.129594,195.086411 730.386779,195.086411 C730.642864,195.086411 730.90225,195.086411 731.158335,195.121442 C731.281241,195.143076 731.413319,195.164713 731.532923,195.180164 C731.651793,195.221375 731.771397,195.23168 731.893203,195.274948 C732.125073,195.331614 732.338233,195.422276 732.551025,195.501606 C732.744373,195.589178 732.931116,195.687052 733.093646,195.797289 C733.175828,195.854984 733.248104,195.887951 733.323682,195.940495 C733.394124,196.00231 733.462364,196.04249 733.521065,196.095033 C733.642871,196.190847 733.739361,196.278419 733.816773,196.375262 C733.966095,196.522589 734.026998,196.653432 734.026998,196.653432 Z" id="print-icon-13"></path>
                </g>
            </g>
        </g>
    </g>
</svg>