<?xml version="1.0" encoding="UTF-8"?>
<svg width="101px" height="90px" viewBox="0 0 101 90" version="1.1" xmlns="http://www.w3.org/2000/svg" xmlns:xlink="http://www.w3.org/1999/xlink">
    <!-- Generator: Sketch 43.2 (39069) - http://www.bohemiancoding.com/sketch -->
    <title>print-icon-11</title>
    <desc>Created with Sketch.</desc>
    <defs></defs>
    <g id="Pages" stroke="none" stroke-width="1" fill="none" fill-rule="evenodd">
        <g id="Web" transform="translate(-731.000000, -6273.000000)" fill="#727A80">
            <g id="Iconography" transform="translate(375.000000, 5647.000000)">
                <g id="Level-of-Detail" transform="translate(4.000000, 519.000000)">
                    <path d="M352.305971,196.774201 L352.305971,187.687802 C352.305971,187.687802 352.893693,182.110036 359.569797,180.379396 C359.569797,180.379396 370.321789,176.42953 378.742938,172.741574 C383.098259,170.835654 384.035326,169.690284 388.42867,167.737003 C388.42867,167.737003 388.887234,165.467417 388.721978,164.116546 L392.158138,164.116546 C392.158138,164.116546 392.943147,164.576916 392.158138,159.243948 C392.158138,159.243948 387.970106,158.125786 387.774888,149.63169 C387.774888,149.63169 384.629076,150.697497 384.436819,145.549887 C384.305663,142.060351 381.622445,139.031239 385.484067,136.529968 L383.520726,131.196971 C383.520726,131.196971 379.595005,109.667633 390.882642,112.82776 C386.120835,107.099918 417.875265,101.37305 419.937767,119.543794 C419.937767,119.543794 421.408553,129.354519 419.937767,136.06958 C419.937767,136.06958 424.575374,135.529633 421.474612,144.498169 C421.474612,144.498169 419.773582,150.950337 417.155424,149.501757 C417.155424,149.501757 417.582884,157.665398 413.459949,159.049516 C413.459949,159.049516 413.753293,163.394267 413.753293,163.690433 L417.68101,164.282761 C417.68101,164.282761 417.090328,167.838748 417.779137,168.232627 C417.779137,168.232627 422.435791,171.442078 427.986495,172.875561 C438.686445,175.638749 451.347776,180.380401 451.347776,184.528717 C451.347776,184.528717 452.428054,190.059132 452.428054,196.774201 L352.305971,196.774201 Z" id="print-icon-11"></path>
                </g>
            </g>
        </g>
    </g>
</svg>