<?xml version="1.0" encoding="UTF-8"?>
<svg width="87px" height="90px" viewBox="0 0 87 90" version="1.1" xmlns="http://www.w3.org/2000/svg" xmlns:xlink="http://www.w3.org/1999/xlink">
    <!-- Generator: Sketch 43.2 (39069) - http://www.bohemiancoding.com/sketch -->
    <title>print-icon-09</title>
    <desc>Created with Sketch.</desc>
    <defs></defs>
    <g id="Pages" stroke="none" stroke-width="1" fill="none" fill-rule="evenodd">
        <g id="Web" transform="translate(-386.000000, -6273.000000)" fill="#727A80">
            <g id="Iconography" transform="translate(375.000000, 5647.000000)">
                <g id="Level-of-Detail" transform="translate(4.000000, 519.000000)">
                    <path d="M48.3301952,107 L51.1227084,107 C63.1200622,107.72081 72.6598113,117.667162 72.6598113,129.790586 L72.6598113,137.401345 C72.6598113,149.991517 62.3713663,160.233759 49.7264992,160.233759 C37.0807108,160.233759 26.7932217,149.991517 26.7932217,137.401345 L26.7932217,129.790586 C26.7932217,117.667162 36.3320845,107.72081 48.3301952,107 L48.3301952,107 Z M7,185.81278 L7,185.544678 C18.5352742,174.128546 33.8370378,167.844548 50.1096896,167.844548 C66.4458477,167.844548 81.8035161,174.177679 93.354229,185.678545 L82.5421538,196.441159 C73.8800508,187.816221 62.3618081,183.066138 50.1096896,183.066138 C37.8575779,183.066138 26.3393352,187.816221 17.6762833,196.440207 L7,185.81278 L7,185.81278 Z M42.0820849,129.790586 C42.0820849,125.594172 45.511578,122.179759 49.7264992,122.179759 C53.9414549,122.179759 57.3709481,125.594172 57.3709481,129.790586 L57.3709481,137.401345 C57.3709481,141.597759 53.9414549,145.012172 49.7264992,145.012172 C45.511578,145.012172 42.0820849,141.597759 42.0820849,137.401345 L42.0820849,129.790586 Z" id="print-icon-09"></path>
                </g>
            </g>
        </g>
    </g>
</svg>