<?xml version="1.0" encoding="UTF-8"?>
<svg width="32px" height="32px" viewBox="0 0 32 32" version="1.1" xmlns="http://www.w3.org/2000/svg" xmlns:xlink="http://www.w3.org/1999/xlink">
    <!-- Generator: Sketch 50.2 (55047) - http://www.bohemiancoding.com/sketch -->
    <title>Interface/navigation/close</title>
    <desc>Created with Sketch.</desc>
    <defs></defs>
    <g id="Icons" stroke="none" stroke-width="1" fill="none" fill-rule="evenodd">
        <g id="icons" transform="translate(-1450.000000, -228.000000)" fill="#FFFFFF">
            <g id="Interface/navigation/close" transform="translate(1450.000000, 228.000000)">
                <path d="M30.7760744,1.22392838 C29.1438805,-0.407976127 26.4977213,-0.407976127 24.8655274,1.22392838 L16.0001466,10.0896227 L7.1344726,1.22392838 C5.50257183,-0.407976127 2.85641263,-0.407976127 1.22392558,1.22392838 C-0.407975193,2.85583289 -0.407975193,5.50229129 1.22392558,7.13448894 L10.0895995,15.9998901 L1.22392558,24.8655843 C-0.407975193,26.497782 -0.407975193,29.1439473 1.22392558,30.7761449 C2.04031567,31.5922437 3.1096841,32 4.17934566,32 C5.24900722,32 6.31808251,31.5922437 7.1344726,30.7761449 L16.0001466,21.9101575 L24.8655274,30.7761449 C25.6816244,31.5922437 26.7512859,32 27.8209475,32 C28.8900228,32 29.9599775,31.5919506 30.7760744,30.7761449 C32.4079752,29.1439473 32.4079752,26.497782 30.7760744,24.8655843 L21.9104005,15.9998901 L30.7760744,7.13448894 C32.4079752,5.50229129 32.4079752,2.85583289 30.7760744,1.22392838"></path>
            </g>
        </g>
    </g>
</svg>