<?xml version="1.0" encoding="UTF-8"?>
<svg width="30px" height="32px" viewBox="0 0 30 32" version="1.1" xmlns="http://www.w3.org/2000/svg" xmlns:xlink="http://www.w3.org/1999/xlink">
    <!-- Generator: Sketch 50.2 (55047) - http://www.bohemiancoding.com/sketch -->
    <title>Interface/navigation/double-arrow-down</title>
    <desc>Created with Sketch.</desc>
    <defs></defs>
    <g id="Icons" stroke="none" stroke-width="1" fill="none" fill-rule="evenodd">
        <g id="icons" transform="translate(-1313.000000, -348.000000)" fill="#FFFFFF">
            <g id="Interface/navigation/double-arrow-down" transform="translate(1313.000000, 348.000000)">
                <path d="M13.6476652,6.90921578 C12.3032373,5.55740092 12.3032373,3.365676 13.6476652,2.01386114 C14.9920931,0.662046286 17.1718414,0.662046286 18.5162692,2.01386114 L29.9916791,13.5523227 C31.336107,14.9041375 31.336107,17.0958625 29.9916791,18.4476773 L18.5162692,29.9861389 C17.1718414,31.3379537 14.9920931,31.3379537 13.6476652,29.9861389 C12.3032373,28.634324 12.3032373,26.4425991 13.6476652,25.0907842 L22.688773,16 L13.6476652,6.90921578 Z M0.00832091723,6.90921578 C-1.33610697,5.55740092 -1.33610697,3.365676 0.00832091723,2.01386114 C1.35274881,0.662046286 3.53249709,0.662046286 4.87692498,2.01386114 L16.3523348,13.5523227 C17.6967627,14.9041375 17.6967627,17.0958625 16.3523348,18.4476773 L4.87692498,29.9861389 C3.53249709,31.3379537 1.35274881,31.3379537 0.00832091723,29.9861389 C-1.33610697,28.634324 -1.33610697,26.4425991 0.00832091723,25.0907842 L9.04942872,16 L0.00832091723,6.90921578 Z" transform="translate(15.000000, 16.000000) rotate(-270.000000) translate(-15.000000, -16.000000) "></path>
            </g>
        </g>
    </g>
</svg>