<?xml version="1.0" encoding="UTF-8"?>
<svg width="32px" height="30px" viewBox="0 0 32 30" version="1.1" xmlns="http://www.w3.org/2000/svg" xmlns:xlink="http://www.w3.org/1999/xlink">
    <!-- Generator: Sketch 50.2 (55047) - http://www.bohemiancoding.com/sketch -->
    <title>Interface/navigation/double-arrow-left</title>
    <desc>Created with Sketch.</desc>
    <defs></defs>
    <g id="Icons" stroke="none" stroke-width="1" fill="none" fill-rule="evenodd">
        <g id="icons" transform="translate(-1257.000000, -409.000000)" fill="#FFFFFF">
            <g id="Interface/navigation/double-arrow-left" transform="translate(1257.000000, 409.000000)">
                <path d="M17.3523348,5.90921578 L8.31122702,15 L17.3523348,24.0907842 C18.6967627,25.4425991 18.6967627,27.634324 17.3523348,28.9861389 C16.0079069,30.3379537 13.8281586,30.3379537 12.4837308,28.9861389 L1.00832092,17.4476773 C-0.336106972,16.0958625 -0.336106972,13.9041375 1.00832092,12.5523227 L12.4837308,1.01386114 C13.8281586,-0.337953714 16.0079069,-0.337953714 17.3523348,1.01386114 C18.6967627,2.365676 18.6967627,4.55740092 17.3523348,5.90921578 Z M30.9916791,5.90921578 L21.9505713,15 L30.9916791,24.0907842 C32.336107,25.4425991 32.336107,27.634324 30.9916791,28.9861389 C29.6472512,30.3379537 27.4675029,30.3379537 26.123075,28.9861389 L14.6476652,17.4476773 C13.3032373,16.0958625 13.3032373,13.9041375 14.6476652,12.5523227 L26.123075,1.01386114 C27.4675029,-0.337953714 29.6472512,-0.337953714 30.9916791,1.01386114 C32.336107,2.365676 32.336107,4.55740092 30.9916791,5.90921578 Z"></path>
            </g>
        </g>
    </g>
</svg>