<?xml version="1.0" encoding="UTF-8"?>
<svg width="32px" height="30px" viewBox="0 0 32 30" version="1.1" xmlns="http://www.w3.org/2000/svg" xmlns:xlink="http://www.w3.org/1999/xlink">
    <!-- Generator: Sketch 50.2 (55047) - http://www.bohemiancoding.com/sketch -->
    <title>Interface/navigation/double-arrow-right</title>
    <desc>Created with Sketch.</desc>
    <defs></defs>
    <g id="Icons" stroke="none" stroke-width="1" fill="none" fill-rule="evenodd">
        <g id="icons" transform="translate(-1312.000000, -409.000000)" fill="#FFFFFF">
            <g id="Interface/navigation/double-arrow-right" transform="translate(1312.000000, 409.000000)">
                <path d="M14.6476652,5.90921578 C13.3032373,4.55740092 13.3032373,2.365676 14.6476652,1.01386114 C15.9920931,-0.337953714 18.1718414,-0.337953714 19.5162692,1.01386114 L30.9916791,12.5523227 C32.336107,13.9041375 32.336107,16.0958625 30.9916791,17.4476773 L19.5162692,28.9861389 C18.1718414,30.3379537 15.9920931,30.3379537 14.6476652,28.9861389 C13.3032373,27.634324 13.3032373,25.4425991 14.6476652,24.0907842 L23.688773,15 L14.6476652,5.90921578 Z M1.00832092,5.90921578 C-0.336106972,4.55740092 -0.336106972,2.365676 1.00832092,1.01386114 C2.35274881,-0.337953714 4.53249709,-0.337953714 5.87692498,1.01386114 L17.3523348,12.5523227 C18.6967627,13.9041375 18.6967627,16.0958625 17.3523348,17.4476773 L5.87692498,28.9861389 C4.53249709,30.3379537 2.35274881,30.3379537 1.00832092,28.9861389 C-0.336106972,27.634324 -0.336106972,25.4425991 1.00832092,24.0907842 L10.0494287,15 L1.00832092,5.90921578 Z"></path>
            </g>
        </g>
    </g>
</svg>