<?xml version="1.0" encoding="UTF-8"?>
<svg width="30px" height="32px" viewBox="0 0 30 32" version="1.1" xmlns="http://www.w3.org/2000/svg" xmlns:xlink="http://www.w3.org/1999/xlink">
    <!-- Generator: Sketch 50.2 (55047) - http://www.bohemiancoding.com/sketch -->
    <title>Interface/navigation/double-arrow-up</title>
    <desc>Created with Sketch.</desc>
    <defs></defs>
    <g id="Icons" stroke="none" stroke-width="1" fill="none" fill-rule="evenodd">
        <g id="icons" transform="translate(-1258.000000, -348.000000)" fill="#FFFFFF">
            <g id="Interface/navigation/double-arrow-up" transform="translate(1258.000000, 348.000000)">
                <path d="M16.3523348,6.90921578 L7.31122702,16 L16.3523348,25.0907842 C17.6967627,26.4425991 17.6967627,28.634324 16.3523348,29.9861389 C15.0079069,31.3379537 12.8281586,31.3379537 11.4837308,29.9861389 L0.00832091723,18.4476773 C-1.33610697,17.0958625 -1.33610697,14.9041375 0.00832091723,13.5523227 L11.4837308,2.01386114 C12.8281586,0.662046286 15.0079069,0.662046286 16.3523348,2.01386114 C17.6967627,3.365676 17.6967627,5.55740092 16.3523348,6.90921578 Z M29.9916791,6.90921578 L20.9505713,16 L29.9916791,25.0907842 C31.336107,26.4425991 31.336107,28.634324 29.9916791,29.9861389 C28.6472512,31.3379537 26.4675029,31.3379537 25.123075,29.9861389 L13.6476652,18.4476773 C12.3032373,17.0958625 12.3032373,14.9041375 13.6476652,13.5523227 L25.123075,2.01386114 C26.4675029,0.662046286 28.6472512,0.662046286 29.9916791,2.01386114 C31.336107,3.365676 31.336107,5.55740092 29.9916791,6.90921578 Z" transform="translate(15.000000, 16.000000) rotate(-270.000000) translate(-15.000000, -16.000000) "></path>
            </g>
        </g>
    </g>
</svg>