<?xml version="1.0" encoding="UTF-8"?>
<svg width="32px" height="18px" viewBox="0 0 32 18" version="1.1" xmlns="http://www.w3.org/2000/svg" xmlns:xlink="http://www.w3.org/1999/xlink">
    <!-- Generator: Sketch 50.2 (55047) - http://www.bohemiancoding.com/sketch -->
    <title>Interface/navigation/hamburger-menu</title>
    <desc>Created with Sketch.</desc>
    <defs></defs>
    <g id="Icons" stroke="none" stroke-width="1" fill="none" fill-rule="evenodd">
        <g id="icons" transform="translate(-1257.000000, -175.000000)" fill="#FFFFFF" fill-rule="nonzero">
            <g id="Interface/navigation/hamburger-menu" transform="translate(1257.000000, 175.000000)">
                <path d="M32,16.5 C32,17.3342028 31.3282006,18 30.4994941,18 L1.50050592,18 C0.668365479,18 0,17.3284271 0,16.5 C0,15.6657972 0.671799385,15 1.50050592,15 L30.4994941,15 C31.3316345,15 32,15.6715729 32,16.5 Z M32,1.5 C32,2.33420277 31.3282006,3 30.4994941,3 L1.50050592,3 C0.668365479,3 0,2.32842712 0,1.5 C0,0.665797234 0.671799385,2.22044605e-15 1.50050592,1.77635684e-15 L30.4994941,-1.77635684e-15 C31.3316345,-1.77635684e-15 32,0.671572875 32,1.5 Z M32,9 C32,9.83420277 31.3282006,10.5 30.4994941,10.5 L1.50050592,10.5 C0.668365479,10.5 0,9.82842712 0,9 C0,8.16579723 0.671799385,7.5 1.50050592,7.5 L30.4994941,7.5 C31.3316345,7.5 32,8.17157288 32,9 Z" transform="translate(16.000000, 9.000000) scale(1, -1) translate(-16.000000, -9.000000) "></path>
            </g>
        </g>
    </g>
</svg>