<?xml version="1.0" encoding="UTF-8"?>
<svg width="32px" height="6px" viewBox="0 0 32 6" version="1.1" xmlns="http://www.w3.org/2000/svg" xmlns:xlink="http://www.w3.org/1999/xlink">
    <!-- Generator: Sketch 50.2 (55047) - http://www.bohemiancoding.com/sketch -->
    <title>interface/navigation/more</title>
    <desc>Created with Sketch.</desc>
    <defs></defs>
    <g id="Icons" stroke="none" stroke-width="1" fill="none" fill-rule="evenodd">
        <g id="icons" transform="translate(-1305.000000, -181.000000)" fill="#FFFFFF">
            <g id="Interface/navigation/more" transform="translate(1305.000000, 181.000000)">
                <path d="M3,6 C1.34314575,6 0,4.65685425 0,3 C0,1.34314575 1.34314575,0 3,0 C4.65685425,0 6,1.34314575 6,3 C6,4.65685425 4.65685425,6 3,6 Z M16,6 C14.3431458,6 13,4.65685425 13,3 C13,1.34314575 14.3431458,0 16,0 C17.6568542,0 19,1.34314575 19,3 C19,4.65685425 17.6568542,6 16,6 Z M29,6 C27.3431458,6 26,4.65685425 26,3 C26,1.34314575 27.3431458,0 29,0 C30.6568542,0 32,1.34314575 32,3 C32,4.65685425 30.6568542,6 29,6 Z"></path>
            </g>
        </g>
    </g>
</svg>