<svg xmlns="http://www.w3.org/2000/svg" xmlns:xlink="http://www.w3.org/1999/xlink" width="248.303" height="117.808" viewBox="0 0 248.303 117.808"><defs><clipPath id="a"><rect width="248.303" height="117.808" rx="4" fill="#fff"/></clipPath></defs><g transform="translate(0 0)"><g transform="translate(0)"><rect width="248.303" height="117.808" rx="4" fill="#fff"/><g clip-path="url(#a)"><g transform="translate(-1.812 -9.113)"><g transform="translate(0 0)"><path d="M0,145.514H249.33V0H0Z" transform="translate(0.042 0)" fill="#e6eaee"/><g transform="translate(3.667 0.001)"><path d="M11.474,14.537c4.883-2.272,4.506-5.952,3.491-8.131L11.968,0l-3.6,1.678,2.875,6.163A2.38,2.38,0,0,1,10,11.376a2.383,2.383,0,0,1-3.519-1.32L3.6,3.893,0,5.576l2.987,6.4c1.018,2.179,3.6,4.835,8.488,2.557" transform="translate(13.361 122.919)" fill="#015294"/><path d="M8.521,4.433C8.264,4.3,6.6,3.118,3.654,4.487c-3,1.4-4.667,4-2.982,7.607l3.1,6.645L7.3,17.1,4.186,10.45a2.055,2.055,0,0,1,1.1-3.011A2.058,2.058,0,0,1,8.3,8.539l3.1,6.65,3.527-1.639-3.1-6.65A2.047,2.047,0,0,1,12.9,3.888a2.056,2.056,0,0,1,3.01,1.1l3.1,6.648L22.538,10l-3.1-6.648c-1.688-3.61-4.745-4-7.747-2.607C8.747,2.117,8.576,4.158,8.521,4.433" transform="translate(28.242 114.83)" fill="#015294"/><path d="M.307,4.58A3.2,3.2,0,0,0,4.615,6.1,3.164,3.164,0,0,0,6.181,1.844,3.166,3.166,0,0,0,1.914.314,3.18,3.18,0,0,0,.307,4.58" transform="translate(0.477 123.968)" fill="#5e88a1"/><path d="M.3,4.579A3.2,3.2,0,0,0,4.611,6.091,3.158,3.158,0,0,0,6.185,1.843,3.164,3.164,0,0,0,1.917.315,3.179,3.179,0,0,0,.3,4.579" transform="translate(13.855 117.741)" fill="#5e88a1"/><path d="M.3,4.583a3.191,3.191,0,0,0,4.309,1.51A3.15,3.15,0,0,0,6.183,1.841,3.171,3.171,0,0,0,1.913.314,3.191,3.191,0,0,0,.3,4.583" transform="translate(30.632 109.926)" fill="#5e88a1"/><path d="M.493,1.432l.553.044.218-.438C1.074.622.313,1.328.043.752A.517.517,0,0,1,.36.078a.614.614,0,0,1,.66.036L.9.3.438.257.228.646c.192.407.94-.329,1.228.288a.539.539,0,0,1-.33.721A.736.736,0,0,1,.37,1.629Z" transform="translate(45.648 113.166)" fill="#015294"/><path d="M.218,1.334,0,.914.2.823l.14.254.008,0A.631.631,0,0,1,.722.525L1.33.644A.592.592,0,0,1,1.686.079a.6.6,0,0,1,.883.384l.421.9-.2.093L2.382.561C2.26.315,2.083.107,1.776.255a.5.5,0,0,0-.216.734l.4.851-.2.088-.423-.9C1.21.745,1.018.608.808.709a.581.581,0,0,0-.234.861l.348.752-.2.093Z" transform="translate(46.987 111.921)" fill="#015294"/><path d="M11.472,14.537c4.883-2.275,4.5-5.958,3.488-8.134L11.965,0l-3.6,1.678,2.878,6.16A2.38,2.38,0,0,1,10,11.373a2.387,2.387,0,0,1-3.524-1.318L3.6,3.893,0,5.574,2.989,11.98C4,14.156,6.584,16.809,11.472,14.537" transform="translate(77.905 129.125)" fill="#015294"/><path d="M8.517,4.433C8.265,4.3,6.6,3.116,3.65,4.488c-3,1.4-4.662,3.994-2.979,7.607l3.106,6.642L7.3,17.1,4.19,10.448A2.054,2.054,0,0,1,5.281,7.434a2.062,2.062,0,0,1,3.013,1.1l3.1,6.648,3.522-1.637-3.1-6.655A2.043,2.043,0,0,1,12.9,3.889a2.053,2.053,0,0,1,3.01,1.1l3.1,6.645L22.534,10l-3.1-6.642c-1.686-3.616-4.75-4-7.745-2.609C8.743,2.117,8.574,4.156,8.517,4.433" transform="translate(92.786 121.035)" fill="#015294"/><path d="M.3,4.582A3.194,3.194,0,0,0,4.612,6.1,3.167,3.167,0,0,0,6.183,1.843,3.17,3.17,0,0,0,1.911.315,3.189,3.189,0,0,0,.3,4.582" transform="translate(65.022 130.172)" fill="#5e88a1"/><path d="M.3,4.582A3.2,3.2,0,0,0,4.612,6.1,3.162,3.162,0,0,0,6.181,1.843,3.168,3.168,0,0,0,1.911.315,3.193,3.193,0,0,0,.3,4.582" transform="translate(78.401 123.942)" fill="#5e88a1"/><path d="M.3,4.58A3.2,3.2,0,0,0,4.609,6.095,3.156,3.156,0,0,0,6.183,1.844,3.171,3.171,0,0,0,1.916.313,3.193,3.193,0,0,0,.3,4.58" transform="translate(95.176 116.129)" fill="#5e88a1"/><path d="M.5,1.431l.551.047.223-.441C1.075.622.314,1.33.044.752A.512.512,0,0,1,.359.08a.621.621,0,0,1,.667.034L.9.3.442.256.234.645c.19.407.938-.327,1.226.29a.531.531,0,0,1-.332.713.721.721,0,0,1-.751-.021Z" transform="translate(110.188 119.369)" fill="#015294"/><path d="M.216,1.332,0,.915.2.824l.135.257.01-.008A.619.619,0,0,1,.719.526l.608.119A.588.588,0,0,1,1.686.08c.473-.22.73.052.883.384l.418.9-.2.091L2.374.562c-.119-.249-.3-.454-.6-.3a.511.511,0,0,0-.216.734l.395.848-.192.088-.426-.9C1.2.744,1.01.609.8.71a.584.584,0,0,0-.231.861l.351.755-.2.088Z" transform="translate(111.534 118.123)" fill="#015294"/><path d="M.5,1.433l.553.044.218-.436C1.076.622.315,1.33.045.754A.509.509,0,0,1,.359.082a.607.607,0,0,1,.662.031L.9.3.442.259.234.648c.192.407.938-.329,1.223.288a.532.532,0,0,1-.327.718.736.736,0,0,1-.753-.023Z" transform="translate(0 62.439)" fill="#015294"/><path d="M.216,1.329,0,.914.192.823l.14.254.005-.005A.631.631,0,0,1,.719.525l.608.119A.593.593,0,0,1,1.683.079c.473-.218.73.052.883.381l.421.9-.2.091L2.369.564C2.262.315,2.08.1,1.771.255a.505.505,0,0,0-.216.734l.392.853-.195.083-.423-.9C1.2.743,1.013.608.8.709.5.841.377,1.152.569,1.57l.351.752-.2.091Z" transform="translate(1.346 61.196)" fill="#015294"/><path d="M11.469,14.535c4.888-2.272,4.509-5.952,3.493-8.131L11.973,0l-3.6,1.678,2.878,6.157A2.383,2.383,0,0,1,10,11.373a2.385,2.385,0,0,1-3.522-1.32L3.6,3.893,0,5.571,2.987,11.98c1.021,2.173,3.6,4.829,8.482,2.555" transform="translate(32.257 78.399)" fill="#015294"/><path d="M11.477,14.535c4.88-2.277,4.5-5.955,3.485-8.134L11.97,0,8.381,1.673l2.872,6.16A2.382,2.382,0,0,1,10,11.371a2.392,2.392,0,0,1-3.524-1.318L3.607,3.89,0,5.569l2.995,6.4c1.016,2.181,3.6,4.832,8.482,2.563" transform="translate(5.493 90.863)" fill="#015294"/><path d="M4.122.871C-.758,3.143-.381,6.826.632,9l2.995,6.4,3.6-1.675L4.346,7.565a2.379,2.379,0,0,1,1.26-3.533A2.385,2.385,0,0,1,9.119,5.348L12,11.513l3.6-1.681-2.992-6.4C11.589,1.25,9.008-1.4,4.122.871" transform="translate(20.53 86.098)" fill="#015294"/><path d="M8.519,4.431c-.255-.135-1.925-1.315-4.867.057-3,1.4-4.665,3.994-2.982,7.6l3.1,6.64L7.3,17.1,4.19,10.448A2.054,2.054,0,0,1,5.283,7.437,2.055,2.055,0,0,1,8.3,8.537l3.1,6.65,3.522-1.639-3.1-6.65A2.051,2.051,0,0,1,12.9,3.886a2.056,2.056,0,0,1,3.01,1.1l3.106,6.65L22.539,10l-3.1-6.642c-1.688-3.613-4.753-4-7.75-2.607C8.75,2.117,8.579,4.156,8.519,4.431" transform="translate(47.14 70.31)" fill="#015294"/><path d="M.308,4.583A3.194,3.194,0,0,0,4.614,6.1,3.161,3.161,0,0,0,6.18,1.844,3.162,3.162,0,0,0,1.918.314,3.179,3.179,0,0,0,.308,4.583" transform="translate(19.374 79.446)" fill="#5e88a1"/><path d="M.3,4.582A3.2,3.2,0,0,0,4.61,6.1,3.16,3.16,0,0,0,6.181,1.843,3.163,3.163,0,0,0,1.917.315,3.19,3.19,0,0,0,.3,4.582" transform="translate(32.754 73.216)" fill="#5e88a1"/><path d="M.3,4.579A3.193,3.193,0,0,0,4.613,6.091,3.157,3.157,0,0,0,6.179,1.843,3.163,3.163,0,0,0,1.917.315,3.18,3.18,0,0,0,.3,4.579" transform="translate(49.531 65.405)" fill="#5e88a1"/><path d="M.491,1.434l.553.047.221-.441C1.075.624.314,1.33.047.754A.507.507,0,0,1,.358.08a.6.6,0,0,1,.66.036L.893.3.439.259.228.645c.192.41.943-.324,1.228.29a.542.542,0,0,1-.327.718.74.74,0,0,1-.758-.023Z" transform="translate(64.545 68.642)" fill="#015294"/><path d="M.218,1.331,0,.916.2.823l.135.254.01,0A.634.634,0,0,1,.717.527l.61.117A.6.6,0,0,1,1.686.079a.6.6,0,0,1,.88.381l.418.9-.195.093-.41-.89c-.117-.252-.3-.456-.6-.309a.5.5,0,0,0-.216.734l.392.851-.2.091-.418-.905C1.2.743,1.018.608.805.709c-.3.135-.431.441-.234.861l.348.752-.2.091Z" transform="translate(65.885 67.399)" fill="#015294"/><path d="M11.48,14.537c4.88-2.277,4.5-5.958,3.488-8.134L11.976,0l-3.6,1.673,2.872,6.165A2.376,2.376,0,0,1,10,11.373a2.384,2.384,0,0,1-3.519-1.318L3.6,3.893,0,5.569l2.995,6.414c1.018,2.173,3.6,4.824,8.485,2.555" transform="translate(96.795 84.602)" fill="#015294"/><path d="M11.477,14.537c4.88-2.272,4.5-5.958,3.491-8.134l-3-6.4L8.376,1.673l2.872,6.163A2.379,2.379,0,0,1,10,11.373a2.383,2.383,0,0,1-3.519-1.32L3.6,3.893,0,5.574l2.995,6.409c1.01,2.173,3.595,4.827,8.482,2.555" transform="translate(70.037 97.064)" fill="#015294"/><path d="M4.123.871C-.757,3.141-.383,6.829.633,9l2.989,6.4,3.6-1.678L4.344,7.568A2.384,2.384,0,0,1,5.6,4.033,2.381,2.381,0,0,1,9.115,5.35l2.878,6.163L15.6,9.832l-2.995-6.4C11.59,1.25,9.011-1.4,4.123.871" transform="translate(85.073 92.301)" fill="#015294"/><path d="M8.519,4.434C8.267,4.3,6.6,3.116,3.652,4.488c-3,1.4-4.665,3.994-2.979,7.6l3.106,6.645L7.3,17.1l-3.1-6.648A2.058,2.058,0,0,1,5.28,7.432,2.067,2.067,0,0,1,8.3,8.539l3.1,6.648,3.524-1.639-3.1-6.65A2.047,2.047,0,0,1,12.9,3.889a2.064,2.064,0,0,1,3.018,1.1l3.106,6.648L22.541,10l-3.1-6.645c-1.686-3.61-4.755-4-7.753-2.609C8.745,2.118,8.581,4.154,8.519,4.434" transform="translate(111.682 76.512)" fill="#015294"/><path d="M.305,4.579a3.184,3.184,0,0,0,4.3,1.515A3.154,3.154,0,0,0,6.18,1.846,3.168,3.168,0,0,0,1.908.315a3.183,3.183,0,0,0-1.6,4.264" transform="translate(83.92 85.65)" fill="#5e88a1"/><path d="M.305,4.582A3.2,3.2,0,0,0,4.614,6.1,3.169,3.169,0,0,0,6.183,1.841,3.166,3.166,0,0,0,1.916.315,3.184,3.184,0,0,0,.305,4.582" transform="translate(97.297 79.419)" fill="#5e88a1"/><path d="M.3,4.582A3.2,3.2,0,0,0,4.613,6.094,3.161,3.161,0,0,0,6.184,1.843,3.172,3.172,0,0,0,1.914.315,3.191,3.191,0,0,0,.3,4.582" transform="translate(114.073 71.608)" fill="#5e88a1"/><path d="M.493,1.431l.556.047.216-.441C1.072.622.311,1.33.046.754A.508.508,0,0,1,.355.08a.622.622,0,0,1,.667.034L.9.3.438.256.228.643c.195.41.94-.324,1.228.29a.534.534,0,0,1-.327.718.742.742,0,0,1-.756-.023Z" transform="translate(129.087 74.847)" fill="#015294"/><path d="M.213,1.335,0,.915.2.826l.135.254.013-.008A.615.615,0,0,1,.722.525l.605.119A.6.6,0,0,1,1.686.079c.47-.218.732.047.883.384l.418.9-.2.093L2.376.559c-.117-.244-.3-.451-.605-.3a.5.5,0,0,0-.21.729l.392.851-.195.091-.426-.9C1.2.746,1.016.611.8.71a.579.579,0,0,0-.231.861l.348.752-.195.093Z" transform="translate(130.43 73.601)" fill="#015294"/><path d="M8.517,4.433C8.263,4.3,6.6,3.118,3.648,4.487c-3,1.4-4.659,3.994-2.976,7.607l3.1,6.642L7.294,17.1,4.188,10.45A2.056,2.056,0,0,1,5.281,7.436a2.052,2.052,0,0,1,3.008,1.1l3.1,6.645,3.522-1.637L11.811,6.9A2.053,2.053,0,0,1,12.9,3.888a2.054,2.054,0,0,1,3.01,1.1l3.109,6.645L22.534,10l-3.1-6.642c-1.686-3.616-4.745-4-7.745-2.607C8.741,2.114,8.572,4.155,8.517,4.433" transform="translate(1.495 19.582)" fill="#015294"/><path d="M.3,4.582A3.2,3.2,0,0,0,4.611,6.1,3.17,3.17,0,0,0,6.185,1.84,3.171,3.171,0,0,0,1.918.315,3.188,3.188,0,0,0,.3,4.582" transform="translate(3.884 14.677)" fill="#5e88a1"/><path d="M.5,1.43l.551.049.218-.444C1.079.621.316,1.329.046.756A.512.512,0,0,1,.36.079a.616.616,0,0,1,.665.036L.9.3.443.255.233.647c.195.407.94-.324,1.228.288a.537.537,0,0,1-.33.718.749.749,0,0,1-.753-.021Z" transform="translate(18.895 17.917)" fill="#015294"/><path d="M.216,1.331,0,.913.2.822l.135.259.01-.005A.634.634,0,0,1,.722.527l.61.117A.588.588,0,0,1,1.688.078c.473-.215.73.049.88.381l.423.9-.2.093L2.379.563c-.117-.244-.3-.454-.6-.309a.511.511,0,0,0-.216.737l.392.851-.19.088-.426-.905C1.2.75,1.016.612.8.708a.586.586,0,0,0-.229.861l.345.752-.195.093Z" transform="translate(20.239 16.671)" fill="#015294"/><path d="M11.472,14.54c4.883-2.277,4.5-5.958,3.488-8.136L11.968,0l-3.6,1.675,2.88,6.165A2.382,2.382,0,0,1,10,11.376a2.389,2.389,0,0,1-3.524-1.32L3.6,3.9,0,5.574,2.992,11.98c1.018,2.176,3.592,4.832,8.48,2.56" transform="translate(51.154 33.874)" fill="#015294"/><path d="M11.474,14.535c4.883-2.272,4.5-5.955,3.488-8.131L11.968,0l-3.6,1.675,2.878,6.157A2.385,2.385,0,0,1,10,11.373,2.394,2.394,0,0,1,6.47,10.056L3.6,3.893,0,5.574,2.987,11.98c1.023,2.173,3.6,4.827,8.488,2.555" transform="translate(24.394 46.338)" fill="#015294"/><path d="M4.12.871C-.762,3.141-.381,6.824.635,9l2.987,6.4,3.6-1.678L4.344,7.565A2.385,2.385,0,0,1,5.6,4.03,2.393,2.393,0,0,1,9.12,5.345l2.867,6.163L15.6,9.832,12.605,3.423C11.587,1.25,9.008-1.4,4.12.871" transform="translate(39.428 41.578)" fill="#015294"/><path d="M8.516,4.43c-.249-.135-1.922-1.315-4.867.057-3,1.4-4.662,3.994-2.976,7.6l3.1,6.645L7.293,17.1l-3.1-6.648A2.055,2.055,0,0,1,5.277,7.434a2.058,2.058,0,0,1,3.013,1.1l3.1,6.645,3.527-1.634L11.812,6.9A2.049,2.049,0,0,1,12.9,3.886a2.064,2.064,0,0,1,3.015,1.1l3.1,6.65L22.533,10l-3.1-6.642c-1.688-3.61-4.75-4-7.75-2.607C8.745,2.114,8.573,4.155,8.516,4.43" transform="translate(66.039 25.788)" fill="#015294"/><path d="M.307,4.58A3.187,3.187,0,0,0,4.61,6.1,3.162,3.162,0,0,0,6.182,1.844,3.167,3.167,0,0,0,1.917.314,3.181,3.181,0,0,0,.307,4.58" transform="translate(38.273 34.923)" fill="#5e88a1"/><path d="M.3,4.581A3.2,3.2,0,0,0,4.616,6.093,3.157,3.157,0,0,0,6.182,1.842,3.161,3.161,0,0,0,1.92.314,3.191,3.191,0,0,0,.3,4.581" transform="translate(51.649 28.694)" fill="#5e88a1"/><path d="M.3,4.579A3.2,3.2,0,0,0,4.615,6.094,3.159,3.159,0,0,0,6.184,1.843,3.164,3.164,0,0,0,1.919.315,3.182,3.182,0,0,0,.3,4.579" transform="translate(68.425 20.882)" fill="#5e88a1"/><path d="M.5,1.429l.545.047.223-.436C1.077.62.311,1.328.046.755A.515.515,0,0,1,.355.078a.632.632,0,0,1,.67.036L.89.3.438.257.23.646c.192.407.94-.327,1.226.288a.529.529,0,0,1-.332.716.727.727,0,0,1-.748-.021Z" transform="translate(83.441 24.121)" fill="#015294"/><path d="M.216,1.33,0,.912.192.824l.14.257.01-.005A.627.627,0,0,1,.717.528L1.33.645A.586.586,0,0,1,1.686.08c.473-.22.732.052.886.381l.416.9-.2.093L2.379.562C2.26.318,2.08.108,1.769.256A.505.505,0,0,0,1.561.99l.39.851-.192.091-.423-.91C1.205.746,1.016.611.8.707a.59.59,0,0,0-.239.861l.356.755-.195.091Z" transform="translate(84.784 22.875)" fill="#015294"/><path d="M11.474,14.54c4.88-2.275,4.5-5.958,3.491-8.136L11.97,0l-3.6,1.678,2.872,6.163A2.378,2.378,0,0,1,10,11.376a2.385,2.385,0,0,1-3.519-1.32L3.6,3.9,0,5.574,2.992,11.98c1.016,2.176,3.6,4.832,8.482,2.56" transform="translate(115.696 40.077)" fill="#015294"/><path d="M11.467,14.535c4.888-2.272,4.5-5.952,3.493-8.128L11.965,0l-3.6,1.673,2.875,6.163a2.38,2.38,0,0,1-1.247,3.538,2.385,2.385,0,0,1-3.522-1.318L3.6,3.9,0,5.571,2.987,11.98c1.016,2.176,3.6,4.829,8.48,2.555" transform="translate(88.941 52.541)" fill="#015294"/><path d="M4.124.871C-.758,3.14-.384,6.826.636,9l2.987,6.4,3.6-1.675L4.35,7.567A2.383,2.383,0,0,1,5.6,4.03,2.386,2.386,0,0,1,9.119,5.35L12,11.512l3.6-1.681-2.995-6.4C11.589,1.252,9.012-1.4,4.124.871" transform="translate(103.968 47.779)" fill="#015294"/><path d="M8.519,4.432C8.265,4.3,6.6,3.117,3.652,4.489c-3,1.4-4.665,3.994-2.979,7.6l3.1,6.642L7.293,17.1l-3.1-6.65A2.055,2.055,0,0,1,5.281,7.435a2.059,2.059,0,0,1,3.013,1.1l3.1,6.648,3.524-1.637L11.82,6.9A2.041,2.041,0,0,1,12.9,3.89a2.059,2.059,0,0,1,3.015,1.1l3.1,6.645L22.536,10l-3.1-6.642c-1.686-3.613-4.75-4-7.747-2.609C8.743,2.118,8.577,4.157,8.519,4.432" transform="translate(130.578 31.989)" fill="#015294"/><path d="M.306,4.582A3.2,3.2,0,0,0,4.612,6.1,3.161,3.161,0,0,0,6.186,1.845,3.175,3.175,0,0,0,1.914.313,3.184,3.184,0,0,0,.306,4.582" transform="translate(102.812 41.127)" fill="#5e88a1"/><path d="M.3,4.583A3.206,3.206,0,0,0,4.61,6.1,3.169,3.169,0,0,0,6.183,1.841,3.17,3.17,0,0,0,1.916.314,3.2,3.2,0,0,0,.3,4.583" transform="translate(116.194 34.898)" fill="#5e88a1"/><path d="M.3,4.582A3.187,3.187,0,0,0,4.609,6.1,3.148,3.148,0,0,0,6.178,1.846,3.16,3.16,0,0,0,1.916.313,3.192,3.192,0,0,0,.3,4.582" transform="translate(132.97 27.082)" fill="#5e88a1"/><path d="M.494,1.431l.553.047.218-.441C1.078.622.315,1.328.045.754A.512.512,0,0,1,.356.08a.612.612,0,0,1,.662.034L.9.3.439.256.229.645c.195.407.94-.324,1.228.288a.541.541,0,0,1-.33.721.742.742,0,0,1-.753-.023Z" transform="translate(147.983 30.324)" fill="#015294"/><path d="M.216,1.331,0,.914.2.823l.14.254.008-.005A.628.628,0,0,1,.725.525l.608.119A.575.575,0,0,1,1.686.079.605.605,0,0,1,2.569.46l.423.9-.205.093-.41-.89C2.26.312,2.086.107,1.776.255a.508.508,0,0,0-.216.734l.392.853-.192.086-.418-.9C1.208.745,1.021.608.808.709a.583.583,0,0,0-.236.861l.351.752-.195.091Z" transform="translate(149.324 29.079)" fill="#015294"/><path d="M.306,4.582A3.191,3.191,0,0,0,4.612,6.1,3.167,3.167,0,0,0,6.184,1.843,3.17,3.17,0,0,0,1.914.315,3.18,3.18,0,0,0,.306,4.582" transform="translate(129.563 136.375)" fill="#5e88a1"/><path d="M.3,4.579A3.2,3.2,0,0,0,4.611,6.094,3.159,3.159,0,0,0,6.182,1.843,3.167,3.167,0,0,0,1.912.315,3.188,3.188,0,0,0,.3,4.579" transform="translate(142.942 130.147)" fill="#5e88a1"/><path d="M.3,4.582A3.194,3.194,0,0,0,4.608,6.095,3.156,3.156,0,0,0,6.185,1.844,3.175,3.175,0,0,0,1.912.313,3.194,3.194,0,0,0,.3,4.582" transform="translate(159.718 122.332)" fill="#5e88a1"/><path d="M.5,1.43l.553.052.218-.446C1.075.621.322,1.327.044.756A.518.518,0,0,1,.358.079a.627.627,0,0,1,.667.034L.9.3.441.255.234.645c.195.41.938-.327,1.226.29a.529.529,0,0,1-.33.713A.731.731,0,0,1,.376,1.63Z" transform="translate(174.729 125.573)" fill="#015294"/><path d="M.213,1.331,0,.913.195.825l.138.252.013,0A.612.612,0,0,1,.719.527l.61.117A.58.58,0,0,1,1.683.078a.6.6,0,0,1,.88.386l.421.895-.2.093L2.374.561c-.119-.246-.293-.454-.6-.3a.508.508,0,0,0-.216.734l.395.848-.192.088-.426-.9C1.2.745,1.013.607.8.708.5.843.374,1.155.566,1.57l.351.752-.2.1Z" transform="translate(176.077 124.328)" fill="#015294"/><path d="M11.477,14.537c4.883-2.277,4.506-5.958,3.5-8.134l-3-6.4L8.381,1.675l2.867,6.163a2.378,2.378,0,0,1-1.241,3.538,2.391,2.391,0,0,1-3.524-1.323L3.61,3.9,0,5.569,2.995,11.98c1.021,2.176,3.6,4.829,8.482,2.557" transform="translate(161.336 90.805)" fill="#015294"/><path d="M11.474,14.537c4.883-2.272,4.5-5.955,3.491-8.134l-3-6.4L8.376,1.675l2.87,6.163A2.373,2.373,0,0,1,10,11.371a2.385,2.385,0,0,1-3.524-1.315L3.6,3.893,0,5.571,2.995,11.98c1.01,2.179,3.592,4.832,8.48,2.557" transform="translate(134.58 103.267)" fill="#015294"/><path d="M4.122.87C-.761,3.142-.381,6.828.634,9l2.989,6.4,3.6-1.67L4.348,7.567A2.383,2.383,0,0,1,5.6,4.032,2.379,2.379,0,0,1,9.111,5.347L12,11.512l3.6-1.678L12.607,3.425C11.589,1.249,9.013-1.4,4.122.87" transform="translate(149.615 98.505)" fill="#015294"/><path d="M8.515,4.433C8.263,4.3,6.6,3.116,3.65,4.488c-3,1.4-4.665,3.994-2.976,7.607l3.1,6.642L7.289,17.1l-3.1-6.655A2.052,2.052,0,0,1,5.279,7.434a2.059,2.059,0,0,1,3.01,1.1l3.1,6.648,3.53-1.637-3.1-6.655A2.047,2.047,0,0,1,12.9,3.889a2.058,2.058,0,0,1,3.015,1.1l3.1,6.648L22.537,10l-3.1-6.642c-1.686-3.616-4.753-4-7.747-2.609C8.741,2.115,8.575,4.153,8.515,4.433" transform="translate(176.226 82.716)" fill="#015294"/><path d="M.3,4.581A3.193,3.193,0,0,0,4.607,6.1,3.157,3.157,0,0,0,6.181,1.845,3.17,3.17,0,0,0,1.909.315,3.184,3.184,0,0,0,.3,4.581" transform="translate(148.459 91.853)" fill="#5e88a1"/><path d="M.3,4.58A3.194,3.194,0,0,0,4.612,6.092,3.159,3.159,0,0,0,6.183,1.844,3.171,3.171,0,0,0,1.913.314,3.189,3.189,0,0,0,.3,4.58" transform="translate(161.84 85.623)" fill="#5e88a1"/><path d="M.3,4.579A3.188,3.188,0,0,0,4.611,6.091,3.152,3.152,0,0,0,6.185,1.843,3.168,3.168,0,0,0,1.917.315,3.181,3.181,0,0,0,.3,4.579" transform="translate(178.613 77.811)" fill="#5e88a1"/><path d="M.5,1.431l.551.049.218-.444C1.078.622.315,1.33.045.757A.515.515,0,0,1,.359.08a.617.617,0,0,1,.665.034L.9.3.442.262.226.643c.205.41.948-.322,1.231.293a.537.537,0,0,1-.327.721.73.73,0,0,1-.753-.029Z" transform="translate(193.627 81.05)" fill="#015294"/><path d="M.216,1.33,0,.912.195.822l.14.254.008-.005A.636.636,0,0,1,.725.523L1.332.64A.582.582,0,0,1,1.686.077a.608.608,0,0,1,.883.384l.421.9-.2.091L2.376.562c-.114-.249-.3-.456-.6-.309a.5.5,0,0,0-.21.737l.39.848-.192.091-.423-.9C1.2.744,1.018.609.805.707c-.3.135-.429.444-.231.861l.348.752-.2.093Z" transform="translate(194.97 79.806)" fill="#015294"/><path d="M11.472,14.537c4.883-2.275,4.509-5.955,3.5-8.136l-3-6.4L8.373,1.678l2.875,6.163a2.38,2.38,0,0,1-1.241,3.533,2.392,2.392,0,0,1-3.53-1.32l-2.87-6.16L0,5.571l2.992,6.406c1.016,2.179,3.6,4.835,8.48,2.56" transform="translate(180.237 46.283)" fill="#015294"/><path d="M11.472,14.537c4.885-2.277,4.5-5.96,3.493-8.136l-3-6.4L8.373,1.675l2.87,6.16A2.383,2.383,0,0,1,10,11.376a2.391,2.391,0,0,1-3.527-1.323L3.6,3.893,0,5.576l2.989,6.4c1.018,2.176,3.595,4.832,8.482,2.557" transform="translate(153.479 58.744)" fill="#015294"/><path d="M4.125.87C-.76,3.142-.381,6.825.632,9l2.992,6.4,3.6-1.678L4.346,7.567A2.386,2.386,0,0,1,5.6,4.032,2.391,2.391,0,0,1,9.12,5.347L12,11.512l3.6-1.681-2.992-6.4C11.592,1.249,9.018-1.4,4.125.87" transform="translate(168.51 53.983)" fill="#015294"/><path d="M8.514,4.433C8.265,4.3,6.6,3.118,3.65,4.49c-3,1.4-4.662,3.994-2.979,7.6l3.1,6.648L7.291,17.1,4.185,10.45a2.055,2.055,0,0,1,1.1-3.011,2.054,2.054,0,0,1,3.008,1.1l3.1,6.65,3.522-1.637L11.813,6.9A2.05,2.05,0,0,1,12.9,3.888a2.062,2.062,0,0,1,3.015,1.1l3.1,6.65L22.534,10l-3.1-6.642c-1.686-3.613-4.75-4-7.745-2.609C8.743,2.119,8.574,4.158,8.514,4.433" transform="translate(195.122 38.191)" fill="#015294"/><path d="M.3,4.582A3.193,3.193,0,0,0,4.611,6.094,3.156,3.156,0,0,0,6.182,1.843,3.167,3.167,0,0,0,1.915.315,3.182,3.182,0,0,0,.3,4.582" transform="translate(167.354 47.33)" fill="#5e88a1"/><path d="M.3,4.582A3.2,3.2,0,0,0,4.609,6.1,3.165,3.165,0,0,0,6.186,1.843,3.173,3.173,0,0,0,1.913.315,3.189,3.189,0,0,0,.3,4.582" transform="translate(180.735 41.1)" fill="#5e88a1"/><path d="M.306,4.58A3.188,3.188,0,0,0,4.614,6.092,3.147,3.147,0,0,0,6.183,1.846,3.169,3.169,0,0,0,1.916.313,3.182,3.182,0,0,0,.306,4.58" transform="translate(197.51 33.287)" fill="#5e88a1"/><path d="M.5,1.433l.553.047.221-.438C1.078.624.32,1.329.044.756A.518.518,0,0,1,.361.079a.611.611,0,0,1,.662.036L.9.3.442.258.231.647c.195.407.943-.327,1.228.288a.539.539,0,0,1-.327.718A.728.728,0,0,1,.374,1.63Z" transform="translate(212.522 36.526)" fill="#015294"/><path d="M.218,1.328,0,.91.2.819l.14.259.01,0A.634.634,0,0,1,.719.526l.616.119A.582.582,0,0,1,1.683.08a.6.6,0,0,1,.883.381l.426.9-.2.093L2.376.56c-.114-.244-.291-.454-.6-.306a.509.509,0,0,0-.218.734l.395.853-.19.088-.423-.908C1.21.744,1.021.6.808.708a.583.583,0,0,0-.236.858l.351.755-.2.091Z" transform="translate(213.866 35.283)" fill="#015294"/><path d="M.3,4.581A3.2,3.2,0,0,0,4.614,6.1,3.191,3.191,0,1,0,1.915.315,3.19,3.19,0,0,0,.3,4.581" transform="translate(207.484 136.348)" fill="#5e88a1"/><path d="M.3,4.579A3.191,3.191,0,0,0,4.608,6.091,3.151,3.151,0,0,0,6.185,1.843,3.169,3.169,0,0,0,1.913.315,3.186,3.186,0,0,0,.3,4.579" transform="translate(224.259 128.536)" fill="#5e88a1"/><path d="M.495,1.431l.553.047.216-.441C1.076.622.318,1.333.045.754A.512.512,0,0,1,.357.08a.616.616,0,0,1,.665.034L.9.3.44.259.23.648c.195.4.945-.332,1.228.285a.535.535,0,0,1-.327.718.729.729,0,0,1-.756-.021Z" transform="translate(239.272 131.775)" fill="#015294"/><path d="M.216,1.331,0,.914.195.82l.138.257L.34,1.072A.638.638,0,0,1,.719.522l.61.119a.579.579,0,0,1,.353-.56A.6.6,0,0,1,2.566.46l.418.9-.2.093L2.379.561C2.257.31,2.08.1,1.776.255a.5.5,0,0,0-.216.734l.392.851-.195.086-.421-.9C1.2.74,1.016.608.805.706c-.3.135-.429.444-.234.864l.348.752-.2.091Z" transform="translate(240.616 130.533)" fill="#015294"/><path d="M11.469,14.537c4.888-2.277,4.509-5.958,3.5-8.134l-3-6.4L8.376,1.678l2.87,6.16A2.38,2.38,0,0,1,10,11.376a2.391,2.391,0,0,1-3.524-1.32L3.6,3.893,0,5.569l2.989,6.409c1.018,2.179,3.6,4.832,8.48,2.56" transform="translate(225.883 97.008)" fill="#015294"/><path d="M11.474,14.535c4.885-2.272,4.5-5.952,3.493-8.131l-3-6.4L8.379,1.675l2.872,6.16A2.382,2.382,0,0,1,10,11.376a2.391,2.391,0,0,1-3.524-1.318L3.607,3.9,0,5.571l2.995,6.411c1.016,2.173,3.595,4.829,8.48,2.552" transform="translate(199.119 109.47)" fill="#015294"/><path d="M4.126.87C-.759,3.142-.382,6.828.633,9L3.628,15.41l3.6-1.681L4.35,7.567A2.384,2.384,0,0,1,5.6,4.032,2.388,2.388,0,0,1,9.118,5.349L12,11.512l3.6-1.678L12.609,3.427C11.591,1.249,9.009-1.4,4.126.87" transform="translate(214.155 104.708)" fill="#015294"/><path d="M.3,4.583A3.19,3.19,0,0,0,4.608,6.1,3.154,3.154,0,0,0,6.182,1.844,3.167,3.167,0,0,0,1.912.314,3.188,3.188,0,0,0,.3,4.583" transform="translate(213.001 98.057)" fill="#5e88a1"/><path d="M.3,4.58A3.2,3.2,0,0,0,4.61,6.092,3.158,3.158,0,0,0,6.184,1.844,3.172,3.172,0,0,0,1.914.314,3.193,3.193,0,0,0,.3,4.58" transform="translate(226.38 91.826)" fill="#5e88a1"/><path d="M11.474,14.535c4.885-2.275,4.5-5.955,3.488-8.136L11.97,0l-3.6,1.673,2.872,6.163A2.378,2.378,0,0,1,10,11.371a2.385,2.385,0,0,1-3.522-1.318L3.6,3.893,0,5.574l2.992,6.4c1.013,2.176,3.6,4.832,8.482,2.557" transform="translate(218.02 64.95)" fill="#015294"/><path d="M.306,4.582A3.19,3.19,0,0,0,4.612,6.1,3.169,3.169,0,0,0,6.186,1.843,3.171,3.171,0,0,0,1.913.315,3.183,3.183,0,0,0,.306,4.582" transform="translate(231.898 53.533)" fill="#5e88a1"/><path d="M11.48,14.537c4.88-2.275,4.5-5.955,3.48-8.128L11.976,0l-3.6,1.678,2.883,6.16A2.383,2.383,0,0,1,10,11.373a2.386,2.386,0,0,1-3.524-1.32L3.6,3.893,0,5.574,2.995,11.98c1.016,2.176,3.6,4.829,8.485,2.557" transform="translate(43.287 1.813)" fill="#015294"/><path d="M11.48,14.535c4.875-2.275,4.5-5.955,3.48-8.131L11.97,0l-3.6,1.673,2.875,6.16A2.386,2.386,0,0,1,10,11.376a2.394,2.394,0,0,1-3.524-1.32L3.6,3.893,0,5.571l3,6.406c1.013,2.179,3.595,4.829,8.482,2.557" transform="translate(107.831 8.019)" fill="#015294"/><path d="M4.128.871C-.76,3.143-.381,6.826.632,9l2.995,6.4,3.6-1.675L4.349,7.568A2.38,2.38,0,0,1,5.6,4.033,2.385,2.385,0,0,1,9.12,5.348L12,11.51l3.6-1.675L12.605,3.426C11.59,1.25,9.013-1.4,4.128.871" transform="translate(122.865 3.256)" fill="#015294"/><path d="M11.472,14.537c4.885-2.275,4.511-5.96,3.5-8.136l-3-6.4L8.376,1.673l2.87,6.165A2.38,2.38,0,0,1,10,11.373a2.387,2.387,0,0,1-3.522-1.32L3.6,3.893,0,5.569l2.992,6.409c1.018,2.176,3.595,4.835,8.48,2.56" transform="translate(199.132 1.76)" fill="#015294"/><path d="M11.477,14.537c4.878-2.275,4.5-5.958,3.488-8.136L11.97,0,8.379,1.675l2.872,6.16A2.38,2.38,0,0,1,10,11.371a2.39,2.39,0,0,1-3.527-1.318L3.607,3.893,0,5.574l2.995,6.4c1.016,2.176,3.6,4.832,8.482,2.56" transform="translate(172.371 14.222)" fill="#015294"/><path d="M4.129.871C-.759,3.143-.38,6.826.63,9l3,6.4,3.6-1.675L4.347,7.568A2.384,2.384,0,0,1,5.6,4.033,2.386,2.386,0,0,1,9.12,5.348L12,11.51l3.6-1.675L12.614,3.426C11.593,1.25,9.014-1.4,4.129.871" transform="translate(187.405 9.459)" fill="#015294"/><path d="M.307,4.58A3.191,3.191,0,0,0,4.613,6.1,3.158,3.158,0,0,0,6.185,1.844,3.169,3.169,0,0,0,1.915.314,3.179,3.179,0,0,0,.307,4.58" transform="translate(186.25 2.806)" fill="#5e88a1"/><path d="M8.628,0a3.2,3.2,0,0,1-1,.724A2.3,2.3,0,0,1,4.506,0H0L.621,1.331C1.644,3.5,4.218,6.16,9.1,3.885A6.568,6.568,0,0,0,12.973,0Z" transform="translate(72.418 0.001)" fill="#015294"/><path d="M12.6.48c-.073-.158-.174-.319-.265-.48H1.254A5.5,5.5,0,0,0,.623,6.054L3.615,12.46l3.6-1.675L4.339,4.619A2.384,2.384,0,0,1,5.591,1.082,2.39,2.39,0,0,1,9.108,2.4l2.875,6.163,3.6-1.675Z" transform="translate(58.333)" fill="#015294"/><path d="M0,0A3.137,3.137,0,0,0,.288,1.183,3.192,3.192,0,0,0,4.592,2.7,3.151,3.151,0,0,0,6.425,0Z" transform="translate(121.726 0.001)" fill="#5e88a1"/><path d="M14.965,1.958,14.048,0H9.667l1.576,3.392A2.381,2.381,0,0,1,10,6.93,2.391,2.391,0,0,1,6.475,5.61L3.859,0H2.418L0,1.126,2.989,7.535C4,9.711,6.584,12.367,11.469,10.089s4.511-5.952,3.5-8.131" transform="translate(134.592 0.001)" fill="#015294"/></g><path d="M0,0,2.9,6.2,6.412,4.565,4.285,0Z" transform="translate(154.02 0.002)" fill="#00538f"/><path d="M0,0,1.239,2.651,4.755,1.017,4.28,0Z" transform="translate(163.304 0.002)" fill="#00538f"/><g transform="translate(203.322 0.002)"><path d="M0,0A3.2,3.2,0,0,0,.278,1.157,3.2,3.2,0,0,0,4.589,2.671,3.15,3.15,0,0,0,6.412,0Z" transform="translate(0 0)" fill="#4e7792"/><path d="M11.634,0H1.146C-.082,1.45-.446,3.38.663,5.763l3.1,6.64,3.519-1.642L4.18,4.116A2.056,2.056,0,0,1,5.273,1.1a2.06,2.06,0,0,1,3.018,1.1l3.1,6.645,3.524-1.637L11.805.568A2.783,2.783,0,0,1,11.634,0" transform="translate(14.371 0)" fill="#00538f"/></g><path d="M0,0,2.478,5.3,6,3.665,4.291,0Z" transform="translate(234.224 0.002)" fill="#00538f"/><path d="M8.791,7.781A2.356,2.356,0,0,1,6.477,6.163L3.6,0,0,1.678,2.995,8.084a5.469,5.469,0,0,0,5.8,3.338Z" transform="translate(240.579 24.317)" fill="#00538f"/><path d="M0,.2l.416.892V0Z" transform="translate(248.955 21.902)" fill="#00538f"/><g transform="translate(197.833 60.187)"><path d="M12.652,3.524l-.044-.093C11.592,1.252,9.01-1.407,4.128.873S-.384,6.826.634,9l2.992,6.4,3.6-1.673L4.346,7.565A2.384,2.384,0,0,1,5.6,4.027,2.4,2.4,0,0,1,9.119,5.345l2.872,6.163.66-.306Z" transform="translate(38.887 0)" fill="#00538f"/><path d="M2.547,0a3.04,3.04,0,0,0-.631.158A3.18,3.18,0,0,0,.306,4.425,3.086,3.086,0,0,0,2.547,6.139Z" transform="translate(48.991 23.987)" fill="#4e7792"/><path d="M4.9,7.929l-.709-1.52A2.018,2.018,0,0,1,4.9,3.66V0A7.425,7.425,0,0,0,3.654.446c-3,1.4-4.667,4-2.982,7.61l3.1,6.642L4.9,14.177Z" transform="translate(46.6 32.77)" fill="#00538f"/><path d="M6.4,2.957a3.261,3.261,0,0,0-.27-1.115A3.171,3.171,0,0,0,1.854.317,3.187,3.187,0,0,0,0,2.957Z" transform="translate(0 82.396)" fill="#4e7792"/></g><path d="M5.42,3.9,3.6,0,0,1.681,1.036,3.9Z" transform="translate(219.026 141.53)" fill="#00538f"/><path d="M0,.005H.013V0Z" transform="translate(214.243 145.425)" fill="#00538f"/><g transform="translate(136.208 133.44)"><path d="M4.9,11.991,4.18,10.45A2.056,2.056,0,0,1,5.271,7.437a2.064,2.064,0,0,1,3.015,1.1l1.608,3.452h4.288L11.806,6.9a2.05,2.05,0,0,1,1.086-3.011A2.053,2.053,0,0,1,15.9,5l3.114,6.642L22.527,10l-3.1-6.642C17.74-.256,14.683-.65,11.676.75,8.738,2.12,8.562,4.156,8.51,4.433,8.258,4.3,6.585,3.121,3.645,4.49.672,5.878-.978,8.435.625,11.991Z" transform="translate(89.337)" fill="#00538f"/><path d="M10.178,2.4C8.9.548,6.428-1.052,2.3.87A8.792,8.792,0,0,0,0,2.4Z" transform="translate(0 9.588)" fill="#00538f"/><path d="M3.083,10H7.124A6.225,6.225,0,0,0,6.592,6.4l-3-6.4L0,1.675,2.875,7.841A2.673,2.673,0,0,1,3.083,10" transform="translate(18.273 1.889)" fill="#00538f"/></g><path d="M6.449,6.1,3.6,0,0,1.678,2.067,6.1Z" transform="translate(146.113 139.222)" fill="#00538f"/><path d="M19.433,3.357c-1.686-3.616-4.748-4-7.742-2.609C8.74,2.115,8.574,4.156,8.514,4.436,8.262,4.3,6.6,3.113,3.65,4.49c-3,1.4-4.662,3.992-2.979,7.6l2.9,6.214H4.707L7.294,17.1,4.187,10.448a2.052,2.052,0,0,1,1.1-3.014,2.061,2.061,0,0,1,3.01,1.107l3.1,6.648,3.519-1.639L11.813,6.9A2.048,2.048,0,0,1,12.9,3.889a2.057,2.057,0,0,1,3.015,1.1l3.1,6.642L22.531,10Z" transform="translate(160.996 127.239)" fill="#00538f"/><path d="M5.394,3.844,3.6,0,0,1.673,1.013,3.844Z" transform="translate(63.181 141.587)" fill="#00538f"/><g transform="translate(0 130.625)"><path d="M4.878,8.714,4.343,7.565A2.374,2.374,0,0,1,5.6,4.033,2.381,2.381,0,0,1,9.108,5.345L10.68,8.714h4.392L12.6,3.426C11.584,1.25,9-1.4,4.119.871-.561,3.052-.4,6.515.512,8.714Z" transform="translate(69.849 6.201)" fill="#00538f"/><path d="M12.61,3.424C11.592,1.248,9.015-1.4,4.125.869S-.381,6.826.631,9l2.714,5.81H4.909l2.317-1.079L4.345,7.566A2.388,2.388,0,0,1,5.6,4.028,2.387,2.387,0,0,1,9.119,5.343L12,11.511l3.6-1.678Z" transform="translate(5.299 0)" fill="#00538f"/><path d="M0,4.593,1.512,7.833A2.631,2.631,0,0,1,1.68,10.05H5.75A6.183,6.183,0,0,0,5.228,6.4L2.234,0,0,1.043Z" transform="translate(0 4.76)" fill="#00538f"/></g><path d="M0,2.793l1.073-.5L0,0Z" transform="translate(0.108 75.359)" fill="#00538f"/><g transform="translate(0 27.673)"><path d="M5.592,3.347C4.314.605,2.239-.274,0,.071V3.619A2.041,2.041,0,0,1,2.07,4.984l3.1,6.648L8.7,9.994Z" transform="translate(0.108 36.44)" fill="#00538f"/><path d="M5.239,6.4,2.249,0,0,1.045V4.57L1.525,7.835A2.38,2.38,0,0,1,.28,11.373c-.1.044-.187.049-.28.086v3.714a10.149,10.149,0,0,0,1.751-.638c4.885-2.272,4.5-5.95,3.488-8.131" transform="translate(0 0)" fill="#00538f"/></g><path d="M0,0V3.963l1.07,2.29,3.6-1.673L2.535,0Z" transform="translate(0 0.002)" fill="#00538f"/></g></g></g></g><g transform="translate(7.25 7.249)"><path d="M16.315,32.626A16.313,16.313,0,1,1,32.627,16.312,16.318,16.318,0,0,1,16.315,32.626Z" transform="translate(0 0)" fill="#fff"/><path d="M16.316,32.626a16.282,16.282,0,1,1,11.543-4.77A16.333,16.333,0,0,1,16.316,32.626Zm0-13.638h0L22.7,25.375,25.375,22.7l-6.387-6.387,6.387-6.387L22.7,7.25l-6.387,6.387L9.925,7.25,7.25,9.925l6.387,6.387L7.25,22.7l2.675,2.675,6.386-6.386Z" transform="translate(0 0)" fill="#e85656"/></g><g transform="translate(0)" fill="none" stroke="#dee5eb" stroke-miterlimit="10" stroke-width="1"><rect width="248.303" height="117.808" rx="4" stroke="none"/><rect x="0.5" y="0.5" width="247.303" height="116.808" rx="3.5" fill="none"/></g></g></svg>