<svg xmlns="http://www.w3.org/2000/svg" xmlns:xlink="http://www.w3.org/1999/xlink" width="248.303" height="117.808" viewBox="0 0 248.303 117.808"><defs><clipPath id="a"><path d="M0,39.032V0H21.478V39.032H0Z" fill="none"/></clipPath><clipPath id="b"><path d="M0,64.448H115.794V0H0Z" fill="none"/></clipPath></defs><g transform="translate(0 0)"><g transform="translate(0)" fill="#fff" stroke="#dee5eb" stroke-miterlimit="10" stroke-width="1"><rect width="248.303" height="117.808" rx="4" stroke="none"/><rect x="0.5" y="0.5" width="247.303" height="116.808" rx="3.5" fill="none"/></g><g transform="translate(70.685 23.561)"><path d="M10.74,39.032C1.974,39.032,0,28.506,0,21.28V0H6.458V20.468c0,5.613,1.709,8.065,4.283,8.065s4.276-2.452,4.276-8.065V0h6.459V21.28C21.475,28.506,19.5,39.032,10.74,39.032Z" transform="translate(48.014 25.415)" fill="#015294"/><g transform="translate(0 25.415)"><path d="M0,39.032V0H21.478V39.032H0Z" transform="translate(0 0)" fill="none"/><g transform="translate(0 0)" clip-path="url(#a)"><path d="M10.74,39.032c8.763,0,10.739-10.527,10.739-17.753V0H15.02V20.468c0,5.613-1.707,8.065-4.279,8.065s-4.281-2.452-4.281-8.065V0H0V21.28c0,7.226,1.977,17.753,10.74,17.753" transform="translate(-0.001)" fill="#015294"/></g></g><path d="M10.742,0C1.977,0,0,10.525,0,17.749V39.027H6.459V18.554c0-5.6,1.709-8.056,4.283-8.056s4.279,2.459,4.279,8.056V39.027h6.458V17.749C21.479,10.525,19.505,0,10.742,0" transform="translate(24.005 23.937)" fill="#015294"/><path d="M16.83,6.03C16.551,5.343,14.905,0,9.619,0,4.239,0,0,4.962,0,16.963V39.027H6.313V16.943c0-3.87,1.071-6.833,3.679-6.833s3.679,2.963,3.679,6.833V39.027h6.316V16.943c0-3.87,1.068-6.833,3.677-6.833s3.681,2.963,3.681,6.833V39.027H33.66V16.963C33.66,4.962,29.419,0,24.038,0c-5.283,0-6.931,5.343-7.208,6.03" transform="translate(72.021 23.937)" fill="#015294"/><path d="M5.31,19.19c2.931,0,5.236-4.172,5.236-9.6S8.241,0,5.31,0C2.347,0,0,4.17,0,9.591S2.347,19.19,5.31,19.19Z" transform="translate(29.436 0)" fill="#5e88a1"/><path d="M5.312,19.19c2.933,0,5.234-4.172,5.234-9.6S8.245,0,5.312,0C2.351,0,0,4.17,0,9.591S2.351,19.19,5.312,19.19Z" transform="translate(53.44 0)" fill="#5e88a1"/><path d="M5.31,19.19c2.933,0,5.238-4.172,5.238-9.6S8.243,0,5.31,0C2.349,0,0,4.17,0,9.591S2.349,19.19,5.31,19.19Z" transform="translate(83.541 0)" fill="#5e88a1"/><path d="M0,64.448H115.794V0H0Z" transform="translate(0 0)" fill="none"/><g transform="translate(0 0)" clip-path="url(#b)"><path d="M3.286,6.65A3.158,3.158,0,0,1,.969,5.668,3.241,3.241,0,0,1,0,3.324,3.209,3.209,0,0,1,.975.974,3.219,3.219,0,0,1,3.324,0,3.215,3.215,0,0,1,5.674.974,3.2,3.2,0,0,1,6.65,3.317,3.213,3.213,0,0,1,5.672,5.68,3.274,3.274,0,0,1,3.286,6.65ZM3.324.475A2.671,2.671,0,0,0,1.146,1.5,2.873,2.873,0,0,0,.475,3.324a2.777,2.777,0,0,0,.831,2.007,2.7,2.7,0,0,0,1.981.843A2.7,2.7,0,0,0,5.5,5.152,2.821,2.821,0,0,0,5.5,1.5,2.667,2.667,0,0,0,3.324.475ZM2.807,5.136H2.229V1.541H3.364a1.281,1.281,0,0,1,.815.221.8.8,0,0,1,.271.66,1.107,1.107,0,0,1-.158.586,1.369,1.369,0,0,1-.471.454L4.9,5.132l-.67,0-.971-1.5H2.807v1.5ZM2.768,1.913V3.188h.167a1.188,1.188,0,0,0,.712-.177.623.623,0,0,0,.238-.532.489.489,0,0,0-.2-.425,1.044,1.044,0,0,0-.6-.141Z" transform="translate(105.343 21.287)" fill="#015294"/></g></g><g transform="translate(7.25 7.25)"><path d="M16.315,32.626A16.313,16.313,0,1,1,32.627,16.312,16.318,16.318,0,0,1,16.315,32.626Z" fill="#fff"/><path d="M16.316,32.626a16.282,16.282,0,1,1,11.543-4.77A16.333,16.333,0,0,1,16.316,32.626Zm0-13.638h0L22.7,25.375,25.375,22.7l-6.387-6.387,6.387-6.387L22.7,7.25l-6.387,6.387L9.925,7.25,7.25,9.925l6.387,6.387L7.25,22.7l2.675,2.675,6.386-6.386Z" transform="translate(0 0)" fill="#e85656"/></g></g></svg>