<svg xmlns="http://www.w3.org/2000/svg" xmlns:xlink="http://www.w3.org/1999/xlink" width="248.303" height="117.808" viewBox="0 0 248.303 117.808"><defs><clipPath id="a"><path d="M28.874,28.387H0V0H28.874V28.387Z" fill="none"/></clipPath><clipPath id="b"><path d="M28.875,28.387H0V0H28.875Z" fill="none"/></clipPath><clipPath id="c"><path d="M0,0H23.968V23.587H0V0Z" fill="none"/></clipPath></defs><g transform="translate(0 0)"><g transform="translate(0)" fill="#fff" stroke="#dee5eb" stroke-miterlimit="10" stroke-width="1"><rect width="248.303" height="117.808" rx="4" stroke="none"/><rect x="0.5" y="0.5" width="247.303" height="116.808" rx="3.5" fill="none"/></g><g transform="translate(56.186 26.693)"><g transform="translate(64.557 28.115)"><path d="M28.874,28.387H0V0H28.874V28.387Z" transform="translate(0 0)" fill="none"/><g transform="translate(0 0)" clip-path="url(#a)"><path d="M14.439,28.387c11.779,0,14.435-7.657,14.435-12.912V0H20.188V14.886c0,4.082-2.292,5.866-5.75,5.866s-5.754-1.783-5.754-5.866V0H0V15.475C0,20.73,2.653,28.387,14.439,28.387" fill="#00538f"/></g></g><g transform="translate(0 28.115)"><path d="M28.875,28.387H0V0H28.875Z" transform="translate(0 0)" fill="none"/><g transform="translate(0 0)" clip-path="url(#b)"><path d="M14.44,28.387c11.781,0,14.435-7.657,14.435-12.912V0H20.191V14.886c0,4.082-2.294,5.866-5.751,5.866s-5.756-1.783-5.756-5.866V0H0V15.475C0,20.73,2.659,28.387,14.44,28.387" fill="#00538f"/></g></g><path d="M14.441,0C2.66,0,0,7.654,0,12.908V28.382H8.686V13.492c0-4.07,2.294-5.858,5.755-5.858s5.751,1.787,5.751,5.858v14.89h8.685V12.908C28.878,7.654,26.223,0,14.441,0" transform="translate(32.276 27.04)" fill="#015294"/><path d="M22.632,4.385C22.258,3.885,20.042,0,12.939,0,5.7,0,0,3.608,0,12.335V28.383H8.49V12.322c0-2.814,1.438-4.969,4.946-4.969s4.948,2.155,4.948,4.969V28.383h8.493V12.322c0-2.814,1.437-4.969,4.947-4.969s4.947,2.155,4.947,4.969V28.383h8.49V12.335C45.261,3.608,39.558,0,32.322,0c-7.1,0-9.319,3.885-9.69,4.385" transform="translate(96.832 27.04)" fill="#015294"/><path d="M0,6.976a6.981,6.981,0,0,0,7.139,6.981,6.923,6.923,0,0,0,7.043-6.981A6.92,6.92,0,0,0,7.139,0,6.978,6.978,0,0,0,0,6.976" transform="translate(39.576 9.631)" fill="#5e88a1"/><path d="M0,9.07a9.078,9.078,0,0,0,9.285,9.075,8.994,8.994,0,0,0,9.15-9.075A8.992,8.992,0,0,0,9.285,0,9.076,9.076,0,0,0,0,9.07" transform="translate(69.724 5.443)" fill="#5e88a1"/><g transform="translate(107.432 0)"><path d="M0,0H23.968V23.587H0V0Z" transform="translate(0 0)" fill="none"/><g transform="translate(0 0)" clip-path="url(#c)"><path d="M0,11.789a11.8,11.8,0,0,0,12.066,11.8,11.7,11.7,0,0,0,11.9-11.8A11.7,11.7,0,0,0,12.066,0,11.8,11.8,0,0,0,0,11.789" transform="translate(0 -0.001)" fill="#5e88a1"/></g></g></g><g transform="translate(7.25 7.25)"><path d="M16.315,32.626A16.313,16.313,0,1,1,32.627,16.312,16.318,16.318,0,0,1,16.315,32.626Z" fill="#fff"/><path d="M16.316,32.626a16.282,16.282,0,1,1,11.543-4.77A16.333,16.333,0,0,1,16.316,32.626Zm0-13.638h0L22.7,25.375,25.375,22.7l-6.387-6.387,6.387-6.387L22.7,7.25l-6.387,6.387L9.925,7.25,7.25,9.925l6.387,6.387L7.25,22.7l2.675,2.675,6.386-6.386Z" transform="translate(0 0)" fill="#e75656"/></g></g></svg>