<svg width="170" height="82" viewBox="0 0 170 82" xmlns="http://www.w3.org/2000/svg" xmlns:xlink="http://www.w3.org/1999/xlink"><title>Improper-logo-05</title><defs><rect id="a" width="170" height="80.657" rx="4"/></defs><g transform="translate(0 .657)" fill="none" fill-rule="evenodd"><mask id="b" fill="#fff"><use xlink:href="#a"/></mask><use fill="#FFF" xlink:href="#a"/><g mask="url(#b)"><path fill="#E6EAEE" d="M-1.212 93.386H169.49V-6.24H-1.212z"/><path d="M18.273 87.87c3.343-1.555 3.085-4.075 2.39-5.566l-2.052-4.386-2.463 1.148 1.968 4.22c.543 1.154.123 1.964-.853 2.42-.982.46-1.87.257-2.41-.904l-1.972-4.219-2.464 1.152 2.045 4.385c.697 1.491 2.464 3.31 5.81 1.75m8.168-12.456c-.176-.092-1.316-.9-3.333.038-2.055.96-3.195 2.736-2.041 5.208l2.125 4.55 2.411-1.125-2.13-4.551c-.368-.797-.25-1.6.75-2.062.996-.467 1.688-.042 2.063.753l2.121 4.553 2.415-1.122-2.123-4.553c-.377-.797-.253-1.598.741-2.062.994-.465 1.691-.042 2.061.755l2.123 4.551 2.413-1.12-2.123-4.551c-1.156-2.472-3.248-2.74-5.304-1.785-2.015.938-2.132 2.335-2.17 2.523" fill="#015294"/><path d="M1.806 81.772c.52 1.12 1.817 1.564 2.95 1.04 1.118-.522 1.597-1.795 1.072-2.914-.52-1.118-1.8-1.566-2.921-1.047-1.133.527-1.626 1.805-1.101 2.92m9.158-4.264c.525 1.117 1.82 1.561 2.948 1.036 1.12-.519 1.6-1.792 1.078-2.909-.521-1.119-1.801-1.566-2.922-1.046-1.132.524-1.627 1.802-1.104 2.92M22.45 72.16c.526 1.118 1.818 1.562 2.95 1.033 1.121-.52 1.603-1.788 1.075-2.91-.52-1.117-1.803-1.565-2.923-1.046-1.13.525-1.624 1.805-1.103 2.922" fill="#5E88A1"/><path d="M32.86 72.22l.378.03.15-.3c-.13-.284-.651.2-.836-.195-.093-.199.046-.384.217-.462.163-.076.325-.073.451.025l-.082.126-.316-.028-.144.266c.132.279.644-.225.841.197.1.212-.03.4-.226.494-.178.082-.366.09-.517-.018l.083-.135zm.729-.919l-.15-.288.137-.062.096.174.006-.002a.432.432 0 0 1 .256-.376l.416.082a.405.405 0 0 1 .243-.387c.328-.15.504.035.605.262l.288.615-.137.064-.28-.611c-.083-.169-.204-.31-.413-.21-.253.116-.22.357-.148.503l.272.582-.135.06-.29-.617c-.087-.192-.219-.286-.363-.217-.202.092-.295.304-.16.59l.239.515-.136.063-.346-.74zm37.037 8.362c-.172-.094-1.314-.902-3.332.037-2.052.957-3.192 2.735-2.04 5.208l2.127 4.548 2.41-1.124-2.127-4.551c-.372-.8-.25-1.598.747-2.064.994-.463 1.687-.04 2.062.757l2.123 4.551 2.412-1.12-2.122-4.557c-.375-.795-.254-1.594.742-2.058.997-.467 1.69-.043 2.06.755l2.126 4.55 2.409-1.121-2.121-4.548c-1.154-2.475-3.253-2.742-5.303-1.786-2.018.937-2.134 2.333-2.173 2.523" fill="#015294"/><path d="M55.152 81.754c.525 1.12 1.821 1.565 2.952 1.037 1.12-.522 1.597-1.793 1.074-2.912-.52-1.117-1.8-1.566-2.923-1.046-1.13.526-1.62 1.806-1.103 2.921m11.485-5.35c.525 1.121 1.823 1.563 2.95 1.038 1.122-.52 1.603-1.792 1.078-2.91-.523-1.118-1.803-1.567-2.922-1.049-1.13.526-1.623 1.806-1.106 2.921" fill="#5E88A1"/><path d="M77.05 76.467l.376.032.153-.302c-.133-.284-.654.2-.839-.195-.094-.2.046-.384.215-.46.17-.078.33-.075.457.023l-.087.126-.313-.028-.142.266c.13.279.642-.224.84.199.099.208-.031.396-.228.488-.176.084-.365.094-.514-.014l.081-.135zm.729-.921l-.148-.286.135-.062.093.176.007-.005a.424.424 0 0 1 .258-.375l.416.082a.402.402 0 0 1 .245-.388c.324-.15.5.036.605.263l.286.616-.139.063-.28-.611c-.082-.17-.203-.311-.413-.208-.249.114-.215.357-.148.502l.27.581-.13.06-.293-.616c-.088-.195-.22-.287-.366-.218-.2.092-.291.304-.158.59l.24.516-.135.06-.345-.74zM1.61 37.491l.378.03.15-.298c-.132-.288-.653.197-.838-.197-.094-.2.045-.384.215-.46.167-.08.327-.077.454.021l-.086.128-.31-.028-.143.266c.132.279.642-.226.837.197.102.211-.028.4-.224.492-.18.082-.37.09-.515-.016l.082-.135zm.729-.923l-.148-.284.132-.062.096.174.003-.003a.432.432 0 0 1 .262-.375l.416.082a.406.406 0 0 1 .244-.388c.323-.149.5.036.604.261l.288.617-.137.062-.286-.608c-.073-.17-.197-.314-.409-.21-.25.113-.219.356-.148.502l.269.584-.133.057-.29-.615c-.087-.195-.217-.287-.361-.218-.205.09-.292.304-.16.59l.24.514-.137.063-.345-.743zm28.867 20.82c3.347-1.555 3.087-4.075 2.392-5.567l-2.047-4.384-2.468 1.149 1.97 4.215c.543 1.156.123 1.964-.851 2.422-.985.46-1.873.256-2.412-.903l-1.97-4.218-2.466 1.15 2.045 4.387c.699 1.488 2.464 3.306 5.807 1.75m-18.318 8.533c3.341-1.56 3.083-4.077 2.386-5.569l-2.048-4.382-2.458 1.145 1.967 4.217c.54 1.156.125 1.964-.857 2.422-.981.459-1.869.256-2.413-.902L7.5 58.634l-2.47 1.15 2.05 4.383c.696 1.494 2.465 3.309 5.808 1.755m5.26-12.618c-3.341 1.556-3.083 4.077-2.39 5.567l2.05 4.385 2.463-1.148-1.97-4.22c-.539-1.151-.123-1.961.862-2.42.976-.457 1.865-.253 2.406.901l1.97 4.221 2.467-1.15-2.049-4.385c-.697-1.491-2.464-3.308-5.81-1.75m21.229-8.373c-.174-.092-1.317-.9-3.332.04-2.052.958-3.193 2.734-2.041 5.206l2.125 4.545 2.413-1.12-2.129-4.551c-.371-.8-.247-1.598.749-2.062.994-.467 1.69-.046 2.063.753l2.12 4.553 2.412-1.122-2.125-4.553c-.373-.798-.249-1.602.747-2.062.996-.465 1.69-.042 2.06.753l2.128 4.553 2.409-1.122-2.123-4.548c-1.156-2.473-3.254-2.74-5.306-1.785-2.011.938-2.129 2.334-2.17 2.522" fill="#015294"/><path d="M14.744 51.29c.52 1.12 1.818 1.564 2.948 1.04 1.12-.522 1.599-1.797 1.073-2.914-.518-1.119-1.802-1.566-2.918-1.048-1.135.527-1.63 1.806-1.103 2.923m9.156-4.266c.529 1.12 1.822 1.561 2.95 1.037 1.123-.522 1.6-1.792 1.077-2.912-.523-1.119-1.802-1.566-2.92-1.046-1.131.526-1.625 1.804-1.106 2.921m11.489-5.35c.52 1.12 1.817 1.561 2.95 1.036 1.116-.52 1.596-1.79 1.072-2.91-.521-1.116-1.803-1.565-2.918-1.045-1.133.526-1.627 1.802-1.105 2.92" fill="#5E88A1"/><path d="M45.796 41.738l.379.032.151-.302c-.13-.284-.65.199-.834-.195-.096-.2.04-.384.213-.462.17-.078.328-.075.452.025l-.085.126-.311-.029-.144.265c.131.28.645-.222.84.199.098.21-.031.398-.223.492-.18.081-.37.092-.52-.016l.082-.135zm.731-.921l-.149-.284.135-.064.093.174.007-.002a.434.434 0 0 1 .256-.375l.418.08a.408.408 0 0 1 .245-.387c.322-.149.501.036.603.261l.286.616-.133.064-.281-.609c-.08-.172-.203-.312-.413-.211-.252.115-.218.359-.147.503l.268.582-.135.062-.286-.62c-.093-.193-.219-.285-.365-.216-.203.092-.295.302-.16.59l.238.514-.136.062-.344-.74zM75.4 61.637c3.341-1.56 3.083-4.08 2.388-5.569l-2.048-4.384-2.465 1.145 1.967 4.221c.542 1.156.128 1.962-.854 2.42-.983.46-1.87.256-2.41-.902l-1.97-4.219-2.468 1.147 2.05 4.392c.698 1.488 2.463 3.303 5.81 1.749m-18.322 8.532c3.341-1.556 3.082-4.08 2.39-5.57l-2.052-4.383-2.46 1.145 1.966 4.22c.542 1.157.126 1.961-.857 2.421-.982.46-1.867.258-2.41-.904l-1.968-4.217-2.466 1.15 2.05 4.389c.691 1.488 2.46 3.304 5.807 1.749m5.26-12.618c-3.341 1.554-3.085 4.079-2.39 5.569l2.047 4.384 2.466-1.149-1.972-4.219c-.537-1.152-.12-1.964.863-2.42.98-.46 1.863-.252 2.404.902l1.97 4.219 2.47-1.15-2.05-4.385c-.696-1.492-2.461-3.308-5.808-1.75m21.227-8.372c-.173-.093-1.316-.901-3.332.038-2.056.959-3.194 2.735-2.04 5.205l2.127 4.55 2.407-1.123-2.125-4.551c-.371-.8-.25-1.599.745-2.066.994-.46 1.692-.04 2.065.759l2.12 4.55 2.412-1.121-2.12-4.553c-.376-.796-.253-1.599.739-2.06 1-.465 1.69-.043 2.066.753l2.127 4.55 2.41-1.12-2.124-4.549c-1.154-2.472-3.256-2.74-5.308-1.786-2.014.939-2.126 2.333-2.17 2.525" fill="#015294"/><path d="M58.934 55.536c.52 1.12 1.816 1.565 2.947 1.037 1.12-.52 1.6-1.788 1.076-2.908-.521-1.12-1.803-1.568-2.925-1.048-1.128.527-1.62 1.804-1.098 2.92m9.159-4.265c.52 1.12 1.82 1.56 2.95 1.037 1.116-.524 1.596-1.794 1.074-2.914-.523-1.117-1.802-1.564-2.922-1.044-1.129.525-1.627 1.804-1.102 2.92m11.483-5.347c.525 1.119 1.82 1.563 2.952 1.035 1.12-.518 1.597-1.791 1.076-2.91-.523-1.117-1.807-1.566-2.924-1.046-1.129.525-1.623 1.804-1.104 2.921" fill="#5E88A1"/><path d="M89.986 45.985l.38.032.148-.302c-.131-.284-.652.2-.834-.194-.096-.202.043-.385.212-.461.167-.079.329-.075.457.023l-.087.126-.313-.029-.144.265c.133.28.644-.222.841.199.1.211-.028.4-.224.492-.176.081-.368.09-.517-.016l.081-.135zm.728-.919l-.146-.288.135-.06.093.174.009-.006a.42.42 0 0 1 .257-.374l.415.081a.408.408 0 0 1 .245-.387c.322-.149.502.032.605.263l.286.614-.137.064-.28-.612c-.08-.167-.204-.31-.415-.206-.25.112-.215.355-.144.499l.268.582-.133.062-.292-.618c-.09-.192-.217-.284-.362-.216-.203.092-.296.303-.159.59l.239.514-.134.064-.35-.74zM8.125 10.203c-.174-.094-1.314-.9-3.334.037-2.052.957-3.19 2.735-2.038 5.208l2.125 4.548 2.41-1.122-2.127-4.551c-.37-.798-.251-1.599.748-2.064.996-.465 1.69-.042 2.06.757l2.124 4.55 2.411-1.121-2.124-4.555c-.372-.796-.248-1.597.746-2.06.996-.467 1.69-.043 2.061.755l2.129 4.55 2.406-1.121-2.124-4.548c-1.154-2.475-3.248-2.742-5.302-1.785-2.018.934-2.134 2.332-2.171 2.522" fill="#015294"/><path d="M4.136 6.946c.523 1.12 1.82 1.561 2.95 1.037 1.119-.522 1.599-1.791 1.078-2.914-.527-1.115-1.805-1.564-2.922-1.044-1.13.528-1.627 1.802-1.106 2.921" fill="#5E88A1"/><path d="M14.548 7.007l.377.034.15-.304c-.13-.284-.653.2-.838-.192-.096-.204.044-.385.215-.463.169-.077.33-.075.455.025l-.085.127-.313-.031-.144.268c.133.278.644-.222.841.197.098.208-.028.4-.226.492-.176.08-.366.09-.515-.015l.083-.138zm.726-.921l-.148-.286.137-.062.093.178.007-.004a.434.434 0 0 1 .258-.376l.418.08a.403.403 0 0 1 .243-.388c.324-.147.5.034.603.261l.29.617-.137.063-.283-.609c-.08-.167-.203-.31-.412-.21-.251.118-.217.358-.148.503l.269.583-.13.06-.292-.62c-.092-.188-.22-.282-.368-.216-.197.094-.292.305-.156.59l.236.514-.133.064-.347-.742zm28.873 20.822c3.342-1.56 3.081-4.08 2.388-5.57l-2.049-4.385-2.464 1.147 1.972 4.22c.538 1.155.124 1.963-.856 2.421-.983.458-1.87.258-2.413-.904L38.76 19.62l-2.468 1.149 2.049 4.386c.697 1.49 2.459 3.308 5.806 1.753m-18.32 8.53c3.343-1.556 3.081-4.077 2.388-5.567l-2.05-4.385-2.463 1.148 1.97 4.215c.539 1.158.124 1.966-.857 2.424-.98.458-1.87.258-2.415-.902l-1.963-4.22-2.466 1.152 2.045 4.386c.7 1.488 2.466 3.304 5.81 1.749m5.259-12.614c-3.343 1.554-3.082 4.075-2.387 5.567l2.045 4.384 2.468-1.149-1.973-4.22c-.537-1.152-.123-1.961.857-2.42.983-.458 1.87-.253 2.413.9l1.963 4.22 2.473-1.147-2.05-4.388c-.697-1.488-2.463-3.305-5.81-1.747m21.229-8.374c-.17-.093-1.316-.9-3.332.039-2.052.959-3.192 2.734-2.038 5.206l2.125 4.55 2.408-1.124-2.125-4.552c-.374-.799-.25-1.598.745-2.063.996-.465 1.69-.043 2.063.757l2.123 4.549 2.414-1.119-2.126-4.555c-.375-.797-.25-1.6.745-2.061.994-.465 1.687-.043 2.064.753l2.122 4.553 2.409-1.123-2.121-4.547c-1.156-2.472-3.253-2.74-5.306-1.785-2.013.936-2.13 2.334-2.17 2.522" fill="#015294"/><path d="M27.683 20.807c.52 1.119 1.817 1.564 2.946 1.037 1.119-.52 1.597-1.788 1.076-2.91-.523-1.12-1.803-1.567-2.92-1.048-1.13.527-1.628 1.806-1.102 2.921m9.155-4.264c.524 1.119 1.82 1.56 2.953 1.035 1.119-.52 1.597-1.792 1.073-2.91-.52-1.12-1.802-1.565-2.918-1.046-1.13.525-1.63 1.804-1.108 2.92m11.487-5.349c.524 1.119 1.82 1.563 2.951 1.037 1.119-.522 1.599-1.792 1.074-2.91-.519-1.117-1.803-1.567-2.92-1.046-1.132.527-1.628 1.802-1.105 2.919" fill="#5E88A1"/><path d="M58.738 11.254l.374.032.153-.299c-.13-.287-.655.198-.836-.195-.096-.202.044-.383.212-.463.168-.077.327-.073.458.024l-.092.128-.31-.03-.142.267c.132.278.644-.224.84.197.1.21-.029.4-.228.49-.176.083-.365.09-.512-.014l.083-.137zm.726-.921l-.147-.286.131-.06.096.175.007-.003a.43.43 0 0 1 .256-.375l.42.08a.4.4 0 0 1 .244-.387c.323-.151.501.035.606.261l.284.614-.138.064-.278-.609c-.081-.167-.204-.31-.417-.21-.248.116-.216.36-.143.503l.267.583-.132.062-.29-.623c-.088-.189-.218-.281-.364-.215-.2.094-.293.305-.164.59l.244.516-.133.062-.349-.742zm28.873 20.821c3.34-1.557 3.083-4.078 2.39-5.57l-2.05-4.384-2.463 1.149 1.966 4.219c.543 1.156.126 1.96-.853 2.42-.982.46-1.867.256-2.41-.904l-1.968-4.217-2.468 1.149 2.048 4.386c.696 1.49 2.463 3.308 5.808 1.752m-18.324 8.531c3.347-1.556 3.084-4.076 2.392-5.566l-2.05-4.386-2.465 1.146 1.969 4.219c.54 1.156.128 1.964-.854 2.422-.985.46-1.87.257-2.411-.902L64.625 32.4l-2.462 1.148 2.045 4.387c.695 1.49 2.462 3.307 5.805 1.75m5.262-12.616c-3.343 1.554-3.087 4.077-2.388 5.569l2.045 4.382 2.468-1.147-1.97-4.22c-.541-1.152-.125-1.961.857-2.421.98-.458 1.868-.252 2.407.904l1.97 4.219 2.469-1.151-2.05-4.384c-.698-1.49-2.462-3.308-5.808-1.751m21.227-8.372c-.174-.093-1.312-.9-3.332.039-2.057.959-3.193 2.734-2.04 5.206l2.122 4.548 2.411-1.122-2.125-4.553c-.37-.798-.249-1.599.747-2.062.996-.465 1.688-.043 2.063.755l2.121 4.55 2.413-1.12-2.12-4.554c-.377-.796-.254-1.599.74-2.059.998-.467 1.693-.042 2.065.755l2.123 4.55 2.41-1.123-2.124-4.547c-1.154-2.474-3.252-2.74-5.304-1.787-2.017.94-2.13 2.335-2.17 2.524" fill="#015294"/><path d="M71.87 25.056c.522 1.118 1.819 1.56 2.948 1.037 1.12-.52 1.6-1.794 1.077-2.91-.523-1.121-1.805-1.567-2.925-1.05-1.13.527-1.625 1.806-1.1 2.923m9.156-4.265c.526 1.117 1.826 1.56 2.952 1.036 1.12-.522 1.597-1.794 1.077-2.913-.522-1.116-1.803-1.564-2.921-1.045-1.13.525-1.624 1.805-1.108 2.922m11.489-5.351c.524 1.122 1.817 1.564 2.948 1.037 1.124-.52 1.602-1.792 1.074-2.91-.514-1.12-1.8-1.568-2.918-1.05-1.131.53-1.625 1.808-1.104 2.923" fill="#5E88A1"/><path d="M102.924 15.502l.379.032.15-.302c-.129-.284-.652.2-.837-.193-.094-.2.045-.385.214-.462.169-.078.327-.074.453.023l-.083.128-.313-.03-.144.266c.133.28.643-.222.84.197.099.212-.03.4-.225.494-.176.082-.37.089-.516-.016l.082-.137zm.728-.92l-.148-.286.135-.063.096.174.006-.003a.43.43 0 0 1 .26-.375l.415.082c-.012-.183.096-.318.242-.387.324-.15.505.035.605.26l.29.617-.14.064-.282-.61c-.08-.171-.199-.312-.41-.21-.251.115-.218.358-.148.502l.268.584-.131.059-.287-.618c-.092-.192-.22-.286-.366-.217-.203.093-.295.304-.162.59l.24.515-.133.062-.35-.74z" fill="#015294"/><path d="M110.827 80.653c.524 1.117 1.82 1.563 2.948 1.035 1.122-.52 1.604-1.788 1.08-2.91-.522-1.117-1.804-1.566-2.926-1.048-1.129.528-1.621 1.806-1.102 2.923" fill="#5E88A1"/><path d="M121.237 80.714l.379.035.15-.305c-.132-.284-.648.199-.838-.192-.095-.204.048-.383.215-.463.167-.078.329-.073.457.023l-.087.128-.313-.03-.143.266c.134.28.642-.224.84.199.097.21-.029.4-.226.488-.176.085-.368.092-.516-.012l.082-.137zm.729-.921l-.145-.286.133-.06.094.172.01-.002a.419.419 0 0 1 .255-.375l.418.08a.397.397 0 0 1 .242-.387c.322-.149.503.038.603.265l.288.612-.137.064-.281-.61c-.082-.17-.201-.311-.413-.208-.249.112-.217.357-.147.502l.27.581-.132.06-.291-.618c-.09-.191-.219-.285-.365-.216-.204.092-.291.305-.16.59l.24.514-.135.066-.347-.744zm-2.38-13.909c3.343-1.56 3.085-4.08 2.393-5.57l-2.052-4.383-2.461 1.147 1.963 4.219c.544 1.156.128 1.966-.85 2.422-.985.458-1.87.254-2.413-.906l-1.966-4.215-2.472 1.145 2.05 4.39c.699 1.49 2.463 3.306 5.808 1.75m-18.32 8.532c3.343-1.555 3.081-4.077 2.39-5.568l-2.054-4.385-2.458 1.148 1.965 4.219c.544 1.154.127 1.962-.853 2.418-.984.462-1.87.261-2.413-.9l-1.967-4.22-2.466 1.15 2.05 4.388c.692 1.491 2.46 3.308 5.806 1.75m5.26-12.617c-3.343 1.556-3.084 4.079-2.389 5.569l2.047 4.382 2.465-1.143-1.969-4.223c-.539-1.154-.122-1.96.857-2.42.982-.459 1.867-.256 2.404.9l1.976 4.22 2.464-1.148-2.046-4.388c-.697-1.49-2.461-3.305-5.81-1.749m21.227-8.37c-.172-.095-1.312-.903-3.33.037-2.054.957-3.194 2.734-2.038 5.208l2.121 4.548 2.408-1.12-2.123-4.557c-.37-.8-.253-1.597.747-2.062.994-.463 1.689-.04 2.06.757l2.12 4.55 2.417-1.12-2.123-4.556c-.372-.794-.253-1.597.743-2.058.997-.467 1.693-.045 2.064.753l2.125 4.55 2.41-1.12-2.123-4.547c-1.154-2.476-3.255-2.742-5.305-1.787-2.018.936-2.132 2.332-2.173 2.524" fill="#015294"/><path d="M103.12 59.785c.521 1.119 1.817 1.562 2.947 1.039 1.123-.522 1.604-1.796 1.077-2.913-.52-1.118-1.803-1.568-2.925-1.047-1.129.524-1.62 1.802-1.099 2.92m9.16-4.265c.521 1.119 1.82 1.56 2.95 1.035 1.119-.52 1.599-1.79 1.076-2.909-.523-1.118-1.803-1.566-2.923-1.047-1.13.525-1.624 1.806-1.103 2.92m11.485-5.349c.523 1.12 1.82 1.563 2.949 1.035 1.123-.52 1.602-1.79 1.077-2.908-.52-1.117-1.805-1.567-2.921-1.046-1.133.527-1.627 1.804-1.105 2.919" fill="#5E88A1"/><path d="M134.176 50.232l.377.033.149-.303c-.128-.284-.65.2-.836-.192-.094-.203.045-.385.215-.464.168-.078.33-.074.456.023l-.086.127-.313-.025-.147.26c.14.281.649-.22.843.201.1.212-.029.398-.225.494-.177.082-.37.089-.515-.02l.082-.134zm.727-.922l-.147-.285.133-.062.096.174.005-.004c0-.137.091-.293.262-.375l.416.08a.399.399 0 0 1 .242-.385c.323-.147.503.037.604.263l.288.614-.135.062-.284-.607c-.079-.17-.203-.312-.413-.211-.254.115-.215.358-.144.504l.267.58-.132.063-.29-.618c-.092-.194-.218-.286-.364-.219-.205.093-.294.304-.158.59l.238.515-.135.064-.349-.742zm-2.381-13.909c3.343-1.557 3.087-4.077 2.394-5.57l-2.054-4.383-2.46 1.15 1.968 4.218c.542 1.153.122 1.963-.85 2.419-.986.46-1.875.257-2.417-.904l-1.965-4.217-2.47 1.149 2.049 4.386c.695 1.491 2.463 3.31 5.805 1.752m-18.319 8.532c3.344-1.559 3.081-4.08 2.391-5.57l-2.052-4.383-2.46 1.147 1.964 4.218c.544 1.156.126 1.964-.85 2.424-.989.458-1.872.255-2.415-.906l-1.966-4.217-2.467 1.152 2.047 4.384c.697 1.49 2.461 3.309 5.808 1.751m5.261-12.617c-3.345 1.555-3.085 4.077-2.392 5.568l2.049 4.385 2.466-1.15-1.972-4.218c-.537-1.153-.12-1.963.857-2.42.982-.46 1.87-.253 2.411.9l1.97 4.22 2.467-1.15-2.049-4.384c-.695-1.492-2.457-3.307-5.807-1.751m21.226-8.373c-.172-.09-1.311-.9-3.331.04-2.052.958-3.192 2.734-2.04 5.206l2.123 4.551 2.41-1.126-2.127-4.55c-.37-.796-.247-1.599.752-2.062.992-.466 1.686-.045 2.06.752l2.122 4.553 2.412-1.12-2.124-4.555c-.375-.797-.25-1.596.744-2.061.997-.466 1.693-.041 2.064.754l2.125 4.553 2.408-1.124-2.122-4.547c-1.154-2.474-3.252-2.742-5.302-1.787-2.018.94-2.134 2.335-2.175 2.523" fill="#015294"/><path d="M116.057 29.302c.521 1.12 1.82 1.561 2.948 1.036 1.12-.52 1.602-1.794 1.076-2.91-.52-1.118-1.803-1.567-2.922-1.047-1.132.526-1.625 1.804-1.102 2.921m9.16-4.265c.523 1.118 1.82 1.56 2.948 1.037 1.12-.523 1.602-1.794 1.08-2.913-.523-1.117-1.805-1.566-2.925-1.046-1.13.526-1.624 1.806-1.103 2.922m11.487-5.35c.52 1.118 1.815 1.564 2.95 1.035 1.12-.52 1.602-1.788 1.074-2.907-.52-1.119-1.803-1.568-2.922-1.05-1.13.528-1.627 1.805-1.102 2.922" fill="#5E88A1"/><path d="M147.112 19.75l.38.031.15-.3c-.131-.286-.65.197-.839-.195-.094-.2.046-.384.217-.464.167-.078.33-.072.453.025l-.083.126-.315-.028-.144.266c.133.279.646-.224.841.197.098.212-.03.398-.224.492-.18.085-.37.093-.52-.016l.084-.135zm.73-.923l-.15-.286.135-.062.096.177.008-.002c0-.138.087-.294.254-.376l.421.082a.398.398 0 0 1 .239-.388c.327-.15.505.034.604.261l.292.615-.139.064-.283-.611c-.078-.167-.199-.31-.409-.21-.252.118-.217.357-.149.503l.27.584-.13.06-.29-.621c-.09-.19-.22-.286-.366-.215-.202.093-.293.306-.161.588l.24.517-.14.062-.342-.742zm15.93 51.303c3.347-1.559 3.087-4.078 2.397-5.568l-2.054-4.385-2.46 1.15 1.964 4.217c.544 1.156.125 1.965-.851 2.422-.986.458-1.873.254-2.413-.904l-1.967-4.22-2.468 1.148 2.047 4.388c.697 1.491 2.464 3.308 5.805 1.752m-18.32 8.53c3.345-1.555 3.082-4.075 2.392-5.566l-2.052-4.385-2.46 1.147 1.967 4.218c.543 1.16.125 1.966-.855 2.424-.983.458-1.87.255-2.413-.902l-1.965-4.22-2.47 1.148 2.05 4.39c.696 1.487 2.462 3.306 5.806 1.747m5.264-12.616c-3.345 1.555-3.087 4.079-2.392 5.567l2.05 4.388 2.463-1.151-1.969-4.22c-.538-1.15-.122-1.961.856-2.42.981-.458 1.869-.253 2.41.903l1.971 4.219 2.465-1.15-2.047-4.385c-.697-1.492-2.465-3.307-5.807-1.751" fill="#015294"/><path d="M147.309 64.033c.522 1.117 1.817 1.563 2.946 1.036 1.124-.519 1.602-1.792 1.078-2.91-.518-1.121-1.803-1.567-2.924-1.049-1.129.526-1.623 1.806-1.1 2.923m9.158-4.267c.524 1.118 1.819 1.559 2.95 1.035 1.12-.52 1.6-1.79 1.077-2.909-.522-1.118-1.804-1.566-2.923-1.047-1.13.529-1.623 1.805-1.104 2.92" fill="#5E88A1"/><path d="M158.393 48.18c3.344-1.557 3.08-4.077 2.388-5.57l-2.049-4.381-2.463 1.145 1.967 4.22c.54 1.155.128 1.96-.853 2.42-.984.46-1.871.257-2.412-.902l-1.97-4.218-2.464 1.15 2.048 4.385c.694 1.49 2.463 3.308 5.808 1.751" fill="#015294"/><path d="M160.247 33.55c.52 1.12 1.82 1.562 2.948 1.036 1.119-.522 1.599-1.793 1.078-2.912-.523-1.119-1.805-1.566-2.925-1.046-1.13.526-1.625 1.804-1.1 2.921" fill="#5E88A1"/><path d="M38.765 4.955c3.341-1.557 3.08-4.077 2.383-5.565l-2.043-4.388-2.468 1.15L38.61.368c.54 1.154.123 1.962-.855 2.42-.985.46-1.874.258-2.413-.904l-1.97-4.217-2.466 1.15 2.05 4.387c.695 1.49 2.464 3.306 5.81 1.75m44.189 4.248c3.338-1.557 3.078-4.077 2.383-5.567L83.291-.749 80.83.396l1.968 4.218c.539 1.158.128 1.966-.855 2.425-.984.457-1.87.254-2.413-.903l-1.965-4.22-2.468 1.15 2.052 4.385c.693 1.492 2.46 3.307 5.807 1.751m5.259-12.615C84.87-1.858 85.128.664 85.822 2.153l2.05 4.385 2.466-1.147-1.972-4.22c-.542-1.152-.122-1.962.857-2.42.98-.46 1.87-.256 2.41.9l1.97 4.22 2.464-1.148-2.048-4.387c-.695-1.49-2.46-3.307-5.804-1.75m57.245 8.333c3.344-1.557 3.088-4.08 2.393-5.57L145.8-5.034l-2.461 1.145 1.965 4.221c.542 1.155.124 1.962-.852 2.42-.985.46-1.865.256-2.411-.903l-1.97-4.218-2.467 1.148 2.049 4.387c.697 1.49 2.46 3.31 5.805 1.753m-18.317 8.531c3.34-1.556 3.082-4.078 2.388-5.57l-2.05-4.382-2.46 1.147 1.967 4.217c.54 1.156.125 1.963-.855 2.42-.985.462-1.869.258-2.415-.901l-1.963-4.218-2.47 1.151 2.05 4.384c.696 1.49 2.463 3.308 5.808 1.753M132.403.833c-3.347 1.556-3.087 4.077-2.396 5.567l2.052 4.385 2.465-1.147-1.972-4.22c-.539-1.152-.12-1.965.86-2.42.98-.458 1.87-.254 2.408.9l1.97 4.22 2.465-1.148-2.043-4.387c-.699-1.49-2.465-3.307-5.81-1.75" fill="#015294"/><path d="M128.996-1.182c.519 1.12 1.819 1.565 2.948 1.04 1.122-.523 1.6-1.793 1.076-2.913-.52-1.119-1.802-1.566-2.924-1.048-1.13.528-1.627 1.804-1.1 2.921" fill="#5E88A1"/><path d="M49.833-5.91c-.05-.109-.12-.219-.182-.329h-7.585c-1.2 1.413-.94 3.054-.432 4.145l2.048 4.386 2.466-1.147-1.97-4.221c-.54-1.155-.123-1.964.857-2.423.98-.456 1.87-.25 2.408.903L49.41-.377l2.468-1.147-2.046-4.386zm53.831 1.012l-.628-1.34h-3l1.08 2.322c.54 1.156.126 1.966-.852 2.422-.987.46-1.865.254-2.413-.904l-1.79-3.84h-.988l-1.655.77 2.047 4.388c.695 1.49 2.46 3.308 5.805 1.75 3.345-1.556 3.089-4.076 2.394-5.568" fill="#015294"/><path d="M155.767-6.238h-7.18c-.841.992-1.09 2.313-.33 3.945l2.124 4.546 2.41-1.124-2.127-4.55c-.368-.796-.25-1.597.748-2.06.996-.468 1.691-.047 2.067.754l2.12 4.55 2.412-1.121-2.127-4.551c-.062-.13-.085-.26-.117-.39m13.723 21.975c-.64.036-1.202-.287-1.584-1.108l-1.967-4.219-2.468 1.15 2.05 4.385c.554 1.186 1.804 2.55 3.97 2.286v-2.494zm-.284-6.846l.284.611v-.746zm.284 28.49l-.03-.064c-.695-1.492-2.463-3.312-5.805-1.75-3.345 1.555-3.09 4.075-2.392 5.563l2.048 4.384 2.467-1.145-1.974-4.221c-.54-1.155-.121-1.966.859-2.422.978-.453 1.87-.25 2.41.902l1.966 4.219.451-.21V37.38z" fill="#00538F"/><path d="M169.49 51.39c-.144.035-.291.04-.432.108-1.13.524-1.627 1.803-1.102 2.921.306.656.885 1.04 1.534 1.174V51.39z" fill="#4E7792"/><path d="M169.463 62.832l-.486-1.04c-.327-.708-.23-1.404.486-1.883v-2.506a5.084 5.084 0 0 0-.852.306c-2.056.957-3.195 2.736-2.041 5.21l2.125 4.547.768-.357v-4.277zM122.29 83.173c-1.155-2.476-3.251-2.742-5.301-1.787-2.02.936-2.134 2.334-2.175 2.526-.173-.096-1.31-.906-3.33.037-2.053.957-3.192 2.733-2.04 5.201l1.988 4.255h.775l1.771-.826-2.127-4.551c-.373-.8-.25-1.598.75-2.064.993-.461 1.688-.04 2.062.759l2.123 4.55 2.41-1.121-2.124-4.555c-.373-.796-.252-1.597.743-2.06.996-.467 1.693-.044 2.065.756l2.125 4.548 2.406-1.12-2.122-4.548zM-1.167 47.267l.734-.343-.734-1.57zm3.829-7.321c-.875-1.876-2.296-2.478-3.829-2.242v2.429c.655-.06 1.133.321 1.418.934l2.123 4.551 2.413-1.12-2.125-4.552zM2.346 17.09L.299 12.708l-1.54.715v2.413l1.044 2.236c.54 1.16.126 1.966-.852 2.422-.065.03-.128.034-.192.059v2.543a6.948 6.948 0 0 0 1.199-.437c3.345-1.556 3.083-4.074 2.388-5.567" fill="#00538F"/></g><path d="M16.134 27.3c-6.15 0-11.17-4.984-11.17-11.169 0-6.15 5.02-11.168 11.17-11.168 6.185 0 11.168 5.018 11.168 11.168 0 6.185-4.983 11.17-11.168 11.17z" fill="#FFF"/><path d="M11.759 22.336l4.373-4.373 4.373 4.373 1.831-1.832-4.373-4.373 4.373-4.373-1.831-1.831-4.373 4.373-4.373-4.373-1.832 1.831 4.373 4.373-4.373 4.373 1.832 1.832zM4.964 16.13c0-6.15 5.02-11.168 11.17-11.168 6.185 0 11.168 5.018 11.168 11.168 0 6.185-4.983 11.17-11.168 11.17-6.15 0-11.17-4.985-11.17-11.17z" fill="#E85656"/><rect stroke="#DEE5EB" x=".5" y=".5" width="169" height="79.657" rx="4"/></g></svg>