<svg xmlns="http://www.w3.org/2000/svg" width="248.303" height="117.808" viewBox="0 0 248.303 117.808"><g transform="translate(0 0)"><g transform="translate(0)" fill="#fff" stroke="#dee5eb" stroke-miterlimit="10" stroke-width="1"><rect width="248.303" height="117.808" rx="4" stroke="none"/><rect x="0.5" y="0.5" width="247.303" height="116.808" rx="3.5" fill="none"/></g><g transform="translate(45.311 34.437)"><path d="M15.442,30.359c12.6,0,15.437-8.187,15.437-13.808V0H21.591V15.92c0,4.366-2.451,6.273-6.149,6.273S9.288,20.285,9.288,15.92V0H0V16.551c0,5.62,2.838,13.808,15.442,13.808" transform="translate(69.041 19.767)" fill="#82c341"/><path d="M15.443,30.359c12.6,0,15.437-8.187,15.437-13.808V0H21.594V15.92c0,4.366-2.453,6.273-6.15,6.273S9.287,20.285,9.287,15.92V0H0V16.551c0,5.62,2.843,13.808,15.443,13.808" transform="translate(0 19.767)" fill="#82c341"/><path d="M15.444,0C2.845,0,0,8.186,0,13.805v16.55H9.29V14.431c0-4.353,2.453-6.266,6.155-6.266s6.15,1.913,6.15,6.266V30.355h9.288V13.805C30.883,8.186,28.044,0,15.444,0" transform="translate(34.518 18.618)" fill="#82c341"/><path d="M24.2,4.69C23.8,4.156,21.434,0,13.837,0,6.1,0,0,3.86,0,13.193V30.355H9.08V13.178c0-3.01,1.538-5.315,5.289-5.315s5.292,2.3,5.292,5.315V30.355h9.083V13.178c0-3.01,1.537-5.315,5.291-5.315s5.291,2.3,5.291,5.315V30.355H48.4V13.193C48.4,3.86,42.306,0,34.567,0,26.976,0,24.6,4.156,24.2,4.69" transform="translate(103.558 18.618)" fill="#82c341"/><path d="M0,7.46a7.465,7.465,0,0,0,7.635,7.466A7.4,7.4,0,0,0,15.167,7.46,7.4,7.4,0,0,0,7.635,0,7.463,7.463,0,0,0,0,7.46" transform="translate(42.325 0)" fill="#00aed9"/><path d="M0,7.46a7.467,7.467,0,0,0,7.638,7.466A7.4,7.4,0,0,0,15.167,7.46,7.4,7.4,0,0,0,7.638,0,7.465,7.465,0,0,0,0,7.46" transform="translate(76.843 0)" fill="#00aed9"/><path d="M0,7.46a7.465,7.465,0,0,0,7.636,7.466A7.4,7.4,0,0,0,15.167,7.46,7.4,7.4,0,0,0,7.636,0,7.463,7.463,0,0,0,0,7.46" transform="translate(120.126 0)" fill="#00aed9"/><path d="M1.9,3.719A1.868,1.868,0,0,1,0,1.848,1.879,1.879,0,0,1,1.9,0a1.86,1.86,0,1,1,0,3.719ZM1.9.372A1.439,1.439,0,0,0,.473,1.848a1.427,1.427,0,1,0,2.853.011A1.423,1.423,0,0,0,1.9.372ZM1.61,2.82H1.183V.969a3.777,3.777,0,0,1,.71-.055,1.167,1.167,0,0,1,.643.134.512.512,0,0,1,.18.406.475.475,0,0,1-.383.429V1.9a.544.544,0,0,1,.338.451,1.459,1.459,0,0,0,.134.46l-.461,0a.989.989,0,0,1-.114-.33c-.011-.038-.021-.079-.032-.121-.034-.206-.149-.294-.384-.294h-.2v.745Zm.248-1.6a1.047,1.047,0,0,0-.237.024v.53h.2c.272,0,.429-.1.429-.271S2.114,1.216,1.859,1.216Z" transform="translate(154.138 15.256)" fill="#00aed9"/></g><g transform="translate(7.25 7.25)"><path d="M16.315,32.626A16.313,16.313,0,1,1,32.627,16.312,16.318,16.318,0,0,1,16.315,32.626Z" fill="#fff"/><path d="M16.316,32.626a16.282,16.282,0,1,1,11.543-4.77A16.333,16.333,0,0,1,16.316,32.626Zm0-13.638h0L22.7,25.375,25.375,22.7l-6.387-6.387,6.387-6.387L22.7,7.25l-6.387,6.387L9.925,7.25,7.25,9.925l6.387,6.387L7.25,22.7l2.675,2.675,6.386-6.386Z" transform="translate(0 0)" fill="#e75656"/></g></g></svg>