<svg xmlns="http://www.w3.org/2000/svg" xmlns:xlink="http://www.w3.org/1999/xlink" width="312.028" height="112" viewBox="0 0 312.028 112"><defs><style>.a,.h{fill:none;}.b{clip-path:url(#a);}.c{clip-path:url(#b);}.d{fill:#015294;}.e{fill:#5e88a1;}.f{fill:rgba(217,0,0,0.02);stroke:rgba(217,0,0,0.16);stroke-width:1px;}.g{fill:#d90000;}.h{stroke:#fff;stroke-width:4px;}.i{stroke:none;}</style><clipPath id="a"><rect class="a" width="308.36" height="102.008"/></clipPath><clipPath id="b"><rect class="a" width="44.109" height="14.033"/></clipPath></defs><g transform="translate(-723.38 -1554)"><g class="b" transform="translate(723.38 1559.126)"><g transform="translate(-741.38 -1654.126)"><g transform="translate(741.38 1685.316) rotate(-45)"><g class="c"><path class="d" d="M4.312,8.5c3.517,0,4.31-2.292,4.31-3.866V0H6.028V4.457A1.56,1.56,0,0,1,4.312,6.214,1.56,1.56,0,0,1,2.593,4.457V0H0V4.634C0,6.208.792,8.5,4.312,8.5" transform="translate(19.277 5.534)"/><path class="d" d="M4.312,8.5c3.518,0,4.31-2.292,4.31-3.866V0H6.03V4.457A1.56,1.56,0,0,1,4.312,6.214a1.561,1.561,0,0,1-1.72-1.757V0H0V4.634C0,6.208.795,8.5,4.312,8.5" transform="translate(0 5.534)"/><path class="d" d="M4.313,0C.794,0,0,2.292,0,3.865V8.5H2.594V4.041A1.561,1.561,0,0,1,4.313,2.286,1.56,1.56,0,0,1,6.03,4.041V8.5H8.623V3.865C8.623,2.292,7.83,0,4.313,0" transform="translate(9.638 5.212)"/><path class="d" d="M6.759,1.313A3.131,3.131,0,0,0,3.863,0C1.7,0,0,1.082,0,3.695V8.5H2.535V3.69A1.345,1.345,0,0,1,4.012,2.2,1.345,1.345,0,0,1,5.49,3.69V8.5H8.026V3.69A1.344,1.344,0,0,1,9.5,2.2,1.345,1.345,0,0,1,10.98,3.69V8.5h2.534v-4.8C13.514,1.082,11.812,0,9.651,0A3.129,3.129,0,0,0,6.759,1.313" transform="translate(28.914 5.211)"/><path class="e" d="M0,2.088A2.087,2.087,0,0,0,2.131,4.179a2.07,2.07,0,0,0,2.1-2.091A2.069,2.069,0,0,0,2.131,0,2.086,2.086,0,0,0,0,2.088" transform="translate(11.818 0)"/><path class="e" d="M0,2.088A2.088,2.088,0,0,0,2.133,4.179a2.07,2.07,0,0,0,2.1-2.091A2.069,2.069,0,0,0,2.133,0,2.087,2.087,0,0,0,0,2.088" transform="translate(21.454 0)"/><path class="e" d="M0,2.088A2.088,2.088,0,0,0,2.133,4.179a2.07,2.07,0,0,0,2.1-2.091A2.069,2.069,0,0,0,2.133,0,2.087,2.087,0,0,0,0,2.088" transform="translate(33.539 0)"/><path class="d" d="M.895,1.795A.9.9,0,1,1,1.789.9a.893.893,0,0,1-.894.895M.895.13A.766.766,0,1,0,1.656.9.765.765,0,0,0,.895.13m.2,1.277L.776.94H.746v.466H.6V.394A.611.611,0,0,1,.86.339c.212,0,.361.12.361.3A.288.288,0,0,1,.93.93l.341.477ZM.847.459a.4.4,0,0,0-.1.015v.37H.824c.139,0,.248-.051.248-.205S.948.459.847.459" transform="translate(42.32 5.017)"/></g></g><g transform="translate(744.628 1713.734) rotate(-45)"><g class="c"><path class="d" d="M4.312,8.5c3.517,0,4.31-2.292,4.31-3.866V0H6.028V4.457A1.56,1.56,0,0,1,4.312,6.214,1.56,1.56,0,0,1,2.593,4.457V0H0V4.634C0,6.208.792,8.5,4.312,8.5" transform="translate(19.277 5.534)"/><path class="d" d="M4.312,8.5c3.518,0,4.31-2.292,4.31-3.866V0H6.03V4.457A1.56,1.56,0,0,1,4.312,6.214a1.561,1.561,0,0,1-1.72-1.757V0H0V4.634C0,6.208.795,8.5,4.312,8.5" transform="translate(0 5.534)"/><path class="d" d="M4.313,0C.794,0,0,2.292,0,3.865V8.5H2.594V4.041A1.561,1.561,0,0,1,4.313,2.286,1.56,1.56,0,0,1,6.03,4.041V8.5H8.623V3.865C8.623,2.292,7.83,0,4.313,0" transform="translate(9.638 5.212)"/><path class="d" d="M6.759,1.313A3.131,3.131,0,0,0,3.863,0C1.7,0,0,1.082,0,3.695V8.5H2.535V3.69A1.345,1.345,0,0,1,4.012,2.2,1.345,1.345,0,0,1,5.49,3.69V8.5H8.026V3.69A1.344,1.344,0,0,1,9.5,2.2,1.345,1.345,0,0,1,10.98,3.69V8.5h2.534v-4.8C13.514,1.082,11.812,0,9.651,0A3.129,3.129,0,0,0,6.759,1.313" transform="translate(28.914 5.211)"/><path class="e" d="M0,2.088A2.087,2.087,0,0,0,2.131,4.179a2.07,2.07,0,0,0,2.1-2.091A2.069,2.069,0,0,0,2.131,0,2.086,2.086,0,0,0,0,2.088" transform="translate(11.818 0)"/><path class="e" d="M0,2.088A2.088,2.088,0,0,0,2.133,4.179a2.07,2.07,0,0,0,2.1-2.091A2.069,2.069,0,0,0,2.133,0,2.087,2.087,0,0,0,0,2.088" transform="translate(21.454 0)"/><path class="e" d="M0,2.088A2.088,2.088,0,0,0,2.133,4.179a2.07,2.07,0,0,0,2.1-2.091A2.069,2.069,0,0,0,2.133,0,2.087,2.087,0,0,0,0,2.088" transform="translate(33.539 0)"/><path class="d" d="M.895,1.795A.9.9,0,1,1,1.789.9a.893.893,0,0,1-.894.895M.895.13A.766.766,0,1,0,1.656.9.765.765,0,0,0,.895.13m.2,1.277L.776.94H.746v.466H.6V.394A.611.611,0,0,1,.86.339c.212,0,.361.12.361.3A.288.288,0,0,1,.93.93l.341.477ZM.847.459a.4.4,0,0,0-.1.015v.37H.824c.139,0,.248-.051.248-.205S.948.459.847.459" transform="translate(42.32 5.017)"/></g></g><g transform="translate(744.628 1746.211) rotate(-45)"><g class="c"><path class="d" d="M4.312,8.5c3.517,0,4.31-2.292,4.31-3.866V0H6.028V4.457A1.56,1.56,0,0,1,4.312,6.214,1.56,1.56,0,0,1,2.593,4.457V0H0V4.634C0,6.208.792,8.5,4.312,8.5" transform="translate(19.277 5.534)"/><path class="d" d="M4.312,8.5c3.518,0,4.31-2.292,4.31-3.866V0H6.03V4.457A1.56,1.56,0,0,1,4.312,6.214a1.561,1.561,0,0,1-1.72-1.757V0H0V4.634C0,6.208.795,8.5,4.312,8.5" transform="translate(0 5.534)"/><path class="d" d="M4.313,0C.794,0,0,2.292,0,3.865V8.5H2.594V4.041A1.561,1.561,0,0,1,4.313,2.286,1.56,1.56,0,0,1,6.03,4.041V8.5H8.623V3.865C8.623,2.292,7.83,0,4.313,0" transform="translate(9.638 5.212)"/><path class="d" d="M6.759,1.313A3.131,3.131,0,0,0,3.863,0C1.7,0,0,1.082,0,3.695V8.5H2.535V3.69A1.345,1.345,0,0,1,4.012,2.2,1.345,1.345,0,0,1,5.49,3.69V8.5H8.026V3.69A1.344,1.344,0,0,1,9.5,2.2,1.345,1.345,0,0,1,10.98,3.69V8.5h2.534v-4.8C13.514,1.082,11.812,0,9.651,0A3.129,3.129,0,0,0,6.759,1.313" transform="translate(28.914 5.211)"/><path class="e" d="M0,2.088A2.087,2.087,0,0,0,2.131,4.179a2.07,2.07,0,0,0,2.1-2.091A2.069,2.069,0,0,0,2.131,0,2.086,2.086,0,0,0,0,2.088" transform="translate(11.818 0)"/><path class="e" d="M0,2.088A2.088,2.088,0,0,0,2.133,4.179a2.07,2.07,0,0,0,2.1-2.091A2.069,2.069,0,0,0,2.133,0,2.087,2.087,0,0,0,0,2.088" transform="translate(21.454 0)"/><path class="e" d="M0,2.088A2.088,2.088,0,0,0,2.133,4.179a2.07,2.07,0,0,0,2.1-2.091A2.069,2.069,0,0,0,2.133,0,2.087,2.087,0,0,0,0,2.088" transform="translate(33.539 0)"/><path class="d" d="M.895,1.795A.9.9,0,1,1,1.789.9a.893.893,0,0,1-.894.895M.895.13A.766.766,0,1,0,1.656.9.765.765,0,0,0,.895.13m.2,1.277L.776.94H.746v.466H.6V.394A.611.611,0,0,1,.86.339c.212,0,.361.12.361.3A.288.288,0,0,1,.93.93l.341.477ZM.847.459a.4.4,0,0,0-.1.015v.37H.824c.139,0,.248-.051.248-.205S.948.459.847.459" transform="translate(42.32 5.017)"/></g></g></g><g transform="translate(-686.38 -1654.126)"><g transform="translate(741.38 1685.316) rotate(-45)"><g class="c"><path class="d" d="M4.312,8.5c3.517,0,4.31-2.292,4.31-3.866V0H6.028V4.457A1.56,1.56,0,0,1,4.312,6.214,1.56,1.56,0,0,1,2.593,4.457V0H0V4.634C0,6.208.792,8.5,4.312,8.5" transform="translate(19.277 5.534)"/><path class="d" d="M4.312,8.5c3.518,0,4.31-2.292,4.31-3.866V0H6.03V4.457A1.56,1.56,0,0,1,4.312,6.214a1.561,1.561,0,0,1-1.72-1.757V0H0V4.634C0,6.208.795,8.5,4.312,8.5" transform="translate(0 5.534)"/><path class="d" d="M4.313,0C.794,0,0,2.292,0,3.865V8.5H2.594V4.041A1.561,1.561,0,0,1,4.313,2.286,1.56,1.56,0,0,1,6.03,4.041V8.5H8.623V3.865C8.623,2.292,7.83,0,4.313,0" transform="translate(9.638 5.212)"/><path class="d" d="M6.759,1.313A3.131,3.131,0,0,0,3.863,0C1.7,0,0,1.082,0,3.695V8.5H2.535V3.69A1.345,1.345,0,0,1,4.012,2.2,1.345,1.345,0,0,1,5.49,3.69V8.5H8.026V3.69A1.344,1.344,0,0,1,9.5,2.2,1.345,1.345,0,0,1,10.98,3.69V8.5h2.534v-4.8C13.514,1.082,11.812,0,9.651,0A3.129,3.129,0,0,0,6.759,1.313" transform="translate(28.914 5.211)"/><path class="e" d="M0,2.088A2.087,2.087,0,0,0,2.131,4.179a2.07,2.07,0,0,0,2.1-2.091A2.069,2.069,0,0,0,2.131,0,2.086,2.086,0,0,0,0,2.088" transform="translate(11.818 0)"/><path class="e" d="M0,2.088A2.088,2.088,0,0,0,2.133,4.179a2.07,2.07,0,0,0,2.1-2.091A2.069,2.069,0,0,0,2.133,0,2.087,2.087,0,0,0,0,2.088" transform="translate(21.454 0)"/><path class="e" d="M0,2.088A2.088,2.088,0,0,0,2.133,4.179a2.07,2.07,0,0,0,2.1-2.091A2.069,2.069,0,0,0,2.133,0,2.087,2.087,0,0,0,0,2.088" transform="translate(33.539 0)"/><path class="d" d="M.895,1.795A.9.9,0,1,1,1.789.9a.893.893,0,0,1-.894.895M.895.13A.766.766,0,1,0,1.656.9.765.765,0,0,0,.895.13m.2,1.277L.776.94H.746v.466H.6V.394A.611.611,0,0,1,.86.339c.212,0,.361.12.361.3A.288.288,0,0,1,.93.93l.341.477ZM.847.459a.4.4,0,0,0-.1.015v.37H.824c.139,0,.248-.051.248-.205S.948.459.847.459" transform="translate(42.32 5.017)"/></g></g><g transform="translate(744.628 1713.734) rotate(-45)"><g class="c"><path class="d" d="M4.312,8.5c3.517,0,4.31-2.292,4.31-3.866V0H6.028V4.457A1.56,1.56,0,0,1,4.312,6.214,1.56,1.56,0,0,1,2.593,4.457V0H0V4.634C0,6.208.792,8.5,4.312,8.5" transform="translate(19.277 5.534)"/><path class="d" d="M4.312,8.5c3.518,0,4.31-2.292,4.31-3.866V0H6.03V4.457A1.56,1.56,0,0,1,4.312,6.214a1.561,1.561,0,0,1-1.72-1.757V0H0V4.634C0,6.208.795,8.5,4.312,8.5" transform="translate(0 5.534)"/><path class="d" d="M4.313,0C.794,0,0,2.292,0,3.865V8.5H2.594V4.041A1.561,1.561,0,0,1,4.313,2.286,1.56,1.56,0,0,1,6.03,4.041V8.5H8.623V3.865C8.623,2.292,7.83,0,4.313,0" transform="translate(9.638 5.212)"/><path class="d" d="M6.759,1.313A3.131,3.131,0,0,0,3.863,0C1.7,0,0,1.082,0,3.695V8.5H2.535V3.69A1.345,1.345,0,0,1,4.012,2.2,1.345,1.345,0,0,1,5.49,3.69V8.5H8.026V3.69A1.344,1.344,0,0,1,9.5,2.2,1.345,1.345,0,0,1,10.98,3.69V8.5h2.534v-4.8C13.514,1.082,11.812,0,9.651,0A3.129,3.129,0,0,0,6.759,1.313" transform="translate(28.914 5.211)"/><path class="e" d="M0,2.088A2.087,2.087,0,0,0,2.131,4.179a2.07,2.07,0,0,0,2.1-2.091A2.069,2.069,0,0,0,2.131,0,2.086,2.086,0,0,0,0,2.088" transform="translate(11.818 0)"/><path class="e" d="M0,2.088A2.088,2.088,0,0,0,2.133,4.179a2.07,2.07,0,0,0,2.1-2.091A2.069,2.069,0,0,0,2.133,0,2.087,2.087,0,0,0,0,2.088" transform="translate(21.454 0)"/><path class="e" d="M0,2.088A2.088,2.088,0,0,0,2.133,4.179a2.07,2.07,0,0,0,2.1-2.091A2.069,2.069,0,0,0,2.133,0,2.087,2.087,0,0,0,0,2.088" transform="translate(33.539 0)"/><path class="d" d="M.895,1.795A.9.9,0,1,1,1.789.9a.893.893,0,0,1-.894.895M.895.13A.766.766,0,1,0,1.656.9.765.765,0,0,0,.895.13m.2,1.277L.776.94H.746v.466H.6V.394A.611.611,0,0,1,.86.339c.212,0,.361.12.361.3A.288.288,0,0,1,.93.93l.341.477ZM.847.459a.4.4,0,0,0-.1.015v.37H.824c.139,0,.248-.051.248-.205S.948.459.847.459" transform="translate(42.32 5.017)"/></g></g><g transform="translate(744.628 1746.211) rotate(-45)"><g class="c"><path class="d" d="M4.312,8.5c3.517,0,4.31-2.292,4.31-3.866V0H6.028V4.457A1.56,1.56,0,0,1,4.312,6.214,1.56,1.56,0,0,1,2.593,4.457V0H0V4.634C0,6.208.792,8.5,4.312,8.5" transform="translate(19.277 5.534)"/><path class="d" d="M4.312,8.5c3.518,0,4.31-2.292,4.31-3.866V0H6.03V4.457A1.56,1.56,0,0,1,4.312,6.214a1.561,1.561,0,0,1-1.72-1.757V0H0V4.634C0,6.208.795,8.5,4.312,8.5" transform="translate(0 5.534)"/><path class="d" d="M4.313,0C.794,0,0,2.292,0,3.865V8.5H2.594V4.041A1.561,1.561,0,0,1,4.313,2.286,1.56,1.56,0,0,1,6.03,4.041V8.5H8.623V3.865C8.623,2.292,7.83,0,4.313,0" transform="translate(9.638 5.212)"/><path class="d" d="M6.759,1.313A3.131,3.131,0,0,0,3.863,0C1.7,0,0,1.082,0,3.695V8.5H2.535V3.69A1.345,1.345,0,0,1,4.012,2.2,1.345,1.345,0,0,1,5.49,3.69V8.5H8.026V3.69A1.344,1.344,0,0,1,9.5,2.2,1.345,1.345,0,0,1,10.98,3.69V8.5h2.534v-4.8C13.514,1.082,11.812,0,9.651,0A3.129,3.129,0,0,0,6.759,1.313" transform="translate(28.914 5.211)"/><path class="e" d="M0,2.088A2.087,2.087,0,0,0,2.131,4.179a2.07,2.07,0,0,0,2.1-2.091A2.069,2.069,0,0,0,2.131,0,2.086,2.086,0,0,0,0,2.088" transform="translate(11.818 0)"/><path class="e" d="M0,2.088A2.088,2.088,0,0,0,2.133,4.179a2.07,2.07,0,0,0,2.1-2.091A2.069,2.069,0,0,0,2.133,0,2.087,2.087,0,0,0,0,2.088" transform="translate(21.454 0)"/><path class="e" d="M0,2.088A2.088,2.088,0,0,0,2.133,4.179a2.07,2.07,0,0,0,2.1-2.091A2.069,2.069,0,0,0,2.133,0,2.087,2.087,0,0,0,0,2.088" transform="translate(33.539 0)"/><path class="d" d="M.895,1.795A.9.9,0,1,1,1.789.9a.893.893,0,0,1-.894.895M.895.13A.766.766,0,1,0,1.656.9.765.765,0,0,0,.895.13m.2,1.277L.776.94H.746v.466H.6V.394A.611.611,0,0,1,.86.339c.212,0,.361.12.361.3A.288.288,0,0,1,.93.93l.341.477ZM.847.459a.4.4,0,0,0-.1.015v.37H.824c.139,0,.248-.051.248-.205S.948.459.847.459" transform="translate(42.32 5.017)"/></g></g></g><g transform="translate(-631.38 -1654.126)"><g transform="translate(741.38 1685.316) rotate(-45)"><g class="c"><path class="d" d="M4.312,8.5c3.517,0,4.31-2.292,4.31-3.866V0H6.028V4.457A1.56,1.56,0,0,1,4.312,6.214,1.56,1.56,0,0,1,2.593,4.457V0H0V4.634C0,6.208.792,8.5,4.312,8.5" transform="translate(19.277 5.534)"/><path class="d" d="M4.312,8.5c3.518,0,4.31-2.292,4.31-3.866V0H6.03V4.457A1.56,1.56,0,0,1,4.312,6.214a1.561,1.561,0,0,1-1.72-1.757V0H0V4.634C0,6.208.795,8.5,4.312,8.5" transform="translate(0 5.534)"/><path class="d" d="M4.313,0C.794,0,0,2.292,0,3.865V8.5H2.594V4.041A1.561,1.561,0,0,1,4.313,2.286,1.56,1.56,0,0,1,6.03,4.041V8.5H8.623V3.865C8.623,2.292,7.83,0,4.313,0" transform="translate(9.638 5.212)"/><path class="d" d="M6.759,1.313A3.131,3.131,0,0,0,3.863,0C1.7,0,0,1.082,0,3.695V8.5H2.535V3.69A1.345,1.345,0,0,1,4.012,2.2,1.345,1.345,0,0,1,5.49,3.69V8.5H8.026V3.69A1.344,1.344,0,0,1,9.5,2.2,1.345,1.345,0,0,1,10.98,3.69V8.5h2.534v-4.8C13.514,1.082,11.812,0,9.651,0A3.129,3.129,0,0,0,6.759,1.313" transform="translate(28.914 5.211)"/><path class="e" d="M0,2.088A2.087,2.087,0,0,0,2.131,4.179a2.07,2.07,0,0,0,2.1-2.091A2.069,2.069,0,0,0,2.131,0,2.086,2.086,0,0,0,0,2.088" transform="translate(11.818 0)"/><path class="e" d="M0,2.088A2.088,2.088,0,0,0,2.133,4.179a2.07,2.07,0,0,0,2.1-2.091A2.069,2.069,0,0,0,2.133,0,2.087,2.087,0,0,0,0,2.088" transform="translate(21.454 0)"/><path class="e" d="M0,2.088A2.088,2.088,0,0,0,2.133,4.179a2.07,2.07,0,0,0,2.1-2.091A2.069,2.069,0,0,0,2.133,0,2.087,2.087,0,0,0,0,2.088" transform="translate(33.539 0)"/><path class="d" d="M.895,1.795A.9.9,0,1,1,1.789.9a.893.893,0,0,1-.894.895M.895.13A.766.766,0,1,0,1.656.9.765.765,0,0,0,.895.13m.2,1.277L.776.94H.746v.466H.6V.394A.611.611,0,0,1,.86.339c.212,0,.361.12.361.3A.288.288,0,0,1,.93.93l.341.477ZM.847.459a.4.4,0,0,0-.1.015v.37H.824c.139,0,.248-.051.248-.205S.948.459.847.459" transform="translate(42.32 5.017)"/></g></g><g transform="translate(744.628 1713.734) rotate(-45)"><g class="c"><path class="d" d="M4.312,8.5c3.517,0,4.31-2.292,4.31-3.866V0H6.028V4.457A1.56,1.56,0,0,1,4.312,6.214,1.56,1.56,0,0,1,2.593,4.457V0H0V4.634C0,6.208.792,8.5,4.312,8.5" transform="translate(19.277 5.534)"/><path class="d" d="M4.312,8.5c3.518,0,4.31-2.292,4.31-3.866V0H6.03V4.457A1.56,1.56,0,0,1,4.312,6.214a1.561,1.561,0,0,1-1.72-1.757V0H0V4.634C0,6.208.795,8.5,4.312,8.5" transform="translate(0 5.534)"/><path class="d" d="M4.313,0C.794,0,0,2.292,0,3.865V8.5H2.594V4.041A1.561,1.561,0,0,1,4.313,2.286,1.56,1.56,0,0,1,6.03,4.041V8.5H8.623V3.865C8.623,2.292,7.83,0,4.313,0" transform="translate(9.638 5.212)"/><path class="d" d="M6.759,1.313A3.131,3.131,0,0,0,3.863,0C1.7,0,0,1.082,0,3.695V8.5H2.535V3.69A1.345,1.345,0,0,1,4.012,2.2,1.345,1.345,0,0,1,5.49,3.69V8.5H8.026V3.69A1.344,1.344,0,0,1,9.5,2.2,1.345,1.345,0,0,1,10.98,3.69V8.5h2.534v-4.8C13.514,1.082,11.812,0,9.651,0A3.129,3.129,0,0,0,6.759,1.313" transform="translate(28.914 5.211)"/><path class="e" d="M0,2.088A2.087,2.087,0,0,0,2.131,4.179a2.07,2.07,0,0,0,2.1-2.091A2.069,2.069,0,0,0,2.131,0,2.086,2.086,0,0,0,0,2.088" transform="translate(11.818 0)"/><path class="e" d="M0,2.088A2.088,2.088,0,0,0,2.133,4.179a2.07,2.07,0,0,0,2.1-2.091A2.069,2.069,0,0,0,2.133,0,2.087,2.087,0,0,0,0,2.088" transform="translate(21.454 0)"/><path class="e" d="M0,2.088A2.088,2.088,0,0,0,2.133,4.179a2.07,2.07,0,0,0,2.1-2.091A2.069,2.069,0,0,0,2.133,0,2.087,2.087,0,0,0,0,2.088" transform="translate(33.539 0)"/><path class="d" d="M.895,1.795A.9.9,0,1,1,1.789.9a.893.893,0,0,1-.894.895M.895.13A.766.766,0,1,0,1.656.9.765.765,0,0,0,.895.13m.2,1.277L.776.94H.746v.466H.6V.394A.611.611,0,0,1,.86.339c.212,0,.361.12.361.3A.288.288,0,0,1,.93.93l.341.477ZM.847.459a.4.4,0,0,0-.1.015v.37H.824c.139,0,.248-.051.248-.205S.948.459.847.459" transform="translate(42.32 5.017)"/></g></g><g transform="translate(744.628 1746.211) rotate(-45)"><g class="c"><path class="d" d="M4.312,8.5c3.517,0,4.31-2.292,4.31-3.866V0H6.028V4.457A1.56,1.56,0,0,1,4.312,6.214,1.56,1.56,0,0,1,2.593,4.457V0H0V4.634C0,6.208.792,8.5,4.312,8.5" transform="translate(19.277 5.534)"/><path class="d" d="M4.312,8.5c3.518,0,4.31-2.292,4.31-3.866V0H6.03V4.457A1.56,1.56,0,0,1,4.312,6.214a1.561,1.561,0,0,1-1.72-1.757V0H0V4.634C0,6.208.795,8.5,4.312,8.5" transform="translate(0 5.534)"/><path class="d" d="M4.313,0C.794,0,0,2.292,0,3.865V8.5H2.594V4.041A1.561,1.561,0,0,1,4.313,2.286,1.56,1.56,0,0,1,6.03,4.041V8.5H8.623V3.865C8.623,2.292,7.83,0,4.313,0" transform="translate(9.638 5.212)"/><path class="d" d="M6.759,1.313A3.131,3.131,0,0,0,3.863,0C1.7,0,0,1.082,0,3.695V8.5H2.535V3.69A1.345,1.345,0,0,1,4.012,2.2,1.345,1.345,0,0,1,5.49,3.69V8.5H8.026V3.69A1.344,1.344,0,0,1,9.5,2.2,1.345,1.345,0,0,1,10.98,3.69V8.5h2.534v-4.8C13.514,1.082,11.812,0,9.651,0A3.129,3.129,0,0,0,6.759,1.313" transform="translate(28.914 5.211)"/><path class="e" d="M0,2.088A2.087,2.087,0,0,0,2.131,4.179a2.07,2.07,0,0,0,2.1-2.091A2.069,2.069,0,0,0,2.131,0,2.086,2.086,0,0,0,0,2.088" transform="translate(11.818 0)"/><path class="e" d="M0,2.088A2.088,2.088,0,0,0,2.133,4.179a2.07,2.07,0,0,0,2.1-2.091A2.069,2.069,0,0,0,2.133,0,2.087,2.087,0,0,0,0,2.088" transform="translate(21.454 0)"/><path class="e" d="M0,2.088A2.088,2.088,0,0,0,2.133,4.179a2.07,2.07,0,0,0,2.1-2.091A2.069,2.069,0,0,0,2.133,0,2.087,2.087,0,0,0,0,2.088" transform="translate(33.539 0)"/><path class="d" d="M.895,1.795A.9.9,0,1,1,1.789.9a.893.893,0,0,1-.894.895M.895.13A.766.766,0,1,0,1.656.9.765.765,0,0,0,.895.13m.2,1.277L.776.94H.746v.466H.6V.394A.611.611,0,0,1,.86.339c.212,0,.361.12.361.3A.288.288,0,0,1,.93.93l.341.477ZM.847.459a.4.4,0,0,0-.1.015v.37H.824c.139,0,.248-.051.248-.205S.948.459.847.459" transform="translate(42.32 5.017)"/></g></g></g><g transform="translate(-576.38 -1654.126)"><g transform="translate(741.38 1685.316) rotate(-45)"><g class="c"><path class="d" d="M4.312,8.5c3.517,0,4.31-2.292,4.31-3.866V0H6.028V4.457A1.56,1.56,0,0,1,4.312,6.214,1.56,1.56,0,0,1,2.593,4.457V0H0V4.634C0,6.208.792,8.5,4.312,8.5" transform="translate(19.277 5.534)"/><path class="d" d="M4.312,8.5c3.518,0,4.31-2.292,4.31-3.866V0H6.03V4.457A1.56,1.56,0,0,1,4.312,6.214a1.561,1.561,0,0,1-1.72-1.757V0H0V4.634C0,6.208.795,8.5,4.312,8.5" transform="translate(0 5.534)"/><path class="d" d="M4.313,0C.794,0,0,2.292,0,3.865V8.5H2.594V4.041A1.561,1.561,0,0,1,4.313,2.286,1.56,1.56,0,0,1,6.03,4.041V8.5H8.623V3.865C8.623,2.292,7.83,0,4.313,0" transform="translate(9.638 5.212)"/><path class="d" d="M6.759,1.313A3.131,3.131,0,0,0,3.863,0C1.7,0,0,1.082,0,3.695V8.5H2.535V3.69A1.345,1.345,0,0,1,4.012,2.2,1.345,1.345,0,0,1,5.49,3.69V8.5H8.026V3.69A1.344,1.344,0,0,1,9.5,2.2,1.345,1.345,0,0,1,10.98,3.69V8.5h2.534v-4.8C13.514,1.082,11.812,0,9.651,0A3.129,3.129,0,0,0,6.759,1.313" transform="translate(28.914 5.211)"/><path class="e" d="M0,2.088A2.087,2.087,0,0,0,2.131,4.179a2.07,2.07,0,0,0,2.1-2.091A2.069,2.069,0,0,0,2.131,0,2.086,2.086,0,0,0,0,2.088" transform="translate(11.818 0)"/><path class="e" d="M0,2.088A2.088,2.088,0,0,0,2.133,4.179a2.07,2.07,0,0,0,2.1-2.091A2.069,2.069,0,0,0,2.133,0,2.087,2.087,0,0,0,0,2.088" transform="translate(21.454 0)"/><path class="e" d="M0,2.088A2.088,2.088,0,0,0,2.133,4.179a2.07,2.07,0,0,0,2.1-2.091A2.069,2.069,0,0,0,2.133,0,2.087,2.087,0,0,0,0,2.088" transform="translate(33.539 0)"/><path class="d" d="M.895,1.795A.9.9,0,1,1,1.789.9a.893.893,0,0,1-.894.895M.895.13A.766.766,0,1,0,1.656.9.765.765,0,0,0,.895.13m.2,1.277L.776.94H.746v.466H.6V.394A.611.611,0,0,1,.86.339c.212,0,.361.12.361.3A.288.288,0,0,1,.93.93l.341.477ZM.847.459a.4.4,0,0,0-.1.015v.37H.824c.139,0,.248-.051.248-.205S.948.459.847.459" transform="translate(42.32 5.017)"/></g></g><g transform="translate(744.628 1713.734) rotate(-45)"><g class="c"><path class="d" d="M4.312,8.5c3.517,0,4.31-2.292,4.31-3.866V0H6.028V4.457A1.56,1.56,0,0,1,4.312,6.214,1.56,1.56,0,0,1,2.593,4.457V0H0V4.634C0,6.208.792,8.5,4.312,8.5" transform="translate(19.277 5.534)"/><path class="d" d="M4.312,8.5c3.518,0,4.31-2.292,4.31-3.866V0H6.03V4.457A1.56,1.56,0,0,1,4.312,6.214a1.561,1.561,0,0,1-1.72-1.757V0H0V4.634C0,6.208.795,8.5,4.312,8.5" transform="translate(0 5.534)"/><path class="d" d="M4.313,0C.794,0,0,2.292,0,3.865V8.5H2.594V4.041A1.561,1.561,0,0,1,4.313,2.286,1.56,1.56,0,0,1,6.03,4.041V8.5H8.623V3.865C8.623,2.292,7.83,0,4.313,0" transform="translate(9.638 5.212)"/><path class="d" d="M6.759,1.313A3.131,3.131,0,0,0,3.863,0C1.7,0,0,1.082,0,3.695V8.5H2.535V3.69A1.345,1.345,0,0,1,4.012,2.2,1.345,1.345,0,0,1,5.49,3.69V8.5H8.026V3.69A1.344,1.344,0,0,1,9.5,2.2,1.345,1.345,0,0,1,10.98,3.69V8.5h2.534v-4.8C13.514,1.082,11.812,0,9.651,0A3.129,3.129,0,0,0,6.759,1.313" transform="translate(28.914 5.211)"/><path class="e" d="M0,2.088A2.087,2.087,0,0,0,2.131,4.179a2.07,2.07,0,0,0,2.1-2.091A2.069,2.069,0,0,0,2.131,0,2.086,2.086,0,0,0,0,2.088" transform="translate(11.818 0)"/><path class="e" d="M0,2.088A2.088,2.088,0,0,0,2.133,4.179a2.07,2.07,0,0,0,2.1-2.091A2.069,2.069,0,0,0,2.133,0,2.087,2.087,0,0,0,0,2.088" transform="translate(21.454 0)"/><path class="e" d="M0,2.088A2.088,2.088,0,0,0,2.133,4.179a2.07,2.07,0,0,0,2.1-2.091A2.069,2.069,0,0,0,2.133,0,2.087,2.087,0,0,0,0,2.088" transform="translate(33.539 0)"/><path class="d" d="M.895,1.795A.9.9,0,1,1,1.789.9a.893.893,0,0,1-.894.895M.895.13A.766.766,0,1,0,1.656.9.765.765,0,0,0,.895.13m.2,1.277L.776.94H.746v.466H.6V.394A.611.611,0,0,1,.86.339c.212,0,.361.12.361.3A.288.288,0,0,1,.93.93l.341.477ZM.847.459a.4.4,0,0,0-.1.015v.37H.824c.139,0,.248-.051.248-.205S.948.459.847.459" transform="translate(42.32 5.017)"/></g></g><g transform="translate(744.628 1746.211) rotate(-45)"><g class="c"><path class="d" d="M4.312,8.5c3.517,0,4.31-2.292,4.31-3.866V0H6.028V4.457A1.56,1.56,0,0,1,4.312,6.214,1.56,1.56,0,0,1,2.593,4.457V0H0V4.634C0,6.208.792,8.5,4.312,8.5" transform="translate(19.277 5.534)"/><path class="d" d="M4.312,8.5c3.518,0,4.31-2.292,4.31-3.866V0H6.03V4.457A1.56,1.56,0,0,1,4.312,6.214a1.561,1.561,0,0,1-1.72-1.757V0H0V4.634C0,6.208.795,8.5,4.312,8.5" transform="translate(0 5.534)"/><path class="d" d="M4.313,0C.794,0,0,2.292,0,3.865V8.5H2.594V4.041A1.561,1.561,0,0,1,4.313,2.286,1.56,1.56,0,0,1,6.03,4.041V8.5H8.623V3.865C8.623,2.292,7.83,0,4.313,0" transform="translate(9.638 5.212)"/><path class="d" d="M6.759,1.313A3.131,3.131,0,0,0,3.863,0C1.7,0,0,1.082,0,3.695V8.5H2.535V3.69A1.345,1.345,0,0,1,4.012,2.2,1.345,1.345,0,0,1,5.49,3.69V8.5H8.026V3.69A1.344,1.344,0,0,1,9.5,2.2,1.345,1.345,0,0,1,10.98,3.69V8.5h2.534v-4.8C13.514,1.082,11.812,0,9.651,0A3.129,3.129,0,0,0,6.759,1.313" transform="translate(28.914 5.211)"/><path class="e" d="M0,2.088A2.087,2.087,0,0,0,2.131,4.179a2.07,2.07,0,0,0,2.1-2.091A2.069,2.069,0,0,0,2.131,0,2.086,2.086,0,0,0,0,2.088" transform="translate(11.818 0)"/><path class="e" d="M0,2.088A2.088,2.088,0,0,0,2.133,4.179a2.07,2.07,0,0,0,2.1-2.091A2.069,2.069,0,0,0,2.133,0,2.087,2.087,0,0,0,0,2.088" transform="translate(21.454 0)"/><path class="e" d="M0,2.088A2.088,2.088,0,0,0,2.133,4.179a2.07,2.07,0,0,0,2.1-2.091A2.069,2.069,0,0,0,2.133,0,2.087,2.087,0,0,0,0,2.088" transform="translate(33.539 0)"/><path class="d" d="M.895,1.795A.9.9,0,1,1,1.789.9a.893.893,0,0,1-.894.895M.895.13A.766.766,0,1,0,1.656.9.765.765,0,0,0,.895.13m.2,1.277L.776.94H.746v.466H.6V.394A.611.611,0,0,1,.86.339c.212,0,.361.12.361.3A.288.288,0,0,1,.93.93l.341.477ZM.847.459a.4.4,0,0,0-.1.015v.37H.824c.139,0,.248-.051.248-.205S.948.459.847.459" transform="translate(42.32 5.017)"/></g></g></g><g transform="translate(-521.38 -1654.126)"><g transform="translate(741.38 1685.316) rotate(-45)"><g class="c"><path class="d" d="M4.312,8.5c3.517,0,4.31-2.292,4.31-3.866V0H6.028V4.457A1.56,1.56,0,0,1,4.312,6.214,1.56,1.56,0,0,1,2.593,4.457V0H0V4.634C0,6.208.792,8.5,4.312,8.5" transform="translate(19.277 5.534)"/><path class="d" d="M4.312,8.5c3.518,0,4.31-2.292,4.31-3.866V0H6.03V4.457A1.56,1.56,0,0,1,4.312,6.214a1.561,1.561,0,0,1-1.72-1.757V0H0V4.634C0,6.208.795,8.5,4.312,8.5" transform="translate(0 5.534)"/><path class="d" d="M4.313,0C.794,0,0,2.292,0,3.865V8.5H2.594V4.041A1.561,1.561,0,0,1,4.313,2.286,1.56,1.56,0,0,1,6.03,4.041V8.5H8.623V3.865C8.623,2.292,7.83,0,4.313,0" transform="translate(9.638 5.212)"/><path class="d" d="M6.759,1.313A3.131,3.131,0,0,0,3.863,0C1.7,0,0,1.082,0,3.695V8.5H2.535V3.69A1.345,1.345,0,0,1,4.012,2.2,1.345,1.345,0,0,1,5.49,3.69V8.5H8.026V3.69A1.344,1.344,0,0,1,9.5,2.2,1.345,1.345,0,0,1,10.98,3.69V8.5h2.534v-4.8C13.514,1.082,11.812,0,9.651,0A3.129,3.129,0,0,0,6.759,1.313" transform="translate(28.914 5.211)"/><path class="e" d="M0,2.088A2.087,2.087,0,0,0,2.131,4.179a2.07,2.07,0,0,0,2.1-2.091A2.069,2.069,0,0,0,2.131,0,2.086,2.086,0,0,0,0,2.088" transform="translate(11.818 0)"/><path class="e" d="M0,2.088A2.088,2.088,0,0,0,2.133,4.179a2.07,2.07,0,0,0,2.1-2.091A2.069,2.069,0,0,0,2.133,0,2.087,2.087,0,0,0,0,2.088" transform="translate(21.454 0)"/><path class="e" d="M0,2.088A2.088,2.088,0,0,0,2.133,4.179a2.07,2.07,0,0,0,2.1-2.091A2.069,2.069,0,0,0,2.133,0,2.087,2.087,0,0,0,0,2.088" transform="translate(33.539 0)"/><path class="d" d="M.895,1.795A.9.9,0,1,1,1.789.9a.893.893,0,0,1-.894.895M.895.13A.766.766,0,1,0,1.656.9.765.765,0,0,0,.895.13m.2,1.277L.776.94H.746v.466H.6V.394A.611.611,0,0,1,.86.339c.212,0,.361.12.361.3A.288.288,0,0,1,.93.93l.341.477ZM.847.459a.4.4,0,0,0-.1.015v.37H.824c.139,0,.248-.051.248-.205S.948.459.847.459" transform="translate(42.32 5.017)"/></g></g><g transform="translate(744.628 1713.734) rotate(-45)"><g class="c"><path class="d" d="M4.312,8.5c3.517,0,4.31-2.292,4.31-3.866V0H6.028V4.457A1.56,1.56,0,0,1,4.312,6.214,1.56,1.56,0,0,1,2.593,4.457V0H0V4.634C0,6.208.792,8.5,4.312,8.5" transform="translate(19.277 5.534)"/><path class="d" d="M4.312,8.5c3.518,0,4.31-2.292,4.31-3.866V0H6.03V4.457A1.56,1.56,0,0,1,4.312,6.214a1.561,1.561,0,0,1-1.72-1.757V0H0V4.634C0,6.208.795,8.5,4.312,8.5" transform="translate(0 5.534)"/><path class="d" d="M4.313,0C.794,0,0,2.292,0,3.865V8.5H2.594V4.041A1.561,1.561,0,0,1,4.313,2.286,1.56,1.56,0,0,1,6.03,4.041V8.5H8.623V3.865C8.623,2.292,7.83,0,4.313,0" transform="translate(9.638 5.212)"/><path class="d" d="M6.759,1.313A3.131,3.131,0,0,0,3.863,0C1.7,0,0,1.082,0,3.695V8.5H2.535V3.69A1.345,1.345,0,0,1,4.012,2.2,1.345,1.345,0,0,1,5.49,3.69V8.5H8.026V3.69A1.344,1.344,0,0,1,9.5,2.2,1.345,1.345,0,0,1,10.98,3.69V8.5h2.534v-4.8C13.514,1.082,11.812,0,9.651,0A3.129,3.129,0,0,0,6.759,1.313" transform="translate(28.914 5.211)"/><path class="e" d="M0,2.088A2.087,2.087,0,0,0,2.131,4.179a2.07,2.07,0,0,0,2.1-2.091A2.069,2.069,0,0,0,2.131,0,2.086,2.086,0,0,0,0,2.088" transform="translate(11.818 0)"/><path class="e" d="M0,2.088A2.088,2.088,0,0,0,2.133,4.179a2.07,2.07,0,0,0,2.1-2.091A2.069,2.069,0,0,0,2.133,0,2.087,2.087,0,0,0,0,2.088" transform="translate(21.454 0)"/><path class="e" d="M0,2.088A2.088,2.088,0,0,0,2.133,4.179a2.07,2.07,0,0,0,2.1-2.091A2.069,2.069,0,0,0,2.133,0,2.087,2.087,0,0,0,0,2.088" transform="translate(33.539 0)"/><path class="d" d="M.895,1.795A.9.9,0,1,1,1.789.9a.893.893,0,0,1-.894.895M.895.13A.766.766,0,1,0,1.656.9.765.765,0,0,0,.895.13m.2,1.277L.776.94H.746v.466H.6V.394A.611.611,0,0,1,.86.339c.212,0,.361.12.361.3A.288.288,0,0,1,.93.93l.341.477ZM.847.459a.4.4,0,0,0-.1.015v.37H.824c.139,0,.248-.051.248-.205S.948.459.847.459" transform="translate(42.32 5.017)"/></g></g><g transform="translate(744.628 1746.211) rotate(-45)"><g class="c"><path class="d" d="M4.312,8.5c3.517,0,4.31-2.292,4.31-3.866V0H6.028V4.457A1.56,1.56,0,0,1,4.312,6.214,1.56,1.56,0,0,1,2.593,4.457V0H0V4.634C0,6.208.792,8.5,4.312,8.5" transform="translate(19.277 5.534)"/><path class="d" d="M4.312,8.5c3.518,0,4.31-2.292,4.31-3.866V0H6.03V4.457A1.56,1.56,0,0,1,4.312,6.214a1.561,1.561,0,0,1-1.72-1.757V0H0V4.634C0,6.208.795,8.5,4.312,8.5" transform="translate(0 5.534)"/><path class="d" d="M4.313,0C.794,0,0,2.292,0,3.865V8.5H2.594V4.041A1.561,1.561,0,0,1,4.313,2.286,1.56,1.56,0,0,1,6.03,4.041V8.5H8.623V3.865C8.623,2.292,7.83,0,4.313,0" transform="translate(9.638 5.212)"/><path class="d" d="M6.759,1.313A3.131,3.131,0,0,0,3.863,0C1.7,0,0,1.082,0,3.695V8.5H2.535V3.69A1.345,1.345,0,0,1,4.012,2.2,1.345,1.345,0,0,1,5.49,3.69V8.5H8.026V3.69A1.344,1.344,0,0,1,9.5,2.2,1.345,1.345,0,0,1,10.98,3.69V8.5h2.534v-4.8C13.514,1.082,11.812,0,9.651,0A3.129,3.129,0,0,0,6.759,1.313" transform="translate(28.914 5.211)"/><path class="e" d="M0,2.088A2.087,2.087,0,0,0,2.131,4.179a2.07,2.07,0,0,0,2.1-2.091A2.069,2.069,0,0,0,2.131,0,2.086,2.086,0,0,0,0,2.088" transform="translate(11.818 0)"/><path class="e" d="M0,2.088A2.088,2.088,0,0,0,2.133,4.179a2.07,2.07,0,0,0,2.1-2.091A2.069,2.069,0,0,0,2.133,0,2.087,2.087,0,0,0,0,2.088" transform="translate(21.454 0)"/><path class="e" d="M0,2.088A2.088,2.088,0,0,0,2.133,4.179a2.07,2.07,0,0,0,2.1-2.091A2.069,2.069,0,0,0,2.133,0,2.087,2.087,0,0,0,0,2.088" transform="translate(33.539 0)"/><path class="d" d="M.895,1.795A.9.9,0,1,1,1.789.9a.893.893,0,0,1-.894.895M.895.13A.766.766,0,1,0,1.656.9.765.765,0,0,0,.895.13m.2,1.277L.776.94H.746v.466H.6V.394A.611.611,0,0,1,.86.339c.212,0,.361.12.361.3A.288.288,0,0,1,.93.93l.341.477ZM.847.459a.4.4,0,0,0-.1.015v.37H.824c.139,0,.248-.051.248-.205S.948.459.847.459" transform="translate(42.32 5.017)"/></g></g></g><g transform="translate(-466.38 -1654.126)"><g transform="translate(741.38 1685.316) rotate(-45)"><g class="c"><path class="d" d="M4.312,8.5c3.517,0,4.31-2.292,4.31-3.866V0H6.028V4.457A1.56,1.56,0,0,1,4.312,6.214,1.56,1.56,0,0,1,2.593,4.457V0H0V4.634C0,6.208.792,8.5,4.312,8.5" transform="translate(19.277 5.534)"/><path class="d" d="M4.312,8.5c3.518,0,4.31-2.292,4.31-3.866V0H6.03V4.457A1.56,1.56,0,0,1,4.312,6.214a1.561,1.561,0,0,1-1.72-1.757V0H0V4.634C0,6.208.795,8.5,4.312,8.5" transform="translate(0 5.534)"/><path class="d" d="M4.313,0C.794,0,0,2.292,0,3.865V8.5H2.594V4.041A1.561,1.561,0,0,1,4.313,2.286,1.56,1.56,0,0,1,6.03,4.041V8.5H8.623V3.865C8.623,2.292,7.83,0,4.313,0" transform="translate(9.638 5.212)"/><path class="d" d="M6.759,1.313A3.131,3.131,0,0,0,3.863,0C1.7,0,0,1.082,0,3.695V8.5H2.535V3.69A1.345,1.345,0,0,1,4.012,2.2,1.345,1.345,0,0,1,5.49,3.69V8.5H8.026V3.69A1.344,1.344,0,0,1,9.5,2.2,1.345,1.345,0,0,1,10.98,3.69V8.5h2.534v-4.8C13.514,1.082,11.812,0,9.651,0A3.129,3.129,0,0,0,6.759,1.313" transform="translate(28.914 5.211)"/><path class="e" d="M0,2.088A2.087,2.087,0,0,0,2.131,4.179a2.07,2.07,0,0,0,2.1-2.091A2.069,2.069,0,0,0,2.131,0,2.086,2.086,0,0,0,0,2.088" transform="translate(11.818 0)"/><path class="e" d="M0,2.088A2.088,2.088,0,0,0,2.133,4.179a2.07,2.07,0,0,0,2.1-2.091A2.069,2.069,0,0,0,2.133,0,2.087,2.087,0,0,0,0,2.088" transform="translate(21.454 0)"/><path class="e" d="M0,2.088A2.088,2.088,0,0,0,2.133,4.179a2.07,2.07,0,0,0,2.1-2.091A2.069,2.069,0,0,0,2.133,0,2.087,2.087,0,0,0,0,2.088" transform="translate(33.539 0)"/><path class="d" d="M.895,1.795A.9.9,0,1,1,1.789.9a.893.893,0,0,1-.894.895M.895.13A.766.766,0,1,0,1.656.9.765.765,0,0,0,.895.13m.2,1.277L.776.94H.746v.466H.6V.394A.611.611,0,0,1,.86.339c.212,0,.361.12.361.3A.288.288,0,0,1,.93.93l.341.477ZM.847.459a.4.4,0,0,0-.1.015v.37H.824c.139,0,.248-.051.248-.205S.948.459.847.459" transform="translate(42.32 5.017)"/></g></g><g transform="translate(744.628 1713.734) rotate(-45)"><g class="c"><path class="d" d="M4.312,8.5c3.517,0,4.31-2.292,4.31-3.866V0H6.028V4.457A1.56,1.56,0,0,1,4.312,6.214,1.56,1.56,0,0,1,2.593,4.457V0H0V4.634C0,6.208.792,8.5,4.312,8.5" transform="translate(19.277 5.534)"/><path class="d" d="M4.312,8.5c3.518,0,4.31-2.292,4.31-3.866V0H6.03V4.457A1.56,1.56,0,0,1,4.312,6.214a1.561,1.561,0,0,1-1.72-1.757V0H0V4.634C0,6.208.795,8.5,4.312,8.5" transform="translate(0 5.534)"/><path class="d" d="M4.313,0C.794,0,0,2.292,0,3.865V8.5H2.594V4.041A1.561,1.561,0,0,1,4.313,2.286,1.56,1.56,0,0,1,6.03,4.041V8.5H8.623V3.865C8.623,2.292,7.83,0,4.313,0" transform="translate(9.638 5.212)"/><path class="d" d="M6.759,1.313A3.131,3.131,0,0,0,3.863,0C1.7,0,0,1.082,0,3.695V8.5H2.535V3.69A1.345,1.345,0,0,1,4.012,2.2,1.345,1.345,0,0,1,5.49,3.69V8.5H8.026V3.69A1.344,1.344,0,0,1,9.5,2.2,1.345,1.345,0,0,1,10.98,3.69V8.5h2.534v-4.8C13.514,1.082,11.812,0,9.651,0A3.129,3.129,0,0,0,6.759,1.313" transform="translate(28.914 5.211)"/><path class="e" d="M0,2.088A2.087,2.087,0,0,0,2.131,4.179a2.07,2.07,0,0,0,2.1-2.091A2.069,2.069,0,0,0,2.131,0,2.086,2.086,0,0,0,0,2.088" transform="translate(11.818 0)"/><path class="e" d="M0,2.088A2.088,2.088,0,0,0,2.133,4.179a2.07,2.07,0,0,0,2.1-2.091A2.069,2.069,0,0,0,2.133,0,2.087,2.087,0,0,0,0,2.088" transform="translate(21.454 0)"/><path class="e" d="M0,2.088A2.088,2.088,0,0,0,2.133,4.179a2.07,2.07,0,0,0,2.1-2.091A2.069,2.069,0,0,0,2.133,0,2.087,2.087,0,0,0,0,2.088" transform="translate(33.539 0)"/><path class="d" d="M.895,1.795A.9.9,0,1,1,1.789.9a.893.893,0,0,1-.894.895M.895.13A.766.766,0,1,0,1.656.9.765.765,0,0,0,.895.13m.2,1.277L.776.94H.746v.466H.6V.394A.611.611,0,0,1,.86.339c.212,0,.361.12.361.3A.288.288,0,0,1,.93.93l.341.477ZM.847.459a.4.4,0,0,0-.1.015v.37H.824c.139,0,.248-.051.248-.205S.948.459.847.459" transform="translate(42.32 5.017)"/></g></g><g transform="translate(744.628 1746.211) rotate(-45)"><g class="c"><path class="d" d="M4.312,8.5c3.517,0,4.31-2.292,4.31-3.866V0H6.028V4.457A1.56,1.56,0,0,1,4.312,6.214,1.56,1.56,0,0,1,2.593,4.457V0H0V4.634C0,6.208.792,8.5,4.312,8.5" transform="translate(19.277 5.534)"/><path class="d" d="M4.312,8.5c3.518,0,4.31-2.292,4.31-3.866V0H6.03V4.457A1.56,1.56,0,0,1,4.312,6.214a1.561,1.561,0,0,1-1.72-1.757V0H0V4.634C0,6.208.795,8.5,4.312,8.5" transform="translate(0 5.534)"/><path class="d" d="M4.313,0C.794,0,0,2.292,0,3.865V8.5H2.594V4.041A1.561,1.561,0,0,1,4.313,2.286,1.56,1.56,0,0,1,6.03,4.041V8.5H8.623V3.865C8.623,2.292,7.83,0,4.313,0" transform="translate(9.638 5.212)"/><path class="d" d="M6.759,1.313A3.131,3.131,0,0,0,3.863,0C1.7,0,0,1.082,0,3.695V8.5H2.535V3.69A1.345,1.345,0,0,1,4.012,2.2,1.345,1.345,0,0,1,5.49,3.69V8.5H8.026V3.69A1.344,1.344,0,0,1,9.5,2.2,1.345,1.345,0,0,1,10.98,3.69V8.5h2.534v-4.8C13.514,1.082,11.812,0,9.651,0A3.129,3.129,0,0,0,6.759,1.313" transform="translate(28.914 5.211)"/><path class="e" d="M0,2.088A2.087,2.087,0,0,0,2.131,4.179a2.07,2.07,0,0,0,2.1-2.091A2.069,2.069,0,0,0,2.131,0,2.086,2.086,0,0,0,0,2.088" transform="translate(11.818 0)"/><path class="e" d="M0,2.088A2.088,2.088,0,0,0,2.133,4.179a2.07,2.07,0,0,0,2.1-2.091A2.069,2.069,0,0,0,2.133,0,2.087,2.087,0,0,0,0,2.088" transform="translate(21.454 0)"/><path class="e" d="M0,2.088A2.088,2.088,0,0,0,2.133,4.179a2.07,2.07,0,0,0,2.1-2.091A2.069,2.069,0,0,0,2.133,0,2.087,2.087,0,0,0,0,2.088" transform="translate(33.539 0)"/><path class="d" d="M.895,1.795A.9.9,0,1,1,1.789.9a.893.893,0,0,1-.894.895M.895.13A.766.766,0,1,0,1.656.9.765.765,0,0,0,.895.13m.2,1.277L.776.94H.746v.466H.6V.394A.611.611,0,0,1,.86.339c.212,0,.361.12.361.3A.288.288,0,0,1,.93.93l.341.477ZM.847.459a.4.4,0,0,0-.1.015v.37H.824c.139,0,.248-.051.248-.205S.948.459.847.459" transform="translate(42.32 5.017)"/></g></g></g></g><g transform="translate(725.408 1554)"><g class="f"><rect class="i" width="310" height="112" rx="8"/><rect class="a" x="1" y="1" width="308" height="110" rx="7"/></g><g transform="translate(259.642 11)"><rect class="g" width="40" height="40" rx="4"/><g transform="translate(7 7)"><g class="h"><circle class="i" cx="13.5" cy="13.5" r="13.5"/><circle class="a" cx="13.5" cy="13.5" r="11.5"/></g><path class="h" d="M0,0,17.68,14.76" transform="translate(3.82 5.74)"/></g></g></g></g></svg>