<svg xmlns="http://www.w3.org/2000/svg" width="160.671" height="51.553" viewBox="0 0 160.671 51.553"><defs><style>.a{fill:#015294;}.b{fill:#5e88a1;}</style></defs><g transform="translate(80.336 25.776)"><g transform="translate(-80.336 -25.776)"><path class="a" d="M48.381,40.331c12.888,0,15.681-8.377,15.681-14.177V9.4H54.61V25.725a5.585,5.585,0,0,1-6.229,6.444,5.585,5.585,0,0,1-6.229-6.444V9.4H32.7V26.369c0,5.8,2.792,14.177,15.681,14.177" transform="translate(37.54 11.006)"/><path class="a" d="M15.681,40.331c12.888,0,15.681-8.377,15.681-14.177V9.4H21.91V25.725a5.585,5.585,0,0,1-6.229,6.444,5.585,5.585,0,0,1-6.229-6.444V9.4H0V26.369c0,5.8,2.792,14.177,15.681,14.177" transform="translate(0 11.006)"/><path class="a" d="M31.981,8.8C19.092,8.8,16.3,17.177,16.3,22.977V39.946h9.451V23.621a5.585,5.585,0,0,1,6.229-6.444,5.585,5.585,0,0,1,6.229,6.444V39.946h9.666V22.977c0-5.8-2.792-14.177-15.681-14.177" transform="translate(18.713 10.317)"/><path class="a" d="M73.7,13.74c-.43-.644-2.792-4.726-10.525-4.726S49,12.881,49,22.332v17.4h9.236v-17.4a5.37,5.37,0,1,1,10.74,0V39.946h9.236V22.332a5.37,5.37,0,1,1,10.74,0V39.946H98.19V22.332C98.19,12.881,91.96,8.8,84.227,8.8s-10.1,4.3-10.525,4.726" transform="translate(56.253 10.317)"/><path class="b" d="M20,7.633A7.733,7.733,0,1,0,27.733-.1,7.733,7.733,0,0,0,20,7.633" transform="translate(22.96 0.1)"/><path class="b" d="M36.4,7.633A7.733,7.733,0,1,0,44.133-.1,7.733,7.733,0,0,0,36.4,7.633" transform="translate(41.788 0.1)"/><path class="b" d="M56.9,7.633A7.733,7.733,0,1,0,64.633-.1,7.733,7.733,0,0,0,56.9,7.633" transform="translate(65.322 0.1)"/><path class="a" d="M75.022,14.944a3.222,3.222,0,1,1,3.222-3.222A3.222,3.222,0,0,1,75.022,14.944Zm0-6.014a2.687,2.687,0,1,1-.215,0Zm.644,4.726-1.074-1.718h-.215v1.718h-.43V10h.859c.859,0,1.289.43,1.289,1.074a1.074,1.074,0,0,1-1.074,1.074l1.289,1.718Zm-.859-3.437h-.43v1.289h.215c.43,0,.859-.215.859-.644s-.43-.644-.859-.644Z" transform="translate(82.427 9.973)"/></g></g></svg>