<svg xmlns="http://www.w3.org/2000/svg" xmlns:xlink="http://www.w3.org/1999/xlink" width="310" height="112" viewBox="0 0 310 112"><defs><style>.a{fill:#015294;}.b,.e{fill:none;}.c{fill:rgba(217,0,0,0.02);stroke:rgba(217,0,0,0.16);stroke-width:1px;}.d{fill:#d90000;}.e{stroke:#fff;stroke-width:4px;}.f{clip-path:url(#a);}.g{fill:#5e88a1;}.h{clip-path:url(#b);}.i{stroke:none;}</style><clipPath id="a"><path class="a" d="M0,39.032V0H21.478V39.032H0Z"/></clipPath><clipPath id="b"><path class="b" d="M0,64.448H115.794V0H0Z"/></clipPath></defs><g transform="translate(-1051.428 -1388)"><g transform="translate(1051.428 1388)"><g class="c"><rect class="i" width="310" height="112" rx="8"/><rect class="b" x="1" y="1" width="308" height="110" rx="7"/></g><g transform="translate(259.642 11)"><rect class="d" width="40" height="40" rx="4"/><g transform="translate(7 7)"><g class="e"><circle class="i" cx="13.5" cy="13.5" r="13.5"/><circle class="b" cx="13.5" cy="13.5" r="11.5"/></g><path class="e" d="M0,0,17.68,14.76" transform="translate(3.82 5.74)"/></g></g></g><g transform="translate(1148.685 1411.862)"><path class="a" d="M10.74,39.032C1.974,39.032,0,28.506,0,21.28V0H6.458V20.468c0,5.613,1.709,8.065,4.283,8.065s4.276-2.452,4.276-8.065V0h6.459V21.28C21.475,28.506,19.5,39.032,10.74,39.032Z" transform="translate(48.014 25.415)"/><g transform="translate(0 25.415)"><path class="b" d="M0,39.032V0H21.478V39.032H0Z" transform="translate(0 0)"/><g class="f" transform="translate(0 0)"><path class="a" d="M10.74,39.032c8.763,0,10.739-10.527,10.739-17.753V0H15.02V20.468c0,5.613-1.707,8.065-4.279,8.065s-4.281-2.452-4.281-8.065V0H0V21.28c0,7.226,1.977,17.753,10.74,17.753" transform="translate(-0.001)"/></g></g><path class="a" d="M10.742,0C1.977,0,0,10.525,0,17.749V39.027H6.459V18.554c0-5.6,1.709-8.056,4.283-8.056s4.279,2.459,4.279,8.056V39.027h6.458V17.749C21.479,10.525,19.505,0,10.742,0" transform="translate(24.005 23.937)"/><path class="a" d="M16.83,6.03C16.551,5.343,14.905,0,9.619,0,4.239,0,0,4.962,0,16.963V39.027H6.313V16.943c0-3.87,1.071-6.833,3.679-6.833s3.679,2.963,3.679,6.833V39.027h6.316V16.943c0-3.87,1.068-6.833,3.677-6.833s3.681,2.963,3.681,6.833V39.027H33.66V16.963C33.66,4.962,29.419,0,24.038,0c-5.283,0-6.931,5.343-7.208,6.03" transform="translate(72.021 23.937)"/><path class="g" d="M5.31,19.19c2.931,0,5.236-4.172,5.236-9.6S8.241,0,5.31,0C2.347,0,0,4.17,0,9.591S2.347,19.19,5.31,19.19Z" transform="translate(29.436 0)"/><path class="g" d="M5.312,19.19c2.933,0,5.234-4.172,5.234-9.6S8.245,0,5.312,0C2.351,0,0,4.17,0,9.591S2.351,19.19,5.312,19.19Z" transform="translate(53.44 0)"/><path class="g" d="M5.31,19.19c2.933,0,5.238-4.172,5.238-9.6S8.243,0,5.31,0C2.349,0,0,4.17,0,9.591S2.349,19.19,5.31,19.19Z" transform="translate(83.541 0)"/><path class="b" d="M0,64.448H115.794V0H0Z" transform="translate(0 0)"/><g class="h" transform="translate(0 0)"><path class="a" d="M3.286,6.65A3.158,3.158,0,0,1,.969,5.668,3.241,3.241,0,0,1,0,3.324,3.209,3.209,0,0,1,.975.974,3.219,3.219,0,0,1,3.324,0,3.215,3.215,0,0,1,5.674.974,3.2,3.2,0,0,1,6.65,3.317,3.213,3.213,0,0,1,5.672,5.68,3.274,3.274,0,0,1,3.286,6.65ZM3.324.475A2.671,2.671,0,0,0,1.146,1.5,2.873,2.873,0,0,0,.475,3.324a2.777,2.777,0,0,0,.831,2.007,2.7,2.7,0,0,0,1.981.843A2.7,2.7,0,0,0,5.5,5.152,2.821,2.821,0,0,0,5.5,1.5,2.667,2.667,0,0,0,3.324.475ZM2.807,5.136H2.229V1.541H3.364a1.281,1.281,0,0,1,.815.221.8.8,0,0,1,.271.66,1.107,1.107,0,0,1-.158.586,1.369,1.369,0,0,1-.471.454L4.9,5.132l-.67,0-.971-1.5H2.807v1.5ZM2.768,1.913V3.188h.167a1.188,1.188,0,0,0,.712-.177.623.623,0,0,0,.238-.532.489.489,0,0,0-.2-.425,1.044,1.044,0,0,0-.6-.141Z" transform="translate(105.343 21.287)"/></g></g></g></svg>