<svg xmlns="http://www.w3.org/2000/svg" width="205.934" height="116.924" viewBox="0 0 205.934 116.924"><defs><style>.a{fill:#fff;stroke:#dfe7ec;stroke-width:1px;}.b{fill:#dfe7ec;}.c{fill:#005393;}.d{fill:#5e88a1;}.e{stroke:none;}.f{fill:none;}</style></defs><g transform="translate(0)"><g class="a" transform="translate(0 0)"><rect class="e" width="205.934" height="116.578" rx="8"/><rect class="f" x="1" y="1" width="203.934" height="114.578" rx="7"/></g><g transform="translate(0.664 0.654)"><g transform="translate(0 0)"><g transform="translate(0 0)"><g transform="translate(0 0)"><g transform="translate(46.112 0)"><path class="b" d="M21.3,11.451A7.868,7.868,0,1,0,29.17,3.8,7.649,7.649,0,0,0,21.3,11.451" transform="translate(35.701 3.848)"/><path class="b" d="M21.3.3a7.649,7.649,0,0,0,7.868,7.649A7.649,7.649,0,0,0,36.817.3H21.3" transform="translate(35.703 -0.3)"/></g><g transform="translate(181.183 53.98)"><path class="b" d="M91.187,25a7.868,7.868,0,1,0,7.649,7.868A7.649,7.649,0,0,0,91.187,25" transform="translate(-83.1 -24.999)"/><path class="b" d="M98.168,25a7.868,7.868,0,1,0,0,15.736V25" transform="translate(-74.564 -24.997)"/></g><g transform="translate(103.288 92.667)"><path class="b" d="M92.934,50.787a7.868,7.868,0,1,0-7.868,7.649,7.649,7.649,0,0,0,7.868-7.649" transform="translate(-77.199 -42.7)"/><path class="b" d="M92.936,57.768a7.868,7.868,0,0,0-15.736,0H92.936" transform="translate(-77.2 -34.164)"/></g><g transform="translate(0 53.767)"><path class="b" d="M11.451,40.634A7.868,7.868,0,1,0,3.8,32.766a7.649,7.649,0,0,0,7.649,7.868" transform="translate(4.066 -24.901)"/><path class="b" d="M.2,40.517a7.649,7.649,0,0,0,7.649-7.868A7.649,7.649,0,0,0,.2,25V40.736" transform="translate(-0.2 -24.784)"/></g><path class="b" d="M168.479,11.337V80.182H11.556V11.337H168.479m.656-.437H10.9V80.619H169.134Z" transform="translate(12.485 12.267)"/><g transform="translate(24.374 24.005)"><path class="c" d="M611.279,1165.263H609.9v3.145h1.3c1.237,0,1.915-.709,1.915-1.64a1.628,1.628,0,0,0-1.833-1.5Zm-.243-3.814H609.9v2.928h1.126a1.521,1.521,0,0,0,1.584-1.57c0-.839-.508-1.358-1.57-1.358Zm.083,7.863h-2.2v-8.768h2.3a2.174,2.174,0,0,1,2.432,2.186,1.978,1.978,0,0,1-1.185,1.927v.027a2.058,2.058,0,0,1,1.7,2.06c0,1.181-.7,2.569-3.056,2.569Z" transform="translate(-573.369 -1100.949)"/><path class="c" d="M782.06,1175.708a1.659,1.659,0,0,0-.574-.1,2.189,2.189,0,0,0-1.407.755v4.672h-.972v-6.292h.885l.047.718c.865-.785,1.341-.881,1.744-.881a1.227,1.227,0,0,1,.691.193l-.413.938Z" transform="translate(-715.503 -1112.669)"/><path class="c" d="M824.9,1160.479a2.66,2.66,0,0,0-1.291.316v4.349a2.456,2.456,0,0,0,1,.172,2.426,2.426,0,0,0,2.222-2.618c0-1.3-.679-2.22-1.927-2.22Zm-.507,5.677a3.319,3.319,0,0,1-1.753-.4v-9.147h.969v3.254a3.9,3.9,0,0,1,1.425-.293,2.763,2.763,0,0,1,2.765,3.088,3.315,3.315,0,0,1-3.406,3.5Z" transform="translate(-751.864 -1097.663)"/><path class="c" d="M908.486,1181.032v-3.873c0-.782-.133-1.664-1.091-1.664a3.229,3.229,0,0,0-1.95.962v4.575h-.975v-6.292h.881l.054.755a3.579,3.579,0,0,1,2.245-.918c.9,0,1.808.656,1.808,2.223v4.232Z" transform="translate(-820.203 -1112.669)"/><path class="c" d="M947.471,1175.4a1.637,1.637,0,0,0-1.514,1.824h2.958c0-.875-.489-1.824-1.444-1.824Zm-1.53,2.649a2.065,2.065,0,0,0,2.046,2.272,3.045,3.045,0,0,0,1.531-.466l.329.729a3.619,3.619,0,0,1-1.98.576c-2,0-2.961-1.614-2.961-3.407,0-1.82,1.036-3.177,2.549-3.177,1.623,0,2.512,1.3,2.512,3.247v.227Z" transform="translate(-853.975 -1112.669)"/><path class="c" d="M866.038,1175.4a1.635,1.635,0,0,0-1.514,1.824h2.964a1.639,1.639,0,0,0-1.451-1.824Zm-1.528,2.649a2.063,2.063,0,0,0,2.045,2.272,3.019,3.019,0,0,0,1.528-.466l.33.729a3.588,3.588,0,0,1-1.978.576c-2.007,0-2.961-1.614-2.961-3.407,0-1.82,1.037-3.177,2.55-3.177,1.624,0,2.515,1.3,2.515,3.247v.227Z" transform="translate(-785.964 -1112.669)"/><path class="c" d="M740.824,1175.4a1.64,1.64,0,0,0-1.518,1.824h2.967c0-.875-.5-1.824-1.449-1.824Zm-1.529,2.649a2.062,2.062,0,0,0,2.048,2.272,3.052,3.052,0,0,0,1.526-.466l.33.729a3.622,3.622,0,0,1-1.977.576c-2.007,0-2.964-1.614-2.964-3.407,0-1.82,1.037-3.177,2.55-3.177,1.619,0,2.513,1.3,2.513,3.247v.227Z" transform="translate(-681.387 -1112.669)"/><path class="c" d="M650.667,1175.4a1.637,1.637,0,0,0-1.516,1.824h2.963c0-.875-.493-1.824-1.448-1.824Zm-1.529,2.649a2.064,2.064,0,0,0,2.048,2.272,3.053,3.053,0,0,0,1.527-.466l.326.729a3.577,3.577,0,0,1-1.974.576c-2.011,0-2.965-1.614-2.965-3.407,0-1.82,1.038-3.177,2.554-3.177,1.623,0,2.51,1.3,2.51,3.247v.227Z" transform="translate(-606.089 -1112.669)"/><path class="c" d="M1052.333,1181.162a3.432,3.432,0,0,1-1.86-.479l.373-.759a2.842,2.842,0,0,0,1.528.453c.771,0,1.33-.349,1.33-.928,0-1.54-2.858-1-2.858-3.177,0-.928.648-1.694,2.087-1.694a3.763,3.763,0,0,1,1.579.332v.852a3.716,3.716,0,0,0-1.54-.372c-.639,0-1.168.23-1.168.8,0,1.407,2.905,1.047,2.905,3.107,0,1.318-1.035,1.864-2.376,1.864Z" transform="translate(-942.142 -1112.669)"/><path class="c" d="M1105.166,1178.014l-1.179.036c-1.171.04-1.65.422-1.65,1.158a1.1,1.1,0,0,0,1.224,1.114,2.139,2.139,0,0,0,1.6-.715v-1.594Zm.31,3.018-.256-.618a2.652,2.652,0,0,1-1.923.748,1.874,1.874,0,0,1-1.93-1.927c0-1.235.865-2,2.521-2.05l1.279-.039v-.4a1.172,1.172,0,0,0-1.324-1.328,2.777,2.777,0,0,0-1.678.59l-.4-.708a3.612,3.612,0,0,1,2.177-.722,1.928,1.928,0,0,1,2.2,2.129v1.917a9.2,9.2,0,0,0,.13,2.409Z" transform="translate(-984.647 -1112.669)"/><path class="c" d="M1189.866,1181.894h-.9l-1.542-5.024h-.039l-1.571,5.024h-.888l-2.077-6.328h1.008l1.515,4.945h.046l1.527-4.945h.952l1.524,4.957h.036l1.484-4.957h.975l-2.046,6.328Z" transform="translate(-1052.696 -1113.495)"/><path class="c" d="M1246.136,1175.4c-1.188,0-1.861.958-1.861,2.452s.7,2.469,1.873,2.469,1.874-.984,1.874-2.469-.682-2.452-1.886-2.452Zm1.977,4.974a2.7,2.7,0,0,1-1.991.786,2.622,2.622,0,0,1-1.953-.776,3.983,3.983,0,0,1,0-5,2.673,2.673,0,0,1,1.967-.811,2.7,2.7,0,0,1,1.993.811,3.963,3.963,0,0,1-.016,4.988Z" transform="translate(-1103.177 -1112.669)"/><path class="c" d="M1290.369,1175.708a1.654,1.654,0,0,0-.573-.1,2.169,2.169,0,0,0-1.4.755v4.672h-.975v-6.292h.879l.056.718c.865-.785,1.34-.881,1.733-.881a1.254,1.254,0,0,1,.7.193l-.413.938Z" transform="translate(-1140.034 -1112.669)"/><path class="c" d="M687,1173.3a1.369,1.369,0,0,1-1.551-1.524v-4.1h-1.024v-.8h1.024V1165.5l.972-.337v1.714h1.769l-.345.8h-1.424v3.969c0,.553.188.816.832.816a2.446,2.446,0,0,0,.937-.21l.264.712a3.285,3.285,0,0,1-1.454.336Z" transform="translate(-636.428 -1104.811)"/><path class="c" d="M714.212,1173.3a1.371,1.371,0,0,1-1.552-1.524v-4.1h-1.022v-.8h1.022V1165.5l.973-.337v1.714H715.4l-.342.8h-1.424v3.969c0,.553.186.816.83.816a2.4,2.4,0,0,0,.936-.21l.273.712a3.345,3.345,0,0,1-1.459.336Z" transform="translate(-659.154 -1104.811)"/><path class="c" d="M1024.44,1173.3a1.369,1.369,0,0,1-1.551-1.524v-4.1h-1.025v-.8h1.025V1165.5l.969-.337v1.714h1.926l-.346.8h-1.58v3.969c0,.553.19.816.832.816a2.428,2.428,0,0,0,.935-.21l.269.712a3.292,3.292,0,0,1-1.454.336Z" transform="translate(-918.248 -1104.811)"/><path class="c" d="M1140.4,1173.3a1.37,1.37,0,0,1-1.551-1.524v-4.1h-1.022v-.8h1.022V1165.5l.972-.337v1.714h1.921l-.344.8h-1.577v3.969c0,.553.19.816.832.816a2.393,2.393,0,0,0,.936-.21l.269.712a3.308,3.308,0,0,1-1.457.336Z" transform="translate(-1015.096 -1104.811)"/><path class="c" d="M984.319,1159.77v-.969c0-.778.313-1.34,1.407-1.34a3.212,3.212,0,0,1,1.235.279l.246-.8a4.615,4.615,0,0,0-1.623-.293,1.951,1.951,0,0,0-2.233,2.1v1.025h-.792v.8h.792v5.484h.969v-5.484H986.7v5.484h.969v-6.283Z" transform="translate(-885.422 -1097.696)"/><path class="c" d="M1318.135,1166.026l-2.7-3.277h-.013v3.277h-.969v-9.416h.969v5.344h.013l2.319-2.219h1.257l-2.765,2.565,3.127,3.727Z" transform="translate(-1162.612 -1097.663)"/><path class="c" d="M1350.479,1207.055a.746.746,0,0,1,0-1.49.746.746,0,0,1,0,1.49Z" transform="translate(-1192.1 -1138.55)"/><path class="c" d="M841.367,954.448c13,0,15.927-8.47,15.927-14.286V923.038h-9.584v16.471c0,4.516-2.531,6.49-6.344,6.49s-6.351-1.973-6.351-6.49V923.038h-9.583v17.124c0,5.816,2.927,14.286,15.934,14.286" transform="translate(-754.193 -902.589)"/><path class="c" d="M409.145,954.448c13,0,15.93-8.47,15.93-14.286V923.038h-9.581v16.471c0,4.516-2.532,6.49-6.348,6.49s-6.354-1.973-6.354-6.49V923.038h-9.582v17.124c0,5.816,2.937,14.286,15.936,14.286" transform="translate(-393.209 -902.589)"/><path class="c" d="M625.248,915.818c-13,0-15.937,8.469-15.937,14.284v17.124H618.9V930.75c0-4.5,2.531-6.484,6.352-6.484s6.346,1.979,6.346,6.484v16.476h9.583V930.1c0-5.815-2.932-14.284-15.93-14.284" transform="translate(-573.693 -896.559)"/><path class="c" d="M1066.485,920.67c-.413-.552-2.857-4.852-10.7-4.852-7.986,0-14.277,4-14.277,13.653v17.755h9.369V929.453c0-3.112,1.59-5.5,5.458-5.5s5.462,2.384,5.462,5.5v17.773h9.37V929.453c0-3.112,1.585-5.5,5.458-5.5s5.462,2.384,5.462,5.5v17.773h9.363V929.471c0-9.656-6.291-13.653-14.275-13.653-7.83,0-10.281,4.3-10.69,4.852" transform="translate(-934.656 -896.559)"/><path class="d" d="M658.188,806.684a7.826,7.826,0,1,0,7.877-7.717,7.712,7.712,0,0,0-7.877,7.717" transform="translate(-614.514 -798.967)"/><path class="d" d="M874.252,806.684a7.827,7.827,0,1,0,7.883-7.717,7.716,7.716,0,0,0-7.883,7.717" transform="translate(-794.966 -798.967)"/><path class="d" d="M1145.218,806.684a7.827,7.827,0,1,0,7.883-7.717,7.716,7.716,0,0,0-7.883,7.717" transform="translate(-1021.271 -798.967)"/><path class="c" d="M1345.223,913.141a1.423,1.423,0,0,0-.373.055v1.368h.289c.513,0,.915-.188.915-.758,0-.534-.458-.665-.83-.665Zm.924,3.5-1.185-1.722h-.113v1.722h-.532V912.9a2.252,2.252,0,0,1,.952-.2c.785,0,1.335.442,1.335,1.107a1.068,1.068,0,0,1-1.073,1.075l1.26,1.762Zm-.747-4.719a2.832,2.832,0,1,0,2.811,2.845,2.829,2.829,0,0,0-2.811-2.845Zm0,6.152a3.315,3.315,0,1,1,3.305-3.306,3.3,3.3,0,0,1-3.305,3.306Z" transform="translate(-1185.698 -892.906)"/></g></g></g></g></g></g></svg>