<svg xmlns="http://www.w3.org/2000/svg" xmlns:xlink="http://www.w3.org/1999/xlink" width="310" height="112" viewBox="0 0 310 112"><defs><style>.a,.e{fill:none;}.b{fill:#5e88a1;}.c{fill:rgba(217,0,0,0.02);stroke:rgba(217,0,0,0.16);stroke-width:1px;}.d{fill:#d90000;}.e{stroke:#fff;stroke-width:4px;}.f{clip-path:url(#a);}.g{fill:#00538f;}.h{clip-path:url(#b);}.i{fill:#015294;}.j{clip-path:url(#c);}.k{stroke:none;}</style><clipPath id="a"><path class="a" d="M28.874,28.387H0V0H28.874V28.387Z"/></clipPath><clipPath id="b"><path class="a" d="M28.875,28.387H0V0H28.875Z"/></clipPath><clipPath id="c"><path class="b" d="M0,0H23.968V23.587H0V0Z"/></clipPath></defs><g transform="translate(-399 -1554)"><g transform="translate(399 1554)"><g class="c"><rect class="k" width="310" height="112" rx="8"/><rect class="a" x="1" y="1" width="308" height="110" rx="7"/></g><g transform="translate(259.642 11)"><rect class="d" width="40" height="40" rx="4"/><g transform="translate(7 7)"><g class="e"><circle class="k" cx="13.5" cy="13.5" r="13.5"/><circle class="a" cx="13.5" cy="13.5" r="11.5"/></g><path class="e" d="M0,0,17.68,14.76" transform="translate(3.82 5.74)"/></g></g></g><g transform="translate(478.186 1582.028)"><g transform="translate(64.557 28.115)"><path class="a" d="M28.874,28.387H0V0H28.874V28.387Z" transform="translate(0 0)"/><g class="f" transform="translate(0 0)"><path class="g" d="M14.439,28.387c11.779,0,14.435-7.657,14.435-12.912V0H20.188V14.886c0,4.082-2.292,5.866-5.75,5.866s-5.754-1.783-5.754-5.866V0H0V15.475C0,20.73,2.653,28.387,14.439,28.387"/></g></g><g transform="translate(0 28.115)"><path class="a" d="M28.875,28.387H0V0H28.875Z" transform="translate(0 0)"/><g class="h" transform="translate(0 0)"><path class="g" d="M14.44,28.387c11.781,0,14.435-7.657,14.435-12.912V0H20.191V14.886c0,4.082-2.294,5.866-5.751,5.866s-5.756-1.783-5.756-5.866V0H0V15.475C0,20.73,2.659,28.387,14.44,28.387"/></g></g><path class="i" d="M14.441,0C2.66,0,0,7.654,0,12.908V28.382H8.686V13.492c0-4.07,2.294-5.858,5.755-5.858s5.751,1.787,5.751,5.858v14.89h8.685V12.908C28.878,7.654,26.223,0,14.441,0" transform="translate(32.276 27.04)"/><path class="i" d="M22.632,4.385C22.258,3.885,20.042,0,12.939,0,5.7,0,0,3.608,0,12.335V28.383H8.49V12.322c0-2.814,1.438-4.969,4.946-4.969s4.948,2.155,4.948,4.969V28.383h8.493V12.322c0-2.814,1.437-4.969,4.947-4.969s4.947,2.155,4.947,4.969V28.383h8.49V12.335C45.261,3.608,39.558,0,32.322,0c-7.1,0-9.319,3.885-9.69,4.385" transform="translate(96.832 27.04)"/><path class="b" d="M0,6.976a6.981,6.981,0,0,0,7.139,6.981,6.923,6.923,0,0,0,7.043-6.981A6.92,6.92,0,0,0,7.139,0,6.978,6.978,0,0,0,0,6.976" transform="translate(39.576 9.631)"/><path class="b" d="M0,9.07a9.078,9.078,0,0,0,9.285,9.075,8.994,8.994,0,0,0,9.15-9.075A8.992,8.992,0,0,0,9.285,0,9.076,9.076,0,0,0,0,9.07" transform="translate(69.724 5.443)"/><g transform="translate(107.432 0)"><path class="a" d="M0,0H23.968V23.587H0V0Z" transform="translate(0 0)"/><g class="j" transform="translate(0 0)"><path class="b" d="M0,11.789a11.8,11.8,0,0,0,12.066,11.8,11.7,11.7,0,0,0,11.9-11.8A11.7,11.7,0,0,0,12.066,0,11.8,11.8,0,0,0,0,11.789" transform="translate(0 -0.001)"/></g></g></g></g></svg>