<svg xmlns="http://www.w3.org/2000/svg" width="213.89" height="82.241" viewBox="0 0 213.89 82.241"><defs><style>.a{fill:#015294;}.b{fill:#5e88a1;}.c{opacity:0.45;}.d,.f,.g,.i{fill:none;}.d{stroke:#0376bb;stroke-width:0.5px;}.e{fill:#2e2e2e;}.f,.g{stroke:#015294;}.f{stroke-dasharray:2;}.h{stroke:none;}</style></defs><g transform="translate(-349.781 -964.414)"><g transform="translate(483.335 1017.776)"><g transform="translate(-80.336 -25.776)"><path class="a" d="M48.381,40.331c12.888,0,15.681-8.377,15.681-14.177V9.4H54.61V25.725a5.585,5.585,0,0,1-6.229,6.444,5.585,5.585,0,0,1-6.229-6.444V9.4H32.7V26.369c0,5.8,2.792,14.177,15.681,14.177" transform="translate(37.54 11.006)"/><path class="a" d="M15.681,40.331c12.888,0,15.681-8.377,15.681-14.177V9.4H21.91V25.725a5.585,5.585,0,0,1-6.229,6.444,5.585,5.585,0,0,1-6.229-6.444V9.4H0V26.369c0,5.8,2.792,14.177,15.681,14.177" transform="translate(0 11.006)"/><path class="a" d="M31.981,8.8C19.092,8.8,16.3,17.177,16.3,22.977V39.946h9.451V23.621a5.585,5.585,0,0,1,6.229-6.444,5.585,5.585,0,0,1,6.229,6.444V39.946h9.666V22.977c0-5.8-2.792-14.177-15.681-14.177" transform="translate(18.713 10.317)"/><path class="a" d="M73.7,13.74c-.43-.644-2.792-4.726-10.525-4.726S49,12.881,49,22.332v17.4h9.236v-17.4a5.37,5.37,0,1,1,10.74,0V39.946h9.236V22.332a5.37,5.37,0,1,1,10.74,0V39.946H98.19V22.332C98.19,12.881,91.96,8.8,84.227,8.8s-10.1,4.3-10.525,4.726" transform="translate(56.253 10.317)"/><path class="b" d="M20,7.633A7.733,7.733,0,1,0,27.733-.1,7.733,7.733,0,0,0,20,7.633" transform="translate(22.96 0.1)"/><path class="b" d="M36.4,7.633A7.733,7.733,0,1,0,44.133-.1,7.733,7.733,0,0,0,36.4,7.633" transform="translate(41.788 0.1)"/><path class="b" d="M56.9,7.633A7.733,7.733,0,1,0,64.633-.1,7.733,7.733,0,0,0,56.9,7.633" transform="translate(65.322 0.1)"/><path class="a" d="M75.022,14.944a3.222,3.222,0,1,1,3.222-3.222A3.222,3.222,0,0,1,75.022,14.944Zm0-6.014a2.687,2.687,0,1,1-.215,0Zm.644,4.726-1.074-1.718h-.215v1.718h-.43V10h.859c.859,0,1.289.43,1.289,1.074a1.074,1.074,0,0,1-1.074,1.074l1.289,1.718Zm-.859-3.437h-.43v1.289h.215c.43,0,.859-.215.859-.644s-.43-.644-.859-.644Z" transform="translate(82.427 9.973)"/></g></g><g class="c" transform="translate(4 21)"><g class="d" transform="translate(430 967)"><rect class="h" width="4" height="58.155"/><rect class="i" x="0.25" y="0.25" width="3.5" height="57.655"/></g><g class="d" transform="translate(465 967)"><rect class="h" width="4" height="58.155"/><rect class="i" x="0.25" y="0.25" width="3.5" height="57.655"/></g><g class="d" transform="translate(500 967)"><rect class="h" width="4" height="58.155"/><rect class="i" x="0.25" y="0.25" width="3.5" height="57.655"/></g><g class="d" transform="translate(553 967)"><rect class="h" width="4" height="58.155"/><rect class="i" x="0.25" y="0.25" width="3.5" height="57.655"/></g><g class="d" transform="translate(395 967)"><rect class="h" width="4" height="58.155"/><rect class="i" x="0.25" y="0.25" width="3.5" height="57.655"/></g><g class="d" transform="translate(557 986) rotate(90)"><rect class="h" width="4" height="162"/><rect class="i" x="0.25" y="0.25" width="3.5" height="161.5"/></g><g class="d" transform="translate(557 967) rotate(90)"><rect class="h" width="4" height="162"/><rect class="i" x="0.25" y="0.25" width="3.5" height="161.5"/></g><g class="d" transform="translate(557 1021.155) rotate(90)"><rect class="h" width="4" height="162"/><rect class="i" x="0.25" y="0.25" width="3.5" height="161.5"/></g></g><path class="e" d="M8.289,0H.781V-1.117L3.789-4.141A22.149,22.149,0,0,0,5.6-6.125a5.064,5.064,0,0,0,.656-1.156,3.312,3.312,0,0,0,.219-1.211,1.92,1.92,0,0,0-.555-1.449,2.125,2.125,0,0,0-1.539-.535,3.87,3.87,0,0,0-1.348.234,5.372,5.372,0,0,0-1.418.852L.93-10.273a5.265,5.265,0,0,1,3.438-1.312,3.632,3.632,0,0,1,2.523.824A2.835,2.835,0,0,1,7.8-8.547,4.277,4.277,0,0,1,7.2-6.4,13.64,13.64,0,0,1,4.914-3.711l-2.5,2.445V-1.2H8.289Zm9.688-2.625h-1.7V0H15.039V-2.625H9.484V-3.758l5.422-7.727h1.375V-3.8h1.7ZM15.039-3.8V-7.6q0-1.117.078-2.523h-.062a11.739,11.739,0,0,1-.7,1.242L10.781-3.8ZM23.656.156a3.706,3.706,0,0,1-1.527-.309,2.872,2.872,0,0,1-1.16-.949h-.094A11.485,11.485,0,0,1,20.969.32V3.844h-1.3V-8.562h1.055l.18,1.172h.063a3.012,3.012,0,0,1,1.164-1.016,3.539,3.539,0,0,1,1.523-.312,3.165,3.165,0,0,1,2.629,1.164,5.125,5.125,0,0,1,.926,3.266,5.1,5.1,0,0,1-.941,3.277A3.17,3.17,0,0,1,23.656.156Zm-.187-7.773a2.3,2.3,0,0,0-1.9.727,3.739,3.739,0,0,0-.6,2.313v.289a4.285,4.285,0,0,0,.6,2.582A2.288,2.288,0,0,0,23.5-.93a2.007,2.007,0,0,0,1.738-.9A4.26,4.26,0,0,0,25.867-4.3a4.1,4.1,0,0,0-.629-2.457A2.069,2.069,0,0,0,23.469-7.617Zm7.75,3.234-2.977-4.18h1.477l2.258,3.281,2.25-3.281h1.461l-2.977,4.18L35.844,0H34.375l-2.4-3.469L29.555,0H28.086Z" transform="translate(349 976)"/><g transform="translate(1338 588.5) rotate(90)"><path class="f" d="M0,0H58.155" transform="translate(399.5 971.5)"/><line class="g" y1="6.417" transform="translate(399.5 968.292)"/><line class="g" y1="6.417" transform="translate(457.655 968.292)"/></g></g></svg>