<svg xmlns="http://www.w3.org/2000/svg" xmlns:xlink="http://www.w3.org/1999/xlink" width="310" height="112" viewBox="0 0 310 112"><defs><style>.a{fill:#015294;}.b{fill:#5e88a1;}.c{fill:rgba(217,0,0,0.02);stroke:rgba(217,0,0,0.16);stroke-width:1px;}.d{fill:#d90000;}.e,.f{fill:none;}.e{stroke:#fff;stroke-width:4px;}.g{clip-path:url(#a);}.h{clip-path:url(#b);}.i{clip-path:url(#c);}.j{stroke:none;}</style><clipPath id="a"><path class="a" d="M33.282,33.111H0V0H33.282V33.111Z"/></clipPath><clipPath id="b"><path class="a" d="M49.742,0V37.785H0V0H49.742Z"/></clipPath><clipPath id="c"><path class="b" d="M0,0H14.57V14.517H0V0Z"/></clipPath></defs><g transform="translate(-725.408 -1388)"><g transform="translate(725.408 1388)"><g class="c"><rect class="j" width="310" height="112" rx="8"/><rect class="f" x="1" y="1" width="308" height="110" rx="7"/></g><g transform="translate(259.642 11)"><rect class="d" width="40" height="40" rx="4"/><g transform="translate(7 7)"><g class="e"><circle class="j" cx="13.5" cy="13.5" r="13.5"/><circle class="f" cx="13.5" cy="13.5" r="11.5"/></g><path class="e" d="M0,0,17.68,14.76" transform="translate(3.82 5.74)"/></g></g></g><g transform="translate(810.749 1406.177)"><path class="a" d="M21.861,32.32C33.54,29.157,34.138,20.774,32.744,15.508L28.632,0,20.02,2.333l3.954,14.917c1.084,4.09-.716,6.492-4.143,7.419s-6.179-.241-7.263-4.333L8.61,5.421,0,7.752,4.112,23.26c1.4,5.267,6.06,12.222,17.748,9.06" transform="translate(64.016 25.771)"/><g transform="translate(0 43.104)"><path class="f" d="M33.282,33.111H0V0H33.282V33.111Z"/><g class="g"><path class="a" d="M21.862,32.317c11.682-3.164,12.279-11.545,10.884-16.811L28.633,0l-8.61,2.33,3.953,14.916c1.087,4.091-.714,6.493-4.143,7.422s-6.181-.241-7.267-4.332L8.61,5.42,0,7.751,4.112,23.259c1.4,5.265,6.066,12.221,17.75,9.058"/></g></g><path class="a" d="M11.426.794C-.258,3.957-.86,12.341.535,17.6l4.112,15.5,8.613-2.333L9.305,15.859c-1.081-4.077.717-6.485,4.15-7.415s6.177.249,7.258,4.326L24.67,27.688l8.612-2.331-4.111-15.5C27.775,4.587,23.109-2.368,11.426.794" transform="translate(34.613 36.441)"/><g transform="translate(98.415 14.435)"><path class="f" d="M49.742,0V37.785H0V0H49.742Z" transform="translate(0 0)"/><g class="h" transform="translate(0 0)"><path class="a" d="M20.927,7.665c-.5-.4-3.736-3.7-10.781-1.791C2.971,7.816-1.721,12.963.6,21.706L4.861,37.785l8.418-2.279L9.01,19.413c-.746-2.819.107-5.365,3.587-6.307s5.479.831,6.225,3.651l4.269,16.091,8.418-2.279L27.244,14.478c-.75-2.819.1-5.364,3.583-6.306S36.3,9,37.055,11.821l4.267,16.093,8.421-2.281L45.478,9.555C43.16.813,36.546-1.273,29.367.67c-7.037,1.906-8.206,6.395-8.44,6.995" transform="translate(0 0)"/></g></g><path class="b" d="M.251,9.169a7.155,7.155,0,0,0,8.934,5.078,7.187,7.187,0,0,0,5.129-8.886A7.1,7.1,0,0,0,5.476.264,7.244,7.244,0,0,0,.251,9.169" transform="translate(35.935 19.531)"/><path class="b" d="M9.187,14.248a7.185,7.185,0,0,0,5.127-8.885A7.1,7.1,0,0,0,5.478.264,7.249,7.249,0,0,0,.25,9.17,7.16,7.16,0,0,0,9.187,14.248Z" transform="translate(67.941 10.864)"/><g transform="translate(108.073 0)"><path class="f" d="M0,0H14.57V14.517H0V0Z" transform="translate(0 0)"/><g class="i" transform="translate(0 0)"><path class="b" d="M.251,9.17a7.158,7.158,0,0,0,8.936,5.078,7.188,7.188,0,0,0,5.127-8.886A7.1,7.1,0,0,0,5.476.265,7.244,7.244,0,0,0,.251,9.17" transform="translate(0 -0.001)"/></g></g></g></g></svg>