<svg xmlns="http://www.w3.org/2000/svg" width="218.202" height="82.311" viewBox="0 0 218.202 82.311"><defs><style>.a{fill:#015294;}.b{fill:#5e88a1;}.c{opacity:0.45;}.d,.e,.g,.i{fill:none;}.d{stroke:#0376bb;stroke-width:0.5px;}.e,.g{stroke:#015294;}.e{stroke-dasharray:2;}.f{fill:#2e2e2e;}.h{stroke:none;}</style></defs><g transform="translate(-345.469 -963.844)"><g transform="translate(483.335 1017.776)"><g transform="translate(-80.336 -25.776)"><path class="a" d="M48.381,40.331c12.888,0,15.681-8.377,15.681-14.177V9.4H54.61V25.725a5.585,5.585,0,0,1-6.229,6.444,5.585,5.585,0,0,1-6.229-6.444V9.4H32.7V26.369c0,5.8,2.792,14.177,15.681,14.177" transform="translate(37.54 11.006)"/><path class="a" d="M15.681,40.331c12.888,0,15.681-8.377,15.681-14.177V9.4H21.91V25.725a5.585,5.585,0,0,1-6.229,6.444,5.585,5.585,0,0,1-6.229-6.444V9.4H0V26.369c0,5.8,2.792,14.177,15.681,14.177" transform="translate(0 11.006)"/><path class="a" d="M31.981,8.8C19.092,8.8,16.3,17.177,16.3,22.977V39.946h9.451V23.621a5.585,5.585,0,0,1,6.229-6.444,5.585,5.585,0,0,1,6.229,6.444V39.946h9.666V22.977c0-5.8-2.792-14.177-15.681-14.177" transform="translate(18.713 10.317)"/><path class="a" d="M73.7,13.74c-.43-.644-2.792-4.726-10.525-4.726S49,12.881,49,22.332v17.4h9.236v-17.4a5.37,5.37,0,1,1,10.74,0V39.946h9.236V22.332a5.37,5.37,0,1,1,10.74,0V39.946H98.19V22.332C98.19,12.881,91.96,8.8,84.227,8.8s-10.1,4.3-10.525,4.726" transform="translate(56.253 10.317)"/><path class="b" d="M20,7.633A7.733,7.733,0,1,0,27.733-.1,7.733,7.733,0,0,0,20,7.633" transform="translate(22.96 0.1)"/><path class="b" d="M36.4,7.633A7.733,7.733,0,1,0,44.133-.1,7.733,7.733,0,0,0,36.4,7.633" transform="translate(41.788 0.1)"/><path class="b" d="M56.9,7.633A7.733,7.733,0,1,0,64.633-.1,7.733,7.733,0,0,0,56.9,7.633" transform="translate(65.322 0.1)"/><path class="a" d="M75.022,14.944a3.222,3.222,0,1,1,3.222-3.222A3.222,3.222,0,0,1,75.022,14.944Zm0-6.014a2.687,2.687,0,1,1-.215,0Zm.644,4.726-1.074-1.718h-.215v1.718h-.43V10h.859c.859,0,1.289.43,1.289,1.074a1.074,1.074,0,0,1-1.074,1.074l1.289,1.718Zm-.859-3.437h-.43v1.289h.215c.43,0,.859-.215.859-.644s-.43-.644-.859-.644Z" transform="translate(82.427 9.973)"/></g></g><g class="c" transform="translate(4 21)"><g class="d" transform="translate(430 967)"><rect class="h" width="4" height="58.155"/><rect class="i" x="0.25" y="0.25" width="3.5" height="57.655"/></g><g class="d" transform="translate(465 967)"><rect class="h" width="4" height="58.155"/><rect class="i" x="0.25" y="0.25" width="3.5" height="57.655"/></g><g class="d" transform="translate(500 967)"><rect class="h" width="4" height="58.155"/><rect class="i" x="0.25" y="0.25" width="3.5" height="57.655"/></g><g class="d" transform="translate(553 967)"><rect class="h" width="4" height="58.155"/><rect class="i" x="0.25" y="0.25" width="3.5" height="57.655"/></g><g class="d" transform="translate(395 967)"><rect class="h" width="4" height="58.155"/><rect class="i" x="0.25" y="0.25" width="3.5" height="57.655"/></g><g class="d" transform="translate(557 986) rotate(90)"><rect class="h" width="4" height="162"/><rect class="i" x="0.25" y="0.25" width="3.5" height="161.5"/></g><g class="d" transform="translate(557 967) rotate(90)"><rect class="h" width="4" height="162"/><rect class="i" x="0.25" y="0.25" width="3.5" height="161.5"/></g><g class="d" transform="translate(557 1021.155) rotate(90)"><rect class="h" width="4" height="162"/><rect class="i" x="0.25" y="0.25" width="3.5" height="161.5"/></g></g><path class="e" d="M0,0H162" transform="translate(399.5 971.5)"/><path class="f" d="M5.586,0H4.32V-8.141q0-1.016.063-1.922-.164.164-.367.344T2.156-8.2l-.687-.891,3.023-2.336H5.586ZM15.977,0h-1.3V-8.562h1.3ZM14.57-10.883a.861.861,0,0,1,.219-.652.764.764,0,0,1,.547-.207.764.764,0,0,1,.539.211.846.846,0,0,1,.227.648.859.859,0,0,1-.227.652.757.757,0,0,1-.539.215.749.749,0,0,1-.547-.215A.877.877,0,0,1,14.57-10.883ZM24.586,0V-5.539A2.235,2.235,0,0,0,24.109-7.1a1.941,1.941,0,0,0-1.492-.516,2.461,2.461,0,0,0-1.969.727,3.668,3.668,0,0,0-.625,2.4V0h-1.3V-8.562h1.055l.211,1.172h.063a2.648,2.648,0,0,1,1.117-.98,3.63,3.63,0,0,1,1.6-.348,3.252,3.252,0,0,1,2.328.746,3.175,3.175,0,0,1,.781,2.387V0Zm7.383.156A3.654,3.654,0,0,1,29.09-.988a4.707,4.707,0,0,1-1.02-3.238,4.853,4.853,0,0,1,1.035-3.32,3.727,3.727,0,0,1,2.949-1.172,5.852,5.852,0,0,1,1.234.133,4.066,4.066,0,0,1,.969.313l-.4,1.1a6.1,6.1,0,0,0-.937-.285,4.186,4.186,0,0,0-.9-.113q-2.609,0-2.609,3.328a3.963,3.963,0,0,0,.637,2.422,2.215,2.215,0,0,0,1.887.844,5.769,5.769,0,0,0,2.2-.461V-.289A4.679,4.679,0,0,1,31.969.156ZM42.023,0V-5.539A2.235,2.235,0,0,0,41.547-7.1a1.941,1.941,0,0,0-1.492-.516,2.445,2.445,0,0,0-1.973.734,3.72,3.72,0,0,0-.621,2.406V0h-1.3V-12.156h1.3v3.68a8.017,8.017,0,0,1-.062,1.1h.078a2.645,2.645,0,0,1,1.09-.973A3.543,3.543,0,0,1,40.18-8.7a3.3,3.3,0,0,1,2.355.746,3.142,3.142,0,0,1,.785,2.371V0Z" transform="translate(344 976)"/><line class="g" y1="6.417" transform="translate(399.5 968.292)"/><line class="g" y1="6.417" transform="translate(561.5 968.292)"/></g></svg>