<svg xmlns="http://www.w3.org/2000/svg" width="310" height="112" viewBox="0 0 310 112"><defs><style>.a{fill:rgba(217,0,0,0.02);}.b{fill:#d90000;}.c,.h{fill:none;}.c{stroke:#fff;stroke-width:4px;}.d{fill:#82c341;}.e{fill:#00aed9;}.f,.g{stroke:none;}.g{fill:rgba(217,0,0,0.16);}</style></defs><g transform="translate(-399 -1388)"><g transform="translate(399 1388)"><g class="a"><path class="f" d="M8,0H302a8,8,0,0,1,8,8v96a8,8,0,0,1-8,8H8a8,8,0,0,1-8-8V8A8,8,0,0,1,8,0Z"/><path class="g" d="M 8 2 C 4.69158935546875 2 2 4.691581726074219 2 8 L 2 104 C 2 107.3084182739258 4.69158935546875 110 8 110 L 302 110 C 305.3084106445312 110 308 107.3084182739258 308 104 L 308 8 C 308 4.691581726074219 305.3084106445312 2 302 2 L 8 2 M 8 0 L 302 0 C 306.4182434082031 0 310 3.581710815429688 310 8 L 310 104 C 310 108.4182891845703 306.4182434082031 112 302 112 L 8 112 C 3.581695556640625 112 0 108.4182891845703 0 104 L 0 8 C 0 3.581710815429688 3.581695556640625 0 8 0 Z"/></g><g transform="translate(259.642 11)"><rect class="b" width="40" height="40" rx="4"/><g transform="translate(7 7)"><g class="c"><circle class="f" cx="13.5" cy="13.5" r="13.5"/><circle class="h" cx="13.5" cy="13.5" r="11.5"/></g><path class="c" d="M0,0,17.68,14.76" transform="translate(3.82 5.74)"/></g></g></g><g transform="translate(475.311 1419.309)"><path class="d" d="M15.442,30.359c12.6,0,15.437-8.187,15.437-13.808V0H21.591V15.92c0,4.366-2.451,6.273-6.149,6.273S9.288,20.285,9.288,15.92V0H0V16.551c0,5.62,2.838,13.808,15.442,13.808" transform="translate(69.041 19.767)"/><path class="d" d="M15.443,30.359c12.6,0,15.437-8.187,15.437-13.808V0H21.594V15.92c0,4.366-2.453,6.273-6.15,6.273S9.287,20.285,9.287,15.92V0H0V16.551c0,5.62,2.843,13.808,15.443,13.808" transform="translate(0 19.767)"/><path class="d" d="M15.444,0C2.845,0,0,8.186,0,13.805v16.55H9.29V14.431c0-4.353,2.453-6.266,6.155-6.266s6.15,1.913,6.15,6.266V30.355h9.288V13.805C30.883,8.186,28.044,0,15.444,0" transform="translate(34.518 18.618)"/><path class="d" d="M24.2,4.69C23.8,4.156,21.434,0,13.837,0,6.1,0,0,3.86,0,13.193V30.355H9.08V13.178c0-3.01,1.538-5.315,5.289-5.315s5.292,2.3,5.292,5.315V30.355h9.083V13.178c0-3.01,1.537-5.315,5.291-5.315s5.291,2.3,5.291,5.315V30.355H48.4V13.193C48.4,3.86,42.306,0,34.567,0,26.976,0,24.6,4.156,24.2,4.69" transform="translate(103.558 18.618)"/><path class="e" d="M0,7.46a7.465,7.465,0,0,0,7.635,7.466A7.4,7.4,0,0,0,15.167,7.46,7.4,7.4,0,0,0,7.635,0,7.463,7.463,0,0,0,0,7.46" transform="translate(42.325 0)"/><path class="e" d="M0,7.46a7.467,7.467,0,0,0,7.638,7.466A7.4,7.4,0,0,0,15.167,7.46,7.4,7.4,0,0,0,7.638,0,7.465,7.465,0,0,0,0,7.46" transform="translate(76.843 0)"/><path class="e" d="M0,7.46a7.465,7.465,0,0,0,7.636,7.466A7.4,7.4,0,0,0,15.167,7.46,7.4,7.4,0,0,0,7.636,0,7.463,7.463,0,0,0,0,7.46" transform="translate(120.126 0)"/><path class="e" d="M1.9,3.719A1.868,1.868,0,0,1,0,1.848,1.879,1.879,0,0,1,1.9,0a1.86,1.86,0,1,1,0,3.719ZM1.9.372A1.439,1.439,0,0,0,.473,1.848a1.427,1.427,0,1,0,2.853.011A1.423,1.423,0,0,0,1.9.372ZM1.61,2.82H1.183V.969a3.777,3.777,0,0,1,.71-.055,1.167,1.167,0,0,1,.643.134.512.512,0,0,1,.18.406.475.475,0,0,1-.383.429V1.9a.544.544,0,0,1,.338.451,1.459,1.459,0,0,0,.134.46l-.461,0a.989.989,0,0,1-.114-.33c-.011-.038-.021-.079-.032-.121-.034-.206-.149-.294-.384-.294h-.2v.745Zm.248-1.6a1.047,1.047,0,0,0-.237.024v.53h.2c.272,0,.429-.1.429-.271S2.114,1.216,1.859,1.216Z" transform="translate(154.138 15.256)"/></g></g></svg>