<svg xmlns="http://www.w3.org/2000/svg" width="399.671" height="87.655" viewBox="0 0 399.671 87.655"><defs><style>.a,.c{fill:#015294;}.a,.g{font-size:16px;}.a{font-family:OpenSans-Semibold, Open Sans;font-weight:600;}.b{fill:#325772;font-size:13px;}.b,.g{font-family:OpenSans, Open Sans;}.d{fill:#5e88a1;}.e{opacity:0.45;}.f,.h,.i,.k{fill:none;}.f{stroke:#0376bb;stroke-width:0.5px;}.g{fill:#2e2e2e;}.h,.i{stroke:#015294;}.h{stroke-dasharray:2;}.j{stroke:none;}</style></defs><g transform="translate(-907 -949)"><text class="a" transform="translate(907 966)"><tspan x="0" y="0">Digital size usage</tspan></text><text class="b" transform="translate(907 979)"><tspan x="0" y="14">Minimum size for a </tspan><tspan x="0" y="32">digital logo should be </tspan><tspan x="0" y="50">24px tall.</tspan></text><g transform="translate(743 -10)"><g transform="translate(483.335 1017.776)"><g transform="translate(-80.336 -25.776)"><path class="c" d="M48.381,40.331c12.888,0,15.681-8.377,15.681-14.177V9.4H54.61V25.725a5.585,5.585,0,0,1-6.229,6.444,5.585,5.585,0,0,1-6.229-6.444V9.4H32.7V26.369c0,5.8,2.792,14.177,15.681,14.177" transform="translate(37.54 11.006)"/><path class="c" d="M15.681,40.331c12.888,0,15.681-8.377,15.681-14.177V9.4H21.91V25.725a5.585,5.585,0,0,1-6.229,6.444,5.585,5.585,0,0,1-6.229-6.444V9.4H0V26.369c0,5.8,2.792,14.177,15.681,14.177" transform="translate(0 11.006)"/><path class="c" d="M31.981,8.8C19.092,8.8,16.3,17.177,16.3,22.977V39.946h9.451V23.621a5.585,5.585,0,0,1,6.229-6.444,5.585,5.585,0,0,1,6.229,6.444V39.946h9.666V22.977c0-5.8-2.792-14.177-15.681-14.177" transform="translate(18.713 10.317)"/><path class="c" d="M73.7,13.74c-.43-.644-2.792-4.726-10.525-4.726S49,12.881,49,22.332v17.4h9.236v-17.4a5.37,5.37,0,1,1,10.74,0V39.946h9.236V22.332a5.37,5.37,0,1,1,10.74,0V39.946H98.19V22.332C98.19,12.881,91.96,8.8,84.227,8.8s-10.1,4.3-10.525,4.726" transform="translate(56.253 10.317)"/><path class="d" d="M20,7.633A7.733,7.733,0,1,0,27.733-.1,7.733,7.733,0,0,0,20,7.633" transform="translate(22.96 0.1)"/><path class="d" d="M36.4,7.633A7.733,7.733,0,1,0,44.133-.1,7.733,7.733,0,0,0,36.4,7.633" transform="translate(41.788 0.1)"/><path class="d" d="M56.9,7.633A7.733,7.733,0,1,0,64.633-.1,7.733,7.733,0,0,0,56.9,7.633" transform="translate(65.322 0.1)"/><path class="c" d="M75.022,14.944a3.222,3.222,0,1,1,3.222-3.222A3.222,3.222,0,0,1,75.022,14.944Zm0-6.014a2.687,2.687,0,1,1-.215,0Zm.644,4.726-1.074-1.718h-.215v1.718h-.43V10h.859c.859,0,1.289.43,1.289,1.074a1.074,1.074,0,0,1-1.074,1.074l1.289,1.718Zm-.859-3.437h-.43v1.289h.215c.43,0,.859-.215.859-.644s-.43-.644-.859-.644Z" transform="translate(82.427 9.973)"/></g></g><g class="e" transform="translate(4 21)"><g class="f" transform="translate(430 967)"><rect class="j" width="4" height="58.155"/><rect class="k" x="0.25" y="0.25" width="3.5" height="57.655"/></g><g class="f" transform="translate(465 967)"><rect class="j" width="4" height="58.155"/><rect class="k" x="0.25" y="0.25" width="3.5" height="57.655"/></g><g class="f" transform="translate(500 967)"><rect class="j" width="4" height="58.155"/><rect class="k" x="0.25" y="0.25" width="3.5" height="57.655"/></g><g class="f" transform="translate(553 967)"><rect class="j" width="4" height="58.155"/><rect class="k" x="0.25" y="0.25" width="3.5" height="57.655"/></g><g class="f" transform="translate(395 967)"><rect class="j" width="4" height="58.155"/><rect class="k" x="0.25" y="0.25" width="3.5" height="57.655"/></g><g class="f" transform="translate(557 986) rotate(90)"><rect class="j" width="4" height="162"/><rect class="k" x="0.25" y="0.25" width="3.5" height="161.5"/></g><g class="f" transform="translate(557 967) rotate(90)"><rect class="j" width="4" height="162"/><rect class="k" x="0.25" y="0.25" width="3.5" height="161.5"/></g><g class="f" transform="translate(557 1021.155) rotate(90)"><rect class="j" width="4" height="162"/><rect class="k" x="0.25" y="0.25" width="3.5" height="161.5"/></g></g><text class="g" transform="translate(349 976)"><tspan x="0" y="0">24px</tspan></text><g transform="translate(1338 588.5) rotate(90)"><line class="h" x2="58.155" transform="translate(399.5 971.5)"/><line class="i" y1="6.417" transform="translate(399.5 968.292)"/><line class="i" y1="6.417" transform="translate(457.655 968.292)"/></g></g></g></svg>