<svg xmlns="http://www.w3.org/2000/svg" xmlns:xlink="http://www.w3.org/1999/xlink" width="206.088" height="99.294" viewBox="0 0 206.088 99.294"><defs><style>.a{fill:none;}.b{fill:#fff;stroke:#dfe7ec;stroke-width:1px;}.c{fill:#dfe7ec;}.d{clip-path:url(#a);}.e{fill:#015294;}.f{fill:#5e88a1;}.g{stroke:none;}</style><clipPath id="a"><rect class="a" width="163.661" height="52.069"/></clipPath></defs><g transform="translate(0)"><g class="b" transform="translate(0.154 0.47)"><rect class="g" width="205.934" height="98.825" rx="8"/><rect class="a" x="1" y="1" width="203.934" height="96.825" rx="7"/></g><g transform="translate(0 0)"><g transform="translate(0 0)"><g transform="translate(80.85 0)"><path class="c" d="M20.7,11.46A7.877,7.877,0,1,0,28.578,3.8,7.658,7.658,0,0,0,20.7,11.46" transform="translate(1.301 3.856)"/><path class="c" d="M20.7.3a7.658,7.658,0,0,0,7.877,7.658A7.658,7.658,0,0,0,36.453.3H20.7" transform="translate(1.303 -0.3)"/></g><g transform="translate(181.383 47.257)"><path class="c" d="M91.2,21.9a7.877,7.877,0,1,0,7.658,7.877A7.658,7.658,0,0,0,91.2,21.9" transform="translate(-83.1 -21.899)"/><path class="c" d="M98.177,21.9a7.877,7.877,0,0,0,0,15.753V21.9" transform="translate(-74.546 -21.897)"/></g><g transform="translate(104.411 74.391)"><path class="c" d="M91.552,42.4a7.877,7.877,0,1,0-7.877,7.658A7.658,7.658,0,0,0,91.552,42.4" transform="translate(-75.799 -34.3)"/><path class="c" d="M91.553,49.377a7.877,7.877,0,1,0-15.753,0H91.553" transform="translate(-75.8 -25.746)"/></g><g transform="translate(0 47.26)"><path class="c" d="M11.46,37.652A7.877,7.877,0,1,0,3.8,29.775a7.658,7.658,0,0,0,7.658,7.877" transform="translate(4.075 -21.898)"/><path class="c" d="M.2,37.653a7.658,7.658,0,0,0,7.658-7.877A7.658,7.658,0,0,0,.2,21.9V37.653" transform="translate(-0.2 -21.9)"/></g><path class="c" d="M168.653,11.338v50.8H11.556v-50.8h157.1m.656-.438H10.9V62.572H169.309V10.9Z" transform="translate(12.511 12.257)"/></g><g transform="translate(23.979 23.431)"><g class="d"><path class="e" d="M846.176,313.938c13.049,0,15.991-8.5,15.991-14.343V282.4h-9.622v16.536c0,4.535-2.541,6.518-6.369,6.518s-6.376-1.983-6.376-6.518V282.4h-9.622v17.193c0,5.84,2.939,14.343,16,14.343" transform="translate(-758.653 -261.869)"/><path class="e" d="M409.209,313.938c13.054,0,15.993-8.5,15.993-14.343V282.4h-9.62v16.536c0,4.535-2.543,6.518-6.374,6.518s-6.38-1.983-6.38-6.518V282.4h-9.62v17.193c0,5.84,2.948,14.343,16,14.343" transform="translate(-393.209 -261.869)"/><path class="e" d="M627.679,275.1c-13.056,0-16,8.5-16,14.341v17.193H621.3V290.093c0-4.524,2.543-6.512,6.378-6.512s6.372,1.987,6.372,6.512v16.541h9.622V289.441c0-5.838-2.944-14.341-15.993-14.341" transform="translate(-575.917 -255.762)"/><path class="e" d="M1073.7,279.967c-.414-.554-2.87-4.872-10.742-4.872-8.017,0-14.334,4.014-14.334,13.708v17.828h9.407V288.786c0-3.123,1.6-5.518,5.478-5.518s5.485,2.395,5.485,5.518v17.845h9.407V288.786c0-3.123,1.591-5.518,5.478-5.518s5.485,2.395,5.485,5.518v17.845h9.4V288.8c0-9.694-6.317-13.708-14.332-13.708-7.862,0-10.322,4.318-10.734,4.872" transform="translate(-941.338 -255.758)"/><path class="f" d="M661.1,164.714A7.857,7.857,0,1,0,669,156.966a7.744,7.744,0,0,0-7.908,7.748" transform="translate(-617.248 -156.965)"/><path class="f" d="M879.531,164.714a7.858,7.858,0,1,0,7.915-7.748,7.748,7.748,0,0,0-7.915,7.748" transform="translate(-799.927 -156.965)"/><path class="f" d="M1153.47,164.714a7.858,7.858,0,1,0,7.915-7.748,7.748,7.748,0,0,0-7.915,7.748" transform="translate(-1029.027 -156.965)"/><path class="e" d="M1355.82,277.334a3.329,3.329,0,1,1,3.318-3.32,3.312,3.312,0,0,1-3.318,3.32m0-6.177a2.843,2.843,0,1,0,2.823,2.856,2.839,2.839,0,0,0-2.823-2.856m.751,4.737-1.191-1.729h-.112v1.729h-.536v-3.758a2.266,2.266,0,0,1,.956-.2c.788,0,1.34.444,1.34,1.112a1.07,1.07,0,0,1-1.077,1.079l1.266,1.769Zm-.928-3.515a1.488,1.488,0,0,0-.374.055v1.375h.289c.516,0,.919-.19.919-.762,0-.536-.46-.667-.834-.667" transform="translate(-1195.478 -252.063)"/></g></g></g></g></svg>