<?xml version="1.0" encoding="utf-8"?>
<!-- Generator: Adobe Illustrator 23.0.2, SVG Export Plug-In . SVG Version: 6.00 Build 0)  -->
<svg version="1.1" id="Layer_1" xmlns="http://www.w3.org/2000/svg" xmlns:xlink="http://www.w3.org/1999/xlink" x="0px" y="0px"
	 viewBox="0 0 200.9 101.5" style="enable-background:new 0 0 200.9 101.5;" xml:space="preserve">
<style type="text/css">
	.st0{fill:#C4CBD1;}
	.st1{fill:#19629D;}
	.st2{fill:#222222;}
	.st3{clip-path:url(#SVGID_2_);}
	.st4{clip-path:url(#SVGID_4_);fill:#015294;}
	.st5{clip-path:url(#SVGID_4_);fill:#5A7184;}
</style>
<g transform="translate(100.437 50.737)">
	<g transform="translate(-100.437 -50.737)">
		<path class="st0" d="M121.3,22.1v72h-2.8v-72h-0.7v72.4h4.2V22.1H121.3z"/>
		<path class="st0" d="M83.7,22.1v72h-3v-72h-0.5v72.4h3.9V22.1H83.7z"/>
		<path class="st0" d="M45.7,22.1v72h-2.8v-72h-0.5v72.4h3.9V22.1H45.7z"/>
		<path class="st0" d="M191.2,43.8H0v0.7h190.5v2.8H0V48h191.2V43.8z"/>
		<path class="st1" d="M121.8,101.5l-0.9-1.2l-0.9-1.1l0,0l-0.7,1.2l-0.9,1.1h-1.2l2.3-2.8l-2.1-2.5h1.2l0.9,1.2l0.7,0.9l0,0
			l0.7-0.9l0.9-1.2h1.2l-2.3,2.5l2.3,2.8H121.8z"/>
		<path class="st1" d="M199.7,50l-0.9-1.6l-0.9-1.4l0,0l-0.7,1.4l-0.9,1.6h-1.2l2.3-3.7l-2.1-3.5h1.2l0.9,1.6l0.7,1.2l0,0l0.7-1.2
			l0.9-1.6h1.2l-2.3,3.5l2.3,3.7H199.7z"/>
		<path class="st1" d="M83.9,101.5l-0.9-1.2l-0.9-1.1l0,0l-0.7,1.2l-0.9,1.1h-1.2l2.3-2.8l-2.1-2.5h1.2l0.9,1.2l0.7,0.9l0,0l0.7-0.9
			l0.9-1.2h1.2l-2.3,2.5l2.3,2.8H83.9z"/>
		<path class="st1" d="M46.1,101.5l-0.9-1.2l-0.9-1.1l0,0l-0.7,1.2l-0.9,1.1h-1.2l2.3-2.8l-2.1-2.5h1.2l0.9,1.2l0.7,0.9l0,0l0.7-0.9
			l0.9-1.2h1.2L45,98.7l2.3,2.8H46.1z"/>
		<path class="st2" d="M175,17.8H8.3v11.1h0.5V18.2h165.8v10.6h0.5V17.8z"/>
		<g id="RGB_2019_1_">
			<g>
				<defs>
					<rect id="SVGID_1_" x="8.8" y="27.7" width="172.5" height="54.9"/>
				</defs>
				<clipPath id="SVGID_2_">
					<use xlink:href="#SVGID_1_"  style="overflow:visible;"/>
				</clipPath>
				<g class="st3">
					<defs>
						<rect id="SVGID_3_" x="8.8" y="27.7" width="172.5" height="54.9"/>
					</defs>
					<clipPath id="SVGID_4_">
						<use xlink:href="#SVGID_3_"  style="overflow:visible;"/>
					</clipPath>
					<path class="st4" d="M101,82.6c13.8,0,16.9-9,16.9-15.1V49.3h-10.1v17.4c0,4.8-2.7,6.9-6.7,6.9c-4,0-6.7-2.1-6.7-6.9V49.3H84.2
						v18.1C84.2,73.6,87.3,82.6,101,82.6"/>
					<path class="st4" d="M25.6,82.6c13.8,0,16.9-9,16.9-15.1V49.3H32.3v17.4c0,4.8-2.7,6.9-6.7,6.9c-4,0-6.7-2.1-6.7-6.9V49.3H8.8
						v18.1C8.8,73.6,11.9,82.6,25.6,82.6"/>
					<path class="st4" d="M63.3,48.1c-13.8,0-16.9,9-16.9,15.1v18.1h10.1V63.9c0-4.8,2.7-6.9,6.7-6.9c4,0,6.7,2.1,6.7,6.9v17.4h10.1
						V63.2C80.2,57,77.1,48.1,63.3,48.1"/>
					<path class="st4" d="M148.3,53.2c-0.4-0.6-3-5.1-11.3-5.1c-8.5,0-15.1,4.2-15.1,14.4v18.8h9.9V62.5c0-3.3,1.7-5.8,5.8-5.8
						c4.1,0,5.8,2.5,5.8,5.8v18.8h9.9V62.5c0-3.3,1.7-5.8,5.8-5.8c4.1,0,5.8,2.5,5.8,5.8v18.8h9.9V62.5c0-10.2-6.7-14.4-15.1-14.4
						C151.3,48.1,148.7,52.6,148.3,53.2"/>
					<path class="st5" d="M55,35.8c0,4.6,3.7,8.2,8.3,8.2c4.6,0,8.2-3.6,8.2-8.2c0-4.6-3.6-8.2-8.2-8.2C58.7,27.7,55,31.2,55,35.8"
						/>
					<path class="st5" d="M92.7,35.8c0,4.6,3.7,8.2,8.3,8.2c4.6,0,8.2-3.6,8.2-8.2c0-4.6-3.6-8.2-8.2-8.2
						C96.4,27.7,92.7,31.2,92.7,35.8"/>
					<path class="st5" d="M139.9,35.8c0,4.6,3.7,8.2,8.3,8.2c4.6,0,8.2-3.6,8.2-8.2c0-4.6-3.6-8.2-8.2-8.2
						C143.6,27.7,139.9,31.2,139.9,35.8"/>
					<path class="st4" d="M177.8,54.3c-1.9,0-3.5-1.6-3.5-3.5s1.6-3.5,3.5-3.5c1.9,0,3.5,1.6,3.5,3.5S179.7,54.3,177.8,54.3
						 M177.8,47.8c-1.7,0-3,1.4-3,3c0,1.6,1.3,3,3,3c1.6,0,3-1.3,3-3C180.7,49.2,179.4,47.8,177.8,47.8 M178.6,52.8l-1.3-1.8h-0.1
						v1.8h-0.6v-4c0.3-0.1,0.6-0.2,1-0.2c0.8,0,1.4,0.5,1.4,1.2c0,0.7-0.5,1.1-1.1,1.1l1.3,1.9H178.6z M177.6,49.1
						c-0.1,0-0.3,0-0.4,0.1v1.4h0.3c0.5,0,1-0.2,1-0.8C178.5,49.2,178,49.1,177.6,49.1"/>
				</g>
			</g>
		</g>
		<g>
			<path d="M79.4,15.4h-1.3V7c0-0.7,0-1.4,0.1-2c-0.1,0.1-0.2,0.2-0.4,0.4C77.6,5.5,77,6,75.8,6.9L75.1,6l3.1-2.4h1.1V15.4z"/>
			<path d="M88.7,4.2c0-0.3,0.1-0.5,0.2-0.7c0.2-0.1,0.3-0.2,0.6-0.2c0.2,0,0.4,0.1,0.6,0.2c0.2,0.1,0.2,0.4,0.2,0.7
				c0,0.3-0.1,0.5-0.2,0.7C89.9,5,89.7,5,89.5,5C89.2,5,89,5,88.9,4.8C88.7,4.7,88.7,4.5,88.7,4.2z M90.1,15.4h-1.3V6.5h1.3V15.4z"
				/>
			<path d="M99,15.4V9.7c0-0.7-0.2-1.3-0.5-1.6c-0.3-0.4-0.8-0.5-1.5-0.5c-0.9,0-1.6,0.2-2,0.8c-0.4,0.5-0.6,1.3-0.6,2.5v4.6H93V6.5
				H94l0.2,1.2h0.1c0.3-0.4,0.7-0.8,1.2-1c0.5-0.2,1-0.4,1.7-0.4c1.1,0,1.9,0.3,2.4,0.8c0.5,0.5,0.8,1.3,0.8,2.5v5.8H99z"/>
			<path d="M106.6,15.6c-1.3,0-2.3-0.4-3-1.2c-0.7-0.8-1.1-1.9-1.1-3.3c0-1.5,0.4-2.6,1.1-3.4c0.7-0.8,1.7-1.2,3-1.2
				c0.4,0,0.9,0,1.3,0.1c0.4,0.1,0.8,0.2,1,0.3L108.6,8c-0.3-0.1-0.6-0.2-1-0.3c-0.4-0.1-0.7-0.1-0.9-0.1c-1.8,0-2.7,1.1-2.7,3.4
				c0,1.1,0.2,1.9,0.7,2.5c0.4,0.6,1.1,0.9,1.9,0.9c0.7,0,1.5-0.2,2.3-0.5v1.2C108.3,15.4,107.5,15.6,106.6,15.6z"/>
			<path d="M117,15.4V9.7c0-0.7-0.2-1.3-0.5-1.6c-0.3-0.4-0.8-0.5-1.5-0.5c-0.9,0-1.6,0.3-2,0.8c-0.4,0.5-0.6,1.3-0.6,2.5v4.6H111
				V2.8h1.3v3.8c0,0.5,0,0.8-0.1,1.1h0.1c0.3-0.4,0.6-0.8,1.1-1s1-0.4,1.7-0.4c1.1,0,1.9,0.3,2.4,0.8c0.5,0.5,0.8,1.3,0.8,2.5v5.8
				H117z"/>
		</g>
	</g>
</g>
</svg>
