<svg xmlns="http://www.w3.org/2000/svg" xmlns:xlink="http://www.w3.org/1999/xlink" width="179" height="98.427" viewBox="0 0 179 98.427"><defs><clipPath id="a"><rect width="176.24" height="56.07" fill="none"/></clipPath><clipPath id="b"><rect width="176.239" height="56.071" fill="none"/></clipPath></defs><g transform="translate(-441.5 -2529.684)"><path d="M5104.974,1997.646v-11.68h168.952v11.68" transform="translate(-4662 566.841)" fill="none" stroke="#707070" stroke-width="1"/><path d="M5.586,0H4.32V-8.141q0-1.016.063-1.922-.164.164-.367.344T2.156-8.2l-.687-.891,3.023-2.336H5.586ZM15.977,0h-1.3V-8.562h1.3ZM14.57-10.883a.861.861,0,0,1,.219-.652.764.764,0,0,1,.547-.207.764.764,0,0,1,.539.211.846.846,0,0,1,.227.648.859.859,0,0,1-.227.652.757.757,0,0,1-.539.215.749.749,0,0,1-.547-.215A.877.877,0,0,1,14.57-10.883ZM24.586,0V-5.539A2.235,2.235,0,0,0,24.109-7.1a1.941,1.941,0,0,0-1.492-.516,2.461,2.461,0,0,0-1.969.727,3.668,3.668,0,0,0-.625,2.4V0h-1.3V-8.562h1.055l.211,1.172h.063a2.648,2.648,0,0,1,1.117-.98,3.63,3.63,0,0,1,1.6-.348,3.252,3.252,0,0,1,2.328.746,3.175,3.175,0,0,1,.781,2.387V0Zm7.383.156A3.654,3.654,0,0,1,29.09-.988a4.707,4.707,0,0,1-1.02-3.238,4.853,4.853,0,0,1,1.035-3.32,3.727,3.727,0,0,1,2.949-1.172,5.852,5.852,0,0,1,1.234.133,4.066,4.066,0,0,1,.969.313l-.4,1.1a6.1,6.1,0,0,0-.937-.285,4.186,4.186,0,0,0-.9-.113q-2.609,0-2.609,3.328a3.963,3.963,0,0,0,.637,2.422,2.215,2.215,0,0,0,1.887.844,5.769,5.769,0,0,0,2.2-.461V-.289A4.679,4.679,0,0,1,31.969.156ZM42.023,0V-5.539A2.235,2.235,0,0,0,41.547-7.1a1.941,1.941,0,0,0-1.492-.516,2.445,2.445,0,0,0-1.973.734,3.72,3.72,0,0,0-.621,2.406V0h-1.3V-12.156h1.3v3.68a8.017,8.017,0,0,1-.062,1.1h.078a2.645,2.645,0,0,1,1.09-.973A3.543,3.543,0,0,1,40.18-8.7a3.3,3.3,0,0,1,2.355.746,3.142,3.142,0,0,1,.785,2.371V0Z" transform="translate(505 2541.841)" fill="#525252"/><g transform="translate(49.052 2402.987)"><g transform="translate(393.208 156.966)"><g transform="translate(0)" clip-path="url(#a)"><g transform="translate(0 -0.001)"><g clip-path="url(#b)"><path d="M847.405,316.362c14.052,0,17.22-9.157,17.22-15.445V282.4H854.264v17.807c0,4.884-2.736,7.019-6.859,7.019s-6.866-2.135-6.866-7.019V282.4H830.178v18.514c0,6.288,3.165,15.445,17.227,15.445" transform="translate(-753.155 -260.291)" fill="#015294"/><path d="M410.439,316.362c14.057,0,17.223-9.157,17.223-15.445V282.4H417.3v17.807c0,4.884-2.739,7.019-6.864,7.019s-6.87-2.135-6.87-7.019V282.4H393.209v18.514c0,6.288,3.175,15.445,17.23,15.445" transform="translate(-393.209 -260.291)" fill="#015294"/><path d="M628.909,275.1c-14.059,0-17.232,9.157-17.232,15.443v18.514h10.364V291.245c0-4.872,2.739-7.012,6.868-7.012s6.861,2.14,6.861,7.012v17.812h10.361V290.543c0-6.286-3.17-15.443-17.223-15.443" transform="translate(-573.168 -254.276)" fill="#015294"/><path d="M1075.623,280.342c-.445-.6-3.09-5.247-11.568-5.247-8.634,0-15.436,4.323-15.436,14.762v19.2h10.13V289.838c0-3.363,1.718-5.942,5.9-5.942s5.906,2.579,5.906,5.942v19.217h10.13V289.838c0-3.363,1.714-5.942,5.9-5.942s5.907,2.579,5.907,5.942v19.217h10.123v-19.2c0-10.439-6.8-14.762-15.434-14.762-8.466,0-11.116,4.65-11.559,5.247" transform="translate(-933.093 -254.272)" fill="#015294"/><path d="M661.1,165.31a8.461,8.461,0,1,0,8.516-8.344,8.339,8.339,0,0,0-8.516,8.344" transform="translate(-613.877 -156.965)" fill="#5e88a1"/><path d="M879.531,165.31a8.462,8.462,0,1,0,8.523-8.344,8.343,8.343,0,0,0-8.523,8.344" transform="translate(-793.809 -156.965)" fill="#5e88a1"/><path d="M1153.47,165.31a8.462,8.462,0,1,0,8.523-8.344,8.343,8.343,0,0,0-8.523,8.344" transform="translate(-1019.462 -156.965)" fill="#5e88a1"/><path d="M1356.075,277.846a3.585,3.585,0,1,1,3.573-3.576,3.566,3.566,0,0,1-3.573,3.576m0-6.652a3.062,3.062,0,1,0,3.041,3.076,3.057,3.057,0,0,0-3.041-3.076m.808,5.1-1.282-1.862h-.12V276.3h-.578v-4.047a2.442,2.442,0,0,1,1.03-.217c.849,0,1.443.479,1.443,1.2a1.152,1.152,0,0,1-1.16,1.162l1.363,1.9Zm-1-3.785a1.605,1.605,0,0,0-.4.059v1.48h.311c.556,0,.99-.205.99-.82,0-.577-.495-.719-.9-.719" transform="translate(-1183.41 -250.632)" fill="#015294"/></g></g></g></g></g><line y2="68.158" transform="translate(476.5 2559.953)" fill="none" stroke="#add9dc" stroke-width="0.5"/><line y2="68.158" transform="translate(515.5 2559.953)" fill="none" stroke="#add9dc" stroke-width="0.5"/><line y2="68.158" transform="translate(553.5 2559.953)" fill="none" stroke="#add9dc" stroke-width="0.5"/><line y2="68.158" transform="translate(480.5 2559.953)" fill="none" stroke="#add9dc" stroke-width="0.5"/><line y2="68.158" transform="translate(519.5 2559.953)" fill="none" stroke="#add9dc" stroke-width="0.5"/><line y2="68.158" transform="translate(557.5 2559.953)" fill="none" stroke="#add9dc" stroke-width="0.5"/><line x1="179" transform="translate(441.5 2577.023)" fill="none" stroke="#add9dc" stroke-width="0.5"/><line x1="179" transform="translate(441.5 2582.023)" fill="none" stroke="#add9dc" stroke-width="0.5"/></g></svg>