<?xml version="1.0" encoding="utf-8"?>
<!-- Generator: Adobe Illustrator 23.0.2, SVG Export Plug-In . SVG Version: 6.00 Build 0)  -->
<svg version="1.1" id="Layer_1" xmlns="http://www.w3.org/2000/svg" xmlns:xlink="http://www.w3.org/1999/xlink" x="0px" y="0px"
	 viewBox="0 0 348.3 167.9" style="enable-background:new 0 0 348.3 167.9;" xml:space="preserve">
<style type="text/css">
	.st0{fill:#C4CBD1;}
	.st1{fill:#E2E1E2;}
	.st2{clip-path:url(#SVGID_2_);}
	.st3{clip-path:url(#SVGID_4_);fill:#015294;}
	.st4{clip-path:url(#SVGID_4_);fill:#5A7184;}
</style>
<g transform="translate(174.146 83.93)">
	<g transform="translate(-174.146 -83.93)">
		<g transform="translate(76.53 1.109)">
			<path class="st0" d="M0,25.9c-0.2,7.3,5.6,13.5,12.9,13.7c7.3,0.2,13.5-5.6,13.7-12.9S21,13.1,13.7,12.9c-0.1,0-0.2,0-0.4,0
				C6.2,12.7,0.2,18.4,0,25.5C0,25.6,0,25.8,0,25.9"/>
			<path class="st0" d="M0,0c0,7.1,5.8,12.9,12.9,12.9c0.1,0,0.3,0,0.4,0c7.1,0.2,13.1-5.4,13.3-12.6c0-0.1,0-0.2,0-0.4H0"/>
		</g>
		<g transform="translate(307.252 80.967)">
			<path class="st0" d="M13.7,0C6.3-0.2,0.2,5.6,0,12.9c-0.2,7.3,5.6,13.5,12.9,13.7c7.3,0.2,13.5-5.6,13.7-12.9c0-0.1,0-0.2,0-0.4
				C26.8,6.2,21.2,0.2,14.1,0C13.9,0,13.8,0,13.7,0"/>
			<path class="st0" d="M39.9,0c-7.4,0.1-13.3,6.1-13.2,13.4c0.1,7.3,5.9,13.1,13.2,13.2V0"/>
		</g>
		<g transform="translate(280.261 126.82)">
			<path class="st0" d="M26.6,13.7C26.8,6.3,21,0.2,13.7,0S0.2,5.6,0,12.9s5.6,13.5,12.9,13.7c0.1,0,0.2,0,0.4,0
				c7.1,0.2,13.1-5.4,13.3-12.6C26.6,13.9,26.6,13.8,26.6,13.7"/>
			<path class="st0" d="M26.6,39.9c0.1-7.4-5.8-13.4-13.2-13.4S0.1,32.4,0,39.7c0,0.1,0,0.2,0,0.2H26.6"/>
		</g>
		<g transform="translate(0.739 80.973)">
			<path class="st0" d="M26.3,26.6c7.3,0.2,13.5-5.6,13.7-12.9C40.1,6.3,34.3,0.2,27,0S13.5,5.6,13.3,12.9c0,0.1,0,0.2,0,0.4
				c-0.2,7.1,5.4,13.1,12.6,13.3C26,26.6,26.1,26.6,26.3,26.6"/>
			<path class="st0" d="M0,26.6c7.1,0,12.9-5.8,12.9-12.9c0-0.1,0-0.2,0-0.4C13.1,6.2,7.5,0.2,0.4,0C0.3,0,0.1,0,0,0V26.6"/>
		</g>
		<path class="st0" d="M306.9,41v85.8H41.4V41H306.9 M308,40.3H40.3v87.3H308V40.3z"/>
		<path class="st1" d="M347.2,1.1v165.6H1.1V1.1H347.2 M348.3,0.4H0v167.5h348.3V0.4z"/>
		<g id="RGB_2019_1_">
			<g>
				<defs>
					<rect id="SVGID_1_" x="40.3" y="40.3" width="277.3" height="88.2"/>
				</defs>
				<clipPath id="SVGID_2_">
					<use xlink:href="#SVGID_1_"  style="overflow:visible;"/>
				</clipPath>
				<g class="st2">
					<defs>
						<rect id="SVGID_3_" x="40.3" y="40.3" width="277.3" height="88.2"/>
					</defs>
					<clipPath id="SVGID_4_">
						<use xlink:href="#SVGID_3_"  style="overflow:visible;"/>
					</clipPath>
					<path class="st3" d="M188.6,128.5c22.1,0,27.1-14.4,27.1-24.3V75.1h-16.3v28c0,7.7-4.3,11-10.8,11c-6.5,0-10.8-3.4-10.8-11v-28
						h-16.3v29.1C161.5,114.1,166.5,128.5,188.6,128.5"/>
					<path class="st3" d="M67.4,128.5c22.1,0,27.1-14.4,27.1-24.3V75.1H78.2v28c0,7.7-4.3,11-10.8,11c-6.5,0-10.8-3.4-10.8-11v-28
						H40.3v29.1C40.3,114.1,45.3,128.5,67.4,128.5"/>
					<path class="st3" d="M128,73.1c-22.1,0-27.1,14.4-27.1,24.3v29.1h16.3v-28c0-7.7,4.3-11,10.8-11c6.5,0,10.8,3.4,10.8,11v28
						h16.3V97.4C155.1,87.5,150.1,73.1,128,73.1"/>
					<path class="st3" d="M264.6,81.3c-0.7-0.9-4.9-8.3-18.2-8.3c-13.6,0-24.3,6.8-24.3,23.2v30.2H238V96.3c0-5.3,2.7-9.3,9.3-9.3
						c6.6,0,9.3,4.1,9.3,9.3v30.2h15.9V96.3c0-5.3,2.7-9.3,9.3-9.3c6.6,0,9.3,4.1,9.3,9.3v30.2H307V96.3c0-16.4-10.7-23.2-24.3-23.2
						C269.4,73.1,265.3,80.4,264.6,81.3"/>
					<path class="st4" d="M114.6,53.4c0,7.4,5.9,13.1,13.4,13.1c7.4,0,13.2-5.7,13.2-13.1c0-7.4-5.8-13.1-13.2-13.1
						C120.5,40.3,114.6,46,114.6,53.4"/>
					<path class="st4" d="M175.2,53.4c0,7.4,5.9,13.1,13.4,13.1c7.4,0,13.2-5.7,13.2-13.1c0-7.4-5.8-13.1-13.2-13.1
						C181.1,40.3,175.2,46,175.2,53.4"/>
					<path class="st4" d="M251.2,53.4c0,7.4,5.9,13.1,13.4,13.1c7.4,0,13.2-5.7,13.2-13.1c0-7.4-5.8-13.1-13.2-13.1
						C257.1,40.3,251.2,46,251.2,53.4"/>
					<path class="st3" d="M312,83.1c-3.1,0-5.6-2.5-5.6-5.6c0-3.1,2.5-5.7,5.6-5.7c3.1,0,5.6,2.5,5.6,5.7
						C317.6,80.6,315.1,83.1,312,83.1 M312,72.7c-2.7,0-4.8,2.2-4.8,4.8c0,2.6,2.1,4.8,4.8,4.8c2.7,0,4.8-2.2,4.8-4.8
						C316.8,74.8,314.6,72.7,312,72.7 M313.3,80.7l-2-2.9H311v2.9h-0.9v-6.4c0.4-0.2,1-0.3,1.6-0.3c1.3,0,2.3,0.8,2.3,1.9
						c0,1.1-0.8,1.7-1.8,1.8l2.1,3H313.3z M311.7,74.7c-0.2,0-0.5,0-0.6,0.1v2.3h0.5c0.9,0,1.6-0.3,1.6-1.3
						C313.1,74.9,312.3,74.7,311.7,74.7"/>
				</g>
			</g>
		</g>
	</g>
</g>
</svg>
