<svg xmlns="http://www.w3.org/2000/svg" width="387.755" height="192.76" viewBox="0 0 387.755 192.76"><g transform="translate(0 0)"><g transform="translate(0 0)" fill="none" stroke="#e7e7e8" stroke-width="1"><rect width="387.755" height="192.76" stroke="none"/><rect x="0.5" y="0.5" width="386.755" height="191.76" fill="none"/></g><g transform="translate(193.884 96.025)"><g transform="translate(-88.697 -38)"><path d="M118.89,209.162H116.5V199.6h2.49a2.379,2.379,0,0,1,2.656,2.39,2.158,2.158,0,0,1-1.295,2.092h0a2.258,2.258,0,0,1,1.859,2.258C122.244,207.635,121.48,209.162,118.89,209.162Zm-.1-8.566h-1.228v3.187h1.228a1.66,1.66,0,0,0,1.726-1.693c0-.93-.531-1.494-1.693-1.494Zm.266,4.15h-1.494v3.42h1.428c1.361,0,2.092-.764,2.092-1.793s-.8-1.627-1.992-1.627Z" transform="translate(-77.82 -133.329)" fill="#1a1818"/><path d="M211.721,208.426a1.793,1.793,0,0,0-.631-.1,2.281,2.281,0,0,0-1.527.83v5.08H208.5v-6.873h.963l.066.8a2.645,2.645,0,0,1,1.892-.963,1.328,1.328,0,0,1,.764.2Z" transform="translate(-139.275 -138.403)" fill="#1a1818"/><path d="M233.992,207.892a3.619,3.619,0,0,1-1.892-.432V197.5h1.062v3.553a4.249,4.249,0,0,1,1.56-.332c1.594,0,3.021,1.1,3.021,3.353A3.741,3.741,0,0,1,233.992,207.892Zm.564-6.175a2.888,2.888,0,0,0-1.394.332V206.8a2.546,2.546,0,0,0,3.519-2.656c0-1.594-.8-2.424-2.158-2.424Z" transform="translate(-155.04 -131.926)" fill="#1a1818"/><path d="M280.583,214.239v-4.217c0-.863-.133-1.826-1.2-1.826a2.983,2.983,0,0,0-2.125,1.062v4.98H276.2v-6.873h.963l.066.83a4.03,4.03,0,0,1,2.457-1c.963,0,1.959.7,1.959,2.424v4.615Z" transform="translate(-184.498 -138.406)" fill="#1a1818"/><path d="M299.229,211.052a2.27,2.27,0,0,0,2.224,2.49,3.321,3.321,0,0,0,1.66-.5l.365.8a3.951,3.951,0,0,1-2.158.631c-2.191,0-3.221-1.76-3.221-3.719s1.129-3.453,2.789-3.453,2.723,1.428,2.723,3.519v.232Zm1.66-2.889a1.8,1.8,0,0,0-1.66,1.992h3.22C302.449,209.193,301.918,208.163,300.889,208.163Z" transform="translate(-199.127 -138.473)" fill="#1a1818"/><path d="M255.229,211.052a2.27,2.27,0,0,0,2.225,2.49,3.287,3.287,0,0,0,1.66-.5l.365.8a3.885,3.885,0,0,1-2.158.631c-2.191,0-3.221-1.76-3.221-3.719s1.129-3.453,2.789-3.453,2.723,1.428,2.723,3.519v.232Zm1.66-2.889a1.779,1.779,0,0,0-1.66,1.992h3.221A1.76,1.76,0,0,0,256.889,208.163Z" transform="translate(-169.735 -138.473)" fill="#1a1818"/><path d="M187.529,211.052a2.27,2.27,0,0,0,2.224,2.49,3.32,3.32,0,0,0,1.66-.5l.365.8a3.951,3.951,0,0,1-2.158.631c-2.191,0-3.221-1.76-3.221-3.719s1.129-3.453,2.789-3.453,2.723,1.428,2.723,3.519v.232Zm1.66-2.889a1.8,1.8,0,0,0-1.66,1.992h3.221A1.738,1.738,0,0,0,189.189,208.163Z" transform="translate(-124.513 -138.473)" fill="#1a1818"/><path d="M138.829,211.052a2.27,2.27,0,0,0,2.225,2.49,3.32,3.32,0,0,0,1.66-.5l.365.8a3.885,3.885,0,0,1-2.158.631c-2.191,0-3.221-1.76-3.221-3.719s1.129-3.453,2.789-3.453,2.723,1.428,2.723,3.519v.232Zm1.66-2.889a1.779,1.779,0,0,0-1.66,1.992h3.221A1.738,1.738,0,0,0,140.489,208.163Z" transform="translate(-91.982 -138.473)" fill="#1a1818"/><path d="M357.125,214.371a3.752,3.752,0,0,1-2.025-.531l.4-.83a3.088,3.088,0,0,0,1.66.5c.83,0,1.461-.365,1.461-1,0-1.693-3.121-1.1-3.121-3.453,0-1,.7-1.859,2.258-1.859a4.116,4.116,0,0,1,1.726.365v.93a4.051,4.051,0,0,0-1.693-.4c-.7,0-1.262.266-1.262.863,0,1.527,3.154,1.129,3.154,3.387C359.715,213.774,358.586,214.371,357.125,214.371Z" transform="translate(-237.202 -138.406)" fill="#1a1818"/><path d="M387.147,214.372l-.266-.664a2.889,2.889,0,0,1-2.092.83,2.025,2.025,0,0,1-2.092-2.092c0-1.328.93-2.158,2.756-2.224h1.394v-.432a1.276,1.276,0,0,0-1.428-1.461,3.021,3.021,0,0,0-1.826.631l-.432-.764a3.951,3.951,0,0,1,2.357-.8,2.1,2.1,0,0,1,2.391,2.324v2.092a11.654,11.654,0,0,0,.133,2.623Zm-.332-3.287H385.52c-1.262.033-1.793.465-1.793,1.262s.432,1.228,1.328,1.228a2.324,2.324,0,0,0,1.76-.764Z" transform="translate(-255.636 -138.539)" fill="#1a1818"/><path d="M434.336,214.673h-1l-1.693-5.478h-.033l-1.693,5.478h-.963L426.7,207.8h1.1l1.66,5.379h.066l1.66-5.379h1.029l1.66,5.412h.033l1.627-5.412h1.062Z" transform="translate(-285.03 -138.807)" fill="#1a1818"/><path d="M464.557,213.507a2.922,2.922,0,0,1-2.158.863,2.855,2.855,0,0,1-2.125-.83,4.349,4.349,0,0,1,0-5.445,3.006,3.006,0,0,1,4.283,0,4.316,4.316,0,0,1-.033,5.445ZM462.4,208.1c-1.295,0-2.025,1.029-2.025,2.656s.764,2.689,2.025,2.689,2.025-1.062,2.025-2.689S463.727,208.1,462.4,208.1Z" transform="translate(-306.817 -138.405)" fill="#1a1818"/><path d="M486.32,208.426a1.792,1.792,0,0,0-.631-.1,2.281,2.281,0,0,0-1.527.83v5.08H483.1v-6.873h.963l.066.8a2.645,2.645,0,0,1,1.892-.963,1.362,1.362,0,0,1,.764.2Z" transform="translate(-322.704 -138.404)" fill="#1a1818"/><path d="M160.122,211.032a1.5,1.5,0,0,1-1.693-1.66v-4.449H157.3v-.863h1.129v-1.494l1.062-.365v1.859h1.926l-.365.863h-1.56v4.316c0,.6.2.9.9.9a2.656,2.656,0,0,0,1.029-.232l.3.764A3.586,3.586,0,0,1,160.122,211.032Z" transform="translate(-105.074 -135.066)" fill="#1a1818"/><path d="M174.822,211.032a1.5,1.5,0,0,1-1.693-1.66v-4.449H172v-.863h1.1v-1.494l1.062-.365v1.859h1.926l-.365.863h-1.56v4.316c0,.6.2.9.9.9a2.623,2.623,0,0,0,1.029-.232l.3.764A3.652,3.652,0,0,1,174.822,211.032Z" transform="translate(-114.894 -135.066)" fill="#1a1818"/><path d="M342.422,211.032a1.5,1.5,0,0,1-1.693-1.66v-4.449H339.6v-.863h1.129v-1.494l1.062-.365v1.859h2.092l-.365.863h-1.726v4.316c0,.6.2.9.9.9a2.656,2.656,0,0,0,1.029-.232l.3.764A3.586,3.586,0,0,1,342.422,211.032Z" transform="translate(-226.848 -135.066)" fill="#1a1818"/><path d="M405.189,211.032a1.5,1.5,0,0,1-1.693-1.66v-4.449h-1.1v-.863h1.1v-1.494l1.063-.365v1.859h2.092l-.365.863h-1.726v4.316c0,.6.2.9.9.9a2.624,2.624,0,0,0,1.029-.232l.3.764A3.586,3.586,0,0,1,405.189,211.032Z" transform="translate(-268.798 -135.066)" fill="#1a1818"/><path d="M320.326,200.92v-1.062c0-.863.332-1.461,1.527-1.461a3.486,3.486,0,0,1,1.328.3l.266-.863a5.013,5.013,0,0,0-1.76-.332,2.12,2.12,0,0,0-2.424,2.291v1.129H318.4v.863h.863v5.976h1.062v-5.976h2.59v5.976h1.062V200.92Z" transform="translate(-212.687 -131.926)" fill="#1a1818"/><path d="M518.363,225.527a.813.813,0,1,1,.813-.813A.813.813,0,0,1,518.363,225.527Z" transform="translate(-345.717 -149.561)" fill="#1a1818"/><g transform="translate(165.276 65.574)"><path d="M501.784,207.759l-2.922-3.586h0v3.553H497.8V197.5h1.062v5.81h0l2.523-2.424h1.361l-3.021,2.789,3.42,4.051Z" transform="translate(-497.8 -197.5)" fill="#1a1818"/><path d="M517.563,225.527a.813.813,0,1,1,.813-.813A.813.813,0,0,1,517.563,225.527Z" transform="translate(-510.458 -215.135)" fill="#1a1818"/></g><path d="M250.864,101.2c14.144,0,17.331-9.23,17.331-15.538V67H257.77V84.929c0,4.914-2.756,7.072-6.906,7.072s-6.906-2.158-6.906-7.072V67H233.5V85.626c0,6.341,3.187,15.538,17.331,15.538" transform="translate(-155.975 -44.754)" fill="#1a1818"/><path d="M17.331,101.2c14.144,0,17.331-9.23,17.331-15.538V67H24.27V84.929c0,4.914-2.756,7.072-6.906,7.072s-6.939-2.158-6.939-7.072V67H0V85.626C0,91.967,3.187,101.2,17.331,101.2" transform="translate(0 -44.754)" fill="#1a1818"/><path d="M134.131,63.1c-14.144,0-17.331,9.23-17.331,15.538V97.264h10.425V79.335c0-4.914,2.756-7.072,6.906-7.072s6.906,2.158,6.906,7.072V97.264h10.425V78.671c0-6.341-3.187-15.538-17.331-15.538" transform="translate(-78.021 -42.149)" fill="#1a1818"/><path d="M377.492,68.379c-.465-.6-3.121-5.279-11.654-5.279S350.3,67.449,350.3,77.974V97.3h10.193V77.941c0-3.387,1.726-5.976,5.943-5.976s5.943,2.59,5.943,5.976V97.3h10.193V77.941c0-3.387,1.726-5.976,5.943-5.976s5.943,2.59,5.943,5.976V97.3h10.193V77.974c0-10.525-6.839-14.874-15.538-14.874s-11.189,4.681-11.62,5.279" transform="translate(-233.996 -42.149)" fill="#1a1818"/><path d="M143.2,8.4a8.516,8.516,0,0,0,17.032,0,8.517,8.517,0,0,0-17.032,0" transform="translate(-95.656 0.003)" fill="#1a1818"/><path d="M259.9,8.4a8.516,8.516,0,0,0,17.032,0,8.5,8.5,0,0,0-17,0" transform="translate(-173.61 0.002)" fill="#1a1818"/><path d="M406.3,8.4a8.516,8.516,0,0,0,17.032,0,8.5,8.5,0,0,0-17,0" transform="translate(-271.403 0.002)" fill="#1a1818"/><path d="M516.152,67.938a3.619,3.619,0,1,1,3.586-3.586A3.619,3.619,0,0,1,516.152,67.938Zm0-6.707a3.088,3.088,0,1,0,3.055,3.088,3.088,3.088,0,0,0-3.055-3.088Zm.83,5.146-1.295-1.859h-.133v1.859h-.564V62.294a2.457,2.457,0,0,1,1.029-.232c.863,0,1.461.465,1.461,1.2a1.163,1.163,0,0,1-1.162,1.2l1.361,1.926Zm-1-3.818-.4.066V64.12h.3c.564,0,1-.2,1-.83S516.385,62.559,515.986,62.559Z" transform="translate(-342.343 -40.546)" fill="#1a1818"/></g></g></g></svg>