<svg xmlns="http://www.w3.org/2000/svg" width="387.604" height="193.475" viewBox="0 0 387.604 193.475"><g transform="translate(0 0)" fill="#015294" stroke="#e7e7e8" stroke-width="1"><rect width="387.604" height="193.475" stroke="none"/><rect x="0.5" y="0.5" width="386.604" height="192.475" fill="none"/></g><g transform="translate(193.728 96.826)"><g transform="translate(-85.708 -27.5)"><path d="M49.429,42.4c13.75,0,16.729-8.937,16.729-15.125V9.4H56.075V26.817a5.958,5.958,0,0,1-6.646,6.875,5.958,5.958,0,0,1-6.646-6.875V9.4H32.7V27.5c0,6.187,2.979,15.125,16.729,15.125" transform="translate(42.237 12.371)" fill="#fff"/><path d="M16.729,42.4c13.75,0,16.729-8.937,16.729-15.125V9.4H23.375V26.817a5.958,5.958,0,0,1-6.646,6.875,5.958,5.958,0,0,1-6.646-6.875V9.4H0V27.5c0,6.187,2.979,15.125,16.729,15.125" transform="translate(0 12.371)" fill="#fff"/><path d="M33.029,8.8C19.279,8.8,16.3,17.738,16.3,23.925v18.1H26.383V24.613a5.958,5.958,0,0,1,6.646-6.875,5.958,5.958,0,0,1,6.646,6.875V42.029H49.988v-18.1c0-6.187-2.979-15.125-16.729-15.125" transform="translate(21.054 11.596)" fill="#fff"/><path d="M75.354,14.071c-.458-.688-2.979-5.042-11.229-5.042S49,13.154,49,23.237V41.8h9.854V23.237a5.729,5.729,0,1,1,11.458,0V42.029h9.854V23.237a5.729,5.729,0,1,1,11.458,0V42.029h9.854V23.237c0-10.083-6.646-14.438-14.9-14.438s-10.771,4.583-11.229,5.042" transform="translate(63.292 11.596)" fill="#fff"/><path d="M20,8.15A8.25,8.25,0,1,0,28.25-.1,8.25,8.25,0,0,0,20,8.15" transform="translate(25.833 0.1)" fill="#fff"/><path d="M36.4,8.15A8.25,8.25,0,1,0,44.65-.1,8.25,8.25,0,0,0,36.4,8.15" transform="translate(47.017 0.1)" fill="#fff"/><path d="M56.9,8.15A8.25,8.25,0,1,0,65.15-.1,8.25,8.25,0,0,0,56.9,8.15" transform="translate(73.496 0.1)" fill="#fff"/><path d="M75.238,15.375a3.437,3.437,0,1,1,3.438-3.437A3.437,3.437,0,0,1,75.238,15.375Zm0-6.417a2.867,2.867,0,1,1-.229,0ZM75.925,14l-1.146-1.833H74.55V14h-.458V10.1h.917c.917,0,1.375.458,1.375,1.146A1.146,1.146,0,0,1,75.238,12.4l1.375,1.833Zm-.917-3.667H74.55v1.375h.229c.458,0,.917-.229.917-.688s-.458-.687-.917-.687Z" transform="translate(92.742 11.208)" fill="#fff"/></g></g></svg>