<svg xmlns="http://www.w3.org/2000/svg" xmlns:xlink="http://www.w3.org/1999/xlink" width="243.719" height="68.158" viewBox="0 0 243.719 68.158"><defs><clipPath id="a"><rect width="176.24" height="56.07" fill="none"/></clipPath><clipPath id="b"><rect width="176.239" height="56.071" fill="none"/></clipPath></defs><g transform="translate(-427.781 -2732.953)"><path d="M5104.974,1997.646v-11.68H5159.8v11.68" transform="translate(-1511.357 7894.42) rotate(-90)" fill="none" stroke="#707070" stroke-width="1"/><path d="M8.289,0H.781V-1.117L3.789-4.141A22.149,22.149,0,0,0,5.6-6.125a5.064,5.064,0,0,0,.656-1.156,3.312,3.312,0,0,0,.219-1.211,1.92,1.92,0,0,0-.555-1.449,2.125,2.125,0,0,0-1.539-.535,3.87,3.87,0,0,0-1.348.234,5.372,5.372,0,0,0-1.418.852L.93-10.273a5.265,5.265,0,0,1,3.438-1.312,3.632,3.632,0,0,1,2.523.824A2.835,2.835,0,0,1,7.8-8.547,4.277,4.277,0,0,1,7.2-6.4,13.64,13.64,0,0,1,4.914-3.711l-2.5,2.445V-1.2H8.289Zm9.688-2.625h-1.7V0H15.039V-2.625H9.484V-3.758l5.422-7.727h1.375V-3.8h1.7ZM15.039-3.8V-7.6q0-1.117.078-2.523h-.062a11.739,11.739,0,0,1-.7,1.242L10.781-3.8ZM23.656.156a3.706,3.706,0,0,1-1.527-.309,2.872,2.872,0,0,1-1.16-.949h-.094A11.485,11.485,0,0,1,20.969.32V3.844h-1.3V-8.562h1.055l.18,1.172h.063a3.012,3.012,0,0,1,1.164-1.016,3.539,3.539,0,0,1,1.523-.312,3.165,3.165,0,0,1,2.629,1.164,5.125,5.125,0,0,1,.926,3.266,5.1,5.1,0,0,1-.941,3.277A3.17,3.17,0,0,1,23.656.156Zm-.187-7.773a2.3,2.3,0,0,0-1.9.727,3.739,3.739,0,0,0-.6,2.313v.289a4.285,4.285,0,0,0,.6,2.582A2.288,2.288,0,0,0,23.5-.93a2.007,2.007,0,0,0,1.738-.9A4.26,4.26,0,0,0,25.867-4.3a4.1,4.1,0,0,0-.629-2.457A2.069,2.069,0,0,0,23.469-7.617Zm7.75,3.234-2.977-4.18h1.477l2.258,3.281,2.25-3.281h1.461l-2.977,4.18L35.844,0H34.375l-2.4-3.469L29.555,0H28.086Z" transform="translate(427 2767.841)" fill="#525252"/><g transform="translate(100.052 2575.987)"><g transform="translate(393.208 156.966)"><g transform="translate(0)" clip-path="url(#a)"><g transform="translate(0 -0.001)"><g clip-path="url(#b)"><path d="M847.405,316.362c14.052,0,17.22-9.157,17.22-15.445V282.4H854.264v17.807c0,4.884-2.736,7.019-6.859,7.019s-6.866-2.135-6.866-7.019V282.4H830.178v18.514c0,6.288,3.165,15.445,17.227,15.445" transform="translate(-753.155 -260.291)" fill="#015294"/><path d="M410.439,316.362c14.057,0,17.223-9.157,17.223-15.445V282.4H417.3v17.807c0,4.884-2.739,7.019-6.864,7.019s-6.87-2.135-6.87-7.019V282.4H393.209v18.514c0,6.288,3.175,15.445,17.23,15.445" transform="translate(-393.209 -260.291)" fill="#015294"/><path d="M628.909,275.1c-14.059,0-17.232,9.157-17.232,15.443v18.514h10.364V291.245c0-4.872,2.739-7.012,6.868-7.012s6.861,2.14,6.861,7.012v17.812h10.361V290.543c0-6.286-3.17-15.443-17.223-15.443" transform="translate(-573.168 -254.276)" fill="#015294"/><path d="M1075.623,280.342c-.445-.6-3.09-5.247-11.568-5.247-8.634,0-15.436,4.323-15.436,14.762v19.2h10.13V289.838c0-3.363,1.718-5.942,5.9-5.942s5.906,2.579,5.906,5.942v19.217h10.13V289.838c0-3.363,1.714-5.942,5.9-5.942s5.907,2.579,5.907,5.942v19.217h10.123v-19.2c0-10.439-6.8-14.762-15.434-14.762-8.466,0-11.116,4.65-11.559,5.247" transform="translate(-933.093 -254.272)" fill="#015294"/><path d="M661.1,165.31a8.461,8.461,0,1,0,8.516-8.344,8.339,8.339,0,0,0-8.516,8.344" transform="translate(-613.877 -156.965)" fill="#5e88a1"/><path d="M879.531,165.31a8.462,8.462,0,1,0,8.523-8.344,8.343,8.343,0,0,0-8.523,8.344" transform="translate(-793.809 -156.965)" fill="#5e88a1"/><path d="M1153.47,165.31a8.462,8.462,0,1,0,8.523-8.344,8.343,8.343,0,0,0-8.523,8.344" transform="translate(-1019.462 -156.965)" fill="#5e88a1"/><path d="M1356.075,277.846a3.585,3.585,0,1,1,3.573-3.576,3.566,3.566,0,0,1-3.573,3.576m0-6.652a3.062,3.062,0,1,0,3.041,3.076,3.057,3.057,0,0,0-3.041-3.076m.808,5.1-1.282-1.862h-.12V276.3h-.578v-4.047a2.442,2.442,0,0,1,1.03-.217c.849,0,1.443.479,1.443,1.2a1.152,1.152,0,0,1-1.16,1.162l1.363,1.9Zm-1-3.785a1.605,1.605,0,0,0-.4.059v1.48h.311c.556,0,.99-.205.99-.82,0-.577-.495-.719-.9-.719" transform="translate(-1183.41 -250.632)" fill="#015294"/></g></g></g></g></g><line y2="68.158" transform="translate(527.5 2732.953)" fill="none" stroke="#add9dc" stroke-width="0.5"/><line y2="68.158" transform="translate(566.5 2732.953)" fill="none" stroke="#add9dc" stroke-width="0.5"/><line y2="68.158" transform="translate(604.5 2732.953)" fill="none" stroke="#add9dc" stroke-width="0.5"/><line y2="68.158" transform="translate(531.5 2732.953)" fill="none" stroke="#add9dc" stroke-width="0.5"/><line y2="68.158" transform="translate(570.5 2732.953)" fill="none" stroke="#add9dc" stroke-width="0.5"/><line y2="68.158" transform="translate(608.5 2732.953)" fill="none" stroke="#add9dc" stroke-width="0.5"/><line x1="179" transform="translate(492.5 2750.023)" fill="none" stroke="#add9dc" stroke-width="0.5"/><line x1="179" transform="translate(492.5 2755.023)" fill="none" stroke="#add9dc" stroke-width="0.5"/></g></svg>