<svg xmlns="http://www.w3.org/2000/svg" width="243.898" height="79.302" viewBox="0 0 243.898 79.302"><g transform="translate(-432 -2383.859)"><g transform="translate(553.949 2423.51)"><g transform="translate(-121.949 -39.651)"><g transform="translate(0 23.974)"><path d="M7.607,22.158H0V21l3-3,1.844-2.075.692-1.153a3.227,3.227,0,0,0,.231-1.153A1.844,1.844,0,0,0,5.3,12.245l-1.614-.461H2.305l-1.383.922-.692-.922A5.3,5.3,0,0,1,3.688,10.4a3.688,3.688,0,0,1,2.536.922,2.766,2.766,0,0,1,.922,2.305A4.38,4.38,0,0,1,6.455,15.7L4.15,18.469,1.614,21H7.607Z" transform="translate(0 -10.399)" fill="#1a1818"/><path d="M12.33,19.491H10.485v2.536H9.333V19.491H3.8V18.338L9.333,10.5h1.383v7.607H12.33Zm-3-1.153V11.883h0l-.692,1.153-3.688,5.3Z" transform="translate(4.96 -10.268)" fill="#1a1818"/><path d="M12.119,20.56H10.736L9.583,19.177h0a11.526,11.526,0,0,1,0,1.383v3.458H8.2V11.8H9.353v1.153h0l1.153-.922h1.614a3.227,3.227,0,0,1,2.536,1.153,5.072,5.072,0,0,1,.922,3.227,5.072,5.072,0,0,1-.922,3.227A3.227,3.227,0,0,1,12.119,20.56Zm-.231-7.838a2.305,2.305,0,0,0-1.844.692,3.688,3.688,0,0,0-.692,2.305h0a4.38,4.38,0,0,0,.692,3,2.305,2.305,0,0,0,1.844.692,2.075,2.075,0,0,0,1.844-.922,4.38,4.38,0,0,0,.692-2.536,4.149,4.149,0,0,0-.692-2.536,2.075,2.075,0,0,0-1.614-.692Z" transform="translate(10.703 -8.571)" fill="#1a1818"/><path d="M15.227,15.95l-3-4.15h1.383l2.305,3.227L18.224,11.8h1.383l-3,4.15,3.227,4.38H18.455l-2.305-3.458L13.614,20.33H12Z" transform="translate(15.663 -8.571)" fill="#1a1818"/></g><path d="M73.258,0V71.925H70.492V0H69.8V72.386H73.95V0Z" transform="translate(91.108)" fill="#e2e1e2"/><path d="M56.958,0V71.925h-3V0H53.5V72.386h3.919V0Z" transform="translate(69.832)" fill="#e2e1e2"/><path d="M40.327,0V71.925H37.561V0H37.1V72.386h3.919V0Z" transform="translate(48.426)" fill="#e2e1e2"/><path d="M209.808,9.4H18.7v.461H209.347v3H18.7v.461H209.808V9.4Z" transform="translate(24.409 12.27)" fill="#e2e1e2"/><path d="M74.111,37.533l-.922-1.153-.922-1.153h0l-.692,1.153-.922,1.153H69.5l2.305-2.766L69.731,32h.922l.922,1.153.692.922h0l.692-.922L73.88,32h1.153l-2.305,2.536L75.033,37.3Z" transform="translate(90.717 41.769)" fill="#19629d"/><path d="M107.911,16.146l-.922-1.614-.922-1.383h0l-.692,1.383-.922,1.614H103.3l2.305-3.688L103.531,9h1.153l.922,1.614.692,1.153h0l.692-1.153L107.911,9h1.153l-2.305,3.458,2.305,3.688Z" transform="translate(134.835 11.748)" fill="#19629d"/><path d="M57.711,37.533l-.922-1.153-.922-1.153h0l-.692,1.153-.922,1.153H53.1l2.305-2.766L53.331,32h1.153l.922,1.153.692.922h0l.692-.922L57.711,32h1.153l-2.305,2.536L58.863,37.3Z" transform="translate(69.31 41.769)" fill="#19629d"/><path d="M41.311,37.533l-.922-1.153-.922-1.153h0l-.692,1.153-.922,1.153H36.7l2.305-2.766L36.931,32h1.153l.922,1.153.692.922h0l.692-.922L41.311,32h1.153l-2.305,2.536L42.463,37.3Z" transform="translate(47.904 41.769)" fill="#19629d"/><g transform="translate(51.869 5.299)"><path d="M72.029,44.9c13.832,0,16.829-8.991,16.829-15.215V11.7H78.714V29.22a6.685,6.685,0,1,1-13.371,0V11.7H55.2V29.912c0,6.224,3,15.215,16.829,15.215" transform="translate(20.183 9.973)" fill="#004383"/><path d="M39.329,44.9c13.832,0,16.829-8.991,16.829-15.215V11.7H46.014V29.22a5.994,5.994,0,0,1-6.685,6.916,5.994,5.994,0,0,1-6.685-6.916V11.7H22.5V29.912c0,6.224,3,15.215,16.829,15.215" transform="translate(-22.5 9.973)" fill="#004383"/><path d="M55.729,11.1C41.9,11.1,38.9,20.091,38.9,26.315V44.527H49.043V27.006a5.994,5.994,0,0,1,6.685-6.916,5.994,5.994,0,0,1,6.685,6.916v17.52H72.557V26.315c0-6.224-3-15.215-16.829-15.215" transform="translate(-1.093 9.19)" fill="#004383"/><path d="M97.88,16.172c-.461-.692-3-5.072-11.3-5.072S71.6,15.25,71.6,25.623V44.3h9.913V25.623a5.763,5.763,0,0,1,11.526,0v18.9h9.913v-18.9a5.763,5.763,0,0,1,11.526,0v18.9h9.913v-18.9c0-10.143-6.685-14.523-14.984-14.523s-10.835,4.611-11.3,5.072" transform="translate(41.589 9.19)" fill="#004383"/><path d="M42.5,10.37A8.3,8.3,0,1,0,50.8,2.3a8.068,8.068,0,0,0-8.3,8.068" transform="translate(3.604 -2.299)" fill="#465f72"/><path d="M58.9,10.37A8.3,8.3,0,1,0,67.2,2.3a8.068,8.068,0,0,0-8.3,8.068" transform="translate(25.01 -2.299)" fill="#465f72"/><path d="M79.4,10.37A8.3,8.3,0,1,0,87.7,2.3a8.068,8.068,0,0,0-8.3,8.068" transform="translate(51.769 -2.299)" fill="#465f72"/><path d="M97.758,17.716a3.458,3.458,0,1,1,3.458-3.458,3.458,3.458,0,0,1-3.458,3.458Zm0-6.455a3,3,0,1,0,3,3,3,3,0,0,0-3-3Zm.692,5.072L97.3,14.488h-.231v1.844h-.461v-4.15h.922c.922,0,1.383.461,1.383,1.153a1.153,1.153,0,0,1-1.153,1.153l1.383,1.844Zm-.922-3.688h-.461v1.383H97.3c.461,0,.922-.231.922-.692s-.461-.692-.922-.692Z" transform="translate(71.219 8.798)" fill="#004383"/></g><path d="M16.7,2.031h0v55.1H27.765v-.461h-10.6V2.261h10.6V1.8H16.7Z" transform="translate(21.798 2.35)" fill="#222"/></g></g></g></svg>