<svg xmlns="http://www.w3.org/2000/svg" width="294.336" height="167.791" viewBox="0 0 294.336 167.791"><g transform="translate(-807.497 -3077.008)"><g transform="translate(954.665 3160.903)"><g transform="translate(-147.168 -83.895)"><g transform="translate(66.549 0.937)"><path d="M21.3,14.739A11.249,11.249,0,1,0,32.551,3.8,10.936,10.936,0,0,0,21.3,14.739" transform="translate(-21.299 7.133)" fill="#c4cbd1"/><path d="M21.3.3A10.936,10.936,0,0,0,32.549,11.236,10.936,10.936,0,0,0,43.485.3H21.3" transform="translate(-21.296 -0.3)" fill="#c4cbd1"/></g><g transform="translate(259.653 78.11)"><path d="M94.661,25A11.249,11.249,0,1,0,105.6,36.251,10.936,10.936,0,0,0,94.661,25" transform="translate(-83.1 -24.999)" fill="#c4cbd1"/><path d="M101.549,25a11.249,11.249,0,0,0,0,22.5V25" transform="translate(-67.803 -24.996)" fill="#c4cbd1"/></g><g transform="translate(241.218 133.42)"><path d="M99.694,54.261A11.249,11.249,0,1,0,88.446,65.2,10.936,10.936,0,0,0,99.694,54.261" transform="translate(-77.197 -42.7)" fill="#c4cbd1"/><path d="M99.7,61.149a11.249,11.249,0,1,0-22.5,0H99.7" transform="translate(-77.2 -27.403)" fill="#c4cbd1"/></g><g transform="translate(0.625 77.806)"><path d="M14.739,47.394A11.249,11.249,0,1,0,3.8,36.146,10.936,10.936,0,0,0,14.739,47.394" transform="translate(7.445 -24.901)" fill="#c4cbd1"/><path d="M.2,47.185A10.936,10.936,0,0,0,11.136,35.936,10.936,10.936,0,0,0,.2,25V47.5" transform="translate(-0.2 -24.692)" fill="#c4cbd1"/></g><path d="M236.183,11.525V109.95H11.837V11.525H236.183m.937-.625H10.9v99.674H237.12Z" transform="translate(23.158 23.158)" fill="#c4cbd1"/><path d="M293.4.937V167.166H.937V.937H293.4m.937-.625H0V167.791H294.336V.312Z" fill="#e2e1e2"/><g transform="translate(-1073.502 -2996.01)"><g transform="translate(1108.974 3031.267)"><path d="M612.291,1167.29h-1.977v4.5h1.86c1.768,0,2.738-1.014,2.738-2.345,0-1.195-1.027-2.151-2.62-2.151Zm-.347-5.452h-1.63v4.187h1.61a2.174,2.174,0,0,0,2.265-2.245c0-1.2-.726-1.942-2.245-1.942Zm.119,11.241h-3.14v-12.535h3.292c2.371,0,3.477,1.495,3.477,3.126a2.827,2.827,0,0,1-1.694,2.754v.038a2.943,2.943,0,0,1,2.433,2.945c0,1.688-1.006,3.672-4.369,3.672Z" transform="translate(-558.093 -1075.343)" fill="#005393"/><path d="M783.329,1176.193a2.372,2.372,0,0,0-.82-.146,3.129,3.129,0,0,0-2.012,1.079v6.679h-1.389v-9h1.265l.067,1.027c1.237-1.123,1.917-1.26,2.493-1.26a1.755,1.755,0,0,1,.988.275l-.59,1.341Z" transform="translate(-688.175 -1086.07)" fill="#005393"/><path d="M825.875,1162.141a3.8,3.8,0,0,0-1.846.452v6.218a3.506,3.506,0,0,0,1.424.246,3.468,3.468,0,0,0,3.176-3.743c0-1.86-.971-3.173-2.754-3.173Zm-.725,8.116a4.745,4.745,0,0,1-2.506-.571V1156.61h1.385v4.652a5.573,5.573,0,0,1,2.038-.419c2.073,0,3.954,1.432,3.954,4.415a4.739,4.739,0,0,1-4.87,5Z" transform="translate(-721.453 -1072.336)" fill="#005393"/><path d="M910.212,1183.805v-5.538c0-1.117-.19-2.379-1.56-2.379a4.616,4.616,0,0,0-2.788,1.375v6.541H904.47v-9h1.26l.078,1.079a5.118,5.118,0,0,1,3.21-1.312c1.286,0,2.584.938,2.584,3.177v6.051Z" transform="translate(-783.998 -1086.07)" fill="#005393"/><path d="M948.574,1175.756a2.341,2.341,0,0,0-2.164,2.607h4.229c0-1.251-.7-2.607-2.065-2.607Zm-2.187,3.786a2.952,2.952,0,0,0,2.925,3.249,4.354,4.354,0,0,0,2.189-.666l.47,1.042a5.173,5.173,0,0,1-2.831.823c-2.862,0-4.234-2.307-4.234-4.871,0-2.6,1.481-4.543,3.645-4.543,2.321,0,3.591,1.855,3.591,4.642v.324Z" transform="translate(-814.906 -1086.07)" fill="#005393"/><path d="M867.14,1175.756a2.338,2.338,0,0,0-2.164,2.607h4.238c0-1.251-.7-2.607-2.074-2.607Zm-2.185,3.786a2.949,2.949,0,0,0,2.923,3.249,4.316,4.316,0,0,0,2.184-.666l.472,1.042a5.128,5.128,0,0,1-2.828.823c-2.869,0-4.234-2.307-4.234-4.871,0-2.6,1.482-4.543,3.646-4.543,2.322,0,3.6,1.855,3.6,4.642v.324Z" transform="translate(-752.662 -1086.07)" fill="#005393"/><path d="M741.926,1175.756a2.345,2.345,0,0,0-2.17,2.607H744c0-1.251-.711-2.607-2.071-2.607Zm-2.185,3.786a2.948,2.948,0,0,0,2.928,3.249,4.364,4.364,0,0,0,2.182-.666l.472,1.042a5.178,5.178,0,0,1-2.826.823c-2.869,0-4.238-2.307-4.238-4.871,0-2.6,1.482-4.543,3.646-4.543,2.315,0,3.593,1.855,3.593,4.642v.324Z" transform="translate(-656.952 -1086.07)" fill="#005393"/><path d="M651.77,1175.756a2.34,2.34,0,0,0-2.167,2.607h4.237c0-1.251-.7-2.607-2.07-2.607Zm-2.185,3.786a2.95,2.95,0,0,0,2.928,3.249,4.365,4.365,0,0,0,2.184-.666l.466,1.042a5.112,5.112,0,0,1-2.822.823c-2.875,0-4.24-2.307-4.24-4.871,0-2.6,1.484-4.543,3.651-4.543,2.321,0,3.588,1.855,3.588,4.642v.324Z" transform="translate(-588.039 -1086.07)" fill="#005393"/><path d="M1053.132,1183.991a4.908,4.908,0,0,1-2.659-.685l.533-1.085a4.061,4.061,0,0,0,2.184.647c1.1,0,1.9-.5,1.9-1.327,0-2.2-4.086-1.432-4.086-4.543,0-1.327.927-2.421,2.983-2.421a5.378,5.378,0,0,1,2.258.475v1.217a5.316,5.316,0,0,0-2.2-.533c-.913,0-1.669.328-1.669,1.147,0,2.012,4.153,1.5,4.153,4.442,0,1.884-1.479,2.665-3.4,2.665Z" transform="translate(-895.597 -1086.07)" fill="#005393"/><path d="M1106.8,1179.491l-1.685.052c-1.674.057-2.359.6-2.359,1.656a1.568,1.568,0,0,0,1.75,1.593,3.058,3.058,0,0,0,2.294-1.022v-2.278Zm.443,4.314-.367-.884a3.792,3.792,0,0,1-2.75,1.07,2.68,2.68,0,0,1-2.759-2.754c0-1.766,1.237-2.855,3.6-2.931l1.828-.056v-.571a1.675,1.675,0,0,0-1.893-1.9,3.971,3.971,0,0,0-2.4.844l-.57-1.013a5.167,5.167,0,0,1,3.112-1.032c1.75,0,3.144.741,3.144,3.044v2.741a13.161,13.161,0,0,0,.186,3.444Z" transform="translate(-934.498 -1086.07)" fill="#005393"/><path d="M1192.883,1184.612h-1.294l-2.2-7.183h-.056l-2.246,7.183h-1.269l-2.969-9.047h1.441l2.166,7.069h.065l2.184-7.069h1.361l2.179,7.087h.052l2.122-7.087h1.394l-2.925,9.047Z" transform="translate(-996.778 -1086.825)" fill="#005393"/><path d="M1247.36,1175.756c-1.7,0-2.66,1.37-2.66,3.506s1,3.529,2.678,3.529,2.678-1.407,2.678-3.529-.975-3.506-2.7-3.506Zm2.826,7.112a3.86,3.86,0,0,1-2.846,1.123,3.748,3.748,0,0,1-2.792-1.109,5.694,5.694,0,0,1,0-7.145,3.822,3.822,0,0,1,2.812-1.16,3.862,3.862,0,0,1,2.849,1.16,5.667,5.667,0,0,1-.023,7.131Z" transform="translate(-1042.978 -1086.07)" fill="#005393"/><path d="M1291.638,1176.193a2.364,2.364,0,0,0-.819-.146,3.1,3.1,0,0,0-2.007,1.079v6.679h-1.394v-9h1.257l.08,1.027c1.236-1.123,1.916-1.26,2.478-1.26a1.794,1.794,0,0,1,1,.275l-.591,1.341Z" transform="translate(-1076.71 -1086.07)" fill="#005393"/><path d="M688.108,1176.8a1.957,1.957,0,0,1-2.217-2.179v-5.86h-1.464v-1.141h1.464v-1.969l1.389-.481v2.45h2.529l-.493,1.141h-2.036v5.675c0,.79.269,1.166,1.19,1.166a3.5,3.5,0,0,0,1.339-.3l.378,1.018a4.7,4.7,0,0,1-2.079.481Z" transform="translate(-615.805 -1078.877)" fill="#005393"/><path d="M715.317,1176.8a1.96,1.96,0,0,1-2.219-2.179v-5.86h-1.461v-1.141H713.1v-1.969l1.391-.481v2.45h2.525l-.489,1.141h-2.036v5.675c0,.79.267,1.166,1.187,1.166a3.437,3.437,0,0,0,1.338-.3l.39,1.018a4.778,4.778,0,0,1-2.086.481Z" transform="translate(-636.604 -1078.877)" fill="#005393"/><path d="M1025.547,1176.8a1.958,1.958,0,0,1-2.217-2.179v-5.86h-1.465v-1.141h1.465v-1.969l1.385-.481v2.45h2.753l-.495,1.141h-2.258v5.675c0,.79.271,1.166,1.189,1.166a3.478,3.478,0,0,0,1.338-.3l.385,1.018a4.7,4.7,0,0,1-2.079.481Z" transform="translate(-873.73 -1078.877)" fill="#005393"/><path d="M1141.5,1176.8a1.958,1.958,0,0,1-2.217-2.179v-5.86h-1.461v-1.141h1.461v-1.969l1.389-.481v2.45h2.746l-.492,1.141h-2.254v5.675c0,.79.271,1.166,1.189,1.166a3.427,3.427,0,0,0,1.338-.3l.385,1.018a4.724,4.724,0,0,1-2.083.481Z" transform="translate(-962.365 -1078.877)" fill="#005393"/><path d="M985.076,1161.111v-1.385c0-1.113.447-1.916,2.012-1.916a4.59,4.59,0,0,1,1.765.4l.352-1.141a6.6,6.6,0,0,0-2.32-.418c-1.918,0-3.193.918-3.193,3v1.465h-1.132v1.142h1.132v7.84h1.385v-7.84h3.41v7.84h1.385v-8.982Z" transform="translate(-843.686 -1072.366)" fill="#005393"/><path d="M1319.718,1170.072l-3.863-4.686h-.018v4.686h-1.385V1156.61h1.385v7.64h.018l3.316-3.173h1.8l-3.953,3.667,4.471,5.328Z" transform="translate(-1097.374 -1072.336)" fill="#005393"/><path d="M1350.787,1207.7a1.066,1.066,0,0,1,0-2.131,1.066,1.066,0,0,1,0,2.131Z" transform="translate(-1124.362 -1109.755)" fill="#005393"/><path d="M848.213,967.943c18.583,0,22.771-12.109,22.771-20.424V923.038h-13.7v23.548c0,6.457-3.619,9.278-9.07,9.278s-9.079-2.821-9.079-9.278V923.038h-13.7v24.481c0,8.315,4.185,20.424,22.78,20.424" transform="translate(-723.585 -893.802)" fill="#005393"/><path d="M415.992,967.943c18.587,0,22.774-12.109,22.774-20.424V923.038h-13.7v23.548c0,6.457-3.62,9.278-9.076,9.278s-9.084-2.821-9.084-9.278V923.038h-13.7v24.481c0,8.315,4.2,20.424,22.783,20.424" transform="translate(-393.209 -893.802)" fill="#005393"/><path d="M632.1,915.818c-18.591,0-22.785,12.107-22.785,20.421v24.482h13.7V937.166c0-6.44,3.619-9.269,9.081-9.269s9.073,2.829,9.073,9.269v23.555h13.7V936.239c0-8.314-4.191-20.421-22.774-20.421" transform="translate(-558.389 -888.284)" fill="#005393"/><path d="M1077.216,922.754c-.59-.79-4.085-6.936-15.3-6.936-11.418,0-20.41,5.714-20.41,19.519v25.384H1054.9V935.312c0-4.45,2.274-7.858,7.8-7.858s7.808,3.409,7.808,7.858v25.409h13.4V935.312c0-4.45,2.266-7.858,7.8-7.858s7.809,3.409,7.809,7.858v25.409h13.386V935.337c0-13.8-8.994-19.519-20.408-19.519-11.194,0-14.7,6.147-15.284,6.936" transform="translate(-888.746 -888.284)" fill="#005393"/><path d="M658.188,810a11.188,11.188,0,1,0,11.261-11.033A11.026,11.026,0,0,0,658.188,810" transform="translate(-595.749 -798.967)" fill="#5e88a1"/><path d="M874.252,810a11.19,11.19,0,1,0,11.27-11.033A11.032,11.032,0,0,0,874.252,810" transform="translate(-760.901 -798.967)" fill="#5e88a1"/><path d="M1145.218,810a11.19,11.19,0,1,0,11.27-11.033A11.032,11.032,0,0,0,1145.218,810" transform="translate(-968.017 -798.967)" fill="#5e88a1"/><path d="M1346.568,913.869a2.032,2.032,0,0,0-.534.079V915.9h.414c.733,0,1.307-.269,1.307-1.083,0-.764-.655-.951-1.187-.951Zm1.321,5.007-1.694-2.462h-.161v2.462h-.761v-5.354a3.217,3.217,0,0,1,1.36-.285c1.122,0,1.908.632,1.908,1.583a1.526,1.526,0,0,1-1.534,1.537l1.8,2.519Zm-1.068-6.746a4.049,4.049,0,1,0,4.019,4.068,4.044,4.044,0,0,0-4.019-4.068Zm0,8.795a4.74,4.74,0,1,1,4.725-4.727,4.713,4.713,0,0,1-4.725,4.727Z" transform="translate(-1118.502 -884.941)" fill="#005393"/></g></g></g></g></g></svg>