<svg xmlns="http://www.w3.org/2000/svg" width="200.874" height="101.475" viewBox="0 0 200.874 101.475"><g transform="translate(100.437 50.737)"><g transform="translate(-100.437 -50.737)"><path d="M54.559,9.6V81.555H51.792V9.6H51.1V82.016h4.151V9.6Z" transform="translate(66.749 12.54)" fill="#e2e1e2"/><path d="M38.259,9.6V81.555h-3V9.6H34.8V82.016h3.921V9.6Z" transform="translate(45.457 12.54)" fill="#e2e1e2"/><path d="M21.629,9.6V81.555H18.861V9.6H18.4V82.016h3.921V9.6Z" transform="translate(24.035 12.54)" fill="#e2e1e2"/><path d="M191.187,19H0v.692H190.5v2.767H0v.692H191.187V19Z" transform="translate(0 24.819)" fill="#e2e1e2"/><path d="M55.412,47l-.923-1.153L53.567,44.7h0l-.692,1.153L51.953,47H50.8l2.306-2.767L51.031,41.7h1.153l.923,1.153.692.923h0l.692-.923.923-1.153h1.153l-2.306,2.537L56.566,47Z" transform="translate(66.357 54.47)" fill="#19629d"/><path d="M89.212,25.749l-.923-1.614-.923-1.384h0l-.692,1.384-.923,1.614H84.6l2.306-3.69L84.831,18.6h1.153l.923,1.614.692,1.153h0l.692-1.153.923-1.614h1.153l-2.306,3.459,2.306,3.69Z" transform="translate(110.508 24.296)" fill="#19629d"/><path d="M39.012,47l-.923-1.153L37.167,44.7h0l-.692,1.153L35.553,47H34.4l2.306-2.767L34.631,41.7h1.153l.923,1.153.692.923h0l.692-.923.922-1.153h1.153l-2.306,2.537L40.166,47Z" transform="translate(44.935 54.47)" fill="#19629d"/><path d="M22.612,47l-.922-1.153L20.767,44.7h0l-.692,1.153L19.153,47H18l2.306-2.767L18.231,41.7h1.153l.922,1.153.692.923h0l.692-.923.922-1.153h1.153l-2.306,2.537L23.766,47Z" transform="translate(23.512 54.47)" fill="#19629d"/><g transform="translate(8.764 27.672)"><path d="M53.336,54.51c13.837,0,16.836-8.994,16.836-15.221V21.3H60.024V38.827a6,6,0,0,1-6.688,6.919,6,6,0,0,1-6.688-6.919V21.3H36.5V39.519c0,6.227,3,15.221,16.836,15.221" transform="translate(38.914 0.151)" fill="#004383"/><path d="M20.636,54.51c13.837,0,16.836-8.994,16.836-15.221V21.3H27.324V38.827a6,6,0,0,1-6.688,6.919,6,6,0,0,1-6.688-6.919V21.3H3.8V39.519c0,6.227,3,15.221,16.836,15.221" transform="translate(-3.8 0.151)" fill="#004383"/><path d="M37.036,20.931C23.2,20.931,20.2,29.925,20.2,36.152V54.371H30.347V36.613a6,6,0,0,1,6.688-6.919,6,6,0,0,1,6.688,6.919V54.14H53.871V35.921c0-6.227-3-15.221-16.836-15.221" transform="translate(17.622 -0.632)" fill="#004383"/><path d="M79.191,26c-.461-.692-3-5.074-11.3-5.074S52.9,25.082,52.9,35.46V54.14h9.917V35.229a5.766,5.766,0,0,1,11.531,0V54.14h9.917V35.229a5.766,5.766,0,1,1,11.531,0V54.14h9.917V35.229c0-10.147-6.688-14.529-14.991-14.529s-10.839,4.612-11.3,5.074" transform="translate(60.336 -0.632)" fill="#004383"/><path d="M23.8,20.074A8.3,8.3,0,1,0,32.1,12a8.072,8.072,0,0,0-8.3,8.072" transform="translate(22.323 -11.999)" fill="#465f72"/><path d="M40.2,20.074A8.3,8.3,0,1,0,48.5,12a8.072,8.072,0,0,0-8.3,8.072" transform="translate(43.745 -11.999)" fill="#465f72"/><path d="M60.7,20.074A8.3,8.3,0,1,0,69,12a8.072,8.072,0,0,0-8.3,8.072" transform="translate(70.523 -11.999)" fill="#465f72"/><path d="M79.059,27.419a3.459,3.459,0,1,1,3.459-3.459,3.459,3.459,0,0,1-3.459,3.459Zm0-6.457a3,3,0,1,0,3,3,3,3,0,0,0-3-3Zm.692,5.074L78.6,24.19h-.231v1.845h-.461V21.884h.922c.922,0,1.384.461,1.384,1.153a1.153,1.153,0,0,1-1.153,1.153l1.384,1.845Zm-.922-3.921h-.461V23.5H78.6c.461,0,.923-.231.923-.692s-.461-.692-.923-.692Z" transform="translate(89.988 -0.894)" fill="#004383"/></g><path d="M170.341,7.7H3.6V18.77h.461V8.161H169.88V18.77h.461V7.7Z" transform="translate(4.702 10.058)" fill="#222"/><g transform="translate(72.185)"><path d="M35.682,11.57H34.3V1.653l-.461.461L31.992,3.729,31.3,2.806,34.3.5h1.153Z" transform="translate(-31.3 0.653)" fill="#1a1818"/><path d="M37.1.992A.923.923,0,0,1,37.332.3h1.153a.923.923,0,0,1,.231.692.923.923,0,0,1-.231.692H37.332A.922.922,0,0,1,37.1.992Zm1.384,11.07H37.1V3.3h1.384Z" transform="translate(-23.726 0.392)" fill="#1a1818"/><path d="M45.027,10.271V4.736a2.306,2.306,0,0,0-.461-1.614,1.845,1.845,0,0,0-1.614-.461,2.537,2.537,0,0,0-2.076.692,3.69,3.69,0,0,0-.692,2.537V10.5H38.8V1.738h1.153V2.891h0l1.153-.922,1.614-.461a3.229,3.229,0,0,1,2.306.692,3.229,3.229,0,0,1,.692,2.306v5.766Z" transform="translate(-21.503 1.952)" fill="#1a1818"/><path d="M46.94,10.5a3.69,3.69,0,0,1-3-1.153,4.843,4.843,0,0,1-.922-3.229,4.843,4.843,0,0,1,.922-3.459,3.69,3.69,0,0,1,3-1.153h2.306L48.785,2.66H46.94Q44.4,2.66,44.4,6.12a3.921,3.921,0,0,0,.692,2.537,2.306,2.306,0,0,0,1.845.922l2.306-.461v1.153Z" transform="translate(-16.036 1.952)" fill="#1a1818"/><path d="M52.627,12.223V6.688a2.306,2.306,0,0,0-.461-1.614,1.845,1.845,0,0,0-1.614-.461,2.537,2.537,0,0,0-2.076.692,3.69,3.69,0,0,0-.692,2.537v4.612H46.4V0h1.384V3.69a8.07,8.07,0,0,1,0,1.153h0l1.153-.922,1.614-.461a3.229,3.229,0,0,1,2.306.692,3.229,3.229,0,0,1,.692,2.306v5.766Z" transform="translate(-11.576)" fill="#1a1818"/></g></g></g></svg>