<?xml version="1.0" encoding="utf-8"?>
<!-- Generator: Adobe Illustrator 23.0.2, SVG Export Plug-In . SVG Version: 6.00 Build 0)  -->
<svg version="1.1" id="Layer_1" xmlns="http://www.w3.org/2000/svg" xmlns:xlink="http://www.w3.org/1999/xlink" x="0px" y="0px"
	 viewBox="0 0 294.3 167.8" style="enable-background:new 0 0 294.3 167.8;" xml:space="preserve">
<style type="text/css">
	.st0{fill:#C4CBD1;}
	.st1{fill:#E2E1E2;}
	.st2{clip-path:url(#SVGID_2_);}
	.st3{clip-path:url(#SVGID_4_);fill:#015294;}
	.st4{clip-path:url(#SVGID_6_);fill:#015294;}
	.st5{clip-path:url(#SVGID_8_);fill:#015294;}
	.st6{clip-path:url(#SVGID_10_);fill:#015294;}
	.st7{clip-path:url(#SVGID_12_);fill:#015294;}
	.st8{clip-path:url(#SVGID_14_);fill:#015294;}
	.st9{clip-path:url(#SVGID_16_);fill:#015294;}
	.st10{clip-path:url(#SVGID_18_);fill:#015294;}
	.st11{clip-path:url(#SVGID_20_);fill:#015294;}
	.st12{clip-path:url(#SVGID_22_);fill:#015294;}
	.st13{clip-path:url(#SVGID_24_);fill:#015294;}
	.st14{clip-path:url(#SVGID_26_);fill:#015294;}
	.st15{clip-path:url(#SVGID_28_);fill:#015294;}
	.st16{clip-path:url(#SVGID_30_);fill:#015294;}
	.st17{clip-path:url(#SVGID_32_);fill:#015294;}
	.st18{clip-path:url(#SVGID_34_);fill:#015294;}
	.st19{clip-path:url(#SVGID_36_);fill:#015294;}
	.st20{clip-path:url(#SVGID_38_);fill:#015294;}
	.st21{clip-path:url(#SVGID_40_);fill:#015294;}
	.st22{clip-path:url(#SVGID_42_);fill:#015294;}
	.st23{clip-path:url(#SVGID_44_);fill:#015294;}
	.st24{clip-path:url(#SVGID_46_);fill:#015294;}
	.st25{clip-path:url(#SVGID_48_);fill:#015294;}
	.st26{clip-path:url(#SVGID_50_);fill:#015294;}
	.st27{clip-path:url(#SVGID_52_);fill:#5A7184;}
	.st28{clip-path:url(#SVGID_54_);fill:#5A7184;}
	.st29{clip-path:url(#SVGID_56_);fill:#5A7184;}
	.st30{clip-path:url(#SVGID_58_);fill:#015294;}
</style>
<g transform="translate(147.168 83.895)">
	<g transform="translate(-147.168 -83.895)">
		<g transform="translate(66.549 0.937)">
			<path class="st0" d="M0,21.9c-0.2,6.2,4.7,11.4,10.9,11.6s11.4-4.7,11.6-10.9S17.8,11.2,11.6,11c-0.1,0-0.2,0-0.3,0
				C5.2,10.8,0.2,15.5,0,21.5C0,21.7,0,21.8,0,21.9"/>
			<path class="st0" d="M0,0c0,6,4.9,10.9,10.9,10.9c0.1,0,0.2,0,0.3,0c6,0,10.9-4.9,10.9-10.9l0,0H0"/>
		</g>
		<g transform="translate(259.653 78.11)">
			<path class="st0" d="M11.6,0C5.4-0.2,0.2,4.7,0,10.9s4.7,11.4,10.9,11.6s11.4-4.7,11.6-10.9c0-0.1,0-0.2,0-0.3
				c0.2-6-4.6-11.1-10.6-11.2C11.8,0,11.7,0,11.6,0"/>
			<path class="st0" d="M33.7,0c-6.2,0-11.2,5-11.2,11.2s5,11.2,11.2,11.2V0"/>
		</g>
		<g transform="translate(241.218 133.42)">
			<path class="st0" d="M22.5,11.6C22.7,5.4,17.8,0.2,11.6,0S0.2,4.7,0,10.9s4.7,11.4,10.9,11.6c0.1,0,0.2,0,0.3,0
				c6,0.2,11.1-4.6,11.2-10.6C22.5,11.8,22.5,11.7,22.5,11.6"/>
			<path class="st0" d="M22.5,33.7c0-6.2-5-11.2-11.2-11.2S0,27.5,0,33.7l0,0H22.5"/>
		</g>
		<g transform="translate(0.625 77.806)">
			<path class="st0" d="M22.2,22.5c6.2,0.2,11.4-4.7,11.6-10.9S29,0.2,22.8,0S11.4,4.7,11.2,10.9c0,0.1,0,0.2,0,0.3
				c-0.2,6,4.6,11.1,10.6,11.2C22,22.5,22.1,22.5,22.2,22.5"/>
			<path class="st0" d="M0,22.5c6,0,10.9-4.9,10.9-10.9c0-0.1,0-0.2,0-0.3c0-6.1-4.9-11-10.9-11l0,0v22.5"/>
		</g>
		<path class="st0" d="M259.3,34.7v98.4H35V34.7H259.3 M260.3,34.1H34.1v99.7h226.2V34.1z"/>
		<path class="st1" d="M293.4,0.9v166.2H0.9V0.9H293.4 M294.3,0.3H0v167.5h294.3V0.3L294.3,0.3z"/>
		<g id="RGB-2019_1_">
			<g>
				<g>
					<defs>
						<rect id="SVGID_1_" x="35" y="34.7" width="233.4" height="98.1"/>
					</defs>
					<clipPath id="SVGID_2_">
						<use xlink:href="#SVGID_1_"  style="overflow:visible;"/>
					</clipPath>
					<g class="st2">
						<g>
							<defs>
								<rect id="SVGID_3_" x="35" y="34.7" width="233.4" height="98.1"/>
							</defs>
							<clipPath id="SVGID_4_">
								<use xlink:href="#SVGID_3_"  style="overflow:visible;"/>
							</clipPath>
							<path class="st3" d="M89,132.6h-3.1V120h3.3c2.4,0,3.5,1.5,3.5,3.1c0,1.2-0.5,2.3-1.7,2.8l0,0c1.2,0.2,2.4,1.3,2.4,2.9
								C93.4,130.6,92.4,132.6,89,132.6 M88.9,121.3h-1.6v4.2h1.6c1.1,0,2.3-0.7,2.3-2.2C91.2,122.1,90.5,121.3,88.9,121.3
								 M89.3,126.8h-2v4.5h1.9c1.8,0,2.7-1,2.7-2.3S90.9,126.8,89.3,126.8"/>
						</g>
						<g>
							<defs>
								<rect id="SVGID_5_" x="35" y="34.7" width="233.4" height="98.1"/>
							</defs>
							<clipPath id="SVGID_6_">
								<use xlink:href="#SVGID_5_"  style="overflow:visible;"/>
							</clipPath>
							<path class="st4" d="M130.3,124.9c-0.2-0.1-0.5-0.1-0.8-0.1c-0.6,0-1.3,0.4-2,1.1v6.7h-1.4v-9h1.3l0.1,1
								c1.2-1.1,1.9-1.3,2.5-1.3c0.5,0,0.8,0.2,1,0.3L130.3,124.9z"/>
						</g>
						<g>
							<defs>
								<rect id="SVGID_7_" x="35" y="34.7" width="233.4" height="98.1"/>
							</defs>
							<clipPath id="SVGID_8_">
								<use xlink:href="#SVGID_7_"  style="overflow:visible;"/>
							</clipPath>
							<path class="st5" d="M138.9,132.8c-1.3,0-2.1-0.3-2.5-0.6v-13.1h1.4v4.7c0.6-0.2,1.3-0.4,2-0.4c2.1,0,4,1.4,4,4.4
								C143.7,130.9,141.5,132.8,138.9,132.8 M139.6,124.6c-1,0-1.4,0.3-1.8,0.5v6.2c0.4,0.2,0.8,0.2,1.4,0.2c1.8,0,3.2-1.7,3.2-3.7
								C142.3,125.9,141.4,124.6,139.6,124.6"/>
						</g>
						<g>
							<defs>
								<rect id="SVGID_9_" x="35" y="34.7" width="233.4" height="98.1"/>
							</defs>
							<clipPath id="SVGID_10_">
								<use xlink:href="#SVGID_9_"  style="overflow:visible;"/>
							</clipPath>
							<path class="st6" d="M161.4,132.6V127c0-1.1-0.2-2.4-1.6-2.4c-1.1,0-2.1,0.8-2.8,1.4v6.6h-1.4v-9h1.3l0.1,1.1
								c1-0.8,2-1.3,3.2-1.3c1.3,0,2.6,0.9,2.6,3.2v6.1L161.4,132.6L161.4,132.6z"/>
						</g>
						<g>
							<defs>
								<rect id="SVGID_11_" x="35" y="34.7" width="233.4" height="98.1"/>
							</defs>
							<clipPath id="SVGID_12_">
								<use xlink:href="#SVGID_11_"  style="overflow:visible;"/>
							</clipPath>
							<path class="st7" d="M166.7,128.3c0,1.7,1,3.3,2.9,3.3c0.8,0,1.7-0.3,2.2-0.7l0.5,1c-0.3,0.1-1.2,0.8-2.8,0.8
								c-2.9,0-4.2-2.3-4.2-4.9s1.5-4.5,3.7-4.5c2.3,0,3.6,1.9,3.6,4.6v0.3L166.7,128.3L166.7,128.3z M168.9,124.5
								c-1.3,0-2.2,1.2-2.2,2.6h4.2C170.9,125.9,170.2,124.5,168.9,124.5"/>
						</g>
						<g>
							<defs>
								<rect id="SVGID_13_" x="35" y="34.7" width="233.4" height="98.1"/>
							</defs>
							<clipPath id="SVGID_14_">
								<use xlink:href="#SVGID_13_"  style="overflow:visible;"/>
							</clipPath>
							<path class="st8" d="M147.5,128.3c0,1.7,1,3.3,2.9,3.3c0.8,0,1.7-0.3,2.2-0.7l0.5,1c-0.3,0.1-1.2,0.8-2.8,0.8
								c-2.9,0-4.2-2.3-4.2-4.9s1.5-4.5,3.7-4.5c2.3,0,3.6,1.9,3.6,4.6v0.3L147.5,128.3L147.5,128.3z M149.7,124.5
								c-1.3,0-2.2,1.2-2.2,2.6h4.2C151.7,125.9,151,124.5,149.7,124.5"/>
						</g>
						<g>
							<defs>
								<rect id="SVGID_15_" x="35" y="34.7" width="233.4" height="98.1"/>
							</defs>
							<clipPath id="SVGID_16_">
								<use xlink:href="#SVGID_15_"  style="overflow:visible;"/>
							</clipPath>
							<path class="st9" d="M117.9,128.3c0,1.7,1,3.3,2.9,3.3c0.8,0,1.6-0.3,2.2-0.7l0.5,1c-0.3,0.1-1.2,0.8-2.8,0.8
								c-2.9,0-4.2-2.3-4.2-4.9s1.5-4.5,3.7-4.5c2.3,0,3.6,1.9,3.6,4.6v0.3L117.9,128.3L117.9,128.3z M120.1,124.5
								c-1.3,0-2.2,1.2-2.2,2.6h4.2C122.2,125.9,121.5,124.5,120.1,124.5"/>
						</g>
						<g>
							<defs>
								<rect id="SVGID_17_" x="35" y="34.7" width="233.4" height="98.1"/>
							</defs>
							<clipPath id="SVGID_18_">
								<use xlink:href="#SVGID_17_"  style="overflow:visible;"/>
							</clipPath>
							<path class="st10" d="M96.6,128.3c0,1.7,1,3.3,2.9,3.3c0.8,0,1.7-0.3,2.2-0.7l0.5,1c-0.2,0.1-1.2,0.8-2.8,0.8
								c-2.9,0-4.2-2.3-4.2-4.9s1.5-4.5,3.7-4.5c2.3,0,3.6,1.9,3.6,4.6v0.3L96.6,128.3L96.6,128.3z M98.8,124.5
								c-1.3,0-2.2,1.2-2.2,2.6h4.2C100.9,125.9,100.2,124.5,98.8,124.5"/>
						</g>
						<g>
							<defs>
								<rect id="SVGID_19_" x="35" y="34.7" width="233.4" height="98.1"/>
							</defs>
							<clipPath id="SVGID_20_">
								<use xlink:href="#SVGID_19_"  style="overflow:visible;"/>
							</clipPath>
							<path class="st11" d="M192.8,132.8c-1.3,0-2.1-0.3-2.7-0.7l0.5-1.1c0.4,0.3,1.2,0.6,2.2,0.6c1.1,0,1.9-0.5,1.9-1.3
								c0-2.2-4.1-1.4-4.1-4.6c0-1.3,0.9-2.4,3-2.4c0.9,0,1.7,0.2,2.3,0.5v1.2c-0.6-0.3-1.3-0.5-2.2-0.5s-1.7,0.3-1.7,1.1
								c0,2,4.2,1.5,4.2,4.4C196.2,132,194.7,132.8,192.8,132.8"/>
						</g>
						<g>
							<defs>
								<rect id="SVGID_21_" x="35" y="34.7" width="233.4" height="98.1"/>
							</defs>
							<clipPath id="SVGID_22_">
								<use xlink:href="#SVGID_21_"  style="overflow:visible;"/>
							</clipPath>
							<path class="st12" d="M208,132.6l-0.4-0.9c-0.5,0.5-1.4,1.1-2.8,1.1c-1.5,0-2.8-1.1-2.8-2.8c0-1.8,1.2-2.9,3.6-2.9l1.8-0.1
								v-0.6c0-1.4-0.8-1.9-1.9-1.9c-1,0-1.8,0.4-2.4,0.8l-0.6-1c1-0.7,2-1,3.1-1c1.8,0,3.1,0.7,3.1,3v2.7c0,2.5,0.1,3.2,0.2,3.4
								H208V132.6z M207.6,128.3l-1.7,0.1c-1.7,0.1-2.4,0.6-2.4,1.7c0,0.9,0.6,1.6,1.8,1.6s1.9-0.6,2.3-1L207.6,128.3L207.6,128.3z"
								/>
						</g>
						<g>
							<defs>
								<rect id="SVGID_23_" x="35" y="34.7" width="233.4" height="98.1"/>
							</defs>
							<clipPath id="SVGID_24_">
								<use xlink:href="#SVGID_23_"  style="overflow:visible;"/>
							</clipPath>
							<polygon class="st13" points="231.4,132.6 230.1,132.6 227.9,125.4 227.8,125.4 225.6,132.6 224.3,132.6 221.4,123.6 
								222.8,123.6 225,130.6 225,130.6 227.2,123.6 228.6,123.6 230.8,130.7 230.8,130.7 232.9,123.6 234.3,123.6 							"/>
						</g>
						<g>
							<defs>
								<rect id="SVGID_25_" x="35" y="34.7" width="233.4" height="98.1"/>
							</defs>
							<clipPath id="SVGID_26_">
								<use xlink:href="#SVGID_25_"  style="overflow:visible;"/>
							</clipPath>
							<path class="st14" d="M242.5,131.6c-0.7,0.7-1.7,1.1-2.8,1.1s-2.1-0.4-2.8-1.1c-0.8-0.8-1.3-2.1-1.3-3.6s0.5-2.7,1.3-3.6
								c0.7-0.7,1.7-1.2,2.8-1.2c1.2,0,2.1,0.4,2.9,1.2c0.8,0.8,1.3,2.1,1.3,3.6C243.8,129.5,243.4,130.8,242.5,131.6 M239.7,124.5
								c-1.7,0-2.7,1.4-2.7,3.5c0,2.1,1,3.5,2.7,3.5s2.7-1.4,2.7-3.5C242.4,125.9,241.4,124.5,239.7,124.5"/>
						</g>
						<g>
							<defs>
								<rect id="SVGID_27_" x="35" y="34.7" width="233.4" height="98.1"/>
							</defs>
							<clipPath id="SVGID_28_">
								<use xlink:href="#SVGID_27_"  style="overflow:visible;"/>
							</clipPath>
							<path class="st15" d="M250.3,124.9c-0.2-0.1-0.5-0.1-0.8-0.1c-0.6,0-1.2,0.4-2,1.1v6.7H246v-9h1.3l0.1,1
								c1.2-1.1,1.9-1.3,2.5-1.3c0.5,0,0.8,0.2,1,0.3L250.3,124.9z"/>
						</g>
						<g>
							<defs>
								<rect id="SVGID_29_" x="35" y="34.7" width="233.4" height="98.1"/>
							</defs>
							<clipPath id="SVGID_30_">
								<use xlink:href="#SVGID_29_"  style="overflow:visible;"/>
							</clipPath>
							<path class="st16" d="M107.4,132.8c-1.5,0-2.2-0.8-2.2-2.2v-5.9h-1.5v-1.1h1.5v-2l1.4-0.5v2.5h2.5l-0.5,1.1h-2v5.7
								c0,0.8,0.3,1.2,1.2,1.2c0.7,0,1.2-0.2,1.3-0.3l0.4,1C109.3,132.4,108.5,132.8,107.4,132.8"/>
						</g>
						<g>
							<defs>
								<rect id="SVGID_31_" x="35" y="34.7" width="233.4" height="98.1"/>
							</defs>
							<clipPath id="SVGID_32_">
								<use xlink:href="#SVGID_31_"  style="overflow:visible;"/>
							</clipPath>
							<path class="st17" d="M113.8,132.8c-1.5,0-2.2-0.8-2.2-2.2v-5.9h-1.5v-1.1h1.5v-2l1.4-0.5v2.5h2.5l-0.5,1.1h-2v5.7
								c0,0.8,0.3,1.2,1.2,1.2c0.7,0,1.2-0.2,1.3-0.3l0.4,1C115.8,132.4,115,132.8,113.8,132.8"/>
						</g>
						<g>
							<defs>
								<rect id="SVGID_33_" x="35" y="34.7" width="233.4" height="98.1"/>
							</defs>
							<clipPath id="SVGID_34_">
								<use xlink:href="#SVGID_33_"  style="overflow:visible;"/>
							</clipPath>
							<path class="st18" d="M187,132.8c-1.5,0-2.2-0.8-2.2-2.2v-5.9h-1.5v-1.1h1.5v-2l1.4-0.5v2.5h2.8l-0.5,1.1h-2.3v5.7
								c0,0.8,0.3,1.2,1.2,1.2c0.7,0,1.2-0.2,1.3-0.3l0.4,1C189,132.4,188.2,132.8,187,132.8"/>
						</g>
						<g>
							<defs>
								<rect id="SVGID_35_" x="35" y="34.7" width="233.4" height="98.1"/>
							</defs>
							<clipPath id="SVGID_36_">
								<use xlink:href="#SVGID_35_"  style="overflow:visible;"/>
							</clipPath>
							<path class="st19" d="M214.4,132.8c-1.5,0-2.2-0.8-2.2-2.2v-5.9h-1.5v-1.1h1.5v-2l1.4-0.5v2.5h2.8l-0.5,1.1h-2.3v5.7
								c0,0.8,0.3,1.2,1.2,1.2c0.7,0,1.2-0.2,1.3-0.3l0.4,1C216.3,132.4,215.5,132.8,214.4,132.8"/>
						</g>
						<g>
							<defs>
								<rect id="SVGID_37_" x="35" y="34.7" width="233.4" height="98.1"/>
							</defs>
							<clipPath id="SVGID_38_">
								<use xlink:href="#SVGID_37_"  style="overflow:visible;"/>
							</clipPath>
							<path class="st20" d="M176.6,123.6v-1.4c0-1.1,0.4-1.9,2-1.9c0.9,0,1.6,0.3,1.8,0.4l0.4-1.1c-0.1,0-1.1-0.4-2.3-0.4
								c-1.9,0-3.2,0.9-3.2,3v1.5h-1.1v1.1h1.1v7.9h1.4v-7.9h3.4v7.9h1.4v-9L176.6,123.6L176.6,123.6z"/>
						</g>
						<g>
							<defs>
								<rect id="SVGID_39_" x="35" y="34.7" width="233.4" height="98.1"/>
							</defs>
							<clipPath id="SVGID_40_">
								<use xlink:href="#SVGID_39_"  style="overflow:visible;"/>
							</clipPath>
							<polygon class="st21" points="257.7,132.6 253.8,127.9 253.8,127.9 253.8,132.6 252.4,132.6 252.4,119.1 253.8,119.1 
								253.8,126.7 253.8,126.7 257.1,123.6 258.9,123.6 255,127.2 259.5,132.6 							"/>
						</g>
						<g>
							<defs>
								<rect id="SVGID_41_" x="35" y="34.7" width="233.4" height="98.1"/>
							</defs>
							<clipPath id="SVGID_42_">
								<use xlink:href="#SVGID_41_"  style="overflow:visible;"/>
							</clipPath>
							<path class="st22" d="M261.8,132.8c-0.6,0-1-0.5-1-1.1s0.4-1.1,1-1.1s1,0.5,1,1.1S262.4,132.8,261.8,132.8"/>
						</g>
						<g>
							<defs>
								<rect id="SVGID_43_" x="35" y="34.7" width="233.4" height="98.1"/>
							</defs>
							<clipPath id="SVGID_44_">
								<use xlink:href="#SVGID_43_"  style="overflow:visible;"/>
							</clipPath>
							<path class="st23" d="M159.8,108.9c18.6,0,22.8-12.1,22.8-20.5V64h-13.7v23.6c0,6.5-3.6,9.3-9.1,9.3s-9.1-2.8-9.1-9.3V64H137
								v24.5C137,96.8,141.2,108.9,159.8,108.9"/>
						</g>
						<g>
							<defs>
								<rect id="SVGID_45_" x="35" y="34.7" width="233.4" height="98.1"/>
							</defs>
							<clipPath id="SVGID_46_">
								<use xlink:href="#SVGID_45_"  style="overflow:visible;"/>
							</clipPath>
							<path class="st24" d="M57.8,108.9c18.6,0,22.8-12.1,22.8-20.5V64H66.9v23.6c0,6.5-3.6,9.3-9.1,9.3s-9.1-2.8-9.1-9.3V64H35
								v24.5C35,96.8,39.2,108.9,57.8,108.9"/>
						</g>
						<g>
							<defs>
								<rect id="SVGID_47_" x="35" y="34.7" width="233.4" height="98.1"/>
							</defs>
							<clipPath id="SVGID_48_">
								<use xlink:href="#SVGID_47_"  style="overflow:visible;"/>
							</clipPath>
							<path class="st25" d="M108.8,62.3C90.2,62.3,86,74.4,86,82.7v24.5h13.7V83.6c0-6.5,3.6-9.3,9.1-9.3s9.1,2.8,9.1,9.3v23.6
								h13.7V82.7C131.6,74.4,127.4,62.3,108.8,62.3"/>
						</g>
						<g>
							<defs>
								<rect id="SVGID_49_" x="35" y="34.7" width="233.4" height="98.1"/>
							</defs>
							<clipPath id="SVGID_50_">
								<use xlink:href="#SVGID_49_"  style="overflow:visible;"/>
							</clipPath>
							<path class="st26" d="M223.8,69.2c-0.6-0.8-4.1-6.9-15.3-6.9C197,62.3,188,68,188,81.8v25.4h13.4V81.8c0-4.5,2.3-7.9,7.8-7.9
								c5.6,0,7.8,3.4,7.8,7.9v25.4h13.4V81.8c0-4.5,2.3-7.9,7.8-7.9c5.6,0,7.8,3.4,7.8,7.9v25.4h13.4V81.8c0-13.8-9-19.6-20.4-19.6
								C227.9,62.3,224.3,68.4,223.8,69.2"/>
						</g>
						<g>
							<defs>
								<rect id="SVGID_51_" x="35" y="34.7" width="233.4" height="98.1"/>
							</defs>
							<clipPath id="SVGID_52_">
								<use xlink:href="#SVGID_51_"  style="overflow:visible;"/>
							</clipPath>
							<path class="st27" d="M97.5,45.7c0,6.3,5,11.1,11.3,11.1c6.2,0,11.1-4.8,11.1-11.1c0-6.2-4.9-11.1-11.1-11.1
								C102.5,34.7,97.5,39.5,97.5,45.7"/>
						</g>
						<g>
							<defs>
								<rect id="SVGID_53_" x="35" y="34.7" width="233.4" height="98.1"/>
							</defs>
							<clipPath id="SVGID_54_">
								<use xlink:href="#SVGID_53_"  style="overflow:visible;"/>
							</clipPath>
							<path class="st28" d="M148.5,45.7c0,6.3,5,11.1,11.3,11.1c6.2,0,11.1-4.8,11.1-11.1c0-6.2-4.9-11.1-11.1-11.1
								C153.5,34.7,148.5,39.5,148.5,45.7"/>
						</g>
						<g>
							<defs>
								<rect id="SVGID_55_" x="35" y="34.7" width="233.4" height="98.1"/>
							</defs>
							<clipPath id="SVGID_56_">
								<use xlink:href="#SVGID_55_"  style="overflow:visible;"/>
							</clipPath>
							<path class="st29" d="M212.5,45.7c0,6.3,5,11.1,11.3,11.1c6.2,0,11.1-4.8,11.1-11.1c0-6.2-4.9-11.1-11.1-11.1
								C217.5,34.7,212.5,39.5,212.5,45.7"/>
						</g>
						<g>
							<defs>
								<rect id="SVGID_57_" x="35" y="34.7" width="233.4" height="98.1"/>
							</defs>
							<clipPath id="SVGID_58_">
								<use xlink:href="#SVGID_57_"  style="overflow:visible;"/>
							</clipPath>
							<path class="st30" d="M263.7,70.7c-2.6,0-4.7-2.1-4.7-4.7s2.1-4.8,4.7-4.8s4.7,2.1,4.7,4.8C268.4,68.6,266.3,70.7,263.7,70.7
								 M263.7,61.9c-2.3,0-4,1.8-4,4.1c0,2.2,1.8,4,4,4s4-1.8,4-4C267.7,63.8,265.9,61.9,263.7,61.9 M264.7,68.7l-1.7-2.5h-0.2v2.5
								H262v-5.4c0.4-0.2,0.9-0.3,1.4-0.3c1.1,0,1.9,0.6,1.9,1.6c0,0.9-0.7,1.4-1.5,1.5l1.8,2.5L264.7,68.7L264.7,68.7z M263.4,63.7
								c-0.2,0-0.4,0-0.5,0.1v2h0.4c0.7,0,1.3-0.3,1.3-1.1C264.6,63.8,263.9,63.7,263.4,63.7"/>
						</g>
					</g>
				</g>
			</g>
		</g>
	</g>
</g>
</svg>
