<?xml version="1.0" encoding="utf-8"?>
<!-- Generator: Adobe Illustrator 23.0.2, SVG Export Plug-In . SVG Version: 6.00 Build 0)  -->
<svg version="1.1" id="Layer_1" xmlns="http://www.w3.org/2000/svg" xmlns:xlink="http://www.w3.org/1999/xlink" x="0px" y="0px"
	 viewBox="0 0 387.6 193.5" style="enable-background:new 0 0 387.6 193.5;" xml:space="preserve">
<style type="text/css">
	.st0{fill:none;}
	.st1{fill:none;stroke:#E7E7E8;}
	.st2{clip-path:url(#SVGID_2_);}
	.st3{clip-path:url(#SVGID_4_);fill:#015294;}
	.st4{clip-path:url(#SVGID_4_);fill:#5A7184;}
</style>
<g transform="translate(0 0)">
	<rect y="0" class="st0" width="387.6" height="193.5"/>
	<rect x="0.5" y="0.5" class="st1" width="386.6" height="192.5"/>
</g>
<g id="RGB_2019_1_">
	<g>
		<defs>
			<rect id="SVGID_1_" x="108" y="69.3" width="171.4" height="54.5"/>
		</defs>
		<clipPath id="SVGID_2_">
			<use xlink:href="#SVGID_1_"  style="overflow:visible;"/>
		</clipPath>
		<g class="st2">
			<defs>
				<rect id="SVGID_3_" x="108" y="69.3" width="171.4" height="54.5"/>
			</defs>
			<clipPath id="SVGID_4_">
				<use xlink:href="#SVGID_3_"  style="overflow:visible;"/>
			</clipPath>
			<path class="st3" d="M199.7,123.9c13.7,0,16.7-8.9,16.7-15v-18h-10.1v17.3c0,4.8-2.7,6.8-6.7,6.8c-4,0-6.7-2.1-6.7-6.8V90.8
				h-10.1v18C182.9,115,186,123.9,199.7,123.9"/>
			<path class="st3" d="M124.8,123.9c13.7,0,16.8-8.9,16.8-15v-18h-10.1v17.3c0,4.8-2.7,6.8-6.7,6.8c-4,0-6.7-2.1-6.7-6.8V90.8H108
				v18C108,115,111.1,123.9,124.8,123.9"/>
			<path class="st3" d="M162.2,89.6c-13.7,0-16.8,8.9-16.8,15v18h10.1v-17.3c0-4.7,2.7-6.8,6.7-6.8c4,0,6.7,2.1,6.7,6.8v17.3H179
				v-18C179,98.5,175.9,89.6,162.2,89.6"/>
			<path class="st3" d="M246.7,94.7c-0.4-0.6-3-5.1-11.3-5.1c-8.4,0-15,4.2-15,14.4v18.7h9.9v-18.7c0-3.3,1.7-5.8,5.7-5.8
				c4.1,0,5.7,2.5,5.7,5.8v18.7h9.9v-18.7c0-3.3,1.7-5.8,5.7-5.8c4.1,0,5.7,2.5,5.7,5.8v18.7h9.8v-18.7c0-10.2-6.6-14.4-15-14.4
				C249.7,89.6,247.1,94.1,246.7,94.7"/>
			<path class="st4" d="M153.9,77.4c0,4.6,3.7,8.1,8.3,8.1c4.6,0,8.2-3.5,8.2-8.1c0-4.6-3.6-8.1-8.2-8.1
				C157.6,69.3,153.9,72.9,153.9,77.4"/>
			<path class="st4" d="M191.4,77.4c0,4.6,3.7,8.1,8.3,8.1c4.6,0,8.2-3.5,8.2-8.1c0-4.6-3.6-8.1-8.2-8.1
				C195.1,69.3,191.4,72.9,191.4,77.4"/>
			<path class="st4" d="M238.4,77.4c0,4.6,3.7,8.1,8.3,8.1c4.6,0,8.2-3.5,8.2-8.1c0-4.6-3.6-8.1-8.2-8.1
				C242,69.3,238.4,72.9,238.4,77.4"/>
			<path class="st3" d="M276,95.8c-1.9,0-3.5-1.5-3.5-3.5s1.6-3.5,3.5-3.5c1.9,0,3.5,1.6,3.5,3.5S277.9,95.8,276,95.8 M276,89.3
				c-1.7,0-3,1.3-3,3c0,1.6,1.3,3,3,3c1.6,0,3-1.3,3-3C278.9,90.7,277.6,89.3,276,89.3 M276.7,94.3l-1.2-1.8h-0.1v1.8h-0.6v-3.9
				c0.3-0.1,0.6-0.2,1-0.2c0.8,0,1.4,0.5,1.4,1.2c0,0.7-0.5,1.1-1.1,1.1l1.3,1.9H276.7z M275.8,90.6c-0.1,0-0.3,0-0.4,0.1v1.4h0.3
				c0.5,0,1-0.2,1-0.8C276.6,90.7,276.2,90.6,275.8,90.6"/>
		</g>
	</g>
</g>
</svg>
