<?xml version="1.0" encoding="utf-8"?>
<!-- Generator: Adobe Illustrator 23.0.2, SVG Export Plug-In . SVG Version: 6.00 Build 0)  -->
<svg version="1.1" id="Layer_1" xmlns="http://www.w3.org/2000/svg" xmlns:xlink="http://www.w3.org/1999/xlink" x="0px" y="0px"
	 viewBox="0 0 210.8 126.2" style="enable-background:new 0 0 210.8 126.2;" xml:space="preserve">
<style type="text/css">
	.st0{fill:#C4CBD1;}
	.st1{fill:#004383;}
	.st2{fill:#19629D;}
	.st3{fill:#222222;}
	.st4{clip-path:url(#SVGID_2_);}
	.st5{clip-path:url(#SVGID_4_);fill:#015294;}
	.st6{clip-path:url(#SVGID_4_);fill:#5A7184;}
</style>
<g transform="translate(-744 -2201)">
	<g transform="translate(849.375 2264.08)">
		<g transform="translate(-105.375 -63.08)">
			<path class="st0" d="M0,86.5V87h196.5v8.7H0v0.7h197v-9.9H0z"/>
			<path class="st0" d="M127.1,24.9v91.8h-2.9V24.9h-0.7v92.3h4.3V24.9H127.1z"/>
			<path class="st0" d="M87.7,24.9v91.8h-3.1V24.9h-0.5v92.3h4.1V24.9H87.7z"/>
			<path class="st0" d="M47.9,24.9v91.8H45V24.9h-0.5v92.3h4.1V24.9H47.9z"/>
			<path class="st0" d="M200.4,48.9H0v0.7h199.6v2.9H0v0.7h200.4V48.9z"/>
			<path class="st1" d="M207.1,96.2h-2.4v-9.7h2.7c1.3-0.1,2.5,0.8,2.6,2.2c0,0.1,0,0.2,0,0.3c0.1,0.9-0.4,1.8-1.2,2.2l0,0
				c1.1,0.1,1.9,1.1,1.9,2.2C210.5,94.7,209.8,96.2,207.1,96.2z M207.1,87.5h-1.2v3.1h1.2c0.9,0,1.7-0.8,1.7-1.7c0,0,0,0,0,0
				c0-1-0.7-1.4-1.9-1.4H207.1z M207.4,91.6h-1.5V95h1.5c1.4,0,2.2-0.7,2.2-1.9c-0.1-0.9-0.9-1.6-1.9-1.5
				C207.6,91.5,207.5,91.6,207.4,91.6L207.4,91.6z"/>
			<path class="st2" d="M127.6,125.9l-1-1.5l-1-1.2l0,0l-0.7,1.5l-1,1.4h-1.2l2.4-3.4l-2.2-3.4h1.2l1,1.7l0.7,1.2l0,0l0.7-1.2l1-1.7
				h1.2l-2.4,3.4l2.4,3.4L127.6,125.9z"/>
			<path class="st2" d="M209.3,53.9l-1-1.7l-1-1.5l0,0l-0.7,1.5l-1,1.7h-1.2l2.4-3.9l-2.2-3.6h1.2l1,1.7l0.7,1.2l0,0l0.7-1.2l1-1.7
				h1.2l-2.4,3.6l2.4,3.9L209.3,53.9z"/>
			<path class="st2" d="M88,125.9l-1-1.4l-1-1.5l0,0l-0.7,1.5l-1,1.4h-1.2l2.4-3.4l-2.2-3.4h1.2l1,1.7l0.7,1.2l0,0l0.7-1.2l1-1.7
				h1.2l-2.4,3.4l2.4,3.4L88,125.9z"/>
			<path class="st2" d="M48.3,125.9l-1-1.4l-1-1.5l0,0l-0.7,1.5l-1,1.4h-1.2l2.4-3.4l-2.2-3.4H45l1,1.7l0.7,1.2l0,0l0.7-1.2l1-1.7
				h1.2l-2.4,3.4l2.4,3.4L48.3,125.9z"/>
			<path class="st3" d="M183.7,18.6H9.2v11.6h0.5V19.1h173.8v11.1h0.5V18.6H183.7z"/>
			<g id="RGB-2019_1_">
				<g>
					<defs>
						<rect id="SVGID_1_" x="9" y="30.2" width="181" height="75.9"/>
					</defs>
					<clipPath id="SVGID_2_">
						<use xlink:href="#SVGID_1_"  style="overflow:visible;"/>
					</clipPath>
					<g class="st4">
						<defs>
							<rect id="SVGID_3_" x="9" y="30.2" width="181" height="75.9"/>
						</defs>
						<clipPath id="SVGID_4_">
							<use xlink:href="#SVGID_3_"  style="overflow:visible;"/>
						</clipPath>
						<path class="st5" d="M50.9,106h-2.4v-9.7H51c1.8,0,2.7,1.2,2.7,2.4c0,0.9-0.4,1.7-1.3,2.1v0c0.9,0.1,1.9,1,1.9,2.3
							C54.3,104.4,53.5,106,50.9,106 M50.8,97.3h-1.3v3.2h1.2c0.9,0,1.8-0.6,1.8-1.7C52.5,97.8,52,97.3,50.8,97.3 M51.1,101.5h-1.5
							v3.5H51c1.4,0,2.1-0.8,2.1-1.8C53.1,102.2,52.3,101.5,51.1,101.5"/>
						<path class="st5" d="M82.9,100.1c-0.1-0.1-0.4-0.1-0.6-0.1c-0.5,0-1,0.3-1.6,0.8v5.2h-1.1v-7h1l0.1,0.8c1-0.9,1.5-1,1.9-1
							c0.4,0,0.6,0.1,0.8,0.2L82.9,100.1z"/>
						<path class="st5" d="M89.5,106.1c-1,0-1.6-0.2-1.9-0.4V95.5h1.1v3.6c0.5-0.2,1-0.3,1.6-0.3c1.6,0,3.1,1.1,3.1,3.4
							C93.3,104.7,91.6,106.1,89.5,106.1 M90.1,99.8c-0.7,0-1.1,0.2-1.4,0.4v4.8c0.3,0.1,0.7,0.2,1.1,0.2c1.4,0,2.5-1.3,2.5-2.9
							C92.2,100.8,91.5,99.8,90.1,99.8"/>
						<path class="st5" d="M107,106v-4.3c0-0.9-0.1-1.8-1.2-1.8c-0.9,0-1.6,0.6-2.2,1.1v5.1h-1.1v-7h1l0.1,0.8c0.8-0.6,1.5-1,2.5-1
							c1,0,2,0.7,2,2.5v4.7H107z"/>
						<path class="st5" d="M111.1,102.7c0,1.3,0.8,2.5,2.3,2.5c0.6,0,1.3-0.3,1.7-0.5l0.4,0.8c-0.2,0.1-1,0.6-2.2,0.6
							c-2.2,0-3.3-1.8-3.3-3.8c0-2,1.1-3.5,2.8-3.5c1.8,0,2.8,1.4,2.8,3.6v0.3H111.1z M112.8,99.7c-1,0-1.7,0.9-1.7,2h3.3
							C114.4,100.8,113.8,99.7,112.8,99.7"/>
						<path class="st5" d="M96.2,102.7c0,1.3,0.8,2.5,2.3,2.5c0.6,0,1.3-0.3,1.7-0.5l0.4,0.8c-0.2,0.1-1,0.6-2.2,0.6
							c-2.2,0-3.3-1.8-3.3-3.8c0-2,1.2-3.5,2.8-3.5c1.8,0,2.8,1.4,2.8,3.6v0.3H96.2z M97.9,99.7c-1,0-1.7,0.9-1.7,2h3.3
							C99.5,100.8,99,99.7,97.9,99.7"/>
						<path class="st5" d="M73.3,102.7c0,1.3,0.8,2.5,2.3,2.5c0.6,0,1.3-0.3,1.7-0.5l0.4,0.8c-0.2,0.1-1,0.6-2.2,0.6
							c-2.2,0-3.3-1.8-3.3-3.8c0-2,1.2-3.5,2.8-3.5c1.8,0,2.8,1.4,2.8,3.6v0.3H73.3z M75,99.7c-1,0-1.7,0.9-1.7,2h3.3
							C76.6,100.8,76,99.7,75,99.7"/>
						<path class="st5" d="M56.8,102.7c0,1.3,0.8,2.5,2.3,2.5c0.6,0,1.3-0.3,1.7-0.5l0.4,0.8c-0.2,0.1-1,0.6-2.2,0.6
							c-2.2,0-3.3-1.8-3.3-3.8c0-2,1.2-3.5,2.8-3.5c1.8,0,2.8,1.4,2.8,3.6v0.3H56.8z M58.5,99.7c-1,0-1.7,0.9-1.7,2h3.3
							C60.1,100.8,59.5,99.7,58.5,99.7"/>
						<path class="st5" d="M131.3,106.1c-1,0-1.6-0.3-2.1-0.5l0.4-0.8c0.3,0.2,0.9,0.5,1.7,0.5c0.9,0,1.5-0.4,1.5-1
							c0-1.7-3.2-1.1-3.2-3.5c0-1,0.7-1.9,2.3-1.9c0.7,0,1.3,0.2,1.8,0.4v0.9c-0.5-0.2-1-0.4-1.7-0.4c-0.7,0-1.3,0.3-1.3,0.9
							c0,1.6,3.2,1.2,3.2,3.4C134,105.5,132.8,106.1,131.3,106.1"/>
						<path class="st5" d="M143.1,106l-0.3-0.7c-0.4,0.4-1.1,0.8-2.1,0.8c-1.1,0-2.1-0.8-2.1-2.1c0-1.4,1-2.2,2.8-2.3l1.4,0v-0.4
							c0-1.1-0.6-1.5-1.5-1.5c-0.8,0-1.4,0.3-1.9,0.7l-0.4-0.8c0.8-0.6,1.6-0.8,2.4-0.8c1.4,0,2.4,0.6,2.4,2.4v2.1
							c0,2,0.1,2.4,0.1,2.7H143.1z M142.8,102.6l-1.3,0c-1.3,0-1.8,0.5-1.8,1.3c0,0.7,0.4,1.2,1.4,1.2c0.9,0,1.5-0.5,1.8-0.8V102.6z
							"/>
						<polygon class="st5" points="161.3,106 160.3,106 158.6,100.4 158.5,100.4 156.8,106 155.8,106 153.5,99 154.6,99 
							156.3,104.5 156.3,104.5 158,99 159.1,99 160.8,104.5 160.8,104.5 162.5,99 163.5,99 						"/>
						<path class="st5" d="M169.9,105.2c-0.5,0.6-1.3,0.9-2.2,0.9c-0.9,0-1.6-0.3-2.2-0.9c-0.6-0.6-1-1.6-1-2.8c0-1.2,0.4-2.1,1-2.8
							c0.6-0.6,1.3-0.9,2.2-0.9c0.9,0,1.7,0.3,2.2,0.9c0.6,0.6,1,1.6,1,2.8C170.9,103.6,170.5,104.6,169.9,105.2 M167.7,99.7
							c-1.3,0-2.1,1.1-2.1,2.7c0,1.6,0.8,2.7,2.1,2.7c1.3,0,2.1-1.1,2.1-2.7C169.8,100.8,169,99.7,167.7,99.7"/>
						<path class="st5" d="M175.9,100.1c-0.1-0.1-0.4-0.1-0.6-0.1c-0.5,0-1,0.3-1.6,0.8v5.2h-1.1v-7h1l0.1,0.8c1-0.9,1.5-1,1.9-1
							c0.4,0,0.6,0.1,0.8,0.2L175.9,100.1z"/>
						<path class="st5" d="M65.1,106.1c-1.2,0-1.7-0.6-1.7-1.7v-4.5h-1.1V99h1.1v-1.5l1.1-0.4V99h2l-0.4,0.9h-1.6v4.4
							c0,0.6,0.2,0.9,0.9,0.9c0.5,0,0.9-0.2,1-0.2l0.3,0.8C66.6,105.8,66,106.1,65.1,106.1"/>
						<path class="st5" d="M70.1,106.1c-1.2,0-1.7-0.6-1.7-1.7v-4.5h-1.1V99h1.1v-1.5l1.1-0.4V99h2l-0.4,0.9h-1.6v4.4
							c0,0.6,0.2,0.9,0.9,0.9c0.5,0,0.9-0.2,1-0.2l0.3,0.8C71.6,105.8,71,106.1,70.1,106.1"/>
						<path class="st5" d="M126.9,106.1c-1.2,0-1.7-0.6-1.7-1.7v-4.5H124V99h1.1v-1.5l1.1-0.4V99h2.1l-0.4,0.9h-1.8v4.4
							c0,0.6,0.2,0.9,0.9,0.9c0.5,0,0.9-0.2,1-0.2l0.3,0.8C128.4,105.8,127.8,106.1,126.9,106.1"/>
						<path class="st5" d="M148.1,106.1c-1.2,0-1.7-0.6-1.7-1.7v-4.5h-1.1V99h1.1v-1.5l1.1-0.4V99h2.1l-0.4,0.9h-1.8v4.4
							c0,0.6,0.2,0.9,0.9,0.9c0.5,0,0.9-0.2,1-0.2l0.3,0.8C149.6,105.8,149,106.1,148.1,106.1"/>
						<path class="st5" d="M118.8,99v-1.1c0-0.9,0.3-1.5,1.6-1.5c0.7,0,1.2,0.3,1.4,0.3l0.3-0.9c-0.1,0-0.8-0.3-1.8-0.3
							c-1.5,0-2.5,0.7-2.5,2.3V99h-0.9v0.9h0.9v6.1h1.1v-6.1h2.6v6.1h1.1v-7H118.8z"/>
						<polygon class="st5" points="181.7,106 178.7,102.3 178.6,102.3 178.6,106 177.6,106 177.6,95.5 178.6,95.5 178.6,101.5 
							178.7,101.5 181.2,99 182.6,99 179.6,101.8 183,106 						"/>
						<path class="st5" d="M184.8,106.1c-0.5,0-0.8-0.4-0.8-0.8c0-0.5,0.3-0.8,0.8-0.8c0.5,0,0.8,0.4,0.8,0.8
							C185.6,105.8,185.3,106.1,184.8,106.1"/>
						<path class="st5" d="M105.8,87.7c14.4,0,17.7-9.4,17.7-15.8v-19h-10.6v18.3c0,5-2.8,7.2-7,7.2c-4.2,0-7.1-2.2-7.1-7.2V52.9
							H88.1v19C88.1,78.3,91.3,87.7,105.8,87.7"/>
						<path class="st5" d="M26.7,87.7c14.4,0,17.7-9.4,17.7-15.8v-19H33.7v18.3c0,5-2.8,7.2-7,7.2c-4.2,0-7.1-2.2-7.1-7.2V52.9H9v19
							C9,78.3,12.2,87.7,26.7,87.7"/>
						<path class="st5" d="M66.2,51.6c-14.4,0-17.7,9.4-17.7,15.8v19h10.6V68.1c0-5,2.8-7.2,7.1-7.2c4.2,0,7,2.2,7,7.2v18.3h10.6
							v-19C83.9,60.9,80.7,51.6,66.2,51.6"/>
						<path class="st5" d="M155.3,56.9c-0.5-0.6-3.2-5.4-11.9-5.4c-8.9,0-15.9,4.4-15.9,15.1v19.7H138V66.7c0-3.4,1.8-6.1,6.1-6.1
							c4.3,0,6.1,2.6,6.1,6.1v19.7h10.4V66.7c0-3.4,1.8-6.1,6.1-6.1c4.3,0,6.1,2.6,6.1,6.1v19.7h10.4V66.7c0-10.7-7-15.1-15.8-15.1
							C158.5,51.6,155.8,56.3,155.3,56.9"/>
						<path class="st6" d="M57.5,38.8c0,4.8,3.9,8.6,8.7,8.6c4.8,0,8.6-3.7,8.6-8.6c0-4.8-3.8-8.6-8.6-8.6
							C61.3,30.2,57.5,33.9,57.5,38.8"/>
						<path class="st6" d="M97,38.8c0,4.8,3.9,8.6,8.8,8.6c4.8,0,8.6-3.7,8.6-8.6c0-4.8-3.8-8.6-8.6-8.6C100.9,30.2,97,33.9,97,38.8
							"/>
						<path class="st6" d="M146.6,38.8c0,4.8,3.9,8.6,8.8,8.6c4.8,0,8.6-3.7,8.6-8.6c0-4.8-3.8-8.6-8.6-8.6
							C150.5,30.2,146.6,33.9,146.6,38.8"/>
						<path class="st5" d="M186.3,58.1c-2,0-3.7-1.6-3.7-3.7c0-2,1.6-3.7,3.7-3.7c2,0,3.7,1.7,3.7,3.7
							C190,56.5,188.3,58.1,186.3,58.1 M186.3,51.3c-1.7,0-3.1,1.4-3.1,3.2c0,1.7,1.4,3.1,3.1,3.1c1.7,0,3.1-1.4,3.1-3.1
							C189.4,52.7,188,51.3,186.3,51.3 M187.1,56.5l-1.3-1.9h-0.1v1.9h-0.6v-4.1c0.3-0.1,0.7-0.2,1.1-0.2c0.9,0,1.5,0.5,1.5,1.2
							c0,0.7-0.5,1.1-1.2,1.2l1.4,2H187.1z M186.1,52.6c-0.2,0-0.3,0-0.4,0.1v1.5h0.3c0.6,0,1-0.2,1-0.8
							C187,52.8,186.5,52.6,186.1,52.6"/>
					</g>
				</g>
			</g>
		</g>
	</g>
</g>
<g>
	<path d="M79.4,15.4h-1.3V7c0-0.7,0-1.4,0.1-2c-0.1,0.1-0.2,0.2-0.4,0.4C77.6,5.5,77,6,75.8,6.9L75.1,6l3.1-2.4h1.1V15.4z"/>
	<path d="M88.7,4.2c0-0.3,0.1-0.5,0.2-0.7c0.2-0.1,0.3-0.2,0.6-0.2c0.2,0,0.4,0.1,0.6,0.2c0.2,0.1,0.2,0.4,0.2,0.7
		c0,0.3-0.1,0.5-0.2,0.7C89.9,5,89.7,5,89.5,5C89.2,5,89,5,88.9,4.8C88.7,4.7,88.7,4.5,88.7,4.2z M90.1,15.4h-1.3V6.5h1.3V15.4z"/>
	<path d="M99,15.4V9.7c0-0.7-0.2-1.3-0.5-1.6c-0.3-0.4-0.8-0.5-1.5-0.5c-0.9,0-1.6,0.2-2,0.8c-0.4,0.5-0.6,1.3-0.6,2.5v4.6H93V6.5
		H94l0.2,1.2h0.1c0.3-0.4,0.7-0.8,1.2-1c0.5-0.2,1-0.4,1.7-0.4c1.1,0,1.9,0.3,2.4,0.8c0.5,0.5,0.8,1.3,0.8,2.5v5.8H99z"/>
	<path d="M106.6,15.6c-1.3,0-2.3-0.4-3-1.2c-0.7-0.8-1.1-1.9-1.1-3.3c0-1.5,0.4-2.6,1.1-3.4c0.7-0.8,1.7-1.2,3-1.2
		c0.4,0,0.9,0,1.3,0.1c0.4,0.1,0.8,0.2,1,0.3L108.6,8c-0.3-0.1-0.6-0.2-1-0.3c-0.4-0.1-0.7-0.1-0.9-0.1c-1.8,0-2.7,1.1-2.7,3.4
		c0,1.1,0.2,1.9,0.7,2.5c0.4,0.6,1.1,0.9,1.9,0.9c0.7,0,1.5-0.2,2.3-0.5v1.2C108.3,15.4,107.5,15.6,106.6,15.6z"/>
	<path d="M117,15.4V9.7c0-0.7-0.2-1.3-0.5-1.6c-0.3-0.4-0.8-0.5-1.5-0.5c-0.9,0-1.6,0.3-2,0.8c-0.4,0.5-0.6,1.3-0.6,2.5v4.6H111V2.8
		h1.3v3.8c0,0.5,0,0.8-0.1,1.1h0.1c0.3-0.4,0.6-0.8,1.1-1s1-0.4,1.7-0.4c1.1,0,1.9,0.3,2.4,0.8c0.5,0.5,0.8,1.3,0.8,2.5v5.8H117z"/>
</g>
</svg>
