<svg xmlns="http://www.w3.org/2000/svg" width="249.477" height="97.51" viewBox="0 0 249.477 97.51"><g transform="translate(-706 -2374.626)"><g transform="translate(830.738 2423.381)"><g transform="translate(-124.738 -48.755)"><path d="M20.1,25.5v.7H209.3v8.378H20.1v.465H209.767V25.5H20.1Z" transform="translate(26.677 33.844)" fill="#e2e1e2"/><path d="M74.691,0V88.434H71.665V0H71.2V89.132h3.956V0Z" transform="translate(94.497)" fill="#e2e1e2"/><path d="M58.291,0V88.434H55.5V0h-.7V89.132h4.189V0Z" transform="translate(72.731)" fill="#e2e1e2"/><path d="M41.891,0V88.434H39.1V0h-.7V89.132h3.956V0Z" transform="translate(50.965)" fill="#e2e1e2"/><path d="M212.793,9.4H20.1v.465H212.327v3.025H20.1v.465H212.793V9.4Z" transform="translate(26.677 12.476)" fill="#e2e1e2"/><path d="M107.027,34.815H104.7V25.507h2.56a2.327,2.327,0,0,1,2.56,2.327,2.094,2.094,0,0,1-1.164,2.094h0a2.094,2.094,0,0,1,1.862,2.094C110.285,33.419,109.587,34.815,107.027,34.815Zm0-8.378h-1.164v3.025h1.164a1.629,1.629,0,0,0,1.629-1.629C108.656,27.136,108.191,26.438,107.027,26.438Zm.233,3.956h-1.4v3.258h1.4c1.4,0,2.094-.7,2.094-1.862a1.629,1.629,0,0,0-2.094-1.164Z" transform="translate(138.959 33.837)" fill="#004383"/><path d="M75.454,45.616l-.931-1.4-.931-1.4h0l-.7,1.4-.931,1.4H70.8l2.327-3.258L71.033,39.1H72.2l.931,1.629.7,1.164h0l.7-1.164.931-1.629h1.164l-2.327,3.258,2.327,3.258Z" transform="translate(93.966 51.894)" fill="#19629d"/><path d="M109.354,16.214l-.931-1.629-.931-1.4h0l-.7,1.4-.931,1.629H104.7l2.327-3.724L104.933,9H106.1l.931,1.629.7,1.164h0l.7-1.164L109.354,9h1.164l-2.327,3.491,2.327,3.724Z" transform="translate(138.959 11.945)" fill="#19629d"/><path d="M59.054,45.616l-.931-1.4-.931-1.4h0l-.7,1.4-.931,1.4H54.4l2.327-3.258L54.633,39.1H55.8l.931,1.629.7,1.164h0l.7-1.164.931-1.629h1.164l-2.327,3.258,2.327,3.258Z" transform="translate(72.2 51.894)" fill="#19629d"/><path d="M42.654,45.616l-.931-1.4-.931-1.4h0l-.7,1.4-.931,1.4H38l2.327-3.258L38.233,39.1H39.4l.931,1.629.7,1.164h0l.7-1.164.931-1.629h1.164l-2.327,3.258,2.327,3.258Z" transform="translate(50.434 51.894)" fill="#19629d"/><g transform="translate(55.388 5.349)"><path d="M42.527,38.915H40.2V29.607h2.56a2.327,2.327,0,0,1,2.56,2.327,2.094,2.094,0,0,1-1.164,2.094h0a2.1,2.1,0,0,1,1.862,2.094A3.194,3.194,0,0,1,42.527,38.915Zm0-8.378H41.364v3.025h1.164a1.629,1.629,0,0,0,1.629-1.629,1.812,1.812,0,0,0-1.862-1.4Zm.233,3.956h-1.4v3.258h1.4c1.4,0,2.094-.7,2.094-1.862a1.629,1.629,0,0,0-2.327-1.164Z" transform="translate(-2.034 33.929)" fill="#004383"/><path d="M56.258,32h-.7a2.327,2.327,0,0,0-1.4.7v4.887H53V30.833h.931v.7c.931-.931,1.4-.931,1.862-.931h.7Z" transform="translate(14.954 35.263)" fill="#004383"/><path d="M58.162,39.54,56.3,39.074V29.3h.931v3.491H58.86a3.025,3.025,0,0,1,3.025,3.258,3.491,3.491,0,0,1-3.724,3.491Zm.465-6.051h-1.4v4.654h1.164a2.56,2.56,0,0,0,2.327-2.793,1.836,1.836,0,0,0-1.862-1.862Z" transform="translate(19.334 33.538)" fill="#004383"/><path d="M66.689,37.582V33.625c0-.931-.233-1.862-1.164-1.862a3.491,3.491,0,0,0-2.094.931v4.887H62.5V30.833h.931v.7a3.724,3.724,0,0,1,2.327-.931c.931,0,1.862.7,1.862,2.327v4.422Z" transform="translate(27.563 35.263)" fill="#004383"/><path d="M66.683,34.556a2.094,2.094,0,0,0,2.094,2.327l1.629-.465.465.7a3.956,3.956,0,0,1-2.094.7,3.258,3.258,0,0,1-3.258-3.724c0-1.862,1.164-3.491,2.793-3.491S71.1,32,71.1,34.091H66.683Zm1.629-2.793a1.862,1.862,0,0,0-1.629,1.862h3.258A1.649,1.649,0,0,0,68.312,31.764Z" transform="translate(31.525 35.263)" fill="#004383"/><path d="M60.583,34.556a2.094,2.094,0,0,0,2.094,2.327l1.629-.465.465.7a3.724,3.724,0,0,1-2.095.7,3.258,3.258,0,0,1-3.258-3.724c0-1.862,1.164-3.491,2.793-3.491S65,32,65,34.091H60.583Zm1.629-2.793a1.862,1.862,0,0,0-1.629,1.862h3.258A1.862,1.862,0,0,0,62.212,31.764Z" transform="translate(23.43 35.263)" fill="#004383"/><path d="M51.083,34.556a2.094,2.094,0,0,0,2.095,2.327l1.629-.465.465.7a3.956,3.956,0,0,1-2.094.7,3.258,3.258,0,0,1-3.258-3.723c0-1.862,1.164-3.491,2.793-3.491S55.5,32,55.5,34.091H51.083Zm1.629-2.793a1.862,1.862,0,0,0-1.629,1.862h3.258a1.649,1.649,0,0,0-1.629-1.862Z" transform="translate(10.821 35.263)" fill="#004383"/><path d="M44.548,34.556a2.094,2.094,0,0,0,2.094,2.327l1.629-.465v.7a3.724,3.724,0,0,1-2.094.7,3.258,3.258,0,0,1-3.258-3.724c0-1.862,1.164-3.491,2.793-3.491S48.5,32,48.5,34.091H44.548Zm1.629-2.793a1.862,1.862,0,0,0-1.629,1.862h3.258A1.8,1.8,0,0,0,46.177,31.764Z" transform="translate(1.531 35.263)" fill="#004383"/><path d="M75.594,37.7a3.723,3.723,0,0,1-2.094-.465l.465-.7,1.629.465c.931,0,1.4-.465,1.4-.931s-3.025-1.164-3.025-3.491.7-1.862,2.327-1.862l1.629.465v.931l-1.629-.465c-.7,0-1.164.233-1.164.931s3.025,1.164,3.025,3.258S76.991,37.7,75.594,37.7Z" transform="translate(42.162 35.374)" fill="#004383"/><path d="M81.689,37.457v-.7a2.793,2.793,0,0,1-2.094.7A2.094,2.094,0,0,1,77.5,35.363q0-2.094,2.793-2.094h1.4V32.8a1.164,1.164,0,0,0-1.4-1.4,3.025,3.025,0,0,0-1.862.7l-.465-.7a3.956,3.956,0,0,1,2.327-.7,2.094,2.094,0,0,1,2.327,2.327V35.13a9.774,9.774,0,0,0,.233,2.56ZM81.456,34.2H80.293c-1.164,0-1.862.465-1.862,1.164a1.164,1.164,0,0,0,1.4,1.164,2.327,2.327,0,0,0,1.629-.7Z" transform="translate(47.471 35.388)" fill="#004383"/><path d="M91.047,37.549h-.931L88.487,32.2h0l-1.629,5.353h-.931L83.6,30.8h.931l1.629,5.353h0L87.789,30.8h.931l1.629,5.353h0L91.978,30.8h.931Z" transform="translate(55.567 35.529)" fill="#004383"/><path d="M93.24,36.883a2.822,2.822,0,0,1-4.189,0,4.189,4.189,0,0,1,0-5.353,2.822,2.822,0,0,1,4.189,0A4.189,4.189,0,0,1,93.24,36.883Zm-2.094-5.353c-1.164,0-2.094.931-2.094,2.56s.7,2.56,2.094,2.56,2.094-1.164,2.094-2.56-.7-2.327-2.094-2.327Z" transform="translate(61.519 35.263)" fill="#004383"/><path d="M94.525,32h-.7a2.327,2.327,0,0,0-1.4.7v4.887H91.5V30.833h.931v.7c.931-.931,1.4-.931,1.862-.931h.7Z" transform="translate(66.052 35.263)" fill="#004383"/><path d="M48.593,38.743a1.4,1.4,0,0,1-1.629-1.629V32.693H45.8v-.931h1.164v-1.4l.931-.465v1.862h1.862l-.465.931H47.662v4.189c0,.7.233.931.931.931h.931v.7Z" transform="translate(5.399 34.334)" fill="#004383"/><path d="M50.693,38.743a1.4,1.4,0,0,1-1.629-1.629V32.693H47.9v-.931h1.164v-1.4l.931-.465v1.862h1.862l-.465.931H49.762v4.189c0,.7.233.931.931.931h.931v.7Z" transform="translate(8.186 34.334)" fill="#004383"/><path d="M74.193,38.743a1.4,1.4,0,0,1-1.629-1.629V32.693H71.4v-.931h1.164v-1.4l.931-.465v1.862h2.094l-.465.931H73.495v4.189c0,.7.233.931.931.931h.931v.7Z" transform="translate(39.375 34.334)" fill="#004383"/><path d="M82.893,38.743a1.4,1.4,0,0,1-1.629-1.629V32.693H80.1v-.931h1.164v-1.4l.931-.465v1.862h2.094l-.465.931H82.195v4.189c0,.7.233.931.931.931h.931v.7Z" transform="translate(50.922 34.334)" fill="#004383"/><path d="M70.394,32.666v-.931c0-.931.233-1.4,1.4-1.4h1.4v-.931H71.558a2.094,2.094,0,0,0-2.327,2.327V32.9H68.3v.931h.931v5.818h.931V33.365h2.56v5.818h.931V32.666Z" transform="translate(35.261 33.662)" fill="#004383"/><g transform="translate(162.439 62.838)"><path d="M97.324,39.307l-2.793-3.491h0v3.491H93.6V29.3h.931v5.818h0l2.56-2.327h1.4l-3.025,2.793L98.72,39.54Z" transform="translate(-93.6 -29.3)" fill="#004383"/><path d="M96.965,34.629a.815.815,0,1,1,.815-.815.815.815,0,0,1-.815.815Z" transform="translate(-90.216 -24.389)" fill="#004383"/></g><path d="M73.489,45.212c13.963,0,16.989-9.076,16.989-15.36V11.7H80.238V29.387a6.749,6.749,0,0,1-13.5,0V11.7H56.5V30.085c0,6.283,3.025,15.36,16.989,15.36" transform="translate(19.6 10.179)" fill="#004383"/><path d="M41.021,45.212c13.963,0,16.989-9.076,16.989-15.36V11.7H47.77V29.387a6.051,6.051,0,0,1-6.749,6.982,6.051,6.051,0,0,1-6.749-6.982V11.7H23.8V30.085c0,6.283,3.025,15.36,16.989,15.36" transform="translate(-23.8 10.179)" fill="#004383"/><path d="M57.189,11.1C43.225,11.1,40.2,20.176,40.2,26.46V44.845H50.44V27.158a6.051,6.051,0,0,1,6.749-6.982,6.051,6.051,0,0,1,6.749,6.982V44.845h10.24V26.46c0-6.283-3.025-15.36-16.989-15.36" transform="translate(-2.034 9.383)" fill="#004383"/><path d="M99.43,16.22c-.465-.7-3.025-5.12-11.4-5.12S72.9,15.289,72.9,25.761v18.85H82.907V25.761a5.818,5.818,0,1,1,11.636,0V44.845H104.55V25.761a5.818,5.818,0,0,1,11.636,0V44.845h10.007V25.761c0-10.24-6.749-14.661-15.127-14.661s-10.938,4.654-11.4,5.12" transform="translate(41.366 9.383)" fill="#004383"/><path d="M43.9,10.447A8.378,8.378,0,1,0,52.28,2.3,8.145,8.145,0,0,0,43.9,10.447" transform="translate(2.875 -2.299)" fill="#465f72"/><path d="M60.2,10.447A8.378,8.378,0,1,0,68.58,2.3,8.145,8.145,0,0,0,60.2,10.447" transform="translate(24.509 -2.299)" fill="#465f72"/><path d="M80.7,10.447A8.378,8.378,0,1,0,89.08,2.3,8.145,8.145,0,0,0,80.7,10.447" transform="translate(51.716 -2.299)" fill="#465f72"/><path d="M99.091,17.782a3.491,3.491,0,1,1,3.491-3.491,3.491,3.491,0,0,1-3.491,3.491Zm0-6.516a3.025,3.025,0,1,0,3.025,3.025,3.025,3.025,0,0,0-3.025-3.025Zm.7,5.12-1.164-1.862h-.233v1.862h-.465V12.2h.931c.931,0,1.4.465,1.4,1.164a1.164,1.164,0,0,1-1.164,1.164l1.4,1.862Zm-.931-3.724h-.465v1.4h.465c.465,0,.931-.233.931-.7S99.324,12.662,98.858,12.662Z" transform="translate(71.494 8.985)" fill="#004383"/></g><path d="M18.9,2.433h0v73.54H30.071v-.465H19.133V2.665H30.071V2.2H18.9Z" transform="translate(25.084 2.92)" fill="#222"/><g transform="translate(0 33.266)"><path d="M9.774,24.54H7.68v3.025h-1.4V24.54H0v-1.4L6.283,14.3H7.913v8.843H9.774Zm-3.258-1.4V16.162h0l-.7,1.4L1.4,23.143Z" transform="translate(0 -14.287)" fill="#1a1818"/><path d="M13.448,21.056a9.542,9.542,0,0,1-1.164,5.12,3.491,3.491,0,0,1-3.258,1.629,3.491,3.491,0,0,1-3.258-1.629A9.309,9.309,0,0,1,4.6,21.289,9.542,9.542,0,0,1,6,15.936a3.491,3.491,0,0,1,3.258-1.629,3.491,3.491,0,0,1,3.258,1.629A9.309,9.309,0,0,1,13.448,21.056Zm-7.214,0a9.542,9.542,0,0,0,.7,4.189,2.269,2.269,0,0,0,4.189,0,9.542,9.542,0,0,0,.7-4.189,9.542,9.542,0,0,0-.7-4.189,2.269,2.269,0,0,0-4.189,0A9.542,9.542,0,0,0,6.233,21.056Z" transform="translate(6.101 -14.295)" fill="#1a1818"/><path d="M13.922,25.944l-1.629-.465-1.4-1.164h0a13.032,13.032,0,0,1,0,1.629V29.9H9.5V15.937h1.164v1.4h0l1.4-1.164,1.629-.465a3.491,3.491,0,0,1,3.025,1.4,5.818,5.818,0,0,1,1.164,3.724,5.818,5.818,0,0,1-1.164,3.724,3.724,3.724,0,0,1-2.793,1.4ZM13.689,17.1a2.56,2.56,0,0,0-2.094.931,4.189,4.189,0,0,0-.7,2.56h0a4.887,4.887,0,0,0,.7,3.025,2.56,2.56,0,0,0,2.094.931,2.327,2.327,0,0,0,2.094-.931,4.887,4.887,0,0,0,.7-2.793,4.654,4.654,0,0,0-.7-2.793,2.327,2.327,0,0,0-2.094-.931Z" transform="translate(12.608 -12.433)" fill="#1a1818"/><path d="M17.291,20.454,13.8,15.8h1.629l2.56,3.724,2.56-3.724h1.629l-3.491,4.654,3.724,5.12H20.782l-2.793-3.956-2.56,3.956H13.8Z" transform="translate(18.315 -12.296)" fill="#1a1818"/></g></g></g></g></svg>