<svg xmlns="http://www.w3.org/2000/svg" width="387.755" height="192.76" viewBox="0 0 387.755 192.76"><g transform="translate(0 0)"><g transform="translate(0 0)" fill="none" stroke="#e7e7e8" stroke-width="1"><rect width="387.755" height="192.76" stroke="none"/><rect x="0.5" y="0.5" width="386.755" height="191.76" fill="none"/></g><g transform="translate(-1003.005 -2970.177)"><g transform="translate(1108.974 3031.267)"><path d="M611.472,1165.649h-1.5v3.4h1.407c1.338,0,2.072-.767,2.072-1.774a1.762,1.762,0,0,0-1.983-1.628Zm-.263-4.126h-1.234v3.168h1.219a1.645,1.645,0,0,0,1.714-1.7c0-.907-.549-1.469-1.7-1.469Zm.09,8.507h-2.376v-9.486h2.491a2.353,2.353,0,0,1,2.631,2.365,2.14,2.14,0,0,1-1.282,2.084v.029a2.227,2.227,0,0,1,1.841,2.228c0,1.277-.761,2.779-3.306,2.779Z" transform="translate(-570.458 -1096.069)" fill="#005393"/><path d="M782.3,1175.8a1.8,1.8,0,0,0-.621-.111,2.368,2.368,0,0,0-1.523.817v5.054h-1.051v-6.807h.957l.051.777c.936-.85,1.451-.954,1.886-.954a1.327,1.327,0,0,1,.747.208l-.447,1.015Z" transform="translate(-710.296 -1107.6)" fill="#005393"/><path d="M825.089,1160.8a2.875,2.875,0,0,0-1.4.342v4.705a2.653,2.653,0,0,0,1.078.187,2.625,2.625,0,0,0,2.4-2.833c0-1.407-.735-2.4-2.084-2.4Zm-.549,6.142a3.59,3.59,0,0,1-1.9-.432v-9.9h1.048v3.521a4.218,4.218,0,0,1,1.542-.317c1.568,0,2.992,1.084,2.992,3.341a3.586,3.586,0,0,1-3.685,3.783Z" transform="translate(-746.069 -1092.837)" fill="#005393"/><path d="M908.815,1181.56v-4.191c0-.845-.144-1.8-1.18-1.8a3.493,3.493,0,0,0-2.11,1.041v4.95H904.47v-6.807h.954l.059.816a3.873,3.873,0,0,1,2.429-.993c.973,0,1.956.71,1.956,2.4v4.579Z" transform="translate(-813.304 -1107.6)" fill="#005393"/><path d="M947.681,1175.469a1.771,1.771,0,0,0-1.638,1.973h3.2c0-.947-.529-1.973-1.563-1.973Zm-1.655,2.865a2.234,2.234,0,0,0,2.213,2.458,3.294,3.294,0,0,0,1.656-.5l.356.789a3.916,3.916,0,0,1-2.142.623c-2.166,0-3.2-1.746-3.2-3.686,0-1.969,1.121-3.437,2.758-3.437,1.756,0,2.718,1.4,2.718,3.513v.245Z" transform="translate(-846.53 -1107.6)" fill="#005393"/><path d="M866.248,1175.469a1.769,1.769,0,0,0-1.638,1.973h3.207a1.773,1.773,0,0,0-1.569-1.973Zm-1.654,2.865a2.232,2.232,0,0,0,2.212,2.458,3.266,3.266,0,0,0,1.653-.5l.357.789a3.882,3.882,0,0,1-2.14.623c-2.171,0-3.2-1.746-3.2-3.686,0-1.969,1.122-3.437,2.759-3.437,1.757,0,2.721,1.4,2.721,3.513v.245Z" transform="translate(-779.618 -1107.6)" fill="#005393"/><path d="M741.034,1175.469a1.775,1.775,0,0,0-1.642,1.973h3.21c0-.947-.538-1.973-1.567-1.973Zm-1.654,2.865a2.231,2.231,0,0,0,2.216,2.458,3.3,3.3,0,0,0,1.651-.5l.357.789a3.92,3.92,0,0,1-2.139.623c-2.171,0-3.207-1.746-3.207-3.686,0-1.969,1.122-3.437,2.759-3.437,1.752,0,2.719,1.4,2.719,3.513v.245Z" transform="translate(-676.731 -1107.6)" fill="#005393"/><path d="M650.877,1175.469a1.771,1.771,0,0,0-1.64,1.973h3.206c0-.947-.533-1.973-1.566-1.973Zm-1.654,2.865a2.233,2.233,0,0,0,2.216,2.458,3.3,3.3,0,0,0,1.652-.5l.352.789a3.87,3.87,0,0,1-2.135.623c-2.176,0-3.208-1.746-3.208-3.686,0-1.969,1.123-3.437,2.763-3.437,1.756,0,2.715,1.4,2.715,3.513v.245Z" transform="translate(-602.65 -1107.6)" fill="#005393"/><path d="M1052.485,1181.7a3.715,3.715,0,0,1-2.012-.518l.4-.821a3.074,3.074,0,0,0,1.653.49c.835,0,1.439-.378,1.439-1,0-1.666-3.092-1.084-3.092-3.437,0-1,.7-1.832,2.257-1.832a4.07,4.07,0,0,1,1.709.36v.921a4.023,4.023,0,0,0-1.667-.4c-.691,0-1.263.249-1.263.868,0,1.522,3.143,1.133,3.143,3.362,0,1.426-1.119,2.016-2.571,2.016Z" transform="translate(-933.273 -1107.6)" fill="#005393"/><path d="M1105.477,1178.3l-1.275.039c-1.267.043-1.785.457-1.785,1.253a1.187,1.187,0,0,0,1.324,1.205,2.314,2.314,0,0,0,1.736-.774V1178.3Zm.335,3.265-.278-.669a2.869,2.869,0,0,1-2.081.809,2.028,2.028,0,0,1-2.088-2.084c0-1.336.936-2.16,2.728-2.218l1.383-.043v-.432a1.268,1.268,0,0,0-1.433-1.437,3,3,0,0,0-1.815.638l-.432-.767a3.91,3.91,0,0,1,2.355-.781,2.086,2.086,0,0,1,2.379,2.3v2.074a9.97,9.97,0,0,0,.141,2.606Z" transform="translate(-975.091 -1107.6)" fill="#005393"/><path d="M1190.441,1182.412h-.979l-1.668-5.435h-.043l-1.7,5.435h-.96l-2.247-6.846h1.09l1.639,5.349h.05l1.652-5.349h1.03l1.649,5.363h.039l1.605-5.363h1.055l-2.213,6.846Z" transform="translate(-1042.041 -1108.412)" fill="#005393"/><path d="M1246.37,1175.469c-1.285,0-2.013,1.037-2.013,2.653s.756,2.671,2.027,2.671,2.027-1.065,2.027-2.671-.738-2.653-2.041-2.653Zm2.139,5.382a2.921,2.921,0,0,1-2.154.85,2.836,2.836,0,0,1-2.113-.839,4.309,4.309,0,0,1,0-5.407,2.892,2.892,0,0,1,2.128-.878,2.922,2.922,0,0,1,2.156.878,4.288,4.288,0,0,1-.017,5.4Z" transform="translate(-1091.706 -1107.6)" fill="#005393"/><path d="M1290.611,1175.8a1.789,1.789,0,0,0-.62-.111,2.346,2.346,0,0,0-1.519.817v5.054h-1.055v-6.807h.951l.061.777c.935-.85,1.45-.954,1.875-.954a1.356,1.356,0,0,1,.753.208l-.447,1.015Z" transform="translate(-1127.967 -1107.6)" fill="#005393"/><path d="M687.213,1173.969a1.481,1.481,0,0,1-1.678-1.649v-4.435h-1.108v-.864h1.108v-1.49l1.051-.364v1.854H688.5l-.373.864h-1.541v4.294c0,.6.2.882.9.882a2.65,2.65,0,0,0,1.013-.227l.286.77a3.554,3.554,0,0,1-1.573.364Z" transform="translate(-632.498 -1099.869)" fill="#005393"/><path d="M714.422,1173.969a1.483,1.483,0,0,1-1.679-1.649v-4.435h-1.105v-.864h1.105v-1.49l1.053-.364v1.854h1.911l-.37.864H713.8v4.294c0,.6.2.882.9.882a2.6,2.6,0,0,0,1.012-.227l.295.77a3.617,3.617,0,0,1-1.579.364Z" transform="translate(-654.857 -1099.869)" fill="#005393"/><path d="M1024.651,1173.969a1.482,1.482,0,0,1-1.678-1.649v-4.435h-1.109v-.864h1.109v-1.49l1.048-.364v1.854h2.083l-.374.864h-1.709v4.294c0,.6.2.882.9.882a2.632,2.632,0,0,0,1.012-.227l.291.77a3.559,3.559,0,0,1-1.573.364Z" transform="translate(-909.765 -1099.869)" fill="#005393"/><path d="M1140.607,1173.969a1.482,1.482,0,0,1-1.678-1.649v-4.435h-1.105v-.864h1.105v-1.49l1.051-.364v1.854h2.078l-.372.864h-1.706v4.294c0,.6.205.882.9.882a2.592,2.592,0,0,0,1.012-.227l.291.77a3.576,3.576,0,0,1-1.577.364Z" transform="translate(-1005.048 -1099.869)" fill="#005393"/><path d="M984.464,1160.026v-1.048c0-.842.339-1.45,1.522-1.45a3.473,3.473,0,0,1,1.336.3l.266-.864a4.994,4.994,0,0,0-1.756-.317,2.111,2.111,0,0,0-2.416,2.268v1.109h-.857v.864h.857v5.933h1.048v-5.933h2.581v5.933h1.048v-6.8Z" transform="translate(-877.469 -1092.869)" fill="#005393"/><path d="M1318.437,1166.8l-2.923-3.546h-.014v3.546h-1.048V1156.61h1.048v5.781h.014l2.509-2.4h1.36l-2.991,2.775,3.384,4.032Z" transform="translate(-1150.181 -1092.837)" fill="#005393"/><path d="M1350.537,1207.177a.807.807,0,0,1,0-1.613.807.807,0,0,1,0,1.613Z" transform="translate(-1179.193 -1133.062)" fill="#005393"/><path d="M842.672,957.02c14.062,0,17.231-9.163,17.231-15.456V923.038H849.535v17.82c0,4.886-2.738,7.021-6.863,7.021s-6.871-2.135-6.871-7.021v-17.82H825.433v18.526c0,6.292,3.167,15.456,17.239,15.456" transform="translate(-748.361 -900.914)" fill="#005393"/><path d="M410.45,957.02c14.066,0,17.234-9.163,17.234-15.456V923.038H417.318v17.82c0,4.886-2.74,7.021-6.868,7.021s-6.874-2.135-6.874-7.021v-17.82H393.209v18.526c0,6.292,3.177,15.456,17.241,15.456" transform="translate(-393.209 -900.914)" fill="#005393"/><path d="M626.553,915.818c-14.068,0-17.242,9.162-17.242,15.453V949.8h10.37V931.973c0-4.874,2.739-7.014,6.872-7.014s6.866,2.141,6.866,7.014V949.8h10.368V931.271c0-6.291-3.172-15.453-17.234-15.453" transform="translate(-570.777 -894.982)" fill="#005393"/><path d="M1068.53,921.067c-.447-.6-3.091-5.249-11.575-5.249-8.64,0-15.445,4.324-15.445,14.771V949.8h10.135V930.57c0-3.367,1.721-5.947,5.9-5.947s5.909,2.58,5.909,5.947V949.8H1073.6V930.57c0-3.367,1.715-5.947,5.9-5.947s5.909,2.58,5.909,5.947V949.8h10.129V930.588c0-10.446-6.806-14.771-15.443-14.771-8.471,0-11.122,4.651-11.566,5.249" transform="translate(-925.908 -894.982)" fill="#005393"/><path d="M658.188,807.316a8.466,8.466,0,1,0,8.522-8.349,8.344,8.344,0,0,0-8.522,8.349" transform="translate(-610.938 -798.967)" fill="#5e88a1"/><path d="M874.252,807.316a8.468,8.468,0,1,0,8.529-8.349,8.348,8.348,0,0,0-8.529,8.349" transform="translate(-788.475 -798.967)" fill="#5e88a1"/><path d="M1145.218,807.316a8.468,8.468,0,1,0,8.529-8.349,8.348,8.348,0,0,0-8.529,8.349" transform="translate(-1011.124 -798.967)" fill="#5e88a1"/><path d="M1345.479,913.279a1.538,1.538,0,0,0-.4.06v1.48h.313c.555,0,.989-.2.989-.82,0-.578-.5-.72-.9-.72Zm1,3.789L1345.2,915.2h-.122v1.863h-.576v-4.051a2.434,2.434,0,0,1,1.029-.215c.849,0,1.444.478,1.444,1.2a1.155,1.155,0,0,1-1.161,1.163l1.363,1.906Zm-.809-5.105a3.064,3.064,0,1,0,3.041,3.078,3.06,3.06,0,0,0-3.041-3.078Zm0,6.655a3.587,3.587,0,1,1,3.576-3.577,3.567,3.567,0,0,1-3.576,3.577Z" transform="translate(-1172.893 -891.388)" fill="#005393"/></g></g></g></svg>