<svg xmlns="http://www.w3.org/2000/svg" xmlns:xlink="http://www.w3.org/1999/xlink" width="387.604" height="193.475" viewBox="0 0 387.604 193.475"><defs><clipPath id="a"><rect width="171.905" height="54.69" fill="none"/></clipPath><clipPath id="b"><rect width="171.905" height="54.691" fill="none"/></clipPath></defs><g transform="translate(0 0)" fill="none" stroke="#e7e7e8" stroke-width="1"><rect width="387.604" height="193.475" stroke="none"/><rect x="0.5" y="0.5" width="386.604" height="192.475" fill="none"/></g><g transform="translate(-285.496 -86.634)"><g transform="translate(393.208 156.966)"><g transform="translate(0)" clip-path="url(#a)"><g transform="translate(0 -0.001)"><g clip-path="url(#b)"><path d="M846.982,315.526c13.707,0,16.8-8.932,16.8-15.066V282.4H853.672v17.369c0,4.764-2.669,6.847-6.69,6.847s-6.7-2.083-6.7-6.847V282.4H830.178v18.059c0,6.134,3.087,15.066,16.8,15.066" transform="translate(-755.05 -260.835)" fill="#015294"/><path d="M410.015,315.526c13.711,0,16.8-8.932,16.8-15.066V282.4h-10.1v17.369c0,4.764-2.671,6.847-6.695,6.847s-6.7-2.083-6.7-6.847V282.4h-10.1v18.059c0,6.134,3.1,15.066,16.806,15.066" transform="translate(-393.209 -260.835)" fill="#015294"/><path d="M628.485,275.1c-13.714,0-16.808,8.932-16.808,15.063v18.059h10.109V290.848c0-4.752,2.671-6.84,6.7-6.84s6.693,2.087,6.693,6.84v17.374h10.106V290.163c0-6.132-3.092-15.063-16.8-15.063" transform="translate(-574.116 -254.788)" fill="#015294"/><path d="M1074.959,280.212c-.434-.582-3.014-5.118-11.284-5.118-8.421,0-15.056,4.216-15.056,14.4v18.726h9.881V289.475c0-3.281,1.676-5.8,5.755-5.8s5.761,2.515,5.761,5.8v18.744h9.881V289.475c0-3.281,1.671-5.8,5.754-5.8s5.761,2.515,5.761,5.8v18.744h9.875V289.494c0-10.182-6.635-14.4-15.054-14.4-8.258,0-10.842,4.536-11.274,5.118" transform="translate(-935.934 -254.784)" fill="#015294"/><path d="M661.1,165.1a8.253,8.253,0,1,0,8.306-8.139A8.134,8.134,0,0,0,661.1,165.1" transform="translate(-615.039 -156.965)" fill="#5e88a1"/><path d="M879.531,165.1a8.254,8.254,0,1,0,8.313-8.139,8.138,8.138,0,0,0-8.313,8.139" transform="translate(-795.917 -156.965)" fill="#5e88a1"/><path d="M1153.47,165.1a8.254,8.254,0,1,0,8.313-8.139,8.138,8.138,0,0,0-8.313,8.139" transform="translate(-1022.758 -156.965)" fill="#5e88a1"/><path d="M1355.988,277.67a3.5,3.5,0,1,1,3.485-3.488,3.478,3.478,0,0,1-3.485,3.488m0-6.488a2.986,2.986,0,1,0,2.966,3,2.982,2.982,0,0,0-2.966-3m.788,4.975-1.25-1.816h-.117v1.816h-.563V272.21a2.382,2.382,0,0,1,1-.212c.828,0,1.407.467,1.407,1.168a1.124,1.124,0,0,1-1.131,1.133l1.329,1.858Zm-.975-3.692a1.564,1.564,0,0,0-.393.057v1.444h.3c.543,0,.966-.2.966-.8,0-.563-.483-.7-.876-.7" transform="translate(-1187.569 -251.125)" fill="#015294"/></g></g></g></g></g></svg>