<svg xmlns="http://www.w3.org/2000/svg" width="180" height="118.021" viewBox="0 0 180 118.021"><g transform="translate(-940.5 -2531.684)"><path d="M5104.974,1997.646v-11.68h168.952v11.68" transform="translate(-4161 568.841)" fill="none" stroke="#707070" stroke-width="1"/><path d="M5.586,0H4.32V-8.141q0-1.016.063-1.922-.164.164-.367.344T2.156-8.2l-.687-.891,3.023-2.336H5.586ZM15.977,0h-1.3V-8.562h1.3ZM14.57-10.883a.861.861,0,0,1,.219-.652.764.764,0,0,1,.547-.207.764.764,0,0,1,.539.211.846.846,0,0,1,.227.648.859.859,0,0,1-.227.652.757.757,0,0,1-.539.215.749.749,0,0,1-.547-.215A.877.877,0,0,1,14.57-10.883ZM24.586,0V-5.539A2.235,2.235,0,0,0,24.109-7.1a1.941,1.941,0,0,0-1.492-.516,2.461,2.461,0,0,0-1.969.727,3.668,3.668,0,0,0-.625,2.4V0h-1.3V-8.562h1.055l.211,1.172h.063a2.648,2.648,0,0,1,1.117-.98,3.63,3.63,0,0,1,1.6-.348,3.252,3.252,0,0,1,2.328.746,3.175,3.175,0,0,1,.781,2.387V0Zm7.383.156A3.654,3.654,0,0,1,29.09-.988a4.707,4.707,0,0,1-1.02-3.238,4.853,4.853,0,0,1,1.035-3.32,3.727,3.727,0,0,1,2.949-1.172,5.852,5.852,0,0,1,1.234.133,4.066,4.066,0,0,1,.969.313l-.4,1.1a6.1,6.1,0,0,0-.937-.285,4.186,4.186,0,0,0-.9-.113q-2.609,0-2.609,3.328a3.963,3.963,0,0,0,.637,2.422,2.215,2.215,0,0,0,1.887.844,5.769,5.769,0,0,0,2.2-.461V-.289A4.679,4.679,0,0,1,31.969.156ZM42.023,0V-5.539A2.235,2.235,0,0,0,41.547-7.1a1.941,1.941,0,0,0-1.492-.516,2.445,2.445,0,0,0-1.973.734,3.72,3.72,0,0,0-.621,2.406V0h-1.3V-12.156h1.3v3.68a8.017,8.017,0,0,1-.062,1.1h.078a2.645,2.645,0,0,1,1.09-.973A3.543,3.543,0,0,1,40.18-8.7a3.3,3.3,0,0,1,2.355.746,3.142,3.142,0,0,1,.785,2.371V0Z" transform="translate(1006 2543.841)" fill="#525252"/><g transform="translate(146 -169)"><line y2="89.364" transform="translate(831.5 2729.341)" fill="none" stroke="#add9dc" stroke-width="0.5"/><line y2="89.364" transform="translate(870.5 2729.341)" fill="none" stroke="#add9dc" stroke-width="0.5"/><line y2="89.364" transform="translate(909.5 2729.341)" fill="none" stroke="#add9dc" stroke-width="0.5"/><line y2="89.364" transform="translate(835.5 2729.341)" fill="none" stroke="#add9dc" stroke-width="0.5"/><line y2="89.364" transform="translate(874.5 2729.341)" fill="none" stroke="#add9dc" stroke-width="0.5"/><line y2="89.364" transform="translate(913.5 2729.341)" fill="none" stroke="#add9dc" stroke-width="0.5"/><line x1="179" transform="translate(794.5 2792.023)" fill="none" stroke="#add9dc" stroke-width="0.5"/><line x1="179" transform="translate(794.5 2753.023)" fill="none" stroke="#add9dc" stroke-width="0.5"/><line x1="179" transform="translate(794.5 2800.023)" fill="none" stroke="#add9dc" stroke-width="0.5"/><line x1="179" transform="translate(794.5 2758.023)" fill="none" stroke="#add9dc" stroke-width="0.5"/><g transform="translate(403.765 1937.3)"><path d="M611.489,1165.683h-1.506v3.425H611.4c1.347,0,2.086-.772,2.086-1.786a1.774,1.774,0,0,0-2-1.638Zm-.264-4.153h-1.242v3.189h1.227a1.656,1.656,0,0,0,1.725-1.71c0-.913-.553-1.479-1.71-1.479Zm.09,8.563h-2.392v-9.549h2.508a2.368,2.368,0,0,1,2.649,2.381,2.154,2.154,0,0,1-1.29,2.1v.029a2.242,2.242,0,0,1,1.854,2.243c0,1.286-.766,2.8-3.328,2.8Z" transform="translate(-176.993 -296.674)" fill="#005393"/><path d="M782.323,1175.808a1.807,1.807,0,0,0-.625-.111,2.384,2.384,0,0,0-1.533.822v5.088h-1.058v-6.852h.963l.051.782c.943-.855,1.461-.96,1.9-.96a1.338,1.338,0,0,1,.752.21l-.45,1.022Z" transform="translate(-316.629 -308.188)" fill="#005393"/><path d="M825.105,1160.824a2.894,2.894,0,0,0-1.406.344v4.737a2.671,2.671,0,0,0,1.085.188,2.642,2.642,0,0,0,2.419-2.852c0-1.417-.74-2.417-2.1-2.417Zm-.552,6.183a3.617,3.617,0,0,1-1.909-.435v-9.962H823.7v3.544a4.244,4.244,0,0,1,1.552-.319c1.579,0,3.012,1.091,3.012,3.363a3.61,3.61,0,0,1-3.71,3.808Z" transform="translate(-352.351 -293.446)" fill="#005393"/><path d="M908.844,1181.607v-4.218c0-.851-.145-1.812-1.188-1.812a3.517,3.517,0,0,0-2.124,1.048v4.983H904.47v-6.852h.96l.059.822a3.9,3.9,0,0,1,2.445-1c.98,0,1.969.714,1.969,2.421v4.609Z" transform="translate(-419.489 -308.188)" fill="#005393"/><path d="M947.7,1175.475a1.783,1.783,0,0,0-1.649,1.986h3.222c0-.953-.532-1.986-1.573-1.986Zm-1.666,2.885a2.249,2.249,0,0,0,2.228,2.475,3.316,3.316,0,0,0,1.667-.508l.358.794a3.941,3.941,0,0,1-2.156.627c-2.181,0-3.225-1.757-3.225-3.711,0-1.982,1.128-3.46,2.776-3.46,1.768,0,2.736,1.413,2.736,3.536v.247Z" transform="translate(-452.667 -308.188)" fill="#005393"/><path d="M866.267,1175.475a1.781,1.781,0,0,0-1.648,1.986h3.228a1.785,1.785,0,0,0-1.58-1.986Zm-1.665,2.885a2.247,2.247,0,0,0,2.227,2.475,3.287,3.287,0,0,0,1.664-.508l.359.794a3.907,3.907,0,0,1-2.154.627c-2.185,0-3.225-1.757-3.225-3.711,0-1.982,1.129-3.46,2.778-3.46,1.769,0,2.739,1.413,2.739,3.536v.247Z" transform="translate(-385.851 -308.188)" fill="#005393"/><path d="M741.053,1175.475a1.786,1.786,0,0,0-1.653,1.986h3.231c0-.953-.542-1.986-1.578-1.986Zm-1.665,2.885a2.246,2.246,0,0,0,2.23,2.475,3.324,3.324,0,0,0,1.662-.508l.36.794a3.946,3.946,0,0,1-2.153.627c-2.185,0-3.229-1.757-3.229-3.711,0-1.982,1.129-3.46,2.778-3.46,1.763,0,2.737,1.413,2.737,3.536v.247Z" transform="translate(-283.113 -308.188)" fill="#005393"/><path d="M650.9,1175.475a1.783,1.783,0,0,0-1.651,1.986h3.227c0-.953-.537-1.986-1.577-1.986Zm-1.665,2.885a2.247,2.247,0,0,0,2.231,2.475,3.325,3.325,0,0,0,1.664-.508l.355.794a3.9,3.9,0,0,1-2.149.627c-2.19,0-3.23-1.757-3.23-3.711,0-1.982,1.13-3.46,2.781-3.46,1.768,0,2.734,1.413,2.734,3.536v.247Z" transform="translate(-209.138 -308.188)" fill="#005393"/><path d="M1052.5,1181.748a3.739,3.739,0,0,1-2.025-.522l.406-.827a3.094,3.094,0,0,0,1.664.493c.84,0,1.449-.38,1.449-1.011,0-1.677-3.113-1.091-3.113-3.46,0-1.011.706-1.844,2.272-1.844a4.1,4.1,0,0,1,1.72.362v.927a4.05,4.05,0,0,0-1.678-.406c-.7,0-1.272.25-1.272.874,0,1.533,3.164,1.141,3.164,3.384,0,1.435-1.127,2.03-2.588,2.03Z" transform="translate(-539.284 -308.188)" fill="#005393"/><path d="M1105.5,1178.321l-1.283.039c-1.275.044-1.8.46-1.8,1.261a1.2,1.2,0,0,0,1.333,1.214,2.329,2.329,0,0,0,1.747-.779v-1.735Zm.337,3.286-.279-.673a2.888,2.888,0,0,1-2.095.815,2.041,2.041,0,0,1-2.1-2.1c0-1.345.943-2.175,2.746-2.233l1.392-.043v-.435a1.276,1.276,0,0,0-1.442-1.447,3.025,3.025,0,0,0-1.827.643l-.435-.772a3.936,3.936,0,0,1,2.37-.786,2.1,2.1,0,0,1,2.4,2.319v2.088a10.024,10.024,0,0,0,.141,2.623Z" transform="translate(-581.042 -308.188)" fill="#005393"/><path d="M1190.491,1182.457h-.985l-1.679-5.472h-.043l-1.711,5.472h-.967l-2.262-6.892h1.1l1.65,5.385h.05l1.664-5.385h1.037l1.66,5.4h.039l1.616-5.4h1.062l-2.228,6.892Z" transform="translate(-647.895 -308.999)" fill="#005393"/><path d="M1246.39,1175.475c-1.294,0-2.026,1.044-2.026,2.671s.761,2.688,2.04,2.688,2.04-1.072,2.04-2.688-.743-2.671-2.054-2.671Zm2.153,5.418a2.94,2.94,0,0,1-2.168.855,2.854,2.854,0,0,1-2.127-.845,4.338,4.338,0,0,1,0-5.443,2.912,2.912,0,0,1,2.142-.883,2.942,2.942,0,0,1,2.17.883,4.317,4.317,0,0,1-.017,5.432Z" transform="translate(-697.489 -308.188)" fill="#005393"/><path d="M1290.633,1175.808a1.8,1.8,0,0,0-.624-.111,2.361,2.361,0,0,0-1.529.822v5.088h-1.062v-6.852h.957l.061.782c.942-.855,1.46-.96,1.887-.96a1.367,1.367,0,0,1,.758.21l-.45,1.022Z" transform="translate(-733.697 -308.188)" fill="#005393"/><path d="M687.231,1174.028a1.491,1.491,0,0,1-1.689-1.66V1167.9h-1.116v-.87h1.116v-1.5l1.058-.366v1.866h1.927l-.375.87H686.6v4.323c0,.6.205.888.906.888a2.668,2.668,0,0,0,1.02-.228l.288.775a3.575,3.575,0,0,1-1.584.366Z" transform="translate(-238.944 -300.467)" fill="#005393"/><path d="M714.441,1174.028a1.493,1.493,0,0,1-1.69-1.66V1167.9h-1.113v-.87h1.113v-1.5l1.06-.366v1.866h1.923l-.372.87H713.81v4.323c0,.6.2.888.9.888a2.619,2.619,0,0,0,1.019-.228l.3.775a3.639,3.639,0,0,1-1.589.366Z" transform="translate(-261.271 -300.467)" fill="#005393"/><path d="M1024.669,1174.028a1.492,1.492,0,0,1-1.689-1.66V1167.9h-1.116v-.87h1.116v-1.5l1.055-.366v1.866h2.1l-.377.87h-1.72v4.323c0,.6.206.888.906.888a2.649,2.649,0,0,0,1.019-.228l.293.775a3.582,3.582,0,0,1-1.584.366Z" transform="translate(-515.811 -300.467)" fill="#005393"/><path d="M1140.626,1174.028a1.492,1.492,0,0,1-1.689-1.66V1167.9h-1.113v-.87h1.113v-1.5l1.058-.366v1.866h2.092l-.374.87h-1.717v4.323c0,.6.207.888.906.888a2.611,2.611,0,0,0,1.019-.228l.293.775a3.6,3.6,0,0,1-1.587.366Z" transform="translate(-610.956 -300.467)" fill="#005393"/><path d="M984.476,1160.048v-1.055c0-.847.341-1.459,1.533-1.459a3.494,3.494,0,0,1,1.345.3l.268-.87a5.026,5.026,0,0,0-1.768-.319,2.125,2.125,0,0,0-2.432,2.283v1.116h-.863v.87h.863v5.973h1.055v-5.973h2.6v5.973h1.055v-6.842Z" transform="translate(-483.561 -293.478)" fill="#005393"/><path d="M1318.464,1166.865l-2.942-3.569h-.014v3.569h-1.055V1156.61h1.055v5.82h.014l2.526-2.417h1.369l-3.011,2.794,3.406,4.058Z" transform="translate(-755.879 -293.446)" fill="#005393"/><path d="M1350.543,1207.188a.812.812,0,0,1,0-1.623.812.812,0,0,1,0,1.623Z" transform="translate(-784.849 -333.613)" fill="#005393"/><path d="M842.786,957.246c14.156,0,17.346-9.224,17.346-15.559V923.038H849.7v17.939c0,4.919-2.757,7.068-6.909,7.068s-6.916-2.149-6.916-7.068V923.038H825.433v18.649c0,6.334,3.188,15.559,17.353,15.559" transform="translate(-354.639 -101.8)" fill="#005393"/><path d="M410.565,957.246c14.159,0,17.349-9.224,17.349-15.559V923.038H417.478v17.939c0,4.919-2.758,7.068-6.914,7.068s-6.92-2.149-6.92-7.068V923.038H393.209v18.649c0,6.334,3.2,15.559,17.356,15.559" transform="translate(0 -101.8)" fill="#005393"/><path d="M626.668,915.818c-14.162,0-17.357,9.223-17.357,15.556v18.65H619.75V932.08c0-4.906,2.757-7.061,6.918-7.061s6.911,2.155,6.911,7.061v17.944h10.437v-18.65c0-6.333-3.193-15.556-17.348-15.556" transform="translate(-177.311 -95.876)" fill="#005393"/><path d="M1068.71,921.1c-.45-.6-3.111-5.284-11.652-5.284-8.7,0-15.548,4.353-15.548,14.869v19.337h10.2V930.668c0-3.39,1.732-5.986,5.944-5.986s5.948,2.6,5.948,5.986v19.356h10.205V930.668c0-3.39,1.726-5.986,5.944-5.986s5.948,2.6,5.948,5.986v19.356h10.2V930.687c0-10.516-6.851-14.869-15.546-14.869-8.527,0-11.2,4.682-11.643,5.284" transform="translate(-531.93 -95.876)" fill="#005393"/><path d="M658.188,807.372a8.523,8.523,0,1,0,8.578-8.4,8.4,8.4,0,0,0-8.578,8.4" transform="translate(-217.415)" fill="#5e88a1"/><path d="M874.252,807.372a8.524,8.524,0,1,0,8.586-8.4,8.4,8.4,0,0,0-8.586,8.4" transform="translate(-394.695)" fill="#5e88a1"/><path d="M1145.218,807.372a8.524,8.524,0,1,0,8.585-8.4,8.4,8.4,0,0,0-8.585,8.4" transform="translate(-617.023)" fill="#5e88a1"/><path d="M1345.5,913.292a1.552,1.552,0,0,0-.407.06v1.49h.315c.559,0,1-.205,1-.825,0-.582-.5-.724-.9-.724Zm1.006,3.814-1.29-1.876h-.123v1.876h-.58v-4.078a2.45,2.45,0,0,1,1.036-.217c.855,0,1.454.481,1.454,1.206a1.163,1.163,0,0,1-1.168,1.171l1.373,1.919Zm-.814-5.139a3.084,3.084,0,1,0,3.062,3.1,3.081,3.081,0,0,0-3.062-3.1Zm0,6.7a3.611,3.611,0,1,1,3.6-3.6,3.59,3.59,0,0,1-3.6,3.6Z" transform="translate(-778.559 -92.288)" fill="#005393"/></g></g></g></svg>