<svg xmlns="http://www.w3.org/2000/svg" xmlns:xlink="http://www.w3.org/1999/xlink" width="348.293" height="166.752" viewBox="0 0 348.293 166.752"><defs><clipPath id="a"><rect width="276.564" height="87.989" fill="none"/></clipPath></defs><g transform="translate(-443 -3078.047)"><g transform="translate(443 3076.938)"><g transform="translate(76.53 1.109)"><path d="M20.7,16.745A13.311,13.311,0,1,0,34.014,3.8,12.941,12.941,0,0,0,20.7,16.745" transform="translate(-20.699 9.137)" fill="#c4cbd1"/><path d="M20.7.3A12.941,12.941,0,0,0,34.011,13.241,12.941,12.941,0,0,0,47.321.3H20.7" transform="translate(-20.695 -0.3)" fill="#c4cbd1"/></g><g transform="translate(307.252 80.967)"><path d="M96.781,21.9a13.311,13.311,0,1,0,12.941,13.311A12.941,12.941,0,0,0,96.781,21.9" transform="translate(-83.1 -21.899)" fill="#c4cbd1"/><path d="M103.611,21.9a13.311,13.311,0,0,0,0,26.621V21.9" transform="translate(-63.679 -21.895)" fill="#c4cbd1"/></g><g transform="translate(280.261 126.82)"><path d="M102.418,47.981A13.311,13.311,0,1,0,89.107,60.921a12.941,12.941,0,0,0,13.311-12.941" transform="translate(-75.797 -34.3)" fill="#c4cbd1"/><path d="M102.421,54.811a13.311,13.311,0,1,0-26.621,0h26.621" transform="translate(-75.8 -14.879)" fill="#c4cbd1"/></g><g transform="translate(0.739 80.973)"><path d="M16.745,48.518A13.311,13.311,0,1,0,3.8,35.207,12.941,12.941,0,0,0,16.745,48.518" transform="translate(9.507 -21.897)" fill="#c4cbd1"/><path d="M.2,48.521A12.941,12.941,0,0,0,13.141,35.211,12.941,12.941,0,0,0,.2,21.9V48.521" transform="translate(-0.2 -21.9)" fill="#c4cbd1"/></g><path d="M277.481,11.64V97.478H12.009V11.64H277.481m1.109-.74H10.9V98.218H278.59V10.9Z" transform="translate(29.401 29.342)" fill="#c4cbd1"/><path d="M347.184,1.1V165.65H1.109V1.1H347.184m1.109-.735H0V166.752H348.293V.367Z" transform="translate(0 1.109)" fill="#e2e1e2"/></g><g transform="translate(484.26 3117.643)"><g clip-path="url(#a)"><path d="M857.212,335.693c22.052,0,27.023-14.37,27.023-24.238V282.4H867.975v27.944c0,7.664-4.294,11.015-10.763,11.015s-10.774-3.351-10.774-11.015V282.4h-16.26v29.053c0,9.868,4.967,24.238,27.034,24.238" transform="translate(-709.31 -247.704)" fill="#015294"/><path d="M420.247,335.693c22.059,0,27.027-14.37,27.027-24.238V282.4H431.017v27.944c0,7.664-4.3,11.015-10.771,11.015s-10.781-3.351-10.781-11.015V282.4H393.209v29.053c0,9.868,4.982,24.238,27.037,24.238" transform="translate(-393.209 -247.704)" fill="#015294"/><path d="M638.718,275.1c-22.063,0-27.041,14.369-27.041,24.234v29.053H627.94V300.436c0-7.645,4.3-11,10.778-11s10.767,3.358,10.767,11v27.951h16.259V299.334c0-9.865-4.975-24.234-27.027-24.234" transform="translate(-551.248 -242.422)" fill="#015294"/><path d="M1091,283.328c-.7-.936-4.849-8.233-18.153-8.233-13.548,0-24.223,6.783-24.223,23.165v30.126h15.9V298.23c0-5.278,2.7-9.324,9.258-9.324,6.58,0,9.269,4.047,9.269,9.324v30.156h15.9V298.23c0-5.278,2.689-9.324,9.258-9.324s9.269,4.047,9.269,9.324v30.156h15.886V298.26c0-16.382-10.675-23.165-24.219-23.165-13.286,0-17.443,7.3-18.138,8.233" transform="translate(-867.329 -242.419)" fill="#015294"/><path d="M661.1,170.06a13.278,13.278,0,1,0,13.363-13.094A13.086,13.086,0,0,0,661.1,170.06" transform="translate(-586.998 -156.965)" fill="#5e88a1"/><path d="M879.531,170.06a13.28,13.28,0,1,0,13.374-13.094,13.093,13.093,0,0,0-13.374,13.094" transform="translate(-745.012 -156.965)" fill="#5e88a1"/><path d="M1153.47,170.06a13.28,13.28,0,1,0,13.375-13.094,13.093,13.093,0,0,0-13.375,13.094" transform="translate(-943.178 -156.965)" fill="#5e88a1"/><path d="M1358.111,281.928a5.626,5.626,0,1,1,5.607-5.611,5.6,5.6,0,0,1-5.607,5.611m0-10.438a4.8,4.8,0,1,0,4.771,4.827,4.8,4.8,0,0,0-4.771-4.827m1.269,8-2.012-2.922h-.189v2.922h-.906v-6.351a3.832,3.832,0,0,1,1.617-.341c1.331,0,2.264.751,2.264,1.879a1.808,1.808,0,0,1-1.82,1.823l2.138,2.989Zm-1.568-5.94a2.519,2.519,0,0,0-.632.092v2.323h.488c.873,0,1.553-.322,1.553-1.287,0-.906-.777-1.128-1.409-1.128" transform="translate(-1087.155 -239.222)" fill="#015294"/></g></g></g></svg>