<svg width="271" height="177" viewBox="0 0 271 177" xmlns="http://www.w3.org/2000/svg" xmlns:xlink="http://www.w3.org/1999/xlink"><title>clear-space-tag-logo</title><defs><path id="a" d="M34.457.97v1.127H.997V.97h33.46z"/><path id="c" d="M.355.204h1.127v176.792H.355V.204z"/><path id="e" d="M.766.204h1.127v33.46H.766V.204z"/><path id="g" d="M1.893 33.82H.766V.363h1.127z"/><path id="i" d="M2.125 33.82H.997V.363h1.128z"/><path id="k" d="M270.076.126v1.128H0V.126z"/><path id="m" d="M.282.204h1.127v176.792H.282V.204z"/><path id="o" d="M270.076.076v1.127H0V.076h270.075z"/></defs><g fill="none" fill-rule="evenodd"><path d="M20.703 143.46c10.41 0 12.756-6.765 12.756-11.41v-13.677h-7.674v13.156c0 3.606-2.027 5.183-5.082 5.183-3.059 0-5.087-1.577-5.087-5.183v-13.156H7.941v13.678c0 4.644 2.35 11.41 12.762 11.41m0-84.788c10.41 0 12.756-6.764 12.756-11.408V33.587h-7.674v13.155c0 3.607-2.027 5.183-5.082 5.183-3.059 0-5.087-1.576-5.087-5.183V33.587H7.941v13.678c0 4.644 2.35 11.408 12.762 11.408M46.22 168.548c10.412 0 12.757-6.765 12.757-11.409v-13.68h-7.674v13.157c0 3.607-2.027 5.183-5.082 5.183-3.059 0-5.087-1.576-5.087-5.183V143.46H33.46v13.679c0 4.644 2.35 11.409 12.762 11.409m177.758 0c10.411 0 12.756-6.765 12.756-11.409v-13.68h-7.674v13.157c0 3.607-2.028 5.183-5.082 5.183-3.06 0-5.087-1.576-5.087-5.183V143.46h-7.674v13.679c0 4.644 2.349 11.409 12.761 11.409m25.399-109.875c10.41 0 12.755-6.764 12.755-11.408V33.587h-7.673v13.155c0 3.607-2.027 5.183-5.082 5.183-3.059 0-5.088-1.576-5.088-5.183V33.587h-7.674v13.678c0 4.644 2.348 11.408 12.762 11.408m0 84.787c10.41 0 12.755-6.765 12.755-11.41v-13.677h-7.673v13.156c0 3.606-2.027 5.183-5.082 5.183-3.059 0-5.088-1.577-5.088-5.183v-13.156h-7.674v13.678c0 4.644 2.348 11.41 12.762 11.41M223.86 33.587c10.411 0 12.756-6.766 12.756-11.41V8.5h-7.673v13.155c0 3.608-2.029 5.182-5.083 5.182-3.06 0-5.087-1.574-5.087-5.182V8.5H211.1v13.677c0 4.644 2.349 11.41 12.761 11.41m-177.761 0c10.412 0 12.757-6.766 12.757-11.41V8.5h-7.674v13.155c0 3.608-2.027 5.182-5.082 5.182-3.059 0-5.087-1.574-5.087-5.182V8.5H33.34v13.677c0 4.644 2.35 11.41 12.762 11.41" fill="#E4E3E3"/><path stroke="#555659" stroke-width=".5" d="M33.766 143.155H236.31V33.893H33.766z"/><g transform="translate(235.62 32.617)"><mask id="b" fill="#fff"><use xlink:href="#a"/></mask><path d="M34.457.97H.997" stroke="#555659" stroke-width=".35" stroke-dasharray="3.298,3.298" mask="url(#b)"/></g><path d="M236.617 33.587V.127M0 33.587h33.459M0 143.46h33.459m203.158 0h33.459" stroke="#555659" stroke-width=".35" stroke-dasharray="3.298,3.298"/><g transform="translate(58.623 -.077)"><mask id="d" fill="#fff"><use xlink:href="#c"/></mask><path d="M.355.204v176.792" stroke="#555659" stroke-width=".35" stroke-dasharray="2.959,2.959" mask="url(#d)"/></g><g transform="translate(32.694 -.077)"><mask id="f" fill="#fff"><use xlink:href="#e"/></mask><path d="M.766.204v33.46" stroke="#555659" stroke-width=".35" stroke-dasharray="3.298,3.298" mask="url(#f)"/></g><g transform="translate(32.694 143.099)"><mask id="h" fill="#fff"><use xlink:href="#g"/></mask><path d="M.766.362v33.46" stroke="#555659" stroke-width=".35" stroke-dasharray="3.298,3.298" mask="url(#h)"/></g><g transform="translate(235.62 143.099)"><mask id="j" fill="#fff"><use xlink:href="#i"/></mask><path d="M.997.362v33.46" stroke="#555659" stroke-width=".35" stroke-dasharray="3.298,3.298" mask="url(#j)"/></g><g transform="translate(0 58.546)"><mask id="l" fill="#fff"><use xlink:href="#k"/></mask><path d="M270.076.126H.001" stroke="#555659" stroke-width=".35" stroke-dasharray="3.032,3.032" mask="url(#l)"/></g><g transform="translate(210.817 -.077)"><mask id="n" fill="#fff"><use xlink:href="#m"/></mask><path d="M.282.204v176.792" stroke="#555659" stroke-width=".35" stroke-dasharray="2.959,2.959" mask="url(#n)"/></g><g transform="translate(0 118.297)"><mask id="p" fill="#fff"><use xlink:href="#o"/></mask><path d="M270.076.076H.001" stroke="#555659" stroke-width=".35" stroke-dasharray="3.032,3.032" mask="url(#p)"/></g><path d="M100.266 71.008c3.483 0 6.225-2.682 6.225-6.171 0-3.482-2.742-6.166-6.225-6.166-3.518 0-6.31 2.684-6.31 6.166 0 3.49 2.792 6.171 6.31 6.171zm22.213-6.171c0 3.49 2.794 6.171 6.314 6.171 3.484 0 6.22-2.682 6.22-6.171 0-3.482-2.736-6.166-6.22-6.166-3.52 0-6.314 2.684-6.314 6.166m35.769 0c0 3.49 2.794 6.171 6.315 6.171 3.482 0 6.222-2.682 6.222-6.171 0-3.482-2.74-6.166-6.222-6.166-3.521 0-6.315 2.684-6.315 6.166" fill="#5E88A1"/><path d="M128.796 100.097c10.411 0 12.757-6.767 12.757-11.41V75.008h-7.675v13.155c0 3.608-2.027 5.188-5.082 5.188-3.062 0-5.087-1.58-5.087-5.188V75.008h-7.675v13.679c0 4.643 2.345 11.41 12.762 11.41m-57.056 0c10.413 0 12.76-6.767 12.76-11.41V75.008h-7.675v13.155c0 3.608-2.028 5.188-5.085 5.188-3.059 0-5.088-1.58-5.088-5.188V75.008h-7.675v13.679c0 4.643 2.35 11.41 12.763 11.41m15.765-14.632v13.678h7.678v-13.16c0-3.597 2.026-5.18 5.084-5.18s5.082 1.583 5.082 5.18v13.16h7.678V85.465c0-4.644-2.349-11.408-12.76-11.408-10.413 0-12.762 6.764-12.762 11.408zm77.057-7.532c-.332-.442-2.288-3.876-8.57-3.876-6.396 0-11.434 3.192-11.434 10.904v14.182h7.503V84.948c0-2.485 1.273-4.392 4.374-4.392 3.104 0 4.373 1.907 4.373 4.392v14.195h7.504V84.948c0-2.485 1.273-4.392 4.372-4.392 3.102 0 4.374 1.907 4.374 4.392v14.195h7.5V84.96c0-7.712-5.038-10.904-11.432-10.904-6.274 0-8.237 3.434-8.564 3.876M89.905 114.25h-1.411v3.202h1.33c1.261 0 1.951-.718 1.951-1.667 0-.857-.732-1.534-1.87-1.534m-.246-3.888h-1.165v2.981h1.154c.786 0 1.611-.529 1.611-1.6 0-.853-.514-1.38-1.6-1.38m.084 8.008h-2.238v-8.932h2.345c1.694 0 2.481 1.059 2.481 2.227 0 .837-.367 1.598-1.206 1.962v.029c.839.12 1.734.908 1.734 2.099 0 1.206-.718 2.615-3.116 2.615m29.377-5.421a1.584 1.584 0 0 0-.584-.108c-.431 0-.894.258-1.438.771v4.759h-.988v-6.411h.898l.052.731c.88-.798 1.367-.895 1.776-.895.34 0 .581.11.704.19l-.42.963zm6.609-.23c-.678 0-1.03.19-1.315.325v4.432c.285.124.598.177 1.017.177 1.26 0 2.264-1.178 2.264-2.671 0-1.327-.69-2.263-1.966-2.263m-.513 5.788c-.895 0-1.507-.219-1.79-.408v-9.323h.988v3.319c.449-.176.909-.299 1.451-.299 1.48 0 2.82 1.017 2.82 3.145 0 2.25-1.6 3.566-3.47 3.566m16.057-.137v-3.943c0-.8-.135-1.693-1.112-1.693-.787 0-1.505.555-1.993.973v4.663h-.99v-6.41h.898l.051.774c.707-.545 1.397-.937 2.291-.937.922 0 1.845.665 1.845 2.265v4.308h-.99zm5.314-5.734c-.95 0-1.545.842-1.545 1.858h3.024c0-.894-.503-1.858-1.479-1.858zm-1.558 2.7c0 1.22.703 2.316 2.088 2.316.582 0 1.18-.23 1.558-.474l.335.742c-.18.108-.88.587-2.017.587-2.044 0-3.022-1.64-3.022-3.47 0-1.856 1.058-3.241 2.602-3.241 1.654 0 2.563 1.318 2.563 3.309v.23h-4.107zm-12.125-2.7c-.949 0-1.544.842-1.544 1.858h3.022c0-.894-.501-1.858-1.478-1.858zm-1.559 2.7c0 1.22.705 2.316 2.088 2.316.582 0 1.18-.23 1.56-.474l.333.742c-.18.108-.878.587-2.016.587-2.046 0-3.021-1.64-3.021-3.47 0-1.856 1.056-3.241 2.6-3.241 1.657 0 2.563 1.318 2.563 3.309v.23h-4.107zm-19.486-2.7c-.948 0-1.546.842-1.546 1.858h3.023c0-.894-.504-1.858-1.477-1.858zm-1.56 2.7c0 1.22.706 2.316 2.089 2.316.58 0 1.179-.23 1.556-.474l.335.742c-.179.108-.877.587-2.015.587-2.044 0-3.022-1.64-3.022-3.47 0-1.856 1.058-3.241 2.602-3.241 1.654 0 2.563 1.318 2.563 3.309v.23h-4.107zm-13.591-2.7c-.95 0-1.546.842-1.546 1.858h3.021c0-.894-.502-1.858-1.475-1.858zm-1.56 2.7c0 1.22.705 2.316 2.086 2.316.584 0 1.18-.23 1.56-.474l.333.742c-.178.108-.877.587-2.013.587-2.049 0-3.023-1.64-3.023-3.47 0-1.856 1.058-3.241 2.601-3.241 1.655 0 2.561 1.318 2.561 3.309v.23h-4.104zm68.464 3.171c-.923 0-1.478-.242-1.899-.49l.38-.77c.298.189.854.462 1.56.462.786 0 1.355-.354 1.355-.95 0-1.573-2.915-1.019-2.915-3.24 0-.949.664-1.723 2.129-1.723a3.78 3.78 0 0 1 1.612.341v.866c-.445-.19-.909-.379-1.57-.379-.652 0-1.194.231-1.194.812 0 1.439 2.97 1.071 2.97 3.175 0 1.34-1.06 1.896-2.428 1.896m10.534-3.213l-1.204.041c-1.193.04-1.682.433-1.682 1.18 0 .608.407 1.138 1.248 1.138.84 0 1.339-.42 1.638-.733v-1.626zm.31 3.077l-.255-.623c-.392.38-1.017.76-1.966.76-1.042 0-1.966-.748-1.966-1.967 0-1.259.881-2.033 2.577-2.088l1.3-.04v-.405c0-.99-.54-1.356-1.353-1.356-.735 0-1.275.284-1.71.595l-.406-.717c.731-.514 1.436-.734 2.222-.734 1.247 0 2.239.529 2.239 2.17v1.954c0 1.814.054 2.247.133 2.451h-.814zm16.666.04h-.92l-1.575-5.121h-.04l-1.6 5.121h-.906l-2.115-6.452h1.029l1.547 5.043h.04l1.558-5.043h.977l1.544 5.059h.04l1.52-5.059h.988zm5.906-5.775c-1.209 0-1.9.977-1.9 2.496 0 1.518.717 2.52 1.913 2.52 1.19 0 1.91-1.002 1.91-2.52 0-1.519-.692-2.496-1.923-2.496m2.017 5.073c-.499.512-1.206.798-2.033.798-.8 0-1.49-.272-1.992-.786-.582-.598-.894-1.504-.894-2.562 0-1.057.325-1.94.894-2.535.517-.53 1.207-.828 2.008-.828.824 0 1.518.298 2.032.828.567.596.895 1.478.895 2.535 0 1.058-.328 1.951-.91 2.55m5.504-4.76a1.563 1.563 0 0 0-.582-.108c-.432 0-.893.258-1.436.771v4.759h-.99v-6.411h.896l.054.731c.88-.798 1.37-.895 1.774-.895.338 0 .584.11.706.19l-.422.963zm5.288 5.421l-2.75-3.332h-.014v3.332h-.989v-9.595h.989v5.449h.015l2.358-2.265h1.285l-2.818 2.618 3.187 3.793zm2.916.15c-.42 0-.733-.338-.733-.76 0-.421.313-.758.733-.758s.732.337.732.758c0 .422-.312.76-.732.76m-109.93-.014c-1.099 0-1.581-.584-1.581-1.551v-4.182h-1.044v-.814h1.044v-1.408l.99-.34v1.748h1.801l-.35.814h-1.451v4.053c0 .556.191.826.849.826.47 0 .859-.177.952-.213l.273.723a3.314 3.314 0 0 1-1.483.344m4.572 0c-1.097 0-1.582-.584-1.582-1.551v-4.182h-1.043v-.814h1.043v-1.408l.99-.34v1.748h1.802l-.35.814h-1.451v4.053c0 .556.192.826.848.826.472 0 .86-.177.953-.213l.274.723a3.324 3.324 0 0 1-1.484.344m52.139 0c-1.097 0-1.582-.584-1.582-1.551v-4.182h-1.045v-.814h1.045v-1.408l.99-.34v1.748h1.96l-.35.814h-1.61v4.053c0 .556.193.826.847.826.474 0 .859-.177.955-.213l.273.723c-.11.056-.683.344-1.483.344m19.487 0c-1.098 0-1.58-.584-1.58-1.551v-4.182h-1.045v-.814h1.044v-1.408l.988-.34v1.748h1.966l-.354.814h-1.612v4.053c0 .556.194.826.849.826.474 0 .863-.177.956-.213l.274.723a3.34 3.34 0 0 1-1.486.344m-26.927-6.542v-.988c0-.795.321-1.37 1.438-1.37.616 0 1.146.244 1.256.286l.252-.814c-.078-.03-.749-.301-1.659-.301-1.363 0-2.278.66-2.278 2.14v1.047h-.8v.814h.8v5.592h.99v-5.592h2.434v5.592h.987v-6.406h-3.42zm35.909-36.518c-.833 0-1.548-.303-2.147-.91a2.98 2.98 0 0 1-.898-2.17c0-.852.301-1.578.904-2.18a2.97 2.97 0 0 1 2.177-.902c.848 0 1.574.3 2.177.902.603.602.904 1.325.904 2.171 0 .862-.302 1.592-.906 2.191-.604.599-1.341.898-2.21.898zm0-.44c.862 0 1.547-.316 2.054-.948.415-.515.623-1.08.623-1.697 0-.61-.208-1.174-.623-1.69-.507-.631-1.18-.947-2.018-.947-.838 0-1.511.316-2.019.948-.415.515-.622 1.08-.622 1.693 0 .72.256 1.34.77 1.86.515.52 1.127.781 1.835.781zm-.98-.963v-3.331h1.052c.335 0 .587.068.755.204.168.136.252.34.252.612 0 .201-.05.382-.147.544a1.283 1.283 0 0 1-.436.42l1.003 1.55h-.622l-.9-1.387h-.421v1.388h-.535zm.5-1.805h.155c.293 0 .514-.055.66-.164.147-.11.22-.275.22-.494 0-.175-.061-.305-.184-.393-.123-.087-.307-.13-.553-.13h-.298v1.181z" fill="#015294"/></g></svg>