<svg width="271" height="174" viewBox="0 0 271 174" xmlns="http://www.w3.org/2000/svg" xmlns:xlink="http://www.w3.org/1999/xlink"><title>clear-space-logo</title><defs><path id="a" d="M0 175.165h270.474V.171H0z"/></defs><g fill="none" fill-rule="evenodd"><path d="M22.993 138.005c-11.564 0-14.174-7.514-14.174-12.673v-15.19h8.525v14.611c0 4.006 2.252 5.756 5.649 5.756 3.393 0 5.644-1.75 5.644-5.756v-14.612h8.524v15.19c0 5.16-2.605 12.674-14.168 12.674zm0-72.81c11.563 0 14.168-7.513 14.168-12.67V37.333h-8.524v14.613c0 4.005-2.25 5.757-5.644 5.757-3.397 0-5.65-1.752-5.65-5.757V37.332H8.82v15.194c0 5.156 2.61 12.67 14.174 12.67m28.341 100.673c11.563 0 14.166-7.515 14.166-12.673v-15.19H56.98v14.61c0 4.006-2.252 5.757-5.644 5.757-3.398 0-5.65-1.751-5.65-5.756v-14.612h-8.524v15.19c0 5.159 2.61 12.674 14.174 12.674m167.942 0c11.563 0 14.168-7.515 14.168-12.673v-15.19h-8.524v14.61c0 4.006-2.251 5.757-5.644 5.757-3.398 0-5.65-1.751-5.65-5.756v-14.612h-8.524v15.19c0 5.159 2.61 12.674 14.174 12.674M51.335 36.655c11.563 0 14.166-7.514 14.166-12.673V8.792H56.98v14.612c0 4.004-2.252 5.755-5.644 5.755-3.398 0-5.65-1.75-5.65-5.755V8.792h-8.524v15.19c0 5.159 2.61 12.673 14.174 12.673m167.942 0c11.563 0 14.168-7.514 14.168-12.673V8.792h-8.524v14.612c0 4.004-2.251 5.755-5.644 5.755-3.398 0-5.65-1.75-5.65-5.755V8.792h-8.524v15.19c0 5.159 2.61 12.673 14.174 12.673m28.208 28.54c11.563 0 14.168-7.513 14.168-12.67V37.333h-8.524v14.613c0 4.005-2.25 5.757-5.644 5.757-3.398 0-5.65-1.752-5.65-5.757V37.332h-8.524v15.194c0 5.156 2.609 12.67 14.174 12.67m0 72.809c11.563 0 14.168-7.514 14.168-12.673v-15.19h-8.524v14.611c0 4.006-2.25 5.756-5.644 5.756-3.398 0-5.65-1.75-5.65-5.756v-14.612h-8.524v15.19c0 5.16 2.609 12.674 14.174 12.674" fill="#E4E3E3"/><path d="M157.208 98.53V83.338h-8.523V97.95c0 4.005-2.252 5.757-5.645 5.757-3.399 0-5.648-1.752-5.648-5.757V83.337h-8.526V98.53c0 5.156 2.605 12.67 14.174 12.67 11.562 0 14.168-7.514 14.168-12.67zm-63.364 0V83.338h-8.522V97.95c0 4.005-2.253 5.757-5.645 5.757-3.399 0-5.65-1.752-5.65-5.757V83.337h-8.525V98.53c0 5.156 2.611 12.67 14.175 12.67 11.562 0 14.167-7.514 14.167-12.67zm3.341-3.578v15.19h8.523V95.528c0-3.996 2.253-5.751 5.65-5.751 3.394 0 5.644 1.755 5.644 5.751v14.614h8.526v-15.19c0-5.157-2.608-12.669-14.17-12.669-11.565 0-14.173 7.512-14.173 12.669zm76.061-12.669c-7.103 0-12.7 3.543-12.7 12.109v15.749h8.333V94.376c0-2.76 1.412-4.877 4.855-4.877 3.446 0 4.857 2.117 4.857 4.877v15.765h8.336V94.376c0-2.76 1.41-4.877 4.853-4.877 3.446 0 4.858 2.117 4.858 4.877v15.765h8.332V94.39c0-8.565-5.596-12.108-12.699-12.108-6.968 0-9.146 3.814-9.51 4.304-.368-.49-2.541-4.304-9.515-4.304z" fill="#015294"/><path d="M111.356 78.894c3.869 0 6.912-2.977 6.912-6.852 0-3.87-3.043-6.846-6.912-6.846-3.91 0-7.01 2.976-7.01 6.846 0 3.875 3.1 6.852 7.01 6.852zm31.682 0c3.87 0 6.909-2.977 6.909-6.852 0-3.87-3.04-6.846-6.909-6.846-3.908 0-7.01 2.976-7.01 6.846 0 3.875 3.102 6.852 7.01 6.852zm39.724 0c3.868 0 6.91-2.977 6.91-6.852 0-3.87-3.042-6.846-6.91-6.846-3.91 0-7.01 2.976-7.01 6.846 0 3.875 3.1 6.852 7.01 6.852z" fill="#5E88A1"/><mask id="b" fill="#fff"><use xlink:href="#a"/></mask><path stroke="#221F20" stroke-width=".5" mask="url(#b)" d="M37.012 138.155h196.451V37.182H37.012z"/><path d="M270.474 37.332h-37.162m0 0V.172M0 37.332h37.16M0 138.005h37.16m196.152 0h37.162" stroke="#555659" stroke-width=".395" stroke-dasharray="1.866,1.866" mask="url(#b)"/><path d="M65.502.172v174.992" stroke="#555659" stroke-width=".395" stroke-dasharray="1.992,1.992" mask="url(#b)"/><path d="M37.16.172v37.16m0 100.673v37.16m196.152-37.16v37.16" stroke="#555659" stroke-width=".395" stroke-dasharray="1.866,1.866" mask="url(#b)"/><path d="M270.474 65.195H0" stroke="#555659" stroke-width=".395" stroke-dasharray="1.974,1.974" mask="url(#b)"/><path d="M204.97.172v174.992" stroke="#555659" stroke-width=".395" stroke-dasharray="1.992,1.992" mask="url(#b)"/><path d="M270.474 110.141H0" stroke="#555659" stroke-width=".395" stroke-dasharray="1.974,1.974" mask="url(#b)"/><path d="M209.573 83.945c-.776 0-1.442-.282-2-.848a2.779 2.779 0 0 1-.837-2.022c0-.793.281-1.47.843-2.03a2.767 2.767 0 0 1 2.027-.84c.79 0 1.467.28 2.028.84.561.56.842 1.235.842 2.023 0 .803-.281 1.483-.844 2.04-.563.558-1.249.837-2.059.837zm0-.41c.803 0 1.44-.294 1.913-.883.387-.48.58-1.007.58-1.58 0-.57-.193-1.094-.58-1.574-.473-.588-1.1-.883-1.88-.883-.78 0-1.407.295-1.88.883-.386.48-.58 1.006-.58 1.577 0 .67.24 1.247.717 1.733.48.485 1.05.727 1.71.727zm-.912-.897v-3.103h.978c.313 0 .548.064.704.19.156.127.235.317.235.571a.956.956 0 0 1-.137.506c-.091.15-.227.28-.406.392l.934 1.444h-.58l-.838-1.293h-.392v1.293h-.498zm.465-1.68h.144c.273 0 .478-.052.615-.154.137-.102.205-.256.205-.46 0-.162-.057-.284-.172-.366-.114-.08-.286-.122-.515-.122h-.277v1.101z" fill="#336094" mask="url(#b)"/></g></svg>