<svg xmlns="http://www.w3.org/2000/svg" width="785" height="239.5" viewBox="0 0 785 239.5"><g transform="translate(-442 -3973.5)"><g transform="translate(442 3974)" fill="#fff" stroke="#a6b2bb" stroke-miterlimit="10" stroke-width="1"><rect width="188.809" height="73" stroke="none"/><rect x="0.5" y="0.5" width="187.809" height="72" fill="none"/></g><path d="M-15.035-11.422h3.227a6.088,6.088,0,0,1,3.289.68A2.4,2.4,0,0,1-7.5-8.594,2.482,2.482,0,0,1-8.07-6.918a2.727,2.727,0,0,1-1.652.855v.078q2.6.445,2.6,2.734A2.937,2.937,0,0,1-8.156-.859,4.406,4.406,0,0,1-11.051,0h-3.984Zm1.328,4.891h2.188A3.561,3.561,0,0,0-9.5-6.973a1.7,1.7,0,0,0,.617-1.488,1.506,1.506,0,0,0-.687-1.387,4.3,4.3,0,0,0-2.187-.426h-1.953Zm0,1.125v4.273h2.383a3.394,3.394,0,0,0,2.082-.535,1.976,1.976,0,0,0,.7-1.676,1.775,1.775,0,0,0-.715-1.562,3.821,3.821,0,0,0-2.176-.5ZM-3.566,0h-1.3V-12.156h1.3ZM.4-8.562v5.555A2.235,2.235,0,0,0,.879-1.445,1.941,1.941,0,0,0,2.371-.93a2.435,2.435,0,0,0,1.965-.734,3.7,3.7,0,0,0,.621-2.4v-4.5h1.3V0H5.184L5-1.148h-.07A2.585,2.585,0,0,1,3.82-.18,3.716,3.716,0,0,1,2.207.156,3.273,3.273,0,0,1-.133-.586,3.159,3.159,0,0,1-.91-2.961v-5.6ZM12.621.156A3.934,3.934,0,0,1,9.625-1a4.476,4.476,0,0,1-1.1-3.211A4.964,4.964,0,0,1,9.547-7.5a3.387,3.387,0,0,1,2.738-1.219A3.229,3.229,0,0,1,14.832-7.66a4.057,4.057,0,0,1,.938,2.793v.82h-5.9a3.394,3.394,0,0,0,.762,2.289,2.634,2.634,0,0,0,2.035.781A6.9,6.9,0,0,0,15.4-1.555V-.4a6.863,6.863,0,0,1-1.3.426A7.31,7.31,0,0,1,12.621.156ZM12.27-7.633a2.118,2.118,0,0,0-1.645.672A3.1,3.1,0,0,0,9.9-5.1h4.477a2.851,2.851,0,0,0-.547-1.879A1.925,1.925,0,0,0,12.27-7.633Z" transform="translate(536.988 4017)" fill="#015193"/><g transform="translate(442 4057)" fill="#fff" stroke="#a6b2bb" stroke-miterlimit="10" stroke-width="1"><rect width="188.809" height="73" stroke="none"/><rect x="0.5" y="0.5" width="187.809" height="72" fill="none"/></g><g transform="translate(442 4140)" fill="#fff" stroke="#a6b2bb" stroke-miterlimit="10" stroke-width="1"><rect width="188.809" height="73" stroke="none"/><rect x="0.5" y="0.5" width="187.809" height="72" fill="none"/></g><path d="M-10.16-3.039A2.8,2.8,0,0,1-11.254-.687a4.743,4.743,0,0,1-2.969.844,7.436,7.436,0,0,1-3.125-.523V-1.648a8.227,8.227,0,0,0,1.531.469,8.056,8.056,0,0,0,1.641.172,3.31,3.31,0,0,0,2-.5,1.654,1.654,0,0,0,.672-1.4,1.8,1.8,0,0,0-.238-.973,2.214,2.214,0,0,0-.8-.7,11.148,11.148,0,0,0-1.7-.727,5.424,5.424,0,0,1-2.277-1.352A2.984,2.984,0,0,1-17.2-8.7a2.536,2.536,0,0,1,.992-2.1,4.123,4.123,0,0,1,2.625-.781,7.736,7.736,0,0,1,3.133.625L-10.863-9.8a7.08,7.08,0,0,0-2.75-.594,2.661,2.661,0,0,0-1.648.453,1.493,1.493,0,0,0-.594,1.258,1.928,1.928,0,0,0,.219.973,2.06,2.06,0,0,0,.738.7,9.173,9.173,0,0,0,1.59.7,6.294,6.294,0,0,1,2.473,1.375A2.7,2.7,0,0,1-10.16-3.039ZM-6.723,0h-1.3V-12.156h1.3ZM1.293,0,1.035-1.219H.973A3.6,3.6,0,0,1-.3-.129a3.893,3.893,0,0,1-1.59.285,2.86,2.86,0,0,1-2-.656,2.394,2.394,0,0,1-.723-1.867q0-2.594,4.148-2.719L.988-5.133v-.531A2.171,2.171,0,0,0,.555-7.152a1.783,1.783,0,0,0-1.387-.48,5.65,5.65,0,0,0-2.422.656l-.4-.992a6.094,6.094,0,0,1,1.387-.539A6.006,6.006,0,0,1-.754-8.7a3.262,3.262,0,0,1,2.27.68,2.837,2.837,0,0,1,.738,2.18V0Zm-2.93-.914a2.632,2.632,0,0,0,1.9-.664A2.457,2.457,0,0,0,.957-3.437v-.773l-1.3.055a4.717,4.717,0,0,0-2.23.48,1.449,1.449,0,0,0-.684,1.324,1.336,1.336,0,0,0,.426,1.07A1.767,1.767,0,0,0-1.637-.914Zm9.328,0a4.236,4.236,0,0,0,.664-.051,4.3,4.3,0,0,0,.508-.105v.992A2.371,2.371,0,0,1,8.242.09,4.664,4.664,0,0,1,7.5.156Q5.02.156,5.02-2.461V-7.555H3.793V-8.18L5.02-8.719l.547-1.828h.75v1.984H8.8v1.008H6.316v5.039a1.734,1.734,0,0,0,.367,1.188A1.278,1.278,0,0,0,7.691-.914Zm6.5,1.07A3.934,3.934,0,0,1,11.2-1a4.476,4.476,0,0,1-1.1-3.211A4.964,4.964,0,0,1,11.117-7.5a3.387,3.387,0,0,1,2.738-1.219A3.229,3.229,0,0,1,16.4-7.66a4.057,4.057,0,0,1,.938,2.793v.82h-5.9A3.394,3.394,0,0,0,12.2-1.758a2.634,2.634,0,0,0,2.035.781,6.9,6.9,0,0,0,2.734-.578V-.4a6.863,6.863,0,0,1-1.3.426A7.31,7.31,0,0,1,14.191.156ZM13.84-7.633a2.118,2.118,0,0,0-1.645.672A3.1,3.1,0,0,0,11.473-5.1h4.477A2.851,2.851,0,0,0,15.4-6.98,1.925,1.925,0,0,0,13.84-7.633Z" transform="translate(537.058 4182)" fill="#5e88a1"/><rect width="188.809" height="73" transform="translate(839.15 3973.5)" fill="#e7edf2"/><path d="M-15.035-11.422h3.227a6.088,6.088,0,0,1,3.289.68A2.4,2.4,0,0,1-7.5-8.594,2.482,2.482,0,0,1-8.07-6.918a2.727,2.727,0,0,1-1.652.855v.078q2.6.445,2.6,2.734A2.937,2.937,0,0,1-8.156-.859,4.406,4.406,0,0,1-11.051,0h-3.984Zm1.328,4.891h2.188A3.561,3.561,0,0,0-9.5-6.973a1.7,1.7,0,0,0,.617-1.488,1.506,1.506,0,0,0-.687-1.387,4.3,4.3,0,0,0-2.187-.426h-1.953Zm0,1.125v4.273h2.383a3.394,3.394,0,0,0,2.082-.535,1.976,1.976,0,0,0,.7-1.676,1.775,1.775,0,0,0-.715-1.562,3.821,3.821,0,0,0-2.176-.5ZM-3.566,0h-1.3V-12.156h1.3ZM.4-8.562v5.555A2.235,2.235,0,0,0,.879-1.445,1.941,1.941,0,0,0,2.371-.93a2.435,2.435,0,0,0,1.965-.734,3.7,3.7,0,0,0,.621-2.4v-4.5h1.3V0H5.184L5-1.148h-.07A2.585,2.585,0,0,1,3.82-.18,3.716,3.716,0,0,1,2.207.156,3.273,3.273,0,0,1-.133-.586,3.159,3.159,0,0,1-.91-2.961v-5.6ZM12.621.156A3.934,3.934,0,0,1,9.625-1a4.476,4.476,0,0,1-1.1-3.211A4.964,4.964,0,0,1,9.547-7.5a3.387,3.387,0,0,1,2.738-1.219A3.229,3.229,0,0,1,14.832-7.66a4.057,4.057,0,0,1,.938,2.793v.82h-5.9a3.394,3.394,0,0,0,.762,2.289,2.634,2.634,0,0,0,2.035.781A6.9,6.9,0,0,0,15.4-1.555V-.4a6.863,6.863,0,0,1-1.3.426A7.31,7.31,0,0,1,12.621.156ZM12.27-7.633a2.118,2.118,0,0,0-1.645.672A3.1,3.1,0,0,0,9.9-5.1h4.477a2.851,2.851,0,0,0-.547-1.879A1.925,1.925,0,0,0,12.27-7.633Z" transform="translate(934.139 4017)" fill="#015193"/><rect width="187.879" height="73" transform="translate(839.15 4056.5)" fill="#e7edf2"/><rect width="187.879" height="73" transform="translate(839.15 4139.5)" fill="#e7edf2"/><path d="M-18.734-3.419a3.152,3.152,0,0,1-1.23,2.646A5.335,5.335,0,0,1-23.3.176,8.365,8.365,0,0,1-26.82-.413V-1.854a9.256,9.256,0,0,0,1.723.527,9.063,9.063,0,0,0,1.846.193A3.724,3.724,0,0,0-21-1.7a1.86,1.86,0,0,0,.756-1.578,2.025,2.025,0,0,0-.268-1.094,2.49,2.49,0,0,0-.9-.787,12.542,12.542,0,0,0-1.912-.817A6.1,6.1,0,0,1-25.884-7.5a3.357,3.357,0,0,1-.769-2.294,2.853,2.853,0,0,1,1.116-2.364,4.639,4.639,0,0,1,2.953-.879,8.7,8.7,0,0,1,3.524.7l-.466,1.3a7.965,7.965,0,0,0-3.094-.668,2.994,2.994,0,0,0-1.854.51,1.68,1.68,0,0,0-.668,1.415A2.169,2.169,0,0,0-24.9-8.679a2.317,2.317,0,0,0,.831.782,10.32,10.32,0,0,0,1.789.787,7.081,7.081,0,0,1,2.782,1.547A3.042,3.042,0,0,1-18.734-3.419ZM-14.867,0h-1.459V-13.676h1.459Zm9.018,0-.29-1.371h-.07A4.053,4.053,0,0,1-7.646-.145,4.38,4.38,0,0,1-9.435.176a3.217,3.217,0,0,1-2.246-.738,2.693,2.693,0,0,1-.813-2.1q0-2.918,4.667-3.059l1.635-.053v-.6A2.442,2.442,0,0,0-6.68-8.046a2.006,2.006,0,0,0-1.56-.541,6.357,6.357,0,0,0-2.725.738l-.448-1.116a6.856,6.856,0,0,1,1.56-.606,6.757,6.757,0,0,1,1.7-.22A3.669,3.669,0,0,1-5.6-9.026a3.192,3.192,0,0,1,.831,2.452V0Zm-3.3-1.028A2.961,2.961,0,0,0-7-1.775a2.764,2.764,0,0,0,.778-2.092v-.87l-1.459.062a5.307,5.307,0,0,0-2.509.541,1.63,1.63,0,0,0-.769,1.49,1.5,1.5,0,0,0,.479,1.2A1.988,1.988,0,0,0-9.145-1.028Zm10.494,0A4.766,4.766,0,0,0,2.1-1.085,4.836,4.836,0,0,0,2.667-1.2V-.088a2.667,2.667,0,0,1-.7.189,5.247,5.247,0,0,1-.831.075q-2.795,0-2.795-2.944V-8.5h-1.38v-.7l1.38-.606.615-2.057H-.2v2.232H2.6V-8.5H-.2V-2.83A1.95,1.95,0,0,0,.215-1.494,1.438,1.438,0,0,0,1.349-1.028ZM8.662.176a4.426,4.426,0,0,1-3.371-1.3A5.036,5.036,0,0,1,4.056-4.737,5.585,5.585,0,0,1,5.2-8.437,3.81,3.81,0,0,1,8.284-9.809a3.633,3.633,0,0,1,2.865,1.191A4.564,4.564,0,0,1,12.2-5.476v.923H5.568a3.818,3.818,0,0,0,.857,2.575,2.964,2.964,0,0,0,2.29.879,7.759,7.759,0,0,0,3.076-.65v1.3a7.721,7.721,0,0,1-1.463.479A8.224,8.224,0,0,1,8.662.176Zm-.4-8.763a2.383,2.383,0,0,0-1.85.756A3.484,3.484,0,0,0,5.6-5.739h5.036a3.208,3.208,0,0,0-.615-2.114A2.165,2.165,0,0,0,8.266-8.587Zm15.328-5.089L23.216-10.2l3.5-.976.229,1.6-3.349.272,2.18,2.865-1.512.826L22.715-8.8,21.309-5.616l-1.547-.826,2.127-2.865L18.576-9.58l.255-1.6,3.437.976-.378-3.472Z" transform="translate(936.907 4182)" fill="#5e88a1"/><rect width="188.809" height="73" transform="translate(641.04 3973.5)" fill="#f7f7f7"/><path d="M-15.035-11.422h3.227a6.088,6.088,0,0,1,3.289.68A2.4,2.4,0,0,1-7.5-8.594,2.482,2.482,0,0,1-8.07-6.918a2.727,2.727,0,0,1-1.652.855v.078q2.6.445,2.6,2.734A2.937,2.937,0,0,1-8.156-.859,4.406,4.406,0,0,1-11.051,0h-3.984Zm1.328,4.891h2.188A3.561,3.561,0,0,0-9.5-6.973a1.7,1.7,0,0,0,.617-1.488,1.506,1.506,0,0,0-.687-1.387,4.3,4.3,0,0,0-2.187-.426h-1.953Zm0,1.125v4.273h2.383a3.394,3.394,0,0,0,2.082-.535,1.976,1.976,0,0,0,.7-1.676,1.775,1.775,0,0,0-.715-1.562,3.821,3.821,0,0,0-2.176-.5ZM-3.566,0h-1.3V-12.156h1.3ZM.4-8.562v5.555A2.235,2.235,0,0,0,.879-1.445,1.941,1.941,0,0,0,2.371-.93a2.435,2.435,0,0,0,1.965-.734,3.7,3.7,0,0,0,.621-2.4v-4.5h1.3V0H5.184L5-1.148h-.07A2.585,2.585,0,0,1,3.82-.18,3.716,3.716,0,0,1,2.207.156,3.273,3.273,0,0,1-.133-.586,3.159,3.159,0,0,1-.91-2.961v-5.6ZM12.621.156A3.934,3.934,0,0,1,9.625-1a4.476,4.476,0,0,1-1.1-3.211A4.964,4.964,0,0,1,9.547-7.5a3.387,3.387,0,0,1,2.738-1.219A3.229,3.229,0,0,1,14.832-7.66a4.057,4.057,0,0,1,.938,2.793v.82h-5.9a3.394,3.394,0,0,0,.762,2.289,2.634,2.634,0,0,0,2.035.781A6.9,6.9,0,0,0,15.4-1.555V-.4a6.863,6.863,0,0,1-1.3.426A7.31,7.31,0,0,1,12.621.156ZM12.27-7.633a2.118,2.118,0,0,0-1.645.672A3.1,3.1,0,0,0,9.9-5.1h4.477a2.851,2.851,0,0,0-.547-1.879A1.925,1.925,0,0,0,12.27-7.633Z" transform="translate(735.099 4017)" fill="#015193"/><rect width="187.879" height="73" transform="translate(641.04 4056.5)" fill="#f7f7f7"/><rect width="187.879" height="73" transform="translate(641.04 4139.5)" fill="#f7f7f7"/><rect width="188.809" height="73" transform="translate(1038.19 4056.5)" fill="#e2f2fb"/><rect width="188.809" height="73" transform="translate(1038.19 4139.5)" fill="#5e88a1"/><rect width="188.809" height="73" transform="translate(1038.19 3973.5)" fill="#015193"/><path d="M-15.035-11.422h3.227a6.088,6.088,0,0,1,3.289.68A2.4,2.4,0,0,1-7.5-8.594,2.482,2.482,0,0,1-8.07-6.918a2.727,2.727,0,0,1-1.652.855v.078q2.6.445,2.6,2.734A2.937,2.937,0,0,1-8.156-.859,4.406,4.406,0,0,1-11.051,0h-3.984Zm1.328,4.891h2.188A3.561,3.561,0,0,0-9.5-6.973a1.7,1.7,0,0,0,.617-1.488,1.506,1.506,0,0,0-.687-1.387,4.3,4.3,0,0,0-2.187-.426h-1.953Zm0,1.125v4.273h2.383a3.394,3.394,0,0,0,2.082-.535,1.976,1.976,0,0,0,.7-1.676,1.775,1.775,0,0,0-.715-1.562,3.821,3.821,0,0,0-2.176-.5ZM-3.566,0h-1.3V-12.156h1.3ZM.4-8.562v5.555A2.235,2.235,0,0,0,.879-1.445,1.941,1.941,0,0,0,2.371-.93a2.435,2.435,0,0,0,1.965-.734,3.7,3.7,0,0,0,.621-2.4v-4.5h1.3V0H5.184L5-1.148h-.07A2.585,2.585,0,0,1,3.82-.18,3.716,3.716,0,0,1,2.207.156,3.273,3.273,0,0,1-.133-.586,3.159,3.159,0,0,1-.91-2.961v-5.6ZM12.621.156A3.934,3.934,0,0,1,9.625-1a4.476,4.476,0,0,1-1.1-3.211A4.964,4.964,0,0,1,9.547-7.5a3.387,3.387,0,0,1,2.738-1.219A3.229,3.229,0,0,1,14.832-7.66a4.057,4.057,0,0,1,.938,2.793v.82h-5.9a3.394,3.394,0,0,0,.762,2.289,2.634,2.634,0,0,0,2.035.781A6.9,6.9,0,0,0,15.4-1.555V-.4a6.863,6.863,0,0,1-1.3.426A7.31,7.31,0,0,1,12.621.156ZM12.27-7.633a2.118,2.118,0,0,0-1.645.672A3.1,3.1,0,0,0,9.9-5.1h4.477a2.851,2.851,0,0,0-.547-1.879A1.925,1.925,0,0,0,12.27-7.633Z" transform="translate(1133.179 4017)" fill="#fff"/><path d="M-18.734-3.419a3.152,3.152,0,0,1-1.23,2.646A5.335,5.335,0,0,1-23.3.176,8.365,8.365,0,0,1-26.82-.413V-1.854a9.256,9.256,0,0,0,1.723.527,9.063,9.063,0,0,0,1.846.193A3.724,3.724,0,0,0-21-1.7a1.86,1.86,0,0,0,.756-1.578,2.025,2.025,0,0,0-.268-1.094,2.49,2.49,0,0,0-.9-.787,12.542,12.542,0,0,0-1.912-.817A6.1,6.1,0,0,1-25.884-7.5a3.357,3.357,0,0,1-.769-2.294,2.853,2.853,0,0,1,1.116-2.364,4.639,4.639,0,0,1,2.953-.879,8.7,8.7,0,0,1,3.524.7l-.466,1.3a7.965,7.965,0,0,0-3.094-.668,2.994,2.994,0,0,0-1.854.51,1.68,1.68,0,0,0-.668,1.415A2.169,2.169,0,0,0-24.9-8.679a2.317,2.317,0,0,0,.831.782,10.32,10.32,0,0,0,1.789.787,7.081,7.081,0,0,1,2.782,1.547A3.042,3.042,0,0,1-18.734-3.419ZM-14.867,0h-1.459V-13.676h1.459Zm9.018,0-.29-1.371h-.07A4.053,4.053,0,0,1-7.646-.145,4.38,4.38,0,0,1-9.435.176a3.217,3.217,0,0,1-2.246-.738,2.693,2.693,0,0,1-.813-2.1q0-2.918,4.667-3.059l1.635-.053v-.6A2.442,2.442,0,0,0-6.68-8.046a2.006,2.006,0,0,0-1.56-.541,6.357,6.357,0,0,0-2.725.738l-.448-1.116a6.856,6.856,0,0,1,1.56-.606,6.757,6.757,0,0,1,1.7-.22A3.669,3.669,0,0,1-5.6-9.026a3.192,3.192,0,0,1,.831,2.452V0Zm-3.3-1.028A2.961,2.961,0,0,0-7-1.775a2.764,2.764,0,0,0,.778-2.092v-.87l-1.459.062a5.307,5.307,0,0,0-2.509.541,1.63,1.63,0,0,0-.769,1.49,1.5,1.5,0,0,0,.479,1.2A1.988,1.988,0,0,0-9.145-1.028Zm10.494,0A4.766,4.766,0,0,0,2.1-1.085,4.836,4.836,0,0,0,2.667-1.2V-.088a2.667,2.667,0,0,1-.7.189,5.247,5.247,0,0,1-.831.075q-2.795,0-2.795-2.944V-8.5h-1.38v-.7l1.38-.606.615-2.057H-.2v2.232H2.6V-8.5H-.2V-2.83A1.95,1.95,0,0,0,.215-1.494,1.438,1.438,0,0,0,1.349-1.028ZM8.662.176a4.426,4.426,0,0,1-3.371-1.3A5.036,5.036,0,0,1,4.056-4.737,5.585,5.585,0,0,1,5.2-8.437,3.81,3.81,0,0,1,8.284-9.809a3.633,3.633,0,0,1,2.865,1.191A4.564,4.564,0,0,1,12.2-5.476v.923H5.568a3.818,3.818,0,0,0,.857,2.575,2.964,2.964,0,0,0,2.29.879,7.759,7.759,0,0,0,3.076-.65v1.3a7.721,7.721,0,0,1-1.463.479A8.224,8.224,0,0,1,8.662.176Zm-.4-8.763a2.383,2.383,0,0,0-1.85.756A3.484,3.484,0,0,0,5.6-5.739h5.036a3.208,3.208,0,0,0-.615-2.114A2.165,2.165,0,0,0,8.266-8.587Zm15.328-5.089L23.216-10.2l3.5-.976.229,1.6-3.349.272,2.18,2.865-1.512.826L22.715-8.8,21.309-5.616l-1.547-.826,2.127-2.865L18.576-9.58l.255-1.6,3.437.976-.378-3.472Z" transform="translate(739.907 4182)" fill="#5e88a1"/><path d="M-18.734-3.419a3.152,3.152,0,0,1-1.23,2.646A5.335,5.335,0,0,1-23.3.176,8.365,8.365,0,0,1-26.82-.413V-1.854a9.256,9.256,0,0,0,1.723.527,9.063,9.063,0,0,0,1.846.193A3.724,3.724,0,0,0-21-1.7a1.86,1.86,0,0,0,.756-1.578,2.025,2.025,0,0,0-.268-1.094,2.49,2.49,0,0,0-.9-.787,12.542,12.542,0,0,0-1.912-.817A6.1,6.1,0,0,1-25.884-7.5a3.357,3.357,0,0,1-.769-2.294,2.853,2.853,0,0,1,1.116-2.364,4.639,4.639,0,0,1,2.953-.879,8.7,8.7,0,0,1,3.524.7l-.466,1.3a7.965,7.965,0,0,0-3.094-.668,2.994,2.994,0,0,0-1.854.51,1.68,1.68,0,0,0-.668,1.415A2.169,2.169,0,0,0-24.9-8.679a2.317,2.317,0,0,0,.831.782,10.32,10.32,0,0,0,1.789.787,7.081,7.081,0,0,1,2.782,1.547A3.042,3.042,0,0,1-18.734-3.419ZM-14.867,0h-1.459V-13.676h1.459Zm9.018,0-.29-1.371h-.07A4.053,4.053,0,0,1-7.646-.145,4.38,4.38,0,0,1-9.435.176a3.217,3.217,0,0,1-2.246-.738,2.693,2.693,0,0,1-.813-2.1q0-2.918,4.667-3.059l1.635-.053v-.6A2.442,2.442,0,0,0-6.68-8.046a2.006,2.006,0,0,0-1.56-.541,6.357,6.357,0,0,0-2.725.738l-.448-1.116a6.856,6.856,0,0,1,1.56-.606,6.757,6.757,0,0,1,1.7-.22A3.669,3.669,0,0,1-5.6-9.026a3.192,3.192,0,0,1,.831,2.452V0Zm-3.3-1.028A2.961,2.961,0,0,0-7-1.775a2.764,2.764,0,0,0,.778-2.092v-.87l-1.459.062a5.307,5.307,0,0,0-2.509.541,1.63,1.63,0,0,0-.769,1.49,1.5,1.5,0,0,0,.479,1.2A1.988,1.988,0,0,0-9.145-1.028Zm10.494,0A4.766,4.766,0,0,0,2.1-1.085,4.836,4.836,0,0,0,2.667-1.2V-.088a2.667,2.667,0,0,1-.7.189,5.247,5.247,0,0,1-.831.075q-2.795,0-2.795-2.944V-8.5h-1.38v-.7l1.38-.606.615-2.057H-.2v2.232H2.6V-8.5H-.2V-2.83A1.95,1.95,0,0,0,.215-1.494,1.438,1.438,0,0,0,1.349-1.028ZM8.662.176a4.426,4.426,0,0,1-3.371-1.3A5.036,5.036,0,0,1,4.056-4.737,5.585,5.585,0,0,1,5.2-8.437,3.81,3.81,0,0,1,8.284-9.809a3.633,3.633,0,0,1,2.865,1.191A4.564,4.564,0,0,1,12.2-5.476v.923H5.568a3.818,3.818,0,0,0,.857,2.575,2.964,2.964,0,0,0,2.29.879,7.759,7.759,0,0,0,3.076-.65v1.3a7.721,7.721,0,0,1-1.463.479A8.224,8.224,0,0,1,8.662.176Zm-.4-8.763a2.383,2.383,0,0,0-1.85.756A3.484,3.484,0,0,0,5.6-5.739h5.036a3.208,3.208,0,0,0-.615-2.114A2.165,2.165,0,0,0,8.266-8.587Zm15.328-5.089L23.216-10.2l3.5-.976.229,1.6-3.349.272,2.18,2.865-1.512.826L22.715-8.8,21.309-5.616l-1.547-.826,2.127-2.865L18.576-9.58l.255-1.6,3.437.976-.378-3.472Z" transform="translate(1134.907 4182)" fill="#fff"/><path d="M10.688-5.82A5.767,5.767,0,0,1,9.152-1.5,6.074,6.074,0,0,1,4.734,0H1.57V-11.422h3.5A5.6,5.6,0,0,1,9.211-9.945,5.576,5.576,0,0,1,10.688-5.82Zm-1.406.047A4.6,4.6,0,0,0,8.16-9.141a4.493,4.493,0,0,0-3.332-1.133H2.9v9.125H4.516a4.917,4.917,0,0,0,3.57-1.168A4.624,4.624,0,0,0,9.281-5.773ZM18.3,0l-.258-1.219h-.062a3.6,3.6,0,0,1-1.277,1.09,3.893,3.893,0,0,1-1.59.285,2.86,2.86,0,0,1-2-.656A2.394,2.394,0,0,1,12.4-2.367q0-2.594,4.148-2.719L18-5.133v-.531a2.171,2.171,0,0,0-.434-1.488,1.783,1.783,0,0,0-1.387-.48,5.65,5.65,0,0,0-2.422.656l-.4-.992a6.094,6.094,0,0,1,1.387-.539,6.006,6.006,0,0,1,1.512-.2,3.262,3.262,0,0,1,2.27.68,2.837,2.837,0,0,1,.738,2.18V0Zm-2.93-.914a2.632,2.632,0,0,0,1.9-.664,2.457,2.457,0,0,0,.691-1.859v-.773l-1.3.055a4.717,4.717,0,0,0-2.23.48,1.449,1.449,0,0,0-.684,1.324,1.336,1.336,0,0,0,.426,1.07A1.767,1.767,0,0,0,15.375-.914Zm10.469-7.8a5.075,5.075,0,0,1,1.023.094l-.18,1.2a4.418,4.418,0,0,0-.937-.117,2.282,2.282,0,0,0-1.777.844,3.077,3.077,0,0,0-.738,2.1V0h-1.3V-8.562h1.07l.148,1.586h.063a3.764,3.764,0,0,1,1.148-1.289A2.585,2.585,0,0,1,25.844-8.719ZM29.75-4.383a15.251,15.251,0,0,1,1.023-1.25l2.766-2.93h1.539L31.609-4.914,35.32,0H33.75L30.727-4.047,29.75-3.2V0H28.469V-12.156H29.75v6.445q0,.43-.062,1.328Z" transform="translate(520 4099.841)" fill="#525252"/><path d="M10.688-5.82A5.767,5.767,0,0,1,9.152-1.5,6.074,6.074,0,0,1,4.734,0H1.57V-11.422h3.5A5.6,5.6,0,0,1,9.211-9.945,5.576,5.576,0,0,1,10.688-5.82Zm-1.406.047A4.6,4.6,0,0,0,8.16-9.141a4.493,4.493,0,0,0-3.332-1.133H2.9v9.125H4.516a4.917,4.917,0,0,0,3.57-1.168A4.624,4.624,0,0,0,9.281-5.773ZM18.3,0l-.258-1.219h-.062a3.6,3.6,0,0,1-1.277,1.09,3.893,3.893,0,0,1-1.59.285,2.86,2.86,0,0,1-2-.656A2.394,2.394,0,0,1,12.4-2.367q0-2.594,4.148-2.719L18-5.133v-.531a2.171,2.171,0,0,0-.434-1.488,1.783,1.783,0,0,0-1.387-.48,5.65,5.65,0,0,0-2.422.656l-.4-.992a6.094,6.094,0,0,1,1.387-.539,6.006,6.006,0,0,1,1.512-.2,3.262,3.262,0,0,1,2.27.68,2.837,2.837,0,0,1,.738,2.18V0Zm-2.93-.914a2.632,2.632,0,0,0,1.9-.664,2.457,2.457,0,0,0,.691-1.859v-.773l-1.3.055a4.717,4.717,0,0,0-2.23.48,1.449,1.449,0,0,0-.684,1.324,1.336,1.336,0,0,0,.426,1.07A1.767,1.767,0,0,0,15.375-.914Zm10.469-7.8a5.075,5.075,0,0,1,1.023.094l-.18,1.2a4.418,4.418,0,0,0-.937-.117,2.282,2.282,0,0,0-1.777.844,3.077,3.077,0,0,0-.738,2.1V0h-1.3V-8.562h1.07l.148,1.586h.063a3.764,3.764,0,0,1,1.148-1.289A2.585,2.585,0,0,1,25.844-8.719ZM29.75-4.383a15.251,15.251,0,0,1,1.023-1.25l2.766-2.93h1.539L31.609-4.914,35.32,0H33.75L30.727-4.047,29.75-3.2V0H28.469V-12.156H29.75v6.445q0,.43-.062,1.328Z" transform="translate(716 4098.841)" fill="#525252"/><path d="M10.688-5.82A5.767,5.767,0,0,1,9.152-1.5,6.074,6.074,0,0,1,4.734,0H1.57V-11.422h3.5A5.6,5.6,0,0,1,9.211-9.945,5.576,5.576,0,0,1,10.688-5.82Zm-1.406.047A4.6,4.6,0,0,0,8.16-9.141a4.493,4.493,0,0,0-3.332-1.133H2.9v9.125H4.516a4.917,4.917,0,0,0,3.57-1.168A4.624,4.624,0,0,0,9.281-5.773ZM18.3,0l-.258-1.219h-.062a3.6,3.6,0,0,1-1.277,1.09,3.893,3.893,0,0,1-1.59.285,2.86,2.86,0,0,1-2-.656A2.394,2.394,0,0,1,12.4-2.367q0-2.594,4.148-2.719L18-5.133v-.531a2.171,2.171,0,0,0-.434-1.488,1.783,1.783,0,0,0-1.387-.48,5.65,5.65,0,0,0-2.422.656l-.4-.992a6.094,6.094,0,0,1,1.387-.539,6.006,6.006,0,0,1,1.512-.2,3.262,3.262,0,0,1,2.27.68,2.837,2.837,0,0,1,.738,2.18V0Zm-2.93-.914a2.632,2.632,0,0,0,1.9-.664,2.457,2.457,0,0,0,.691-1.859v-.773l-1.3.055a4.717,4.717,0,0,0-2.23.48,1.449,1.449,0,0,0-.684,1.324,1.336,1.336,0,0,0,.426,1.07A1.767,1.767,0,0,0,15.375-.914Zm10.469-7.8a5.075,5.075,0,0,1,1.023.094l-.18,1.2a4.418,4.418,0,0,0-.937-.117,2.282,2.282,0,0,0-1.777.844,3.077,3.077,0,0,0-.738,2.1V0h-1.3V-8.562h1.07l.148,1.586h.063a3.764,3.764,0,0,1,1.148-1.289A2.585,2.585,0,0,1,25.844-8.719ZM29.75-4.383a15.251,15.251,0,0,1,1.023-1.25l2.766-2.93h1.539L31.609-4.914,35.32,0H33.75L30.727-4.047,29.75-3.2V0H28.469V-12.156H29.75v6.445q0,.43-.062,1.328Z" transform="translate(915 4098.841)" fill="#525252"/><path d="M10.688-5.82A5.767,5.767,0,0,1,9.152-1.5,6.074,6.074,0,0,1,4.734,0H1.57V-11.422h3.5A5.6,5.6,0,0,1,9.211-9.945,5.576,5.576,0,0,1,10.688-5.82Zm-1.406.047A4.6,4.6,0,0,0,8.16-9.141a4.493,4.493,0,0,0-3.332-1.133H2.9v9.125H4.516a4.917,4.917,0,0,0,3.57-1.168A4.624,4.624,0,0,0,9.281-5.773ZM18.3,0l-.258-1.219h-.062a3.6,3.6,0,0,1-1.277,1.09,3.893,3.893,0,0,1-1.59.285,2.86,2.86,0,0,1-2-.656A2.394,2.394,0,0,1,12.4-2.367q0-2.594,4.148-2.719L18-5.133v-.531a2.171,2.171,0,0,0-.434-1.488,1.783,1.783,0,0,0-1.387-.48,5.65,5.65,0,0,0-2.422.656l-.4-.992a6.094,6.094,0,0,1,1.387-.539,6.006,6.006,0,0,1,1.512-.2,3.262,3.262,0,0,1,2.27.68,2.837,2.837,0,0,1,.738,2.18V0Zm-2.93-.914a2.632,2.632,0,0,0,1.9-.664,2.457,2.457,0,0,0,.691-1.859v-.773l-1.3.055a4.717,4.717,0,0,0-2.23.48,1.449,1.449,0,0,0-.684,1.324,1.336,1.336,0,0,0,.426,1.07A1.767,1.767,0,0,0,15.375-.914Zm10.469-7.8a5.075,5.075,0,0,1,1.023.094l-.18,1.2a4.418,4.418,0,0,0-.937-.117,2.282,2.282,0,0,0-1.777.844,3.077,3.077,0,0,0-.738,2.1V0h-1.3V-8.562h1.07l.148,1.586h.063a3.764,3.764,0,0,1,1.148-1.289A2.585,2.585,0,0,1,25.844-8.719ZM29.75-4.383a15.251,15.251,0,0,1,1.023-1.25l2.766-2.93h1.539L31.609-4.914,35.32,0H33.75L30.727-4.047,29.75-3.2V0H28.469V-12.156H29.75v6.445q0,.43-.062,1.328Z" transform="translate(1115 4098.841)" fill="#525252"/></g></svg>