<?xml version="1.0" encoding="UTF-8"?>
<svg width="38px" height="38px" viewBox="0 0 38 38" version="1.1" xmlns="http://www.w3.org/2000/svg" xmlns:xlink="http://www.w3.org/1999/xlink">
    <!-- Generator: Sketch 43.2 (39069) - http://www.bohemiancoding.com/sketch -->
    <title>dont-icon</title>
    <desc>Created with Sketch.</desc>
    <defs></defs>
    <g id="Pages" stroke="none" stroke-width="1" fill="none" fill-rule="evenodd">
        <g id="Web" transform="translate(-410.000000, -6380.000000)" fill="#E85656">
            <g id="Iconography" transform="translate(375.000000, 5647.000000)">
                <g id="Level-of-Detail" transform="translate(4.000000, 519.000000)">
                    <path d="M68.7995979,235.76974 C67.4588709,244.950722 59.5531457,252 49.9999974,252 C39.5060599,252 31,243.493938 31,233 C31,222.506063 39.5060599,214 49.9999974,214 C59.5531457,214 67.4588709,221.049278 68.7995979,230.23026 L68.7995975,235.769742 L68.7995979,235.76974 Z M44.0624974,224.575875 L49.9999974,230.513375 L55.9374974,224.575875 L58.4241224,227.0625 L52.4866224,233 L58.4241224,238.9375 L55.9374974,241.424125 L49.9999974,235.486625 L44.0624974,241.424125 L41.5758724,238.9375 L47.5133724,233 L41.5758724,227.0625 L44.0624974,224.575875 Z" id="dont-icon"></path>
                </g>
            </g>
        </g>
    </g>
</svg>