<svg xmlns="http://www.w3.org/2000/svg" width="785.683" height="233.684" viewBox="0 0 785.683 233.684"><g transform="translate(-441.317 -4319.816)"><g transform="translate(442 4320.5)" fill="none" stroke="#e7e7e8" stroke-miterlimit="10" stroke-width="1"><rect width="124.633" height="73" stroke="none"/><rect x="0.5" y="0.5" width="123.633" height="72" fill="none"/></g><path d="M-18.164,0V-11.422h1.328V-1.2H-11.8V0ZM-4.789,0l-.258-1.219h-.062A3.6,3.6,0,0,1-6.387-.129a3.893,3.893,0,0,1-1.59.285,2.86,2.86,0,0,1-2-.656A2.394,2.394,0,0,1-10.7-2.367q0-2.594,4.148-2.719l1.453-.047v-.531a2.171,2.171,0,0,0-.434-1.488,1.783,1.783,0,0,0-1.387-.48,5.65,5.65,0,0,0-2.422.656l-.4-.992a6.094,6.094,0,0,1,1.387-.539,6.006,6.006,0,0,1,1.512-.2,3.262,3.262,0,0,1,2.27.68,2.837,2.837,0,0,1,.738,2.18V0Zm-2.93-.914a2.632,2.632,0,0,0,1.9-.664,2.457,2.457,0,0,0,.691-1.859v-.773l-1.3.055a4.717,4.717,0,0,0-2.23.48,1.449,1.449,0,0,0-.684,1.324,1.336,1.336,0,0,0,.426,1.07A1.767,1.767,0,0,0-7.719-.914ZM5.836,0,4.266-5.023q-.148-.461-.555-2.094H3.648Q3.336-5.75,3.1-5.008L1.484,0h-1.5L-2.352-8.562H-.992L.27-3.648a19.91,19.91,0,0,1,.5,2.273H.828q.086-.445.277-1.152t.332-1.121l1.57-4.914H4.414L5.945-3.648a16.586,16.586,0,0,1,.594,2.258H6.6a8.281,8.281,0,0,1,.168-.867q.137-.586,1.629-6.3H9.742L7.375,0ZM17.148,0V-5.539A2.235,2.235,0,0,0,16.672-7.1a1.941,1.941,0,0,0-1.492-.516,2.461,2.461,0,0,0-1.969.727,3.668,3.668,0,0,0-.625,2.4V0h-1.3V-8.562h1.055l.211,1.172h.063a2.648,2.648,0,0,1,1.117-.98,3.63,3.63,0,0,1,1.6-.348,3.252,3.252,0,0,1,2.328.746,3.175,3.175,0,0,1,.781,2.387V0Z" transform="translate(502.715 4365)" fill="#8cc442"/><g transform="translate(442 4400.5)" fill="none" stroke="#e7e7e8" stroke-miterlimit="10" stroke-width="1"><rect width="124.633" height="73" stroke="none"/><rect x="0.5" y="0.5" width="123.633" height="72" fill="none"/></g><path d="M-7.691-8.094A3.2,3.2,0,0,1-8.875-5.426a5.362,5.362,0,0,1-3.387.934h-1.344V0h-1.328V-11.422h2.961Q-7.691-11.422-7.691-8.094Zm-5.914,2.461h1.2A4.442,4.442,0,0,0-9.855-6.2a2.1,2.1,0,0,0,.789-1.828,1.971,1.971,0,0,0-.742-1.687,3.877,3.877,0,0,0-2.312-.555h-1.484Zm15.5,1.344A4.724,4.724,0,0,1,.84-1.02,3.714,3.714,0,0,1-2.074.156,3.86,3.86,0,0,1-4.113-.383,3.558,3.558,0,0,1-5.488-1.93a5.391,5.391,0,0,1-.484-2.359A4.716,4.716,0,0,1-4.926-7.551,3.7,3.7,0,0,1-2.02-8.719a3.622,3.622,0,0,1,2.855,1.2A4.7,4.7,0,0,1,1.895-4.289Zm-6.523,0a4.064,4.064,0,0,0,.656,2.5,2.278,2.278,0,0,0,1.93.859A2.293,2.293,0,0,0-.109-1.785a4.043,4.043,0,0,0,.66-2.5,3.978,3.978,0,0,0-.66-2.48,2.32,2.32,0,0,0-1.949-.848,2.283,2.283,0,0,0-1.922.836A4.023,4.023,0,0,0-4.629-4.289Zm16.188,0A4.724,4.724,0,0,1,10.5-1.02,3.714,3.714,0,0,1,7.59.156,3.86,3.86,0,0,1,5.551-.383,3.558,3.558,0,0,1,4.176-1.93a5.391,5.391,0,0,1-.484-2.359A4.716,4.716,0,0,1,4.738-7.551,3.7,3.7,0,0,1,7.645-8.719a3.622,3.622,0,0,1,2.855,1.2A4.7,4.7,0,0,1,11.559-4.289Zm-6.523,0a4.064,4.064,0,0,0,.656,2.5,2.278,2.278,0,0,0,1.93.859,2.293,2.293,0,0,0,1.934-.855,4.043,4.043,0,0,0,.66-2.5,3.978,3.978,0,0,0-.66-2.48,2.32,2.32,0,0,0-1.949-.848,2.283,2.283,0,0,0-1.922.836A4.023,4.023,0,0,0,5.035-4.289ZM15.129,0h-1.3V-12.156h1.3Z" transform="translate(503.505 4442)" fill="#47b5bd"/><g transform="translate(442 4480.5)" fill="none" stroke="#e7e7e8" stroke-miterlimit="10" stroke-width="1"><rect width="124.633" height="73" stroke="none"/><rect x="0.5" y="0.5" width="123.633" height="72" fill="none"/></g><path d="M-10.988-5.984h3.883V-.43A12.483,12.483,0,0,1-8.949.008a14.037,14.037,0,0,1-2.172.148A5.264,5.264,0,0,1-15.16-1.387a6.081,6.081,0,0,1-1.445-4.324,6.533,6.533,0,0,1,.715-3.121,4.835,4.835,0,0,1,2.059-2.047,6.669,6.669,0,0,1,3.148-.707,8.6,8.6,0,0,1,3.406.672l-.516,1.172A7.61,7.61,0,0,0-10.77-10.4a4.262,4.262,0,0,0-3.258,1.242A4.821,4.821,0,0,0-15.2-5.711,4.927,4.927,0,0,0-14.07-2.2a4.347,4.347,0,0,0,3.316,1.2,9.854,9.854,0,0,0,2.32-.273V-4.8h-2.555Zm13.82,1.7A4.724,4.724,0,0,1,1.777-1.02,3.714,3.714,0,0,1-1.137.156,3.86,3.86,0,0,1-3.176-.383,3.558,3.558,0,0,1-4.551-1.93a5.391,5.391,0,0,1-.484-2.359A4.716,4.716,0,0,1-3.988-7.551,3.7,3.7,0,0,1-1.082-8.719a3.622,3.622,0,0,1,2.855,1.2A4.7,4.7,0,0,1,2.832-4.289Zm-6.523,0a4.064,4.064,0,0,0,.656,2.5,2.278,2.278,0,0,0,1.93.859A2.293,2.293,0,0,0,.828-1.785a4.043,4.043,0,0,0,.66-2.5,3.978,3.978,0,0,0-.66-2.48,2.32,2.32,0,0,0-1.949-.848,2.283,2.283,0,0,0-1.922.836A4.023,4.023,0,0,0-3.691-4.289ZM6.4,0h-1.3V-12.156H6.4ZM14.98-1.148h-.07a3.047,3.047,0,0,1-2.687,1.3A3.179,3.179,0,0,1,9.609-.992a5.055,5.055,0,0,1-.934-3.266,5.141,5.141,0,0,1,.938-3.289,3.155,3.155,0,0,1,2.609-1.172,3.114,3.114,0,0,1,2.672,1.266H15l-.055-.617-.031-.6v-3.484h1.3V0H15.152ZM12.387-.93a2.361,2.361,0,0,0,1.926-.723,3.652,3.652,0,0,0,.6-2.332v-.273a4.3,4.3,0,0,0-.605-2.6,2.3,2.3,0,0,0-1.934-.777,1.985,1.985,0,0,0-1.746.887,4.409,4.409,0,0,0-.605,2.5,4.227,4.227,0,0,0,.6,2.477A2.037,2.037,0,0,0,12.387-.93Z" transform="translate(503.574 4522)" fill="#fac833"/><g transform="translate(705.217 4320.5)" fill="#e7eef3" stroke="#e7e7e8" stroke-miterlimit="10" stroke-width="1"><rect width="126.493" height="73" stroke="none"/><rect x="0.5" y="0.5" width="125.493" height="72" fill="none"/></g><path d="M-18.164,0V-11.422h1.328V-1.2H-11.8V0ZM-4.789,0l-.258-1.219h-.062A3.6,3.6,0,0,1-6.387-.129a3.893,3.893,0,0,1-1.59.285,2.86,2.86,0,0,1-2-.656A2.394,2.394,0,0,1-10.7-2.367q0-2.594,4.148-2.719l1.453-.047v-.531a2.171,2.171,0,0,0-.434-1.488,1.783,1.783,0,0,0-1.387-.48,5.65,5.65,0,0,0-2.422.656l-.4-.992a6.094,6.094,0,0,1,1.387-.539,6.006,6.006,0,0,1,1.512-.2,3.262,3.262,0,0,1,2.27.68,2.837,2.837,0,0,1,.738,2.18V0Zm-2.93-.914a2.632,2.632,0,0,0,1.9-.664,2.457,2.457,0,0,0,.691-1.859v-.773l-1.3.055a4.717,4.717,0,0,0-2.23.48,1.449,1.449,0,0,0-.684,1.324,1.336,1.336,0,0,0,.426,1.07A1.767,1.767,0,0,0-7.719-.914ZM5.836,0,4.266-5.023q-.148-.461-.555-2.094H3.648Q3.336-5.75,3.1-5.008L1.484,0h-1.5L-2.352-8.562H-.992L.27-3.648a19.91,19.91,0,0,1,.5,2.273H.828q.086-.445.277-1.152t.332-1.121l1.57-4.914H4.414L5.945-3.648a16.586,16.586,0,0,1,.594,2.258H6.6a8.281,8.281,0,0,1,.168-.867q.137-.586,1.629-6.3H9.742L7.375,0ZM17.148,0V-5.539A2.235,2.235,0,0,0,16.672-7.1a1.941,1.941,0,0,0-1.492-.516,2.461,2.461,0,0,0-1.969.727,3.668,3.668,0,0,0-.625,2.4V0h-1.3V-8.562h1.055l.211,1.172h.063a2.648,2.648,0,0,1,1.117-.98,3.63,3.63,0,0,1,1.6-.348,3.252,3.252,0,0,1,2.328.746,3.175,3.175,0,0,1,.781,2.387V0Z" transform="translate(766.861 4365)" fill="#8cc442"/><g transform="translate(705.217 4400.5)" fill="#e7eef3" stroke="#e7e7e8" stroke-miterlimit="10" stroke-width="1"><rect width="124.633" height="73" stroke="none"/><rect x="0.5" y="0.5" width="123.633" height="72" fill="none"/></g><path d="M-7.691-8.094A3.2,3.2,0,0,1-8.875-5.426a5.362,5.362,0,0,1-3.387.934h-1.344V0h-1.328V-11.422h2.961Q-7.691-11.422-7.691-8.094Zm-5.914,2.461h1.2A4.442,4.442,0,0,0-9.855-6.2a2.1,2.1,0,0,0,.789-1.828,1.971,1.971,0,0,0-.742-1.687,3.877,3.877,0,0,0-2.312-.555h-1.484Zm15.5,1.344A4.724,4.724,0,0,1,.84-1.02,3.714,3.714,0,0,1-2.074.156,3.86,3.86,0,0,1-4.113-.383,3.558,3.558,0,0,1-5.488-1.93a5.391,5.391,0,0,1-.484-2.359A4.716,4.716,0,0,1-4.926-7.551,3.7,3.7,0,0,1-2.02-8.719a3.622,3.622,0,0,1,2.855,1.2A4.7,4.7,0,0,1,1.895-4.289Zm-6.523,0a4.064,4.064,0,0,0,.656,2.5,2.278,2.278,0,0,0,1.93.859A2.293,2.293,0,0,0-.109-1.785a4.043,4.043,0,0,0,.66-2.5,3.978,3.978,0,0,0-.66-2.48,2.32,2.32,0,0,0-1.949-.848,2.283,2.283,0,0,0-1.922.836A4.023,4.023,0,0,0-4.629-4.289Zm16.188,0A4.724,4.724,0,0,1,10.5-1.02,3.714,3.714,0,0,1,7.59.156,3.86,3.86,0,0,1,5.551-.383,3.558,3.558,0,0,1,4.176-1.93a5.391,5.391,0,0,1-.484-2.359A4.716,4.716,0,0,1,4.738-7.551,3.7,3.7,0,0,1,7.645-8.719a3.622,3.622,0,0,1,2.855,1.2A4.7,4.7,0,0,1,11.559-4.289Zm-6.523,0a4.064,4.064,0,0,0,.656,2.5,2.278,2.278,0,0,0,1.93.859,2.293,2.293,0,0,0,1.934-.855,4.043,4.043,0,0,0,.66-2.5,3.978,3.978,0,0,0-.66-2.48,2.32,2.32,0,0,0-1.949-.848,2.283,2.283,0,0,0-1.922.836A4.023,4.023,0,0,0,5.035-4.289ZM15.129,0h-1.3V-12.156h1.3Z" transform="translate(766.722 4442)" fill="#47b5bd"/><g transform="translate(705.217 4480.5)" fill="#e7eef3" stroke="#e7e7e8" stroke-miterlimit="10" stroke-width="1"><rect width="126.493" height="73" stroke="none"/><rect x="0.5" y="0.5" width="125.493" height="72" fill="none"/></g><path d="M-10.988-5.984h3.883V-.43A12.483,12.483,0,0,1-8.949.008a14.037,14.037,0,0,1-2.172.148A5.264,5.264,0,0,1-15.16-1.387a6.081,6.081,0,0,1-1.445-4.324,6.533,6.533,0,0,1,.715-3.121,4.835,4.835,0,0,1,2.059-2.047,6.669,6.669,0,0,1,3.148-.707,8.6,8.6,0,0,1,3.406.672l-.516,1.172A7.61,7.61,0,0,0-10.77-10.4a4.262,4.262,0,0,0-3.258,1.242A4.821,4.821,0,0,0-15.2-5.711,4.927,4.927,0,0,0-14.07-2.2a4.347,4.347,0,0,0,3.316,1.2,9.854,9.854,0,0,0,2.32-.273V-4.8h-2.555Zm13.82,1.7A4.724,4.724,0,0,1,1.777-1.02,3.714,3.714,0,0,1-1.137.156,3.86,3.86,0,0,1-3.176-.383,3.558,3.558,0,0,1-4.551-1.93a5.391,5.391,0,0,1-.484-2.359A4.716,4.716,0,0,1-3.988-7.551,3.7,3.7,0,0,1-1.082-8.719a3.622,3.622,0,0,1,2.855,1.2A4.7,4.7,0,0,1,2.832-4.289Zm-6.523,0a4.064,4.064,0,0,0,.656,2.5,2.278,2.278,0,0,0,1.93.859A2.293,2.293,0,0,0,.828-1.785a4.043,4.043,0,0,0,.66-2.5,3.978,3.978,0,0,0-.66-2.48,2.32,2.32,0,0,0-1.949-.848,2.283,2.283,0,0,0-1.922.836A4.023,4.023,0,0,0-3.691-4.289ZM6.4,0h-1.3V-12.156H6.4ZM14.98-1.148h-.07a3.047,3.047,0,0,1-2.687,1.3A3.179,3.179,0,0,1,9.609-.992a5.055,5.055,0,0,1-.934-3.266,5.141,5.141,0,0,1,.938-3.289,3.155,3.155,0,0,1,2.609-1.172,3.114,3.114,0,0,1,2.672,1.266H15l-.055-.617-.031-.6v-3.484h1.3V0H15.152ZM12.387-.93a2.361,2.361,0,0,0,1.926-.723,3.652,3.652,0,0,0,.6-2.332v-.273a4.3,4.3,0,0,0-.605-2.6,2.3,2.3,0,0,0-1.934-.777,1.985,1.985,0,0,0-1.746.887,4.409,4.409,0,0,0-.605,2.5,4.227,4.227,0,0,0,.6,2.477A2.037,2.037,0,0,0,12.387-.93Z" transform="translate(767.722 4522)" fill="#fac833"/><g transform="translate(574.073 4320.5)" fill="#f7f7f7" stroke="#e7e7e8" stroke-miterlimit="10" stroke-width="1"><rect width="125.563" height="73" stroke="none"/><rect x="0.5" y="0.5" width="124.563" height="72" fill="none"/></g><path d="M-18.164,0V-11.422h1.328V-1.2H-11.8V0ZM-4.789,0l-.258-1.219h-.062A3.6,3.6,0,0,1-6.387-.129a3.893,3.893,0,0,1-1.59.285,2.86,2.86,0,0,1-2-.656A2.394,2.394,0,0,1-10.7-2.367q0-2.594,4.148-2.719l1.453-.047v-.531a2.171,2.171,0,0,0-.434-1.488,1.783,1.783,0,0,0-1.387-.48,5.65,5.65,0,0,0-2.422.656l-.4-.992a6.094,6.094,0,0,1,1.387-.539,6.006,6.006,0,0,1,1.512-.2,3.262,3.262,0,0,1,2.27.68,2.837,2.837,0,0,1,.738,2.18V0Zm-2.93-.914a2.632,2.632,0,0,0,1.9-.664,2.457,2.457,0,0,0,.691-1.859v-.773l-1.3.055a4.717,4.717,0,0,0-2.23.48,1.449,1.449,0,0,0-.684,1.324,1.336,1.336,0,0,0,.426,1.07A1.767,1.767,0,0,0-7.719-.914ZM5.836,0,4.266-5.023q-.148-.461-.555-2.094H3.648Q3.336-5.75,3.1-5.008L1.484,0h-1.5L-2.352-8.562H-.992L.27-3.648a19.91,19.91,0,0,1,.5,2.273H.828q.086-.445.277-1.152t.332-1.121l1.57-4.914H4.414L5.945-3.648a16.586,16.586,0,0,1,.594,2.258H6.6a8.281,8.281,0,0,1,.168-.867q.137-.586,1.629-6.3H9.742L7.375,0ZM17.148,0V-5.539A2.235,2.235,0,0,0,16.672-7.1a1.941,1.941,0,0,0-1.492-.516,2.461,2.461,0,0,0-1.969.727,3.668,3.668,0,0,0-.625,2.4V0h-1.3V-8.562h1.055l.211,1.172h.063a2.648,2.648,0,0,1,1.117-.98,3.63,3.63,0,0,1,1.6-.348,3.252,3.252,0,0,1,2.328.746,3.175,3.175,0,0,1,.781,2.387V0Z" transform="translate(635.718 4365)" fill="#8cc442"/><g transform="translate(574.073 4400.5)" fill="#f7f7f7" stroke="#e7e7e8" stroke-miterlimit="10" stroke-width="1"><rect width="125.563" height="73" stroke="none"/><rect x="0.5" y="0.5" width="124.563" height="72" fill="none"/></g><path d="M-7.691-8.094A3.2,3.2,0,0,1-8.875-5.426a5.362,5.362,0,0,1-3.387.934h-1.344V0h-1.328V-11.422h2.961Q-7.691-11.422-7.691-8.094Zm-5.914,2.461h1.2A4.442,4.442,0,0,0-9.855-6.2a2.1,2.1,0,0,0,.789-1.828,1.971,1.971,0,0,0-.742-1.687,3.877,3.877,0,0,0-2.312-.555h-1.484Zm15.5,1.344A4.724,4.724,0,0,1,.84-1.02,3.714,3.714,0,0,1-2.074.156,3.86,3.86,0,0,1-4.113-.383,3.558,3.558,0,0,1-5.488-1.93a5.391,5.391,0,0,1-.484-2.359A4.716,4.716,0,0,1-4.926-7.551,3.7,3.7,0,0,1-2.02-8.719a3.622,3.622,0,0,1,2.855,1.2A4.7,4.7,0,0,1,1.895-4.289Zm-6.523,0a4.064,4.064,0,0,0,.656,2.5,2.278,2.278,0,0,0,1.93.859A2.293,2.293,0,0,0-.109-1.785a4.043,4.043,0,0,0,.66-2.5,3.978,3.978,0,0,0-.66-2.48,2.32,2.32,0,0,0-1.949-.848,2.283,2.283,0,0,0-1.922.836A4.023,4.023,0,0,0-4.629-4.289Zm16.188,0A4.724,4.724,0,0,1,10.5-1.02,3.714,3.714,0,0,1,7.59.156,3.86,3.86,0,0,1,5.551-.383,3.558,3.558,0,0,1,4.176-1.93a5.391,5.391,0,0,1-.484-2.359A4.716,4.716,0,0,1,4.738-7.551,3.7,3.7,0,0,1,7.645-8.719a3.622,3.622,0,0,1,2.855,1.2A4.7,4.7,0,0,1,11.559-4.289Zm-6.523,0a4.064,4.064,0,0,0,.656,2.5,2.278,2.278,0,0,0,1.93.859,2.293,2.293,0,0,0,1.934-.855,4.043,4.043,0,0,0,.66-2.5,3.978,3.978,0,0,0-.66-2.48,2.32,2.32,0,0,0-1.949-.848,2.283,2.283,0,0,0-1.922.836A4.023,4.023,0,0,0,5.035-4.289ZM15.129,0h-1.3V-12.156h1.3Z" transform="translate(636.508 4442)" fill="#47b5bd"/><g transform="translate(574.073 4480.5)" fill="#f7f7f7" stroke="#e7e7e8" stroke-miterlimit="10" stroke-width="1"><rect width="125.563" height="73" stroke="none"/><rect x="0.5" y="0.5" width="124.563" height="72" fill="none"/></g><path d="M-10.988-5.984h3.883V-.43A12.483,12.483,0,0,1-8.949.008a14.037,14.037,0,0,1-2.172.148A5.264,5.264,0,0,1-15.16-1.387a6.081,6.081,0,0,1-1.445-4.324,6.533,6.533,0,0,1,.715-3.121,4.835,4.835,0,0,1,2.059-2.047,6.669,6.669,0,0,1,3.148-.707,8.6,8.6,0,0,1,3.406.672l-.516,1.172A7.61,7.61,0,0,0-10.77-10.4a4.262,4.262,0,0,0-3.258,1.242A4.821,4.821,0,0,0-15.2-5.711,4.927,4.927,0,0,0-14.07-2.2a4.347,4.347,0,0,0,3.316,1.2,9.854,9.854,0,0,0,2.32-.273V-4.8h-2.555Zm13.82,1.7A4.724,4.724,0,0,1,1.777-1.02,3.714,3.714,0,0,1-1.137.156,3.86,3.86,0,0,1-3.176-.383,3.558,3.558,0,0,1-4.551-1.93a5.391,5.391,0,0,1-.484-2.359A4.716,4.716,0,0,1-3.988-7.551,3.7,3.7,0,0,1-1.082-8.719a3.622,3.622,0,0,1,2.855,1.2A4.7,4.7,0,0,1,2.832-4.289Zm-6.523,0a4.064,4.064,0,0,0,.656,2.5,2.278,2.278,0,0,0,1.93.859A2.293,2.293,0,0,0,.828-1.785a4.043,4.043,0,0,0,.66-2.5,3.978,3.978,0,0,0-.66-2.48,2.32,2.32,0,0,0-1.949-.848,2.283,2.283,0,0,0-1.922.836A4.023,4.023,0,0,0-3.691-4.289ZM6.4,0h-1.3V-12.156H6.4ZM14.98-1.148h-.07a3.047,3.047,0,0,1-2.687,1.3A3.179,3.179,0,0,1,9.609-.992a5.055,5.055,0,0,1-.934-3.266,5.141,5.141,0,0,1,.938-3.289,3.155,3.155,0,0,1,2.609-1.172,3.114,3.114,0,0,1,2.672,1.266H15l-.055-.617-.031-.6v-3.484h1.3V0H15.152ZM12.387-.93a2.361,2.361,0,0,0,1.926-.723,3.652,3.652,0,0,0,.6-2.332v-.273a4.3,4.3,0,0,0-.605-2.6,2.3,2.3,0,0,0-1.934-.777,1.985,1.985,0,0,0-1.746.887,4.409,4.409,0,0,0-.605,2.5,4.227,4.227,0,0,0,.6,2.477A2.037,2.037,0,0,0,12.387-.93Z" transform="translate(636.578 4522)" fill="#fac833"/><path d="M0,0,124.257,71.5" transform="translate(442 4320.5)" fill="none" stroke="#f70101" stroke-linecap="square" stroke-miterlimit="10" stroke-width="1"/><path d="M0,0,124.257,71.5" transform="translate(705.217 4400.5)" fill="none" stroke="#f70101" stroke-linecap="square" stroke-miterlimit="10" stroke-width="1"/><path d="M0,0,124.257,71.5" transform="translate(705.217 4480.5)" fill="none" stroke="#f70101" stroke-linecap="square" stroke-miterlimit="10" stroke-width="1"/><path d="M0,0,124.257,71.5" transform="translate(705.217 4320.5)" fill="none" stroke="#f70101" stroke-linecap="square" stroke-miterlimit="10" stroke-width="1"/><path d="M0,0,124.257,71.5" transform="translate(442 4400.5)" fill="none" stroke="#f70101" stroke-linecap="square" stroke-miterlimit="10" stroke-width="1"/><path d="M0,0,124.257,71.5" transform="translate(442 4480.5)" fill="none" stroke="#f70101" stroke-linecap="square" stroke-miterlimit="10" stroke-width="1"/><path d="M0,0,124.257,71.5" transform="translate(574.073 4320.5)" fill="none" stroke="#f70101" stroke-linecap="square" stroke-miterlimit="10" stroke-width="1"/><path d="M0,0,124.257,71.5" transform="translate(574.073 4400.5)" fill="none" stroke="#f70101" stroke-linecap="square" stroke-miterlimit="10" stroke-width="1"/><path d="M0,0,124.257,71.5" transform="translate(574.073 4480.5)" fill="none" stroke="#f70101" stroke-linecap="square" stroke-miterlimit="10" stroke-width="1"/><g transform="translate(837.29 4320.5)" fill="#015193" stroke="#e7e7e8" stroke-miterlimit="10" stroke-width="1"><rect width="126.493" height="73" stroke="none"/><rect x="0.5" y="0.5" width="125.493" height="72" fill="none"/></g><path d="M-18.164,0V-11.422h1.328V-1.2H-11.8V0ZM-4.789,0l-.258-1.219h-.062A3.6,3.6,0,0,1-6.387-.129a3.893,3.893,0,0,1-1.59.285,2.86,2.86,0,0,1-2-.656A2.394,2.394,0,0,1-10.7-2.367q0-2.594,4.148-2.719l1.453-.047v-.531a2.171,2.171,0,0,0-.434-1.488,1.783,1.783,0,0,0-1.387-.48,5.65,5.65,0,0,0-2.422.656l-.4-.992a6.094,6.094,0,0,1,1.387-.539,6.006,6.006,0,0,1,1.512-.2,3.262,3.262,0,0,1,2.27.68,2.837,2.837,0,0,1,.738,2.18V0Zm-2.93-.914a2.632,2.632,0,0,0,1.9-.664,2.457,2.457,0,0,0,.691-1.859v-.773l-1.3.055a4.717,4.717,0,0,0-2.23.48,1.449,1.449,0,0,0-.684,1.324,1.336,1.336,0,0,0,.426,1.07A1.767,1.767,0,0,0-7.719-.914ZM5.836,0,4.266-5.023q-.148-.461-.555-2.094H3.648Q3.336-5.75,3.1-5.008L1.484,0h-1.5L-2.352-8.562H-.992L.27-3.648a19.91,19.91,0,0,1,.5,2.273H.828q.086-.445.277-1.152t.332-1.121l1.57-4.914H4.414L5.945-3.648a16.586,16.586,0,0,1,.594,2.258H6.6a8.281,8.281,0,0,1,.168-.867q.137-.586,1.629-6.3H9.742L7.375,0ZM17.148,0V-5.539A2.235,2.235,0,0,0,16.672-7.1a1.941,1.941,0,0,0-1.492-.516,2.461,2.461,0,0,0-1.969.727,3.668,3.668,0,0,0-.625,2.4V0h-1.3V-8.562h1.055l.211,1.172h.063a2.648,2.648,0,0,1,1.117-.98,3.63,3.63,0,0,1,1.6-.348,3.252,3.252,0,0,1,2.328.746,3.175,3.175,0,0,1,.781,2.387V0Z" transform="translate(898.935 4365)" fill="#8cc442"/><path d="M0,0,124.257,71.5" transform="translate(837.29 4320.5)" fill="none" stroke="#f70101" stroke-linecap="square" stroke-miterlimit="10" stroke-width="1"/><g transform="translate(837.29 4400.5)" fill="#015193" stroke="#e7e7e8" stroke-miterlimit="10" stroke-width="1"><rect width="126.493" height="73" stroke="none"/><rect x="0.5" y="0.5" width="125.493" height="72" fill="none"/></g><path d="M-7.691-8.094A3.2,3.2,0,0,1-8.875-5.426a5.362,5.362,0,0,1-3.387.934h-1.344V0h-1.328V-11.422h2.961Q-7.691-11.422-7.691-8.094Zm-5.914,2.461h1.2A4.442,4.442,0,0,0-9.855-6.2a2.1,2.1,0,0,0,.789-1.828,1.971,1.971,0,0,0-.742-1.687,3.877,3.877,0,0,0-2.312-.555h-1.484Zm15.5,1.344A4.724,4.724,0,0,1,.84-1.02,3.714,3.714,0,0,1-2.074.156,3.86,3.86,0,0,1-4.113-.383,3.558,3.558,0,0,1-5.488-1.93a5.391,5.391,0,0,1-.484-2.359A4.716,4.716,0,0,1-4.926-7.551,3.7,3.7,0,0,1-2.02-8.719a3.622,3.622,0,0,1,2.855,1.2A4.7,4.7,0,0,1,1.895-4.289Zm-6.523,0a4.064,4.064,0,0,0,.656,2.5,2.278,2.278,0,0,0,1.93.859A2.293,2.293,0,0,0-.109-1.785a4.043,4.043,0,0,0,.66-2.5,3.978,3.978,0,0,0-.66-2.48,2.32,2.32,0,0,0-1.949-.848,2.283,2.283,0,0,0-1.922.836A4.023,4.023,0,0,0-4.629-4.289Zm16.188,0A4.724,4.724,0,0,1,10.5-1.02,3.714,3.714,0,0,1,7.59.156,3.86,3.86,0,0,1,5.551-.383,3.558,3.558,0,0,1,4.176-1.93a5.391,5.391,0,0,1-.484-2.359A4.716,4.716,0,0,1,4.738-7.551,3.7,3.7,0,0,1,7.645-8.719a3.622,3.622,0,0,1,2.855,1.2A4.7,4.7,0,0,1,11.559-4.289Zm-6.523,0a4.064,4.064,0,0,0,.656,2.5,2.278,2.278,0,0,0,1.93.859,2.293,2.293,0,0,0,1.934-.855,4.043,4.043,0,0,0,.66-2.5,3.978,3.978,0,0,0-.66-2.48,2.32,2.32,0,0,0-1.949-.848,2.283,2.283,0,0,0-1.922.836A4.023,4.023,0,0,0,5.035-4.289ZM15.129,0h-1.3V-12.156h1.3Z" transform="translate(899.725 4442)" fill="#47b5bd"/><path d="M0,0,124.257,71.5" transform="translate(837.29 4400.5)" fill="none" stroke="#f70101" stroke-linecap="square" stroke-miterlimit="10" stroke-width="1"/><g transform="translate(837.29 4480.5)" fill="#5a7184" stroke="#e7e7e8" stroke-miterlimit="10" stroke-width="1"><rect width="126.493" height="73" stroke="none"/><rect x="0.5" y="0.5" width="125.493" height="72" fill="none"/></g><path d="M-10.988-5.984h3.883V-.43A12.483,12.483,0,0,1-8.949.008a14.037,14.037,0,0,1-2.172.148A5.264,5.264,0,0,1-15.16-1.387a6.081,6.081,0,0,1-1.445-4.324,6.533,6.533,0,0,1,.715-3.121,4.835,4.835,0,0,1,2.059-2.047,6.669,6.669,0,0,1,3.148-.707,8.6,8.6,0,0,1,3.406.672l-.516,1.172A7.61,7.61,0,0,0-10.77-10.4a4.262,4.262,0,0,0-3.258,1.242A4.821,4.821,0,0,0-15.2-5.711,4.927,4.927,0,0,0-14.07-2.2a4.347,4.347,0,0,0,3.316,1.2,9.854,9.854,0,0,0,2.32-.273V-4.8h-2.555Zm13.82,1.7A4.724,4.724,0,0,1,1.777-1.02,3.714,3.714,0,0,1-1.137.156,3.86,3.86,0,0,1-3.176-.383,3.558,3.558,0,0,1-4.551-1.93a5.391,5.391,0,0,1-.484-2.359A4.716,4.716,0,0,1-3.988-7.551,3.7,3.7,0,0,1-1.082-8.719a3.622,3.622,0,0,1,2.855,1.2A4.7,4.7,0,0,1,2.832-4.289Zm-6.523,0a4.064,4.064,0,0,0,.656,2.5,2.278,2.278,0,0,0,1.93.859A2.293,2.293,0,0,0,.828-1.785a4.043,4.043,0,0,0,.66-2.5,3.978,3.978,0,0,0-.66-2.48,2.32,2.32,0,0,0-1.949-.848,2.283,2.283,0,0,0-1.922.836A4.023,4.023,0,0,0-3.691-4.289ZM6.4,0h-1.3V-12.156H6.4ZM14.98-1.148h-.07a3.047,3.047,0,0,1-2.687,1.3A3.179,3.179,0,0,1,9.609-.992a5.055,5.055,0,0,1-.934-3.266,5.141,5.141,0,0,1,.938-3.289,3.155,3.155,0,0,1,2.609-1.172,3.114,3.114,0,0,1,2.672,1.266H15l-.055-.617-.031-.6v-3.484h1.3V0H15.152ZM12.387-.93a2.361,2.361,0,0,0,1.926-.723,3.652,3.652,0,0,0,.6-2.332v-.273a4.3,4.3,0,0,0-.605-2.6,2.3,2.3,0,0,0-1.934-.777,1.985,1.985,0,0,0-1.746.887,4.409,4.409,0,0,0-.605,2.5,4.227,4.227,0,0,0,.6,2.477A2.037,2.037,0,0,0,12.387-.93Z" transform="translate(899.795 4522)" fill="#fac833"/><path d="M0,0,124.257,71.5" transform="translate(837.29 4480.5)" fill="none" stroke="#f70101" stroke-linecap="square" stroke-miterlimit="10" stroke-width="1"/><g transform="translate(969.363 4320.5)" fill="#fac833" stroke="#e7e7e8" stroke-miterlimit="10" stroke-width="1"><rect width="125.563" height="73" stroke="none"/><rect x="0.5" y="0.5" width="124.563" height="72" fill="none"/></g><path d="M-18.164,0V-11.422h1.328V-1.2H-11.8V0ZM-4.789,0l-.258-1.219h-.062A3.6,3.6,0,0,1-6.387-.129a3.893,3.893,0,0,1-1.59.285,2.86,2.86,0,0,1-2-.656A2.394,2.394,0,0,1-10.7-2.367q0-2.594,4.148-2.719l1.453-.047v-.531a2.171,2.171,0,0,0-.434-1.488,1.783,1.783,0,0,0-1.387-.48,5.65,5.65,0,0,0-2.422.656l-.4-.992a6.094,6.094,0,0,1,1.387-.539,6.006,6.006,0,0,1,1.512-.2,3.262,3.262,0,0,1,2.27.68,2.837,2.837,0,0,1,.738,2.18V0Zm-2.93-.914a2.632,2.632,0,0,0,1.9-.664,2.457,2.457,0,0,0,.691-1.859v-.773l-1.3.055a4.717,4.717,0,0,0-2.23.48,1.449,1.449,0,0,0-.684,1.324,1.336,1.336,0,0,0,.426,1.07A1.767,1.767,0,0,0-7.719-.914ZM5.836,0,4.266-5.023q-.148-.461-.555-2.094H3.648Q3.336-5.75,3.1-5.008L1.484,0h-1.5L-2.352-8.562H-.992L.27-3.648a19.91,19.91,0,0,1,.5,2.273H.828q.086-.445.277-1.152t.332-1.121l1.57-4.914H4.414L5.945-3.648a16.586,16.586,0,0,1,.594,2.258H6.6a8.281,8.281,0,0,1,.168-.867q.137-.586,1.629-6.3H9.742L7.375,0ZM17.148,0V-5.539A2.235,2.235,0,0,0,16.672-7.1a1.941,1.941,0,0,0-1.492-.516,2.461,2.461,0,0,0-1.969.727,3.668,3.668,0,0,0-.625,2.4V0h-1.3V-8.562h1.055l.211,1.172h.063a2.648,2.648,0,0,1,1.117-.98,3.63,3.63,0,0,1,1.6-.348,3.252,3.252,0,0,1,2.328.746,3.175,3.175,0,0,1,.781,2.387V0Z" transform="translate(1031.008 4365)" fill="#8cc442"/><g transform="translate(1102.367 4320.5)" fill="#5a7184" stroke="#e7e7e8" stroke-miterlimit="10" stroke-width="1"><rect width="124.633" height="73" stroke="none"/><rect x="0.5" y="0.5" width="123.633" height="72" fill="none"/></g><path d="M-18.164,0V-11.422h1.328V-1.2H-11.8V0ZM-4.789,0l-.258-1.219h-.062A3.6,3.6,0,0,1-6.387-.129a3.893,3.893,0,0,1-1.59.285,2.86,2.86,0,0,1-2-.656A2.394,2.394,0,0,1-10.7-2.367q0-2.594,4.148-2.719l1.453-.047v-.531a2.171,2.171,0,0,0-.434-1.488,1.783,1.783,0,0,0-1.387-.48,5.65,5.65,0,0,0-2.422.656l-.4-.992a6.094,6.094,0,0,1,1.387-.539,6.006,6.006,0,0,1,1.512-.2,3.262,3.262,0,0,1,2.27.68,2.837,2.837,0,0,1,.738,2.18V0Zm-2.93-.914a2.632,2.632,0,0,0,1.9-.664,2.457,2.457,0,0,0,.691-1.859v-.773l-1.3.055a4.717,4.717,0,0,0-2.23.48,1.449,1.449,0,0,0-.684,1.324,1.336,1.336,0,0,0,.426,1.07A1.767,1.767,0,0,0-7.719-.914ZM5.836,0,4.266-5.023q-.148-.461-.555-2.094H3.648Q3.336-5.75,3.1-5.008L1.484,0h-1.5L-2.352-8.562H-.992L.27-3.648a19.91,19.91,0,0,1,.5,2.273H.828q.086-.445.277-1.152t.332-1.121l1.57-4.914H4.414L5.945-3.648a16.586,16.586,0,0,1,.594,2.258H6.6a8.281,8.281,0,0,1,.168-.867q.137-.586,1.629-6.3H9.742L7.375,0ZM17.148,0V-5.539A2.235,2.235,0,0,0,16.672-7.1a1.941,1.941,0,0,0-1.492-.516,2.461,2.461,0,0,0-1.969.727,3.668,3.668,0,0,0-.625,2.4V0h-1.3V-8.562h1.055l.211,1.172h.063a2.648,2.648,0,0,1,1.117-.98,3.63,3.63,0,0,1,1.6-.348,3.252,3.252,0,0,1,2.328.746,3.175,3.175,0,0,1,.781,2.387V0Z" transform="translate(1163.082 4365)" fill="#8cc442"/><path d="M0,0,124.257,71.5" transform="translate(969.363 4320.5)" fill="none" stroke="#f70101" stroke-linecap="square" stroke-miterlimit="10" stroke-width="1"/><path d="M0,0,122.4,71.5" transform="translate(1102.367 4320.5)" fill="none" stroke="#f70101" stroke-linecap="square" stroke-miterlimit="10" stroke-width="1"/><g transform="translate(969.363 4400.5)" fill="#fac833" stroke="#e7e7e8" stroke-miterlimit="10" stroke-width="1"><rect width="125.563" height="73" stroke="none"/><rect x="0.5" y="0.5" width="124.563" height="72" fill="none"/></g><path d="M-7.691-8.094A3.2,3.2,0,0,1-8.875-5.426a5.362,5.362,0,0,1-3.387.934h-1.344V0h-1.328V-11.422h2.961Q-7.691-11.422-7.691-8.094Zm-5.914,2.461h1.2A4.442,4.442,0,0,0-9.855-6.2a2.1,2.1,0,0,0,.789-1.828,1.971,1.971,0,0,0-.742-1.687,3.877,3.877,0,0,0-2.312-.555h-1.484Zm15.5,1.344A4.724,4.724,0,0,1,.84-1.02,3.714,3.714,0,0,1-2.074.156,3.86,3.86,0,0,1-4.113-.383,3.558,3.558,0,0,1-5.488-1.93a5.391,5.391,0,0,1-.484-2.359A4.716,4.716,0,0,1-4.926-7.551,3.7,3.7,0,0,1-2.02-8.719a3.622,3.622,0,0,1,2.855,1.2A4.7,4.7,0,0,1,1.895-4.289Zm-6.523,0a4.064,4.064,0,0,0,.656,2.5,2.278,2.278,0,0,0,1.93.859A2.293,2.293,0,0,0-.109-1.785a4.043,4.043,0,0,0,.66-2.5,3.978,3.978,0,0,0-.66-2.48,2.32,2.32,0,0,0-1.949-.848,2.283,2.283,0,0,0-1.922.836A4.023,4.023,0,0,0-4.629-4.289Zm16.188,0A4.724,4.724,0,0,1,10.5-1.02,3.714,3.714,0,0,1,7.59.156,3.86,3.86,0,0,1,5.551-.383,3.558,3.558,0,0,1,4.176-1.93a5.391,5.391,0,0,1-.484-2.359A4.716,4.716,0,0,1,4.738-7.551,3.7,3.7,0,0,1,7.645-8.719a3.622,3.622,0,0,1,2.855,1.2A4.7,4.7,0,0,1,11.559-4.289Zm-6.523,0a4.064,4.064,0,0,0,.656,2.5,2.278,2.278,0,0,0,1.93.859,2.293,2.293,0,0,0,1.934-.855,4.043,4.043,0,0,0,.66-2.5,3.978,3.978,0,0,0-.66-2.48,2.32,2.32,0,0,0-1.949-.848,2.283,2.283,0,0,0-1.922.836A4.023,4.023,0,0,0,5.035-4.289ZM15.129,0h-1.3V-12.156h1.3Z" transform="translate(1031.799 4442)" fill="#47b5bd"/><g transform="translate(1102.367 4400.5)" fill="#8cc442" stroke="#e7e7e8" stroke-miterlimit="10" stroke-width="1"><rect width="124.633" height="73" stroke="none"/><rect x="0.5" y="0.5" width="123.633" height="72" fill="none"/></g><path d="M-7.691-8.094A3.2,3.2,0,0,1-8.875-5.426a5.362,5.362,0,0,1-3.387.934h-1.344V0h-1.328V-11.422h2.961Q-7.691-11.422-7.691-8.094Zm-5.914,2.461h1.2A4.442,4.442,0,0,0-9.855-6.2a2.1,2.1,0,0,0,.789-1.828,1.971,1.971,0,0,0-.742-1.687,3.877,3.877,0,0,0-2.312-.555h-1.484Zm15.5,1.344A4.724,4.724,0,0,1,.84-1.02,3.714,3.714,0,0,1-2.074.156,3.86,3.86,0,0,1-4.113-.383,3.558,3.558,0,0,1-5.488-1.93a5.391,5.391,0,0,1-.484-2.359A4.716,4.716,0,0,1-4.926-7.551,3.7,3.7,0,0,1-2.02-8.719a3.622,3.622,0,0,1,2.855,1.2A4.7,4.7,0,0,1,1.895-4.289Zm-6.523,0a4.064,4.064,0,0,0,.656,2.5,2.278,2.278,0,0,0,1.93.859A2.293,2.293,0,0,0-.109-1.785a4.043,4.043,0,0,0,.66-2.5,3.978,3.978,0,0,0-.66-2.48,2.32,2.32,0,0,0-1.949-.848,2.283,2.283,0,0,0-1.922.836A4.023,4.023,0,0,0-4.629-4.289Zm16.188,0A4.724,4.724,0,0,1,10.5-1.02,3.714,3.714,0,0,1,7.59.156,3.86,3.86,0,0,1,5.551-.383,3.558,3.558,0,0,1,4.176-1.93a5.391,5.391,0,0,1-.484-2.359A4.716,4.716,0,0,1,4.738-7.551,3.7,3.7,0,0,1,7.645-8.719a3.622,3.622,0,0,1,2.855,1.2A4.7,4.7,0,0,1,11.559-4.289Zm-6.523,0a4.064,4.064,0,0,0,.656,2.5,2.278,2.278,0,0,0,1.93.859,2.293,2.293,0,0,0,1.934-.855,4.043,4.043,0,0,0,.66-2.5,3.978,3.978,0,0,0-.66-2.48,2.32,2.32,0,0,0-1.949-.848,2.283,2.283,0,0,0-1.922.836A4.023,4.023,0,0,0,5.035-4.289ZM15.129,0h-1.3V-12.156h1.3Z" transform="translate(1163.872 4442)" fill="#47b5bd"/><path d="M0,0,124.257,71.5" transform="translate(969.363 4400.5)" fill="none" stroke="#f70101" stroke-linecap="square" stroke-miterlimit="10" stroke-width="1"/><path d="M0,0,122.4,71.5" transform="translate(1102.367 4400.5)" fill="none" stroke="#f70101" stroke-linecap="square" stroke-miterlimit="10" stroke-width="1"/><g transform="translate(969.363 4480.5)" fill="#47b5bd" stroke="#e7e7e8" stroke-miterlimit="10" stroke-width="1"><rect width="125.563" height="73" stroke="none"/><rect x="0.5" y="0.5" width="124.563" height="72" fill="none"/></g><path d="M-10.988-5.984h3.883V-.43A12.483,12.483,0,0,1-8.949.008a14.037,14.037,0,0,1-2.172.148A5.264,5.264,0,0,1-15.16-1.387a6.081,6.081,0,0,1-1.445-4.324,6.533,6.533,0,0,1,.715-3.121,4.835,4.835,0,0,1,2.059-2.047,6.669,6.669,0,0,1,3.148-.707,8.6,8.6,0,0,1,3.406.672l-.516,1.172A7.61,7.61,0,0,0-10.77-10.4a4.262,4.262,0,0,0-3.258,1.242A4.821,4.821,0,0,0-15.2-5.711,4.927,4.927,0,0,0-14.07-2.2a4.347,4.347,0,0,0,3.316,1.2,9.854,9.854,0,0,0,2.32-.273V-4.8h-2.555Zm13.82,1.7A4.724,4.724,0,0,1,1.777-1.02,3.714,3.714,0,0,1-1.137.156,3.86,3.86,0,0,1-3.176-.383,3.558,3.558,0,0,1-4.551-1.93a5.391,5.391,0,0,1-.484-2.359A4.716,4.716,0,0,1-3.988-7.551,3.7,3.7,0,0,1-1.082-8.719a3.622,3.622,0,0,1,2.855,1.2A4.7,4.7,0,0,1,2.832-4.289Zm-6.523,0a4.064,4.064,0,0,0,.656,2.5,2.278,2.278,0,0,0,1.93.859A2.293,2.293,0,0,0,.828-1.785a4.043,4.043,0,0,0,.66-2.5,3.978,3.978,0,0,0-.66-2.48,2.32,2.32,0,0,0-1.949-.848,2.283,2.283,0,0,0-1.922.836A4.023,4.023,0,0,0-3.691-4.289ZM6.4,0h-1.3V-12.156H6.4ZM14.98-1.148h-.07a3.047,3.047,0,0,1-2.687,1.3A3.179,3.179,0,0,1,9.609-.992a5.055,5.055,0,0,1-.934-3.266,5.141,5.141,0,0,1,.938-3.289,3.155,3.155,0,0,1,2.609-1.172,3.114,3.114,0,0,1,2.672,1.266H15l-.055-.617-.031-.6v-3.484h1.3V0H15.152ZM12.387-.93a2.361,2.361,0,0,0,1.926-.723,3.652,3.652,0,0,0,.6-2.332v-.273a4.3,4.3,0,0,0-.605-2.6,2.3,2.3,0,0,0-1.934-.777,1.985,1.985,0,0,0-1.746.887,4.409,4.409,0,0,0-.605,2.5,4.227,4.227,0,0,0,.6,2.477A2.037,2.037,0,0,0,12.387-.93Z" transform="translate(1031.868 4522)" fill="#fac833"/><g transform="translate(1102.367 4480.5)" fill="#8cc442" stroke="#e7e7e8" stroke-miterlimit="10" stroke-width="1"><rect width="124.633" height="73" stroke="none"/><rect x="0.5" y="0.5" width="123.633" height="72" fill="none"/></g><path d="M-10.988-5.984h3.883V-.43A12.483,12.483,0,0,1-8.949.008a14.037,14.037,0,0,1-2.172.148A5.264,5.264,0,0,1-15.16-1.387a6.081,6.081,0,0,1-1.445-4.324,6.533,6.533,0,0,1,.715-3.121,4.835,4.835,0,0,1,2.059-2.047,6.669,6.669,0,0,1,3.148-.707,8.6,8.6,0,0,1,3.406.672l-.516,1.172A7.61,7.61,0,0,0-10.77-10.4a4.262,4.262,0,0,0-3.258,1.242A4.821,4.821,0,0,0-15.2-5.711,4.927,4.927,0,0,0-14.07-2.2a4.347,4.347,0,0,0,3.316,1.2,9.854,9.854,0,0,0,2.32-.273V-4.8h-2.555Zm13.82,1.7A4.724,4.724,0,0,1,1.777-1.02,3.714,3.714,0,0,1-1.137.156,3.86,3.86,0,0,1-3.176-.383,3.558,3.558,0,0,1-4.551-1.93a5.391,5.391,0,0,1-.484-2.359A4.716,4.716,0,0,1-3.988-7.551,3.7,3.7,0,0,1-1.082-8.719a3.622,3.622,0,0,1,2.855,1.2A4.7,4.7,0,0,1,2.832-4.289Zm-6.523,0a4.064,4.064,0,0,0,.656,2.5,2.278,2.278,0,0,0,1.93.859A2.293,2.293,0,0,0,.828-1.785a4.043,4.043,0,0,0,.66-2.5,3.978,3.978,0,0,0-.66-2.48,2.32,2.32,0,0,0-1.949-.848,2.283,2.283,0,0,0-1.922.836A4.023,4.023,0,0,0-3.691-4.289ZM6.4,0h-1.3V-12.156H6.4ZM14.98-1.148h-.07a3.047,3.047,0,0,1-2.687,1.3A3.179,3.179,0,0,1,9.609-.992a5.055,5.055,0,0,1-.934-3.266,5.141,5.141,0,0,1,.938-3.289,3.155,3.155,0,0,1,2.609-1.172,3.114,3.114,0,0,1,2.672,1.266H15l-.055-.617-.031-.6v-3.484h1.3V0H15.152ZM12.387-.93a2.361,2.361,0,0,0,1.926-.723,3.652,3.652,0,0,0,.6-2.332v-.273a4.3,4.3,0,0,0-.605-2.6,2.3,2.3,0,0,0-1.934-.777,1.985,1.985,0,0,0-1.746.887,4.409,4.409,0,0,0-.605,2.5,4.227,4.227,0,0,0,.6,2.477A2.037,2.037,0,0,0,12.387-.93Z" transform="translate(1163.941 4522)" fill="#fac833"/><path d="M0,0,124.257,71.5" transform="translate(969.363 4480.5)" fill="none" stroke="#f70101" stroke-linecap="square" stroke-miterlimit="10" stroke-width="1"/><path d="M0,0,122.4,71.5" transform="translate(1102.367 4480.5)" fill="none" stroke="#f70101" stroke-linecap="square" stroke-miterlimit="10" stroke-width="1"/></g></svg>