<svg xmlns="http://www.w3.org/2000/svg" width="775" height="48.621" viewBox="0 0 775 48.621"><g transform="translate(-439 -662.5)"><g transform="translate(439 662.5)"><rect width="775" height="48.621" rx="4" fill="#015294"/><rect width="775" height="48.621" rx="4" fill="none"/></g><path d="M18.333,0h-.421a1.656,1.656,0,0,0-1.179.494l-3.4,3.443V1.688A1.677,1.677,0,0,0,11.667,0h-10A1.677,1.677,0,0,0,0,1.688V11.813A1.677,1.677,0,0,0,1.667,13.5h10a1.677,1.677,0,0,0,1.667-1.687V9.563l3.4,3.443a1.656,1.656,0,0,0,1.179.494h.421A1.677,1.677,0,0,0,20,11.813V1.688A1.677,1.677,0,0,0,18.333,0Z" transform="translate(1117 679.75)" fill="#3baecc"/><path d="M16.071,10H6.107V5.973a2.894,2.894,0,0,1,5.786-.035v.625a.949.949,0,0,0,.964.937h1.286a.949.949,0,0,0,.964-.937V5.938A6.031,6.031,0,0,0,8.98,0,6.061,6.061,0,0,0,2.893,6v4H1.929A1.9,1.9,0,0,0,0,11.875v6.25A1.9,1.9,0,0,0,1.929,20H16.071A1.9,1.9,0,0,0,18,18.125v-6.25A1.9,1.9,0,0,0,16.071,10Z" transform="translate(1158 676.5)" fill="#3baecc"/><path d="M15.061,17.334a1.11,1.11,0,0,1-.914-.483,1.135,1.135,0,0,1,.28-1.566,7.922,7.922,0,0,0-.376-13.2A1.135,1.135,0,0,1,13.683.538,1.1,1.1,0,0,1,15.21.166,10.125,10.125,0,0,1,18.69,3.8a10.213,10.213,0,0,1-3,13.335A1.1,1.1,0,0,1,15.061,17.334ZM8.05,15.558a.816.816,0,0,1-.583-.248l-3.09-3.127H.833A.84.84,0,0,1,0,11.34V6.277a.839.839,0,0,1,.833-.843H4.377l3.09-3.128a.815.815,0,0,1,.582-.247.834.834,0,0,1,.841.844V14.714A.834.834,0,0,1,8.05,15.558Zm5.114-1a1.107,1.107,0,0,1-.913-.483,1.135,1.135,0,0,1,.279-1.566,4.533,4.533,0,0,0-.214-7.544,1.134,1.134,0,0,1-.369-1.546,1.1,1.1,0,0,1,1.528-.374A6.8,6.8,0,0,1,13.8,14.359,1.1,1.1,0,0,1,13.163,14.559Zm-1.9-2.775a1.108,1.108,0,0,1-.914-.484,1.137,1.137,0,0,1,.28-1.566,1.134,1.134,0,0,0,.48-.925,1.122,1.122,0,0,0-.533-.961A1.134,1.134,0,0,1,10.21,6.3a1.1,1.1,0,0,1,1.527-.373,3.4,3.4,0,0,1,.161,5.656A1.1,1.1,0,0,1,11.266,11.784Z" transform="translate(1077 677.833)" fill="#3baecc"/><path d="M9.921,14a2,2,0,1,1,2-2A2,2,0,0,1,9.921,14Zm4.853-4.679a.5.5,0,0,1-.325-.122,6.88,6.88,0,0,0-9.056,0,.5.5,0,0,1-.679-.025L3.65,8.112a.5.5,0,0,1,.017-.724,9.38,9.38,0,0,1,12.506,0,.5.5,0,0,1,.017.724L15.129,9.174A.5.5,0,0,1,14.774,9.321ZM1.561,5.765a.5.5,0,0,1-.353-.146L.147,4.558a.5.5,0,0,1,.011-.718,14.333,14.333,0,0,1,19.526,0,.5.5,0,0,1,.011.718L18.634,5.619a.5.5,0,0,1-.353.146.5.5,0,0,1-.342-.134,11.826,11.826,0,0,0-16.036,0A.5.5,0,0,1,1.561,5.765Z" transform="translate(1037.079 679.5)" fill="#3baecc"/><path d="M17.915,10l1.8-1.758a.931.931,0,0,0-.417-1.576l-2.447-.625.69-2.422a.946.946,0,0,0-1.159-1.159l-2.422.69L13.333.7A.937.937,0,0,0,11.757.282L10,2.093,8.243.282A.937.937,0,0,0,6.667.7L6.043,3.147l-2.422-.69A.946.946,0,0,0,2.463,3.616l.69,2.422L.705,6.663A.931.931,0,0,0,.289,8.239L2.085,10l-1.8,1.758a.931.931,0,0,0,.417,1.576l2.447.625-.69,2.422a.946.946,0,0,0,1.159,1.159l2.422-.69.624,2.448a.929.929,0,0,0,1.575.417L10,17.914l1.757,1.8a.933.933,0,0,0,1.575-.417l.624-2.448,2.422.69a.946.946,0,0,0,1.159-1.159l-.69-2.422,2.447-.625a.931.931,0,0,0,.417-1.576L17.915,10Z" transform="translate(997 676.5)" fill="#3baecc"/><path d="M18.125,17.5H1.875A1.877,1.877,0,0,1,0,15.625V4.375A1.877,1.877,0,0,1,1.875,2.5H5.313l.481-1.285A1.878,1.878,0,0,1,7.546,0h4.9A1.881,1.881,0,0,1,14.2,1.215L14.687,2.5h3.438A1.877,1.877,0,0,1,20,4.375v11.25A1.877,1.877,0,0,1,18.125,17.5ZM10,5.313A4.687,4.687,0,1,0,14.687,10,4.693,4.693,0,0,0,10,5.313Zm0,8.125A3.438,3.438,0,1,1,13.438,10,3.441,3.441,0,0,1,10,13.438Z" transform="translate(957 677.75)" fill="#3baecc"/><path d="M18.125,15H1.875A1.877,1.877,0,0,1,0,13.125V1.875A1.877,1.877,0,0,1,1.875,0h16.25A1.877,1.877,0,0,1,20,1.875v11.25A1.877,1.877,0,0,1,18.125,15ZM4.962,8.526l-1.219.3A1.638,1.638,0,0,0,2.5,10.422v.633a.821.821,0,0,0,.82.82h7.11a.821.821,0,0,0,.82-.82v-.633A1.638,1.638,0,0,0,10.007,8.83l-1.219-.3a3.239,3.239,0,0,1-1.894.616A3.336,3.336,0,0,1,4.962,8.526Zm8.007.224a.469.469,0,0,0-.469.469v.312a.469.469,0,0,0,.469.469h4.063a.469.469,0,0,0,.468-.469V9.219a.469.469,0,0,0-.468-.469ZM6.875,3.125A2.735,2.735,0,1,0,9.609,5.859,2.737,2.737,0,0,0,6.875,3.125ZM12.969,6.25a.469.469,0,0,0-.469.469v.312a.469.469,0,0,0,.469.469h4.063a.469.469,0,0,0,.468-.469V6.719a.469.469,0,0,0-.468-.469Zm0-2.5a.469.469,0,0,0-.469.468v.313A.469.469,0,0,0,12.969,5h4.063a.469.469,0,0,0,.468-.469V4.218a.469.469,0,0,0-.468-.468Z" transform="translate(477 679)" fill="#3baecc"/><path d="M17.813,17.5H2.188a.938.938,0,0,1-.938-.937V5.937A.938.938,0,0,1,2.188,5H17.813a.938.938,0,0,1,.937.937V16.563A.938.938,0,0,1,17.813,17.5ZM7.969,7.5a.469.469,0,0,0-.469.469v.312a.469.469,0,0,0,.469.469h4.063a.469.469,0,0,0,.469-.469V7.969a.469.469,0,0,0-.469-.469ZM19.063,3.75H.938A.939.939,0,0,1,0,2.813V.938A.939.939,0,0,1,.938,0H19.063A.938.938,0,0,1,20,.938V2.813A.938.938,0,0,1,19.063,3.75Z" transform="translate(517 677.75)" fill="#3baecc"/><path d="M9.688,19.375a9.688,9.688,0,1,1,9.688-9.688A9.7,9.7,0,0,1,9.688,19.375ZM3.8,5.566h0A7.189,7.189,0,0,0,13.81,15.577L3.8,5.566ZM9.693,2.5A7.14,7.14,0,0,0,5.566,3.8L15.577,13.81A7.189,7.189,0,0,0,9.693,2.5Z" transform="translate(557.313 676.813)" fill="#3baecc"/><path d="M17.357,15.313H.643A.635.635,0,0,1,0,14.687V13.125A.635.635,0,0,1,.643,12.5H17.357a.635.635,0,0,1,.643.625v1.562A.635.635,0,0,1,17.357,15.313Zm0-6.25H.643A.635.635,0,0,1,0,8.438V6.875A.635.635,0,0,1,.643,6.25H17.357A.635.635,0,0,1,18,6.875V8.438A.635.635,0,0,1,17.357,9.062Zm0-6.25H.643A.635.635,0,0,1,0,2.188V.625A.635.635,0,0,1,.643,0H17.357A.635.635,0,0,1,18,.625V2.188A.635.635,0,0,1,17.357,2.813Z" transform="translate(598 678.844)" fill="#3baecc"/><path d="M17.5,10H1.5A1.5,1.5,0,0,1,0,8.5v-7A1.5,1.5,0,0,1,1.5,0h16A1.5,1.5,0,0,1,19,1.5V2h.25A.751.751,0,0,1,20,2.75v4.5a.751.751,0,0,1-.75.75H19v.5A1.5,1.5,0,0,1,17.5,10ZM2,2V8H17V6h1V4H17V2ZM13,7H3V3H13V7Z" transform="translate(637 681.5)" fill="#3baecc"/><path d="M9,20a2.539,2.539,0,0,1-2.571-2.5h-4.5A1.893,1.893,0,0,1,.139,16.312,1.812,1.812,0,0,1,.567,14.3c.893-.869,2-1.95,2-6.174A6.147,6.147,0,0,1,4.114,4.064a6.479,6.479,0,0,1,3.828-2.1,1.226,1.226,0,0,1-.228-.71,1.287,1.287,0,0,1,2.572,0,1.219,1.219,0,0,1-.228.71,6.481,6.481,0,0,1,3.828,2.1,6.147,6.147,0,0,1,1.543,4.062c0,4.224,1.111,5.305,2,6.174a1.811,1.811,0,0,1,.428,2.012A1.894,1.894,0,0,1,16.07,17.5h-4.5A2.54,2.54,0,0,1,9,20ZM7.393,17.5A1.588,1.588,0,0,0,9,19.063a.313.313,0,1,0,0-.625.952.952,0,0,1-.964-.938H7.393Z" transform="translate(678 676.5)" fill="#3baecc"/><path d="M0,20V1.875A1.875,1.875,0,0,1,1.875,0h11.25A1.875,1.875,0,0,1,15,1.875V20L7.5,15.625Z" transform="translate(719.5 676.5)" fill="#3baecc"/><path d="M18.125,17.5H1.875A1.877,1.877,0,0,1,0,15.625V10H7.5v.781a.469.469,0,0,0,.469.469h4.063a.469.469,0,0,0,.469-.469V10H20v5.625A1.877,1.877,0,0,1,18.125,17.5ZM20,8.75H0V5.625A1.877,1.877,0,0,1,1.875,3.75H5V1.875A1.877,1.877,0,0,1,6.875,0h6.25A1.877,1.877,0,0,1,15,1.875V3.75h3.125A1.877,1.877,0,0,1,20,5.625V8.749ZM7.5,2.5V3.75h5V2.5Z" transform="translate(757 677.75)" fill="#3baecc"/><path d="M17.5,20a1.242,1.242,0,0,1-.884-.367L14.478,17.5a5.642,5.642,0,0,1-3.541,1.254V9.219a.469.469,0,0,0-.469-.469H9.531a.469.469,0,0,0-.469.469V18.75A5.636,5.636,0,0,1,5.522,17.5L3.384,19.634a1.25,1.25,0,1,1-1.768-1.768l2.353-2.353a5.566,5.566,0,0,1-.532-2.389V12.5H1.276A1.271,1.271,0,0,1,0,11.285,1.249,1.249,0,0,1,1.25,10H3.437V7.7L1.616,5.884A1.25,1.25,0,0,1,3.384,4.116L5.518,6.25h8.964l2.134-2.134a1.25,1.25,0,0,1,1.768,1.768L16.563,7.7V10H18.75A1.251,1.251,0,0,1,20,11.285,1.273,1.273,0,0,1,18.724,12.5H16.563v.625a5.565,5.565,0,0,1-.532,2.389l2.354,2.353A1.25,1.25,0,0,1,17.5,20ZM14.414,4.375H5.664a4.375,4.375,0,0,1,8.751,0Z" transform="translate(797 676.5)" fill="#3baecc"/><path d="M18,20H0v-.781a.476.476,0,0,1,.482-.469h.8V.938A.952.952,0,0,1,2.25,0h13.5a.952.952,0,0,1,.964.938V18.75h.8a.476.476,0,0,1,.482.469V20ZM8.2,15a.476.476,0,0,0-.482.468V18.75h2.572V15.468A.476.476,0,0,0,9.8,15Zm2.571-5a.476.476,0,0,0-.482.469v1.562a.476.476,0,0,0,.482.469h1.607a.476.476,0,0,0,.482-.469V10.469A.476.476,0,0,0,12.375,10ZM5.625,10a.476.476,0,0,0-.482.469v1.562a.476.476,0,0,0,.482.469H7.232a.476.476,0,0,0,.482-.469V10.469A.476.476,0,0,0,7.232,10Zm5.143-3.75a.476.476,0,0,0-.482.469V8.281a.476.476,0,0,0,.482.469h1.607a.476.476,0,0,0,.482-.469V6.718a.476.476,0,0,0-.482-.469Zm-5.143,0a.476.476,0,0,0-.482.469V8.281a.476.476,0,0,0,.482.469H7.232a.476.476,0,0,0,.482-.469V6.718a.476.476,0,0,0-.482-.469ZM10.768,2.5a.476.476,0,0,0-.482.469V4.531A.476.476,0,0,0,10.768,5h1.607a.476.476,0,0,0,.482-.469V2.969a.476.476,0,0,0-.482-.469Zm-5.143,0a.476.476,0,0,0-.482.469V4.531A.476.476,0,0,0,5.625,5H7.232a.476.476,0,0,0,.482-.469V2.969A.476.476,0,0,0,7.232,2.5Z" transform="translate(838 676.5)" fill="#3baecc"/><path d="M6.03,18h0a3.746,3.746,0,0,1-1.862-.41.837.837,0,0,1-.345-.453c-.054-.172-.11-.344-.166-.517a8.62,8.62,0,0,1-.487-5.37h-1.5A1.679,1.679,0,0,1,0,9.562V6.188A1.679,1.679,0,0,1,1.667,4.5H7.222c4.307,0,6.983-2.344,9.134-4.228L16.667,0a2.239,2.239,0,0,1,2.222,2.25V6.284a1.7,1.7,0,0,1,0,3.182V13.5a2.239,2.239,0,0,1-2.222,2.25l-.309-.27a23.169,23.169,0,0,0-3.523-2.692,10.8,10.8,0,0,0-4.884-1.515A1.806,1.806,0,0,0,6.812,12.4a1.621,1.621,0,0,0,.148,1.429.437.437,0,0,1,.036.41,1.861,1.861,0,0,0,.688,2.14.854.854,0,0,1,.239.772.84.84,0,0,1-.5.618A3.757,3.757,0,0,1,6.03,18ZM16.667,2.958A14.836,14.836,0,0,1,8.889,6.649V9.1a14.836,14.836,0,0,1,7.778,3.691Z" transform="translate(877 677.5)" fill="#3baecc"/><path d="M16.071,20H1.929A1.9,1.9,0,0,1,0,18.125V7.969A.476.476,0,0,1,.482,7.5H17.518A.476.476,0,0,1,18,7.969V18.125A1.9,1.9,0,0,1,16.071,20Zm-2.732-5a.475.475,0,0,0-.481.468v1.563a.475.475,0,0,0,.481.468h1.607a.476.476,0,0,0,.482-.468V15.468A.476.476,0,0,0,14.946,15ZM8.2,15a.476.476,0,0,0-.482.468v1.563A.476.476,0,0,0,8.2,17.5H9.8a.476.476,0,0,0,.482-.468V15.468A.476.476,0,0,0,9.8,15ZM3.054,15a.476.476,0,0,0-.482.468v1.563a.476.476,0,0,0,.482.468H4.661a.475.475,0,0,0,.482-.468V15.468A.475.475,0,0,0,4.661,15Zm10.285-5a.476.476,0,0,0-.481.469v1.562a.476.476,0,0,0,.481.469h1.607a.476.476,0,0,0,.482-.469V10.469A.476.476,0,0,0,14.946,10ZM8.2,10a.476.476,0,0,0-.482.469v1.562A.476.476,0,0,0,8.2,12.5H9.8a.476.476,0,0,0,.482-.469V10.469A.476.476,0,0,0,9.8,10ZM3.054,10a.476.476,0,0,0-.482.469v1.562a.476.476,0,0,0,.482.469H4.661a.476.476,0,0,0,.482-.469V10.469A.476.476,0,0,0,4.661,10ZM17.518,6.25H.482A.476.476,0,0,1,0,5.782V4.375A1.9,1.9,0,0,1,1.929,2.5H3.857V.469A.476.476,0,0,1,4.339,0H5.946a.476.476,0,0,1,.482.469V2.5h5.143V.469A.476.476,0,0,1,12.054,0h1.607a.476.476,0,0,1,.481.469V2.5h1.929A1.9,1.9,0,0,1,18,4.375V5.782A.476.476,0,0,1,17.518,6.25Z" transform="translate(918 676.5)" fill="#3baecc"/></g></svg>