<svg width="51" height="74" viewBox="0 0 51 74" xmlns="http://www.w3.org/2000/svg" xmlns:xlink="http://www.w3.org/1999/xlink"><title>guidelines-icon</title><defs><path id="a" d="M0 .164v25.028h18.493V.164H0z"/><path id="c" d="M15.471 25.192V.165H.747v25.027H15.47z"/></defs><g fill="none" fill-rule="evenodd"><g transform="translate(0 11.395)"><mask id="b" fill="#fff"><use xlink:href="#a"/></mask><path d="M8.212.748a.959.959 0 0 0-1.249-.51L.586 2.892a.954.954 0 0 0-.513 1.244l.654 1.557 2.039-.849a.518.518 0 0 1 .676.278.517.517 0 0 1-.278.673l-2.04.85L2.153 9.1l3.592-1.496a.521.521 0 0 1 .677.278.517.517 0 0 1-.279.673l-3.591 1.496 1.027 2.456 2.04-.848a.52.52 0 0 1 .678.276.517.517 0 0 1-.278.674l-2.04.85 1.028 2.456L8.6 14.421a.515.515 0 1 1 .398.951l-3.593 1.495 1.03 2.456 2.04-.848a.52.52 0 0 1 .676.277.517.517 0 0 1-.279.674l-2.039.848 1.029 2.457 3.592-1.495a.516.516 0 0 1 .398.952L8.26 23.683l.632 1.509h9.601L8.212.748z" fill="#D6D6D9" mask="url(#b)"/></g><g transform="translate(35.095 11.395)"><mask id="d" fill="#fff"><use xlink:href="#c"/></mask><path d="M14.117 8.87a.126.126 0 0 1-.22.08l-1.274-1.43a1.166 1.166 0 0 0-.97-.386L9.742 7.3a.126.126 0 0 1-.105-.209l2.755-3.048.14-.032 1.61.64.08.12-.105 4.1zM14.12.416L8.423 6.557a2.573 2.573 0 0 0-.5.79L.747 25.193h8.421l6.015-14.958c.117-.292.18-.603.183-.918l.106-8.364c.008-.71-.868-1.059-1.351-.537z" fill="#D6D6D9" mask="url(#d)"/></g><path d="M30.81 21.108l-7.838-.145c-.042 4.866.065 10.299.28 15.624h6.924c.28-5.272.497-10.648.633-15.48m-7.801-2.901l-.004.215.261.004 7.344.136.262.005.005-.214c1.525-1.256 2.532-3.233 2.574-5.478.072-3.872-4.435-8.215-5.062-12.874-3.577 3.426-7.676 8.765-7.748 12.636-.043 2.247.89 4.26 2.368 5.57M5.69 65.768c0 4.545 3.697 8.23 8.257 8.23h24.64c4.56 0 8.256-3.685 8.256-8.23v-26.42H5.691v26.42z" fill="#D6D6D9"/></g></svg>