<svg width="170" height="81" viewBox="0 0 170 81" xmlns="http://www.w3.org/2000/svg" xmlns:xlink="http://www.w3.org/1999/xlink"><title>Improper-logo-01</title><defs><rect id="a" width="170" height="80.657" rx="4"/></defs><g fill="none" fill-rule="evenodd"><use fill="#FFF" xlink:href="#a"/><rect stroke="#DEE5EB" x=".5" y=".5" width="169" height="79.657" rx="4"/><path d="M88.863 57.895c8.625 0 10.57-5.605 10.57-9.453V37.11h-6.36v10.9c0 2.989-1.678 4.294-4.21 4.294-2.534 0-4.212-1.305-4.212-4.295V37.11h-6.36v11.332c0 3.848 1.943 9.453 10.572 9.453m-47.268 0c8.627 0 10.57-5.605 10.57-9.453V37.11h-6.359v10.9c0 2.989-1.68 4.294-4.21 4.294-2.535 0-4.216-1.305-4.216-4.295V37.11h-6.358v11.332c0 3.848 1.947 9.453 10.573 9.453m23.634-21.571c-8.627 0-10.574 5.604-10.574 9.451v11.33h6.36v-10.9c0-2.98 1.68-4.29 4.214-4.29 2.532 0 4.21 1.31 4.21 4.29v10.902h6.36v-11.33c0-3.848-1.944-9.452-10.57-9.452m53.265 3.21c-.274-.366-1.896-3.211-7.097-3.211-5.3 0-9.474 2.642-9.474 9.032v11.75h6.216v-11.76c0-2.06 1.053-3.639 3.621-3.639 2.572 0 3.624 1.578 3.624 3.639v11.76h6.218v-11.76c0-2.06 1.052-3.639 3.622-3.639s3.622 1.578 3.622 3.639v11.76h6.217v-11.75c0-6.39-4.175-9.032-9.474-9.032-5.197 0-6.824 2.845-7.095 3.21" fill="#82C341"/><path d="M60 28.684c0 2.89 2.312 5.112 5.227 5.112 2.887 0 5.157-2.222 5.157-5.112 0-2.886-2.27-5.107-5.157-5.107-2.915 0-5.227 2.22-5.227 5.107m23.632 0c0 2.89 2.315 5.112 5.23 5.112 2.886 0 5.154-2.222 5.154-5.112 0-2.886-2.268-5.107-5.155-5.107-2.914 0-5.229 2.22-5.229 5.107m29.634 0c0 2.89 2.313 5.112 5.228 5.112 2.887 0 5.156-2.222 5.156-5.112 0-2.886-2.269-5.107-5.156-5.107-2.915 0-5.228 2.22-5.228 5.107m24.397 6.549h.14c.161 0 .293-.054.293-.185 0-.116-.085-.193-.27-.193a.703.703 0 0 0-.163.015v.363zm-.008.718h-.293v-1.266c.116-.023.278-.038.486-.038.24 0 .348.038.44.092a.35.35 0 0 1 .124.278c0 .139-.108.247-.262.293v.016c.123.046.193.139.231.308.039.194.062.27.093.317h-.317c-.038-.046-.061-.162-.1-.309-.023-.139-.1-.2-.263-.2h-.139v.51zm-.778-.664c0 .564.416 1.012.987 1.012.556 0 .965-.448.965-1.004 0-.564-.41-1.018-.973-1.018s-.98.454-.98 1.01zm2.275 0a1.27 1.27 0 0 1-1.296 1.28c-.725 0-1.304-.562-1.304-1.28 0-.703.58-1.265 1.304-1.265.733 0 1.296.562 1.296 1.265z" fill="#00AEDA"/><path d="M16.134 27.3c-6.15 0-11.17-4.984-11.17-11.169 0-6.15 5.02-11.167 11.17-11.167 6.184 0 11.168 5.018 11.168 11.167 0 6.185-4.984 11.17-11.168 11.17z" fill="#FFF"/><path d="M11.758 22.336l4.373-4.373 4.373 4.373 1.832-1.832-4.373-4.373 4.373-4.373-1.832-1.831-4.373 4.373-4.373-4.373-1.831 1.831 4.373 4.373-4.373 4.373 1.831 1.832zM4.964 16.13c0-6.15 5.02-11.167 11.17-11.167 6.184 0 11.168 5.018 11.168 11.167 0 6.185-4.984 11.17-11.168 11.17-6.15 0-11.17-4.985-11.17-11.17z" fill="#E85656"/></g></svg>