<svg width="170" height="81" viewBox="0 0 170 81" xmlns="http://www.w3.org/2000/svg" xmlns:xlink="http://www.w3.org/1999/xlink"><title>Improper-logo-02</title><defs><rect id="a" width="170" height="80.657" rx="4"/><path id="b" d="M22.786 23.402H0V.733h22.786v22.67z"/><path id="d" d="M34.73.763v25.87H.676V.763h34.056z"/><path id="f" d="M.803.242h9.975v9.938H.803V.242z"/></defs><g fill="none" fill-rule="evenodd"><use fill="#FFF" xlink:href="#a"/><rect stroke="#DEE5EB" x=".5" y=".5" width="169" height="79.657" rx="4"/><path d="M93.54 54.357c7.996-2.165 8.406-7.904 7.451-11.51L98.176 32.23l-5.896 1.597 2.707 10.213c.742 2.8-.49 4.444-2.837 5.079-2.35.637-4.23-.165-4.972-2.966l-2.71-10.211-5.895 1.596 2.816 10.617c.956 3.606 4.148 8.368 12.151 6.202" fill="#015294"/><g transform="translate(34.745 43.364)"><mask id="c" fill="#fff"><use xlink:href="#b"/></mask><path d="M14.968 22.859c7.998-2.166 8.407-7.904 7.452-11.51L19.604.734 13.71 2.328l2.706 10.212c.744 2.801-.489 4.446-2.837 5.082-2.35.635-4.232-.165-4.975-2.966L5.895 4.444 0 6.04l2.816 10.617c.956 3.605 4.153 8.367 12.152 6.202" fill="#00538F" mask="url(#c)"/></g><path d="M66.265 40.08c-7.999 2.164-8.411 7.904-7.456 11.508l2.816 10.616 5.896-1.597-2.708-10.214c-.74-2.791.491-4.44 2.842-5.076 2.348-.636 4.23.17 4.97 2.961l2.708 10.214 5.896-1.596-2.814-10.615c-.956-3.605-4.15-8.367-12.15-6.202" fill="#015294"/><g transform="translate(101.45 23.706)"><mask id="e" fill="#fff"><use xlink:href="#d"/></mask><path d="M15.003 6.01c-.345-.273-2.558-2.532-7.38-1.226-4.914 1.33-8.126 4.854-6.539 10.84l2.92 11.009 5.763-1.56-2.923-11.018c-.51-1.93.073-3.674 2.456-4.319 2.384-.644 3.751.57 4.262 2.5l2.923 11.017 5.763-1.56-2.92-11.018c-.513-1.93.071-3.672 2.453-4.317 2.384-.646 3.75.568 4.264 2.498l2.92 11.018 5.766-1.561-2.92-11.008c-1.586-5.985-6.115-7.414-11.03-6.083-4.817 1.304-5.617 4.378-5.778 4.789" fill="#00538F" mask="url(#e)"/></g><path d="M59.52 34.235c.717 2.709 3.413 4.21 6.116 3.477 2.676-.724 4.23-3.376 3.511-6.084-.717-2.703-3.373-4.214-6.05-3.49-2.703.733-4.295 3.393-3.578 6.097M87.55 31.78c2.678-.726 4.229-3.376 3.51-6.083-.717-2.705-3.372-4.216-6.05-3.492-2.7.732-4.294 3.393-3.578 6.098.718 2.708 3.417 4.208 6.118 3.477z" fill="#5E88A1"/><g transform="translate(107.934 14.345)"><mask id="g" fill="#fff"><use xlink:href="#f"/></mask><path d="M.974 6.519c.718 2.707 3.415 4.209 6.119 3.477 2.675-.725 4.227-3.376 3.51-6.084C9.885 1.208 7.23-.303 4.551.422 1.85 1.153.257 3.815.974 6.52" fill="#5E88A1" mask="url(#g)"/></g><path d="M16.134 26.06c-6.15 0-11.17-4.985-11.17-11.17 0-6.15 5.02-11.167 11.17-11.167 6.184 0 11.168 5.018 11.168 11.168A11.148 11.148 0 0 1 16.134 26.06z" fill="#FFF"/><path d="M11.758 21.095l4.373-4.373 4.373 4.373 1.832-1.832-4.373-4.372 4.373-4.373-1.832-1.832-4.373 4.373-4.373-4.373-1.831 1.832L14.3 14.89l-4.373 4.372 1.831 1.832zM4.964 14.89c0-6.15 5.02-11.168 11.17-11.168 6.184 0 11.168 5.018 11.168 11.168a11.148 11.148 0 0 1-11.168 11.169c-6.15 0-11.17-4.985-11.17-11.17z" fill="#E85656"/></g></svg>