<svg width="170" height="81" viewBox="0 0 170 81" xmlns="http://www.w3.org/2000/svg" xmlns:xlink="http://www.w3.org/1999/xlink"><title>Improper-logo-04</title><defs><rect id="a" width="170" height="80.657" rx="4"/><path id="b" d="M20.65 19.854H.88V.419h19.77v19.435z"/><path id="d" d="M19.77 19.854H0V.419h19.77z"/><path id="f" d="M.455.122h16.41V16.27H.454V.12z"/></defs><g fill="none" fill-rule="evenodd"><use fill="#FFF" xlink:href="#a"/><rect stroke="#DEE5EB" x=".5" y=".5" width="169" height="79.657" rx="4"/><g transform="translate(81.785 37.105)"><mask id="c" fill="#fff"><use xlink:href="#b"/></mask><path d="M10.767 19.854c8.064 0 9.882-5.242 9.882-8.84V.419h-5.946v10.192c0 2.794-1.57 4.015-3.936 4.015-2.37 0-3.94-1.22-3.94-4.015V.419H.881v10.595c0 3.598 1.817 8.84 9.886 8.84" fill="#00538F" mask="url(#c)"/></g><g transform="translate(38.467 37.105)"><mask id="e" fill="#fff"><use xlink:href="#d"/></mask><path d="M9.887 19.854c8.066 0 9.882-5.242 9.882-8.84V.419h-5.945v10.192c0 2.794-1.57 4.015-3.937 4.015-2.37 0-3.941-1.22-3.941-4.015V.419H0v10.595c0 3.598 1.82 8.84 9.887 8.84" fill="#00538F" mask="url(#e)"/></g><path d="M70.452 36.788c-8.066 0-9.887 5.24-9.887 8.838V56.22h5.947V46.025c0-2.786 1.57-4.01 3.94-4.01 2.368 0 3.938 1.224 3.938 4.01V56.22h5.946V45.626c0-3.597-1.817-8.838-9.884-8.838m49.806 3.002c-.256-.342-1.773-3.002-6.636-3.002-4.956 0-8.859 2.47-8.859 8.445v10.988h5.813V45.224c0-1.927.985-3.402 3.386-3.402 2.404 0 3.388 1.475 3.388 3.402v10.997h5.814V45.224c0-1.927.984-3.402 3.387-3.402s3.387 1.475 3.387 3.402v10.997h5.813V45.233c0-5.975-3.904-8.445-8.859-8.445-4.86 0-6.38 2.66-6.634 3.003" fill="#015294"/><path d="M65.563 29.645c0 2.701 2.162 4.78 4.888 4.78 2.699 0 4.821-2.079 4.821-4.78 0-2.7-2.122-4.776-4.821-4.776-2.726 0-4.888 2.077-4.888 4.776m20.641-1.434c0 3.512 2.814 6.214 6.357 6.214 3.51 0 6.265-2.702 6.265-6.214 0-3.51-2.755-6.21-6.265-6.21-3.543 0-6.357 2.7-6.357 6.21" fill="#5E88A1"/><g transform="translate(111.566 18.153)"><mask id="g" fill="#fff"><use xlink:href="#f"/></mask><path d="M.455 8.193c0 4.567 3.655 8.078 8.26 8.078 4.564 0 8.15-3.51 8.15-8.078 0-4.56-3.586-8.072-8.15-8.072C4.11.121.456 3.633.456 8.193" fill="#5E88A1" mask="url(#g)"/></g><path d="M16.134 27.3c-6.15 0-11.17-4.984-11.17-11.169 0-6.15 5.02-11.167 11.17-11.167 6.184 0 11.168 5.018 11.168 11.167 0 6.185-4.984 11.17-11.168 11.17z" fill="#FFF"/><path d="M11.758 22.336l4.373-4.373 4.373 4.373 1.832-1.832-4.373-4.373 4.373-4.373-1.832-1.831-4.373 4.373-4.373-4.373-1.831 1.831 4.373 4.373-4.373 4.373 1.831 1.832zM4.964 16.13c0-6.15 5.02-11.167 11.17-11.167 6.184 0 11.168 5.018 11.168 11.167 0 6.185-4.984 11.17-11.168 11.17-6.15 0-11.17-4.985-11.17-11.17z" fill="#E85656"/></g></svg>