<svg width="170" height="81" viewBox="0 0 170 81" xmlns="http://www.w3.org/2000/svg" xmlns:xlink="http://www.w3.org/1999/xlink"><title>Improper-logo-03</title><defs><rect id="a" width="170" height="80.657" rx="4"/><path id="b" d="M0 27.299V.576h14.705v26.723H0z"/><path id="d" d="M0 44.124h79.278V0H0z"/></defs><g fill="none" fill-rule="evenodd"><use fill="#FFF" xlink:href="#a"/><rect stroke="#DEE5EB" x=".5" y=".5" width="169" height="79.657" rx="4"/><g transform="translate(48.394 16.131)"><path d="M40.226 44.124c-6.002 0-7.353-7.207-7.353-12.155V17.4h4.421v14.013c0 3.843 1.17 5.522 2.932 5.522 1.76 0 2.928-1.679 2.928-5.522V17.4h4.422v14.57c0 4.947-1.352 12.154-7.35 12.154z" fill="#015294"/><g transform="translate(0 16.825)"><mask id="c" fill="#fff"><use xlink:href="#b"/></mask><path d="M7.353 27.299c6 0 7.352-7.207 7.352-12.154V.575h-4.422V14.59c0 3.843-1.17 5.522-2.93 5.522-1.762 0-2.931-1.68-2.931-5.522V.576H0v14.569c0 4.947 1.353 12.154 7.353 12.154" fill="#015294" mask="url(#c)"/></g><path d="M23.79 16.388c-6.001 0-7.355 7.206-7.355 12.152v14.568h4.423V29.09c0-3.832 1.17-5.516 2.932-5.516 1.76 0 2.93 1.684 2.93 5.516v14.017h4.42V28.54c0-4.946-1.35-12.152-7.35-12.152m37.042 4.129c-.191-.47-1.318-4.129-4.938-4.129-3.683 0-6.585 3.398-6.585 11.614v15.106h4.322v-15.12c0-2.65.733-4.678 2.519-4.678 1.788 0 2.519 2.029 2.519 4.678v15.12h4.324v-15.12c0-2.65.731-4.678 2.518-4.678 1.788 0 2.52 2.029 2.52 4.678v15.12h4.324V28.002c0-8.216-2.904-11.614-6.588-11.614-3.617 0-4.745 3.658-4.935 4.129" fill="#015294"/><path d="M23.789 13.138c2.006 0 3.585-2.856 3.585-6.572C27.374 2.855 25.795 0 23.789 0c-2.029 0-3.636 2.855-3.636 6.566 0 3.716 1.607 6.572 3.636 6.572zm16.435 0c2.008 0 3.584-2.856 3.584-6.572C43.808 2.855 42.232 0 40.224 0c-2.027 0-3.637 2.855-3.637 6.566 0 3.716 1.61 6.572 3.637 6.572zm20.608 0c2.008 0 3.586-2.856 3.586-6.572C64.418 2.855 62.84 0 60.832 0c-2.027 0-3.636 2.855-3.636 6.566 0 3.716 1.609 6.572 3.636 6.572z" fill="#5E88A1"/><mask id="e" fill="#fff"><use xlink:href="#d"/></mask><path d="M74.373 19.127a2.15 2.15 0 0 1-1.587-.673 2.204 2.204 0 0 1-.663-1.604c0-.629.222-1.165.668-1.61a2.195 2.195 0 0 1 1.608-.666c.627 0 1.163.222 1.608.666.446.445.668.98.668 1.604 0 .637-.223 1.177-.669 1.62-.446.441-.99.663-1.633.663zm0-.326c.636 0 1.142-.233 1.517-.7.307-.38.46-.799.46-1.254 0-.45-.153-.867-.46-1.248-.375-.466-.872-.7-1.49-.7-.62 0-1.117.234-1.492.7a1.95 1.95 0 0 0-.46 1.251c0 .532.19.99.568 1.374.381.385.833.577 1.357.577zm-.724-.711v-2.461h.776c.249 0 .435.05.559.15.124.101.186.252.186.453a.759.759 0 0 1-.109.402.948.948 0 0 1-.322.31l.741 1.146h-.46l-.665-1.026h-.31v1.026h-.396zm.37-1.333h.113c.217 0 .38-.041.488-.122.109-.081.163-.203.163-.365 0-.129-.046-.225-.136-.29-.091-.064-.227-.096-.409-.096h-.22v.873z" fill="#015294" mask="url(#e)"/></g><path d="M16.134 27.3c-6.15 0-11.17-4.984-11.17-11.169 0-6.15 5.02-11.167 11.17-11.167 6.184 0 11.168 5.018 11.168 11.167 0 6.185-4.984 11.17-11.168 11.17z" fill="#FFF"/><path d="M11.758 22.336l4.373-4.373 4.373 4.373 1.832-1.832-4.373-4.373 4.373-4.373-1.832-1.831-4.373 4.373-4.373-4.373-1.831 1.831 4.373 4.373-4.373 4.373 1.831 1.832zM4.964 16.13c0-6.15 5.02-11.167 11.17-11.167 6.184 0 11.168 5.018 11.168 11.167 0 6.185-4.984 11.17-11.168 11.17-6.15 0-11.17-4.985-11.17-11.17z" fill="#E85656"/></g></svg>