<svg width="99" height="79" viewBox="0 0 99 79" xmlns="http://www.w3.org/2000/svg"><title>print-icon-07</title><path d="M67.146 22.45c17.453 0 31.608 11.516 31.608 25.72 0 8.44-4.988 15.928-12.696 20.618-.369.225 4.85 8.979 4.052 9.557-.781.566-12.257-4.336-15.6-5.155-2.363.467-4.83.71-7.364.71-9.749 0-18.46-3.59-24.257-9.233h6.473c7.961 0 14.443-6.48 14.443-14.444V22.595a38.79 38.79 0 0 1 3.341-.145zM3.967 74.75l6.104-13.68C4.45 60.66.001 55.95.001 50.22V11.735C0 5.74 4.879.861 10.873.861h38.49c5.996 0 10.874 4.878 10.874 10.874v38.486c0 6-4.878 10.88-10.875 10.88h-9.596L3.967 74.749zm6.906-68.715a5.704 5.704 0 0 0-5.697 5.7v38.486a5.705 5.705 0 0 0 5.697 5.704h7.161l-4.26 9.548 25.04-9.548h10.548a5.707 5.707 0 0 0 5.699-5.704V11.735c0-3.144-2.558-5.7-5.699-5.7H10.873zm32.22 29.652a4.391 4.391 0 0 1-4.392-4.392 4.391 4.391 0 0 1 4.393-4.393 4.391 4.391 0 0 1 4.392 4.393 4.391 4.391 0 0 1-4.392 4.392zm-8.583-4.392a4.392 4.392 0 0 1-4.394 4.392 4.392 4.392 0 1 1 0-8.785 4.392 4.392 0 0 1 4.394 4.393zm-12.975 0a4.391 4.391 0 0 1-4.392 4.392 4.39 4.39 0 0 1-4.393-4.392 4.39 4.39 0 0 1 4.393-4.393 4.391 4.391 0 0 1 4.392 4.393z" fill="#727A80" fill-rule="evenodd"/></svg>