<?xml version="1.0" encoding="UTF-8"?>
<svg width="99px" height="79px" viewBox="0 0 99 79" version="1.1" xmlns="http://www.w3.org/2000/svg" xmlns:xlink="http://www.w3.org/1999/xlink">
    <!-- Generator: Sketch 43.2 (39069) - http://www.bohemiancoding.com/sketch -->
    <title>print-icon-07</title>
    <desc>Created with Sketch.</desc>
    <defs></defs>
    <g id="Pages" stroke="none" stroke-width="1" fill="none" fill-rule="evenodd">
        <g id="Web" transform="translate(-555.000000, -6035.000000)" fill="#727A80">
            <g id="Iconography" transform="translate(375.000000, 5647.000000)">
                <g id="Selecting-Icons" transform="translate(0.000000, 135.000000)">
                    <path d="M247.146233,275.449674 C264.599256,275.449674 278.753674,286.965953 278.753674,301.170605 C278.753674,309.609674 273.765767,317.098047 266.05786,321.788279 C265.689488,322.013395 270.908093,330.766884 270.109953,331.345488 C269.328558,331.91107 257.853209,327.008744 254.509953,326.19014 C252.147163,326.657116 249.680186,326.900837 247.146233,326.900837 C237.397395,326.900837 228.686698,323.31014 222.889488,317.667349 L229.362047,317.667349 C237.322977,317.667349 243.804837,311.187349 243.804837,303.222698 L243.804837,275.594791 C244.902512,275.499907 246.01693,275.449674 247.146233,275.449674 Z M183.96707,327.749395 L190.071256,314.069395 C184.44893,313.660093 180.000558,308.951256 180.000558,303.221023 L180.000558,264.735442 C180.000558,258.739163 184.878698,253.861023 190.873116,253.861023 L229.362419,253.861023 C235.358698,253.861023 240.236837,258.739163 240.236837,264.735442 L240.236837,303.221023 C240.236837,309.221023 235.358698,314.101023 229.362419,314.101023 L219.76614,314.101023 L183.96707,327.749395 Z M190.873116,259.034977 C187.730791,259.034977 185.176372,261.591256 185.176372,264.735442 L185.176372,303.221023 C185.176372,306.36893 187.730791,308.925209 190.873116,308.925209 L198.034047,308.925209 L193.773581,318.473116 L218.813581,308.925209 L229.362419,308.925209 C232.502884,308.925209 235.061023,306.36893 235.061023,303.221023 L235.061023,264.735442 C235.061023,261.591256 232.502884,259.034977 229.362419,259.034977 L190.873116,259.034977 Z M223.093767,288.687256 C220.667721,288.687256 218.701209,286.722605 218.701209,284.294698 C218.701209,281.866791 220.667721,279.90214 223.093767,279.90214 C225.519814,279.90214 227.486326,281.866791 227.486326,284.294698 C227.486326,286.722605 225.519814,288.687256 223.093767,288.687256 Z M214.510326,284.294698 C214.510326,286.722605 212.543814,288.687256 210.115907,288.687256 C207.691721,288.687256 205.723349,286.722605 205.723349,284.294698 C205.723349,281.866791 207.691721,279.90214 210.115907,279.90214 C212.543814,279.90214 214.510326,281.866791 214.510326,284.294698 Z M201.535256,284.294698 C201.535256,286.722605 199.568744,288.687256 197.142698,288.687256 C194.714791,288.687256 192.75014,286.722605 192.75014,284.294698 C192.75014,281.866791 194.714791,279.90214 197.142698,279.90214 C199.568744,279.90214 201.535256,281.866791 201.535256,284.294698 Z" id="print-icon-07"></path>
                </g>
            </g>
        </g>
    </g>
</svg>