<svg width="78" height="75" viewBox="0 0 78 75" xmlns="http://www.w3.org/2000/svg"><title>print-icon-04</title><path d="M16.482 15.922c-4.106 0-7.954-3.384-7.954-7.96A7.953 7.953 0 0 1 16.482 0a7.96 7.96 0 0 1 7.96 7.962c0 4.601-3.88 7.96-7.96 7.96zm33.462 45.164l10.527 10.532a1.75 1.75 0 1 1-2.476 2.475l-9.29-9.295-9.29 9.295a1.756 1.756 0 0 1-2.477 0 1.755 1.755 0 0 1 0-2.475l10.528-10.532c.659-.656 1.822-.656 2.478 0zm-28.608-41.86h23.348a4.258 4.258 0 0 1 4.258 4.26 4.258 4.258 0 0 1-4.258 4.261H25.882v42.384c0 2.69-2.18 4.869-4.867 4.869a4.856 4.856 0 0 1-4.532-3.118A4.862 4.862 0 0 1 11.948 75a4.869 4.869 0 0 1-4.868-4.869v-23.2H5.854a4.884 4.884 0 0 1-4.87-4.87V24.095c0-2.677 2.194-4.868 4.87-4.868h5.769l4.86 6.165 4.853-6.165zm53.56-14.578a2.43 2.43 0 0 1 2.433 2.435V56.14a2.43 2.43 0 0 1-2.432 2.435H31.81a2.434 2.434 0 1 1 0-4.868h40.653V9.52H31.811a2.436 2.436 0 0 1 0-4.872h11.875V2.631a2.638 2.638 0 0 1 2.63-2.628h4.779a2.637 2.637 0 0 1 2.628 2.628v2.017h21.174z" fill="#727A80" fill-rule="evenodd"/></svg>