<?xml version="1.0" encoding="UTF-8"?>
<svg width="78px" height="75px" viewBox="0 0 78 75" version="1.1" xmlns="http://www.w3.org/2000/svg" xmlns:xlink="http://www.w3.org/1999/xlink">
    <!-- Generator: Sketch 43.2 (39069) - http://www.bohemiancoding.com/sketch -->
    <title>print-icon-04</title>
    <desc>Created with Sketch.</desc>
    <defs></defs>
    <g id="Pages" stroke="none" stroke-width="1" fill="none" fill-rule="evenodd">
        <g id="Web" transform="translate(-913.000000, -5904.000000)" fill="#727A80">
            <g id="Iconography" transform="translate(375.000000, 5647.000000)">
                <g id="Selecting-Icons" transform="translate(0.000000, 135.000000)">
                    <path d="M554.481836,137.921983 C550.375876,137.921983 546.527854,134.537966 546.527854,129.962394 C546.527854,125.564853 550.081492,122 554.481836,122 C558.880778,122 562.442828,125.564853 562.442828,129.962394 C562.442828,134.563199 558.562563,137.921983 554.481836,137.921983 Z M587.944356,183.085857 L598.470696,193.617805 C599.154789,194.301898 599.154789,195.409344 598.470696,196.093437 C597.785201,196.776128 596.68056,196.776128 595.995065,196.093437 L586.705138,186.797903 L577.415212,196.093437 C576.729717,196.774726 575.622271,196.774726 574.938178,196.093437 C574.256889,195.409344 574.256889,194.301898 574.938178,193.617805 L585.465921,183.085857 C586.124781,182.429801 587.2883,182.429801 587.944356,183.085857 Z M559.336233,141.226797 L582.683709,141.226797 C585.037381,141.226797 586.942468,143.133286 586.942468,145.485556 C586.942468,147.840631 585.037381,149.747119 582.683709,149.747119 L563.882367,149.747119 L563.882367,192.131445 C563.882367,194.821556 561.702522,197 559.015214,197 C556.943309,197 555.184013,195.703307 554.483098,193.88233 C553.779379,195.703307 552.020083,197 549.948178,197 C547.26087,197 545.079623,194.821556 545.079623,192.131445 L545.079623,168.931161 L543.854424,168.931161 C541.178331,168.931161 538.984467,166.742904 538.984467,164.061204 L538.984467,146.095352 C538.984467,143.417857 541.178331,141.226797 543.854424,141.226797 L549.622954,141.226797 L554.483098,147.392045 L559.336233,141.226797 Z M612.896647,126.648468 C614.243805,126.648468 615.328822,127.73769 615.328822,129.083446 L615.328822,178.13908 C615.328822,179.484837 614.243805,180.574059 612.896647,180.574059 L569.811406,180.574059 C568.46565,180.574059 567.376428,179.484837 567.376428,178.13908 C567.376428,176.793324 568.46565,175.705504 569.811406,175.705504 L610.464472,175.705504 L610.464472,131.519827 L569.811406,131.519827 C568.46565,131.519827 567.376428,130.427801 567.376428,129.083446 C567.376428,127.73769 568.46565,126.648468 569.811406,126.648468 L581.686307,126.648468 L581.686307,124.631235 C581.686307,123.184546 582.872255,122.002804 584.31614,122.002804 L589.094978,122.002804 C590.538863,122.002804 591.723409,123.184546 591.723409,124.631235 L591.723409,126.648468 L612.896647,126.648468 Z" id="print-icon-04"></path>
                </g>
            </g>
        </g>
    </g>
</svg>