<svg width="56" height="73" viewBox="0 0 56 73" xmlns="http://www.w3.org/2000/svg" xmlns:xlink="http://www.w3.org/1999/xlink"><title>print-icon</title><defs><path id="a" d="M0 .09V73h55.919V.09z"/></defs><g fill="none" fill-rule="evenodd"><path d="M21.517 27.988a2.789 2.789 0 0 0 2.789-2.79v-9.242a2.789 2.789 0 0 0-2.79-2.789h-9.841a2.79 2.79 0 0 0-2.79 2.79v9.241a2.79 2.79 0 0 0 2.79 2.79h9.842z" fill="#E7E7E8"/><g transform="translate(0 -.09)"><mask id="b" fill="#fff"><use xlink:href="#a"/></mask><path d="M50.669 63.372c0 2.408-2.018 4.378-4.484 4.378H9.734c-2.465 0-4.484-1.97-4.484-4.378V9.719c0-2.41 2.019-4.38 4.484-4.38h22.949v12.758c0 3.326 2.72 6.047 6.048 6.047h11.938v39.228zm3.668-45.646L37.807 1.584A5.253 5.253 0 0 0 34.139.09H9.734C4.367.09 0 4.41 0 9.719v53.653C0 68.68 4.367 73 9.734 73h36.45c5.368 0 9.735-4.32 9.735-9.628v-41.89c0-1.414-.57-2.77-1.582-3.756z" fill="#E7E7E8" mask="url(#b)"/></g><path d="M26.944 53.4H10.467c-.646 0-1.175.529-1.175 1.176v1.22c0 .646.53 1.175 1.175 1.175h16.477a1.18 1.18 0 0 0 1.176-1.175v-1.22a1.18 1.18 0 0 0-1.176-1.176M9.292 35.765v1.22a1.18 1.18 0 0 0 1.176 1.176h34.129c.646 0 1.174-.53 1.174-1.175v-1.221c0-.646-.528-1.176-1.174-1.176H10.468a1.18 1.18 0 0 0-1.176 1.176m35.305 8.229h-34.13a1.18 1.18 0 0 0-1.175 1.176v1.22c0 .646.53 1.175 1.176 1.175h34.129c.646 0 1.175-.529 1.175-1.175v-1.22a1.18 1.18 0 0 0-1.175-1.176" fill="#D6D6D9"/></g></svg>