<svg width="83" height="67" viewBox="0 0 83 67" xmlns="http://www.w3.org/2000/svg"><title>print-icon-01</title><path d="M5.569 7.173C5.569 3.211 8.764 0 12.712 0c3.947 0 7.145 3.21 7.145 7.173 0 3.964-3.198 7.175-7.145 7.175-3.948 0-7.143-3.21-7.143-7.175zM40.385 9.44c0-3.809 3.079-6.9 6.876-6.9s6.874 3.091 6.874 6.9c0 3.815-3.077 6.907-6.874 6.907-3.797 0-6.876-3.092-6.876-6.907zm30.67 24.539c0-2.517 2.037-4.561 4.54-4.561 2.509 0 4.544 2.044 4.544 4.56 0 2.522-2.035 4.562-4.544 4.562-2.503 0-4.54-2.04-4.54-4.561zm6.05 5.717c3.438 0 5.265 1.086 5.265 5.033l-.017 7.723c0 1.14-1.064 2.188-2.303 2.045V64.7a2.29 2.29 0 1 1-4.583 0 2.292 2.292 0 0 1-4.583 0l-.014-20.087a17.56 17.56 0 0 1-5.907-2.011c-.349.485-.852.882-1.497 1.146-1.803.73-3.551-.049-4.276-1.854l-3.593-8.512v29.556c0 2.244-1.726 4.062-3.85 4.062-2.126 0-3.85-1.818-3.85-4.062 0 2.244-1.726 4.062-3.854 4.062-2.126 0-3.85-1.818-3.85-4.062l-.026-29.776-3.681 8.732c-.73 1.805-2.476 2.585-4.278 1.854-.795-.324-1.365-.854-1.71-1.494-.28.229-.59.428-.96.576-1.87.76-3.689-.047-4.447-1.923l-3.954-9.384-.03 31.251A4.213 4.213 0 0 1 16.896 67a4.215 4.215 0 0 1-4.212-4.226A4.217 4.217 0 0 1 8.471 67a4.213 4.213 0 0 1-4.21-4.226V44.019C1.85 44.237.035 42.355.035 40.262L0 26.072c0-7.257 3.358-9.885 9.677-9.885h6.074c4.746 0 7.822 1.483 9.06 5.301l6.31 16.137 5.994-15.322c.988-2.294 3.056-4.185 7.979-4.185h5.55c4.224 0 6.752 1.627 7.537 3.375l6.221 15.75c2.634 1.43 6.73 2.722 10.018 2.452h2.685z" fill="#727A80" fill-rule="evenodd"/></svg>