<svg width="83" height="79" viewBox="0 0 83 79" xmlns="http://www.w3.org/2000/svg"><title>print-icon-06</title><path d="M82.368 63.135l-10.61 6.13-2.36-4.087 6.371-3.708c2.303-1.34 5.253-.592 6.599 1.665zm-21.614-3.222c4.481 0 8.175 3.615 8.175 8.095s-3.694 8.174-8.175 8.174c-4.479 0-8.174-3.694-8.174-8.174 0-1.18.315-2.358.786-3.38v-8.96H51.4C51.244 68.243 40.946 78.46 28.294 78.46c-12.733 0-23.107-10.374-23.107-23.106 0-9.275 6.68-17.292 14.619-20.986l-.786-8.41-.157-1.336-1.494-17.763H3.537C1.57 6.859 0 6.466 0 4.502A3.522 3.522 0 0 1 3.537.965H19.41a3.519 3.519 0 0 1 3.539 3.221l.786 8.333 1.1-.08c1.494-.157 2.83.866 2.988 2.358l.786 6.682h27.115a3.522 3.522 0 0 1 3.537 3.537V46.55h6.053v9.117H59.26v4.245h1.493zm.16 12.189a3.93 3.93 0 1 0 0-7.862 3.93 3.93 0 0 0 0 7.862zm-7.627-25.55v-19.1H29.001s.471 4.087.551 4.873c9.038.47 16.74 6.21 20.042 14.226h3.693zM28.244 72.75c9.457 0 17.125-7.668 17.125-17.127 0-9.458-7.668-17.124-17.125-17.124-9.458 0-17.126 7.666-17.126 17.124 0 9.459 7.668 17.127 17.126 17.127zm-2.517-16.298a3.15 3.15 0 1 1 6.298 0 3.15 3.15 0 0 1-6.298 0z" fill="#727A80" fill-rule="evenodd"/></svg>