<svg width="64" height="80" viewBox="0 0 64 80" xmlns="http://www.w3.org/2000/svg"><title>print-icon-05</title><path d="M29.38 53.78c.58-.643 1.49-1.484 2.41-2.259l-.18 6.603a1.536 1.536 0 0 1-1.693 1.5l-.99 11.798c.5.045.933.462.978.966l.598 6.365a.843.843 0 0 1-.872.936l-4.757-.081a.838.838 0 0 1-.837-.967l.813-6.34c.064-.5.506-.905 1.008-.93l-.323-11.821c-.045.002-.088.005-.133.003a1.506 1.506 0 0 1-.99-.395l4.968-5.378zM19.31 4.965c-1.132-.435-1.698-2.427-1.261-3.558A2.192 2.192 0 0 1 20.88.147a23.848 23.848 0 0 0 16.315.278 2.193 2.193 0 0 1 2.789 1.356c.395 1.146-.213 3.119-1.357 3.514-.399.138-.797.264-1.199.384l-.372 13.62-4.65 5.031.046-1.112-7.894-.184-.072 1.651c-.029 1.772.286 4.706.693 6.464l.808 2.072-2.56 6.364-2.648-7.575-.02-.077c-.48-2.019-.828-5.225-.791-7.3l.524-19.244a26.06 26.06 0 0 1-1.184-.424zM25 6.22l-.366 12.43 7.895.184.368-12.43c-1.79.317-2.15.46-3.959.429-1.808-.03-2.163-.236-3.937-.613zm37.914 17.51c-.456 1.122-2.213 2.208-3.334 1.75a26.47 26.47 0 0 1-1.155-.5L45.357 39.116c-1.393 1.539-3.841 3.641-5.57 4.785l-.068.044-7.35 3.841c-1.498 1.005-3.736 2.93-4.925 4.243l-7.935 8.59a1.535 1.535 0 0 1-2.26.012L8.733 68.86c.348.361.399.96.1 1.37l-3.741 5.182a.842.842 0 0 1-1.274.133L.293 72.35A.837.837 0 0 1 .3 71.073l4.784-4.236c.38-.336.98-.348 1.374-.038L14 57.69a1.535 1.535 0 0 1-.21-2.251l7.935-8.59c1.189-1.314 2.885-3.73 3.734-5.32l3.098-7.696.035-.07c.97-1.836 2.818-4.478 4.211-6.017L45.87 13.612c-.212-.363-.416-.73-.61-1.101-.566-1.072.32-2.944 1.393-3.507a2.19 2.19 0 0 1 2.961.917A23.853 23.853 0 0 0 61.71 20.873a2.194 2.194 0 0 1 1.205 2.857zM41.99 36.101l1.141-1.198-5.819-5.336-1.14 1.195c-1.191 1.314-2.887 3.73-3.737 5.322l-2.856 7.893 7.487-3.634c1.499-1.003 3.736-2.93 4.924-4.242zm4.085-4.448l8.463-9.112c-1.556-.939-1.922-1.068-3.263-2.283-1.34-1.214-1.472-1.601-2.56-3.054l-8.46 9.112 5.82 5.337z" fill="#727A80" fill-rule="evenodd"/></svg>