<svg width="101" height="79" viewBox="0 0 101 79" xmlns="http://www.w3.org/2000/svg"><title>print-icon-08</title><path d="M.132 31.142C-1.088 17.42 6.271 6.157 14.704.928L37.57 8.306l-6.799 2.4-15.365-4.958S3 14.243 4.496 30.748c.085.93.63 2.026 1.491 3.219-1.754.673-2.97 1.691-3.63 2.44C.7 34.084.25 32.44.132 31.141zm40.749 42.003c1.432 1.429 4.217 2.024 6.428.249a1 1 0 0 0 .07-1.488l-8.328-8.31a1 1 0 0 1 0-1.42L41 60.23a1.01 1.01 0 0 1 1.425 0l12.38 12.353c.155.152.357.257.574.286 2.192.285 3.917-.304 5.254-2.116a.998.998 0 0 0-.105-1.3L44.933 53.896a1.002 1.002 0 0 1 0-1.42l1.95-1.947a1.006 1.006 0 0 1 1.423 0L64.75 66.932c.216.216.52.322.824.293 1.901-.185 3.542-1.472 4.205-3.015a.99.99 0 0 0-.226-1.082c-3.728-3.715-15.614-15.573-18.649-18.6a1.002 1.002 0 0 1 0-1.42l1.95-1.95a1.005 1.005 0 0 1 1.421-.003L72.553 59.39c.262.26.646.356 1.001.25 2.58-.756 3.752-2.909 3.866-4.715.033-.524.457-.936.985-.945l2.343-.039c.577-.009 1.06.469 1.024 1.046-.214 3.356-2.136 7.29-6.742 8.792-.332.109-.599.361-.68.697-.712 2.837-3.332 6.623-8.57 7.113a1.04 1.04 0 0 0-.835.565c-2.786 5.42-8.856 6.51-13.14 4.056a1.009 1.009 0 0 0-1.174.118c-2.502 2.296-8.25 4.498-12.849-.092l-2.789-2.78a1.007 1.007 0 0 1-.058-1.36l1.545-1.808a1.01 1.01 0 0 1 1.479-.06l2.922 2.918zM83.273 12.12c5.562 5.058 16.924 29.157 16.924 29.157-5.42 7.19-16.71 9.276-23.892 8.481L50.74 26.163c-5.415.951-10.205 1.437-14.148 1.437-6.206 0-10.309-1.207-11.45-3.713-1.457-3.207.337-6.641 3.035-7.845L46.051 9.73c3.326-.993 5.215-.628 7.545.232l16.071 5.91 13.606-3.752zM28.395 51.66c2.167 2.564 1.121 5.432-.667 7.363 2.381-.683 4.17.497 4.768 1.022 2.43 2.129 2.822 5.089 1.092 7.285l-2.79 3.173c-1.95 2.216-4.04 2.16-5.832 1.152-7.79-4.392-17.67-14.897-21.293-24.096-1.117-2.835-1.683-4.307.095-6.563l1.788-1.902c1.732-1.623 5.106-2.647 7.56-.685 1.052.84 1.747 1.955 2.032 3.144 1.578-1.258 4.794-.879 6.337.421 2.842 2.392 2.591 5.55 1.04 7.58 2.63-.813 4.562.557 5.87 2.105z" fill="#727A80" fill-rule="evenodd"/></svg>