<svg width="93" height="74" viewBox="0 0 93 74" xmlns="http://www.w3.org/2000/svg" xmlns:xlink="http://www.w3.org/1999/xlink"><title>tone-and-voice-icon</title><defs><path id="a" d="M.093 53.087H52.42V.687H.093z"/></defs><g fill="none" fill-rule="evenodd"><path d="M3.716 70.018l5.718-12.814C4.167 56.821 0 52.41 0 47.042v-36.05C0 5.377 4.57.808 10.185.808h36.053c5.617 0 10.186 4.569 10.186 10.186v36.05c0 5.62-4.569 10.19-10.186 10.19H37.25L3.716 70.019zm6.469-64.365a5.343 5.343 0 0 0-5.336 5.34v36.05a5.343 5.343 0 0 0 5.336 5.343h6.708l-3.991 8.943 23.455-8.943h9.881a5.346 5.346 0 0 0 5.338-5.344v-36.05a5.345 5.345 0 0 0-5.338-5.339H10.185z" fill="#E7E7E8"/><g transform="translate(40.082 20.342)"><mask id="b" fill="#fff"><use xlink:href="#a"/></mask><path d="M22.814.687a36.28 36.28 0 0 0-3.13.136v25.88c0 7.46-6.071 13.53-13.529 13.53H.093c5.43 5.285 13.59 8.649 22.721 8.649 2.374 0 4.684-.228 6.898-.666 3.131.767 13.88 5.359 14.612 4.83.748-.543-4.14-8.742-3.795-8.953C47.749 39.7 52.42 32.685 52.42 24.78 52.421 11.475 39.162.687 22.814.687z" fill="#E7E7E8" mask="url(#b)"/></g><path d="M44.48 29.314a4.113 4.113 0 0 1-4.114 4.115 4.113 4.113 0 0 1-4.114-4.115 4.113 4.113 0 0 1 4.114-4.115 4.113 4.113 0 0 1 4.115 4.115m-12.155 0a4.114 4.114 0 0 1-4.116 4.115 4.114 4.114 0 1 1 0-8.23 4.114 4.114 0 0 1 4.116 4.115m-12.154 0a4.113 4.113 0 0 1-4.114 4.115 4.112 4.112 0 0 1-4.115-4.115 4.112 4.112 0 0 1 4.115-4.115 4.113 4.113 0 0 1 4.114 4.115" fill="#E7E7E8"/></g></svg>