<svg xmlns="http://www.w3.org/2000/svg" width="294.336" height="167.791" viewBox="0 0 294.336 167.791"><g transform="translate(147.168 83.895)"><g transform="translate(-147.168 -83.895)"><g transform="translate(66.549 0.937)"><path d="M21.3,14.739A11.249,11.249,0,1,0,32.551,3.8,10.936,10.936,0,0,0,21.3,14.739" transform="translate(-21.299 7.133)" fill="#e2e1e2"/><path d="M21.3.3A10.936,10.936,0,0,0,32.549,11.236,10.936,10.936,0,0,0,43.485.3H21.3" transform="translate(-21.296 -0.3)" fill="#e2e1e2"/></g><g transform="translate(259.653 78.11)"><path d="M94.661,25A11.249,11.249,0,1,0,105.6,36.252,10.936,10.936,0,0,0,94.661,25" transform="translate(-83.1 -24.999)" fill="#e2e1e2"/><path d="M101.549,25a11.249,11.249,0,0,0,0,22.5V25" transform="translate(-67.803 -24.996)" fill="#e2e1e2"/></g><g transform="translate(241.218 133.42)"><path d="M99.694,54.261A11.249,11.249,0,1,0,88.446,65.2,10.936,10.936,0,0,0,99.694,54.261" transform="translate(-77.197 -42.7)" fill="#e2e1e2"/><path d="M99.7,61.149a11.249,11.249,0,1,0-22.5,0H99.7" transform="translate(-77.2 -27.403)" fill="#e2e1e2"/></g><g transform="translate(0.625 77.806)"><path d="M14.739,47.394A11.249,11.249,0,1,0,3.8,36.146,10.936,10.936,0,0,0,14.739,47.394" transform="translate(7.445 -24.901)" fill="#e2e1e2"/><path d="M.2,47.185A10.936,10.936,0,0,0,11.136,35.936,10.936,10.936,0,0,0,.2,25V47.5" transform="translate(-0.2 -24.692)" fill="#e2e1e2"/></g><path d="M236.183,11.525V109.95H11.837V11.525H236.183m.937-.625H10.9v99.674H237.12V10.9Z" transform="translate(23.158 23.158)" fill="#e2e1e2"/><path d="M293.4.937V167.166H.937V.937H293.4m.937-.625H0V167.791H294.336V.312Z" fill="#e2e1e2"/><g transform="translate(34.995 34.991)"><path d="M30.625,51.009H27.5v-12.5h3.437a3.125,3.125,0,0,1,3.437,3.125,2.812,2.812,0,0,1-1.562,2.812h0a2.812,2.812,0,0,1,2.5,2.812C35,49.134,34.062,51.009,30.625,51.009Zm0-11.249H29.062v4.062h1.562a2.187,2.187,0,0,0,2.187-2.187c0-1.25-.937-1.875-2.5-1.875Zm.312,5.312H29.062v4.374h1.875c1.875,0,2.812-.937,2.812-2.5a2.187,2.187,0,0,0-2.812-1.875Z" transform="translate(23.431 46.795)" fill="#004383"/><path d="M44.462,41.062h-.937A3.125,3.125,0,0,0,41.65,42v6.562H40.4V39.812h1.25v.937c1.25-1.25,1.875-1.25,2.5-1.25h.937Z" transform="translate(50.838 48.93)" fill="#004383"/><path d="M46.1,51.948l-2.5-.625V38.2h1.25v4.687h2.187a4.062,4.062,0,0,1,4.062,3.75,4.687,4.687,0,0,1-5,5.312Zm.625-8.124H44.85v6.249h1.562a3.437,3.437,0,0,0,3.125-3.75,2.736,2.736,0,0,0-2.5-2.812Z" transform="translate(57.637 46.168)" fill="#004383"/><path d="M55.524,48.661V43.037c0-1.25-.312-2.5-1.562-2.5a4.687,4.687,0,0,0-2.812,1.25v6.562H49.9V39.6h1.25v1.25a5,5,0,0,1,3.125-1.25c1.25,0,2.5.937,2.5,3.125v5.937Z" transform="translate(71.022 49.143)" fill="#004383"/><path d="M54.18,44.5a2.812,2.812,0,0,0,2.812,3.125l2.5-.312.625.937a5.312,5.312,0,0,1-2.812.937,4.374,4.374,0,0,1-4.374-5c0-2.5,1.562-4.687,3.75-4.687s3.75,1.875,3.75,4.687H54.18Zm2.187-3.75a2.5,2.5,0,0,0-2.187,2.5h4.374c0-1.25-.625-2.5-1.875-2.5Z" transform="translate(77.365 48.93)" fill="#004383"/><path d="M48.27,44.5a2.812,2.812,0,0,0,2.812,3.125L53.269,47l.625.937a5,5,0,0,1-2.812.937,4.374,4.374,0,0,1-4.374-4.687c0-2.5,1.562-4.687,3.749-4.687s3.437,1.875,3.437,4.687H48.27Zm2.187-3.75a2.5,2.5,0,0,0-2.187,2.5h4.374a2.5,2.5,0,0,0-2.187-2.5Z" transform="translate(64.215 48.93)" fill="#004383"/><path d="M38.77,44.5a2.812,2.812,0,0,0,2.812,3.125L43.769,47l.625.937a5.312,5.312,0,0,1-2.812.937,4.374,4.374,0,0,1-4.374-4.687c0-2.5,1.562-4.687,3.75-4.687s3.75,1.875,3.75,4.687H38.77Zm2.187-3.75a2.5,2.5,0,0,0-2.187,2.5h4.374a2.214,2.214,0,0,0-2.187-2.5Z" transform="translate(44.032 48.93)" fill="#004383"/><path d="M31.972,44.5a2.812,2.812,0,0,0,2.812,3.125L36.972,47v.937a5,5,0,0,1-2.812.937,4.374,4.374,0,0,1-3.75-4.687c0-2.5,1.562-4.687,3.75-4.687s3.75,1.875,3.75,4.687H31.972Zm2.187-3.75a2.5,2.5,0,0,0-2.187,2.5h4.374a2.415,2.415,0,0,0-2.187-2.5Z" transform="translate(29.582 48.93)" fill="#004383"/><path d="M63.612,49.221A5,5,0,0,1,60.8,48.6l.625-1.25,2.187.625c1.25,0,1.875-.625,1.875-1.25s-4.062-1.562-4.062-4.687.937-2.5,3.125-2.5l2.187.625v1.25l-2.187-.625c-.937,0-1.562.312-1.562,1.25s4.062,1.562,4.062,4.374S65.487,49.221,63.612,49.221Z" transform="translate(94.18 48.896)" fill="#004383"/><path d="M70.424,48.675v-.937a3.749,3.749,0,0,1-2.812.937A2.812,2.812,0,0,1,64.8,45.863q0-2.812,3.749-2.812h1.875v-.625a1.562,1.562,0,0,0-1.875-1.875,4.062,4.062,0,0,0-2.5.937l-.625-.937a5.312,5.312,0,0,1,3.125-.937,2.812,2.812,0,0,1,3.125,3.125V45.55a13.124,13.124,0,0,0,.312,3.437ZM70.112,44.3H68.55c-1.562,0-2.5.625-2.5,1.562a1.562,1.562,0,0,0,1.875,1.562,3.125,3.125,0,0,0,2.187-.937Z" transform="translate(102.678 49.129)" fill="#004383"/><path d="M80.9,48.661h-1.25l-2.187-7.187h0l-2.187,7.187h-1.25L70.9,39.6h1.562l2.187,7.187h0L76.837,39.6h1.25l2.187,7.187h0L82.461,39.6h1.25Z" transform="translate(115.638 49.143)" fill="#004383"/><path d="M82.307,47.936a3.789,3.789,0,0,1-5.624,0,5.624,5.624,0,0,1,0-7.187,3.789,3.789,0,0,1,5.624,0,5.624,5.624,0,0,1,0,7.187ZM79.494,40.75c-1.562,0-2.812,1.25-2.812,3.437s.937,3.437,2.812,3.437,2.812-1.562,2.812-3.437S81.369,40.75,79.494,40.75Z" transform="translate(125.166 48.93)" fill="#004383"/><path d="M82.862,41.062h-.937A3.125,3.125,0,0,0,80.05,42v6.562H78.8V39.812h1.25v.937c1.25-1.25,1.875-1.25,2.5-1.25h.937Z" transform="translate(132.422 48.93)" fill="#004383"/><path d="M36.95,50.673a1.875,1.875,0,0,1-2.187-2.187V42.55H33.2V41.3h1.562V39.425l1.25-.625v2.5h2.5l-.625,1.25H35.7v5.624c0,.937.312,1.25,1.25,1.25H38.2v.937Z" transform="translate(35.541 47.443)" fill="#004383"/><path d="M38.95,50.673a1.875,1.875,0,0,1-2.187-2.187V42.55H35.2V41.3h1.562V39.425l1.25-.625v2.5h2.812L40.2,42.55H38.012v5.624c0,.937.312,1.25,1.25,1.25h1.562v.937Z" transform="translate(39.79 47.443)" fill="#004383"/><path d="M62.45,50.673a1.875,1.875,0,0,1-2.187-2.187V42.55H58.7V41.3h1.562V39.425l1.25-.625v2.5h2.812L63.7,42.55H61.512v5.624c0,.937.312,1.25,1.25,1.25h1.25v.937Z" transform="translate(89.718 47.443)" fill="#004383"/><path d="M71.149,50.673a1.875,1.875,0,0,1-2.187-2.187V42.55H67.4V41.3h1.562V39.425l1.25-.625v2.5h2.812L72.4,42.55H70.212v5.624c0,.937.312,1.25,1.25,1.25h1.25v.937Z" transform="translate(108.202 47.443)" fill="#004383"/><path d="M58.412,42.588v-1.25c0-1.25.312-1.875,1.875-1.875h1.875v-1.25H59.974a2.812,2.812,0,0,0-3.125,3.125V42.9H55.6v.937h1.25v7.811H58.1V43.838h3.437v7.811h1.25V42.588Z" transform="translate(83.132 46.155)" fill="#004383"/><g transform="translate(217.784 84.368)"><path d="M85.9,51.636l-3.75-4.687h0v4.687H80.9V38.2h1.25v7.811h0l3.437-3.125h1.875L83.4,46.636l4.374,5.312Z" transform="translate(-80.9 -38.2)" fill="#004383"/><path d="M84.544,44.087a1.094,1.094,0,1,1,1.094-1.094A1.094,1.094,0,0,1,84.544,44.087Z" transform="translate(-75.482 -30.339)" fill="#004383"/></g><path d="M66.61,65.494c18.748,0,22.809-12.186,22.809-20.622V20.5H75.983V44.247a8.124,8.124,0,0,1-9.061,9.374,8.124,8.124,0,0,1-9.061-9.374V20.5H43.8V45.184c0,8.436,4.062,20.622,22.81,20.622" transform="translate(58.062 8.563)" fill="#004383"/><path d="M34.01,65.494c18.748,0,22.81-12.186,22.81-20.622V20.5H43.071V44.247a8.124,8.124,0,0,1-9.061,9.374,8.124,8.124,0,0,1-9.061-9.374V20.5H11.2V45.184c0,8.436,4.062,20.622,22.81,20.622" transform="translate(-11.2 8.563)" fill="#004383"/><path d="M50.31,20.212C31.562,20.212,27.5,32.4,27.5,40.835V65.519H41.248V41.46a8.124,8.124,0,0,1,9.061-9.374,8.124,8.124,0,0,1,9.061,9.374V65.207H73.119V40.522c0-8.436-4.062-20.622-22.81-20.622" transform="translate(23.431 7.288)" fill="#004383"/><path d="M95.82,27.087c-.625-.937-4.062-6.874-15.311-6.874S60.2,25.837,60.2,39.9V65.207H73.636V39.585a7.811,7.811,0,0,1,15.623,0V65.207h13.436V39.585a7.811,7.811,0,0,1,15.623,0V65.207h13.436V39.585c0-13.748-9.061-19.685-20.31-19.685s-14.686,6.249-15.311,6.874" transform="translate(92.905 7.288)" fill="#004383"/><path d="M31.2,22.139A11.249,11.249,0,1,0,42.452,11.2,10.936,10.936,0,0,0,31.2,22.139" transform="translate(31.289 -11.199)" fill="#465f72"/><path d="M47.5,22.139A11.249,11.249,0,1,0,58.752,11.2,10.936,10.936,0,0,0,47.5,22.139" transform="translate(65.92 -11.199)" fill="#465f72"/><path d="M68,22.139A11.249,11.249,0,1,0,79.251,11.2,10.936,10.936,0,0,0,68,22.139" transform="translate(109.474 -11.199)" fill="#465f72"/><path d="M87.587,29.074a4.687,4.687,0,1,1,4.687-4.687,4.687,4.687,0,0,1-4.687,4.687Zm0-8.749a4.062,4.062,0,1,0,4.062,4.062A4.062,4.062,0,0,0,87.587,20.325Zm.937,6.874-1.562-2.5H86.65v2.187h-.625V21.575h1.25c1.25,0,1.875.625,1.875,1.562A1.562,1.562,0,0,1,87.587,24.7l1.875,2.5Zm-1.25-5H86.65v1.875h.312c.625,0,1.25-.312,1.25-.937s-.625-.937-1.25-.937Z" transform="translate(141.133 6.863)" fill="#004383"/></g></g></g></svg>