<svg width="167" height="65" viewBox="0 0 167 65" xmlns="http://www.w3.org/2000/svg"><title>unum-logo-white-tag</title><g fill="#FFF" fill-rule="evenodd"><path d="M74.89 44.895c11.168 0 13.684-7.292 13.684-12.298v-14.74H80.34v14.178c0 3.888-2.173 5.587-5.45 5.587-3.283 0-5.455-1.7-5.455-5.587V17.856h-8.233v14.741c0 5.006 2.514 12.298 13.689 12.298M27.376 32.597v-14.74h-8.231v14.178c0 3.888-2.176 5.587-5.454 5.587-3.282 0-5.46-1.7-5.46-5.587V17.856H0v14.741c0 5.006 2.524 12.298 13.691 12.298 11.169 0 13.685-7.292 13.685-12.298zM44.29 16.832c-11.17 0-13.69 7.29-13.69 12.295v14.741h8.235V29.686c0-3.878 2.174-5.581 5.456-5.581 3.28 0 5.452 1.703 5.452 5.58v14.183h8.233v-14.74c0-5.006-2.518-12.296-13.685-12.296m59.772 0c-6.862 0-12.265 3.44-12.265 11.752v15.284h8.048V28.57c0-2.679 1.366-4.731 4.688-4.731 3.33 0 4.693 2.052 4.693 4.731v15.3h8.05v-15.3c0-2.679 1.362-4.731 4.688-4.731 3.329 0 4.692 2.052 4.692 4.731v15.3h8.045V28.583c0-8.312-5.405-11.752-12.263-11.752-6.728 0-8.833 3.701-9.184 4.177-.356-.476-2.455-4.177-9.192-4.177zm-59.776-3.286c3.738 0 6.677-2.89 6.677-6.65 0-3.754-2.939-6.644-6.677-6.644-3.773 0-6.767 2.89-6.767 6.644 0 3.76 2.994 6.65 6.767 6.65zm23.827-6.65c0 3.76 2.998 6.65 6.773 6.65 3.736 0 6.675-2.89 6.675-6.65 0-3.754-2.939-6.644-6.675-6.644-3.775 0-6.773 2.89-6.773 6.644m38.368 0c0 3.76 2.997 6.65 6.773 6.65 3.736 0 6.675-2.89 6.675-6.65 0-3.754-2.94-6.644-6.675-6.644-3.776 0-6.773 2.89-6.773 6.644m30.566 10.774a1.19 1.19 0 0 0-.322.05v1.176h.25c.44 0 .785-.162.785-.652 0-.46-.393-.574-.713-.574zm.793 3.015l-1.017-1.483h-.098v1.483h-.456v-3.223c.215-.106.513-.171.818-.171.673 0 1.146.38 1.146.953 0 .554-.393.87-.922.924l1.083 1.517h-.554zm-.641-4.062c-1.35 0-2.423 1.104-2.423 2.45a2.42 2.42 0 1 0 4.838 0c0-1.346-1.076-2.45-2.415-2.45zm0 5.296a2.834 2.834 0 0 1-2.84-2.846 2.848 2.848 0 0 1 2.84-2.861c1.564 0 2.84 1.282 2.84 2.86a2.84 2.84 0 0 1-2.84 2.847zM32.85 60.275h-1.517v3.47h1.428c1.358 0 2.103-.782 2.103-1.81 0-.921-.79-1.66-2.014-1.66zm-.267-4.207h-1.25V59.3h1.237c.853 0 1.738-.573 1.738-1.733 0-.925-.558-1.498-1.725-1.498zm.092 8.675h-2.412v-9.675h2.53c1.82 0 2.671 1.154 2.671 2.414 0 .91-.397 1.733-1.302 2.126v.028c.905.131 1.869.981 1.869 2.272 0 1.305-.773 2.835-3.356 2.835zm31.635-5.874a1.818 1.818 0 0 0-.63-.115c-.46 0-.961.277-1.547.835v5.154h-1.066v-6.942h.973l.05.793c.95-.866 1.473-.973 1.914-.973.367 0 .629.12.76.212l-.453 1.036m7.117-.246c-.728 0-1.11.205-1.418.35v4.796c.308.134.645.192 1.094.192 1.36 0 2.44-1.274 2.44-2.889 0-1.436-.745-2.45-2.116-2.45zm-.556 6.263c-.962 0-1.618-.235-1.925-.44V54.354h1.063v3.59c.486-.184.978-.323 1.565-.323 1.593 0 3.037 1.105 3.037 3.406 0 2.434-1.725 3.859-3.74 3.859zm17.296-.143V60.47c0-.862-.146-1.836-1.199-1.836-.848 0-1.622.605-2.14 1.062v5.047h-1.07v-6.942h.967l.058.833c.757-.588 1.502-1.013 2.467-1.013.986 0 1.984.723 1.984 2.453v4.67h-1.067m5.725-6.214c-1.018 0-1.661.916-1.661 2.014h3.248c0-.966-.537-2.013-1.587-2.013zm-1.68 2.924c0 1.321.763 2.507 2.247 2.507.629 0 1.272-.254 1.682-.513l.36.803c-.196.114-.95.635-2.173.635-2.2 0-3.252-1.78-3.252-3.76 0-2.007 1.136-3.505 2.8-3.505 1.782 0 2.757 1.432 2.757 3.583v.25h-4.421zM79.154 58.53c-1.023 0-1.663.916-1.663 2.014h3.257c0-.966-.538-2.013-1.594-2.013zm-1.678 2.924c0 1.321.76 2.507 2.245 2.507.629 0 1.272-.254 1.678-.513l.361.803c-.192.114-.94.635-2.172.635-2.202 0-3.251-1.78-3.251-3.76 0-2.007 1.14-3.505 2.8-3.505 1.783 0 2.762 1.432 2.762 3.583v.25h-4.423zM56.49 58.53c-1.019 0-1.666.916-1.666 2.014h3.257c0-.966-.546-2.013-1.59-2.013zm-1.68 2.924c0 1.321.76 2.507 2.25 2.507.624 0 1.264-.254 1.678-.513l.36.803c-.196.114-.95.635-2.17.635-2.203 0-3.255-1.78-3.255-3.76 0-2.007 1.138-3.505 2.8-3.505 1.778 0 2.762 1.432 2.762 3.583v.25h-4.424zM40.173 58.53c-1.023 0-1.665.916-1.665 2.014h3.255c0-.966-.54-2.013-1.59-2.013zm-1.678 2.924c0 1.321.76 2.507 2.249 2.507.625 0 1.266-.254 1.676-.513l.36.803c-.192.114-.946.635-2.17.635-2.207 0-3.256-1.78-3.256-3.76 0-2.007 1.14-3.505 2.804-3.505 1.783 0 2.758 1.432 2.758 3.583v.25h-4.421zm73.731 3.432c-.99 0-1.596-.263-2.043-.528l.41-.837c.317.209.918.498 1.678.498.847 0 1.46-.385 1.46-1.024 0-1.7-3.139-1.105-3.139-3.506 0-1.024.713-1.868 2.292-1.868.728 0 1.285.165 1.736.366v.94c-.482-.2-.98-.41-1.693-.41-.701 0-1.281.252-1.281.884 0 1.553 3.19 1.156 3.19 3.429 0 1.455-1.138 2.056-2.61 2.056m11.343-3.474l-1.295.042c-1.285.043-1.811.466-1.811 1.278 0 .656.434 1.23 1.343 1.23.904 0 1.44-.456 1.763-.79v-1.76zm.338 3.331l-.28-.682c-.421.413-1.093.825-2.113.825-1.124 0-2.12-.812-2.12-2.126 0-1.36.951-2.203 2.772-2.261l1.403-.044v-.441c0-1.068-.578-1.465-1.456-1.465-.788 0-1.377.312-1.84.65l-.439-.781c.786-.559 1.546-.797 2.39-.797 1.345 0 2.415.573 2.415 2.35v2.114c0 1.96.058 2.434.142 2.658h-.874zm17.946.04h-.994l-1.691-5.544h-.045l-1.725 5.544h-.975l-2.28-6.982h1.107l1.664 5.455h.05l1.676-5.455h1.046l1.675 5.47h.039l1.63-5.47h1.07l-2.247 6.982m6.359-6.253c-1.306 0-2.043 1.059-2.043 2.707 0 1.638.767 2.724 2.058 2.724 1.281 0 2.056-1.086 2.056-2.724 0-1.648-.749-2.706-2.071-2.706zm2.17 5.49c-.533.558-1.299.866-2.185.866-.867 0-1.605-.29-2.146-.855-.629-.643-.967-1.622-.967-2.77 0-1.144.35-2.103.967-2.744.552-.573 1.294-.896 2.16-.896.887 0 1.638.323 2.19.896.613.641.96 1.6.96 2.745 0 1.147-.347 2.11-.98 2.757zm5.931-5.151a1.797 1.797 0 0 0-.63-.115c-.467 0-.957.277-1.54.835v5.154h-1.073v-6.942h.966l.061.793c.95-.866 1.473-.973 1.905-.973.365 0 .632.12.763.212l-.452 1.036M46.758 64.886c-1.182 0-1.702-.635-1.702-1.68V58.68H43.93v-.88h1.126v-1.52l1.066-.37v1.89h1.942l-.378.88h-1.564v4.38c0 .61.206.9.913.9.511 0 .926-.192 1.03-.231l.29.786c-.117.058-.734.37-1.597.37m4.922.001c-1.178 0-1.704-.635-1.704-1.68V58.68h-1.12v-.88h1.12v-1.52l1.07-.37v1.89h1.939l-.374.88h-1.564v4.38c0 .61.203.9.91.9.511 0 .93-.192 1.028-.231l.3.786c-.124.058-.742.37-1.604.37m56.154.001c-1.18 0-1.703-.635-1.703-1.68V58.68h-1.126v-.88h1.126v-1.52l1.063-.37v1.89h2.116l-.38.88h-1.736v4.38c0 .61.208.9.913.9.512 0 .924-.192 1.027-.231l.296.786c-.116.058-.734.37-1.596.37m20.983.001c-1.178 0-1.702-.635-1.702-1.68V58.68h-1.12v-.88h1.12v-1.52l1.068-.37v1.89h2.109l-.378.88h-1.73v4.38c0 .61.207.9.912.9.51 0 .932-.192 1.027-.231l.296.786c-.122.058-.735.37-1.602.37m-28.994-7.08v-1.07c0-.859.344-1.479 1.547-1.479.664 0 1.235.258 1.354.308l.272-.881c-.088-.032-.809-.322-1.783-.322-1.475 0-2.453.707-2.453 2.312v1.132h-.87v.88h.87v6.05h1.063v-6.05h2.62v6.05h1.063v-6.93h-3.683m65.59 7.096c-.449 0-.793-.366-.793-.827 0-.455.344-.818.793-.818.45 0 .786.363.786.818 0 .46-.337.827-.786.827m-3.404-.158l-2.968-3.616h-.015v3.616h-1.063v-10.39h1.063v5.896h.015l2.546-2.448h1.381l-3.036 2.831 3.435 4.111h-1.359"/><path d="M165.143 64.901c-.449 0-.788-.366-.788-.827 0-.455.339-.818.788-.818.458 0 .79.363.79.818 0 .46-.332.827-.79.827"/></g></svg>