<svg xmlns="http://www.w3.org/2000/svg" width="210.75" height="126.16" viewBox="0 0 210.75 126.16"><g transform="translate(-744 -2201)"><g transform="translate(849.375 2264.08)"><g transform="translate(-105.375 -63.08)"><path d="M0,35.8v.483H196.491v8.7H0v.725H196.974V35.8H0Z" transform="translate(0 50.724)" fill="#e2e1e2"/><path d="M54.725,10.3v91.841h-2.9V10.3H51.1v92.324h4.35V10.3Z" transform="translate(72.402 14.594)" fill="#e2e1e2"/><path d="M38.425,10.3v91.841H35.283V10.3H34.8v92.324h4.109V10.3Z" transform="translate(49.307 14.594)" fill="#e2e1e2"/><path d="M21.784,10.3v91.841h-2.9V10.3H18.4v92.324h4.109V10.3Z" transform="translate(26.07 14.594)" fill="#e2e1e2"/><path d="M200.358,19.6H0v.725H199.633v2.9H0v.725H200.358V19.6Z" transform="translate(0 27.771)" fill="#e2e1e2"/><path d="M87.117,45.475H84.7V35.807h2.659a2.417,2.417,0,0,1,2.659,2.417A2.175,2.175,0,0,1,88.809,40.4h0a2.175,2.175,0,0,1,1.934,2.175C90.5,44.024,89.775,45.475,87.117,45.475Zm0-8.7H85.908v3.142h1.208a1.692,1.692,0,0,0,1.692-1.692c0-.967-.725-1.45-1.933-1.45Zm.242,4.109h-1.45v3.384h1.45c1.45,0,2.175-.725,2.175-1.933a1.692,1.692,0,0,0-2.175-1.45Z" transform="translate(120.008 50.717)" fill="#004383"/><path d="M55.634,55.926l-.967-1.45L53.7,53.267h0l-.725,1.45-.967,1.45H50.8l2.417-3.384L51.042,49.4H52.25l.967,1.692.725,1.208h0l.725-1.208.967-1.692h1.208l-2.417,3.384,2.417,3.384Z" transform="translate(71.977 69.993)" fill="#19629d"/><path d="M89.434,26.692,88.467,25,87.5,23.55h0L86.775,25l-.967,1.692H84.6l2.417-3.867L84.842,19.2H86.05l.967,1.692.725,1.208h0l.725-1.208.967-1.692h1.208l-2.417,3.625,2.417,3.867Z" transform="translate(119.867 27.204)" fill="#19629d"/><path d="M39.234,56.067l-.967-1.45-.967-1.45h0l-.725,1.45-.967,1.45H34.4l2.417-3.384L34.642,49.3H35.85l.967,1.692.725,1.208h0l.725-1.208.967-1.692h1.208l-2.417,3.384,2.417,3.384Z" transform="translate(48.74 69.851)" fill="#19629d"/><path d="M22.834,56.067l-.967-1.45-.967-1.45h0l-.725,1.45-.967,1.45H18l2.417-3.384L18.242,49.3H19.45l.967,1.692.725,1.208h0l.725-1.208.967-1.692h1.208l-2.417,3.384,2.417,3.384Z" transform="translate(25.504 69.851)" fill="#19629d"/><g transform="translate(9.184 30.449)"><path d="M22.517,49.575H20.1V39.907h2.659a2.417,2.417,0,0,1,2.659,2.417A2.175,2.175,0,0,1,24.209,44.5h0a2.175,2.175,0,0,1,1.933,2.175C25.9,48.124,25.175,49.575,22.517,49.575Zm0-8.7H21.308v3.142h1.208a1.692,1.692,0,0,0,1.692-1.692c0-.967-.483-1.45-1.692-1.45Zm.242,4.109h-1.45v3.384h1.45c1.45,0,2.175-.725,2.175-1.933a1.692,1.692,0,0,0-2.175-1.45Z" transform="translate(19.295 26.077)" fill="#004383"/><path d="M36.142,42.108h-.725a2.417,2.417,0,0,0-1.45.725v5.075H33V41.142h.967v.725c.967-.967,1.45-.967,1.933-.967h.725Z" transform="translate(37.572 27.501)" fill="#004383"/><path d="M38.233,49.993,36.3,49.509V39.6h.967v3.625h1.692A3.142,3.142,0,0,1,42.1,46.609a3.625,3.625,0,0,1-3.867,3.384Zm.483-6.284h-1.45v4.834h1.208a2.659,2.659,0,0,0,2.417-2.9,2.125,2.125,0,0,0-2.175-1.933Z" transform="translate(42.248 25.659)" fill="#004383"/><path d="M46.85,48.151V43.8c0-.967-.242-1.933-1.208-1.933a3.625,3.625,0,0,0-2.175.967v5.075H42.5V41.142h.967v.725a3.867,3.867,0,0,1,2.417-.967c.967,0,1.933.725,1.933,2.417v4.592Z" transform="translate(51.033 27.501)" fill="#004383"/><path d="M46.729,44.909A2.175,2.175,0,0,0,48.9,47.326l1.692-.483.483.725a4.109,4.109,0,0,1-2.175.725,3.384,3.384,0,0,1-3.384-3.867c0-1.933,1.208-3.625,2.9-3.625s2.9,1.45,2.9,3.625H46.729Zm1.692-2.9a1.934,1.934,0,0,0-1.692,1.933h3.384C49.871,42.975,49.387,42.008,48.421,42.008Z" transform="translate(55.263 27.359)" fill="#004383"/><path d="M40.529,44.909A2.175,2.175,0,0,0,42.7,47.326l1.692-.483.483.725a3.867,3.867,0,0,1-2.175.725,3.384,3.384,0,0,1-3.384-3.867c0-1.933,1.208-3.625,2.9-3.625s2.9,1.45,2.9,3.625H40.529Zm1.692-2.9a1.934,1.934,0,0,0-1.692,1.933h3.384a1.933,1.933,0,0,0-1.692-1.933Z" transform="translate(46.478 27.359)" fill="#004383"/><path d="M31.129,44.909A2.175,2.175,0,0,0,33.3,47.326L35,46.842l.483.725a4.109,4.109,0,0,1-2.175.725,3.384,3.384,0,0,1-3.384-3.867c0-1.933,1.208-3.625,2.9-3.625s2.9,1.45,2.9,3.625H31.129Zm1.692-2.9a1.933,1.933,0,0,0-1.692,1.933h3.384C34.271,42.975,33.787,42.008,32.821,42.008Z" transform="translate(33.16 27.359)" fill="#004383"/><path d="M24.512,44.909a2.175,2.175,0,0,0,2.175,2.417l1.692-.483v.725a3.867,3.867,0,0,1-2.175.725,3.384,3.384,0,0,1-3.384-3.867c0-1.933,1.208-3.625,2.9-3.625s2.9,1.45,2.9,3.625H24.512Zm1.692-2.9a1.934,1.934,0,0,0-1.692,1.933H27.9A1.713,1.713,0,0,0,26.2,42.008Z" transform="translate(23.1 27.359)" fill="#004383"/><path d="M55.575,48.174A3.867,3.867,0,0,1,53.4,47.69l.483-.725,1.692.483c.967,0,1.45-.483,1.45-.967s-3.142-1.208-3.142-3.625.725-1.933,2.417-1.933l1.692.483v.967L56.3,41.89c-.725,0-1.208.242-1.208.967s3.142,1.208,3.142,3.384S57.267,48.174,55.575,48.174Z" transform="translate(66.476 27.478)" fill="#004383"/><path d="M61.75,48.018v-.725a2.9,2.9,0,0,1-2.175.725A2.175,2.175,0,0,1,57.4,45.843q0-2.175,2.9-2.175h1.45v-.483a1.208,1.208,0,0,0-1.45-1.45,3.142,3.142,0,0,0-1.933.725l-.483-.725a4.109,4.109,0,0,1,2.417-.725,2.175,2.175,0,0,1,2.417,2.417V45.6a10.15,10.15,0,0,0,.242,2.659Zm-.242-3.384H60.3c-1.208,0-1.933.483-1.933,1.208a1.208,1.208,0,0,0,1.45,1.208,2.417,2.417,0,0,0,1.692-.725Z" transform="translate(72.144 27.633)" fill="#004383"/><path d="M71.234,48.009h-.967L68.575,42.45h0l-1.692,5.559h-.967L63.5,41h1.208L66.4,46.559h0L68.092,41h.967l1.692,5.559h0L72.442,41h.967Z" transform="translate(80.787 27.642)" fill="#004383"/><path d="M73.439,47.426a2.93,2.93,0,0,1-4.35,0,4.35,4.35,0,0,1,0-5.559,2.931,2.931,0,0,1,4.35,0,4.35,4.35,0,0,1,0,5.559Zm-2.175-5.559c-1.208,0-2.175.967-2.175,2.659s.725,2.659,2.175,2.659,2.175-1.208,2.175-2.659A2.46,2.46,0,0,0,71.264,41.867Z" transform="translate(87.283 27.501)" fill="#004383"/><path d="M74.642,42.108h-.725a2.417,2.417,0,0,0-1.45.725v5.075H71.5V41.142h.967v.725c.967-.967,1.45-.967,1.934-.967h.725Z" transform="translate(92.122 27.501)" fill="#004383"/><path d="M28.7,49.142a1.45,1.45,0,0,1-1.692-1.692V43.1H25.8v-.967h1.208v-1.45l.967-.483v1.933h1.933l-.483.967H27.733v4.35c0,.725.242.967.967.967h.967v.725Z" transform="translate(27.371 26.509)" fill="#004383"/><path d="M30.8,49.142a1.45,1.45,0,0,1-1.692-1.692V43.1H27.9v-.967h1.208v-1.45l.967-.483v1.933h1.933l-.483.967H29.833v4.35c0,.725.242.967.967.967h.967v.725Z" transform="translate(30.346 26.509)" fill="#004383"/><path d="M54.2,49.142a1.45,1.45,0,0,1-1.692-1.692V43.1H51.3v-.967h1.208v-1.45l.967-.483v1.933H55.65l-.483.967H53.475v4.35c0,.725.242.967.967.967h.967v.725Z" transform="translate(63.501 26.509)" fill="#004383"/><path d="M63,49.142a1.45,1.45,0,0,1-1.692-1.692V43.1H60.1v-.967h1.208v-1.45l.967-.483v1.933H64.45l-.483.967H62.275v4.35c0,.725.242.967.967.967h.967v.725Z" transform="translate(75.969 26.509)" fill="#004383"/><path d="M50.475,42.993v-.967c0-.967.242-1.45,1.45-1.45h1.45v-.967H51.684a2.175,2.175,0,0,0-2.417,2.417v.967H48.3v.967h.967V50h.967V43.959h2.659V50h.967V42.993Z" transform="translate(59.25 25.65)" fill="#004383"/><g transform="translate(168.455 65.259)"><path d="M77.367,49.993l-2.9-3.625h0v3.625H73.5V39.6h.967v5.8h0l2.659-2.417h1.45l-3.142,2.9,3.384,4.109Z" transform="translate(-73.5 -39.6)" fill="#004383"/><path d="M76.9,44.992a.846.846,0,1,1,.846-.846.846.846,0,0,1-.846.846Z" transform="translate(-69.887 -34.358)" fill="#004383"/></g><path d="M54.143,56.7c14.5,0,17.643-9.426,17.643-15.951V21.9H61.152V40.268a6.284,6.284,0,0,1-7.009,7.251,6.284,6.284,0,0,1-7.009-7.251V21.9H36.5V40.993c0,6.526,3.142,15.951,17.643,15.951" transform="translate(42.531 0.58)" fill="#004383"/><path d="M21.443,56.7c14.5,0,17.643-9.426,17.643-15.951V21.9H28.452V40.268a6.284,6.284,0,0,1-7.009,7.251,6.284,6.284,0,0,1-7.009-7.251V21.9H3.8V40.993c0,6.526,3.142,15.951,17.643,15.951" transform="translate(-3.8 0.58)" fill="#004383"/><path d="M37.743,21.542c-14.5,0-17.643,9.426-17.643,15.951V56.586H30.734V37.976a6.284,6.284,0,0,1,7.009-7.251,6.284,6.284,0,0,1,7.009,7.251V56.345H55.386V37.251c0-6.526-3.142-15.951-17.643-15.951" transform="translate(19.295 -0.27)" fill="#004383"/><path d="M80.452,26.859c-.483-.725-3.142-5.317-11.843-5.317S52.9,25.892,52.9,36.768V56.345H63.293V36.526a6.042,6.042,0,0,1,12.084,0V56.345H85.769V36.526a6.042,6.042,0,0,1,12.084,0V56.345h10.393V36.526c0-10.634-7.009-15.226-15.71-15.226s-11.359,4.834-11.843,5.317" transform="translate(65.768 -0.27)" fill="#004383"/><path d="M23.8,21.061A8.7,8.7,0,1,0,32.5,12.6a8.459,8.459,0,0,0-8.7,8.459" transform="translate(24.535 -12.599)" fill="#465f72"/><path d="M40.2,21.061A8.7,8.7,0,1,0,48.9,12.6a8.459,8.459,0,0,0-8.7,8.459" transform="translate(47.772 -12.599)" fill="#465f72"/><path d="M60.7,21.061A8.7,8.7,0,1,0,69.4,12.6a8.459,8.459,0,0,0-8.7,8.459" transform="translate(76.818 -12.599)" fill="#465f72"/><path d="M79.225,28.351a3.625,3.625,0,1,1,3.625-3.625,3.625,3.625,0,0,1-3.625,3.625Zm0-6.767a3.142,3.142,0,1,0,3.142,3.142A3.142,3.142,0,0,0,79.225,21.583ZM79.95,26.9l-1.208-1.933H78.5V26.9h-.483V22.55h.967c.967,0,1.45.483,1.45,1.208a1.208,1.208,0,0,1-1.208,1.208l1.45,1.933Zm-.967-4.109H78.5v1.45h.242c.483,0,.967-.242.967-.725s-.483-.725-.967-.725Z" transform="translate(97.931 -0.553)" fill="#004383"/></g><path d="M178.3,7.7H3.8V19.3h.483V8.183H178.056V19.3h.483V7.7Z" transform="translate(5.384 10.91)" fill="#222"/><g transform="translate(74.439)"><path d="M35.392,12.1h-1.45V1.708l-.483.483L31.525,3.884,30.8,2.917,33.942.5H35.15Z" transform="translate(-30.8 0.708)" fill="#1a1818"/><path d="M36.7,1.025A.967.967,0,0,1,36.944.3h1.208a.967.967,0,0,1,.242.725.967.967,0,0,1-.242.725H36.944A.967.967,0,0,1,36.7,1.025Zm1.45,11.6H36.7V3.442h1.45Z" transform="translate(-22.443 0.425)" fill="#1a1818"/><path d="M44.926,10.692v-5.8A2.417,2.417,0,0,0,44.442,3.2a1.933,1.933,0,0,0-1.692-.483,2.659,2.659,0,0,0-2.175.725A3.867,3.867,0,0,0,39.85,6.1v4.834H38.4V1.75h1.45V2.958h0l1.208-.967,1.692-.483a3.384,3.384,0,0,1,2.417.725,3.384,3.384,0,0,1,.725,2.417v6.042Z" transform="translate(-20.032 2.117)" fill="#1a1818"/><path d="M46.729,10.934a3.867,3.867,0,0,1-3.142-1.208,5.076,5.076,0,0,1-.967-3.384,5.075,5.075,0,0,1,.967-3.625,3.867,3.867,0,0,1,3.142-1.208h2.417l-.483,1.208H46.729q-2.659,0-2.659,3.625A4.109,4.109,0,0,0,44.8,9a2.417,2.417,0,0,0,1.933.967l2.417-.483v1.208Z" transform="translate(-14.102 2.117)" fill="#1a1818"/><path d="M52.526,12.809v-5.8a2.417,2.417,0,0,0-.483-1.692,1.934,1.934,0,0,0-1.692-.483,2.659,2.659,0,0,0-2.175.725,3.867,3.867,0,0,0-.725,2.659v4.834H46V0h1.45V3.867a8.457,8.457,0,0,1,0,1.208h0l1.208-.967,1.692-.483a3.384,3.384,0,0,1,2.417.725,3.384,3.384,0,0,1,.725,2.417v6.042Z" transform="translate(-9.264)" fill="#1a1818"/></g></g></g></g></svg>