<svg width="149" height="48" viewBox="0 0 149 48" xmlns="http://www.w3.org/2000/svg"><title>two-color-logo</title><g fill="none" fill-rule="evenodd"><path d="M79.388 47.228c11.837 0 14.504-7.714 14.504-13.01V18.623h-8.727v15c0 4.113-2.305 5.911-5.777 5.911-3.48 0-5.784-1.798-5.784-5.91V18.622h-8.727v15.595c0 5.296 2.665 13.01 14.51 13.01m-64.874.001c11.84 0 14.507-7.714 14.507-13.01V18.623h-8.725v15c0 4.113-2.307 5.911-5.782 5.911-3.479 0-5.786-1.798-5.786-5.91V18.622H0v15.595c0 5.296 2.675 13.01 14.513 13.01M46.95 17.54c-11.841 0-14.513 7.712-14.513 13.008v15.594h8.73V31.138c0-4.103 2.305-5.904 5.783-5.904 3.476 0 5.78 1.801 5.78 5.904v15.004h8.728V30.548c0-5.296-2.67-13.008-14.508-13.008m73.105 4.418c-.376-.503-2.602-4.418-9.744-4.418-7.273 0-13.001 3.64-13.001 12.433v16.169h8.532V29.957c0-2.834 1.448-5.006 4.97-5.006 3.53 0 4.973 2.172 4.973 5.006v16.185h8.534V29.957c0-2.834 1.443-5.006 4.97-5.006 3.529 0 4.974 2.172 4.974 5.006v16.185h8.527v-16.17c0-8.793-5.73-12.432-13-12.432-7.13 0-9.362 3.915-9.735 4.418" fill="#015294"/><path d="M39.773 7.028c0 3.977 3.174 7.036 7.174 7.036 3.962 0 7.078-3.059 7.078-7.036C54.025 3.056 50.91 0 46.947 0c-4 0-7.174 3.056-7.174 7.028m32.431 0c0 3.977 3.177 7.036 7.18 7.036 3.96 0 7.075-3.059 7.075-7.036C86.46 3.056 83.344 0 79.383 0c-4.002 0-7.179 3.056-7.179 7.028m40.672 0c0 3.977 3.177 7.036 7.18 7.036 3.96 0 7.075-3.059 7.075-7.036 0-3.972-3.115-7.028-7.076-7.028-4.002 0-7.179 3.056-7.179 7.028" fill="#5E88A1"/><path d="M145.438 22.921a3.002 3.002 0 0 1-3.01-3.01 3.016 3.016 0 0 1 3.01-3.027 3.022 3.022 0 0 1 3.01 3.026 3.007 3.007 0 0 1-3.01 3.011zm0-5.602c-1.43 0-2.568 1.167-2.568 2.591a2.562 2.562 0 0 0 2.568 2.568c1.42 0 2.56-1.152 2.56-2.568 0-1.424-1.14-2.59-2.56-2.59zm.681 4.298l-1.08-1.57h-.102v1.57h-.485v-3.411c.228-.111.544-.18.867-.18.714 0 1.216.401 1.216 1.007 0 .587-.416.92-.978.979l1.148 1.605h-.586zm-.841-3.19c-.13 0-.249.026-.341.05v1.246h.263c.468 0 .833-.171.833-.69 0-.486-.417-.606-.755-.606z" fill="#015294"/></g></svg>