<svg width="149" height="48" viewBox="0 0 149 48" xmlns="http://www.w3.org/2000/svg" xmlns:xlink="http://www.w3.org/1999/xlink"><title>reversed-logo</title><defs><path id="a" d="M0 .571v28.605h29.02V.571H0z"/></defs><g fill="none" fill-rule="evenodd"><path d="M79.387 47.228c11.839 0 14.506-7.714 14.506-13.01V18.623h-8.728v15c0 4.113-2.306 5.911-5.778 5.911-3.48 0-5.783-1.798-5.783-5.91V18.622h-8.728v15.595c0 5.296 2.666 13.01 14.511 13.01" fill="#FFF"/><g transform="translate(0 18.052)"><mask id="b" fill="#fff"><use xlink:href="#a"/></mask><path d="M14.513 29.176c11.84 0 14.507-7.713 14.507-13.01V.572h-8.726v15c0 4.114-2.307 5.911-5.78 5.911-3.48 0-5.788-1.797-5.788-5.91v-15H0v15.595c0 5.296 2.675 13.01 14.513 13.01" fill="#FFF" mask="url(#b)"/></g><path d="M46.95 17.54c-11.841 0-14.513 7.712-14.513 13.008v15.594h8.73V31.138c0-4.103 2.305-5.904 5.783-5.904 3.477 0 5.78 1.801 5.78 5.904v15.004h8.727V30.548c0-5.296-2.669-13.008-14.507-13.008m73.105 4.418c-.377-.503-2.602-4.418-9.743-4.418-7.275 0-13.002 3.64-13.002 12.433v16.169h8.531V29.957c0-2.834 1.449-5.006 4.97-5.006 3.53 0 4.975 2.172 4.975 5.006v16.185h8.533V29.957c0-2.834 1.443-5.006 4.97-5.006 3.528 0 4.974 2.172 4.974 5.006v16.185h8.528v-16.17c0-8.793-5.73-12.432-13-12.432-7.131 0-9.364 3.915-9.736 4.418M39.773 7.028c0 3.977 3.173 7.036 7.173 7.036 3.963 0 7.079-3.059 7.079-7.036C54.025 3.057 50.909 0 46.946 0c-4 0-7.173 3.057-7.173 7.028m32.432 0c0 3.977 3.177 7.036 7.179 7.036 3.96 0 7.076-3.059 7.076-7.036C86.46 3.057 83.344 0 79.384 0c-4.002 0-7.18 3.057-7.18 7.028m40.671 0c0 3.977 3.178 7.036 7.18 7.036 3.96 0 7.076-3.059 7.076-7.036 0-3.971-3.116-7.028-7.076-7.028-4.002 0-7.18 3.057-7.18 7.028m32.563 15.893a3.001 3.001 0 0 1-3.01-3.01 3.016 3.016 0 0 1 3.01-3.028 3.022 3.022 0 0 1 3.01 3.027 3.008 3.008 0 0 1-3.01 3.011zm0-5.602c-1.43 0-2.568 1.167-2.568 2.591a2.562 2.562 0 0 0 2.568 2.568 2.562 2.562 0 0 0 2.561-2.568c0-1.424-1.14-2.59-2.561-2.59zm.68 4.298l-1.079-1.57h-.103v1.57h-.483v-3.411a2.05 2.05 0 0 1 .866-.18c.714 0 1.215.401 1.215 1.007 0 .586-.416.92-.976.979l1.148 1.605h-.588zm-.84-3.19a1.26 1.26 0 0 0-.342.052v1.244h.264c.468 0 .833-.171.833-.69 0-.486-.417-.606-.756-.606z" fill="#FFF"/></g></svg>