<svg xmlns="http://www.w3.org/2000/svg" width="348.293" height="167.861" viewBox="0 0 348.293 167.861"><g transform="translate(174.146 83.93)"><g transform="translate(-174.146 -83.93)"><g transform="translate(76.53 1.109)"><path d="M20.7,16.745A13.311,13.311,0,1,0,34.014,3.8,12.941,12.941,0,0,0,20.7,16.745" transform="translate(-20.699 9.137)" fill="#e2e1e2"/><path d="M20.7.3A12.941,12.941,0,0,0,34.011,13.241,12.941,12.941,0,0,0,47.321.3H20.7" transform="translate(-20.695 -0.3)" fill="#e2e1e2"/></g><g transform="translate(307.252 80.967)"><path d="M96.781,21.9a13.311,13.311,0,1,0,12.941,13.311A12.941,12.941,0,0,0,96.781,21.9" transform="translate(-83.1 -21.899)" fill="#e2e1e2"/><path d="M103.611,21.9a13.311,13.311,0,1,0,0,26.621V21.9" transform="translate(-63.679 -21.895)" fill="#e2e1e2"/></g><g transform="translate(280.261 126.82)"><path d="M102.418,47.981A13.311,13.311,0,1,0,89.107,60.921a12.941,12.941,0,0,0,13.311-12.941" transform="translate(-75.797 -34.3)" fill="#e2e1e2"/><path d="M102.421,54.811a13.311,13.311,0,1,0-26.621,0h26.621" transform="translate(-75.8 -14.879)" fill="#e2e1e2"/></g><g transform="translate(0.739 80.973)"><path d="M16.745,48.518A13.311,13.311,0,1,0,3.8,35.207,12.941,12.941,0,0,0,16.745,48.518" transform="translate(9.507 -21.897)" fill="#e2e1e2"/><path d="M.2,48.521A12.941,12.941,0,0,0,13.141,35.211,12.941,12.941,0,0,0,.2,21.9V48.521" transform="translate(-0.2 -21.9)" fill="#e2e1e2"/></g><path d="M277.481,11.639V97.419H12.009V11.639H277.481m1.109-.739H10.9V98.158H278.59V10.9Z" transform="translate(29.401 29.401)" fill="#e2e1e2"/><path d="M347.184,1.109V166.752H1.109V1.109H347.184M348.293.37H0V167.861H348.293V.37Z" fill="#e2e1e2"/><g transform="translate(41.411 41.036)"><path d="M70.891,73.742c22.184,0,26.991-14.42,26.991-24.4V20.5H81.613V48.23A9.613,9.613,0,0,1,70.891,59.322,9.613,9.613,0,0,1,60.168,48.23V20.5H43.9V49.709c0,9.983,4.807,24.4,26.991,24.4" transform="translate(77.004 14.261)" fill="#004383"/><path d="M38.191,73.742c22.184,0,26.991-14.42,26.991-24.4V20.5H48.913V48.23A9.613,9.613,0,0,1,38.191,59.322,9.613,9.613,0,0,1,27.468,48.23V20.5H11.2V49.709c0,9.983,4.807,24.4,26.991,24.4" transform="translate(-11.2 14.261)" fill="#004383"/><path d="M54.491,19.9C32.307,19.9,27.5,34.32,27.5,44.3V73.512H43.768v-28.1A9.613,9.613,0,0,1,54.491,34.32,9.613,9.613,0,0,1,65.213,45.412v28.1H81.482V44.3c0-9.983-4.807-24.4-26.991-24.4" transform="translate(32.767 12.642)" fill="#004383"/><path d="M102.35,28.034c-.739-1.109-4.807-8.134-18.117-8.134S60.2,26.555,60.2,43.193V73.142H76.1V43.193a9.243,9.243,0,0,1,18.487,0V73.512h15.9V43.193a9.243,9.243,0,0,1,18.487,0V73.512h15.9V43.193c0-16.268-10.722-23.293-24.033-23.293s-17.378,7.395-18.117,8.134" transform="translate(120.971 12.642)" fill="#004383"/><path d="M31.2,24.045A13.311,13.311,0,1,0,44.514,11.1,12.941,12.941,0,0,0,31.2,24.045" transform="translate(42.744 -11.099)" fill="#465f72"/><path d="M47.5,24.045A13.311,13.311,0,1,0,60.814,11.1,12.941,12.941,0,0,0,47.5,24.045" transform="translate(86.711 -11.099)" fill="#465f72"/><path d="M68,24.045A13.311,13.311,0,1,0,81.314,11.1,12.941,12.941,0,0,0,68,24.045" transform="translate(142.007 -11.099)" fill="#465f72"/><path d="M88.446,30.692a5.546,5.546,0,1,1,5.546-5.546,5.546,5.546,0,0,1-5.546,5.546Zm0-10.353a4.807,4.807,0,1,0,4.807,4.807A4.807,4.807,0,0,0,88.446,20.339Zm1.109,8.134-1.849-2.958h-.37v2.958H86.6V22.188h1.479c1.479,0,2.218.739,2.218,1.849a1.849,1.849,0,0,1-1.849,1.849l2.218,2.958Zm-1.479-5.916h-.739v2.218h.37c.739,0,1.479-.37,1.479-1.109s-.739-1.109-1.479-1.109Z" transform="translate(182.202 11.833)" fill="#004383"/></g></g></g></svg>