<svg width="271" height="38" viewBox="0 0 271 38" xmlns="http://www.w3.org/2000/svg"><title>header-logo-horizontal</title><path d="M213.252 37.369V26.911h1.31v10.458h-1.31zm35.7-8.668v8.668h-1.31V26.91h1.31v.987a2.782 2.782 0 0 1 1.003-.917 2.602 2.602 0 0 1 1.214-.305c.517 0 .972.216 1.366.65.393.434.59 1.043.59 1.829v8.214h-1.328v-8.24c0-.518-.102-.895-.306-1.131a1.01 1.01 0 0 0-.803-.353c-.273 0-.565.095-.877.284a3.343 3.343 0 0 0-.86.772zm19.446 7.96c.46 0 .805-.14 1.035-.418.23-.28.345-.658.345-1.135 0-.67-.597-1.528-1.79-2.575l-.759-.663c-.576-.507-1.012-.96-1.306-1.358a2.2 2.2 0 0 1-.44-1.34c0-.785.238-1.395.716-1.828.477-.434 1.114-.651 1.911-.651.38 0 .722.073 1.03.219.31.145.568.347.778.606.21.259.384.539.527.838.143.3.258.63.346.99l-1.162.359a4.447 4.447 0 0 0-.249-.925 2.28 2.28 0 0 0-.523-.79c-.236-.236-.505-.354-.808-.354-.389 0-.7.132-.929.397-.23.265-.345.607-.345 1.026 0 .349.112.68.336.995.224.314.55.652.974 1.013l.83.715c.266.233.471.415.614.546.142.13.323.317.541.559.22.24.383.459.493.654.11.195.211.43.302.703.09.273.137.553.143.838 0 .78-.246 1.395-.737 1.846-.492.45-1.134.676-1.925.676-.768 0-1.41-.27-1.925-.807-.514-.538-.874-1.22-1.078-2.047l1.004-.34a5.145 5.145 0 0 0 .734 1.458c.17.238.368.43.597.576.23.145.47.218.72.218zm-31.431.707V22.346h1.309v15.022h-1.309zm5.491-12.849v-1.562h1.309v1.562h-1.309zm0 12.85V26.911h1.309v10.458h-1.309zm-11.924-10.693c.938 0 1.611.332 2.022.995.41.663.615 1.71.615 3.142 0 .437-.006.795-.018 1.074h-4.189v1.597c0 .687.033 1.25.1 1.69.067.439.173.769.32.99.143.222.303.369.478.445.175.076.396.114.664.114.39 0 .717-.196.982-.59.264-.392.4-1.048.406-1.968h1.222c-.036.396-.08.748-.14 1.056a4.854 4.854 0 0 1-.275.926c-.125.308-.28.564-.462.768a2.068 2.068 0 0 1-.712.497 2.47 2.47 0 0 1-1.004.192c-.738 0-1.314-.147-1.724-.44-.41-.294-.712-.806-.903-1.537-.192-.73-.282-1.756-.27-3.076v-1.458c.005-.728.057-1.358.157-1.89.098-.533.228-.96.387-1.28.16-.32.367-.574.62-.763.253-.19.514-.317.782-.384.267-.067.582-.1.942-.1zm1.336 4.565a13.886 13.886 0 0 1 0-.707 9.619 9.619 0 0 0-.009-.72 15.568 15.568 0 0 0-.048-.694 2.955 2.955 0 0 0-.118-.615 2.02 2.02 0 0 0-.218-.493.942.942 0 0 0-.358-.333 1.089 1.089 0 0 0-.523-.122c-.32 0-.583.059-.79.175a1.468 1.468 0 0 0-.48.41c-.114.158-.197.422-.249.795-.053.372-.083.7-.092.982-.009.282-.013.723-.013 1.322h2.898zm26.103 5.922c-.41-.293-.712-.805-.903-1.537-.193-.729-.283-1.755-.271-3.075v-1.459c.006-.727.058-1.358.157-1.89.099-.533.228-.959.388-1.278.16-.32.367-.574.62-.764.253-.19.514-.317.78-.385.269-.065.583-.1.944-.1.937 0 1.61.332 2.02.996.41.664.617 1.71.617 3.143 0 .435-.006.794-.018 1.072h-4.19v1.598c0 .687.034 1.25.1 1.69.068.438.173.768.318.99.146.221.306.37.48.445.176.075.396.113.664.113.39 0 .718-.196.982-.589.265-.393.4-1.048.406-1.968h1.222c-.035.396-.082.747-.14 1.057a4.944 4.944 0 0 1-.275.925 2.592 2.592 0 0 1-.462.768 2.04 2.04 0 0 1-.711.497 2.473 2.473 0 0 1-1.004.193c-.74 0-1.314-.148-1.724-.441zm.166-7.245a45.63 45.63 0 0 0-.014 1.322h2.899a13.886 13.886 0 0 1 0-.706 9.626 9.626 0 0 0-.01-.72 15.568 15.568 0 0 0-.047-.694 2.955 2.955 0 0 0-.118-.616 2.099 2.099 0 0 0-.218-.493.939.939 0 0 0-.358-.331 1.096 1.096 0 0 0-.524-.122c-.32 0-.584.057-.79.173a1.466 1.466 0 0 0-.48.411c-.113.157-.196.422-.248.794-.053.372-.083.7-.092.982zm-53.886-22.7v7.805h-1.31V4.566h1.31V6.04c.163-.542.457-.947.882-1.218a2.536 2.536 0 0 1 1.317-.423v1.318l-.2-.035c-1.333 0-2 .512-2 1.536zm-6.696 7.56c-.419.163-.913.244-1.483.244h-3.49V0h3.228c.518 0 .978.073 1.38.218.401.146.727.337.977.576.25.24.455.527.615.865.16.337.271.68.332 1.03.062.348.092.724.092 1.125a4.14 4.14 0 0 1-.433 1.825c-.288.593-.684 1.006-1.19 1.24a2.6 2.6 0 0 1 .925.641c.261.282.462.598.602.947a5.492 5.492 0 0 1 .401 2.077c0 .524-.025.987-.074 1.388-.05.402-.148.805-.297 1.21a2.884 2.884 0 0 1-.589.998c-.245.263-.576.475-.996.638zm-3.648-7.306v6.538h2.374c.303 0 .568-.063.795-.188.227-.125.41-.289.55-.493a2.55 2.55 0 0 0 .336-.768c.085-.309.142-.623.174-.943.033-.32.048-.678.048-1.074 0-.355-.014-.672-.044-.95a4.268 4.268 0 0 0-.17-.83 2.237 2.237 0 0 0-.332-.686 1.446 1.446 0 0 0-.549-.44 1.839 1.839 0 0 0-.808-.166h-2.374zm0-6.459v5.438h2.13c.326 0 .605-.072.838-.214a1.45 1.45 0 0 0 .542-.594c.128-.253.22-.528.28-.825a5.1 5.1 0 0 0 .086-.977c0-1.886-.716-2.828-2.147-2.828h-1.729zm-1.549 33.274a9.359 9.359 0 0 1-.057-1.117v-6.372c0-3.108 1.318-4.66 3.954-4.66.42 0 .8.045 1.14.138.34.093.628.22.863.38.236.16.443.365.621.615.176.25.318.51.422.777.105.268.19.58.253.938.065.358.11.704.131 1.04.024.334.035.708.035 1.121v.104h-1.326v-.226c0-.425-.005-.747-.014-.965-.008-.218-.03-.506-.065-.864s-.099-.632-.192-.82a3.93 3.93 0 0 0-.367-.594 1.242 1.242 0 0 0-.61-.445 2.711 2.711 0 0 0-.908-.135c-.489 0-.908.082-1.257.248-.35.166-.62.397-.812.694a3.128 3.128 0 0 0-.415.96 4.782 4.782 0 0 0-.126 1.135v7.507c0 .384.035.728.105 1.034.07.306.19.598.361.878.172.28.43.496.773.65.344.154.765.231 1.266.231.46 0 .852-.08 1.178-.244.326-.163.57-.386.734-.668.163-.282.278-.575.344-.877.068-.303.101-.637.101-1.004v-2.54h-1.842v-1.004h3.17v7.167h-.586l-.394-1.467c-.197.518-.547.931-1.05 1.24a3.132 3.132 0 0 1-1.672.462c-.403 0-.77-.036-1.105-.109a3.964 3.964 0 0 1-.868-.284 2.536 2.536 0 0 1-.659-.449 3.483 3.483 0 0 1-.48-.546 3.036 3.036 0 0 1-.328-.628 5.424 5.424 0 0 1-.21-.646 5.17 5.17 0 0 1-.108-.655zm12.809 1.995c.204.236.472.354.804.354.273 0 .565-.095.877-.284.31-.19.597-.447.86-.773V26.91h1.309v10.458h-1.31v-.986a2.779 2.779 0 0 1-1.003.916 2.59 2.59 0 0 1-1.214.305c-.517 0-.972-.217-1.366-.65-.393-.433-.59-1.043-.59-1.83V26.91h1.328v8.24c0 .519.102.895.305 1.13zM219.23 6.355v8.667h-1.31V4.565h1.31v.987a2.767 2.767 0 0 1 1.003-.917 2.59 2.59 0 0 1 1.214-.306c.517 0 .972.217 1.366.65.393.434.59 1.043.59 1.83v8.213h-1.328v-8.24c0-.518-.102-.894-.305-1.13a1.014 1.014 0 0 0-.804-.353c-.273 0-.565.095-.877.283a3.323 3.323 0 0 0-.859.773zm-5.979 18.165v-1.562h1.31v1.562h-1.31zm-78.195 13.045c-2.04 0-3.715-.672-4.988-1.991-1.28-1.322-1.927-3.002-1.927-4.987 0-2.04.648-3.758 1.922-5.101 1.268-1.343 2.892-2.023 4.803-2.023 2.048 0 3.725.68 4.996 2.023 1.28 1.343 1.927 3.147 1.927 5.351 0 0-.007.447-.016.571h-10.61l.018.093c.15.98.579 1.776 1.25 2.356.673.586 1.55.875 2.599.875 1.228 0 2.296-.448 3.185-1.327.087.042 2.474 1.199 2.645 1.277-.67.965-1.47 1.693-2.4 2.161-.95.477-2.095.722-3.404.722zm-3.83-9.022l-.054.101h7.583l-.03-.093c-.23-.659-.683-1.213-1.353-1.632-.671-.415-1.463-.626-2.347-.626-.954 0-1.81.239-2.537.699-.45.301-.876.821-1.262 1.551zm-97.864 9.023V18.763h3.033v18.803h-3.033zm74.132-29.731c-1.046 0-1.896-1.756-1.896-3.913 0-2.162.888-3.921 1.936-3.921 1.043 0 1.856 1.759 1.856 3.921 0 2.157-.852 3.913-1.896 3.913zm8.723 9.4c-1.253 0-2.278-1.407-2.278-3.132 0-1.732 1.025-3.135 2.278-3.135 1.253 0 2.27 1.403 2.27 3.135 0 1.725-1.017 3.133-2.27 3.133zm5.567 20.33V26.54h-1.227v-2.8h1.227v-.088c.005-1.819.038-2.909.083-3.238.09-.746.401-1.347.921-1.78.526-.435 1.287-.654 2.256-.654.685 0 1.478.165 2.338.48v2.503c-.453-.126-.843-.204-1.142-.204-.419 0-.732.097-.942.287-.15.144-.224.425-.224.857l-.008 1.836h2.17v2.801h-2.17v11.026h-3.282zm-7.292 0V23.463h3.033v14.102h-3.033zm-45.494 0V23.463h3.033v14.102h-3.033zm75.83 0c-1.27 0-2.281-1.044-2.281-2.358s1.012-2.343 2.292-2.343c1.257 0 2.256 1.03 2.256 2.343 0 1.314-.999 2.358-2.268 2.358zm-.014-4.229c-.958 0-1.7.842-1.7 1.871 0 1.044.742 1.872 1.725 1.872.96.014 1.689-.828 1.689-1.858 0-1.043-.73-1.885-1.714-1.885zm-.337 2.156v.93h-.514V34.08c.202-.027.485-.072.85-.072.418 0 .61.072.757.185.135.1.23.273.23.5 0 .288-.203.473-.459.559v.027c.215.072.322.259.391.572.067.357.121.485.16.572h-.539c-.066-.087-.107-.287-.176-.572-.038-.244-.174-.358-.458-.358h-.242zm.012-1.056v.67h.244c.282 0 .513-.099.513-.342 0-.215-.149-.355-.473-.355-.135 0-.23.012-.284.027zm-33.03-.206v3.335h-8.34V17.98h3.301v16.25h5.039zm-53.754-2.166v5.502h-3.113V23.82h3.113v1.518l.123-.114c.733-.66 1.401-1.125 1.99-1.374a4.517 4.517 0 0 1 1.818-.387c1.26 0 2.341.47 3.222 1.42.736.79 1.108 1.999 1.108 3.57v9.113h-3.065v-6.008c0-1.687-.069-2.77-.21-3.33-.144-.559-.402-.992-.754-1.292-.36-.294-.807-.44-1.329-.44-.678 0-1.268.244-1.755.726-.479.48-.817 1.154-1.003 1.998-.098.45-.145 1.376-.145 2.844zm41.448-17.962c-1.02 0-1.896-2.513-1.896-5.483 0-2.976.875-5.485 1.896-5.485 1.031 0 1.896 2.51 1.896 5.485 0 2.97-.865 5.483-1.896 5.483zM24.956 37.565c-1.856 0-3.46-.7-4.777-2.055-1.315-1.362-1.98-3.04-1.98-4.985 0-2.087.752-3.848 2.237-5.249 1.3-1.2 2.816-1.813 4.51-1.813 1.222 0 2.386.315 3.464.945a6.738 6.738 0 0 1 2.532 2.578 7.12 7.12 0 0 1 .904 3.515 7.295 7.295 0 0 1-.91 3.55 6.728 6.728 0 0 1-2.495 2.577 6.742 6.742 0 0 1-3.485.937zm-2.645-9.867c-.714.728-1.08 1.67-1.08 2.8 0 1.164.363 2.114 1.066 2.844.711.722 1.621 1.09 2.707 1.09 1.087 0 2.003-.368 2.72-1.103.727-.735 1.09-1.687 1.09-2.83 0-1.15-.357-2.097-1.066-2.815-.708-.722-1.63-1.087-2.73-1.087-1.078 0-1.987.37-2.707 1.101zm23.118 9.867c-1.86 0-3.464-.7-4.78-2.055-1.312-1.362-1.979-3.04-1.979-4.985 0-2.087.751-3.848 2.238-5.249 1.301-1.2 2.82-1.813 4.51-1.813a6.78 6.78 0 0 1 3.463.945 6.78 6.78 0 0 1 2.528 2.578 7.135 7.135 0 0 1 .91 3.515 7.268 7.268 0 0 1-.916 3.55 6.742 6.742 0 0 1-5.974 3.514zm-2.646-9.867c-.718.728-1.08 1.67-1.08 2.8 0 1.164.357 2.114 1.07 2.844.706.722 1.616 1.09 2.702 1.09 1.085 0 2.003-.368 2.723-1.103.723-.735 1.087-1.687 1.087-2.83 0-1.15-.36-2.097-1.067-2.815-.71-.722-1.626-1.087-2.73-1.087-1.077 0-1.986.37-2.705 1.101zm38.558 9.867c-1.694 0-3.175-.682-4.42-2.02-1.23-1.336-1.856-3.021-1.856-5.003 0-2.072.605-3.784 1.803-5.106 1.194-1.306 2.662-1.973 4.373-1.973.787 0 1.531.149 2.219.451a6.314 6.314 0 0 1 1.926 1.362l.132.148v-1.613h3.195v13.407h-3.195v-1.547l-.129.133c-.65.62-1.301 1.076-1.944 1.345a5.237 5.237 0 0 1-2.104.416zm-2.173-9.877c-.714.726-1.07 1.669-1.07 2.8 0 1.139.364 2.094 1.086 2.83.722.736 1.628 1.114 2.689 1.114 1.092 0 2.008-.368 2.727-1.095.721-.726 1.081-1.687 1.081-2.862 0-1.149-.36-2.091-1.081-2.805-.719-.723-1.642-1.073-2.741-1.073-1.076 0-1.982.361-2.691 1.091zm-8.07-9.669c-1.462 0-2.652-1.229-2.652-2.741 0-1.518 1.19-2.743 2.653-2.743 1.466 0 2.654 1.225 2.654 2.743 0 1.512-1.188 2.741-2.654 2.741zm20.648 19.546V18.762h3.033v18.803h-3.033zm-.934-27.38c-1.047 0-1.895-1.936-1.895-4.313 0-2.374.847-4.305 1.894-4.305s1.897 1.93 1.897 4.305c0 2.377-.85 4.313-1.897 4.313zm-9.475 4.7c-1.256 0-2.276-1.584-2.276-3.523 0-1.945 1.02-3.528 2.276-3.528 1.252 0 2.273 1.583 2.273 3.528 0 1.94-1.021 3.523-2.273 3.523zM9.573 37.565c-2.794 0-5.115-.935-6.892-2.76C.898 32.971.001 30.6.001 27.735c0-1.852.407-3.517 1.216-4.955.812-1.43 1.99-2.609 3.498-3.489a9.71 9.71 0 0 1 4.907-1.313c1.482 0 2.93.326 4.304.973a10.382 10.382 0 0 1 3.513 2.723l-2.31 2.272c-1.642-1.769-3.51-2.673-5.56-2.673-1.75 0-3.249.633-4.452 1.866-1.2 1.241-1.81 2.792-1.81 4.606 0 1.261.266 2.404.8 3.382a5.847 5.847 0 0 0 2.27 2.324c.967.554 2.065.841 3.255.841 1.012 0 1.95-.2 2.79-.586.82-.388 1.732-1.095 2.705-2.083.098.104 2.134 2.303 2.245 2.41-1.31 1.31-2.566 2.232-3.733 2.742-1.185.52-2.555.79-4.066.79zm159.7.435V0h1.085v38h-1.085zm53.319-10.103v-5.55h1.31v15.022h-1.31v-.987c-.523.815-1.228 1.222-2.112 1.222-.158 0-.3-.013-.428-.039a1.645 1.645 0 0 1-.428-.166 1.463 1.463 0 0 1-.42-.34 2.758 2.758 0 0 1-.366-.594 4.23 4.23 0 0 1-.301-.89 10.231 10.231 0 0 1-.192-1.27 17.814 17.814 0 0 1-.074-1.703v-.829c0-.902.048-1.677.144-2.326.096-.649.214-1.148.354-1.497.139-.349.32-.624.54-.825.22-.2.426-.326.612-.375.186-.05.404-.074.654-.074.367 0 .726.103 1.079.31.35.206.665.51.938.911zm0 7.682v-6.896c-.623-.692-1.208-1.039-1.755-1.039-.128 0-.234.012-.318.035a.915.915 0 0 0-.288.157c-.108.082-.196.214-.262.398a6.112 6.112 0 0 0-.201.715c-.067.294-.114.68-.144 1.157a28.023 28.023 0 0 0-.044 1.676v.83c0 .546.013 1.032.039 1.457.027.425.06.777.1 1.056.042.28.097.516.167.711.069.196.137.345.2.45a.64.64 0 0 0 .249.236c.102.052.19.084.262.096.073.011.168.017.284.017.262 0 .547-.098.856-.292a3.69 3.69 0 0 0 .855-.764zM210.79 15.26c-.541 0-1.02-.215-1.44-.642-.418-.428-.628-.988-.628-1.68 0-.187.003-.337.009-.45.006-.114.02-.26.048-.44.026-.18.064-.333.113-.455a4.54 4.54 0 0 1 .219-.449c.095-.178.213-.335.353-.472a9.63 9.63 0 0 1 .524-.47c.209-.179.45-.348.724-.508.274-.16.595-.33.965-.515.369-.183.778-.368 1.227-.554v-.087c0-.594-.027-1.102-.08-1.523a5.377 5.377 0 0 0-.192-.978 1.432 1.432 0 0 0-.292-.537c-.12-.128-.231-.208-.336-.24a1.326 1.326 0 0 0-.384-.048c-.157 0-.297.022-.42.066a1.216 1.216 0 0 0-.392.253c-.14.125-.256.328-.35.611-.093.282-.15.635-.174 1.06v.062h-1.361c.069-.914.339-1.63.807-2.152.468-.52 1.084-.78 1.846-.78.425 0 .8.067 1.126.204.327.136.583.311.773.524a2.5 2.5 0 0 1 .458.763c.116.297.195.585.236.864.04.28.06.58.06.9v5.027c0 .367.014.751.04 1.153.026.401.054.71.083.925l.035.331h-1.222l-.166-1.265c-.28.49-.624.861-1.034 1.117-.41.256-.802.384-1.175.384zm-.615-3.366a2.37 2.37 0 0 0-.135.8c0 .5.105.87.314 1.112.21.241.457.362.742.362.332 0 .668-.119 1.009-.358.34-.239.606-.544.799-.916V9.21c-.425.297-.76.535-1.004.716-.246.18-.502.391-.773.633a3.872 3.872 0 0 0-.611.66c-.137.196-.25.422-.341.675zm17.108 1.335a9.989 9.989 0 0 1-.192-1.27 17.755 17.755 0 0 1-.075-1.702v-.829c0-.902.048-1.677.145-2.326.096-.649.214-1.148.353-1.497.14-.349.32-.624.541-.825.221-.201.425-.326.612-.375.185-.05.404-.074.654-.074.366 0 .726.103 1.078.31.352.206.665.51.94.912V0h1.308v15.022h-1.309v-.986c-.525.815-1.229 1.222-2.113 1.222-.157 0-.299-.013-.427-.039a1.61 1.61 0 0 1-.847-.507 2.719 2.719 0 0 1-.367-.593 4.221 4.221 0 0 1-.3-.891zm1.043-3.792v.829c0 .547.013 1.033.04 1.458.025.425.06.777.1 1.056.041.28.095.516.166.712.07.195.136.344.2.449a.626.626 0 0 0 .25.236.924.924 0 0 0 .261.096c.073.011.168.017.284.017.261 0 .547-.097.855-.292.31-.195.594-.45.856-.764V6.337c-.623-.693-1.208-1.039-1.755-1.039-.128 0-.235.012-.319.035a.891.891 0 0 0-.288.158c-.107.081-.195.214-.26.397a6.088 6.088 0 0 0-.203.715c-.066.294-.115.68-.143 1.157a28.023 28.023 0 0 0-.044 1.676z" fill="#FEFEFE" fill-rule="evenodd"/></svg>